<?xml version="1.0" encoding="iso-8859-1"?>
<!-- Generator: Adobe Illustrator 16.0.0, SVG Export Plug-In . SVG Version: 6.00 Build 0)  -->
<!DOCTYPE svg PUBLIC "-//W3C//DTD SVG 1.1//EN" "http://www.w3.org/Graphics/SVG/1.1/DTD/svg11.dtd">
<svg version="1.1" id="&#x5716;&#x5C64;_1" xmlns="http://www.w3.org/2000/svg" xmlns:xlink="http://www.w3.org/1999/xlink" x="0px"
	 y="0px" width="25.5px" height="48.5px" viewBox="0 0 25.5 48.5" style="enable-background:new 0 0 25.5 48.5;"
	 xml:space="preserve">
<g>
	<path style="fill:#FFFFFF;stroke:#DCDDDD;stroke-width:0.5;stroke-miterlimit:10;" d="M25.25,40.75c0,4.143-3.357,7.5-7.5,7.5h-10
		c-4.143,0-7.5-3.357-7.5-7.5v-33c0-4.143,3.357-7.5,7.5-7.5h10c4.143,0,7.5,3.357,7.5,7.5V40.75z"/>
	<line style="fill:none;stroke:#2C50A2;stroke-width:0.5;stroke-miterlimit:10;" x1="4.75" y1="24.271" x2="20.75" y2="24.271"/>
	<rect x="8.5" y="34.25" style="fill:#2C50A2;" width="8.5" height="2.5"/>
	<polygon style="fill:#2C50A2;" points="17,11.063 14,11.063 14,8.063 11.5,8.063 11.5,11.063 8.5,11.063 8.5,13.563 11.5,13.563 
		11.5,16.563 14,16.563 14,13.563 17,13.563 	"/>
</g>
</svg>
