<?xml version="1.0" encoding="iso-8859-1"?>
<!-- Generator: Adobe Illustrator 16.0.0, SVG Export Plug-In . SVG Version: 6.00 Build 0)  -->
<!DOCTYPE svg PUBLIC "-//W3C//DTD SVG 1.1//EN" "http://www.w3.org/Graphics/SVG/1.1/DTD/svg11.dtd">
<svg version="1.1" id="&#x5716;&#x5C64;_1" xmlns="http://www.w3.org/2000/svg" xmlns:xlink="http://www.w3.org/1999/xlink" x="0px"
	 y="0px" width="90.604px" height="205.325px" viewBox="0 0 90.604 205.325" style="enable-background:new 0 0 90.604 205.325;"
	 xml:space="preserve">
<g>
	<g>
		<polygon style="fill:#2C50A2;" points="1,159.317 1,54.41 89.604,1.75 89.604,36.87 30.543,71.972 30.543,115.808 60.063,98.26 
			60.063,124.634 		"/>
		<polygon style="fill:#E8C41D;" points="60.063,133.341 1,168.444 1,203.56 89.604,150.896 89.604,45.568 30.543,80.672 
			30.543,107.07 60.063,89.517 		"/>
		<polygon style="fill:#F08719;" points="30.543,107.07 30.543,115.808 60.063,98.26 60.063,89.517 		"/>
	</g>
	<g>
		<polygon style="fill:none;stroke:#FFFFFF;stroke-width:2;stroke-miterlimit:10;" points="1,159.327 1,54.417 89.604,1.758 
			89.604,36.875 30.549,71.979 30.549,115.817 60.066,98.271 60.066,124.642 		"/>
		<polygon style="fill:none;stroke:#FFFFFF;stroke-width:2;stroke-miterlimit:10;" points="60.066,133.346 1,168.452 1,203.567 
			89.604,150.907 89.604,45.579 30.549,80.68 30.549,107.078 60.066,89.527 		"/>
		<polygon style="fill:none;stroke:#FFFFFF;stroke-width:2;stroke-miterlimit:10;" points="30.549,107.078 30.549,115.817 
			60.066,98.271 60.066,89.527 		"/>
	</g>
</g>
</svg>
