<?xml version="1.0" encoding="iso-8859-1"?>
<!-- Generator: Adobe Illustrator 16.0.0, SVG Export Plug-In . SVG Version: 6.00 Build 0)  -->
<!DOCTYPE svg PUBLIC "-//W3C//DTD SVG 1.1//EN" "http://www.w3.org/Graphics/SVG/1.1/DTD/svg11.dtd">
<svg version="1.1" id="&#x5716;&#x5C64;_1" xmlns="http://www.w3.org/2000/svg" xmlns:xlink="http://www.w3.org/1999/xlink" x="0px"
	 y="0px" width="458.11px" height="43px" viewBox="0 0 458.11 43" style="enable-background:new 0 0 458.11 43;"
	 xml:space="preserve">
<g>
	<rect x="0.5" y="0.5" style="fill:#FFFFFF;stroke:#EFEFEF;stroke-miterlimit:10;" width="457.11" height="42"/>
	<path style="fill:#2C50A2;stroke:#00A0E9;stroke-width:0.25;stroke-miterlimit:10;" d="M24.396,11.607
		c-4.026,0-7.28,2.955-7.28,6.594c0,0.582,0.079,1.143,0.24,1.676h-0.007c0.611,3.463,7.047,10.852,7.047,10.852
		s6.429-7.389,7.04-10.852c0.16-0.533,0.24-1.094,0.24-1.676C31.676,14.563,28.414,11.607,24.396,11.607z M27.03,18.828
		c-0.306,1.063-1.369,1.848-2.635,1.848c-1.268,0-2.33-0.785-2.635-1.848c-0.066-0.197-0.096-0.408-0.096-0.627
		c0-1.363,1.223-2.473,2.73-2.473c1.507,0,2.73,1.109,2.73,2.473C27.126,18.42,27.097,18.631,27.03,18.828z"/>
</g>
</svg>
