<?xml version="1.0" encoding="iso-8859-1"?>
<!-- Generator: Adobe Illustrator 16.0.0, SVG Export Plug-In . SVG Version: 6.00 Build 0)  -->
<!DOCTYPE svg PUBLIC "-//W3C//DTD SVG 1.1//EN" "http://www.w3.org/Graphics/SVG/1.1/DTD/svg11.dtd">
<svg version="1.1" id="&#x5716;&#x5C64;_1" xmlns="http://www.w3.org/2000/svg" xmlns:xlink="http://www.w3.org/1999/xlink" x="0px"
	 y="0px" width="85px" height="33px" viewBox="0 0 85 33" style="enable-background:new 0 0 85 33;" xml:space="preserve">
<g>
	<path style="fill:#2C50A2;stroke:#4B67B0;stroke-miterlimit:10;" d="M68.5,0.5h-52c-8.836,0-16,7.164-16,16c0,8.836,7.164,16,16,16
		h52v0c8.838,0,16-7.163,16-16C84.5,7.664,77.338,0.5,68.5,0.5z"/>
	<g>
		<path style="fill:#FFFFFF;" d="M24.729,12.211l-1.418,1.251c-0.498-0.693-1.004-1.039-1.52-1.039
			c-0.252,0-0.457,0.067-0.617,0.202s-0.24,0.286-0.24,0.455s0.057,0.328,0.172,0.479c0.154,0.201,0.623,0.631,1.404,1.292
			c0.73,0.611,1.172,0.996,1.328,1.155c0.387,0.392,0.662,0.767,0.824,1.125s0.244,0.749,0.244,1.172
			c0,0.825-0.285,1.506-0.855,2.044s-1.314,0.807-2.23,0.807c-0.717,0-1.342-0.175-1.873-0.526s-0.986-0.902-1.365-1.654
			l1.609-0.971c0.484,0.889,1.041,1.333,1.67,1.333c0.33,0,0.605-0.096,0.828-0.287c0.225-0.191,0.336-0.413,0.336-0.663
			c0-0.228-0.084-0.456-0.252-0.684c-0.17-0.228-0.541-0.577-1.117-1.046c-1.096-0.893-1.803-1.583-2.123-2.068
			c-0.318-0.485-0.479-0.97-0.479-1.453c0-0.697,0.266-1.295,0.797-1.794s1.188-0.749,1.967-0.749c0.502,0,0.98,0.116,1.436,0.349
			C23.707,11.172,24.199,11.596,24.729,12.211z"/>
		<path style="fill:#FFFFFF;" d="M27.254,10.399c0.328,0,0.607,0.119,0.842,0.355s0.352,0.524,0.352,0.861
			c0,0.333-0.117,0.616-0.348,0.851c-0.232,0.235-0.51,0.352-0.832,0.352c-0.332,0-0.615-0.12-0.85-0.359
			c-0.232-0.239-0.35-0.53-0.35-0.872c0-0.328,0.115-0.608,0.348-0.841C26.646,10.516,26.926,10.399,27.254,10.399z M26.32,13.462
			h1.867v7.438H26.32V13.462z"/>
		<path style="fill:#FFFFFF;" d="M35.379,13.462h1.859v6.371c0,1.258-0.254,2.183-0.76,2.775c-0.678,0.802-1.701,1.203-3.068,1.203
			c-0.73,0-1.342-0.091-1.84-0.273c-0.496-0.182-0.916-0.45-1.258-0.803s-0.594-0.783-0.758-1.289h2.057
			c0.184,0.209,0.418,0.368,0.705,0.475s0.627,0.161,1.018,0.161c0.502,0,0.904-0.078,1.211-0.232
			c0.305-0.155,0.52-0.355,0.646-0.602c0.125-0.246,0.188-0.67,0.188-1.271c-0.328,0.328-0.672,0.564-1.033,0.708
			c-0.359,0.144-0.768,0.215-1.223,0.215c-0.998,0-1.842-0.36-2.529-1.08c-0.689-0.72-1.033-1.631-1.033-2.734
			c0-1.18,0.365-2.128,1.094-2.844c0.662-0.647,1.449-0.971,2.365-0.971c0.43,0,0.834,0.079,1.215,0.236
			c0.379,0.157,0.762,0.416,1.145,0.776V13.462z M33.443,15.014c-0.588,0-1.072,0.197-1.455,0.591s-0.574,0.89-0.574,1.487
			c0,0.62,0.195,1.128,0.588,1.524c0.391,0.396,0.883,0.595,1.477,0.595c0.578,0,1.057-0.194,1.432-0.581
			c0.377-0.387,0.564-0.896,0.564-1.524c0-0.62-0.189-1.124-0.568-1.511C34.529,15.208,34.041,15.014,33.443,15.014z"/>
		<path style="fill:#FFFFFF;" d="M39.125,13.462h1.865v0.762c0.424-0.357,0.807-0.605,1.15-0.744
			c0.344-0.14,0.695-0.209,1.055-0.209c0.738,0,1.363,0.257,1.877,0.772c0.434,0.438,0.648,1.084,0.648,1.941v4.915h-1.846v-3.257
			c0-0.888-0.039-1.477-0.119-1.769s-0.219-0.513-0.416-0.666c-0.197-0.153-0.441-0.229-0.732-0.229
			c-0.377,0-0.701,0.126-0.973,0.379c-0.27,0.253-0.457,0.602-0.563,1.048c-0.055,0.232-0.082,0.735-0.082,1.509v2.984h-1.865
			V13.462z"/>
		<path style="fill:#FFFFFF;" d="M51.436,13.462h1.887v3.582c0,0.697,0.049,1.182,0.145,1.453s0.25,0.482,0.463,0.632
			c0.211,0.15,0.473,0.226,0.785,0.226c0.311,0,0.574-0.074,0.791-0.222s0.377-0.366,0.482-0.653
			c0.078-0.214,0.117-0.672,0.117-1.374v-3.644h1.865v3.151c0,1.299-0.102,2.188-0.307,2.666c-0.252,0.583-0.621,1.031-1.107,1.343
			c-0.488,0.312-1.107,0.468-1.859,0.468c-0.816,0-1.477-0.182-1.979-0.547c-0.504-0.365-0.859-0.873-1.064-1.524
			c-0.145-0.451-0.219-1.271-0.219-2.461V13.462z"/>
		<path style="fill:#FFFFFF;" d="M61.697,13.462v0.82c0.336-0.337,0.701-0.59,1.094-0.759c0.391-0.168,0.811-0.253,1.258-0.253
			c0.971,0,1.795,0.367,2.475,1.101c0.678,0.734,1.018,1.675,1.018,2.823c0,1.107-0.35,2.034-1.053,2.779
			c-0.701,0.745-1.533,1.118-2.494,1.118c-0.43,0-0.828-0.076-1.197-0.229s-0.736-0.402-1.1-0.749v3.507h-1.854V13.462H61.697z
			 M63.658,14.993c-0.588,0-1.074,0.201-1.463,0.602c-0.387,0.401-0.58,0.925-0.58,1.572c0,0.661,0.193,1.195,0.58,1.603
			c0.389,0.408,0.875,0.612,1.463,0.612c0.57,0,1.049-0.208,1.439-0.622c0.389-0.415,0.584-0.943,0.584-1.586
			c0-0.638-0.191-1.161-0.574-1.569S64.242,14.993,63.658,14.993z"/>
	</g>
</g>
</svg>
