<?xml version="1.0" encoding="iso-8859-1"?>
<!-- Generator: Adobe Illustrator 16.0.0, SVG Export Plug-In . SVG Version: 6.00 Build 0)  -->
<!DOCTYPE svg PUBLIC "-//W3C//DTD SVG 1.1//EN" "http://www.w3.org/Graphics/SVG/1.1/DTD/svg11.dtd">
<svg version="1.1" id="&#x5716;&#x5C64;_1" xmlns="http://www.w3.org/2000/svg" xmlns:xlink="http://www.w3.org/1999/xlink" x="0px"
	 y="0px" width="843.139px" height="129.545px" viewBox="0 0 843.139 129.545" style="enable-background:new 0 0 843.139 129.545;"
	 xml:space="preserve">
<g>
	
		<line style="fill:none;stroke:#FAFAFA;stroke-width:0.75;stroke-miterlimit:10;" x1="640.444" y1="129.545" x2="710.444" y2="129.545"/>
	<g>
		<rect x="823.724" y="75.637" style="fill:#2C50A2;" width="19.415" height="7"/>
		<rect x="820.844" y="75.637" style="fill:#2E51A2;" width="19.416" height="7"/>
		<rect x="817.965" y="75.637" style="fill:#2F51A2;" width="19.414" height="7"/>
		<rect x="815.084" y="75.636" style="fill:#3052A2;" width="19.415" height="7.002"/>
		<rect x="812.204" y="75.637" style="fill:#3253A2;" width="19.415" height="7"/>
		<rect x="809.324" y="75.637" style="fill:#3353A2;" width="19.415" height="7"/>
		<rect x="806.443" y="75.637" style="fill:#3454A2;" width="19.416" height="6.998"/>
		<rect x="803.563" y="75.637" style="fill:#3654A2;" width="19.415" height="7"/>
		<rect x="800.684" y="75.637" style="fill:#3755A2;" width="19.414" height="7"/>
		<rect x="797.803" y="75.637" style="fill:#3856A2;" width="19.415" height="6.998"/>
		<rect x="794.923" y="75.636" style="fill:#3956A2;" width="19.415" height="7.002"/>
		<rect x="792.043" y="75.637" style="fill:#3A57A2;" width="19.414" height="7"/>
		<rect x="789.163" y="75.637" style="fill:#3C57A2;" width="19.415" height="7"/>
		<rect x="786.283" y="75.636" style="fill:#3D58A2;" width="19.414" height="7.002"/>
		<rect x="783.402" y="75.636" style="fill:#3E59A2;" width="19.415" height="7.002"/>
		<rect x="780.522" y="75.637" style="fill:#3F59A2;" width="19.415" height="6.998"/>
		<rect x="777.643" y="75.637" style="fill:#405AA2;" width="19.414" height="6.998"/>
		<rect x="774.762" y="75.635" style="fill:#415AA2;" width="19.415" height="7.002"/>
		<rect x="771.882" y="75.637" style="fill:#425BA2;" width="19.415" height="6.998"/>
		<rect x="769.002" y="75.637" style="fill:#445CA2;" width="19.414" height="7"/>
		<rect x="766.121" y="75.637" style="fill:#455CA2;" width="19.416" height="7"/>
		<rect x="763.241" y="75.637" style="fill:#465DA2;" width="19.415" height="7"/>
		<rect x="760.361" y="75.637" style="fill:#475DA2;" width="19.415" height="6.998"/>
		<rect x="757.48" y="75.636" style="fill:#485EA2;" width="19.416" height="7.002"/>
		<rect x="754.601" y="75.637" style="fill:#495FA2;" width="19.415" height="7"/>
		<rect x="751.721" y="75.637" style="fill:#4B5FA2;" width="19.415" height="6.998"/>
		<rect x="748.84" y="75.637" style="fill:#4C60A2;" width="19.416" height="7"/>
		<rect x="745.961" y="75.637" style="fill:#4D61A2;" width="19.414" height="7"/>
		<rect x="743.08" y="75.637" style="fill:#4E61A2;" width="19.415" height="7"/>
		<rect x="740.2" y="75.637" style="fill:#4F62A2;" width="19.415" height="6.998"/>
		<rect x="737.32" y="75.636" style="fill:#5062A2;" width="19.414" height="7.002"/>
		<rect x="734.439" y="75.637" style="fill:#5163A2;" width="19.415" height="7"/>
		<rect x="731.56" y="75.636" style="fill:#5264A2;" width="19.415" height="7.002"/>
		<rect x="728.68" y="75.636" style="fill:#5364A2;" width="19.414" height="7.002"/>
		<rect x="725.799" y="75.637" style="fill:#5565A2;" width="19.416" height="7"/>
		<rect x="722.919" y="75.637" style="fill:#5666A2;" width="19.415" height="6.998"/>
		<rect x="720.039" y="75.636" style="fill:#5766A2;" width="19.415" height="7.002"/>
		<rect x="717.159" y="75.637" style="fill:#5867A2;" width="19.415" height="7"/>
		<rect x="714.279" y="75.637" style="fill:#5968A2;" width="19.414" height="6.998"/>
		<rect x="711.398" y="75.637" style="fill:#5A68A2;" width="19.415" height="7"/>
		<rect x="708.518" y="75.636" style="fill:#5B69A2;" width="19.416" height="7.002"/>
		<rect x="705.639" y="75.636" style="fill:#5C6AA2;" width="19.414" height="7.002"/>
		<rect x="702.758" y="75.637" style="fill:#5D6AA1;" width="19.415" height="6.998"/>
		<rect x="699.879" y="75.635" style="fill:#5E6BA1;" width="19.414" height="7.002"/>
		<rect x="696.998" y="75.637" style="fill:#5F6CA1;" width="19.414" height="7"/>
		<rect x="694.117" y="75.637" style="fill:#606CA1;" width="19.416" height="6.998"/>
		<rect x="691.237" y="75.637" style="fill:#616DA1;" width="19.415" height="6.998"/>
		<rect x="688.357" y="75.637" style="fill:#626EA1;" width="19.414" height="6.998"/>
		<rect x="685.477" y="75.637" style="fill:#636EA1;" width="19.415" height="7"/>
		<rect x="682.597" y="75.637" style="fill:#646FA1;" width="19.415" height="6.998"/>
		<rect x="679.717" y="75.635" style="fill:#656FA1;" width="19.415" height="7.002"/>
		<rect x="676.837" y="75.637" style="fill:#6670A1;" width="19.415" height="7"/>
		<rect x="673.957" y="75.637" style="fill:#6771A1;" width="19.414" height="7"/>
		<rect x="671.076" y="75.636" style="fill:#6871A1;" width="19.415" height="7.002"/>
		<rect x="668.196" y="75.636" style="fill:#6972A1;" width="19.415" height="7.002"/>
		<rect x="665.316" y="75.637" style="fill:#6A73A1;" width="19.414" height="7"/>
		<rect x="662.436" y="75.637" style="fill:#6B73A0;" width="19.415" height="6.998"/>
		<rect x="659.556" y="75.636" style="fill:#6C74A0;" width="19.415" height="7.002"/>
		<rect x="656.676" y="75.637" style="fill:#6D75A0;" width="19.414" height="6.998"/>
		<rect x="653.796" y="75.637" style="fill:#6E75A0;" width="19.414" height="6.998"/>
		<rect x="650.915" y="75.637" style="fill:#6F76A0;" width="19.415" height="7"/>
		<rect x="648.035" y="75.636" style="fill:#7077A0;" width="19.415" height="7.002"/>
		<rect x="645.155" y="75.637" style="fill:#7177A0;" width="19.415" height="7"/>
		<rect x="642.275" y="75.637" style="fill:#7278A0;" width="19.414" height="7"/>
		<rect x="639.395" y="75.637" style="fill:#7379A0;" width="19.415" height="7"/>
		<rect x="636.515" y="75.636" style="fill:#73799F;" width="19.415" height="7.002"/>
		<rect x="633.635" y="75.637" style="fill:#747A9F;" width="19.414" height="6.998"/>
		<rect x="630.754" y="75.637" style="fill:#757B9F;" width="19.415" height="7"/>
		<rect x="627.874" y="75.637" style="fill:#767B9F;" width="19.415" height="7"/>
		<rect x="624.994" y="75.637" style="fill:#777C9F;" width="19.414" height="7"/>
		<rect x="622.113" y="75.637" style="fill:#787D9F;" width="19.416" height="7"/>
		<rect x="619.234" y="75.637" style="fill:#797D9F;" width="19.414" height="7"/>
		<rect x="616.354" y="75.637" style="fill:#7A7E9F;" width="19.414" height="7"/>
		<rect x="613.474" y="75.637" style="fill:#7B7F9E;" width="19.414" height="7"/>
		<rect x="610.594" y="75.637" style="fill:#7C7F9E;" width="19.414" height="7"/>
		<rect x="607.713" y="75.637" style="fill:#7D809E;" width="19.415" height="7"/>
		<rect x="604.833" y="75.637" style="fill:#7E819E;" width="19.415" height="7"/>
		<rect x="601.953" y="75.637" style="fill:#7F819E;" width="19.414" height="6.998"/>
		<rect x="599.072" y="75.636" style="fill:#80829E;" width="19.415" height="7.002"/>
		<rect x="596.192" y="75.637" style="fill:#81839E;" width="19.415" height="7"/>
		<rect x="593.313" y="75.635" style="fill:#82839D;" width="19.414" height="7.002"/>
		<rect x="590.432" y="75.637" style="fill:#83849D;" width="19.414" height="7"/>
		<rect x="587.552" y="75.636" style="fill:#84859D;" width="19.415" height="7.002"/>
		<rect x="584.672" y="75.637" style="fill:#85859D;" width="19.414" height="7"/>
		<rect x="581.792" y="75.637" style="fill:#85869D;" width="19.414" height="6.998"/>
		<rect x="578.912" y="75.637" style="fill:#86879D;" width="19.414" height="6.998"/>
		<rect x="576.031" y="75.637" style="fill:#87889C;" width="19.415" height="7"/>
		<rect x="573.151" y="75.637" style="fill:#88889C;" width="19.415" height="6.998"/>
		<rect x="570.271" y="75.637" style="fill:#89899C;" width="19.414" height="7"/>
		<rect x="567.391" y="75.636" style="fill:#8A8A9C;" width="19.415" height="7.002"/>
		<rect x="564.51" y="75.636" style="fill:#8B8A9C;" width="19.416" height="7.002"/>
		<rect x="561.631" y="75.637" style="fill:#8C8B9C;" width="19.414" height="7"/>
		<rect x="558.75" y="75.637" style="fill:#8D8C9B;" width="19.415" height="7"/>
		<rect x="555.87" y="75.635" style="fill:#8E8C9B;" width="19.415" height="7.002"/>
		<rect x="552.99" y="75.637" style="fill:#8F8D9B;" width="19.414" height="6.998"/>
		<rect x="550.11" y="75.637" style="fill:#908E9B;" width="19.414" height="7"/>
		<rect x="547.23" y="75.637" style="fill:#918F9B;" width="19.414" height="6.998"/>
		<rect x="544.35" y="75.636" style="fill:#928F9A;" width="19.414" height="7.002"/>
		<rect x="541.47" y="75.637" style="fill:#93909A;" width="19.414" height="6.998"/>
		<rect x="538.59" y="75.637" style="fill:#94919A;" width="19.414" height="7"/>
		<rect x="535.709" y="75.635" style="fill:#95919A;" width="19.414" height="7.002"/>
		<rect x="532.829" y="75.637" style="fill:#969299;" width="19.414" height="6.998"/>
		<rect x="529.949" y="75.635" style="fill:#979399;" width="19.414" height="7.002"/>
		<rect x="527.068" y="75.637" style="fill:#989499;" width="19.415" height="7"/>
		<rect x="524.188" y="75.637" style="fill:#989499;" width="19.416" height="7"/>
		<rect x="521.309" y="75.637" style="fill:#999598;" width="19.414" height="6.998"/>
		<rect x="518.428" y="75.637" style="fill:#9A9698;" width="19.414" height="7"/>
		<rect x="515.548" y="75.636" style="fill:#9B9698;" width="19.415" height="7.002"/>
		<rect x="512.668" y="75.637" style="fill:#9C9798;" width="19.414" height="7"/>
		<rect x="509.787" y="75.637" style="fill:#9D9897;" width="19.415" height="6.998"/>
		<rect x="506.908" y="75.637" style="fill:#9E9997;" width="19.414" height="7"/>
		<rect x="504.027" y="75.637" style="fill:#9F9997;" width="19.414" height="7"/>
		<rect x="501.146" y="75.637" style="fill:#A09A97;" width="19.415" height="7"/>
		<rect x="498.268" y="75.637" style="fill:#A19B96;" width="19.414" height="7"/>
		<rect x="495.387" y="75.636" style="fill:#A29B96;" width="19.414" height="7.002"/>
		<rect x="492.507" y="75.637" style="fill:#A39C96;" width="19.415" height="7"/>
		<rect x="489.627" y="75.637" style="fill:#A49D95;" width="19.414" height="7"/>
		<rect x="486.746" y="75.637" style="fill:#A59E95;" width="19.414" height="7"/>
		<rect x="483.866" y="75.637" style="fill:#A69E95;" width="19.414" height="7"/>
		<rect x="480.986" y="75.637" style="fill:#A79F95;" width="19.414" height="7"/>
		<rect x="478.105" y="75.637" style="fill:#A7A094;" width="19.415" height="6.998"/>
		<rect x="475.226" y="75.637" style="fill:#A8A194;" width="19.415" height="6.998"/>
		<rect x="472.346" y="75.636" style="fill:#A9A194;" width="19.414" height="7.002"/>
		<rect x="469.465" y="75.637" style="fill:#AAA293;" width="19.414" height="7"/>
		<rect x="466.585" y="75.636" style="fill:#ABA393;" width="19.415" height="7.002"/>
		<rect x="463.705" y="75.637" style="fill:#ACA393;" width="19.414" height="7"/>
		<rect x="460.825" y="75.637" style="fill:#ADA492;" width="19.414" height="7"/>
		<rect x="457.945" y="75.637" style="fill:#AEA592;" width="19.414" height="7"/>
		<rect x="455.064" y="75.637" style="fill:#AFA692;" width="19.414" height="7"/>
		<rect x="452.185" y="75.637" style="fill:#B0A691;" width="19.414" height="7"/>
		<rect x="449.305" y="75.637" style="fill:#B0A791;" width="19.414" height="7"/>
		<rect x="446.424" y="75.637" style="fill:#B1A891;" width="19.414" height="7"/>
		<rect x="443.544" y="75.637" style="fill:#B2A890;" width="19.414" height="7"/>
		<rect x="440.664" y="75.636" style="fill:#B3A990;" width="19.414" height="7.002"/>
		<rect x="437.783" y="75.637" style="fill:#B4AA90;" width="19.414" height="7"/>
		<rect x="434.904" y="75.637" style="fill:#B5AB8F;" width="19.413" height="7"/>
		<rect x="432.023" y="75.637" style="fill:#B6AB8F;" width="19.414" height="7"/>
		<rect x="429.143" y="75.637" style="fill:#B7AC8F;" width="19.415" height="7"/>
		<rect x="426.264" y="75.637" style="fill:#B8AD8E;" width="19.413" height="6.998"/>
		<rect x="423.383" y="75.637" style="fill:#B9AE8E;" width="19.414" height="7"/>
		<rect x="420.503" y="75.637" style="fill:#B9AE8D;" width="19.414" height="7"/>
		<rect x="417.623" y="75.637" style="fill:#BAAF8D;" width="19.414" height="7"/>
		<rect x="414.742" y="75.637" style="fill:#BBB08D;" width="19.414" height="7"/>
		<rect x="411.862" y="75.637" style="fill:#BCB08C;" width="19.414" height="7"/>
		<rect x="408.014" y="75.637" style="fill:#BDB18C;" width="19.414" height="7"/>
		<rect x="404.164" y="75.637" style="fill:#BDB18B;" width="19.414" height="7"/>
		<rect x="400.314" y="75.637" style="fill:#BDB28A;" width="19.414" height="7"/>
		<rect x="396.466" y="75.637" style="fill:#BEB28A;" width="19.414" height="6.998"/>
		<rect x="392.617" y="75.637" style="fill:#BEB289;" width="19.414" height="7"/>
		<rect x="388.768" y="75.637" style="fill:#BFB389;" width="19.414" height="7"/>
		<rect x="384.918" y="75.637" style="fill:#BFB388;" width="19.414" height="7"/>
		<rect x="381.069" y="75.636" style="fill:#BFB387;" width="19.414" height="7.002"/>
		<rect x="377.221" y="75.637" style="fill:#C0B487;" width="19.413" height="6.998"/>
		<rect x="373.371" y="75.637" style="fill:#C0B486;" width="19.414" height="7"/>
		<rect x="369.521" y="75.637" style="fill:#C1B585;" width="19.414" height="7"/>
		<rect x="365.672" y="75.637" style="fill:#C1B585;" width="19.414" height="7"/>
		<rect x="361.823" y="75.635" style="fill:#C1B584;" width="19.415" height="7.002"/>
		<rect x="357.974" y="75.637" style="fill:#C2B683;" width="19.415" height="7"/>
		<rect x="354.125" y="75.637" style="fill:#C2B683;" width="19.414" height="6.998"/>
		<rect x="350.275" y="75.637" style="fill:#C3B782;" width="19.414" height="6.998"/>
		<rect x="346.427" y="75.636" style="fill:#C3B781;" width="19.414" height="7.002"/>
		<rect x="342.577" y="75.637" style="fill:#C3B781;" width="19.414" height="6.998"/>
		<rect x="338.729" y="75.637" style="fill:#C4B880;" width="19.414" height="7"/>
		<rect x="334.879" y="75.637" style="fill:#C4B880;" width="19.414" height="7"/>
		<rect x="331.029" y="75.636" style="fill:#C5B87F;" width="19.414" height="7.002"/>
		<rect x="327.18" y="75.636" style="fill:#C5B97E;" width="19.415" height="7.002"/>
		<rect x="323.332" y="75.637" style="fill:#C6B97D;" width="19.414" height="7"/>
		<rect x="319.482" y="75.637" style="fill:#C6BA7D;" width="19.414" height="7"/>
		<rect x="315.633" y="75.636" style="fill:#C6BA7C;" width="19.414" height="7.002"/>
		<rect x="311.783" y="75.637" style="fill:#C7BA7B;" width="19.414" height="7"/>
		<rect x="307.935" y="75.637" style="fill:#C7BB7B;" width="19.415" height="7"/>
		<rect x="304.086" y="75.637" style="fill:#C8BB7A;" width="19.414" height="6.998"/>
		<rect x="300.236" y="75.637" style="fill:#C8BB79;" width="19.414" height="7"/>
		<rect x="296.387" y="75.636" style="fill:#C8BC79;" width="19.414" height="7.002"/>
		<rect x="292.537" y="75.636" style="fill:#C9BC78;" width="19.416" height="7.002"/>
		<rect x="288.688" y="75.637" style="fill:#C9BD77;" width="19.415" height="6.998"/>
		<rect x="284.84" y="75.637" style="fill:#CABD76;" width="19.414" height="7"/>
		<rect x="280.99" y="75.636" style="fill:#CABD76;" width="19.414" height="7.002"/>
		<rect x="277.141" y="75.636" style="fill:#CBBE75;" width="19.414" height="7.002"/>
		<rect x="273.291" y="75.636" style="fill:#CBBE74;" width="19.416" height="7.002"/>
		<rect x="269.443" y="75.637" style="fill:#CBBF73;" width="19.414" height="6.998"/>
		<rect x="265.594" y="75.635" style="fill:#CCBF73;" width="19.414" height="7.002"/>
		<rect x="261.744" y="75.637" style="fill:#CCBF72;" width="19.414" height="7"/>
		<rect x="257.896" y="75.636" style="fill:#CDC071;" width="19.414" height="7.002"/>
		<rect x="254.046" y="75.637" style="fill:#CDC070;" width="19.415" height="6.998"/>
		<rect x="250.197" y="75.636" style="fill:#CDC06F;" width="19.414" height="7.002"/>
		<rect x="246.348" y="75.637" style="fill:#CEC16F;" width="19.414" height="7"/>
		<rect x="242.498" y="75.637" style="fill:#CEC16E;" width="19.415" height="7"/>
		<rect x="238.649" y="75.637" style="fill:#CEC26D;" width="19.415" height="7"/>
		<rect x="234.801" y="75.637" style="fill:#CFC26C;" width="19.414" height="7"/>
		<rect x="230.951" y="75.637" style="fill:#CFC26B;" width="19.414" height="7"/>
		<rect x="227.102" y="75.637" style="fill:#D0C36B;" width="19.414" height="7"/>
		<rect x="223.253" y="75.637" style="fill:#D0C36A;" width="19.414" height="7"/>
		<rect x="219.403" y="75.637" style="fill:#D1C369;" width="19.415" height="6.998"/>
		<rect x="215.555" y="75.637" style="fill:#D1C468;" width="19.414" height="7"/>
		<rect x="211.705" y="75.637" style="fill:#D1C467;" width="19.415" height="7"/>
		<rect x="207.855" y="75.637" style="fill:#D2C566;" width="19.415" height="7"/>
		<rect x="204.006" y="75.637" style="fill:#D2C566;" width="19.416" height="7"/>
		<rect x="200.158" y="75.637" style="fill:#D3C565;" width="19.414" height="7"/>
		<rect x="196.309" y="75.637" style="fill:#D3C664;" width="19.414" height="7"/>
		<rect x="192.459" y="75.637" style="fill:#D3C663;" width="19.415" height="7"/>
		<rect x="188.609" y="75.635" style="fill:#D4C762;" width="19.415" height="7.002"/>
		<rect x="184.761" y="75.637" style="fill:#D4C761;" width="19.415" height="7"/>
		<rect x="180.912" y="75.637" style="fill:#D5C760;" width="19.414" height="7"/>
		<rect x="177.063" y="75.637" style="fill:#D5C85F;" width="19.415" height="7"/>
		<rect x="173.213" y="75.637" style="fill:#D5C85E;" width="19.415" height="7"/>
		<rect x="169.364" y="75.635" style="fill:#D6C85D;" width="19.415" height="7.002"/>
		<rect x="165.516" y="75.637" style="fill:#D6C95D;" width="19.414" height="6.998"/>
		<rect x="161.666" y="75.636" style="fill:#D7C95C;" width="19.414" height="7.002"/>
		<rect x="157.816" y="75.637" style="fill:#D7CA5B;" width="19.415" height="7"/>
		<rect x="153.968" y="75.637" style="fill:#D7CA5A;" width="19.415" height="7"/>
		<rect x="150.118" y="75.636" style="fill:#D8CA59;" width="19.415" height="7.002"/>
		<rect x="146.27" y="75.637" style="fill:#D8CB58;" width="19.414" height="6.998"/>
		<rect x="142.42" y="75.635" style="fill:#D9CB57;" width="19.415" height="7.002"/>
		<rect x="138.571" y="75.637" style="fill:#D9CB56;" width="19.414" height="7"/>
		<rect x="134.722" y="75.636" style="fill:#D9CC55;" width="19.415" height="7.002"/>
		<rect x="130.873" y="75.637" style="fill:#DACC54;" width="19.414" height="6.998"/>
		<rect x="127.023" y="75.637" style="fill:#DACD53;" width="19.415" height="6.998"/>
		<rect x="123.174" y="75.636" style="fill:#DBCD52;" width="19.415" height="7.002"/>
		<rect x="119.325" y="75.637" style="fill:#DBCD51;" width="19.415" height="7"/>
		<rect x="115.477" y="75.635" style="fill:#DBCE50;" width="19.414" height="7.002"/>
		<rect x="111.627" y="75.637" style="fill:#DCCE4E;" width="19.414" height="6.998"/>
		<rect x="107.777" y="75.637" style="fill:#DCCF4D;" width="19.415" height="6.998"/>
		<rect x="103.928" y="75.636" style="fill:#DDCF4C;" width="19.415" height="7.002"/>
		<rect x="100.079" y="75.637" style="fill:#DDCF4B;" width="19.415" height="7"/>
		<rect x="96.23" y="75.637" style="fill:#DED04A;" width="19.414" height="6.998"/>
		<rect x="92.381" y="75.637" style="fill:#DED049;" width="19.415" height="7"/>
		<rect x="88.531" y="75.637" style="fill:#DED148;" width="19.415" height="6.998"/>
		<rect x="84.682" y="75.636" style="fill:#DFD147;" width="19.416" height="7.002"/>
		<rect x="80.834" y="75.636" style="fill:#DFD145;" width="19.414" height="7.002"/>
		<rect x="76.984" y="75.637" style="fill:#E0D244;" width="19.414" height="6.998"/>
		<rect x="73.135" y="75.637" style="fill:#E0D243;" width="19.415" height="7"/>
		<rect x="69.285" y="75.637" style="fill:#E1D242;" width="19.415" height="6.998"/>
		<rect x="65.437" y="75.636" style="fill:#E1D340;" width="19.415" height="7.002"/>
		<rect x="61.588" y="75.636" style="fill:#E1D33F;" width="19.414" height="7.002"/>
		<rect x="57.738" y="75.637" style="fill:#E2D43D;" width="19.415" height="7"/>
		<rect x="53.889" y="75.637" style="fill:#E2D43C;" width="19.416" height="7"/>
		<rect x="50.039" y="75.637" style="fill:#E3D43B;" width="19.416" height="7"/>
		<rect x="46.19" y="75.637" style="fill:#E3D539;" width="19.415" height="7"/>
		<rect x="42.342" y="75.637" style="fill:#E3D538;" width="19.414" height="7"/>
		<rect x="38.492" y="75.637" style="fill:#E4D636;" width="19.415" height="7"/>
		<rect x="34.643" y="75.637" style="fill:#E4D634;" width="19.416" height="7"/>
		<rect x="30.794" y="75.637" style="fill:#E5D633;" width="19.415" height="7"/>
		<rect x="26.945" y="75.636" style="fill:#E5D731;" width="19.414" height="7.002"/>
		<rect x="23.096" y="75.637" style="fill:#E5D72F;" width="19.414" height="7"/>
		<rect x="19.246" y="75.637" style="fill:#E6D72D;" width="19.415" height="7"/>
		<rect x="15.396" y="75.637" style="fill:#E6D82B;" width="19.416" height="7"/>
		<rect x="11.548" y="75.637" style="fill:#E7D829;" width="19.415" height="7"/>
		<rect x="7.699" y="75.637" style="fill:#E7D927;" width="19.414" height="7"/>
		<rect x="3.85" y="75.637" style="fill:#E7D925;" width="19.415" height="7"/>
		<rect y="75.637" style="fill:#E8D923;" width="19.416" height="7"/>
	</g>
	<g>
		<path style="fill:#FFFFFF;stroke:#FFFFFF;stroke-miterlimit:10;" d="M79.198,2.404h23.818v8.086h-7.852V45.5h-8.32V10.49h-7.646
			V2.404z"/>
		<path style="fill:#FFFFFF;stroke:#FFFFFF;stroke-miterlimit:10;" d="M107.792,1.32h7.939v15.527
			c1.563-1.348,3.135-2.357,4.717-3.031s3.184-1.012,4.805-1.012c3.164,0,5.83,1.094,7.998,3.281
			c1.855,1.895,2.783,4.678,2.783,8.35V45.5h-7.881V31.525c0-3.691-0.176-6.191-0.527-7.5s-0.952-2.285-1.802-2.93
			s-1.899-0.967-3.149-0.967c-1.621,0-3.013,0.537-4.175,1.611s-1.968,2.539-2.417,4.395c-0.234,0.957-0.352,3.145-0.352,6.563V45.5
			h-7.939V1.32z"/>
		<path style="fill:#FFFFFF;stroke:#FFFFFF;stroke-miterlimit:10;" d="M146.889,0.5c1.402,0,2.604,0.508,3.607,1.523
			s1.505,2.246,1.505,3.691c0,1.426-0.497,2.643-1.49,3.648s-2.181,1.508-3.563,1.508c-1.422,0-2.635-0.512-3.638-1.537
			s-1.504-2.271-1.504-3.736c0-1.406,0.496-2.607,1.489-3.604S145.486,0.5,146.889,0.5z M142.89,13.625h7.998V45.5h-7.998V13.625z"
			/>
		<path style="fill:#FFFFFF;stroke:#FFFFFF;stroke-miterlimit:10;" d="M158.153,13.625h7.998v3.268
			c1.813-1.529,3.457-2.594,4.93-3.191c1.472-0.598,2.979-0.896,4.52-0.896c3.159,0,5.841,1.104,8.045,3.311
			c1.853,1.875,2.779,4.648,2.779,8.32V45.5h-7.91V31.541c0-3.803-0.171-6.33-0.512-7.578s-0.936-2.199-1.783-2.854
			s-1.895-0.98-3.142-0.98c-1.617,0-3.006,0.541-4.165,1.625c-1.159,1.082-1.963,2.58-2.411,4.492
			c-0.233,0.994-0.351,3.15-0.351,6.467V45.5h-7.998V13.625z"/>
		<path style="fill:#FFFFFF;stroke:#FFFFFF;stroke-miterlimit:10;" d="M194.218,1.32h7.998v25.447l11.777-13.143h10.044
			l-13.73,15.277L225.68,45.5h-9.929l-13.535-14.689V45.5h-7.998V1.32z"/>
		<path style="fill:#FFFFFF;stroke:#FFFFFF;stroke-miterlimit:10;" d="M232.802,37.385l5.713,2.871l-7.236,12.363l-3.984-1.904
			L232.802,37.385z"/>
		<path style="fill:#FFFFFF;stroke:#FFFFFF;stroke-miterlimit:10;" d="M293.739,20.07l-6.658,3.662
			c-1.252-1.309-2.488-2.217-3.711-2.725c-1.222-0.508-2.654-0.762-4.297-0.762c-2.992,0-5.412,0.893-7.26,2.678
			c-1.848,1.783-2.771,4.07-2.771,6.857c0,2.711,0.89,4.926,2.669,6.641c1.779,1.717,4.116,2.574,7.011,2.574
			c3.578,0,6.365-1.221,8.359-3.662l6.307,4.318c-3.418,4.445-8.242,6.668-14.473,6.668c-5.605,0-9.995-1.66-13.169-4.98
			s-4.761-7.207-4.761-11.66c0-3.086,0.771-5.928,2.314-8.525s3.696-4.639,6.46-6.123s5.854-2.227,9.272-2.227
			c3.164,0,6.006,0.631,8.525,1.891S292.138,17.746,293.739,20.07z"/>
		<path style="fill:#FFFFFF;stroke:#FFFFFF;stroke-miterlimit:10;" d="M300.067,1.32h7.998V45.5h-7.998V1.32z"/>
		<path style="fill:#FFFFFF;stroke:#FFFFFF;stroke-miterlimit:10;" d="M318.451,0.5c1.402,0,2.604,0.508,3.607,1.523
			s1.505,2.246,1.505,3.691c0,1.426-0.497,2.643-1.49,3.648s-2.181,1.508-3.563,1.508c-1.422,0-2.635-0.512-3.638-1.537
			s-1.504-2.271-1.504-3.736c0-1.406,0.496-2.607,1.489-3.604S317.049,0.5,318.451,0.5z M314.452,13.625h7.998V45.5h-7.998V13.625z"
			/>
		<path style="fill:#FFFFFF;stroke:#FFFFFF;stroke-miterlimit:10;" d="M360.917,20.07l-6.658,3.662
			c-1.252-1.309-2.488-2.217-3.711-2.725c-1.222-0.508-2.654-0.762-4.297-0.762c-2.992,0-5.412,0.893-7.26,2.678
			c-1.848,1.783-2.771,4.07-2.771,6.857c0,2.711,0.89,4.926,2.669,6.641c1.779,1.717,4.116,2.574,7.011,2.574
			c3.578,0,6.365-1.221,8.359-3.662l6.307,4.318c-3.418,4.445-8.242,6.668-14.473,6.668c-5.605,0-9.995-1.66-13.169-4.98
			s-4.761-7.207-4.761-11.66c0-3.086,0.771-5.928,2.314-8.525s3.696-4.639,6.46-6.123s5.854-2.227,9.272-2.227
			c3.164,0,6.006,0.631,8.525,1.891S359.315,17.746,360.917,20.07z"/>
		<path style="fill:#FFFFFF;stroke:#FFFFFF;stroke-miterlimit:10;" d="M368.183,1.32h7.998v25.447l11.777-13.143h10.044
			l-13.73,15.277L399.645,45.5h-9.929l-13.535-14.689V45.5h-7.998V1.32z"/>
		<path style="fill:#FFFFFF;stroke:#FFFFFF;stroke-miterlimit:10;" d="M443.241,13.625h7.998V45.5h-7.998v-3.369
			c-1.561,1.484-3.127,2.555-4.696,3.209c-1.571,0.654-3.272,0.98-5.106,0.98c-4.116,0-7.677-1.596-10.682-4.789
			c-3.004-3.193-4.506-7.164-4.506-11.91c0-4.922,1.453-8.955,4.36-12.1c2.906-3.145,6.438-4.717,10.593-4.717
			c1.912,0,3.706,0.361,5.384,1.084s3.229,1.807,4.653,3.252V13.625z M434.833,20.188c-2.472,0-4.525,0.875-6.16,2.623
			c-1.636,1.748-2.453,3.988-2.453,6.723c0,2.754,0.832,5.02,2.496,6.797s3.713,2.666,6.146,2.666c2.512,0,4.594-0.873,6.248-2.621
			s2.482-4.039,2.482-6.871c0-2.773-0.828-5.02-2.482-6.738S437.364,20.188,434.833,20.188z"/>
		<path style="fill:#FFFFFF;stroke:#FFFFFF;stroke-miterlimit:10;" d="M459.325,13.625h7.998v3.268
			c1.813-1.529,3.457-2.594,4.93-3.191c1.472-0.598,2.979-0.896,4.52-0.896c3.159,0,5.841,1.104,8.045,3.311
			c1.853,1.875,2.779,4.648,2.779,8.32V45.5h-7.91V31.541c0-3.803-0.171-6.33-0.512-7.578s-0.936-2.199-1.783-2.854
			s-1.895-0.98-3.142-0.98c-1.617,0-3.006,0.541-4.165,1.625c-1.159,1.082-1.963,2.58-2.411,4.492
			c-0.233,0.994-0.351,3.15-0.351,6.467V45.5h-7.998V13.625z"/>
		<path style="fill:#FFFFFF;stroke:#FFFFFF;stroke-miterlimit:10;" d="M518.856,1.32h7.998V45.5h-7.998v-3.369
			c-1.561,1.484-3.127,2.555-4.696,3.209c-1.571,0.654-3.272,0.98-5.106,0.98c-4.116,0-7.677-1.596-10.682-4.789
			c-3.004-3.193-4.506-7.164-4.506-11.91c0-4.922,1.453-8.955,4.36-12.1c2.906-3.145,6.438-4.717,10.593-4.717
			c1.912,0,3.706,0.361,5.384,1.084s3.229,1.807,4.653,3.252V1.32z M510.448,20.188c-2.472,0-4.525,0.875-6.16,2.623
			c-1.636,1.748-2.453,3.988-2.453,6.723c0,2.754,0.832,5.02,2.496,6.797s3.713,2.666,6.146,2.666c2.512,0,4.594-0.873,6.248-2.621
			s2.482-4.039,2.482-6.871c0-2.773-0.828-5.02-2.482-6.738S512.979,20.188,510.448,20.188z"/>
		<path style="fill:#FFFFFF;stroke:#FFFFFF;stroke-miterlimit:10;" d="M559.667,13.625v3.516c1.445-1.445,3.008-2.529,4.688-3.252
			s3.477-1.084,5.391-1.084c4.16,0,7.695,1.572,10.605,4.717s4.365,7.178,4.365,12.1c0,4.746-1.504,8.717-4.512,11.91
			s-6.572,4.789-10.693,4.789c-1.836,0-3.545-0.326-5.127-0.98s-3.154-1.725-4.717-3.209V57.16h-7.939V13.625H559.667z
			 M568.075,20.188c-2.52,0-4.609,0.859-6.27,2.578s-2.49,3.965-2.49,6.738c0,2.832,0.83,5.123,2.49,6.871s3.75,2.621,6.27,2.621
			c2.441,0,4.497-0.889,6.167-2.666s2.505-4.043,2.505-6.797c0-2.734-0.82-4.975-2.461-6.723S570.575,20.188,568.075,20.188z"/>
		<path style="fill:#FFFFFF;stroke:#FFFFFF;stroke-miterlimit:10;" d="M594.457,0.5c1.402,0,2.604,0.508,3.607,1.523
			s1.505,2.246,1.505,3.691c0,1.426-0.497,2.643-1.49,3.648s-2.181,1.508-3.563,1.508c-1.422,0-2.635-0.512-3.638-1.537
			s-1.504-2.271-1.504-3.736c0-1.406,0.496-2.607,1.489-3.604S593.055,0.5,594.457,0.5z M590.458,13.625h7.998V45.5h-7.998V13.625z"
			/>
		<path style="fill:#FFFFFF;stroke:#FFFFFF;stroke-miterlimit:10;" d="M636.923,20.07l-6.658,3.662
			c-1.252-1.309-2.488-2.217-3.711-2.725c-1.222-0.508-2.654-0.762-4.297-0.762c-2.992,0-5.412,0.893-7.26,2.678
			c-1.848,1.783-2.771,4.07-2.771,6.857c0,2.711,0.89,4.926,2.669,6.641c1.779,1.717,4.116,2.574,7.011,2.574
			c3.578,0,6.365-1.221,8.359-3.662l6.307,4.318c-3.418,4.445-8.242,6.668-14.473,6.668c-5.605,0-9.995-1.66-13.169-4.98
			s-4.761-7.207-4.761-11.66c0-3.086,0.771-5.928,2.314-8.525s3.696-4.639,6.46-6.123s5.854-2.227,9.272-2.227
			c3.164,0,6.006,0.631,8.525,1.891S635.321,17.746,636.923,20.07z"/>
		<path style="fill:#FFFFFF;stroke:#FFFFFF;stroke-miterlimit:10;" d="M644.188,1.32h7.998v25.447l11.777-13.143h10.044
			l-13.73,15.277L675.65,45.5h-9.929l-13.535-14.689V45.5h-7.998V1.32z"/>
		<path style="fill:#FFFFFF;stroke:#FFFFFF;stroke-miterlimit:10;" d="M695.692,13.625h8.086v15.352
			c0,2.988,0.205,5.064,0.616,6.227s1.072,2.064,1.983,2.709c0.909,0.645,2.03,0.967,3.362,0.967c1.331,0,2.462-0.316,3.392-0.951
			c0.931-0.635,1.62-1.568,2.071-2.799c0.332-0.918,0.499-2.881,0.499-5.889V13.625h7.998v13.506c0,5.566-0.439,9.375-1.318,11.426
			c-1.074,2.5-2.656,4.42-4.746,5.758c-2.09,1.336-4.746,2.006-7.969,2.006c-3.496,0-6.323-0.781-8.481-2.344
			s-3.677-3.74-4.556-6.533c-0.625-1.934-0.938-5.449-0.938-10.547V13.625z"/>
		<path style="fill:#FFFFFF;stroke:#FFFFFF;stroke-miterlimit:10;" d="M739.667,13.625v3.516c1.445-1.445,3.008-2.529,4.688-3.252
			s3.477-1.084,5.391-1.084c4.16,0,7.695,1.572,10.605,4.717s4.365,7.178,4.365,12.1c0,4.746-1.504,8.717-4.512,11.91
			s-6.572,4.789-10.693,4.789c-1.836,0-3.545-0.326-5.127-0.98s-3.154-1.725-4.717-3.209V57.16h-7.939V13.625H739.667z
			 M748.075,20.188c-2.52,0-4.609,0.859-6.27,2.578s-2.49,3.965-2.49,6.738c0,2.832,0.83,5.123,2.49,6.871s3.75,2.621,6.27,2.621
			c2.441,0,4.497-0.889,6.167-2.666s2.505-4.043,2.505-6.797c0-2.734-0.82-4.975-2.461-6.723S750.575,20.188,748.075,20.188z"/>
	</g>
	<g>
		<path style="fill:#FFFFFF;" d="M142.239,108.313h1.508v10.184c0,1.564-0.121,2.652-0.364,3.264
			c-0.242,0.611-0.647,1.102-1.215,1.467s-1.255,0.549-2.062,0.549c-0.608,0-1.208-0.119-1.799-0.355
			c-0.592-0.234-1.246-0.65-1.964-1.244l0.8-1.201c0.788,0.555,1.441,0.943,1.963,1.17c0.342,0.15,0.678,0.225,1.007,0.225
			c0.431,0,0.823-0.129,1.176-0.389c0.354-0.26,0.6-0.605,0.74-1.035c0.14-0.43,0.21-1.264,0.21-2.5V108.313z"/>
		<path style="fill:#FFFFFF;" d="M146.998,112.24h1.436v5.209c0,1.271,0.068,2.146,0.205,2.625c0.206,0.684,0.598,1.223,1.176,1.619
			c0.579,0.396,1.269,0.594,2.069,0.594s1.48-0.191,2.039-0.578c0.558-0.387,0.942-0.895,1.155-1.521
			c0.144-0.43,0.216-1.344,0.216-2.738v-5.209h1.466v5.477c0,1.537-0.18,2.697-0.538,3.475c-0.359,0.779-0.899,1.389-1.62,1.83
			c-0.722,0.439-1.626,0.66-2.712,0.66c-1.088,0-1.995-0.221-2.723-0.66c-0.729-0.441-1.271-1.057-1.631-1.846
			c-0.358-0.789-0.538-1.977-0.538-3.563V112.24z"/>
		<path style="fill:#FFFFFF;" d="M165.558,113.461l-0.924,0.953c-0.768-0.744-1.518-1.117-2.251-1.117
			c-0.466,0-0.865,0.154-1.197,0.461c-0.333,0.309-0.499,0.668-0.499,1.078c0,0.361,0.137,0.707,0.411,1.035
			c0.273,0.334,0.85,0.729,1.727,1.18c1.068,0.553,1.794,1.086,2.178,1.6c0.377,0.52,0.565,1.104,0.565,1.752
			c0,0.914-0.322,1.691-0.966,2.326c-0.644,0.637-1.447,0.953-2.413,0.953c-0.644,0-1.258-0.139-1.843-0.42
			c-0.586-0.279-1.07-0.666-1.454-1.158l0.902-1.025c0.733,0.826,1.512,1.24,2.334,1.24c0.575,0,1.064-0.184,1.47-0.553
			c0.403-0.369,0.606-0.805,0.606-1.301c0-0.41-0.134-0.775-0.401-1.098c-0.267-0.314-0.87-0.711-1.809-1.189
			c-1.007-0.52-1.692-1.031-2.055-1.537c-0.363-0.506-0.545-1.084-0.545-1.734c0-0.848,0.289-1.551,0.868-2.111
			c0.578-0.561,1.31-0.842,2.192-0.842C163.482,111.953,164.517,112.457,165.558,113.461z"/>
		<path style="fill:#FFFFFF;" d="M169.352,108.098h1.436v4.143h2.276v1.242h-2.276v9.912h-1.436v-9.912h-1.958v-1.242h1.958V108.098
			z"/>
		<path style="fill:#FFFFFF;" d="M192.146,112.24v11.154h-1.415v-1.916c-0.602,0.73-1.276,1.281-2.025,1.65
			c-0.748,0.369-1.567,0.553-2.456,0.553c-1.578,0-2.927-0.572-4.045-1.717c-1.117-1.145-1.676-2.535-1.676-4.176
			c0-1.607,0.563-2.98,1.691-4.123c1.128-1.141,2.484-1.713,4.07-1.713c0.916,0,1.745,0.195,2.487,0.586
			c0.741,0.389,1.393,0.973,1.953,1.752v-2.051H192.146z M186.408,113.338c-0.799,0-1.536,0.197-2.212,0.59
			s-1.214,0.943-1.613,1.654c-0.399,0.709-0.6,1.461-0.6,2.252c0,0.785,0.202,1.537,0.604,2.254
			c0.403,0.717,0.944,1.273,1.623,1.672c0.68,0.4,1.409,0.6,2.188,0.6c0.785,0,1.529-0.197,2.232-0.594s1.244-0.932,1.623-1.605
			c0.379-0.676,0.569-1.438,0.569-2.285c0-1.289-0.426-2.369-1.275-3.236C188.697,113.771,187.651,113.338,186.408,113.338z"/>
		<path style="fill:#FFFFFF;" d="M205.784,107.934v1.404c-0.526-0.225-0.978-0.338-1.354-0.338c-0.28,0-0.513,0.057-0.697,0.17
			s-0.301,0.242-0.349,0.389c-0.048,0.148-0.071,0.539-0.071,1.174l-0.002,1.508h2.329v1.242h-2.33l-0.008,9.912h-1.436v-9.912
			h-1.466v-1.242h1.466v-1.742c0-0.801,0.073-1.371,0.221-1.713c0.146-0.342,0.396-0.617,0.748-0.826
			c0.353-0.207,0.777-0.313,1.276-0.313C204.577,107.646,205.135,107.742,205.784,107.934z"/>
		<path style="fill:#FFFFFF;" d="M217.177,119.695l1.21,0.637c-0.396,0.777-0.855,1.406-1.375,1.885
			c-0.521,0.479-1.105,0.842-1.755,1.092c-0.65,0.248-1.386,0.373-2.207,0.373c-1.82,0-3.243-0.596-4.27-1.789
			c-1.026-1.189-1.539-2.539-1.539-4.043c0-1.414,0.434-2.676,1.303-3.783c1.102-1.408,2.576-2.113,4.424-2.113
			c1.902,0,3.421,0.723,4.557,2.164c0.808,1.02,1.218,2.291,1.231,3.814h-10.038c0.026,1.297,0.44,2.357,1.241,3.186
			s1.79,1.242,2.968,1.242c0.567,0,1.12-0.098,1.657-0.297c0.538-0.197,0.994-0.459,1.371-0.785
			C216.331,120.949,216.738,120.424,217.177,119.695z M217.177,116.691c-0.191-0.766-0.471-1.377-0.837-1.836
			c-0.366-0.457-0.851-0.826-1.452-1.107c-0.603-0.279-1.236-0.42-1.899-0.42c-1.096,0-2.036,0.352-2.823,1.057
			c-0.575,0.512-1.01,1.281-1.305,2.307H217.177z"/>
		<path style="fill:#FFFFFF;" d="M219.925,112.24h1.477l3.42,8.102l3.56-8.102h0.261l3.583,8.102l3.485-8.102h1.493l-4.847,11.154
			h-0.266l-3.567-7.984l-3.565,7.984h-0.268L219.925,112.24z"/>
		<path style="fill:#FFFFFF;" d="M250.308,113.461l-0.924,0.953c-0.768-0.744-1.518-1.117-2.251-1.117
			c-0.466,0-0.865,0.154-1.197,0.461c-0.333,0.309-0.499,0.668-0.499,1.078c0,0.361,0.137,0.707,0.411,1.035
			c0.273,0.334,0.85,0.729,1.727,1.18c1.068,0.553,1.794,1.086,2.178,1.6c0.377,0.52,0.565,1.104,0.565,1.752
			c0,0.914-0.322,1.691-0.966,2.326c-0.644,0.637-1.447,0.953-2.413,0.953c-0.644,0-1.258-0.139-1.843-0.42
			c-0.586-0.279-1.07-0.666-1.454-1.158l0.902-1.025c0.733,0.826,1.512,1.24,2.334,1.24c0.575,0,1.064-0.184,1.47-0.553
			c0.403-0.369,0.606-0.805,0.606-1.301c0-0.41-0.134-0.775-0.401-1.098c-0.267-0.314-0.87-0.711-1.809-1.189
			c-1.007-0.52-1.692-1.031-2.055-1.537c-0.363-0.506-0.545-1.084-0.545-1.734c0-0.848,0.289-1.551,0.868-2.111
			c0.578-0.561,1.31-0.842,2.192-0.842C248.232,111.953,249.267,112.457,250.308,113.461z"/>
		<path style="fill:#FFFFFF;" d="M254.102,108.098h1.436v4.143h2.276v1.242h-2.276v9.912h-1.436v-9.912h-1.958v-1.242h1.958V108.098
			z"/>
		<path style="fill:#FFFFFF;" d="M269.359,119.695l1.21,0.637c-0.396,0.777-0.855,1.406-1.375,1.885
			c-0.521,0.479-1.105,0.842-1.755,1.092c-0.65,0.248-1.386,0.373-2.207,0.373c-1.82,0-3.243-0.596-4.27-1.789
			c-1.026-1.189-1.539-2.539-1.539-4.043c0-1.414,0.434-2.676,1.303-3.783c1.102-1.408,2.576-2.113,4.424-2.113
			c1.902,0,3.421,0.723,4.557,2.164c0.808,1.02,1.218,2.291,1.231,3.814H260.9c0.026,1.297,0.44,2.357,1.241,3.186
			s1.79,1.242,2.968,1.242c0.567,0,1.12-0.098,1.657-0.297c0.538-0.197,0.994-0.459,1.371-0.785
			C268.514,120.949,268.921,120.424,269.359,119.695z M269.359,116.691c-0.191-0.766-0.471-1.377-0.837-1.836
			c-0.366-0.457-0.851-0.826-1.452-1.107c-0.603-0.279-1.236-0.42-1.899-0.42c-1.096,0-2.036,0.352-2.823,1.057
			c-0.575,0.512-1.01,1.281-1.305,2.307H269.359z"/>
		<path style="fill:#FFFFFF;" d="M273.635,112.24h1.436v2.051c0.566-0.779,1.219-1.363,1.957-1.752
			c0.737-0.391,1.56-0.586,2.468-0.586c1.585,0,2.94,0.572,4.067,1.713c1.126,1.143,1.69,2.516,1.69,4.123
			c0,1.641-0.559,3.031-1.676,4.176c-1.116,1.145-2.463,1.717-4.041,1.717c-0.888,0-1.703-0.184-2.448-0.553
			c-0.744-0.369-1.417-0.92-2.018-1.65v5.998h-1.436V112.24z M279.377,113.338c-1.241,0-2.286,0.434-3.136,1.301
			c-0.849,0.867-1.273,1.947-1.273,3.236c0,0.848,0.189,1.609,0.567,2.285c0.379,0.674,0.921,1.209,1.627,1.605
			s1.451,0.594,2.235,0.594c0.771,0,1.495-0.199,2.174-0.6c0.679-0.398,1.219-0.955,1.621-1.672s0.604-1.469,0.604-2.254
			c0-0.791-0.199-1.543-0.598-2.252c-0.399-0.711-0.937-1.262-1.611-1.654C280.911,113.535,280.175,113.338,279.377,113.338z"/>
		<path style="fill:#FFFFFF;" d="M293.548,113.461l-0.924,0.953c-0.768-0.744-1.518-1.117-2.251-1.117
			c-0.466,0-0.865,0.154-1.197,0.461c-0.333,0.309-0.499,0.668-0.499,1.078c0,0.361,0.137,0.707,0.411,1.035
			c0.273,0.334,0.85,0.729,1.727,1.18c1.068,0.553,1.794,1.086,2.178,1.6c0.377,0.52,0.565,1.104,0.565,1.752
			c0,0.914-0.322,1.691-0.966,2.326c-0.644,0.637-1.447,0.953-2.413,0.953c-0.644,0-1.258-0.139-1.843-0.42
			c-0.586-0.279-1.07-0.666-1.454-1.158l0.902-1.025c0.733,0.826,1.512,1.24,2.334,1.24c0.575,0,1.064-0.184,1.47-0.553
			c0.403-0.369,0.606-0.805,0.606-1.301c0-0.41-0.134-0.775-0.401-1.098c-0.267-0.314-0.87-0.711-1.809-1.189
			c-1.007-0.52-1.692-1.031-2.055-1.537c-0.363-0.506-0.545-1.084-0.545-1.734c0-0.848,0.289-1.551,0.868-2.111
			c0.578-0.561,1.31-0.842,2.192-0.842C291.473,111.953,292.507,112.457,293.548,113.461z"/>
		<path style="fill:#FFFFFF;" d="M300.706,112.24h1.518l3.834,8.59l3.723-8.59h1.527l-6.654,15.236h-1.517l2.148-4.926
			L300.706,112.24z"/>
		<path style="fill:#FFFFFF;" d="M318.445,111.953c1.719,0,3.143,0.623,4.272,1.867c1.027,1.135,1.541,2.479,1.541,4.029
			c0,1.559-0.543,2.922-1.628,4.084c-1.086,1.166-2.481,1.748-4.186,1.748c-1.713,0-3.111-0.582-4.196-1.748
			c-1.086-1.162-1.628-2.525-1.628-4.084c0-1.545,0.513-2.885,1.54-4.02C315.291,112.58,316.719,111.953,318.445,111.953z
			 M318.439,113.359c-1.193,0-2.219,0.439-3.076,1.322c-0.857,0.881-1.287,1.947-1.287,3.199c0,0.807,0.196,1.559,0.587,2.256
			c0.391,0.695,0.919,1.232,1.585,1.613c0.665,0.379,1.396,0.568,2.191,0.568s1.526-0.189,2.192-0.568
			c0.665-0.381,1.193-0.918,1.584-1.613c0.392-0.697,0.587-1.449,0.587-2.256c0-1.252-0.431-2.318-1.292-3.199
			C320.65,113.799,319.626,113.359,318.439,113.359z"/>
		<path style="fill:#FFFFFF;" d="M326.73,112.24h1.436v5.209c0,1.271,0.068,2.146,0.205,2.625c0.206,0.684,0.598,1.223,1.176,1.619
			c0.579,0.396,1.269,0.594,2.069,0.594s1.48-0.191,2.039-0.578c0.558-0.387,0.942-0.895,1.155-1.521
			c0.144-0.43,0.216-1.344,0.216-2.738v-5.209h1.466v5.477c0,1.537-0.18,2.697-0.538,3.475c-0.359,0.779-0.899,1.389-1.62,1.83
			c-0.722,0.439-1.626,0.66-2.712,0.66c-1.088,0-1.995-0.221-2.723-0.66c-0.729-0.441-1.271-1.057-1.631-1.846
			c-0.358-0.789-0.538-1.977-0.538-3.563V112.24z"/>
		<path style="fill:#FFFFFF;" d="M339.138,112.24h1.466v1.631c0.438-0.643,0.898-1.123,1.384-1.441
			c0.485-0.316,0.991-0.477,1.518-0.477c0.396,0,0.82,0.127,1.271,0.381l-0.748,1.209c-0.301-0.129-0.554-0.195-0.759-0.195
			c-0.479,0-0.94,0.197-1.384,0.59c-0.445,0.395-0.783,1.004-1.016,1.83c-0.178,0.637-0.267,1.922-0.267,3.855v3.771h-1.466V112.24z
			"/>
		<path style="fill:#FFFFFF;" d="M351.812,107.934h1.436v6.307c0.581-0.766,1.221-1.338,1.918-1.717
			c0.697-0.381,1.452-0.57,2.266-0.57c0.834,0,1.574,0.213,2.22,0.637c0.646,0.424,1.123,0.992,1.431,1.707s0.461,1.834,0.461,3.357
			v5.74h-1.436v-5.318c0-1.285-0.051-2.145-0.153-2.574c-0.178-0.738-0.501-1.293-0.969-1.666c-0.469-0.373-1.082-0.559-1.841-0.559
			c-0.868,0-1.646,0.287-2.333,0.861c-0.687,0.574-1.14,1.285-1.358,2.133c-0.137,0.547-0.205,1.559-0.205,3.035v4.088h-1.436
			V107.934z"/>
		<path style="fill:#FFFFFF;" d="M375.733,112.24v11.154h-1.415v-1.916c-0.602,0.73-1.276,1.281-2.025,1.65
			c-0.748,0.369-1.567,0.553-2.456,0.553c-1.578,0-2.927-0.572-4.045-1.717c-1.117-1.145-1.676-2.535-1.676-4.176
			c0-1.607,0.563-2.98,1.691-4.123c1.128-1.141,2.484-1.713,4.07-1.713c0.916,0,1.745,0.195,2.487,0.586
			c0.741,0.389,1.393,0.973,1.953,1.752v-2.051H375.733z M369.996,113.338c-0.799,0-1.536,0.197-2.212,0.59
			s-1.214,0.943-1.613,1.654c-0.399,0.709-0.6,1.461-0.6,2.252c0,0.785,0.202,1.537,0.604,2.254
			c0.403,0.717,0.944,1.273,1.623,1.672c0.68,0.4,1.409,0.6,2.188,0.6c0.785,0,1.529-0.197,2.232-0.594s1.244-0.932,1.623-1.605
			c0.379-0.676,0.569-1.438,0.569-2.285c0-1.289-0.426-2.369-1.275-3.236C372.285,113.771,371.239,113.338,369.996,113.338z"/>
		<path style="fill:#FFFFFF;" d="M378.984,112.24h1.436v2.051c0.566-0.779,1.219-1.363,1.957-1.752
			c0.737-0.391,1.56-0.586,2.468-0.586c1.585,0,2.94,0.572,4.067,1.713c1.126,1.143,1.69,2.516,1.69,4.123
			c0,1.641-0.559,3.031-1.676,4.176c-1.116,1.145-2.463,1.717-4.041,1.717c-0.888,0-1.703-0.184-2.448-0.553
			c-0.744-0.369-1.417-0.92-2.018-1.65v5.998h-1.436V112.24z M384.727,113.338c-1.241,0-2.286,0.434-3.136,1.301
			c-0.849,0.867-1.273,1.947-1.273,3.236c0,0.848,0.189,1.609,0.567,2.285c0.379,0.674,0.921,1.209,1.627,1.605
			s1.451,0.594,2.235,0.594c0.771,0,1.495-0.199,2.174-0.6c0.679-0.398,1.219-0.955,1.621-1.672s0.604-1.469,0.604-2.254
			c0-0.791-0.199-1.543-0.598-2.252c-0.399-0.711-0.937-1.262-1.611-1.654C386.261,113.535,385.524,113.338,384.727,113.338z"/>
		<path style="fill:#FFFFFF;" d="M393.309,112.24h1.436v2.051c0.566-0.779,1.219-1.363,1.957-1.752
			c0.737-0.391,1.56-0.586,2.468-0.586c1.585,0,2.94,0.572,4.067,1.713c1.126,1.143,1.69,2.516,1.69,4.123
			c0,1.641-0.559,3.031-1.676,4.176c-1.116,1.145-2.463,1.717-4.041,1.717c-0.888,0-1.703-0.184-2.448-0.553
			c-0.744-0.369-1.417-0.92-2.018-1.65v5.998h-1.436V112.24z M399.051,113.338c-1.241,0-2.286,0.434-3.136,1.301
			c-0.849,0.867-1.273,1.947-1.273,3.236c0,0.848,0.189,1.609,0.567,2.285c0.379,0.674,0.921,1.209,1.627,1.605
			s1.451,0.594,2.235,0.594c0.771,0,1.495-0.199,2.174-0.6c0.679-0.398,1.219-0.955,1.621-1.672s0.604-1.469,0.604-2.254
			c0-0.791-0.199-1.543-0.598-2.252c-0.399-0.711-0.937-1.262-1.611-1.654C400.585,113.535,399.849,113.338,399.051,113.338z"/>
		<path style="fill:#FFFFFF;" d="M408.109,107.646c0.327,0,0.606,0.117,0.837,0.35c0.231,0.232,0.348,0.512,0.348,0.84
			c0,0.322-0.116,0.598-0.348,0.83c-0.23,0.232-0.51,0.35-0.837,0.35c-0.319,0-0.596-0.117-0.827-0.35s-0.347-0.508-0.347-0.83
			c0-0.328,0.115-0.607,0.347-0.84S407.79,107.646,408.109,107.646z M407.397,112.24h1.436v11.154h-1.436V112.24z"/>
		<path style="fill:#FFFFFF;" d="M411.816,112.24h1.436v2c0.574-0.766,1.21-1.338,1.907-1.717c0.697-0.381,1.456-0.57,2.276-0.57
			c0.834,0,1.574,0.213,2.22,0.637c0.646,0.424,1.123,0.994,1.431,1.713c0.308,0.717,0.461,1.834,0.461,3.352v5.74h-1.436v-5.318
			c0-1.285-0.053-2.145-0.159-2.574c-0.166-0.738-0.485-1.293-0.957-1.666s-1.087-0.559-1.846-0.559
			c-0.869,0-1.646,0.287-2.334,0.861c-0.687,0.574-1.14,1.285-1.358,2.133c-0.137,0.553-0.205,1.564-0.205,3.035v4.088h-1.436
			V112.24z"/>
		<path style="fill:#FFFFFF;" d="M434.017,119.695l1.21,0.637c-0.396,0.777-0.855,1.406-1.375,1.885
			c-0.521,0.479-1.105,0.842-1.755,1.092c-0.65,0.248-1.386,0.373-2.207,0.373c-1.82,0-3.243-0.596-4.27-1.789
			c-1.026-1.189-1.539-2.539-1.539-4.043c0-1.414,0.434-2.676,1.303-3.783c1.102-1.408,2.576-2.113,4.424-2.113
			c1.902,0,3.421,0.723,4.557,2.164c0.808,1.02,1.218,2.291,1.231,3.814h-10.038c0.026,1.297,0.44,2.357,1.241,3.186
			s1.79,1.242,2.968,1.242c0.567,0,1.12-0.098,1.657-0.297c0.538-0.197,0.994-0.459,1.371-0.785
			C433.171,120.949,433.578,120.424,434.017,119.695z M434.017,116.691c-0.191-0.766-0.471-1.377-0.837-1.836
			c-0.366-0.457-0.851-0.826-1.452-1.107c-0.603-0.279-1.236-0.42-1.899-0.42c-1.096,0-2.036,0.352-2.823,1.057
			c-0.575,0.512-1.01,1.281-1.305,2.307H434.017z"/>
		<path style="fill:#FFFFFF;" d="M443.882,113.461l-0.924,0.953c-0.768-0.744-1.518-1.117-2.251-1.117
			c-0.466,0-0.865,0.154-1.197,0.461c-0.333,0.309-0.499,0.668-0.499,1.078c0,0.361,0.137,0.707,0.411,1.035
			c0.273,0.334,0.85,0.729,1.727,1.18c1.068,0.553,1.794,1.086,2.178,1.6c0.377,0.52,0.565,1.104,0.565,1.752
			c0,0.914-0.322,1.691-0.966,2.326c-0.644,0.637-1.447,0.953-2.413,0.953c-0.644,0-1.258-0.139-1.843-0.42
			c-0.586-0.279-1.07-0.666-1.454-1.158l0.902-1.025c0.733,0.826,1.512,1.24,2.334,1.24c0.575,0,1.064-0.184,1.47-0.553
			c0.403-0.369,0.606-0.805,0.606-1.301c0-0.41-0.134-0.775-0.401-1.098c-0.267-0.314-0.87-0.711-1.809-1.189
			c-1.007-0.52-1.692-1.031-2.055-1.537c-0.363-0.506-0.545-1.084-0.545-1.734c0-0.848,0.289-1.551,0.868-2.111
			c0.578-0.561,1.31-0.842,2.192-0.842C441.807,111.953,442.841,112.457,443.882,113.461z"/>
		<path style="fill:#FFFFFF;" d="M452.034,113.461l-0.924,0.953c-0.768-0.744-1.518-1.117-2.251-1.117
			c-0.466,0-0.865,0.154-1.197,0.461c-0.333,0.309-0.499,0.668-0.499,1.078c0,0.361,0.137,0.707,0.411,1.035
			c0.273,0.334,0.85,0.729,1.727,1.18c1.068,0.553,1.794,1.086,2.178,1.6c0.377,0.52,0.565,1.104,0.565,1.752
			c0,0.914-0.322,1.691-0.966,2.326c-0.644,0.637-1.447,0.953-2.413,0.953c-0.644,0-1.258-0.139-1.843-0.42
			c-0.586-0.279-1.07-0.666-1.454-1.158l0.902-1.025c0.733,0.826,1.512,1.24,2.334,1.24c0.575,0,1.064-0.184,1.47-0.553
			c0.403-0.369,0.606-0.805,0.606-1.301c0-0.41-0.134-0.775-0.401-1.098c-0.267-0.314-0.87-0.711-1.809-1.189
			c-1.007-0.52-1.692-1.031-2.055-1.537c-0.363-0.506-0.545-1.084-0.545-1.734c0-0.848,0.289-1.551,0.868-2.111
			c0.578-0.561,1.31-0.842,2.192-0.842C449.959,111.953,450.993,112.457,452.034,113.461z"/>
		<path style="fill:#FFFFFF;" d="M458.884,112.24h1.477l3.42,8.102l3.56-8.102h0.261l3.583,8.102l3.485-8.102h1.493l-4.847,11.154
			h-0.266l-3.567-7.984l-3.565,7.984h-0.268L458.884,112.24z"/>
		<path style="fill:#FFFFFF;" d="M478.341,107.646c0.327,0,0.606,0.117,0.837,0.35c0.231,0.232,0.348,0.512,0.348,0.84
			c0,0.322-0.116,0.598-0.348,0.83c-0.23,0.232-0.51,0.35-0.837,0.35c-0.319,0-0.596-0.117-0.827-0.35s-0.347-0.508-0.347-0.83
			c0-0.328,0.115-0.607,0.347-0.84S478.021,107.646,478.341,107.646z M477.629,112.24h1.436v11.154h-1.436V112.24z"/>
		<path style="fill:#FFFFFF;" d="M481.833,107.934h1.436v15.461h-1.436V107.934z"/>
		<path style="fill:#FFFFFF;" d="M486.037,107.934h1.436v15.461h-1.436V107.934z"/>
		<path style="fill:#FFFFFF;" d="M496.362,123.395v-15.461h1.436v6.225c0.602-0.738,1.274-1.289,2.019-1.656
			c0.744-0.365,1.561-0.549,2.448-0.549c1.577,0,2.925,0.574,4.041,1.719s1.675,2.533,1.675,4.168c0,1.613-0.563,2.988-1.69,4.131
			c-1.127,1.141-2.482,1.711-4.066,1.711c-0.908,0-1.731-0.193-2.469-0.584c-0.737-0.389-1.39-0.975-1.957-1.754v2.051H496.362z
			 M502.104,122.299c0.799,0,1.535-0.197,2.21-0.59c0.676-0.393,1.213-0.943,1.611-1.654c0.399-0.711,0.599-1.463,0.599-2.256
			s-0.201-1.549-0.604-2.266c-0.402-0.719-0.943-1.277-1.621-1.678c-0.679-0.4-1.403-0.6-2.174-0.6c-0.785,0-1.53,0.199-2.236,0.6
			c-0.705,0.4-1.248,0.939-1.626,1.615c-0.379,0.678-0.567,1.439-0.567,2.287c0,1.291,0.424,2.371,1.273,3.238
			C499.818,121.863,500.863,122.299,502.104,122.299z"/>
		<path style="fill:#FFFFFF;" d="M519.987,119.695l1.21,0.637c-0.396,0.777-0.855,1.406-1.375,1.885
			c-0.521,0.479-1.105,0.842-1.755,1.092c-0.65,0.248-1.386,0.373-2.207,0.373c-1.82,0-3.243-0.596-4.27-1.789
			c-1.026-1.189-1.539-2.539-1.539-4.043c0-1.414,0.434-2.676,1.303-3.783c1.102-1.408,2.576-2.113,4.424-2.113
			c1.902,0,3.421,0.723,4.557,2.164c0.808,1.02,1.218,2.291,1.231,3.814h-10.038c0.026,1.297,0.44,2.357,1.241,3.186
			s1.79,1.242,2.968,1.242c0.567,0,1.12-0.098,1.657-0.297c0.538-0.197,0.994-0.459,1.371-0.785
			C519.142,120.949,519.549,120.424,519.987,119.695z M519.987,116.691c-0.191-0.766-0.471-1.377-0.837-1.836
			c-0.366-0.457-0.851-0.826-1.452-1.107c-0.603-0.279-1.236-0.42-1.899-0.42c-1.096,0-2.036,0.352-2.823,1.057
			c-0.575,0.512-1.01,1.281-1.305,2.307H519.987z"/>
		<path style="fill:#FFFFFF;" d="M530.555,107.646c0.327,0,0.606,0.117,0.837,0.35c0.231,0.232,0.348,0.512,0.348,0.84
			c0,0.322-0.116,0.598-0.348,0.83c-0.23,0.232-0.51,0.35-0.837,0.35c-0.319,0-0.596-0.117-0.827-0.35s-0.347-0.508-0.347-0.83
			c0-0.328,0.115-0.607,0.347-0.84S530.235,107.646,530.555,107.646z M529.843,112.24h1.436v11.154h-1.436V112.24z"/>
		<path style="fill:#FFFFFF;" d="M534.262,112.24h1.436v2c0.574-0.766,1.21-1.338,1.907-1.717c0.697-0.381,1.456-0.57,2.276-0.57
			c0.834,0,1.574,0.213,2.22,0.637c0.646,0.424,1.123,0.994,1.431,1.713c0.308,0.717,0.461,1.834,0.461,3.352v5.74h-1.436v-5.318
			c0-1.285-0.053-2.145-0.159-2.574c-0.166-0.738-0.485-1.293-0.957-1.666s-1.087-0.559-1.846-0.559
			c-0.869,0-1.646,0.287-2.334,0.861c-0.687,0.574-1.14,1.285-1.358,2.133c-0.137,0.553-0.205,1.564-0.205,3.035v4.088h-1.436
			V112.24z"/>
		<path style="fill:#FFFFFF;" d="M558.165,111.953c1.719,0,3.143,0.623,4.272,1.867c1.027,1.135,1.541,2.479,1.541,4.029
			c0,1.559-0.543,2.922-1.628,4.084c-1.086,1.166-2.481,1.748-4.186,1.748c-1.713,0-3.111-0.582-4.196-1.748
			c-1.086-1.162-1.628-2.525-1.628-4.084c0-1.545,0.513-2.885,1.54-4.02C555.011,112.58,556.438,111.953,558.165,111.953z
			 M558.159,113.359c-1.193,0-2.219,0.439-3.076,1.322c-0.857,0.881-1.287,1.947-1.287,3.199c0,0.807,0.196,1.559,0.587,2.256
			c0.391,0.695,0.919,1.232,1.585,1.613c0.665,0.379,1.396,0.568,2.191,0.568s1.526-0.189,2.192-0.568
			c0.665-0.381,1.193-0.918,1.584-1.613c0.392-0.697,0.587-1.449,0.587-2.256c0-1.252-0.431-2.318-1.292-3.199
			C560.37,113.799,559.346,113.359,558.159,113.359z"/>
		<path style="fill:#FFFFFF;" d="M566.449,112.24h1.436v5.209c0,1.271,0.068,2.146,0.205,2.625c0.206,0.684,0.598,1.223,1.176,1.619
			c0.579,0.396,1.269,0.594,2.069,0.594s1.48-0.191,2.039-0.578c0.558-0.387,0.942-0.895,1.155-1.521
			c0.144-0.43,0.216-1.344,0.216-2.738v-5.209h1.466v5.477c0,1.537-0.18,2.697-0.538,3.475c-0.359,0.779-0.899,1.389-1.62,1.83
			c-0.722,0.439-1.626,0.66-2.712,0.66c-1.088,0-1.995-0.221-2.723-0.66c-0.729-0.441-1.271-1.057-1.631-1.846
			c-0.358-0.789-0.538-1.977-0.538-3.563V112.24z"/>
		<path style="fill:#FFFFFF;" d="M578.856,112.24h1.466v1.631c0.438-0.643,0.898-1.123,1.384-1.441
			c0.485-0.316,0.991-0.477,1.518-0.477c0.396,0,0.82,0.127,1.271,0.381l-0.748,1.209c-0.301-0.129-0.554-0.195-0.759-0.195
			c-0.479,0-0.94,0.197-1.384,0.59c-0.445,0.395-0.783,1.004-1.016,1.83c-0.178,0.637-0.267,1.922-0.267,3.855v3.771h-1.466V112.24z
			"/>
		<path style="fill:#FFFFFF;" d="M597.14,113.461l-0.924,0.953c-0.768-0.744-1.518-1.117-2.251-1.117
			c-0.466,0-0.865,0.154-1.197,0.461c-0.333,0.309-0.499,0.668-0.499,1.078c0,0.361,0.137,0.707,0.411,1.035
			c0.273,0.334,0.85,0.729,1.727,1.18c1.068,0.553,1.794,1.086,2.178,1.6c0.377,0.52,0.565,1.104,0.565,1.752
			c0,0.914-0.322,1.691-0.966,2.326c-0.644,0.637-1.447,0.953-2.413,0.953c-0.644,0-1.258-0.139-1.843-0.42
			c-0.586-0.279-1.07-0.666-1.454-1.158l0.902-1.025c0.733,0.826,1.512,1.24,2.334,1.24c0.575,0,1.064-0.184,1.47-0.553
			c0.403-0.369,0.606-0.805,0.606-1.301c0-0.41-0.134-0.775-0.401-1.098c-0.267-0.314-0.87-0.711-1.809-1.189
			c-1.007-0.52-1.692-1.031-2.055-1.537c-0.363-0.506-0.545-1.084-0.545-1.734c0-0.848,0.289-1.551,0.868-2.111
			c0.578-0.561,1.31-0.842,2.192-0.842C595.064,111.953,596.099,112.457,597.14,113.461z"/>
		<path style="fill:#FFFFFF;" d="M610.798,112.24v11.154h-1.415v-1.916c-0.602,0.73-1.276,1.281-2.025,1.65
			c-0.748,0.369-1.567,0.553-2.456,0.553c-1.578,0-2.927-0.572-4.045-1.717c-1.117-1.145-1.676-2.535-1.676-4.176
			c0-1.607,0.563-2.98,1.691-4.123c1.128-1.141,2.484-1.713,4.07-1.713c0.916,0,1.745,0.195,2.487,0.586
			c0.741,0.389,1.393,0.973,1.953,1.752v-2.051H610.798z M605.061,113.338c-0.799,0-1.536,0.197-2.212,0.59
			s-1.214,0.943-1.613,1.654c-0.399,0.709-0.6,1.461-0.6,2.252c0,0.785,0.202,1.537,0.604,2.254
			c0.403,0.717,0.944,1.273,1.623,1.672c0.68,0.4,1.409,0.6,2.188,0.6c0.785,0,1.529-0.197,2.232-0.594s1.244-0.932,1.623-1.605
			c0.379-0.676,0.569-1.438,0.569-2.285c0-1.289-0.426-2.369-1.275-3.236C607.35,113.771,606.304,113.338,605.061,113.338z"/>
		<path style="fill:#FFFFFF;" d="M618.622,107.934v1.404c-0.526-0.225-0.978-0.338-1.354-0.338c-0.28,0-0.513,0.057-0.697,0.17
			s-0.301,0.242-0.349,0.389c-0.048,0.148-0.071,0.539-0.071,1.174l-0.002,1.508h2.329v1.242h-2.33l-0.008,9.912h-1.436v-9.912
			h-1.466v-1.242h1.466v-1.742c0-0.801,0.073-1.371,0.221-1.713c0.146-0.342,0.396-0.617,0.748-0.826
			c0.353-0.207,0.777-0.313,1.276-0.313C617.415,107.646,617.973,107.742,618.622,107.934z"/>
		<path style="fill:#FFFFFF;" d="M630.015,119.695l1.21,0.637c-0.396,0.777-0.855,1.406-1.375,1.885
			c-0.521,0.479-1.105,0.842-1.755,1.092c-0.65,0.248-1.386,0.373-2.207,0.373c-1.82,0-3.243-0.596-4.27-1.789
			c-1.026-1.189-1.539-2.539-1.539-4.043c0-1.414,0.434-2.676,1.303-3.783c1.102-1.408,2.576-2.113,4.424-2.113
			c1.902,0,3.421,0.723,4.557,2.164c0.808,1.02,1.218,2.291,1.231,3.814h-10.038c0.026,1.297,0.44,2.357,1.241,3.186
			s1.79,1.242,2.968,1.242c0.567,0,1.12-0.098,1.657-0.297c0.538-0.197,0.994-0.459,1.371-0.785
			C629.169,120.949,629.576,120.424,630.015,119.695z M630.015,116.691c-0.191-0.766-0.471-1.377-0.837-1.836
			c-0.366-0.457-0.851-0.826-1.452-1.107c-0.603-0.279-1.236-0.42-1.899-0.42c-1.096,0-2.036,0.352-2.823,1.057
			c-0.575,0.512-1.01,1.281-1.305,2.307H630.015z"/>
		<path style="fill:#FFFFFF;" d="M639.87,107.934h1.436v15.461h-1.436V107.934z"/>
		<path style="fill:#FFFFFF;" d="M649.57,111.953c1.719,0,3.143,0.623,4.272,1.867c1.027,1.135,1.541,2.479,1.541,4.029
			c0,1.559-0.543,2.922-1.628,4.084c-1.086,1.166-2.481,1.748-4.186,1.748c-1.713,0-3.111-0.582-4.196-1.748
			c-1.086-1.162-1.628-2.525-1.628-4.084c0-1.545,0.513-2.885,1.54-4.02C646.416,112.58,647.844,111.953,649.57,111.953z
			 M649.564,113.359c-1.193,0-2.219,0.439-3.076,1.322c-0.857,0.881-1.287,1.947-1.287,3.199c0,0.807,0.196,1.559,0.587,2.256
			c0.391,0.695,0.919,1.232,1.585,1.613c0.665,0.379,1.396,0.568,2.191,0.568s1.526-0.189,2.192-0.568
			c0.665-0.381,1.193-0.918,1.584-1.613c0.392-0.697,0.587-1.449,0.587-2.256c0-1.252-0.431-2.318-1.292-3.199
			C651.775,113.799,650.751,113.359,649.564,113.359z"/>
		<path style="fill:#FFFFFF;" d="M668.868,114.559l-1.139,0.707c-0.982-1.305-2.324-1.959-4.024-1.959
			c-1.359,0-2.487,0.438-3.385,1.313c-0.898,0.873-1.347,1.936-1.347,3.184c0,0.814,0.206,1.578,0.619,2.295s0.979,1.271,1.7,1.668
			s1.527,0.594,2.422,0.594c1.639,0,2.978-0.652,4.015-1.957l1.139,0.748c-0.533,0.803-1.249,1.426-2.148,1.867
			c-0.898,0.443-1.922,0.664-3.07,0.664c-1.764,0-3.228-0.561-4.389-1.682c-1.163-1.121-1.744-2.482-1.744-4.088
			c0-1.08,0.272-2.084,0.815-3.01c0.544-0.926,1.29-1.65,2.241-2.17c0.949-0.52,2.013-0.779,3.188-0.779
			c0.738,0,1.451,0.113,2.138,0.34c0.688,0.225,1.27,0.52,1.748,0.881C668.126,113.537,668.533,113.998,668.868,114.559z"/>
		<path style="fill:#FFFFFF;" d="M671.616,107.934h1.436v8.811l5.172-4.504h2.107l-6.131,5.322l6.49,5.832h-2.021l-5.618-5.02v5.02
			h-1.436V107.934z"/>
		<path style="fill:#FFFFFF;" d="M691.56,119.695l1.21,0.637c-0.396,0.777-0.855,1.406-1.375,1.885
			c-0.521,0.479-1.105,0.842-1.755,1.092c-0.65,0.248-1.386,0.373-2.207,0.373c-1.82,0-3.243-0.596-4.27-1.789
			c-1.026-1.189-1.539-2.539-1.539-4.043c0-1.414,0.434-2.676,1.303-3.783c1.102-1.408,2.576-2.113,4.424-2.113
			c1.902,0,3.421,0.723,4.557,2.164c0.808,1.02,1.218,2.291,1.231,3.814h-10.038c0.026,1.297,0.44,2.357,1.241,3.186
			s1.79,1.242,2.968,1.242c0.567,0,1.12-0.098,1.657-0.297c0.538-0.197,0.994-0.459,1.371-0.785
			C690.714,120.949,691.121,120.424,691.56,119.695z M691.56,116.691c-0.191-0.766-0.471-1.377-0.837-1.836
			c-0.366-0.457-0.851-0.826-1.452-1.107c-0.603-0.279-1.236-0.42-1.899-0.42c-1.096,0-2.036,0.352-2.823,1.057
			c-0.575,0.512-1.01,1.281-1.305,2.307H691.56z"/>
		<path style="fill:#FFFFFF;" d="M695.272,112.24h1.466v1.631c0.438-0.643,0.898-1.123,1.384-1.441
			c0.485-0.316,0.991-0.477,1.518-0.477c0.396,0,0.82,0.127,1.271,0.381l-0.748,1.209c-0.301-0.129-0.554-0.195-0.759-0.195
			c-0.479,0-0.94,0.197-1.384,0.59c-0.445,0.395-0.783,1.004-1.016,1.83c-0.178,0.637-0.267,1.922-0.267,3.855v3.771h-1.466V112.24z
			"/>
		<path style="fill:#FFFFFF;" d="M707.741,113.461l-0.924,0.953c-0.768-0.744-1.518-1.117-2.251-1.117
			c-0.466,0-0.865,0.154-1.197,0.461c-0.333,0.309-0.499,0.668-0.499,1.078c0,0.361,0.137,0.707,0.411,1.035
			c0.273,0.334,0.85,0.729,1.727,1.18c1.068,0.553,1.794,1.086,2.178,1.6c0.377,0.52,0.565,1.104,0.565,1.752
			c0,0.914-0.322,1.691-0.966,2.326c-0.644,0.637-1.447,0.953-2.413,0.953c-0.644,0-1.258-0.139-1.843-0.42
			c-0.586-0.279-1.07-0.666-1.454-1.158l0.902-1.025c0.733,0.826,1.512,1.24,2.334,1.24c0.575,0,1.064-0.184,1.47-0.553
			c0.403-0.369,0.606-0.805,0.606-1.301c0-0.41-0.134-0.775-0.401-1.098c-0.267-0.314-0.87-0.711-1.809-1.189
			c-1.007-0.52-1.692-1.031-2.055-1.537c-0.363-0.506-0.545-1.084-0.545-1.734c0-0.848,0.289-1.551,0.868-2.111
			c0.578-0.561,1.31-0.842,2.192-0.842C705.666,111.953,706.7,112.457,707.741,113.461z"/>
		<path style="fill:#FFFFFF;" d="M711.863,121.139c0.349,0,0.646,0.123,0.892,0.369s0.369,0.547,0.369,0.902
			c0,0.35-0.123,0.648-0.369,0.898c-0.246,0.248-0.543,0.373-0.892,0.373s-0.646-0.125-0.892-0.373
			c-0.246-0.25-0.369-0.549-0.369-0.898c0-0.355,0.123-0.656,0.369-0.902S711.515,121.139,711.863,121.139z"/>
	</g>
</g>
</svg>
