<?xml version="1.0" encoding="iso-8859-1"?>
<!-- Generator: Adobe Illustrator 16.0.0, SVG Export Plug-In . SVG Version: 6.00 Build 0)  -->
<!DOCTYPE svg PUBLIC "-//W3C//DTD SVG 1.1//EN" "http://www.w3.org/Graphics/SVG/1.1/DTD/svg11.dtd">
<svg version="1.1" id="&#x5716;&#x5C64;_1" xmlns="http://www.w3.org/2000/svg" xmlns:xlink="http://www.w3.org/1999/xlink" x="0px"
	 y="0px" width="84.076px" height="42.965px" viewBox="0 0 84.076 42.965" style="enable-background:new 0 0 84.076 42.965;"
	 xml:space="preserve">
<g>
	<rect x="0.5" y="0.5" style="fill:#2C50A2;stroke:#4B67B0;stroke-miterlimit:10;" width="83.076" height="41.965"/>
	<g>
		<path style="fill:#FFFFFF;" d="M22.838,14.131h7.485v2.799h-4.635v2.738h4.635v2.758h-4.635v6.789h-2.851V14.131z"/>
		<path style="fill:#FFFFFF;" d="M33.66,13.465c0.491,0,0.912,0.178,1.263,0.533c0.352,0.355,0.527,0.785,0.527,1.291
			c0,0.5-0.175,0.926-0.522,1.277s-0.763,0.527-1.247,0.527c-0.497,0-0.922-0.18-1.272-0.537c-0.352-0.359-0.526-0.795-0.526-1.309
			c0-0.492,0.173-0.912,0.521-1.262C32.75,13.639,33.17,13.465,33.66,13.465z M32.261,18.059h2.799v11.156h-2.799V18.059z"/>
		<path style="fill:#FFFFFF;" d="M37.604,18.059h2.8v1.143c0.635-0.535,1.209-0.908,1.725-1.117s1.043-0.313,1.582-0.313
			c1.105,0,2.045,0.385,2.815,1.158c0.648,0.656,0.974,1.627,0.974,2.912v7.373h-2.77v-4.887c0-1.33-0.06-2.215-0.179-2.652
			s-0.327-0.77-0.624-0.998s-0.663-0.344-1.1-0.344c-0.566,0-1.052,0.189-1.458,0.568c-0.405,0.379-0.687,0.904-0.844,1.572
			c-0.082,0.348-0.122,1.104-0.122,2.264v4.477h-2.8V18.059z"/>
		<path style="fill:#FFFFFF;" d="M58.438,13.752h2.8v15.463h-2.8v-1.18c-0.546,0.52-1.094,0.895-1.644,1.123
			s-1.146,0.344-1.787,0.344c-1.44,0-2.687-0.559-3.738-1.678c-1.052-1.117-1.577-2.506-1.577-4.168
			c0-1.723,0.509-3.135,1.526-4.234c1.017-1.102,2.253-1.65,3.707-1.65c0.669,0,1.298,0.125,1.885,0.379
			c0.587,0.252,1.13,0.633,1.628,1.139V13.752z M55.496,20.355c-0.865,0-1.584,0.305-2.156,0.918
			c-0.572,0.611-0.858,1.395-0.858,2.352c0,0.965,0.291,1.758,0.874,2.379c0.582,0.623,1.299,0.934,2.151,0.934
			c0.879,0,1.607-0.305,2.187-0.918c0.579-0.611,0.868-1.412,0.868-2.404c0-0.971-0.289-1.756-0.868-2.357
			S56.382,20.355,55.496,20.355z"/>
	</g>
</g>
</svg>
