<?xml version="1.0" encoding="iso-8859-1"?>
<!-- Generator: Adobe Illustrator 16.0.0, SVG Export Plug-In . SVG Version: 6.00 Build 0)  -->
<!DOCTYPE svg PUBLIC "-//W3C//DTD SVG 1.1//EN" "http://www.w3.org/Graphics/SVG/1.1/DTD/svg11.dtd">
<svg version="1.1" id="&#x5716;&#x5C64;_1" xmlns="http://www.w3.org/2000/svg" xmlns:xlink="http://www.w3.org/1999/xlink" x="0px"
	 y="0px" width="1280px" height="720.002px" viewBox="0 0 1280 720.002" style="enable-background:new 0 0 1280 720.002;"
	 xml:space="preserve">
<g style="opacity:0.84;">
	<rect y="0.001" style="fill:#2C50A2;" width="29.475" height="720"/>
	<rect x="4.373" y="0.001" style="fill:#2E51A2;" width="29.476" height="720"/>
	<rect x="8.745" y="0.001" style="fill:#2F51A2;" width="29.475" height="720"/>
	<rect x="13.118" y="0.001" style="fill:#3052A2;" width="29.475" height="720"/>
	<rect x="17.49" y="0.001" style="fill:#3253A2;" width="29.475" height="720"/>
	<rect x="21.863" y="0.002" style="fill:#3353A2;" width="29.475" height="719.999"/>
	<rect x="26.235" y="0.001" style="fill:#3454A2;" width="29.475" height="720.001"/>
	<rect x="30.608" y="0.001" style="fill:#3654A2;" width="29.474" height="720"/>
	<rect x="34.98" y="0.001" style="fill:#3755A2;" width="29.475" height="720"/>
	<rect x="39.353" y="0.001" style="fill:#3856A2;" width="29.476" height="720"/>
	<rect x="43.725" y="0.001" style="fill:#3956A2;" width="29.475" height="720"/>
	<rect x="48.098" y="0.001" style="fill:#3A57A2;" width="29.475" height="720"/>
	<rect x="52.471" y="0.001" style="fill:#3C57A2;" width="29.474" height="720"/>
	<rect x="56.843" y="0.001" style="fill:#3D58A2;" width="29.475" height="720.001"/>
	<rect x="61.215" y="0.002" style="fill:#3E59A2;" width="29.475" height="719.999"/>
	<rect x="65.588" y="0.001" style="fill:#3F59A2;" width="29.474" height="720"/>
	<rect x="69.96" y="0.001" style="fill:#405AA2;" width="29.475" height="720"/>
	<rect x="74.332" y="0.001" style="fill:#415AA2;" width="29.476" height="720"/>
	<rect x="78.704" y="0.001" style="fill:#425BA2;" width="29.475" height="720"/>
	<rect x="83.077" y="0.001" style="fill:#445CA2;" width="29.475" height="720"/>
	<rect x="87.449" y="0.001" style="fill:#455CA2;" width="29.475" height="720"/>
	<rect x="91.822" y="0.001" style="fill:#465DA2;" width="29.474" height="720"/>
	<rect x="96.194" y="0.001" style="fill:#475DA2;" width="29.475" height="720"/>
	<rect x="100.566" y="0.001" style="fill:#485EA2;" width="29.475" height="720"/>
	<rect x="104.939" y="0.001" style="fill:#495FA2;" width="29.475" height="720"/>
	<rect x="109.312" y="0.001" style="fill:#4B5FA2;" width="29.475" height="720"/>
	<rect x="113.684" y="0.001" style="fill:#4C60A2;" width="29.475" height="720"/>
	<rect x="118.057" y="0.001" style="fill:#4D61A2;" width="29.474" height="720"/>
	<rect x="122.429" y="0.001" style="fill:#4E61A2;" width="29.475" height="720"/>
	<rect x="126.802" y="0.001" style="fill:#4F62A2;" width="29.475" height="720"/>
	<rect x="131.174" y="0.001" style="fill:#5062A2;" width="29.475" height="720"/>
	<rect x="135.546" y="0.001" style="fill:#5163A2;" width="29.475" height="720"/>
	<rect x="139.919" y="0.001" style="fill:#5264A2;" width="29.475" height="720"/>
	<rect x="144.291" y="0.001" style="fill:#5364A2;" width="29.476" height="720"/>
	<rect x="148.663" y="0.001" style="fill:#5565A2;" width="29.476" height="720"/>
	<rect x="153.036" y="0.001" style="fill:#5666A2;" width="29.475" height="720"/>
	<rect x="157.408" y="0.001" style="fill:#5766A2;" width="29.476" height="720"/>
	<rect x="161.781" y="0.001" style="fill:#5867A2;" width="29.475" height="720"/>
	<rect x="166.153" y="0.001" style="fill:#5968A2;" width="29.475" height="720"/>
	<rect x="170.526" y="0.001" style="fill:#5A68A2;" width="29.475" height="720"/>
	<rect x="174.898" y="0.001" style="fill:#5B69A2;" width="29.475" height="720"/>
	<rect x="179.271" y="0.001" style="fill:#5C6AA2;" width="29.475" height="720"/>
	<rect x="183.644" y="0.001" style="fill:#5D6AA1;" width="29.475" height="720"/>
	<rect x="188.016" y="0.001" style="fill:#5E6BA1;" width="29.475" height="720"/>
	<rect x="192.389" y="0.001" style="fill:#5F6CA1;" width="29.474" height="720"/>
	<rect x="196.761" y="0.001" style="fill:#606CA1;" width="29.475" height="720"/>
	<rect x="201.134" y="0.001" style="fill:#616DA1;" width="29.474" height="720"/>
	<rect x="205.506" y="0.001" style="fill:#626EA1;" width="29.475" height="720"/>
	<rect x="209.878" y="0.001" style="fill:#636EA1;" width="29.475" height="720"/>
	<rect x="214.251" y="0.001" style="fill:#646FA1;" width="29.475" height="720"/>
	<rect x="218.623" y="0.001" style="fill:#656FA1;" width="29.475" height="720"/>
	<rect x="222.996" y="0.001" style="fill:#6670A1;" width="29.475" height="720"/>
	<rect x="227.368" y="0.001" style="fill:#6771A1;" width="29.475" height="720"/>
	<rect x="231.74" y="0.001" style="fill:#6871A1;" width="29.475" height="720"/>
	<rect x="236.113" y="0.001" style="fill:#6972A1;" width="29.475" height="720"/>
	<rect x="240.485" y="0.001" style="fill:#6A73A1;" width="29.475" height="720"/>
	<rect x="244.858" y="0.001" style="fill:#6B73A0;" width="29.475" height="720"/>
	<rect x="249.23" y="0.001" style="fill:#6C74A0;" width="29.475" height="720"/>
	<rect x="253.603" y="0.001" style="fill:#6D75A0;" width="29.475" height="720"/>
	<rect x="257.976" y="0.001" style="fill:#6E75A0;" width="29.475" height="720"/>
	<rect x="262.348" y="0.001" style="fill:#6F76A0;" width="29.475" height="720"/>
	<rect x="266.721" y="0.001" style="fill:#7077A0;" width="29.475" height="720"/>
	<rect x="271.093" y="0.001" style="fill:#7177A0;" width="29.475" height="720"/>
	<rect x="275.465" y="0.001" style="fill:#7278A0;" width="29.475" height="720"/>
	<rect x="279.838" y="0.001" style="fill:#7379A0;" width="29.475" height="720"/>
	<rect x="284.21" y="0.001" style="fill:#73799F;" width="29.475" height="720"/>
	<rect x="288.583" y="0.001" style="fill:#747A9F;" width="29.475" height="720"/>
	<rect x="292.955" y="0.001" style="fill:#757B9F;" width="29.476" height="720"/>
	<rect x="297.327" y="0.001" style="fill:#767B9F;" width="29.475" height="720"/>
	<rect x="301.7" y="0.001" style="fill:#777C9F;" width="29.475" height="720"/>
	<rect x="306.072" y="0.001" style="fill:#787D9F;" width="29.475" height="720"/>
	<rect x="310.445" y="0.001" style="fill:#797D9F;" width="29.475" height="720"/>
	<rect x="314.817" y="0.001" style="fill:#7A7E9F;" width="29.475" height="720"/>
	<rect x="319.19" y="0.001" style="fill:#7B7F9E;" width="29.474" height="720"/>
	<rect x="323.563" y="0.001" style="fill:#7C7F9E;" width="29.475" height="720"/>
	<rect x="327.935" y="0.001" style="fill:#7D809E;" width="29.475" height="720"/>
	<rect x="332.307" y="0.001" style="fill:#7E819E;" width="29.476" height="720"/>
	<rect x="336.681" y="0.001" style="fill:#7F819E;" width="29.474" height="720"/>
	<rect x="341.053" y="0.001" style="fill:#80829E;" width="29.475" height="720"/>
	<rect x="345.425" y="0.001" style="fill:#81839E;" width="29.475" height="720"/>
	<rect x="349.797" y="0.001" style="fill:#82839D;" width="29.475" height="720"/>
	<rect x="354.17" y="0.001" style="fill:#83849D;" width="29.475" height="720"/>
	<rect x="358.542" y="0.001" style="fill:#84859D;" width="29.475" height="720"/>
	<rect x="362.915" y="0.001" style="fill:#85859D;" width="29.475" height="720"/>
	<rect x="367.287" y="0.001" style="fill:#85869D;" width="29.475" height="720"/>
	<rect x="371.659" y="0.001" style="fill:#86879D;" width="29.475" height="720"/>
	<rect x="376.032" y="0.001" style="fill:#87889C;" width="29.475" height="720"/>
	<rect x="380.404" y="0.001" style="fill:#88889C;" width="29.475" height="720"/>
	<rect x="384.777" y="0.001" style="fill:#89899C;" width="29.475" height="720"/>
	<rect x="389.149" y="0.001" style="fill:#8A8A9C;" width="29.475" height="720"/>
	<rect x="393.521" y="0.001" style="fill:#8B8A9C;" width="29.475" height="720"/>
	<rect x="397.895" y="0.001" style="fill:#8C8B9C;" width="29.475" height="720"/>
	<rect x="402.267" y="0.001" style="fill:#8D8C9B;" width="29.475" height="720"/>
	<rect x="406.64" y="0.001" style="fill:#8E8C9B;" width="29.475" height="720"/>
	<rect x="411.012" y="0.001" style="fill:#8F8D9B;" width="29.476" height="720"/>
	<rect x="415.384" y="0.001" style="fill:#908E9B;" width="29.475" height="720"/>
	<rect x="419.757" y="0.001" style="fill:#918F9B;" width="29.475" height="720"/>
	<rect x="424.129" y="0.001" style="fill:#928F9A;" width="29.475" height="720"/>
	<rect x="428.502" y="0.001" style="fill:#93909A;" width="29.475" height="720"/>
	<rect x="432.874" y="0.001" style="fill:#94919A;" width="29.475" height="720"/>
	<rect x="437.246" y="0.001" style="fill:#95919A;" width="29.475" height="720"/>
	<rect x="441.619" y="0.001" style="fill:#969299;" width="29.475" height="720"/>
	<rect x="445.991" y="0.001" style="fill:#979399;" width="29.475" height="720"/>
	<rect x="450.364" y="0.001" style="fill:#989499;" width="29.475" height="720"/>
	<rect x="454.736" y="0.001" style="fill:#989499;" width="29.475" height="720"/>
	<rect x="459.109" y="0.001" style="fill:#999598;" width="29.475" height="720"/>
	<rect x="463.481" y="0.001" style="fill:#9A9698;" width="29.474" height="720"/>
	<rect x="467.854" y="0.001" style="fill:#9B9698;" width="29.475" height="720"/>
	<rect x="472.227" y="0.001" style="fill:#9C9798;" width="29.475" height="720"/>
	<rect x="476.6" y="0.001" style="fill:#9D9897;" width="29.474" height="720"/>
	<rect x="480.972" y="0.001" style="fill:#9E9997;" width="29.475" height="720"/>
	<rect x="485.344" y="0.001" style="fill:#9F9997;" width="29.475" height="720"/>
	<rect x="489.716" y="0.001" style="fill:#A09A97;" width="29.475" height="720"/>
	<rect x="494.089" y="0.001" style="fill:#A19B96;" width="29.475" height="720"/>
	<rect x="498.462" y="0.001" style="fill:#A29B96;" width="29.474" height="720"/>
	<rect x="502.834" y="0.001" style="fill:#A39C96;" width="29.475" height="720"/>
	<rect x="507.206" y="0.001" style="fill:#A49D95;" width="29.475" height="720"/>
	<rect x="511.579" y="0.001" style="fill:#A59E95;" width="29.474" height="720"/>
	<rect x="515.951" y="0.001" style="fill:#A69E95;" width="29.475" height="720"/>
	<rect x="520.323" y="0.001" style="fill:#A79F95;" width="29.475" height="720"/>
	<rect x="524.696" y="0.001" style="fill:#A7A094;" width="29.475" height="720"/>
	<rect x="529.068" y="0.001" style="fill:#A8A194;" width="29.475" height="720"/>
	<rect x="533.44" y="0.001" style="fill:#A9A194;" width="29.475" height="720"/>
	<rect x="537.813" y="0.001" style="fill:#AAA293;" width="29.475" height="720"/>
	<rect x="542.186" y="0.001" style="fill:#ABA393;" width="29.475" height="720"/>
	<rect x="546.559" y="0.001" style="fill:#ACA393;" width="29.475" height="720"/>
	<rect x="550.931" y="0.001" style="fill:#ADA492;" width="29.475" height="720"/>
	<rect x="555.303" y="0.001" style="fill:#AEA592;" width="29.475" height="720.001"/>
	<rect x="559.676" y="0.001" style="fill:#AFA692;" width="29.475" height="720"/>
	<rect x="564.048" y="0.001" style="fill:#B0A691;" width="29.475" height="720"/>
	<rect x="568.421" y="0.002" style="fill:#B0A791;" width="29.475" height="719.999"/>
	<rect x="572.794" y="0.001" style="fill:#B1A891;" width="29.474" height="720"/>
	<rect x="577.166" y="0.001" style="fill:#B2A890;" width="29.474" height="720"/>
	<rect x="581.538" y="0.001" style="fill:#B3A990;" width="29.475" height="720"/>
	<rect x="585.91" y="0.001" style="fill:#B4AA90;" width="29.476" height="720"/>
	<rect x="590.283" y="0.001" style="fill:#B5AB8F;" width="29.475" height="720"/>
	<rect x="594.656" y="0.001" style="fill:#B6AB8F;" width="29.474" height="720"/>
	<rect x="599.027" y="0.001" style="fill:#B7AC8F;" width="29.476" height="720"/>
	<rect x="603.4" y="0.001" style="fill:#B8AD8E;" width="29.475" height="720"/>
	<rect x="607.773" y="0.001" style="fill:#B9AE8E;" width="29.474" height="720"/>
	<rect x="612.146" y="0.001" style="fill:#B9AE8D;" width="29.475" height="720"/>
	<rect x="616.518" y="0.001" style="fill:#BAAF8D;" width="29.476" height="720"/>
	<rect x="620.891" y="0.001" style="fill:#BBB08D;" width="29.475" height="720"/>
	<rect x="625.263" y="0.001" style="fill:#BCB08C;" width="29.475" height="720"/>
	<rect x="631.106" y="0.001" style="fill:#BDB18C;" width="29.475" height="720"/>
	<rect x="636.95" y="0.001" style="fill:#BDB18B;" width="29.475" height="720"/>
	<rect x="642.794" y="0.001" style="fill:#BDB28A;" width="29.475" height="720"/>
	<rect x="648.638" y="0.001" style="fill:#BEB28A;" width="29.475" height="720"/>
	<rect x="654.48" y="0.001" style="fill:#BEB289;" width="29.475" height="720.001"/>
	<rect x="660.324" y="0.001" style="fill:#BFB389;" width="29.476" height="720"/>
	<rect x="666.168" y="0.001" style="fill:#BFB388;" width="29.475" height="720"/>
	<rect x="672.012" y="0.001" style="fill:#BFB387;" width="29.475" height="720"/>
	<rect x="677.855" y="0.001" style="fill:#C0B487;" width="29.475" height="720.001"/>
	<rect x="683.699" y="0.001" style="fill:#C0B486;" width="29.475" height="720.001"/>
	<rect x="689.542" y="0.001" style="fill:#C1B585;" width="29.475" height="720"/>
	<rect x="695.386" y="0.001" style="fill:#C1B585;" width="29.475" height="720"/>
	<rect x="701.229" y="0.001" style="fill:#C1B584;" width="29.475" height="720"/>
	<rect x="707.073" y="0.001" style="fill:#C2B683;" width="29.475" height="720"/>
	<rect x="712.917" y="0.001" style="fill:#C2B683;" width="29.473" height="720"/>
	<rect x="718.76" y="0.001" style="fill:#C3B782;" width="29.475" height="720"/>
	<rect x="724.604" y="0.001" style="fill:#C3B781;" width="29.475" height="720"/>
	<rect x="730.447" y="0.001" style="fill:#C3B781;" width="29.475" height="720"/>
	<rect x="736.291" y="0.001" style="fill:#C4B880;" width="29.475" height="720"/>
	<rect x="742.135" y="0.001" style="fill:#C4B880;" width="29.475" height="720"/>
	<rect x="747.978" y="0.001" style="fill:#C5B87F;" width="29.475" height="720"/>
	<rect x="753.822" y="0.001" style="fill:#C5B97E;" width="29.475" height="720"/>
	<rect x="759.665" y="0.001" style="fill:#C6B97D;" width="29.475" height="720"/>
	<rect x="765.508" y="0.001" style="fill:#C6BA7D;" width="29.477" height="720"/>
	<rect x="771.353" y="0.001" style="fill:#C6BA7C;" width="29.475" height="720"/>
	<rect x="777.196" y="0.001" style="fill:#C7BA7B;" width="29.475" height="720"/>
	<rect x="783.039" y="0.001" style="fill:#C7BB7B;" width="29.475" height="720"/>
	<rect x="788.883" y="0.001" style="fill:#C8BB7A;" width="29.475" height="720"/>
	<rect x="794.727" y="0.001" style="fill:#C8BB79;" width="29.475" height="720"/>
	<rect x="800.57" y="0.001" style="fill:#C8BC79;" width="29.475" height="720"/>
	<rect x="806.414" style="fill:#C9BC78;" width="29.474" height="720.002"/>
	<rect x="812.257" y="0.001" style="fill:#C9BD77;" width="29.475" height="720"/>
	<rect x="818.101" y="0.002" style="fill:#CABD76;" width="29.475" height="719.998"/>
	<rect x="823.944" y="0.001" style="fill:#CABD76;" width="29.475" height="720"/>
	<rect x="829.788" y="0.001" style="fill:#CBBE75;" width="29.475" height="720"/>
	<rect x="835.632" y="0.001" style="fill:#CBBE74;" width="29.474" height="720"/>
	<rect x="841.475" y="0.001" style="fill:#CBBF73;" width="29.475" height="720"/>
	<rect x="847.318" y="0.001" style="fill:#CCBF73;" width="29.475" height="720"/>
	<rect x="853.162" y="0.001" style="fill:#CCBF72;" width="29.475" height="720"/>
	<rect x="859.006" y="0.001" style="fill:#CDC071;" width="29.475" height="720"/>
	<rect x="864.85" y="0.001" style="fill:#CDC070;" width="29.475" height="720"/>
	<rect x="870.693" y="0.001" style="fill:#CDC06F;" width="29.475" height="720"/>
	<rect x="876.537" y="0.001" style="fill:#CEC16F;" width="29.475" height="720"/>
	<rect x="882.38" y="0.001" style="fill:#CEC16E;" width="29.475" height="720"/>
	<rect x="888.224" y="0.001" style="fill:#CEC26D;" width="29.475" height="720"/>
	<rect x="894.067" y="0.001" style="fill:#CFC26C;" width="29.475" height="720"/>
	<rect x="899.911" style="fill:#CFC26B;" width="29.475" height="720.002"/>
	<rect x="905.755" y="0.001" style="fill:#D0C36B;" width="29.474" height="720"/>
	<rect x="911.598" y="0.002" style="fill:#D0C36A;" width="29.475" height="719.998"/>
	<rect x="917.441" y="0.001" style="fill:#D1C369;" width="29.475" height="720"/>
	<rect x="923.285" y="0.001" style="fill:#D1C468;" width="29.475" height="720"/>
	<rect x="929.128" y="0.001" style="fill:#D1C467;" width="29.476" height="720"/>
	<rect x="934.972" y="0.002" style="fill:#D2C566;" width="29.475" height="719.998"/>
	<rect x="940.816" y="0.001" style="fill:#D2C566;" width="29.475" height="720"/>
	<rect x="946.659" y="0.001" style="fill:#D3C565;" width="29.475" height="720"/>
	<rect x="952.503" y="0.001" style="fill:#D3C664;" width="29.475" height="720"/>
	<rect x="958.347" y="0.001" style="fill:#D3C663;" width="29.475" height="720"/>
	<rect x="964.19" y="0.001" style="fill:#D4C762;" width="29.475" height="720"/>
	<rect x="970.033" y="0.001" style="fill:#D4C761;" width="29.475" height="720"/>
	<rect x="975.877" y="0.001" style="fill:#D5C760;" width="29.475" height="720"/>
	<rect x="981.721" y="0.001" style="fill:#D5C85F;" width="29.475" height="720"/>
	<rect x="987.564" y="0.001" style="fill:#D5C85E;" width="29.475" height="720"/>
	<rect x="993.407" y="0.001" style="fill:#D6C85D;" width="29.476" height="720"/>
	<rect x="999.251" y="0.001" style="fill:#D6C95D;" width="29.475" height="720"/>
	<rect x="1005.095" y="0.001" style="fill:#D7C95C;" width="29.475" height="720"/>
	<rect x="1010.938" y="0.001" style="fill:#D7CA5B;" width="29.475" height="720"/>
	<rect x="1016.782" y="0.001" style="fill:#D7CA5A;" width="29.475" height="720"/>
	<rect x="1022.626" y="0.001" style="fill:#D8CA59;" width="29.475" height="720"/>
	<rect x="1028.47" y="0.001" style="fill:#D8CB58;" width="29.474" height="720"/>
	<rect x="1034.313" y="0.001" style="fill:#D9CB57;" width="29.475" height="720"/>
	<rect x="1040.156" y="0.001" style="fill:#D9CB56;" width="29.475" height="720"/>
	<rect x="1046" y="0.001" style="fill:#D9CC55;" width="29.475" height="720"/>
	<rect x="1051.844" y="0.001" style="fill:#DACC54;" width="29.475" height="720"/>
	<rect x="1057.688" y="0.001" style="fill:#DACD53;" width="29.475" height="720"/>
	<rect x="1063.531" y="0.001" style="fill:#DBCD52;" width="29.475" height="720"/>
	<rect x="1069.375" y="0.001" style="fill:#DBCD51;" width="29.475" height="720"/>
	<rect x="1075.218" y="0.001" style="fill:#DBCE50;" width="29.475" height="720"/>
	<rect x="1081.062" y="0.001" style="fill:#DCCE4E;" width="29.475" height="720"/>
	<rect x="1086.905" y="0.001" style="fill:#DCCF4D;" width="29.475" height="720"/>
	<rect x="1092.749" y="0.001" style="fill:#DDCF4C;" width="29.475" height="720"/>
	<rect x="1098.592" y="0.001" style="fill:#DDCF4B;" width="29.475" height="720"/>
	<rect x="1104.436" y="0.001" style="fill:#DED04A;" width="29.475" height="720"/>
	<rect x="1110.279" y="0.001" style="fill:#DED049;" width="29.476" height="720"/>
	<rect x="1116.123" y="0.001" style="fill:#DED148;" width="29.475" height="720"/>
	<rect x="1121.967" y="0.001" style="fill:#DFD147;" width="29.475" height="720"/>
	<rect x="1127.811" y="0.001" style="fill:#DFD145;" width="29.475" height="720"/>
	<rect x="1133.654" y="0.001" style="fill:#E0D244;" width="29.474" height="720"/>
	<rect x="1139.498" y="0.001" style="fill:#E0D243;" width="29.475" height="720"/>
	<rect x="1145.341" y="0.001" style="fill:#E1D242;" width="29.475" height="720"/>
	<rect x="1151.184" y="0.001" style="fill:#E1D340;" width="29.477" height="720"/>
	<rect x="1157.028" y="0.001" style="fill:#E1D33F;" width="29.475" height="720"/>
	<rect x="1162.872" y="0.001" style="fill:#E2D43D;" width="29.475" height="720"/>
	<rect x="1168.715" y="0.001" style="fill:#E2D43C;" width="29.475" height="720"/>
	<rect x="1174.559" y="0.001" style="fill:#E3D43B;" width="29.475" height="720"/>
	<rect x="1180.402" y="0.001" style="fill:#E3D539;" width="29.475" height="720"/>
	<rect x="1186.246" y="0.001" style="fill:#E3D538;" width="29.475" height="720"/>
	<rect x="1192.09" y="0.001" style="fill:#E4D636;" width="29.475" height="720"/>
	<rect x="1197.933" y="0.001" style="fill:#E4D634;" width="29.475" height="720"/>
	<rect x="1203.777" y="0.001" style="fill:#E5D633;" width="29.475" height="720"/>
	<rect x="1209.621" y="0.001" style="fill:#E5D731;" width="29.474" height="720"/>
	<rect x="1215.464" y="0.001" style="fill:#E5D72F;" width="29.473" height="720"/>
	<rect x="1221.308" y="0.001" style="fill:#E6D72D;" width="29.475" height="720"/>
	<rect x="1227.151" y="0.001" style="fill:#E6D82B;" width="29.474" height="720"/>
	<rect x="1232.994" y="0.001" style="fill:#E7D829;" width="29.475" height="720"/>
	<rect x="1238.838" y="0.001" style="fill:#E7D927;" width="29.476" height="720"/>
	<rect x="1244.682" y="0.001" style="fill:#E7D925;" width="29.475" height="720"/>
	<rect x="1250.525" y="0.001" style="fill:#E8D923;" width="29.475" height="720"/>
</g>
</svg>
