<?xml version="1.0" encoding="iso-8859-1"?>
<!-- Generator: Adobe Illustrator 16.0.0, SVG Export Plug-In . SVG Version: 6.00 Build 0)  -->
<!DOCTYPE svg PUBLIC "-//W3C//DTD SVG 1.1//EN" "http://www.w3.org/Graphics/SVG/1.1/DTD/svg11.dtd">
<svg version="1.1" id="&#x5716;&#x5C64;_1" xmlns="http://www.w3.org/2000/svg" xmlns:xlink="http://www.w3.org/1999/xlink" x="0px"
	 y="0px" width="14.794px" height="12.86px" viewBox="0 0 14.794 12.86" style="enable-background:new 0 0 14.794 12.86;"
	 xml:space="preserve">
<g>
	<path style="fill:#FFFFFF;" d="M14.758,3.354l-0.026-0.04l-0.908-0.946c-0.054-0.08-0.019-0.197,0.08-0.227
		c0.138-0.042,0.269-0.116,0.381-0.223c0.378-0.361,0.396-0.955,0.034-1.315c-0.344-0.378-0.938-0.388-1.316-0.025
		c-0.111,0.107-0.191,0.234-0.239,0.371c-0.034,0.096-0.153,0.126-0.23,0.069l-0.905-0.95L11.59,0.04
		c-0.057-0.054-0.149-0.054-0.208,0.003L10.333,1.05c-0.065,0.004-0.129-0.032-0.149-0.102C10.095,0.641,9.838,0.374,9.403,0.29
		C9.359,0.281,9.312,0.28,9.267,0.289c-0.891,0.156-1.12,1.082-0.641,1.585C8.727,1.98,8.849,2.056,8.979,2.1
		c0.07,0.023,0.102,0.095,0.089,0.162L8.014,3.274C7.952,3.333,7.949,3.429,8.006,3.486L8.96,4.481l0.017,0.014l0.006,0.006
		c0.081,0.085,0.223,0.04,0.252-0.077c0.088-0.336,0.365-0.636,0.83-0.727c0.086-0.007,0.174-0.001,0.259,0.017
		c0.195,0.054,0.35,0.146,0.465,0.264c0.112,0.121,0.199,0.28,0.243,0.478c0.014,0.086,0.016,0.173,0.006,0.26
		c-0.112,0.459-0.425,0.724-0.765,0.795c-0.117,0.025-0.168,0.164-0.087,0.249l0.006,0.005l0.012,0.019l0.951,0.998
		c0.056,0.059,0.152,0.06,0.213,0.002l1.059-1.01c0.068-0.01,0.138,0.025,0.159,0.097c0.039,0.134,0.108,0.259,0.21,0.364
		c0.48,0.501,1.415,0.313,1.612-0.569c0.01-0.045,0.012-0.092,0.005-0.137c-0.064-0.438-0.319-0.707-0.623-0.81
		c-0.068-0.022-0.103-0.089-0.095-0.153l1.052-1.003C14.805,3.506,14.81,3.414,14.758,3.354z"/>
	<path style="fill:#2C50A2;stroke:#FFFFFF;stroke-width:0.5;stroke-miterlimit:10;" d="M9.938,12.601h0.008l0.022,0.004l1.377,0.006
		c0.083,0,0.148-0.068,0.149-0.152l0.006-1.463c0.04-0.055,0.114-0.082,0.18-0.047c0.123,0.063,0.261,0.101,0.408,0.101
		c0.694,0.001,1.206-0.803,0.706-1.557c-0.025-0.038-0.058-0.072-0.095-0.099c-0.361-0.257-0.73-0.26-1.015-0.111
		c-0.064,0.033-0.135,0.011-0.176-0.039l0.006-1.453c0-0.081-0.063-0.148-0.142-0.152l-0.047-0.009l-1.312-0.001
		C9.919,7.611,9.859,7.505,9.906,7.414c0.065-0.129,0.103-0.274,0.103-0.43c0.002-0.522-0.414-0.946-0.925-0.936
		C8.573,6.035,8.155,6.457,8.154,6.98c0,0.154,0.036,0.301,0.102,0.43c0.046,0.091-0.015,0.197-0.11,0.213L6.835,7.617l-0.047,0.01
		C6.731,7.629,6.684,7.664,6.661,7.714c0.008,0.022,0.013,0.048,0.013,0.073l-0.002,1.5L6.589,9.271
		C6.552,9.287,6.509,9.29,6.468,9.27L6.443,9.258c-0.044,0-0.09,0.003-0.137,0.011L6.295,9.27L6.282,9.268
		C6.231,9.258,6.185,9.25,6.14,9.25C5.72,9.251,5.371,9.575,5.318,9.997c-0.004,0.036-0.008,0.073-0.008,0.111
		c0,0.151,0.041,0.313,0.128,0.477c0.02,0.035,0.038,0.071,0.062,0.107c0.021,0.03,0.047,0.058,0.076,0.078
		c0.193,0.137,0.383,0.191,0.56,0.191c0.047,0,0.093-0.004,0.139-0.011l0.012-0.003l0.012,0.002
		c0.039,0.007,0.068,0.013,0.096,0.016c0.023-0.01,0.047-0.019,0.07-0.03c0.048-0.025,0.099-0.018,0.139,0.01l0.066-0.014
		l-0.002,1.523c0,0.02-0.003,0.038-0.008,0.057c0.023,0.051,0.073,0.087,0.132,0.087L8.168,12.6l0.021-0.003h0.008
		c0.118,0,0.183-0.133,0.12-0.235c-0.182-0.296-0.206-0.703,0.05-1.102c0.056-0.067,0.12-0.126,0.191-0.175
		c0.174-0.104,0.349-0.151,0.514-0.153c0.165,0.004,0.338,0.052,0.512,0.156c0.071,0.049,0.136,0.107,0.191,0.176
		c0.254,0.398,0.228,0.807,0.044,1.102C9.756,12.468,9.82,12.601,9.938,12.601z"/>
	<path style="fill:#2C50A2;stroke:#FFFFFF;stroke-width:0.5;stroke-miterlimit:10;" d="M5.061,7.438L5.058,7.446L5.057,7.448
		L5.049,7.48c0,0.032,0.026,0.065,0.06,0.072L6.41,7.551c0.018,0,0.034,0.006,0.05,0.01V7.56c0.046,0.003,0.088,0.019,0.122,0.044
		l0.009-0.041l0.005-1.462c0.041-0.056,0.114-0.082,0.18-0.048c0.122,0.064,0.261,0.101,0.408,0.101
		C7.878,6.154,8.39,5.351,7.89,4.597C7.864,4.559,7.832,4.524,7.795,4.498C7.434,4.241,7.064,4.239,6.78,4.387
		C6.716,4.42,6.645,4.398,6.604,4.348L6.61,2.895c0-0.081-0.063-0.148-0.142-0.152L6.421,2.733L5.11,2.732
		C5.016,2.716,4.955,2.61,5.002,2.519C5.067,2.391,5.104,2.244,5.105,2.09C5.107,1.566,4.691,1.143,4.18,1.153
		C3.669,1.14,3.251,1.562,3.25,2.085c0,0.155,0.037,0.301,0.102,0.43c0.046,0.091-0.015,0.197-0.11,0.214L1.932,2.723L1.884,2.731
		c-0.08,0.003-0.142,0.069-0.142,0.151L1.741,4.336c-0.042,0.05-0.112,0.071-0.176,0.038C1.281,4.225,0.911,4.225,0.549,4.48
		c-0.037,0.026-0.07,0.061-0.096,0.098c-0.504,0.751,0.005,1.558,0.699,1.561c0.147,0,0.286-0.035,0.408-0.099
		C1.626,6.006,1.7,6.033,1.739,6.088L1.738,7.551c0,0.019,0.004,0.035,0.01,0.052c0.034-0.025,0.076-0.04,0.121-0.043v0.001
		c0.016-0.004,0.032-0.01,0.051-0.01l1.301,0.002c0.033-0.007,0.061-0.04,0.06-0.072L3.273,7.448L3.271,7.445L3.27,7.441
		L3.268,7.437C3.202,7.303,3.164,7.151,3.162,6.99l0,0V6.986V6.985V6.983c0-0.103,0.02-0.196,0.045-0.284
		c0.12-0.415,0.49-0.723,0.936-0.723h0.024h0.02c0.446,0,0.817,0.308,0.937,0.723c0.025,0.088,0.044,0.182,0.044,0.284v0.002
		C5.167,7.148,5.128,7.302,5.061,7.438z"/>
	<path style="fill:#2C50A2;stroke:#FFFFFF;stroke-width:0.5;stroke-miterlimit:10;" d="M5.513,9.333
		c0.171-0.152,0.395-0.246,0.641-0.247v0.073V9.086c0.06,0,0.112,0.011,0.16,0.019c0.049-0.006,0.099-0.011,0.148-0.011
		c0.024,0,0.049,0.001,0.073,0.004l0.001-1.324c0-0.042-0.03-0.072-0.064-0.076L6.467,7.696H6.456L6.445,7.692L6.423,7.688
		L5.105,7.69L5.1,7.688C4.996,7.671,4.925,7.585,4.916,7.486L4.912,7.466c0-0.031,0.007-0.063,0.022-0.093h0l0.003-0.008
		l0.002-0.003C4.996,7.245,5.03,7.113,5.03,6.972V6.97c0-0.083-0.016-0.163-0.038-0.243C4.889,6.372,4.574,6.113,4.2,6.113h-0.02
		H4.179H4.177h-0.02c-0.176,0-0.338,0.059-0.472,0.156c-0.151,0.109-0.266,0.269-0.32,0.457C3.351,6.772,3.342,6.818,3.335,6.864
		C3.33,6.899,3.326,6.934,3.326,6.969V6.97v0.002c0,0.142,0.034,0.273,0.093,0.391L3.42,7.365l0.001,0.004l0.001,0.005l0,0
		c0.014,0.03,0.021,0.062,0.021,0.093L3.441,7.484c-0.008,0.101-0.08,0.187-0.184,0.204L3.251,7.69L1.934,7.688L1.923,7.689
		L1.911,7.692l-0.01,0.004H1.89c-0.037,0.002-0.07,0.033-0.07,0.077l0.002,1.48L1.805,9.275c-0.042,0.049-0.102,0.08-0.169,0.08
		c-0.034,0-0.068-0.008-0.1-0.024C1.424,9.273,1.298,9.24,1.164,9.24c-0.177,0-0.37,0.057-0.565,0.195
		C0.569,9.456,0.542,9.483,0.522,9.514c-0.133,0.2-0.189,0.399-0.189,0.584c0,0.475,0.373,0.857,0.829,0.858h0.001
		c0.134,0,0.26-0.033,0.372-0.091c0.031-0.017,0.064-0.024,0.097-0.024c0.074,0,0.139,0.038,0.179,0.095l0.014,0.02l0.002,1.485
		c0,0.045,0.034,0.078,0.073,0.078l1.372-0.003l0.022-0.003H3.3h0.008c0.022,0,0.037-0.008,0.049-0.021
		c0.012-0.014,0.019-0.033,0.019-0.054l-0.013-0.046c-0.096-0.155-0.152-0.34-0.152-0.538c0-0.207,0.062-0.429,0.199-0.644
		l0.002-0.004l0.003-0.003c0.06-0.073,0.13-0.138,0.207-0.19l0.002-0.001l0.002-0.001c0.184-0.11,0.372-0.163,0.55-0.166h0H4.18
		c0.178,0.003,0.366,0.056,0.55,0.166h0.001l0.002,0.002c0.077,0.053,0.147,0.117,0.207,0.19l0.003,0.003l0.002,0.004
		c0.137,0.215,0.2,0.437,0.199,0.645c0,0.197-0.055,0.382-0.151,0.537l-0.014,0.046c0,0.021,0.008,0.04,0.02,0.054
		c0.013,0.013,0.027,0.021,0.05,0.021h0.013l0.005,0.001l0.016,0.002l1.373,0.003c0.039,0,0.073-0.033,0.073-0.078l0.002-1.342
		c-0.031,0.005-0.063,0.007-0.096,0.007h0c-0.057,0-0.102-0.013-0.139-0.019c-0.048,0.007-0.097,0.012-0.146,0.012
		c-0.201,0-0.415-0.063-0.623-0.205L5.503,10.88c-0.044-0.032-0.083-0.072-0.114-0.118c-0.078-0.117-0.133-0.237-0.168-0.356
		c-0.01-0.037-0.019-0.074-0.025-0.11c-0.013-0.068-0.021-0.135-0.021-0.2C5.174,9.791,5.305,9.519,5.513,9.333z"/>
</g>
</svg>
