<?xml version="1.0" encoding="iso-8859-1"?>
<!-- Generator: Adobe Illustrator 16.0.0, SVG Export Plug-In . SVG Version: 6.00 Build 0)  -->
<!DOCTYPE svg PUBLIC "-//W3C//DTD SVG 1.1//EN" "http://www.w3.org/Graphics/SVG/1.1/DTD/svg11.dtd">
<svg version="1.1" id="&#x5716;&#x5C64;_1" xmlns="http://www.w3.org/2000/svg" xmlns:xlink="http://www.w3.org/1999/xlink" x="0px"
	 y="0px" width="10.5px" height="13.417px" viewBox="0 0 10.5 13.417" style="enable-background:new 0 0 10.5 13.417;"
	 xml:space="preserve">
<g>
	<g>
		<rect x="2.083" y="0.25" style="fill:none;stroke:#FFFFFF;stroke-width:0.5;stroke-miterlimit:10;" width="8.167" height="11"/>
		
			<rect x="0.25" y="2.167" style="fill:#2C50A2;stroke:#FFFFFF;stroke-width:0.5;stroke-miterlimit:10;" width="8.167" height="11"/>
	</g>
	<path style="fill:#FFFFFF;" d="M6.967,6.922c0,0.118-0.096,0.214-0.214,0.214h-4.84C1.795,7.136,1.7,7.04,1.7,6.922
		c0-0.117,0.096-0.213,0.213-0.213h4.84C6.872,6.709,6.967,6.805,6.967,6.922z M1.913,8.145h4.84c0.118,0,0.214,0.095,0.214,0.213
		c0,0.117-0.096,0.213-0.214,0.213h-4.84C1.795,8.57,1.7,8.475,1.7,8.357C1.7,8.239,1.795,8.145,1.913,8.145z M1.913,9.531h4.84
		c0.118,0,0.214,0.096,0.214,0.214S6.872,9.959,6.753,9.959h-4.84C1.795,9.959,1.7,9.863,1.7,9.745S1.795,9.531,1.913,9.531z
		 M1.913,10.943h4.84c0.118,0,0.214,0.096,0.214,0.214c0,0.117-0.096,0.214-0.214,0.214h-4.84c-0.118,0-0.213-0.097-0.213-0.214
		C1.7,11.039,1.795,10.943,1.913,10.943z"/>
	<polygon style="fill:#FFFFFF;" points="6.167,3.866 5.583,3.286 4.29,4.588 3.581,3.883 3.001,4.466 4.293,5.75 4.874,5.167 
		4.874,5.167 	"/>
</g>
</svg>
