<?xml version="1.0" encoding="iso-8859-1"?>
<!-- Generator: Adobe Illustrator 16.0.0, SVG Export Plug-In . SVG Version: 6.00 Build 0)  -->
<!DOCTYPE svg PUBLIC "-//W3C//DTD SVG 1.1//EN" "http://www.w3.org/Graphics/SVG/1.1/DTD/svg11.dtd">
<svg version="1.1" id="&#x5716;&#x5C64;_1" xmlns="http://www.w3.org/2000/svg" xmlns:xlink="http://www.w3.org/1999/xlink" x="0px"
	 y="0px" width="10.813px" height="11.858px" viewBox="0 0 10.813 11.858" style="enable-background:new 0 0 10.813 11.858;"
	 xml:space="preserve">
<g>
	<g>
		<g>
			<g>
				<g>
					<g>
						<path style="fill:#2C50A2;stroke:#FFFFFF;stroke-width:0.5;stroke-miterlimit:10;" d="M9.268,2.875
							c0.579,0.153,1.063,0.601,1.233,1.219c0.171,0.623-0.021,1.259-0.447,1.687L9.268,2.875z"/>
					</g>
					<g>
						<path style="fill:#2C50A2;stroke:#FFFFFF;stroke-width:0.5;stroke-miterlimit:10;" d="M0.442,5.118l2.081-0.571
							c0.001-0.001,0.002-0.001,0.003-0.002c2.441-0.689,4.39-2.264,5.581-4.263c0.016-0.027,0.046-0.037,0.073-0.03l2.269,8.384
							c-0.016,0.004-0.033,0.004-0.05-0.006C8.354,7.519,5.874,7.16,3.422,7.813c-0.001,0-0.001,0-0.003,0l-2.08,0.572
							C1.2,8.423,1.056,8.342,1.018,8.202L0.26,5.438C0.221,5.3,0.303,5.156,0.442,5.118z"/>
					</g>
					<g>
						<path style="fill:#2C50A2;stroke:#FFFFFF;stroke-width:0.5;stroke-miterlimit:10;" d="M3.423,8.158l-1.3,0.356l1.055,2.944
							c0.034,0.095,0.133,0.156,0.243,0.149c0.357-0.02,0.703-0.129,1.042-0.232c0.131-0.039,0.282-0.063,0.371-0.174
							c0.076-0.092,0.088-0.215,0.036-0.314L3.423,8.158z"/>
					</g>
				</g>
			</g>
		</g>
	</g>
</g>
</svg>
