<?xml version="1.0" encoding="iso-8859-1"?>
<!-- Generator: Adobe Illustrator 16.0.0, SVG Export Plug-In . SVG Version: 6.00 Build 0)  -->
<!DOCTYPE svg PUBLIC "-//W3C//DTD SVG 1.1//EN" "http://www.w3.org/Graphics/SVG/1.1/DTD/svg11.dtd">
<svg version="1.1" id="&#x5716;&#x5C64;_1" xmlns="http://www.w3.org/2000/svg" xmlns:xlink="http://www.w3.org/1999/xlink" x="0px"
	 y="0px" width="18.917px" height="18.918px" viewBox="0 0 18.917 18.918" style="enable-background:new 0 0 18.917 18.918;"
	 xml:space="preserve">
<g>
	<circle style="fill:#E8C41D;stroke:#FFFFFF;stroke-miterlimit:10;" cx="9.458" cy="9.459" r="8.958"/>
	<g>
		<path style="fill:#2C50A2;" d="M11.34,6.573l-0.8-1.431H8.37l-0.8,1.431H4.05v6.62H14.86v-6.62H11.34z M8.78,5.703h1.35
			c0.21,0,0.39,0.18,0.39,0.391c0,0.219-0.18,0.399-0.39,0.399H8.78c-0.21,0-0.391-0.181-0.391-0.399
			C8.39,5.883,8.57,5.703,8.78,5.703z M9.46,12.523c-1.41,0-2.55-1.051-2.55-2.36c0-1.3,1.14-2.351,2.55-2.351
			s2.55,1.051,2.55,2.351C12.01,11.473,10.87,12.523,9.46,12.523z"/>
		<path style="fill:#2C50A2;" d="M11.242,10.166c0,0.914-0.795,1.658-1.783,1.658c-0.989,0-1.795-0.744-1.795-1.658
			c0-0.904,0.806-1.649,1.795-1.649C10.447,8.517,11.242,9.262,11.242,10.166z"/>
	</g>
</g>
</svg>
