<?xml version="1.0" encoding="iso-8859-1"?>
<!-- Generator: Adobe Illustrator 16.0.0, SVG Export Plug-In . SVG Version: 6.00 Build 0)  -->
<!DOCTYPE svg PUBLIC "-//W3C//DTD SVG 1.1//EN" "http://www.w3.org/Graphics/SVG/1.1/DTD/svg11.dtd">
<svg version="1.1" id="&#x5716;&#x5C64;_1" xmlns="http://www.w3.org/2000/svg" xmlns:xlink="http://www.w3.org/1999/xlink" x="0px"
	 y="0px" width="11.934px" height="11.934px" viewBox="0 0 11.934 11.934" style="enable-background:new 0 0 11.934 11.934;"
	 xml:space="preserve">
<g>
	<circle style="fill:#2C50A2;stroke:#FFFFFF;stroke-width:0.5;stroke-miterlimit:10;" cx="5.967" cy="5.967" r="5.717"/>
	<g>
		<g>
			<path style="fill:#FFFFFF;" d="M6.984,4.127c0-0.541-0.376-0.976-1.099-0.976c-0.509,0-0.957,0.217-1.313,0.578L4.044,3.296
				c0.468-0.479,1.119-0.831,1.943-0.831c1.15,0,1.903,0.623,1.903,1.608c0,1.328-1.832,1.862-1.648,3.28H5.417
				C5.184,5.781,6.984,5.202,6.984,4.127z M5.184,8.845c0-0.37,0.305-0.642,0.671-0.642c0.376,0,0.682,0.271,0.682,0.642
				c0,0.372-0.305,0.624-0.682,0.624C5.489,9.469,5.184,9.217,5.184,8.845z"/>
		</g>
	</g>
</g>
</svg>
