<?xml version="1.0" encoding="iso-8859-1"?>
<!-- Generator: Adobe Illustrator 16.0.0, SVG Export Plug-In . SVG Version: 6.00 Build 0)  -->
<!DOCTYPE svg PUBLIC "-//W3C//DTD SVG 1.1//EN" "http://www.w3.org/Graphics/SVG/1.1/DTD/svg11.dtd">
<svg version="1.1" id="&#x5716;&#x5C64;_1" xmlns="http://www.w3.org/2000/svg" xmlns:xlink="http://www.w3.org/1999/xlink" x="0px"
	 y="0px" width="12.241px" height="10.704px" viewBox="0 0 12.241 10.704" style="enable-background:new 0 0 12.241 10.704;"
	 xml:space="preserve">
<g>
	<g>
		<g>
			<path style="fill:#2C50A2;stroke:#FFFFFF;stroke-width:0.5;stroke-miterlimit:10;" d="M10.534,3.08
				c0.02,1.341-1.056,2.45-2.397,2.471c-1.343,0.02-2.449-1.056-2.47-2.396C5.646,1.811,6.72,0.704,8.063,0.684
				C9.404,0.663,10.513,1.736,10.534,3.08z"/>
		</g>
		<g>
			<path style="fill:#2C50A2;stroke:#FFFFFF;stroke-width:0.5;stroke-miterlimit:10;" d="M11.971,9.258l0.016,1.077L4.431,10.45
				L4.415,9.373c-0.026-1.717,0.948-3.128,2.17-3.146l3.124-0.048C10.931,6.16,11.945,7.542,11.971,9.258z"/>
		</g>
	</g>
	<g>
		<polygon style="fill:#FFFFFF;" points="4.296,1.54 2.733,1.563 2.709,0 1.539,0.018 1.562,1.581 0,1.604 0.018,2.776 1.58,2.753 
			1.604,4.314 2.774,4.297 2.751,2.735 4.313,2.712 		"/>
	</g>
</g>
</svg>
