<?xml version="1.0" encoding="iso-8859-1"?>
<!-- Generator: Adobe Illustrator 16.0.0, SVG Export Plug-In . SVG Version: 6.00 Build 0)  -->
<!DOCTYPE svg PUBLIC "-//W3C//DTD SVG 1.1//EN" "http://www.w3.org/Graphics/SVG/1.1/DTD/svg11.dtd">
<svg version="1.1" id="&#x5716;&#x5C64;_1" xmlns="http://www.w3.org/2000/svg" xmlns:xlink="http://www.w3.org/1999/xlink" x="0px"
	 y="0px" width="13.239px" height="9.518px" viewBox="0 0 13.239 9.518" style="enable-background:new 0 0 13.239 9.518;"
	 xml:space="preserve">
<g>
	<g>
		<g>
			<path style="fill:#2C50A2;stroke:#FFFFFF;stroke-width:0.5;stroke-miterlimit:10;" d="M10.33,9.268
				c-1.39,0-2.521-1.099-2.521-2.447c0-1.35,1.131-2.448,2.521-2.448s2.521,1.099,2.521,2.448c0,0.336-0.075,0.668-0.224,0.99
				l0.354,1.171c0.018,0.06,0.003,0.125-0.04,0.17s-0.107,0.066-0.167,0.051l-1.173-0.274C11.21,9.15,10.772,9.268,10.33,9.268z"/>
		</g>
		<g>
			<path style="fill:#2C50A2;stroke:#FFFFFF;stroke-width:0.5;stroke-miterlimit:10;" d="M2.807,8.642L0.646,9.146
				c-0.111,0.029-0.229-0.01-0.308-0.093c-0.08-0.083-0.107-0.203-0.074-0.313l0.652-2.158C0.644,5.99,0.505,5.378,0.505,4.759
				c0-2.485,2.083-4.509,4.643-4.509c2.56,0,4.644,2.023,4.644,4.509c0,2.486-2.083,4.509-4.644,4.509
				C4.333,9.268,3.527,9.051,2.807,8.642z"/>
		</g>
	</g>
	<g>
		<polygon style="fill:#FFFFFF;" points="5.875,2.489 5.689,5.861 4.71,5.861 4.523,2.489 		"/>
		<rect x="4.71" y="6.242" style="fill:#FFFFFF;" width="0.979" height="1.006"/>
	</g>
</g>
</svg>
