<?xml version="1.0" encoding="iso-8859-1"?>
<!-- Generator: Adobe Illustrator 16.0.0, SVG Export Plug-In . SVG Version: 6.00 Build 0)  -->
<!DOCTYPE svg PUBLIC "-//W3C//DTD SVG 1.1//EN" "http://www.w3.org/Graphics/SVG/1.1/DTD/svg11.dtd">
<svg version="1.1" id="&#x5716;&#x5C64;_1" xmlns="http://www.w3.org/2000/svg" xmlns:xlink="http://www.w3.org/1999/xlink" x="0px"
	 y="0px" width="11.533px" height="10.483px" viewBox="0 0 11.533 10.483" style="enable-background:new 0 0 11.533 10.483;"
	 xml:space="preserve">
<g>
	<path style="fill:#2C50A2;stroke:#FFFFFF;stroke-width:0.25;stroke-miterlimit:10;" d="M1.13,7.007
		c0.02,0.09,0.118,0.156,0.208,0.156h6.944C8.206,7.525,8.127,7.889,8.049,8.25H1.68c-0.583,0-1.007,0.449-1.066,0.992
		c-0.005,0.02-0.007,0.039-0.006,0.063C0.607,9.328,0.61,9.349,0.614,9.367c0.061,0.563,0.51,1.014,1.113,0.99
		c0.564-0.025,1.025-0.496,1.025-1.053c0-0.234-0.082-0.453-0.219-0.631H7.27C7.148,8.836,7.071,9.032,7.05,9.242
		c-0.006,0.02-0.009,0.039-0.007,0.063C7.041,9.328,7.043,9.349,7.05,9.367c0.061,0.563,0.509,1.014,1.112,0.99
		c0.564-0.025,1.026-0.496,1.026-1.053c0-0.449-0.302-0.84-0.712-0.99L8.65,7.502c0.235-1.1,0.473-2.2,0.709-3.3
		c0.011-0.026,0.016-0.054,0.018-0.081c0.256-1.191,0.512-2.381,0.768-3.57h1.054c0.279,0,0.278-0.426,0-0.426H9.97
		c-0.09,0-0.189,0.065-0.208,0.156C9.688,0.619,9.617,0.959,9.543,1.297c-0.064,0.295-0.127,0.592-0.19,0.887H0.339
		c-0.147,0-0.238,0.135-0.209,0.27C0.464,3.971,0.798,5.488,1.13,7.007"/>
	<polygon style="fill:#2C50A2;stroke:#FFFFFF;stroke-width:0.25;stroke-miterlimit:10;" points="7.244,6.738 8.077,2.607 
		9.262,2.607 8.374,6.738 	"/>
	<polygon style="fill:#2C50A2;stroke:#FFFFFF;stroke-width:0.25;stroke-miterlimit:10;" points="5.536,6.738 6.368,2.607 
		7.63,2.607 6.797,6.738 	"/>
	<polygon style="fill:#2C50A2;stroke:#FFFFFF;stroke-width:0.25;stroke-miterlimit:10;" points="3.865,6.738 4.697,2.607 
		5.921,2.607 5.089,6.738 	"/>
	<polygon style="fill:#2C50A2;stroke:#FFFFFF;stroke-width:0.25;stroke-miterlimit:10;" points="2.361,6.738 3.193,2.607 
		4.251,2.607 3.419,6.738 	"/>
	<polygon style="fill:#2C50A2;stroke:#FFFFFF;stroke-width:0.25;stroke-miterlimit:10;" points="1.513,6.738 0.605,2.607 
		2.747,2.607 1.915,6.738 	"/>
	<polygon style="fill:#2C50A2;stroke:#FFFFFF;stroke-width:0.25;stroke-miterlimit:10;" points="0.614,2.591 1.521,6.721 
		1.924,6.721 2.756,2.591 	"/>
	<polygon style="fill:#2C50A2;stroke:#FFFFFF;stroke-width:0.25;stroke-miterlimit:10;" points="3.203,2.591 2.369,6.721 
		3.428,6.721 4.26,2.591 	"/>
	<polygon style="fill:#2C50A2;stroke:#FFFFFF;stroke-width:0.25;stroke-miterlimit:10;" points="4.706,2.591 3.874,6.721 
		5.098,6.721 5.931,2.591 	"/>
	<polygon style="fill:#2C50A2;stroke:#FFFFFF;stroke-width:0.25;stroke-miterlimit:10;" points="6.377,2.591 5.545,6.721 
		6.807,6.721 7.639,2.591 	"/>
	<polygon style="fill:#2C50A2;stroke:#FFFFFF;stroke-width:0.25;stroke-miterlimit:10;" points="3.203,2.591 2.369,6.721 
		3.428,6.721 4.26,2.591 	"/>
	<polygon style="fill:#2C50A2;stroke:#FFFFFF;stroke-width:0.25;stroke-miterlimit:10;" points="0.614,2.591 1.521,6.721 
		1.924,6.721 2.756,2.591 	"/>
</g>
</svg>
