<?xml version="1.0" encoding="utf-8"?>
<!-- Generator: Adobe Illustrator 16.0.0, SVG Export Plug-In . SVG Version: 6.00 Build 0)  -->
<!DOCTYPE svg PUBLIC "-//W3C//DTD SVG 1.1//EN" "http://www.w3.org/Graphics/SVG/1.1/DTD/svg11.dtd">
<svg version="1.1" id="圖層_1" xmlns="http://www.w3.org/2000/svg" xmlns:xlink="http://www.w3.org/1999/xlink" x="0px" y="0px"
	 width="26px" height="26px" viewBox="0 0 26 26" enable-background="new 0 0 26 26" xml:space="preserve">
<g>
	<path fill="#DCDDDD" stroke="#FFFFFF" stroke-miterlimit="10" d="M25.5,19.514c0,3.307-2.68,5.986-5.984,5.986H6.483
		C3.18,25.5,0.5,22.82,0.5,19.514V6.482C0.5,3.178,3.18,0.5,6.483,0.5h13.032c3.305,0,5.984,2.678,5.984,5.982V19.514z"/>
	<g>
		<path fill="#2C62AE" d="M22.355,12.752c0,4.947-4.194,8.955-9.355,8.955c-1.08,0-2.111-0.176-3.078-0.496
			c-0.568,0.277-1.236,0.598-1.784,0.852c-1.25,0.578-1.294-0.895-1.294-0.895V19.49c-1.961-1.635-3.199-4.053-3.199-6.738
			c0-4.939,4.188-8.949,9.355-8.949C18.161,3.803,22.355,7.813,22.355,12.752z"/>
		<path fill="#FFFFFF" d="M18.645,10.512c0,0.094-0.022,0.178-0.064,0.25l-0.093,0.141L18.48,10.91l-2.857,4.314h-0.008
			c-0.185,0.334-0.54,0.555-0.945,0.555c-0.284,0-0.54-0.105-0.739-0.291h-0.007c0,0-1.592-1.217-2.026-1.699
			c-0.433-0.477-0.959-0.086-0.959-0.086l-2.609,2.176l-0.035,0.029c-0.1,0.092-0.228,0.141-0.37,0.141
			c-0.312,0-0.568-0.248-0.568-0.561c0-0.137,0.05-0.256,0.135-0.35l-0.007-0.006l2.894-4.379h0.006
			c0.179-0.377,0.556-0.633,0.997-0.633c0.241,0,0.468,0.078,0.646,0.213c0.021,0.014,0.035,0.027,0.057,0.035
			c0.007,0.016,0.014,0.021,0.027,0.029c0.016,0.014,0.037,0.035,0.051,0.049c0.377,0.328,1.542,1.33,2.005,1.693
			c0.554,0.426,1.193-0.15,1.193-0.15l2.325-1.877l0.057-0.049c0.093-0.072,0.214-0.113,0.341-0.113
			C18.388,9.951,18.645,10.199,18.645,10.512z"/>
	</g>
</g>
</svg>
