<?xml version="1.0" encoding="iso-8859-1"?>
<!-- Generator: Adobe Illustrator 16.0.0, SVG Export Plug-In . SVG Version: 6.00 Build 0)  -->
<!DOCTYPE svg PUBLIC "-//W3C//DTD SVG 1.1//EN" "http://www.w3.org/Graphics/SVG/1.1/DTD/svg11.dtd">
<svg version="1.1" id="&#x5716;&#x5C64;_1" xmlns="http://www.w3.org/2000/svg" xmlns:xlink="http://www.w3.org/1999/xlink" x="0px"
	 y="0px" width="119.791px" height="78.224px" viewBox="0 0 119.791 78.224" style="enable-background:new 0 0 119.791 78.224;"
	 xml:space="preserve">
<g>
	<g style="opacity:0.3;">
		<g>
			<polygon style="fill:#2C50A2;" points="43.437,61.074 43.437,20.411 77.776,0 77.776,13.613 54.885,27.219 54.885,44.209 
				66.327,37.408 66.327,47.631 			"/>
			<polygon style="fill:#E8C41D;" points="66.327,51.004 43.437,64.612 43.437,78.224 77.776,57.81 77.776,16.984 54.885,30.591 
				54.885,40.823 66.327,34.018 			"/>
			<polygon style="fill:#F08719;" points="54.885,40.823 54.885,44.209 66.327,37.408 66.327,34.018 			"/>
		</g>
	</g>
	<g>
		<g>
			<path style="fill:#595757;stroke:#898989;stroke-miterlimit:10;" d="M3.713,14.143h4.342L5.423,33.174h7.134l-0.5,3.953H0.572
				L3.713,14.143z"/>
			<path style="fill:#595757;stroke:#898989;stroke-miterlimit:10;" d="M28.291,13.564c3.156,0,5.761,1.016,7.813,3.047
				s3.078,4.609,3.078,7.734c0,2.396-0.606,4.654-1.82,6.773c-1.214,2.12-2.828,3.748-4.844,4.883s-4.331,1.703-6.945,1.703
				c-3.271,0-5.883-0.969-7.836-2.906s-2.93-4.489-2.93-7.656c0-3.594,1.167-6.682,3.5-9.266
				C20.911,15.002,24.239,13.564,28.291,13.564z M28.135,17.643c-1.646,0-3.148,0.398-4.508,1.195s-2.456,1.943-3.289,3.438
				c-0.833,1.495-1.25,3.039-1.25,4.633c0,1.886,0.578,3.484,1.734,4.797s2.817,1.969,4.984,1.969c2.511,0,4.644-0.885,6.398-2.656
				c1.755-1.771,2.633-3.922,2.633-6.453c0-2.094-0.617-3.771-1.852-5.031C31.752,18.273,30.135,17.643,28.135,17.643z"/>
			<path style="fill:#595757;stroke:#898989;stroke-miterlimit:10;" d="M64.213,17.119l-3.141,2.912
				c-0.677-0.78-1.505-1.381-2.484-1.803s-2.042-0.632-3.188-0.632c-1.604,0-3.141,0.411-4.609,1.233s-2.612,1.909-3.43,3.262
				s-1.227,2.794-1.227,4.324c0,2.082,0.719,3.812,2.156,5.19s3.281,2.068,5.531,2.068c2.406,0,4.489-0.698,6.25-2.094l2.547,3.359
				c-2.614,1.844-5.641,2.766-9.078,2.766c-2.417,0-4.472-0.458-6.164-1.375s-3.052-2.263-4.078-4.039
				c-1.026-1.776-1.539-3.7-1.539-5.773c0-2.219,0.606-4.346,1.82-6.383c1.214-2.036,2.856-3.641,4.93-4.813
				s4.333-1.758,6.781-1.758C58.729,13.564,61.702,14.749,64.213,17.119z"/>
			<path style="fill:#595757;stroke:#898989;stroke-miterlimit:10;" d="M69.65,14.143h4.331l-1.073,7.732l7.332-7.732h5.355
				L75.578,24.646l7.913,12.48h-4.826L72.206,26.94l-1.413,10.187H66.51L69.65,14.143z"/>
			<path style="fill:#595757;stroke:#898989;stroke-miterlimit:10;" d="M89.15,14.143h12.359l-0.529,4.078H92.96l-0.658,4.75h8.062
				l-0.524,4.047H91.74l-0.846,6.094h8.152l-0.521,4.016H86.01L89.15,14.143z"/>
			<path style="fill:#595757;stroke:#898989;stroke-miterlimit:10;" d="M106.307,14.143h3.991c2.465,0,4.199,0.214,5.203,0.641
				c1.253,0.531,2.198,1.268,2.835,2.21s0.955,2.059,0.955,3.35c0,1.593-0.474,2.96-1.419,4.1c-0.946,1.141-2.375,1.934-4.288,2.382
				l5.004,10.303h-4.469l-4.906-10.031h-0.354l-1.379,10.031h-4.314L106.307,14.143z M109.377,23.33
				c2.335-0.01,3.855-0.252,4.56-0.727c0.705-0.474,1.058-1.185,1.058-2.133c0-0.542-0.142-0.995-0.424-1.359
				c-0.283-0.364-0.691-0.62-1.226-0.766c-0.534-0.146-1.619-0.219-3.252-0.219L109.377,23.33z"/>
			<path style="fill:#595757;stroke:#898989;stroke-miterlimit:10;" d="M29.736,47.346l-3.141,2.781
				c-1.292-1.667-2.495-2.5-3.609-2.5c-0.552,0-1.011,0.164-1.375,0.492s-0.547,0.722-0.547,1.18c0,0.427,0.167,0.901,0.5,1.422
				c0.333,0.521,1.344,1.672,3.031,3.453c0.896,0.948,1.484,1.62,1.766,2.016c0.677,0.917,1.164,1.773,1.461,2.57
				s0.445,1.607,0.445,2.43c0,1.844-0.656,3.391-1.969,4.641s-2.995,1.875-5.047,1.875c-3.125,0-5.672-1.484-7.641-4.453
				l3.313-2.672c1.333,2.031,2.776,3.047,4.328,3.047c0.739,0,1.362-0.239,1.867-0.719c0.505-0.479,0.758-1.057,0.758-1.734
				c0-0.531-0.153-1.073-0.461-1.625c-0.308-0.552-1.185-1.594-2.633-3.125c-1.531-1.614-2.536-2.833-3.016-3.656
				c-0.646-1.114-0.969-2.208-0.969-3.281c0-1.417,0.464-2.688,1.391-3.813c1.167-1.406,2.739-2.109,4.719-2.109
				C25.627,43.564,27.903,44.825,29.736,47.346z"/>
			<path style="fill:#595757;stroke:#898989;stroke-miterlimit:10;" d="M31.721,44.143h14.031l-0.5,4.094h-4.791L37.88,67.127
				h-4.284l2.581-18.891h-4.987L31.721,44.143z"/>
			<path style="fill:#595757;stroke:#898989;stroke-miterlimit:10;" d="M58.689,43.564c3.156,0,5.761,1.016,7.813,3.047
				s3.078,4.609,3.078,7.734c0,2.396-0.606,4.654-1.82,6.773c-1.214,2.12-2.828,3.748-4.844,4.883s-4.331,1.703-6.945,1.703
				c-3.271,0-5.883-0.969-7.836-2.906s-2.93-4.489-2.93-7.656c0-3.594,1.167-6.682,3.5-9.266
				C51.31,45.002,54.638,43.564,58.689,43.564z M58.533,47.643c-1.646,0-3.148,0.398-4.508,1.195s-2.456,1.943-3.289,3.438
				c-0.833,1.495-1.25,3.039-1.25,4.633c0,1.886,0.578,3.484,1.734,4.797s2.817,1.969,4.984,1.969c2.511,0,4.644-0.885,6.398-2.656
				c1.755-1.771,2.633-3.922,2.633-6.453c0-2.094-0.617-3.771-1.852-5.031C62.15,48.273,60.533,47.643,58.533,47.643z"/>
			<path style="fill:#595757;stroke:#898989;stroke-miterlimit:10;" d="M75.268,44.143h3.991c2.465,0,4.199,0.214,5.203,0.641
				c1.253,0.531,2.198,1.268,2.835,2.21s0.955,2.059,0.955,3.35c0,1.593-0.474,2.96-1.419,4.1c-0.946,1.141-2.375,1.934-4.288,2.382
				l5.004,10.303H83.08l-4.906-10.031H77.82l-1.379,10.031h-4.314L75.268,44.143z M78.338,53.33c2.335-0.01,3.855-0.252,4.56-0.727
				c0.705-0.474,1.058-1.185,1.058-2.133c0-0.542-0.142-0.995-0.424-1.359c-0.283-0.364-0.691-0.62-1.226-0.766
				c-0.534-0.146-1.619-0.219-3.252-0.219L78.338,53.33z"/>
			<path style="fill:#595757;stroke:#898989;stroke-miterlimit:10;" d="M93.314,44.143h12.359l-0.529,4.078h-8.021l-0.658,4.75
				h8.062l-0.524,4.047h-8.099l-0.846,6.094h8.152l-0.521,4.016H90.174L93.314,44.143z"/>
		</g>
	</g>
</g>
</svg>
