<?xml version="1.0" encoding="iso-8859-1"?>
<!-- Generator: Adobe Illustrator 16.0.0, SVG Export Plug-In . SVG Version: 6.00 Build 0)  -->
<!DOCTYPE svg PUBLIC "-//W3C//DTD SVG 1.1//EN" "http://www.w3.org/Graphics/SVG/1.1/DTD/svg11.dtd">
<svg version="1.1" id="&#x5716;&#x5C64;_1" xmlns="http://www.w3.org/2000/svg" xmlns:xlink="http://www.w3.org/1999/xlink" x="0px"
	 y="0px" width="49.366px" height="112.182px" viewBox="0 0 49.366 112.182" style="enable-background:new 0 0 49.366 112.182;"
	 xml:space="preserve">
<g>
	<g>
		<polygon style="fill:#2C50A2;" points="0.25,87.337 0.25,29.478 49.116,0.435 49.116,19.805 16.542,39.164 16.542,63.341 
			32.823,53.663 32.823,68.209 		"/>
		<polygon style="fill:#E8C41D;" points="32.823,73.01 0.25,92.372 0.25,111.738 49.116,82.693 49.116,24.602 16.542,43.963 
			16.542,58.521 32.823,48.84 		"/>
		<polygon style="fill:#F08719;" points="16.542,58.521 16.542,63.341 32.823,53.663 32.823,48.84 		"/>
	</g>
	<g>
		<polygon style="fill:none;stroke:#FFFFFF;stroke-width:0.5;stroke-miterlimit:10;" points="0.25,87.344 0.25,29.482 49.116,0.439 
			49.116,19.807 16.546,39.168 16.546,63.347 32.826,53.669 32.826,68.213 		"/>
		<polygon style="fill:none;stroke:#FFFFFF;stroke-width:0.5;stroke-miterlimit:10;" points="32.826,73.014 0.25,92.375 
			0.25,111.742 49.116,82.699 49.116,24.607 16.546,43.967 16.546,58.527 32.826,48.846 		"/>
		<polygon style="fill:none;stroke:#FFFFFF;stroke-width:0.5;stroke-miterlimit:10;" points="16.546,58.527 16.546,63.347 
			32.826,53.669 32.826,48.846 		"/>
	</g>
</g>
</svg>
