<?xml version="1.0" encoding="iso-8859-1"?>
<!-- Generator: Adobe Illustrator 16.0.0, SVG Export Plug-In . SVG Version: 6.00 Build 0)  -->
<!DOCTYPE svg PUBLIC "-//W3C//DTD SVG 1.1//EN" "http://www.w3.org/Graphics/SVG/1.1/DTD/svg11.dtd">
<svg version="1.1" id="&#x5716;&#x5C64;_1" xmlns="http://www.w3.org/2000/svg" xmlns:xlink="http://www.w3.org/1999/xlink" x="0px"
	 y="0px" width="104.644px" height="136.864px" viewBox="0 0 104.644 136.864" style="enable-background:new 0 0 104.644 136.864;"
	 xml:space="preserve">
<g>
	<g>
		<g>
			<g>
				<g>
					<ellipse style="fill:#B5B5B6;" cx="52.324" cy="132.478" rx="39.457" ry="4.386"/>
				</g>
			</g>
		</g>
	</g>
	<g>
		
			<line style="fill:none;stroke:#727171;stroke-width:4;stroke-miterlimit:10;" x1="52.322" y1="103.142" x2="52.322" y2="131.384"/>
		<path style="fill:#FFFFFF;stroke:#727171;stroke-width:3;stroke-miterlimit:10;" d="M103.144,52.322
			c0,28.066-22.758,50.819-50.821,50.819C24.254,103.142,1.5,80.388,1.5,52.322C1.5,24.259,24.254,1.5,52.322,1.5
			C80.386,1.5,103.144,24.259,103.144,52.322z"/>
		<g>
			<g style="enable-background:new    ;">
				<defs>
					<polygon id="SVGID_7_" style="enable-background:new    ;" points="35.314,91.059 35.314,33.802 69.327,13.583 69.327,70.842 
											"/>
				</defs>
				<clipPath id="SVGID_2_">
					<use xlink:href="#SVGID_7_"  style="overflow:visible;"/>
				</clipPath>
				<g style="clip-path:url(#SVGID_2_);">
					<polyline style="fill:#2C50A2;" points="69.327,13.583 35.317,33.802 35.317,74.23 57.989,60.76 57.989,50.637 46.655,57.369 
						46.655,57.363 46.655,54.015 46.655,40.542 69.327,27.062 69.327,13.583 					"/>
					<polyline style="fill:#E9C41D;" points="69.327,30.404 46.655,43.887 46.655,54.015 46.655,57.363 46.655,54.015 
						57.989,47.281 57.989,50.637 57.989,64.098 35.314,77.578 35.314,91.059 69.327,70.842 69.327,30.404 					"/>
					<polyline style="fill:#F08719;" points="57.989,47.281 46.655,54.015 46.655,57.363 46.655,57.369 57.989,50.637 
						57.989,47.281 					"/>
				</g>
			</g>
		</g>
	</g>
	<path style="fill:#727171;" d="M77.658,128.435c0-1.512-11.342-2.736-25.334-2.736c-13.991,0-25.334,1.224-25.334,2.736v2.466
		c0,0.003-0.002,0.005-0.002,0.008c0,1.509,11.343,2.734,25.334,2.734c13.992,0,25.334-1.225,25.334-2.734v-2.466
		C77.656,128.44,77.658,128.438,77.658,128.435z"/>
</g>
</svg>
