<?xml version="1.0" encoding="iso-8859-1"?>
<!-- Generator: Adobe Illustrator 16.0.0, SVG Export Plug-In . SVG Version: 6.00 Build 0)  -->
<!DOCTYPE svg PUBLIC "-//W3C//DTD SVG 1.1//EN" "http://www.w3.org/Graphics/SVG/1.1/DTD/svg11.dtd">
<svg version="1.1" id="&#x5716;&#x5C64;_1" xmlns="http://www.w3.org/2000/svg" xmlns:xlink="http://www.w3.org/1999/xlink" x="0px"
	 y="0px" width="247.24px" height="151.773px" viewBox="0 0 247.24 151.773" style="enable-background:new 0 0 247.24 151.773;"
	 xml:space="preserve">
<g>
	<g>
		<circle style="opacity:0.6;fill:#E8C41D;stroke:#F8B62D;stroke-miterlimit:10;" cx="123.62" cy="48.532" r="48.033"/>
		<g>
			<g>
				
					<ellipse style="fill:#C9BC9C;stroke:#B28247;stroke-width:0.5;stroke-miterlimit:10;" cx="123.62" cy="146.82" rx="123.37" ry="4.703"/>
				<g>
					<g>
						<rect x="118.488" y="65.148" style="fill:#727171;" width="11.494" height="1.744"/>
						
							<line style="fill:none;stroke:#727171;stroke-width:2;stroke-miterlimit:10;" x1="124.236" y1="54.717" x2="124.236" y2="66.238"/>
						<circle style="fill:#FFFFFF;stroke:#727171;stroke-miterlimit:10;" cx="124.235" cy="43.533" r="13.475"/>
						<g>
							<g style="enable-background:new    ;">
								<defs>
									<polygon id="SVGID_3_" style="enable-background:new    ;" points="119.726,53.805 119.726,38.623 128.744,33.264 
										128.744,48.443 									"/>
								</defs>
								<clipPath id="SVGID_2_">
									<use xlink:href="#SVGID_3_"  style="overflow:visible;"/>
								</clipPath>
								<g style="clip-path:url(#SVGID_2_);">
									<polyline style="fill:#2C50A2;" points="128.744,33.264 119.728,38.623 119.728,49.342 125.738,45.77 125.738,43.086 
										122.732,44.872 122.732,44.87 122.732,43.982 122.732,40.41 128.744,36.836 128.744,33.264 									"/>
									<polyline style="fill:#E9C41D;" points="128.744,37.723 122.732,41.297 122.732,43.982 122.732,44.87 122.732,43.982 
										125.738,42.197 125.738,43.086 125.738,46.656 119.726,50.23 119.726,53.805 128.744,48.443 128.744,37.723 									"/>
									<polyline style="fill:#F08719;" points="125.738,42.197 122.732,43.982 122.732,44.87 122.732,44.872 125.738,43.086 
										125.738,42.197 									"/>
								</g>
							</g>
						</g>
					</g>
					<g>
						
							<rect x="95.05" y="125.652" style="fill:#B5B5B6;stroke:#FFFFFF;stroke-width:0.5;stroke-miterlimit:10;" width="19.308" height="19.309"/>
						
							<rect x="95.05" y="106.066" style="fill:#2C50A2;stroke:#FFFFFF;stroke-width:0.5;stroke-miterlimit:10;" width="19.308" height="19.309"/>
						
							<rect x="95.05" y="86.479" style="fill:#B5B5B6;stroke:#FFFFFF;stroke-width:0.5;stroke-miterlimit:10;" width="19.308" height="19.309"/>
						
							<rect x="95.05" y="66.893" style="fill:#B5B5B6;stroke:#FFFFFF;stroke-width:0.5;stroke-miterlimit:10;" width="19.308" height="19.309"/>
						
							<rect x="114.582" y="125.652" style="fill:#B5B5B6;stroke:#FFFFFF;stroke-width:0.5;stroke-miterlimit:10;" width="19.309" height="19.309"/>
						
							<rect x="114.582" y="106.066" style="fill:#B5B5B6;stroke:#FFFFFF;stroke-width:0.5;stroke-miterlimit:10;" width="19.309" height="19.309"/>
						
							<rect x="114.582" y="86.479" style="fill:#727171;stroke:#FFFFFF;stroke-width:0.5;stroke-miterlimit:10;" width="19.309" height="19.309"/>
						
							<rect x="114.582" y="66.893" style="fill:#2C50A2;stroke:#FFFFFF;stroke-width:0.5;stroke-miterlimit:10;" width="19.309" height="19.309"/>
						
							<rect x="134.145" y="125.652" style="fill:#E8C41D;stroke:#FFFFFF;stroke-width:0.5;stroke-miterlimit:10;" width="19.308" height="19.309"/>
						
							<rect x="134.145" y="106.066" style="fill:#9FA0A0;stroke:#FFFFFF;stroke-width:0.5;stroke-miterlimit:10;" width="19.308" height="19.309"/>
						
							<rect x="134.145" y="86.479" style="fill:#E8C41D;stroke:#FFFFFF;stroke-width:0.5;stroke-miterlimit:10;" width="19.308" height="19.309"/>
						
							<rect x="134.145" y="66.893" style="fill:#B5B5B6;stroke:#FFFFFF;stroke-width:0.5;stroke-miterlimit:10;" width="19.308" height="19.309"/>
						<path style="fill:#FFFFFF;" d="M98.176,79.219c0,0.195-0.158,0.354-0.352,0.354l0,0c-0.195,0-0.353-0.158-0.353-0.354v-5.343
							c0-0.194,0.157-0.353,0.353-0.353l0,0c0.193,0,0.352,0.158,0.352,0.353V79.219z"/>
						<path style="fill:#FFFFFF;" d="M98.176,98.805c0,0.195-0.158,0.354-0.352,0.354l0,0c-0.195,0-0.353-0.158-0.353-0.354v-5.343
							c0-0.194,0.157-0.353,0.353-0.353l0,0c0.193,0,0.352,0.158,0.352,0.353V98.805z"/>
						<path style="fill:#FFFFFF;" d="M117.484,99.084c0,0.193-0.158,0.352-0.353,0.352l0,0c-0.194,0-0.353-0.158-0.353-0.352V93.74
							c0-0.195,0.158-0.354,0.353-0.354l0,0c0.194,0,0.353,0.158,0.353,0.354V99.084z"/>
						<path style="fill:#FFFFFF;" d="M98.176,118.393c0,0.193-0.158,0.352-0.352,0.352l0,0c-0.195,0-0.353-0.158-0.353-0.352v-5.344
							c0-0.195,0.157-0.353,0.353-0.353l0,0c0.193,0,0.352,0.157,0.352,0.353V118.393z"/>
						<path style="fill:#FFFFFF;" d="M98.176,137.977c0,0.197-0.158,0.355-0.352,0.355l0,0c-0.195,0-0.353-0.158-0.353-0.355v-5.342
							c0-0.193,0.157-0.354,0.353-0.354l0,0c0.193,0,0.352,0.16,0.352,0.354V137.977z"/>
						<path style="fill:#FFFFFF;" d="M117.484,79.357c0,0.195-0.158,0.354-0.353,0.354l0,0c-0.194,0-0.353-0.158-0.353-0.354v-5.343
							c0-0.194,0.158-0.353,0.353-0.353l0,0c0.194,0,0.353,0.158,0.353,0.353V79.357z"/>
						<path style="fill:#FFFFFF;" d="M117.484,118.531c0,0.195-0.158,0.352-0.353,0.352l0,0c-0.194,0-0.353-0.156-0.353-0.352
							v-5.344c0-0.195,0.158-0.352,0.353-0.352l0,0c0.194,0,0.353,0.156,0.353,0.352V118.531z"/>
						
							<rect x="134.145" y="106.066" style="fill:#B5B5B6;stroke:#FFFFFF;stroke-width:0.5;stroke-miterlimit:10;" width="19.309" height="19.309"/>
						<path style="fill:#FFFFFF;" d="M137.047,118.531c0,0.195-0.158,0.352-0.353,0.352l0,0c-0.194,0-0.353-0.156-0.353-0.352
							v-5.344c0-0.195,0.158-0.352,0.353-0.352l0,0c0.194,0,0.353,0.156,0.353,0.352V118.531z"/>
						<path style="fill:#FFFFFF;" d="M117.484,138.117c0,0.193-0.158,0.352-0.353,0.352l0,0c-0.194,0-0.353-0.158-0.353-0.352
							v-5.344c0-0.193,0.158-0.352,0.353-0.352l0,0c0.194,0,0.353,0.158,0.353,0.352V138.117z"/>
						<path style="fill:#FFFFFF;" d="M136.793,79.496c0,0.195-0.158,0.354-0.354,0.354l0,0c-0.193,0-0.353-0.158-0.353-0.354v-5.342
							c0-0.195,0.159-0.353,0.353-0.353l0,0c0.195,0,0.354,0.157,0.354,0.353V79.496z"/>
						<path style="fill:#FFFFFF;" d="M136.793,99.084c0,0.193-0.158,0.352-0.354,0.352l0,0c-0.193,0-0.353-0.158-0.353-0.352V93.74
							c0-0.195,0.159-0.354,0.353-0.354l0,0c0.195,0,0.354,0.158,0.354,0.354V99.084z"/>
						<path style="fill:#FFFFFF;" d="M136.793,138.256c0,0.195-0.158,0.352-0.354,0.352l0,0c-0.193,0-0.353-0.156-0.353-0.352
							v-5.344c0-0.195,0.159-0.352,0.353-0.352l0,0c0.195,0,0.354,0.156,0.354,0.352V138.256z"/>
					</g>
				</g>
			</g>
		</g>
	</g>
	<g>
		<g>
			<g>
				<path style="fill:#1D2E5E;" d="M227.089,95.962c0,0,1.277-0.173,1.466,0.741c0.187,0.913-1.206,1.597-1.711,1.622
					c0,0,0.459,0.45-0.204,1.028c-0.664,0.58-1.946,0.586-1.946,0.586s-0.982-2.169-0.207-2.476
					c0.774-0.305,0.924-0.084,0.924-0.084s-0.847-0.97,0.005-1.445C226.267,95.462,227.089,95.962,227.089,95.962z"/>
				<g>
					<path style="fill:#EA5D58;" d="M205.858,115.213c0.055,0,0.66-0.321,0.715-0.165s-0.679,0.537-0.679,0.537L205.858,115.213z"/>
					<path style="fill:#31243C;" d="M205.921,114.799c0.254-0.575,0.063-1.241-0.462-1.609l-2.062-1.446
						c-1.049-0.749-2.408-0.667-3.35,0.202l-6.604,5.811l1.019,1.32l6.486-5.822c0.375-0.338,1.176-0.63,1.621-0.381l3.245,2.167
						L205.921,114.799z"/>
					<path style="fill:#EA5D58;" d="M212.626,96.337c0,0,0.265,3.995,0.347,8.45c0.083,4.456-1.792,7.543-2.75,8.169
						c-0.959,0.627-4.98-0.12-4.98-0.12s-0.192,0.21-0.563,0.584c-0.371,0.375-0.813-0.244-0.886-0.486s-0.444-1.014-0.233-1.076
						c0.21-0.064,1.054-0.939,2.267-0.213c1.212,0.727,3.444-0.705,3.853-2.014C210.088,108.322,211.084,96.524,212.626,96.337z"/>
					<path style="fill:#14474B;" d="M214.76,119.281l2.395,25.799l-1.778-0.291l-3.054-13.93c0,0-2.014-12.924-2.014-17.591
						L214.76,119.281z"/>
					<path style="fill:#422C46;" d="M222.806,146.621h-3.112l2.168-1.309l-0.236-1.041c0.495,0,0.615,0.33,1.115,0.33
						C222.882,145.363,222.806,146.621,222.806,146.621z"/>
					<path style="fill:#422C46;" d="M216.66,146.439h-3.112l2.167-1.309l-0.235-1.039c0.495,0,0.615,0.328,1.115,0.328
						C216.736,145.184,216.66,146.439,216.66,146.439z"/>
					<path style="fill:#436B6E;" d="M210.432,109.483c3.688,0.079,8.175,3.911,8.175,3.911l0.582,16.611
						c0,0,3.542,11.592,4.253,15.441c0,0-2.023-0.121-1.907-0.121l-5.955-13.752l-2.688-12.562l-2.201-4.883L210.432,109.483z"/>
					<polygon style="fill:#68888B;" points="212.892,119.013 216.111,131.396 221.534,145.326 215.579,131.574 					"/>
					<path style="fill:#B28247;" d="M210.276,110.596c-0.013-0.05,0.654-9.681,0.809-11.284c0.155-1.617,1.326-4.427,2.794-4.899
						c0.973-0.313,4.022-0.063,4.765,1.362c2.09,4.024,0.153,18.091,0.153,18.091c-2.576,0.634-6.352,1.58-8.767,0
						C210.041,113.759,210.276,110.64,210.276,110.596z"/>
					<path style="fill:#EA5D58;" d="M225.639,98.74c0,0-4.448,8.146-6.842,8.146c-2.392,0-6.515-1.849-6.515-1.849l-0.282,1.19
						c0,0,5.119,4.016,7.869,2.986c2.922-1.09,6.744-3.424,6.744-3.424L225.639,98.74z"/>
					<g>
						<g>
							<path style="fill:#5B4270;" d="M197.145,142.328c0.106,0,0.213-0.029,0.31-0.088c0.279-0.17,0.366-0.537,0.195-0.816
								l-8.746-14.23c-0.172-0.278-0.537-0.366-0.816-0.194c-0.278,0.172-0.365,0.536-0.195,0.815l8.747,14.23
								C196.751,142.229,196.945,142.328,197.145,142.328z"/>
						</g>
						<circle style="fill:#31243C;" cx="197.144" cy="141.783" r="4.299"/>
						<path style="fill:#BCBED8;" d="M197.144,144.49c1.492,0,2.707-1.215,2.707-2.707c0-1.49-1.215-2.707-2.707-2.707
							s-2.707,1.217-2.707,2.707C194.437,143.275,195.651,144.49,197.144,144.49z"/>
						<circle style="fill:#6E75B7;" cx="197.308" cy="141.783" r="1.52"/>
						<g>
							<path style="fill:#138C43;" d="M176.16,121.572c0-0.637,0.518-1.154,1.154-1.154c0.636,0,1.153,0.518,1.153,1.154
								c0,0.636-0.518,1.153-1.153,1.153C176.678,122.726,176.16,122.208,176.16,121.572z M176.495,121.572
								c0,0.45,0.367,0.818,0.819,0.818s0.818-0.368,0.818-0.818c0-0.451-0.366-0.82-0.818-0.82S176.495,121.121,176.495,121.572z"
								/>
						</g>
						<rect x="177.053" y="119.312" style="fill:#046536;" width="0.607" height="1.666"/>
						<path style="fill:#EC7171;" d="M184.096,128.111c0,0-2.046-1.282-2.946-1.196c-0.903,0.088-3.521,2.046-4.301,2.046
							c-0.781,0-1.145,0.172-1.318,0c-0.174-0.174-0.503-0.865-0.884-0.676c-0.382,0.191,0.068,1.525,0.519,1.803
							c0.452,0.277,1.457,0.502,1.786,0.832c0.33,0.33,0.625-0.676,1.215-1.109s1.669-0.299,1.911-0.057
							c0.243,0.244,1.242,0.434,1.296,0.486C181.427,130.295,184.096,128.111,184.096,128.111z"/>
						<path style="fill:#F09191;" d="M182.103,127.873c0,0,0.143,0.943-0.104,1.359c-0.247,0.416-0.646,0.428-0.743,0.76
							c-0.097,0.334-0.441,0.902-0.94,0.758c-0.5-0.145-0.594-0.695-0.353-1.527c0.241-0.834,0.37-1.158,0.72-1.183
							c0.351-0.024,0.342-0.244,0.608-0.167s0.272-0.065,0.472-0.007C181.763,127.866,181.795,127.694,182.103,127.873z"/>
						<path style="fill:#50526B;" d="M190.789,134.857c0,0-2.809,1.402-6.173,1.656c-3.364,0.252-5.336-1.656-5.336-1.656v-1.041
							c0,0,5.562,0.139,6.506-0.52C186.732,132.637,190.789,134.857,190.789,134.857z"/>
						<path style="fill:#8B8DAE;" d="M190.165,138.594l0.624-3.736l-6.797,0.139l-4.712-0.139c0,0-0.194,2.826,0.445,3.467
							C180.368,138.967,188.17,140.846,190.165,138.594z"/>
						<path style="fill:#53556A;" d="M179.28,134.857c0.049,0.766,0.126,1.906,0.33,2.652c0.164,0.615,0.296,0.672,0.666,0.799
							c2.076,0.781,8.047,1.846,9.889,0.285c-1.797,2.484-9.287,0.959-10.559-0.031C178.907,138.047,179.124,135.719,179.28,134.857
							z"/>
						<g>
							<path style="fill:#5B4270;" d="M178.786,137.34l2.317-5.717c0.129-0.318-0.025-0.684-0.345-0.813
								c-0.321-0.131-0.684,0.607-0.813,0.928l-1.982,4.311l-2.704-0.137l-0.046-0.143c-0.108-0.326-0.46-0.504-0.79-0.396
								c-0.327,0.109-0.503,0.463-0.395,0.791l0.316,0.951L178.786,137.34z"/>
						</g>
						<path style="fill:#17A196;" d="M200.465,114.188c0,0-7.698-2.226-9.018-4.789c0,0-3.676,1.875-8.461,1.252
							c0,0-4.092,1.249-6.659,8.532l12.069,5.306L200.465,114.188z"/>
						<path style="fill:#17A196;" d="M197.759,116.943c0,0-0.9,13.959-3.259,16.318c-2.357,2.357-4.162,2.15-7.005,1.455
							c-2.844-0.691-6.59-3.467-6.59-3.467L197.759,116.943z"/>
						<path style="fill:#10877A;" d="M186.438,133.078c2.845,0.691,4.646,0.9,7.006-1.457c2.358-2.359,4.315-14.678,4.315-14.678
							s-0.9,13.959-3.259,16.318c-2.357,2.357-4.162,2.15-7.005,1.455c-2.844-0.691-6.59-3.467-6.59-3.467l0.073-0.063
							C182.046,131.641,184.345,132.566,186.438,133.078z"/>
						<path style="fill:#37193E;" d="M173.207,137.215l21.046-18.585l0.731,1.043c-8.649,7.456-21.709,18.651-21.709,18.651h-4.508
							v-0.832L173.207,137.215z"/>
						<path style="fill:#F5CC25;" d="M189.332,124.097c0,0-2.088-2.67-2.895-1.863s1.692,2.885,1.692,2.885L189.332,124.097z"/>
						<circle style="fill:#F5CC25;" cx="186.593" cy="128.477" r="1.766"/>
						<circle style="fill:#6E75B7;" cx="186.593" cy="128.477" r="0.807"/>
						<g>
							<path style="fill:#5B4270;" d="M195.802,144.082c0.111,0,0.224-0.029,0.326-0.094c0.293-0.18,0.386-0.564,0.204-0.857
								l-9.207-14.982c-0.18-0.293-0.565-0.385-0.859-0.204s-0.385,0.563-0.206,0.858l9.209,14.982
								C195.387,143.977,195.592,144.082,195.802,144.082z"/>
						</g>
						<circle style="fill:#31243C;" cx="195.801" cy="143.508" r="4.525"/>
						<path style="fill:#BCBED8;" d="M195.801,146.359c1.571,0,2.849-1.277,2.849-2.852c0-1.568-1.277-2.848-2.849-2.848
							c-1.572,0-2.85,1.279-2.85,2.848C192.951,145.082,194.229,146.359,195.801,146.359z"/>
						<circle style="fill:#31243C;" cx="175.992" cy="144.746" r="3.288"/>
						<circle style="fill:#BCBED8;" cx="175.993" cy="144.747" r="1.612"/>
						<path style="fill:#F5CC25;" d="M171.144,140.674h1.561v-3.381c0-0.432-0.35-0.779-0.781-0.779l0,0
							c-0.43,0-0.779,0.348-0.779,0.779V140.674z"/>
						<g>
							<path style="fill:#5B4270;" d="M175.878,145.486c0.134,0,0.269-0.043,0.384-0.133c0.271-0.213,0.319-0.605,0.106-0.877
								l-3.953-5.045c-0.213-0.271-0.605-0.32-0.876-0.107c-0.272,0.213-0.319,0.605-0.107,0.877l3.953,5.045
								C175.51,145.404,175.692,145.486,175.878,145.486z"/>
						</g>
						<circle style="fill:#6E75B7;" cx="175.993" cy="144.867" r="0.619"/>
						<circle style="fill:#6E75B7;" cx="171.923" cy="139.795" r="0.454"/>
						<path style="fill:#6E75B7;" d="M194.373,143.508c0,0.885,0.717,1.602,1.6,1.602c0.885,0,1.601-0.717,1.601-1.602
							c0-0.881-0.716-1.598-1.601-1.598C195.09,141.91,194.373,142.627,194.373,143.508z"/>
						<path style="fill:#6E75B7;" d="M188.188,124.665L188.188,124.665c0.375,0,0.683-0.308,0.683-0.683l0,0
							c0-0.373-0.308-0.68-0.683-0.68l0,0c-0.374,0-0.68,0.307-0.68,0.68l0,0C187.508,124.357,187.813,124.665,188.188,124.665z"/>
						<path style="fill:#10877A;" d="M182.986,110.65c2.009,2.355,5.192,10.989,5.178,10.953c0.232,0.623,1.177,0.273,0.944-0.352
							C188.992,120.941,185.21,112.858,182.986,110.65z"/>
						<path style="fill:#10877A;" d="M191.447,109.398c-1.125,1.592-1.808,9.758-1.939,11.639c-0.048,0.688,1.015,0.729,1.006,0.027
							C190.491,119.156,190.474,111.061,191.447,109.398z"/>
						<g>
							<path style="fill:#10877A;" d="M179.253,114.643c0.929-0.928,0,0.186,0,0.186l-1.681,3.813l7.094,3.29l-7.562-3.08
								C177.104,118.852,178.324,115.571,179.253,114.643z"/>
							<polygon style="fill:#10877A;" points="185.318,122.233 184.666,121.932 185.035,122.082 							"/>
						</g>
						<polygon style="fill:#ED9027;" points="176.895,126.184 177.567,125.447 178.354,126.059 178.198,125.074 179.168,124.84 
							178.3,124.348 178.721,123.443 177.796,123.815 177.353,122.922 177.066,123.88 176.091,123.669 176.659,124.488 
							175.887,125.119 176.883,125.186 						"/>
						<circle style="fill:#5B4270;" cx="177.356" cy="122.832" r="0.128"/>
					</g>
					<g>
						<path style="fill:#EC7171;" d="M213.185,89.548l0.191,5.604c0.086,1.659,1.899,0.463,2.572-0.122
							c0.585-0.511-0.678-5.623-0.678-5.623S214.045,89.321,213.185,89.548z"/>
						<path style="fill:#EA5D58;" d="M215.271,89.407c0,0,0.047,0.182,0.121,0.481c-0.02,0.433-0.072,1.104-0.21,1.605
							c-0.183,0.669-1.011,1.806-1.866,1.917l-0.131-3.863C214.045,89.321,215.271,89.407,215.271,89.407z"/>
						<g>
							<path style="fill:#172953;" d="M214.961,83.839c0.445,0.566,0.821,1.367,0.257,1.811c0.646-0.386,0.35-1.326-0.041-1.967
								L214.961,83.839z"/>
							<path style="fill:#EC7171;" d="M212.302,86.298c0,0-0.953,0.168-0.995,1.389c-0.041,1.221,0.72,4.556,1.695,4.816
								c0.976,0.26,2.046-0.961,2.247-1.641c0.209-0.707,0.197-1.8,0.197-1.8S215.262,84.673,212.302,86.298z"/>
							<path style="fill:#172953;" d="M216.489,90.69c0,0-0.211,0.279-0.483-0.057c0,0-0.632-0.777-0.16-1.417
								c0.472-0.642,1.189-1.523,0.997-2.637c-0.194-1.114-1.541-1.034-1.541-1.034s-0.309-1.705-2.163-1.033
								c0,0-0.375-0.352-1.474-0.245c-1.098,0.105-0.804,0.694-1.443,0.626c-0.639-0.068-0.754-0.559-0.498-0.766
								c0,0-1.063,0.557-1.156,1.437c-0.093,0.882,1.583,0.839,1.583,0.839s-1.341,0.25-0.281,0.766
								c1.059,0.521,1.56,0.483,2.16-0.165c0.601-0.649,0.931-0.815,1.275-0.688c0.342,0.125,0.263,0.875,0.77,0.929
								c0.506,0.054,0.902,1.368,0.902,1.368s0.382-0.151,0.412,0.783c0.029,0.935-0.065,1.516,0.506,1.576
								C216.468,91.032,216.489,90.69,216.489,90.69z"/>
							<path style="fill:#EC7171;" d="M215.189,87.52c0.295-0.052,1.019,0.13,0.474,1.097c-0.545,0.969-1.112,0.016-1.068-0.4
								C214.64,87.801,214.963,87.559,215.189,87.52z"/>
							<path style="fill:#172953;" d="M212.435,89.009c0.099,0.559,0.123,1.105,0.27,1.623c0.129-0.006,0.258-0.006,0.391,0.002
								c-0.217,0.085-0.396,0.129-0.479,0.152C212.609,90.759,212.348,90.054,212.435,89.009z"/>
							<g>
								<path style="fill:#172953;" d="M212.654,88.834c0.033,0.003,0.065-0.021,0.071-0.055c0.002-0.009,0.054-0.24,0.336-0.373
									c0.244-0.114,0.864,0.009,1.084,0.067c0.037,0.009,0.071-0.013,0.081-0.049c0.009-0.035-0.012-0.071-0.048-0.081
									c-0.034-0.01-0.838-0.216-1.174-0.059c-0.346,0.163-0.407,0.456-0.41,0.47c-0.007,0.034,0.017,0.07,0.053,0.078
									C212.65,88.833,212.651,88.833,212.654,88.834z"/>
							</g>
							<path style="fill:#FFFFFF;" d="M213.802,90.869c0,0-0.947,0.366-1.505,0.266c0,0,0.122,0.431,0.453,0.533
								C213.082,91.771,213.729,91.538,213.802,90.869z"/>
							<path style="fill:#EA5D58;" d="M215.604,88.087c0,0-0.02,0.667-0.344,0.677c-0.324,0.011-0.428-0.479-0.222-0.737
								C215.244,87.771,215.626,87.896,215.604,88.087z"/>
							
								<ellipse transform="matrix(-0.9849 0.1733 -0.1733 -0.9849 438.362 139.8238)" style="fill:#172953;" cx="213.076" cy="89.053" rx="0.186" ry="0.236"/>
							
								<ellipse transform="matrix(-0.9853 0.1708 -0.1708 -0.9853 435.6445 140.9581)" style="fill:#172953;" cx="211.759" cy="89.217" rx="0.186" ry="0.236"/>
							<g>
								<path style="fill:#172953;" d="M212.04,88.841c0.025,0.025,0.025,0.068,0,0.095c-0.016,0.014-0.036,0.021-0.054,0.019
									c-0.016-0.002-0.03-0.008-0.04-0.02c-0.074-0.072-0.299-0.268-0.455-0.284c-0.038-0.004-0.078-0.005-0.115-0.005
									c-0.007-0.045-0.013-0.09-0.018-0.133c0.047-0.002,0.098,0.001,0.146,0.006C211.741,88.544,212.027,88.828,212.04,88.841z"
									/>
							</g>
						</g>
					</g>
					<path style="fill:#5B4270;" d="M206.075,115.589c0.254-0.597,0.063-1.29-0.462-1.673l-2.062-1.502
						c-1.05-0.781-2.408-0.693-3.352,0.21l-6.604,6.039l1.02,1.373l6.487-6.054c0.376-0.351,1.175-0.653,1.62-0.396l3.023,2.099
						C205.86,115.765,206.021,115.717,206.075,115.589L206.075,115.589z"/>
					<path style="fill:#95B3DE;" d="M195.341,114.718c0.004,0.036,0.006,0.075,0.006,0.113v5.569h-2.71v-5.683H195.341z"/>
					<rect x="192.544" y="114.718" style="fill:#FCF4CD;" width="2.929" height="0.565"/>
					<path style="fill:#EA7218;" d="M193.629,113.452v-0.315c0-0.141,0.096-0.271,0.235-0.295c0.177-0.027,0.329,0.107,0.329,0.279
						v0.325c0,0.099,0.072,0.181,0.169,0.198c0.523,0.098,0.928,0.534,0.979,1.073h-2.704v-0.035c0-0.504,0.354-0.928,0.829-1.034
						C193.56,113.629,193.629,113.549,193.629,113.452z"/>
					<path style="fill:#F5CC25;" d="M192.343,115.461v5.238h3.297v-5.238H192.343z M194.562,116.511
						c0-0.224,0.181-0.403,0.404-0.403c0.223,0,0.405,0.18,0.405,0.403v3.358c0,0.225-0.183,0.406-0.405,0.406
						c-0.224,0-0.404-0.182-0.404-0.406V116.511z M193.587,116.511c0-0.224,0.182-0.403,0.405-0.403c0.223,0,0.404,0.18,0.404,0.403
						v3.358c0,0.225-0.182,0.406-0.404,0.406c-0.224,0-0.405-0.182-0.405-0.406V116.511z M192.612,116.511
						c0-0.224,0.182-0.403,0.405-0.403s0.404,0.18,0.404,0.403v3.358c0,0.225-0.181,0.406-0.404,0.406s-0.405-0.182-0.405-0.406
						V116.511z"/>
					<path style="fill:#EC7171;" d="M204.29,113.507c0.103-0.101,1.641-0.188,1.641-0.188l0,0c0.974-0.15,4.301-3.186,5.264-4.434
						c0.717-0.926,1.371-5.315,2.479-8.117c1.107-2.803,2.577-3.854,2.941-3.978c1.107-0.379,2.282-0.094,2.662,1.781
						c0.381,1.874-4.47,11.122-5.552,12.44c-0.828,1.012-5.424,3.936-7.584,3.986l-0.527,0.206c-0.153,0.061-0.178,0.267-0.043,0.36
						l0,0c0,0-0.823,0.089-0.823-0.104s-0.105-0.069-0.211-0.174c-0.104-0.105-0.184-0.33-0.184-0.33s0.037-0.185-0.266-0.358
						C203.785,114.424,204.166,113.631,204.29,113.507z"/>
					<path style="fill:#C9A063;" d="M217.595,95.29c0,0-1.158-0.257-2.227,0.98c-1.068,1.236-2.905,6.943-2.905,6.943l4.505,2.9
						c0,0,2.465-5.483,2.465-7.643C219.433,96.31,218.158,95.29,217.595,95.29z"/>
					<path style="fill:#FCF4CD;" d="M219.433,98.472c-0.117-1.342-0.543-2.175-1.104-2.662c-0.451-0.387-0.704-0.344-0.738-0.354
						c-2.243,0.062-2.515,1.188-5.127,7.759c0.446-1.673,1.787-6.063,2.924-7.227c0.591-0.624,1.404-0.996,2.234-0.859l-0.026-0.004
						C218.455,95.205,219.5,96.476,219.433,98.472z"/>
					<path style="fill:#EA5D58;" d="M212.913,104.289c0,0,1.476,0.371,1.298,0.621c-0.179,0.25-1.176-0.008-1.176-0.008
						s1.232,0.532,1.067,0.763c-0.164,0.23-1.354-0.253-1.354-0.253s0.918,0.573,0.932,0.843c0.013,0.271-1.32-0.329-1.32-0.329
						s0.766,0.477,0.677,0.601c-0.089,0.126-0.97-0.031-1.359-0.169c-0.39-0.135-0.187-0.629,0.114-1.051
						c0.302-0.422,0.14-0.326,0.396-0.686C212.445,104.263,212.913,104.289,212.913,104.289z"/>
				</g>
				<g>
					<path style="fill:#1C2D6F;" d="M174.38,114.348c0.031,0,0.061-0.021,0.071-0.053c2.065-6.887,10.794-8.773,10.882-8.793
						c0.04-0.008,0.064-0.047,0.056-0.086c-0.007-0.039-0.046-0.066-0.086-0.057c-0.089,0.018-8.901,1.922-10.993,8.893
						c-0.012,0.039,0.011,0.079,0.049,0.092C174.366,114.346,174.373,114.348,174.38,114.348z"/>
				</g>
				<g>
					<path style="fill:#EC7171;" d="M226.019,139.543c0,0-1.948,4.158-2.116,5.291c-0.17,1.133-0.146,1.697-0.146,1.697
						l-4.734-0.824c0,0,2.247,0.16,2.92-0.771c0.673-0.936,1.903-6.297,1.903-6.297L226.019,139.543z"/>
					<path style="fill:#4E183E;" d="M221.243,145.359c-0.032,0.107,0.069,0.396,0.249,0.496c0.284,0.156,1.666-0.256,2.382-0.352
						l-0.077,1.271c-0.579,0.238-1.569-0.227-2.728-0.143c-1.16,0.08-2.526-0.961-2.526-0.961s1.019,0.023,2.034-0.111
						C220.814,145.529,221.037,145.459,221.243,145.359z"/>
				</g>
				<g>
					<path style="fill:#EC7171;" d="M232.503,139.324c0,0-0.82,4.52-0.693,5.658s0.296,1.676,0.296,1.676l-4.788,0.414
						c0,0,2.213-0.418,2.624-1.492c0.412-1.074,0.23-6.572,0.23-6.572L232.503,139.324z"/>
					<path style="fill:#4E183E;" d="M229.374,146.168c-0.004,0.113,0.168,0.367,0.368,0.416c0.314,0.078,1.545-0.672,2.213-0.949
						l0.25,1.25c-0.498,0.381-1.573,0.186-2.674,0.559c-1.1,0.375-2.688-0.281-2.688-0.281s0.991-0.24,1.938-0.629
						C229.002,146.443,229.201,146.318,229.374,146.168z"/>
				</g>
				<g>
					<path style="fill:#455D46;" d="M224.723,128.166c0.066-0.253,0.036-14.211,0.721-19.277l5.531,0.113l1.327,6.445l-4.132,14.611
						c0.164,1.252,0.1,2.262-0.347,3.977c-0.368,1.414-1.879,6.141-2.782,8.303c-0.485-0.234-2.101-0.695-2.629-0.857
						C224.47,130.141,224.032,130.814,224.723,128.166z"/>
					<path style="fill:#748573;" d="M229.224,129.648l-3.205-16.058l0.387-5.498h3.135c0,0,3.142,3.028,3.848,6.864
						c0.707,3.835-0.604,14.76-0.604,14.76s0.138,1.373,0.451,2.551c0.328,1.23-0.252,8.943-0.627,10.979
						c-0.569-0.102-2.399-0.184-2.938-0.178c0.206-4.092,0.381-10.525,0.071-11.193
						C229.539,131.436,229.358,130.512,229.224,129.648z"/>
				</g>
				<path style="fill:#C99867;" d="M225.639,98.74c0,0,0.871-0.463,1.755-0.489c0.958-0.026,2.964,0.628,3.033,0.696
					c0.137,0.136,0.12,3.943,0.12,3.943s1.412,7,1.778,8.646c0,0-5.734,3.802-8.964,2.396c0,0,0.723-8.255,0.426-9.408
					s0-2.56,0.71-3.833C225.204,99.42,225.639,98.74,225.639,98.74z"/>
				<path style="fill:#1D2D5E;" d="M224.661,100.05c0,0,0.23,0.882,0.115,1.185c-0.116,0.301-1.514,0.151-1.409,0.907
					c0.103,0.755,0.546,0.394,0.546,0.394s-0.097,0.578-0.478,0.421c-0.38-0.157-0.376-0.556-0.376-0.556s-0.263,0.294-0.124,0.57
					c0,0-0.428-0.186-0.449-0.754c-0.022-0.568,0.19-0.992,0.583-1.004c0.392-0.012,0.532-0.823,0.532-0.823L224.661,100.05z"/>
				<path style="fill:#19264A;" d="M224.353,99.951c-0.814-0.109-2.023,0.442-1.681,1.194l-0.312,0.134
					c-0.349-1.066,1.021-1.636,2.001-1.389L224.353,99.951z"/>
				<g>
					<path style="fill:#EE8181;" d="M226.252,99.561c0.408-1.746,0.104-4.624,0.104-4.624l2.075-0.758c0,0,0.584,5.175,0.502,5.175
						C228.233,100.502,226.153,100.414,226.252,99.561z"/>
					<path style="fill:#EA5D58;" d="M228.432,94.179l-2.076,0.758c0,0,0.064,0.609,0.094,1.439c0.442-0.194,0.886-0.393,1.222-0.766
						C227.997,95.247,228.432,94.179,228.432,94.179z"/>
					<path style="fill:#182347;" d="M223.886,90.864c0,0,1.576,1.917,2.223,2.155c0.646,0.236,2.094,0.605,2.094,0.605
						s0.415,2.26,0.471,2.751c0,0,2.694,0.222,1.621-4.068c-0.409-1.635-0.585-2.674-2.299-3.379
						C226.281,88.226,224.45,89.29,223.886,90.864z"/>
					<path style="fill:#EE8181;" d="M225.172,90.333c0,0-1.117,0.367-1.224,1.2c-0.106,0.835,0.101,1.251,0.049,1.653
						c-0.051,0.403-0.002,1.152,0.495,2.309c0.498,1.155,2.19,0.502,3.159-0.326c1.092-0.934,1.193-1.217,1.191-2.721
						C228.84,90.942,226.958,89.7,225.172,90.333z"/>
					<path style="fill:#09328E;" d="M225.123,94.247c0.019-0.127-0.162,0.024-0.468-0.387c0.12-0.182,0.187-0.406,0.198-0.606
						c-0.106,0.405-0.328,0.565-0.356,0.601c0.012,0.012,0.248,0.399,0.554,0.445h0.001
						C225.086,94.304,225.118,94.282,225.123,94.247z"/>
					<path style="fill:#09328E;" d="M225.835,93.307c-0.08,0.062-0.197,0.047-0.259-0.032c-0.063-0.077-0.048-0.19,0.032-0.251
						c0.081-0.062,0.197-0.046,0.26,0.031C225.93,93.134,225.916,93.246,225.835,93.307z"/>
					<path style="fill:#09328E;" d="M224.305,93.257c-0.079,0.061-0.195,0.047-0.259-0.031c-0.062-0.078-0.048-0.191,0.033-0.252
						c0.08-0.061,0.196-0.047,0.259,0.032C224.399,93.083,224.386,93.197,224.305,93.257z"/>
					<path style="fill:#1A264B;" d="M225.172,92.87c0.21-0.021,0.422,0,0.627,0.061c0.104,0.034,0.195,0.078,0.287,0.122
						c0.092,0.046,0.182,0.094,0.27,0.155c-0.109-0.001-0.212-0.025-0.312-0.056c-0.101-0.027-0.195-0.076-0.285-0.108
						C225.571,92.976,225.373,92.929,225.172,92.87z"/>
					<path style="fill:#1A264B;" d="M223.785,92.839c0.154-0.006,0.313,0.02,0.468,0.076c0.08,0.031,0.148,0.068,0.219,0.105
						c0.07,0.039,0.14,0.08,0.207,0.131c-0.081-0.005-0.157-0.027-0.233-0.057c-0.075-0.025-0.149-0.066-0.218-0.096
						C224.087,92.94,223.938,92.895,223.785,92.839z"/>
					<path style="fill:#1A264B;" d="M225.176,92.328l0.086,0.222c0,0,0.558-0.033,0.801,0.186
						C226.063,92.735,225.645,92.195,225.176,92.328z"/>
					<path style="fill:#1A264B;" d="M223.936,92.251l0.037,0.207c0,0,0.557-0.033,0.8,0.187
						C224.772,92.645,224.404,92.117,223.936,92.251z"/>
					<path style="fill:#FFFFFF;" d="M224.669,94.831c0,0,0.633-0.065,1.166-0.262c0,0-0.485,0.76-0.785,0.723
						C224.749,95.256,224.669,94.831,224.669,94.831z"/>
					<path style="fill:#133692;" d="M224.107,89.554c0,0-0.887,0.139-0.778,0.968s2.234,1.833,3.688,1.667
						c0.548-0.063,0.536,0.25,0.744,0.456c0.347,0.342,0.645,0.761,0.313,1.407c-0.527,1.037-0.986,0.486-0.986,0.486
						s0.41,0.632,1.69,0.302c1.282-0.331,1.497-2.153,0.581-3.227c-0.917-1.072-1.879-1.582-2.663-1.847
						C224.996,89.188,224.107,89.554,224.107,89.554z"/>
					<path style="fill:#EE8181;" d="M228.245,92.408c-0.148,0-0.8,0.418-0.64,0.869c0.16,0.449,0.325,0.484,0.744,0.282
						C228.769,93.358,228.623,92.408,228.245,92.408z"/>
					<path style="fill:#EA5D58;" d="M227.803,92.989c0,0,0.324-0.373,0.479-0.182c0.153,0.191,0.091,0.514-0.132,0.615
						C227.924,93.523,227.583,93.214,227.803,92.989z"/>
				</g>
				<path style="fill:#19264A;" d="M223.602,99.592c-1.412-0.036-2.045,0.763-2.04,1.883l0.505-0.021
					c-0.021-0.065-0.019-0.305-0.008-0.402c0.079-0.734,0.492-1.023,1.069-1.186c0.431-0.111,1.046-0.186,1.364,0.158l0.048-0.033
					C224.334,99.705,223.936,99.607,223.602,99.592z"/>
				<path style="fill:#DD1663;" d="M225.078,99.916c0.01,0.248-0.179,0.453-0.421,0.46s-0.445-0.188-0.454-0.435
					c-0.011-0.248,0.179-0.453,0.421-0.461C224.864,99.473,225.069,99.668,225.078,99.916z"/>
			</g>
			<path style="fill:#EC7171;" d="M230.333,98.932c0,0-1.766,0.219-1.898,2.256c-0.133,2.036,4.943,5.193,5.405,6.477
				c0.461,1.284-0.128,8.903-0.128,9.092s-0.577,1.629-0.577,1.864c0,0.234,0.437,0.07,0.609,0.234
				c0.174,0.164,0.297,0.235,0.528,0.235c0.23,0,0.412-0.085,0.659-0.085c0.248,0,0.758-1.606,0.396-2.313
				c-0.363-0.704,1.435-6.671,1.252-8.284C236.398,106.795,231.509,98.932,230.333,98.932z"/>
		</g>
		<ellipse style="fill:#EA5D58;" cx="226.12" cy="93.929" rx="0.5" ry="0.25"/>
		<g>
			<path style="fill:#1B2B5C;" d="M209.769,103.857L209.769,103.857c-0.063-0.001-0.113-0.053-0.112-0.114
				c0.089-5.852,1.869-8.576,1.887-8.604c0.034-0.051,0.104-0.064,0.155-0.029c0.052,0.033,0.065,0.104,0.031,0.155
				c-0.019,0.025-1.76,2.703-1.849,8.48C209.88,103.808,209.829,103.857,209.769,103.857z"/>
		</g>
		<g>
			<path style="fill:#1B2B5C;" d="M232.325,95.844c-0.028,0-0.058-0.011-0.08-0.032c-0.043-0.044-0.043-0.115,0-0.159
				c1.56-1.559-0.682-5.633-0.892-5.888c-0.036-0.047-0.033-0.117,0.011-0.156c0.045-0.041,0.109-0.041,0.153,0.001
				c0.081,0.081,0.723,1.189,1.142,2.479c0.557,1.714,0.468,3.001-0.255,3.724C232.383,95.833,232.354,95.844,232.325,95.844z"/>
		</g>
	</g>
	<g>
		<path style="fill:#3A2A60;" d="M53.211,88.446c0,0-0.584,1.578,0.069,2.116c0.652,0.537,2.206,0.821,1.521,1.507
			c-0.687,0.687-0.599,2.436,1.633,2.275s5.025,1.359,4.509,2.197c-0.518,0.836-0.948,0.945-0.948,0.945s1.845,0.538,2.34-0.611
			c0.497-1.148,0-1.4,0-1.4s0.806-0.43,0.598-1.472c-0.208-1.04-0.598-1.364-0.598-1.364s0.633-1.09,0-1.722
			c-0.632-0.632-1.178,0.552-4.668-3.495C56.721,86.327,53.709,87.292,53.211,88.446z"/>
		<g>
			<path style="fill:#EA5D58;" d="M54.827,105.412c-0.1,0.463-0.244,1.087-0.34,1.395c-0.804,2.619-1.909,7.715-1.909,8.544
				c0,0.828,0.313,0.828,0,1.263c-0.313,0.435-0.168,0.321-0.473,0.321c-0.303,0-1.011,0.197-1.212,0.197
				c-0.198,0-0.362-1.146,0.389-4.165c0.667-2.684,1.389-5.126,1.756-7.891C53.182,105.113,54.377,105.372,54.827,105.412z"/>
			<path style="fill:#9F1F25;" d="M55.191,95.163c1.088-0.111,0.333,7.001-0.411,10.475c-0.45-0.042-1.821-0.521-1.965-0.557
				C52.861,104.736,55.191,95.163,55.191,95.163z"/>
			<path style="fill:#0C7190;" d="M45.133,133.635c2.231,2.404,12.946-0.387,13.897-1.414c0.953-1.025-0.874-6.964-3.185-12.145
				c-2.311-5.182-3.443-4.913-3.443-4.913C48.396,114.188,42.901,131.23,45.133,133.635z M52.402,115.804
				c0.259,0.046,1.532,1.589,1.532,3.374c0,1.212-2.793,1.105-3.359,0.495C50.121,119.184,50.219,115.408,52.402,115.804z"/>
			<g>
				<path style="fill:#D3EBEC;" d="M45.133,133.635c-0.807-0.994-0.244-3.938,0.027-5.234c0.759-3.473,4.041-13.754,7.242-13.237
					C48.163,113.897,42.595,131.139,45.133,133.635z"/>
			</g>
			<path style="fill:#8ED0D7;" d="M52.934,129.369c-0.117,0.125-1.346-3.007-1.346-3.007l-1.963,0.761l0.127,0.322l-0.419-0.145
				l-1.937,1.35l2.082,5.113c0,0,1.991-0.072,2.924-1.076C53.334,131.682,52.934,129.369,52.934,129.369z"/>
			<path style="fill:#F2923D;" d="M57.251,124.184h-1.249v0.672l-0.333-0.672h-2.124c0,0-0.32,2.727-1.007,3.465
				c-0.687,0.74-1.073,4.586-1.781,4.854s-1.67,0.359-1.67,0.359l0.665,1.691c0,0,5.21-0.346,6.75-0.615s2.664-2.197,2.664-2.602
				S57.251,124.184,57.251,124.184z"/>
			<path style="fill:#F8BE86;" d="M52.538,127.648c0.302-0.325,0.532-1.034,0.697-1.729c1.883,0.026,3.485,0.274,4.653,0.53
				c0.557,1.999,1.277,4.638,1.277,4.886c0,0.275-0.522,1.258-1.343,1.943c-1.692-0.855-4.337-1.51-6.458-1.939
				C51.748,130.066,52.074,128.148,52.538,127.648z"/>
			<path style="fill:#3C86C8;" d="M58.124,127.301c-1.106-0.386-2.929-0.898-4.985-1.003c0.023-0.089,0.049-0.176,0.069-0.265
				c1.96,0.106,3.708,0.578,4.831,0.955C58.066,127.092,58.095,127.197,58.124,127.301z"/>
			<path style="fill:#3C86C8;" d="M51.667,130.203c3.386,0.346,5.713,1.73,6.751,2.479c-0.222,0.264-0.483,0.525-0.78,0.74
				c-1.058-0.711-3.213-1.889-6.249-2.162C51.483,130.934,51.576,130.572,51.667,130.203z"/>
			<path style="opacity:0.1;fill:#8ED0D7;" d="M56.252,121.601c0,0-1.517-1.883-3.133,0.854c-1.613,2.735-0.162,7.14-3.221,8.618
				c-3.057,1.475-0.528,3.314-0.528,3.314l7.59-0.674l2.206-1.715L56.252,121.601z"/>
			<path style="fill:#D8D6EB;" d="M51.365,128.268c0,0-0.121,1.313-0.7,1.936c-0.581,0.625-1.062,0.869-1.062,0.869
				S49.65,129.391,51.365,128.268z"/>
			<polygon style="fill:#D8D6EB;" points="49.832,131.814 49.832,130.736 49.675,130.607 49.021,131.072 			"/>
			<path style="fill:#00576E;" d="M49.716,119.673c0.166,0.537-0.25,12.245-1.083,11.349S49.716,119.673,49.716,119.673z"/>
			<path style="fill:#00576E;" d="M49.087,120.076c0,0.896-2.192,12.963-2.656,11.574C45.969,130.26,49.087,120.076,49.087,120.076z
				"/>
			<path style="fill:#00576E;" d="M44.759,132.865c2.373,1.264,12.717,1.664,13.7-1.352c0.771-2.361-3.361-13.011-6.134-16.367
				c0.027,0.006,0.053,0.011,0.077,0.017c0,0,1.133-0.269,3.443,4.913c2.311,5.181,3.958,11.186,3.592,12.582
				c-0.697,2.658-12.073,3.381-14.305,0.977C44.967,133.455,44.843,133.195,44.759,132.865z"/>
			<path style="fill:#EA5D58;" d="M52.676,116.387c0,0,0.234-1.003-0.09-1.194c-0.322-0.19-0.228,1.039-0.184,1.088
				C52.447,116.328,52.676,116.387,52.676,116.387z"/>
			<path style="fill:#EA5D58;" d="M51.664,116.604c-0.088-0.095,0.374-1.761,0.583-1.761c0.208,0-0.125,1.761-0.125,1.761H51.664z"
				/>
			<path style="fill:#EA5D58;" d="M51.237,117.075l0.416-0.382c0,0,0.063-1.782-0.207-1.782S51.237,117.075,51.237,117.075z"/>
			<path style="fill:#EA5D58;" d="M50.908,114.997c0,0-0.472,0.922-0.432,1.518c0.043,0.595,0.364,0.784,0.432,0.459
				c0.068-0.325,0.162-1.727,0.162-1.727L50.908,114.997z"/>
		</g>
		<g>
			<path style="fill:#EC7171;" d="M51.152,140.059c-0.728-0.271-1.469-0.492-2.234-0.617c-0.585,1.939-1.126,3.646-1.365,4.363
				c-0.237,0.709-0.434,1.348-0.611,1.922l1.442,0.354c0,0,0.295-0.684,0.385-1.219C48.878,144.211,50.001,142.158,51.152,140.059z"
				/>
			<g>
				<path style="fill:#D2132F;" d="M47.764,143.104c0,0,0.569,0.305,0.314,0.975c-0.256,0.668-1.391,1.18-1.391,1.18l-0.488-0.869
					c0,0,0.81-0.041,1.137-0.627C47.664,143.176,47.764,143.104,47.764,143.104z"/>
				<g>
					<path style="fill:#FFFFFF;" d="M48.025,144.164c-0.018,0.041-0.037,0.084-0.059,0.123c0.046-0.068,0.083-0.137,0.111-0.209
						c0.255-0.67-0.314-0.975-0.314-0.975s-0.02,0.016-0.069,0.082C47.766,143.229,48.262,143.543,48.025,144.164z"/>
				</g>
				<path style="fill:#D2132F;" d="M48.054,147.578c0,0-0.921-0.457-1.565-0.779c-0.645-0.32-1.71-0.748-2.032-0.908
					s-1.138-1.561-0.946-1.791c0.191-0.229,1.222,0.365,1.902,0.34c0.684-0.025,1.949-0.283,2.176-0.258
					c0.357,0.041,1.011,0.748,1.107,1.041C48.795,145.516,48.29,147.482,48.054,147.578z"/>
				<path style="fill:#E68297;" d="M48.02,147.006c-2.385-1.717-2.013-0.508-4.203-2.516c0.496,0.572,1.288,1.287,1.998,1.473
					c0.385,0.1,0.755,0.283,1.12,0.463C47.3,146.607,47.659,146.807,48.02,147.006z"/>
				<g>
					<path style="fill:#FFFFFF;" d="M46.607,145.402c-0.055,0.027-0.119,0-0.145-0.059c-0.088-0.205-0.294-0.633-0.526-0.973
						c0.078-0.014,0.159-0.027,0.24-0.043c0.271,0.416,0.471,0.885,0.484,0.916C46.686,145.303,46.662,145.373,46.607,145.402z"/>
					<path style="fill:#FFFFFF;" d="M46.917,145.02c-0.061,0.006-0.112-0.043-0.118-0.109c0-0.006-0.024-0.332-0.149-0.697
						c0.077-0.016,0.149-0.031,0.22-0.045c0.122,0.375,0.146,0.699,0.148,0.723C47.021,144.955,46.978,145.014,46.917,145.02z"/>
				</g>
			</g>
			<g>
				<path style="fill:#EA5D58;" d="M64.768,138.488c-0.763,0.129-1.512,0.313-2.241,0.592c0.333,2.008,0.603,3.785,0.705,4.539
					c0.101,0.746,0.207,1.412,0.302,2.006l1.427-0.418c0.01,0.061-0.02-0.617-0.194-1.271
					C64.594,143.301,64.668,140.924,64.768,138.488z"/>
				<g>
					<path style="fill:#D2132F;" d="M63.088,142.895c0,0,0.634-0.035,0.716,0.684c0.081,0.717-0.679,1.762-0.679,1.762l-0.82-0.502
						c0,0,0.688-0.461,0.709-1.145C63.033,143.01,63.088,142.895,63.088,142.895z"/>
					<g>
						<path style="fill:#FFFFFF;" d="M63.796,143.684c0.006,0.043,0.008,0.088,0.006,0.137c0.009-0.084,0.01-0.164,0.002-0.242
							c-0.082-0.719-0.716-0.684-0.716-0.684s-0.011,0.023-0.023,0.107C63.146,143.002,63.721,143.016,63.796,143.684z"/>
					</g>
					<path style="fill:#9F1F26;" d="M65.326,146.695c0,0-1.014,0.063-1.723,0.107c-0.71,0.047-1.836,0.209-2.19,0.232
						c-0.354,0.021-1.686-0.799-1.619-1.098c0.07-0.301,1.238-0.301,1.828-0.67c0.589-0.369,1.596-1.238,1.808-1.332
						c0.33-0.145,1.215,0.148,1.43,0.354C65.076,144.498,65.491,146.49,65.326,146.695z"/>
					<path style="fill:#DD4967;" d="M65.044,146.207c-2.854-0.303-1.997,0.574-4.808-0.082c0.688,0.25,1.701,0.479,2.406,0.283
						c0.385-0.107,0.79-0.135,1.19-0.162C64.236,146.221,64.64,146.213,65.044,146.207z"/>
					<g>
						<path style="fill:#FFFFFF;" d="M63.098,145.51c-0.037,0.051-0.105,0.063-0.152,0.021c-0.169-0.135-0.539-0.408-0.892-0.588
							c0.063-0.053,0.128-0.107,0.192-0.162c0.422,0.23,0.803,0.541,0.829,0.561C63.123,145.381,63.134,145.457,63.098,145.51z"/>
						<path style="fill:#FFFFFF;" d="M63.201,145.016c-0.051,0.035-0.118,0.02-0.15-0.037c-0.003-0.004-0.168-0.279-0.438-0.539
							c0.061-0.053,0.118-0.102,0.175-0.15c0.271,0.268,0.435,0.541,0.446,0.563C63.266,144.906,63.252,144.98,63.201,145.016z"/>
					</g>
				</g>
				<path style="fill:#CF191B;" d="M62.526,139.08c0.729-0.279,1.479-0.463,2.241-0.592c-0.039,0.918-0.074,1.828-0.094,2.639
					c-0.595,0.008-1.291,0.061-1.78,0.236C62.787,140.678,62.661,139.898,62.526,139.08z"/>
			</g>
			<path style="fill:#46486B;" d="M59.259,114l4.069,15.92c0,0,1.968,6.807,1.86,10.551l-3.044,0.693c0,0-2.021-8.408-2.886-10.434
				l-3.6-12.233L59.259,114z"/>
			<path style="fill:#EA5D58;" d="M48.918,139.441c0.766,0.125,1.507,0.346,2.234,0.617c-0.137,0.25-0.271,0.496-0.404,0.742
				c-0.562-0.313-1.371-0.75-1.937-1.004C48.847,139.68,48.883,139.563,48.918,139.441z"/>
		</g>
		<path style="fill:#895FA5;" d="M50.918,127.865c0.309-0.931,2.765-8.245,3.772-12.351l0.313-1.275l-1.437-5.296l4.426-0.988
			l2.49,5.106c0.388,0.794,0.403,1.738,0.041,2.547c-1.641,3.642-6.196,13.872-6.195,15.048c0.001,1.432-0.449,2.48-0.657,4.463
			c-0.126,1.203-0.774,3.359-1.868,5.352c-0.728-0.273-2.653-0.969-3.419-1.094C50.012,136.328,50.491,129.148,50.918,127.865z"/>
		<g>
			<g>
				<path style="fill:#663D8D;" d="M57.045,110.876c0.015,0,0.029-0.004,0.044-0.012c0.048-0.026,0.067-0.089,0.042-0.143
					l-0.174-0.377c-0.024-0.051-0.083-0.071-0.131-0.047c-0.05,0.026-0.068,0.09-0.044,0.143l0.176,0.377
					C56.974,110.854,57.009,110.876,57.045,110.876z"/>
			</g>
			<g>
				<path style="fill:#663D8D;" d="M58.228,113.551l-0.317-0.684c-0.025-0.052-0.004-0.116,0.044-0.142
					c0.049-0.026,0.106-0.005,0.131,0.048l0.318,0.682c0.024,0.054,0.004,0.116-0.045,0.144c-0.014,0.007-0.028,0.01-0.042,0.01
					C58.28,113.608,58.245,113.588,58.228,113.551z M57.593,112.185l-0.318-0.685c-0.023-0.052-0.004-0.114,0.044-0.142
					c0.049-0.024,0.107-0.004,0.131,0.047l0.318,0.686c0.023,0.051,0.005,0.114-0.044,0.14c-0.015,0.008-0.028,0.013-0.044,0.013
					C57.644,112.243,57.61,112.221,57.593,112.185z"/>
			</g>
			<g>
				<path style="fill:#663D8D;" d="M58.607,115.032c0.035,0,0.066-0.019,0.085-0.053c0.127-0.232,0.199-0.361,0.199-0.361
					l0.028-0.05l-0.199-0.429c-0.025-0.053-0.084-0.073-0.132-0.047c-0.049,0.026-0.066,0.09-0.044,0.142l0.15,0.325
					c-0.031,0.058-0.089,0.165-0.172,0.313c-0.026,0.05-0.011,0.114,0.035,0.144C58.573,115.026,58.591,115.032,58.607,115.032z"/>
			</g>
			<g>
				<path style="fill:#663D8D;" d="M50.692,138.691c-0.053-0.014-0.083-0.072-0.068-0.129c0.065-0.254,0.133-0.525,0.202-0.813
					c0.015-0.057,0.067-0.09,0.119-0.074c0.054,0.016,0.084,0.07,0.07,0.129c-0.07,0.285-0.137,0.561-0.203,0.814
					c-0.013,0.047-0.052,0.078-0.095,0.078C50.709,138.697,50.701,138.695,50.692,138.691z M51.089,137.063
					c-0.052-0.014-0.085-0.072-0.071-0.127c0.059-0.254,0.119-0.527,0.183-0.818c0.013-0.059,0.065-0.094,0.118-0.08
					c0.053,0.016,0.085,0.07,0.073,0.127c-0.064,0.293-0.126,0.566-0.185,0.82c-0.01,0.049-0.05,0.082-0.094,0.082
					C51.105,137.066,51.098,137.063,51.089,137.063z M51.449,135.422c-0.053-0.012-0.084-0.068-0.074-0.125
					c0.031-0.146,0.063-0.297,0.095-0.453c0.025-0.123,0.052-0.246,0.076-0.369c0.012-0.059,0.064-0.094,0.118-0.08
					c0.053,0.012,0.084,0.068,0.073,0.125c-0.026,0.125-0.052,0.248-0.077,0.371c-0.032,0.154-0.063,0.305-0.093,0.453
					c-0.012,0.047-0.052,0.08-0.097,0.08C51.465,135.424,51.457,135.424,51.449,135.422z M51.794,133.777
					c-0.053-0.012-0.085-0.07-0.073-0.127c0.059-0.27,0.119-0.545,0.18-0.82c0.014-0.057,0.067-0.092,0.119-0.078
					c0.053,0.014,0.085,0.07,0.072,0.127c-0.062,0.273-0.122,0.549-0.182,0.82c-0.01,0.049-0.049,0.082-0.094,0.082
					C51.81,133.781,51.802,133.779,51.794,133.777z M52.159,132.139c-0.052-0.014-0.084-0.072-0.07-0.127
					c0.063-0.271,0.126-0.547,0.191-0.818c0.014-0.057,0.066-0.092,0.119-0.076c0.052,0.014,0.085,0.07,0.069,0.127
					c-0.063,0.273-0.127,0.547-0.19,0.816c-0.011,0.049-0.052,0.08-0.095,0.08C52.175,132.141,52.168,132.141,52.159,132.139z
					 M52.548,130.504c-0.053-0.014-0.084-0.072-0.07-0.129c0.068-0.271,0.135-0.543,0.203-0.814c0.016-0.057,0.069-0.09,0.121-0.074
					c0.053,0.016,0.083,0.072,0.068,0.131c-0.068,0.268-0.136,0.541-0.203,0.813c-0.011,0.047-0.051,0.078-0.095,0.078
					C52.565,130.508,52.556,130.506,52.548,130.504z M52.958,128.877c-0.053-0.016-0.082-0.074-0.066-0.131
					c0.068-0.271,0.141-0.541,0.214-0.81c0.014-0.056,0.069-0.09,0.121-0.072c0.051,0.017,0.082,0.074,0.066,0.13
					c-0.072,0.268-0.144,0.539-0.214,0.809c-0.013,0.047-0.053,0.078-0.095,0.078C52.976,128.881,52.966,128.879,52.958,128.877z
					 M53.392,127.258c-0.052-0.017-0.081-0.075-0.065-0.131c0.076-0.271,0.15-0.54,0.228-0.809c0.017-0.055,0.069-0.086,0.122-0.067
					c0.053,0.017,0.081,0.076,0.064,0.131c-0.076,0.267-0.151,0.534-0.227,0.806c-0.013,0.045-0.052,0.075-0.094,0.075
					C53.41,127.263,53.402,127.261,53.392,127.258z M53.852,125.646c-0.053-0.018-0.08-0.077-0.063-0.132
					c0.081-0.271,0.162-0.539,0.243-0.803c0.017-0.056,0.071-0.087,0.124-0.065c0.051,0.016,0.078,0.076,0.061,0.132
					c-0.081,0.264-0.161,0.53-0.241,0.801c-0.014,0.045-0.052,0.073-0.094,0.073C53.871,125.652,53.861,125.649,53.852,125.646z
					 M54.343,124.047c-0.052-0.021-0.079-0.079-0.061-0.135l0.013-0.041c0.074-0.232,0.162-0.485,0.263-0.754
					c0.021-0.055,0.077-0.079,0.128-0.059c0.05,0.021,0.074,0.083,0.054,0.138c-0.099,0.265-0.187,0.516-0.259,0.745l-0.014,0.039
					c-0.014,0.044-0.053,0.072-0.093,0.072C54.363,124.053,54.354,124.051,54.343,124.047z M54.913,122.475
					c-0.049-0.022-0.071-0.085-0.05-0.137c0.099-0.246,0.208-0.505,0.325-0.771c0.022-0.054,0.081-0.076,0.13-0.052
					s0.069,0.088,0.048,0.141c-0.116,0.266-0.225,0.523-0.323,0.766c-0.017,0.04-0.053,0.063-0.091,0.063
					C54.939,122.484,54.926,122.482,54.913,122.475z M55.572,120.946c-0.049-0.026-0.069-0.089-0.045-0.142
					c0.11-0.243,0.229-0.498,0.351-0.755c0.024-0.053,0.084-0.073,0.132-0.048c0.048,0.027,0.066,0.09,0.041,0.143
					c-0.12,0.258-0.237,0.51-0.348,0.752c-0.018,0.038-0.053,0.06-0.089,0.06C55.601,120.956,55.586,120.954,55.572,120.946z
					 M56.278,119.439c-0.048-0.026-0.067-0.09-0.041-0.143c0.121-0.251,0.245-0.5,0.366-0.745c0.025-0.052,0.085-0.07,0.133-0.043
					s0.065,0.092,0.04,0.143c-0.122,0.244-0.244,0.491-0.365,0.743c-0.019,0.036-0.053,0.058-0.089,0.058
					C56.309,119.452,56.293,119.448,56.278,119.439z M57.017,117.951c-0.048-0.027-0.065-0.09-0.04-0.142
					c0.13-0.255,0.256-0.503,0.379-0.739c0.026-0.052,0.087-0.07,0.134-0.041c0.047,0.027,0.063,0.092,0.038,0.144
					c-0.122,0.236-0.249,0.483-0.379,0.737c-0.018,0.035-0.052,0.056-0.086,0.056C57.047,117.966,57.031,117.961,57.017,117.951z
					 M57.777,116.478c-0.047-0.028-0.064-0.093-0.037-0.143c0.142-0.269,0.271-0.516,0.39-0.733c0.026-0.05,0.087-0.067,0.134-0.038
					c0.047,0.028,0.063,0.093,0.036,0.142c-0.118,0.22-0.248,0.466-0.389,0.733c-0.02,0.034-0.052,0.052-0.086,0.052
					C57.809,116.49,57.792,116.487,57.777,116.478z"/>
			</g>
			<g>
				<path style="fill:#663D8D;" d="M50.38,139.9c0.04,0,0.077-0.027,0.093-0.07c0.001-0.006,0.044-0.133,0.122-0.406
					c0.016-0.055-0.014-0.115-0.065-0.133c-0.051-0.016-0.106,0.016-0.122,0.07c-0.076,0.27-0.119,0.396-0.12,0.396
					c-0.018,0.057,0.01,0.115,0.061,0.135C50.358,139.898,50.37,139.9,50.38,139.9z"/>
			</g>
		</g>
		<path style="fill:#9374B2;" d="M50.335,130.342c0.366-2.713,0.134-1.576,2.532-8.928c0.598-1.857,1.273-3.969,1.823-5.899
			c-0.385,1.831-1.047,4.189-1.582,5.986c-1.735,5.91-1.966,5.753-2.237,7.36c-0.42,2.518-0.989,7.896-2.487,10.516
			C49.473,136.969,49.934,133.348,50.335,130.342z"/>
		<path style="fill:#D2132F;" d="M55.191,95.163c0,0,0.847-0.428,4.289,0.106c0.174,0.028,0.414,4.338,0.414,4.338
			s-1.754,7.314-1.434,9.124c0,0-2.255,2.424-5.181,0.857c0,0,0.686-6.337,0.424-7.604c-0.262-1.27-0.791-2.421-0.031-3.733
			C54.432,96.938,55.191,95.163,55.191,95.163z"/>
		<path style="opacity:0.6;fill:#8D1C22;" d="M55.925,110.062c2.538-1.204,0.879-3.734,1.123-4.83
			c0.276-1.23,0.813-1.111,0.519-2.096c-0.293-0.984-0.576-1.873,0.932-2.736c0.394-0.226,0.883-0.559,1.389-0.939
			c0.005,0.094,0.008,0.147,0.008,0.147s-1.754,7.314-1.434,9.124C58.461,108.731,57.46,109.809,55.925,110.062z"/>
		<path style="fill:#E4537A;" d="M53.547,102.037c-0.108-0.668-0.517-1.691-0.387-2.697c0.136-0.951,0.284-0.727,2.031-4.177
			c-1.211,3.319-1.988,3.395-1.711,5.104c0.229,1.435,0.452,1.205,0.441,2.786c-0.026,1.871-0.341,4.662-0.642,6.536
			c0.153-3.014,0.422-6.302,0.283-7.448L53.547,102.037z"/>
		<path style="fill:#0C7190;" d="M55.659,134.873c2.231,2.406,12.946-0.387,13.897-1.414c0.952-1.025-0.873-6.963-3.185-12.144
			c-2.311-5.183-3.444-4.912-3.444-4.912C58.923,115.427,53.427,132.469,55.659,134.873z M62.928,117.041
			c0.26,0.048,1.533,1.592,1.533,3.376c0,1.212-2.795,1.104-3.36,0.494C60.647,120.424,60.744,116.647,62.928,117.041z"/>
		<g>
			<path style="fill:#D3EBEC;" d="M55.659,134.873c-0.808-0.992-0.245-3.938,0.027-5.234c0.759-3.472,4.04-13.752,7.241-13.235
				C58.689,115.137,53.119,132.379,55.659,134.873z"/>
		</g>
		<path style="fill:#66C3C9;" d="M60.241,120.911c0.166,0.539-0.249,12.247-1.082,11.351
			C58.326,131.361,60.241,120.911,60.241,120.911z"/>
		<path style="fill:#66C3C9;" d="M59.613,121.315c0,0.896-2.193,12.964-2.656,11.573S59.613,121.315,59.613,121.315z"/>
		<path style="fill:#F2923D;" d="M67.777,125.423h-1.249v0.671l-0.334-0.671h-2.123c0,0-0.321,2.726-1.007,3.464
			c-0.688,0.742-1.074,4.586-1.782,4.855c-0.708,0.268-1.669,0.357-1.669,0.357l0.664,1.691c0,0,5.211-0.344,6.75-0.613
			c1.541-0.27,2.666-2.199,2.666-2.604C69.693,132.172,67.777,125.423,67.777,125.423z"/>
		<path style="fill:#F8BE86;" d="M63.064,128.887c0.301-0.324,0.533-1.033,0.697-1.727c1.883,0.027,3.485,0.274,4.652,0.528
			c0.558,2.001,1.279,4.64,1.279,4.886c0,0.275-0.524,1.26-1.344,1.943c-1.692-0.854-4.336-1.51-6.458-1.939
			C62.273,131.305,62.601,129.387,63.064,128.887z"/>
		<path style="fill:#3C86C8;" d="M68.65,128.539c-1.105-0.385-2.928-0.898-4.985-1.002c0.024-0.087,0.047-0.177,0.07-0.265
			c1.96,0.106,3.706,0.578,4.827,0.958C68.592,128.33,68.622,128.436,68.65,128.539z"/>
		<path style="fill:#3C86C8;" d="M62.193,131.443c3.387,0.346,5.713,1.729,6.751,2.477c-0.222,0.266-0.485,0.525-0.781,0.744
			c-1.056-0.715-3.214-1.893-6.248-2.166C62.01,132.174,62.101,131.811,62.193,131.443z"/>
		<path style="opacity:0.1;fill:#8ED0D7;" d="M66.778,122.841c0,0-1.519-1.885-3.132,0.852c-1.614,2.736-0.163,7.142-3.222,8.618
			c-3.056,1.475-0.53,3.314-0.53,3.314l7.593-0.672l2.206-1.713L66.778,122.841z"/>
		<path style="fill:#EA5D58;" d="M63.813,105.163c-0.497,0.308-1.269,0.888-1.729,1.312c-0.015-0.06-0.03-0.111-0.048-0.155
			c-0.063-0.168-0.204-0.362-0.397-0.58c0.589-0.456,1.165-0.933,1.728-1.431C63.56,104.641,63.704,104.921,63.813,105.163z"/>
		<path style="fill:#00576E;" d="M55.285,134.105c2.374,1.266,12.717,1.662,13.7-1.352c0.77-2.363-3.36-13.013-6.133-16.367
			c0.023,0.005,0.051,0.01,0.075,0.017c0,0,1.134-0.271,3.444,4.912c2.312,5.181,3.958,11.187,3.591,12.583
			c-0.696,2.656-12.072,3.381-14.304,0.975C55.492,134.693,55.369,134.432,55.285,134.105z"/>
		<path style="fill:#EC7171;" d="M61.638,105.743c0.589-0.456,1.165-0.932,1.728-1.432c0.686,1.169,0.747,1.702,0.817,2.17
			c0.234,1.604-0.755,8.105-0.39,8.793c0.365,0.688-0.04,2.316-0.27,2.327c-0.229,0.01-0.395,0.104-0.607,0.114
			c-0.215,0.01-0.333-0.054-0.5-0.212c-0.167-0.155-0.565,0.028-0.575-0.206s0.464-1.699,0.457-1.889
			c-0.009-0.187,0.22-7.823-0.263-9.086C61.972,106.156,61.831,105.961,61.638,105.743z"/>
		<path style="fill:#D71D39;" d="M58.089,97.685c0.037-2.041,1.392-2.415,1.392-2.415c0.769-0.036,3.051,6.295,4.332,9.279
			c-0.562,0.499-1.489,1.089-2.175,1.424C60.362,104.534,58.057,99.455,58.089,97.685z"/>
		<g>
			<path style="fill:#EC7171;" d="M56.319,92.171c-0.027-0.139-0.035-0.437-0.06-0.812l-1.438,2.255
				c0.324-0.07,1.342,1.557,1.382,2.125c0.04,0.57-0.504,1.529-0.504,1.529s1.008-0.381,1.384-0.998
				c0.376-0.613,1.022-1.074,1.022-1.074S56.456,92.887,56.319,92.171z"/>
			<path style="opacity:0.44;fill:#E72712;" d="M56.26,91.359l-1.438,2.255c0.084-0.018,0.214,0.076,0.361,0.236
				c0.29-0.254,0.948-0.941,1.104-2.039C56.278,91.681,56.271,91.528,56.26,91.359z"/>
			<g>
				<path style="fill:#EC7171;" d="M53.025,88.408c0,0-0.505,0.81-0.358,1.579c0.146,0.768,0.312,1.008,0.384,1.384
					s-0.095,1.009-0.263,1.209c0,0,0.157,0.292,0.326,0.255c0,0,0,0.068,0.002,0.144c-0.05,0.011-0.026,0.16,0.008,0.188
					c0.079,0.036,0.262,0.032,0.412-0.067c0,0-0.178,0.122-0.212,0.184c-0.1,0.18,0.133,0.225,0.173,0.181
					c0.086,0.042,0.179,0.068,0.186,0.11c0.019,0.094,0.065,0.411,0.342,0.468c0.272,0.057,0.866-0.341,1.146-0.503
					c0,0,1.01-0.738,1.108-2.184C56.384,89.81,55.76,86.9,53.025,88.408z"/>
				<path style="fill:#3F1225;" d="M52.986,91.224c0.145-0.063,0.276-0.118,0.414-0.145c0.067-0.016,0.137-0.018,0.206-0.014
					c0.071,0,0.138,0.021,0.218,0.035c-0.056-0.058-0.124-0.107-0.203-0.129c-0.078-0.023-0.162-0.026-0.241-0.01
					c-0.079,0.016-0.154,0.047-0.221,0.092C53.091,91.099,53.031,91.153,52.986,91.224z"/>
				<g>
					<path style="fill:#522D5A;" d="M53.166,90.85l-0.154-0.153c0.048-0.03,0.578-0.229,0.787-0.08l-0.056,0.093
						C53.609,90.614,53.274,90.783,53.166,90.85z"/>
				</g>
				<path style="opacity:0.44;fill:#E72712;" d="M54.495,91.275c-0.24,0.062-0.887,0.376-0.746,0.651
					C53.889,92.2,55.321,91.067,54.495,91.275z"/>
				<path style="fill:#3F1225;" d="M53.272,91.312c0.07,0.098,0.15,0.16,0.176,0.137c0.025-0.02-0.01-0.118-0.082-0.218
					c-0.071-0.097-0.149-0.159-0.176-0.138C53.165,91.114,53.201,91.212,53.272,91.312z"/>
				<path style="fill:#264399;" d="M52.766,88.981c0.08,0.218,3.01-0.324,2.893,1.868c-0.118,2.192-0.869,4.778,1.448,4.313
					c2.317-0.467,0.581,1.505,0.724,1.887c0.608,1.635,5.058-0.289,3.853-3.477c-0.512-1.354-1.263-1.072-0.448-1.949
					c0.814-0.879,0.217-2.295-0.768-1.952c-0.985,0.344-2.471-4.646-6.221-2.741C53.247,87.437,52.378,87.915,52.766,88.981z"/>
			</g>
		</g>
		<path style="fill:#515CA7;" d="M52.766,88.981c0,0,0.699,0.248,2.558,0.612c1.857,0.364,2.624,0.821,1.951,1.534
			c-0.673,0.715-0.767-0.21-0.767-0.21s-0.674,0.782,0.403,0.921c1.077,0.138,2.381-0.992,1.642-1.99
			c-0.739-0.996-2.031-1.265-3.001-1.265C54.583,88.584,52.766,88.981,52.766,88.981z"/>
		<g>
			<path style="fill:#1B2B5C;" d="M67.212,96.229c-0.064,0-0.116-0.053-0.116-0.117c0-6.217-4.435-7.604-4.48-7.617
				c-0.061-0.018-0.097-0.084-0.078-0.146s0.084-0.097,0.146-0.08c0.047,0.015,4.646,1.452,4.646,7.843
				C67.329,96.177,67.276,96.229,67.212,96.229z"/>
		</g>
	</g>
	<g>
		<path style="fill:#EA5D58;" d="M11.308,99.547c0.029-0.19,0.256-0.301,0.256-0.301s-0.157-0.309-0.029-0.436
			c0.126-0.127,0.203-0.103,0.203-0.103c0.263,0.263,1.397,0.874,1.397,0.874s-0.36-0.775-0.152-0.982
			c0.206-0.208,0.359,0.471,0.72,0.83s1.266,2.052,1.397,2.182c0.131,0.13,5.272,2.09,5.272,2.09c0.6-0.206,3.703-6.201,3.979-7.501
			c1.247,0.336-0.292,5.638,0.857,6.115c-1.343,3.041-3.656,4.992-5.153,4.536c-1.789-0.546-6.222-4.804-6.222-4.804
			s-2.328-1.41-2.328-1.664c0-0.256,0.035-0.365,0.035-0.365S11.278,99.734,11.308,99.547z"/>
		<polygon style="fill:#274499;" points="13.47,100.395 11.307,97.421 11.971,96.94 13.644,99.793 		"/>
		<polygon style="fill:#1C2D6F;" points="11.127,98.031 11.307,97.421 13.47,100.395 13.236,100.628 		"/>
		<path style="fill:#EA5D58;" d="M11.534,98.811c0,0,0.992-0.615,1.286-0.423s-1.257,0.858-1.257,0.858L11.534,98.811z"/>
		<path style="fill:#EA5D58;" d="M11.54,100.019c0,0,1.19-0.638,1.316-0.995c0.128-0.357-1.293,0.223-1.293,0.223L11.54,100.019z"/>
		<path style="fill:#EA5D58;" d="M11.613,100.437c0,0,1.48-0.573,1.48-0.868c0-0.298-1.554,0.45-1.554,0.45L11.613,100.437z"/>
		<g>
			<path style="fill:#EA5D58;" d="M25.239,139.188h-1.771c0.233,2.883,0.363,5.15,0.206,5.344c-0.492,0.613-2.326,1.293-2.326,1.293
				c0.74-0.057,3.266-0.152,3.266-0.152l-0.057-1.303C24.662,143.875,24.936,141.734,25.239,139.188z"/>
			<path style="fill:#601986;" d="M26.324,129.08c0.16-2.339,0.596-16.123,0.596-16.123l-4.125-0.651l-0.602,13.76
				c0,0,0.479,7.786,0.925,13.241l2.841-0.08C26.419,135.352,26.227,130.494,26.324,129.08z"/>
			<path style="fill:#1C3135;" d="M22.738,145.164c0,0-2.339,0.662-2.266,0.877c0.072,0.217,4.232-0.293,4.232-0.293l-0.09-0.965
				c0,0-1.526,0.627-1.713,0.574C22.718,145.309,22.738,145.164,22.738,145.164z"/>
			<path style="fill:#EC7171;" d="M30.717,139.188h-1.935c0.475,2.895,0.912,5.514,0.912,5.514l-0.935,2.254
				c0,0-0.05,0.516,0.363,0.842c0.412,0.324,1.147-0.133,1.304-0.297c0.155-0.164,0.083-1.334,0.019-2.352
				C30.42,144.736,30.57,142.172,30.717,139.188z"/>
			<path style="fill:#1C3135;" d="M29.653,147.012c-0.315-0.1-0.522-0.398-0.648-0.648l-0.245,0.592c0,0-0.264,0.945,0.151,1.271
				c0.412,0.324,1.359-0.563,1.516-0.727c0.083-0.088,0.101-0.465,0.09-0.949C30.306,146.822,29.986,147.121,29.653,147.012z"/>
			<path style="fill:#6E75B7;" d="M30.77,128.803c-0.289-0.6-0.478-1.272-0.596-1.818l0,0l0.269-14.054l-5.644-0.091
				c0,0,2.541,23.064,3.085,26.387l2.833-0.039C30.93,134.822,31.136,129.559,30.77,128.803z"/>
			<path style="fill:#253249;" d="M27.49,85.378c0,0,1.839-0.808,2.688,0.768c0.851,1.574-0.147,6.137,0.591,6.744
				c0.74,0.607,1.922,0,1.922,0s0.406,0.832-0.776,1.16c-1.181,0.33-1.942,0.637-1.838,0.727c0.107,0.086-1.054-0.477-1.054-0.477
				l-0.936,0.477L27.616,94.3l-1.521,0.477c0,0,0.212-0.369,0.081-0.477c-0.13-0.107-1.442,0.81-2.192-0.103
				c-0.75-0.913,0.366-1.187,0.366-1.187s-0.567,0.558,0.258,0.558c0.823,0,3.685-3.297,2.882-4.942
				C26.687,86.979,27.49,85.378,27.49,85.378z"/>
			<path style="fill:#DAE000;" d="M30.442,112.931c-0.504-2.577-1.892-3.134-1.892-4.146c0-1.237,2.071-7.67,2.071-7.67
				c-0.556-0.556,0.814-4.61-0.035-5.779c-0.469-0.649-3.129-0.688-3.129-0.688l-1.957,0.479c-0.599,0.146-1.098,0.562-1.346,1.129
				c-0.43,0.979-1.094,2.545-1.412,3.584c-0.214,0.691,0.177,1.651,0.288,2.871c0.147,1.614,0.085,3.598,0.262,5.111
				c0.076,0.652-0.952,3.794-1.1,5.594C24.74,113.3,27.907,113.045,30.442,112.931z"/>
			<path style="fill:#464768;" d="M29.017,86.183c-0.324-0.324-1.639-0.402-1.639-0.402H27.28c-0.412-0.156-2.589,3.08-2.315,4.806
				c0.274,1.726,0.47,1.55,1.706,1.766s2.158-0.706,2.47-1.728C29.454,89.605,29.34,86.505,29.017,86.183z"/>
			<path style="fill:#EC7171;" d="M25.475,91.704c-0.035,0.035,0.003,0.486,0.037,1.055c0.048,0.814-0.154,2.287-0.12,2.287
				c0,0,0.063,1.289,0.694,1.365c0.549,0.064,1.545-0.586,1.654-1.089c0.147-0.677,0-4.06,0-4.06L25.475,91.704z"/>
			<path style="fill:#EA5D58;" d="M25.512,92.759c0.837,0.757,1.628,0.412,2.264-0.538c-0.016-0.479-0.033-0.931-0.035-0.958
				l-2.266,0.441C25.439,91.739,25.478,92.19,25.512,92.759z"/>
			<path style="fill:#EC7171;" d="M25.738,85.978c0,0-1.061,0.203-1.187,1.113c-0.127,0.91-0.303,1.668-0.127,2.729
				c0.178,1.061,0.81,2.476,1.847,2.703c1.035,0.228,2.121-1.49,2.121-2.426s0.379-2.502-0.328-3.461
				C27.356,85.675,25.738,85.978,25.738,85.978z"/>
			<path style="fill:#EA5D58;" d="M27.357,86.108c-1.062-0.42-2.648-0.146-2.806,0.982c-0.114,0.824-0.271,1.523-0.167,2.438
				c0.168-0.116,0.409-0.234,0.745-0.346c0.936-0.308,1.844-1.858,2.257-2.756C27.386,86.403,27.407,86.288,27.357,86.108z"/>
			<path style="fill:#464768;" d="M28.114,89.565c0,0,0.405-0.467,0.607-0.668c0.201-0.203,0.707-2.199,0.201-2.881
				c-0.504-0.683-1.472-0.721-2.246-0.809c-0.773-0.089-2.001,0.5-2.068,1.652c0,0,1.99-0.756,2.546-0.491
				c0.556,0.267,0.783,0.581,0.897,1.201C28.166,88.189,28.114,89.565,28.114,89.565z"/>
			<path style="fill:#EC7171;" d="M28.114,89.565c0,0,0.271-1.172,0.721-0.889c0.451,0.283-0.034,1.582-0.452,1.582
				C27.963,90.259,28.114,89.565,28.114,89.565z"/>
			<path style="fill:#EA5D58;" d="M28.552,88.923c0,0-0.664,1.067-0.209,0.949C28.8,89.755,28.98,88.726,28.552,88.923z"/>
			<g>
				<path style="fill:#1B2B5C;" d="M25.729,90.261c0.028-0.29,0.047-0.58,0.045-0.874c-0.066,0.371-0.08,0.642-0.102,0.909
					c0.154,0.043,0.339,0.129,0.572,0.041C26.068,90.372,25.891,90.32,25.729,90.261z"/>
			</g>
			<path style="fill:#1B2B5C;" d="M26.304,89.359c0.054-0.168,0.196-0.327,0.392-0.379c0.347-0.091,0.557,0.409,0.795,0.403
				c-0.171,0.088-0.444-0.203-0.631-0.277c-0.103-0.042-0.191-0.014-0.292,0.033C26.469,89.19,26.382,89.268,26.304,89.359z"/>
			<ellipse style="fill:#1B2B5C;" cx="26.762" cy="89.21" rx="0.168" ry="0.189"/>
			<path style="fill:#1B2B5C;" d="M25.533,89.468c-0.06-0.164-0.21-0.318-0.407-0.361c-0.351-0.074-0.54,0.434-0.776,0.439
				c0.174,0.08,0.435-0.225,0.618-0.305c0.1-0.048,0.191-0.023,0.293,0.02C25.361,89.307,25.451,89.38,25.533,89.468z"/>
			
				<ellipse transform="matrix(-0.9989 0.0462 -0.0462 -0.9989 54.2368 177.4244)" style="fill:#1B2B5C;" cx="25.068" cy="89.339" rx="0.169" ry="0.191"/>
			<path style="fill:#1B2B5C;" d="M26.181,88.551c-0.038-0.024,0.266-0.329,0.628-0.362c0.362-0.034,0.756,0.362,0.756,0.362
				s-0.535-0.319-0.761-0.215C26.579,88.438,26.391,88.688,26.181,88.551z"/>
			<g>
				<path style="fill:#1B2B5C;" d="M25.681,91.302c-0.04-0.007-0.03-0.066,0.008-0.06c0.007,0,0.602,0.081,1.098-0.311
					c0.032-0.022,0.067,0.022,0.037,0.046C26.487,91.243,26.009,91.351,25.681,91.302z"/>
			</g>
			<g>
				<path style="fill:#1B2B5C;" d="M26.126,91.493c-0.016,0-0.028-0.012-0.03-0.027c-0.005-0.073,0.435-0.021,0.598-0.288
					c0.02-0.033,0.069-0.003,0.05,0.03c-0.15,0.247-0.598,0.283-0.615,0.285H26.126z"/>
			</g>
			<path style="fill:#5E5998;" d="M25.643,85.417c-0.974,0.214-1.268,1.711-2.063,2.506c-0.797,0.797-0.594,1.947-0.214,2.705
				c0.378,0.758,0.985,0.265,0.985,0.265s-0.316,0.178-0.52-0.454c-0.202-0.633,0.152-1.125,1.227-1.479
				c1.073-0.354,2.097-2.591,2.097-2.591C27.181,85.933,26.614,85.202,25.643,85.417z"/>
			<path style="fill:#013034;" d="M25.206,88.767c-0.483,0.199-1.09,0.393-1.364,0.85c-0.381,0.589,0.142,1.492,0.509,1.276
				c-0.132,0.048-0.255-0.032-0.325-0.133c-0.16-0.233-0.275-0.728-0.033-1.046c0.299-0.404,0.923-0.572,1.128-0.654l0.197-0.086
				c0.827-0.49,1.513-1.719,1.837-2.604C26.708,87.112,25.972,88.327,25.206,88.767z"/>
			<path style="fill:#EC7171;" d="M31.766,116.773L31.766,116.773c1.598-4.457,0.643-10.032,0.643-10.032l0,0
				c0.023-1.787,0.058-7.103-0.353-8.562c-0.495-1.763-1.469-2.844-1.469-2.844s-0.877,2.473-0.877,3.617
				c0,1.144,0.525,4.854,0.525,5.875c0,2.485,0.227,10.796,0.115,11.121c-0.2,0.594-1.077,1.404-1.26,1.548
				c-0.18,0.144-0.491,0.252-0.25,0.554c0.239,0.304,0.073,0.218,0.364,0.462c0.29,0.243,0.25,0.216,0.43,0.644
				c0.183,0.429,1.849-0.278,1.977-0.518c0.127-0.238,0.389-0.978,0.223-1.437C31.796,117.098,31.774,116.945,31.766,116.773z"/>
		</g>
		<g>
			<path style="fill:#1B2B5C;" d="M14.647,106.022c-0.004,0-0.009,0-0.012,0c-4.46-0.465-5.527-5.013-5.536-5.059
				c-0.014-0.06,0.023-0.119,0.084-0.133c0.061-0.013,0.119,0.025,0.133,0.085c0.009,0.044,1.043,4.438,5.343,4.885
				c0.061,0.006,0.105,0.062,0.099,0.122C14.751,105.979,14.704,106.022,14.647,106.022z"/>
		</g>
		<path style="fill:#0C7190;" d="M25.242,127.813c1.331,1.434,7.719-0.23,8.285-0.843c0.568-0.611-0.521-4.151-1.898-7.24
			c-1.377-3.09-2.053-2.929-2.053-2.929C27.188,116.219,23.912,126.379,25.242,127.813z M29.576,117.182
			c0.154,0.028,0.914,0.948,0.914,2.012c0,0.723-1.667,0.659-2.004,0.295C28.217,119.198,28.274,116.946,29.576,117.182z"/>
		<path style="fill:#66C3C9;" d="M27.975,119.488c0.099,0.321-0.148,7.302-0.646,6.767
			C26.833,125.719,27.975,119.488,27.975,119.488z"/>
		<path style="fill:#66C3C9;" d="M27.6,119.729c0,0.534-1.308,7.729-1.583,6.899C25.74,125.801,27.6,119.729,27.6,119.729z"/>
		<path style="opacity:0.1;fill:#8ED0D7;" d="M31.871,120.639c0,0-0.905-1.123-1.866,0.508c-0.963,1.631-0.098,4.258-1.921,5.138
			c-1.822,0.88-0.316,1.976-0.316,1.976l4.526-0.4l1.315-1.021L31.871,120.639z"/>
		<path style="fill:#00576E;" d="M25.02,127.354c1.415,0.755,7.581,0.991,8.168-0.806c0.458-1.408-2.004-7.758-3.656-9.758
			c0.014,0.003,0.03,0.006,0.045,0.01c0,0,0.676-0.161,2.053,2.929c1.378,3.089,2.36,6.669,2.141,7.502
			c-0.415,1.583-7.196,2.015-8.527,0.581C25.144,127.705,25.069,127.55,25.02,127.354z"/>
		<path style="fill:#EC7171;" d="M31.766,116.773L31.766,116.773c1.598-4.457,0.643-10.032,0.643-10.032l0,0
			c0.023-1.787,0.058-7.103-0.353-8.562c-0.495-1.763-1.469-2.844-1.469-2.844s-0.877,2.473-0.877,3.616
			c0,1.145,0.525,4.854,0.525,5.876c0,2.485,0.227,10.796,0.115,11.121c-0.2,0.594-1.077,1.404-1.26,1.548
			c-0.18,0.144-0.491,0.252-0.25,0.554c0.239,0.304,0.073,0.218,0.364,0.462c0.29,0.243,0.25,0.216,0.43,0.644
			c0.183,0.429,1.849-0.278,1.977-0.518c0.127-0.238,0.389-0.978,0.223-1.437C31.796,117.098,31.774,116.945,31.766,116.773z"/>
	</g>
</g>
</svg>
