<?xml version="1.0" encoding="iso-8859-1"?>
<!-- Generator: Adobe Illustrator 16.0.0, SVG Export Plug-In . SVG Version: 6.00 Build 0)  -->
<!DOCTYPE svg PUBLIC "-//W3C//DTD SVG 1.1//EN" "http://www.w3.org/Graphics/SVG/1.1/DTD/svg11.dtd">
<svg version="1.1" id="&#x5716;&#x5C64;_1" xmlns="http://www.w3.org/2000/svg" xmlns:xlink="http://www.w3.org/1999/xlink" x="0px"
	 y="0px" width="247.24px" height="151.252px" viewBox="0 0 247.24 151.252" style="enable-background:new 0 0 247.24 151.252;"
	 xml:space="preserve">
<g>
	<path style="opacity:0.6;fill:#E8C41D;stroke:#F8B62D;stroke-miterlimit:10;" d="M141.202,77.896
		c0,25.762-20.883,46.645-46.645,46.645c-25.76,0-46.641-20.883-46.641-46.645c0-25.76,20.881-46.641,46.641-46.641
		C120.319,31.256,141.202,52.137,141.202,77.896z"/>
	<circle style="opacity:0.6;fill:#2C50A2;stroke:#F8B62D;stroke-miterlimit:10;" cx="119.606" cy="39.837" r="39.338"/>
	
		<ellipse style="fill:#C9BC9C;stroke:#B28247;stroke-width:0.5;stroke-miterlimit:10;" cx="123.62" cy="146.298" rx="123.37" ry="4.704"/>
	<circle style="opacity:0.6;fill:#F08719;stroke:#F8B62D;stroke-miterlimit:10;" cx="166.62" cy="70.488" r="46.033"/>
	<g>
		<g>
			<path style="fill:#1B2C75;" d="M19.709,126.29c-0.074-0.014-0.128-0.081-0.125-0.158c0.24-5.103,3.587-6.78,3.622-6.798
				c0.075-0.035,0.167-0.005,0.205,0.072c0.036,0.075,0.004,0.167-0.071,0.202c-0.031,0.018-3.219,1.628-3.45,6.538
				c-0.004,0.084-0.076,0.148-0.159,0.146C19.723,126.292,19.717,126.291,19.709,126.29z"/>
		</g>
		<g>
			<path style="fill:#1B2C75;" d="M107.454,133.592c0.071-0.026,0.152,0.005,0.188,0.072c2.372,4.523,0.331,7.664,0.311,7.695
				c-0.048,0.069-0.142,0.089-0.212,0.043c-0.07-0.048-0.088-0.143-0.042-0.212c0.02-0.031,1.956-3.031-0.327-7.384
				c-0.04-0.074-0.012-0.168,0.064-0.207C107.442,133.598,107.448,133.594,107.454,133.592z"/>
		</g>
		<g>
			<path style="fill:#1B2C75;" d="M73.307,105.831c-0.01,0.03-0.032,0.052-0.054,0.05c-1.373-0.172-1.556-1.525-1.558-1.539
				c-0.003-0.03,0.013-0.066,0.037-0.081c0.022-0.012,0.046,0,0.05,0.032c0.001,0.012,0.178,1.301,1.5,1.466
				c0.023,0.004,0.036,0.033,0.027,0.065C73.309,105.827,73.308,105.83,73.307,105.831z"/>
		</g>
		<g>
			<path style="fill:#1B2C75;" d="M45.729,94.405c-0.074,0-0.139-0.054-0.15-0.129c-1.228-7.672,3.808-10.907,3.859-10.94
				c0.071-0.043,0.165-0.021,0.21,0.051c0.045,0.07,0.022,0.165-0.049,0.209c-0.049,0.032-4.913,3.17-3.719,10.633
				c0.014,0.083-0.043,0.162-0.127,0.175C45.745,94.404,45.737,94.405,45.729,94.405z"/>
		</g>
		<g>
			<g>
				<g>
					<rect x="34.061" y="102.554" style="fill:#CF6519;" width="6.482" height="5.06"/>
					<rect x="36.059" y="102.554" style="fill:#E89F50;" width="6.481" height="5.06"/>
					<polygon style="fill:#C05B1C;" points="36.059,102.554 34.061,103.5 34.061,102.554 					"/>
				</g>
				<g>
					<g>
						<rect x="38.627" y="103.628" style="fill:#486FB6;" width="5.103" height="3.984"/>
						<rect x="40.199" y="103.628" style="fill:#6A96CF;" width="5.104" height="3.984"/>
					</g>
					<polygon style="fill:#EAF1F9;" points="42.696,107.112 40.803,107.408 40.61,106.656 42.505,106.361 					"/>
					<g>
						<polygon style="fill:#EAF1F9;" points="41.118,104.645 39.274,104.645 39.352,104.475 39.274,104.294 41.101,104.294 
							40.989,104.481 						"/>
						<polygon style="fill:#A6C1E5;" points="40.197,104.294 40.197,104.645 39.274,104.645 39.352,104.475 39.274,104.294 						
							"/>
					</g>
				</g>
				<g>
					<polygon style="fill:#FAD2AA;" points="37.15,103.647 34.97,103.647 35.063,103.448 34.97,103.235 37.13,103.235 
						36.997,103.458 					"/>
					<polygon style="fill:#C05B1C;" points="36.061,103.235 36.061,103.647 34.97,103.647 35.063,103.448 34.97,103.235 					"/>
				</g>
				<g>
					<polygon style="fill:#FAD2AA;" points="37.15,106.702 34.97,106.702 35.063,106.505 34.97,106.29 37.13,106.29 36.997,106.513 
											"/>
					<polygon style="fill:#C05B1C;" points="36.061,106.29 36.061,106.702 34.97,106.702 35.063,106.505 34.97,106.29 					"/>
				</g>
			</g>
			<g>
				<g>
					<rect x="31.859" y="107.688" style="fill:#595757;" width="11.977" height="9.349"/>
					<rect x="35.551" y="107.688" style="fill:#B5B5B6;" width="11.978" height="9.349"/>
				</g>
				<polygon style="fill:#EAF1F9;" points="46.826,109.389 43.958,109.836 43.667,108.697 46.536,108.25 				"/>
				<g>
					<polygon style="fill:#EAF1F9;" points="37.143,109.169 33.896,109.169 34.031,108.872 33.896,108.553 37.112,108.553 
						36.914,108.885 					"/>
					<polygon style="fill:#A6C1E5;" points="35.518,108.553 35.518,109.169 33.896,109.169 34.031,108.872 33.896,108.553 					"/>
				</g>
				<g>
					<polygon style="fill:#EAF1F9;" points="37.143,116.132 33.896,116.132 34.031,115.835 33.896,115.517 37.112,115.517 
						36.914,115.848 					"/>
					<polygon style="fill:#A6C1E5;" points="35.518,115.517 35.518,116.132 33.896,116.132 34.031,115.835 33.896,115.517 					"/>
				</g>
			</g>
		</g>
		<g>
			<g>
				<g>
					<g>
						<path style="fill:#F6B69D;" d="M74.563,97.906c0,0,3.772,0.638,4.075,0.719s1.498,0.647,1.559,1.013
							c0.061,0.363,0,1.437,0,1.437s-0.217,0.176-0.352-0.175c-0.135-0.352-0.114-1.046-0.114-1.046l-0.668-0.257l0.365,0.647
							l0.06,1.519c0,0-0.467-0.042-0.558-0.407c-0.09-0.362-0.089-0.767-0.089-0.767l-0.487-0.413l0.365,0.495l0.122,1.092
							c0,0-0.354,0.114-0.467-0.129c-0.111-0.241-0.121-0.963-0.121-0.963l-1.375-0.482l-0.909,0.507l-1.7-0.961L74.563,97.906z"/>
					</g>
				</g>
				<g>
					<g>
						<g>
							<g>
								<path style="fill:#E9515A;" d="M61.362,88.587c0.017,0.075,4.544,6.304,4.544,6.304l9.093,2.83l-0.415,3.416l-11.143-2.245
									l-3.955-4.54L61.362,88.587z"/>
							</g>
						</g>
						<g style="opacity:0.2;">
							<g>
								<path style="fill:#040000;" d="M61.362,88.587c0.017,0.075,4.544,6.304,4.544,6.304l9.093,2.83l-0.415,3.416l-11.143-2.245
									l-3.955-4.54L61.362,88.587z"/>
							</g>
						</g>
					</g>
				</g>
			</g>
			<g>
				<g>
					<g>
						<g>
							<g>
								<g>
									<g>
										<g>
											<g>
												<circle style="fill:#182E35;" cx="95.511" cy="137.505" r="9.558"/>
											</g>
										</g>
									</g>
								</g>
							</g>
						</g>
						<g>
							<g>
								<g>
									<g>
										<g>
											<g>
												<path style="fill:#182E35;" d="M85.956,137.343c0,0.008-0.002,0.017-0.002,0.024c-0.076,5.278,4.14,9.619,9.418,9.695
													c5.278,0.075,9.619-4.141,9.695-9.419c0-0.009-0.001-0.018-0.001-0.025L85.956,137.343z"/>
											</g>
										</g>
									</g>
								</g>
							</g>
						</g>
						<g>
							<g>
								<g>
									<g>
										<g>
											<g>
												<circle style="fill:#FBFBFC;" cx="95.511" cy="137.506" r="6.71"/>
											</g>
										</g>
									</g>
								</g>
							</g>
						</g>
						<g>
							<g>
								<g>
									<g>
										<g>
											<g>
												<path style="fill:#E1E1E0;" d="M95.607,130.797c-3.705-0.055-6.753,2.906-6.806,6.613l13.418,0.192
													C102.272,133.897,99.313,130.849,95.607,130.797z"/>
											</g>
										</g>
									</g>
								</g>
							</g>
						</g>
						<g>
							<g>
								<g>
									<g>
										<g>
											<g>
												<circle style="fill:#182E35;" cx="95.511" cy="137.505" r="4.087"/>
											</g>
										</g>
									</g>
								</g>
							</g>
						</g>
					</g>
					<g>
						<g>
							<path style="fill:#CC4954;" d="M90.974,123.491c0,0,9.785-2.96,13.832,7.672l-20.477,6.342L90.974,123.491z"/>
						</g>
					</g>
					<g>
						<g>
							<g>
								<g>
									<g>
										<g>
											<g>
												<circle style="fill:#182E35;" cx="36.54" cy="137.505" r="9.558"/>
											</g>
										</g>
									</g>
								</g>
							</g>
						</g>
						<g>
							<g>
								<g>
									<g>
										<g>
											<g>
												<path style="fill:#182E35;" d="M26.983,137.343c0,0.008-0.001,0.017-0.001,0.024c-0.076,5.278,4.142,9.619,9.419,9.695
													c5.279,0.075,9.619-4.141,9.695-9.419c0-0.009-0.002-0.018-0.002-0.025L26.983,137.343z"/>
											</g>
										</g>
									</g>
								</g>
							</g>
						</g>
						<g>
							<g>
								<g>
									<g>
										<g>
											<g>
												<circle style="fill:#FBFBFC;" cx="36.539" cy="137.506" r="6.71"/>
											</g>
										</g>
									</g>
								</g>
							</g>
						</g>
						<g>
							<g>
								<g>
									<g>
										<g>
											<g>
												<path style="fill:#E1E1E0;" d="M36.636,130.797c-3.705-0.055-6.752,2.906-6.806,6.613l13.418,0.192
													C43.302,133.897,40.341,130.849,36.636,130.797z"/>
											</g>
										</g>
									</g>
								</g>
							</g>
						</g>
						<g>
							<g>
								<g>
									<g>
										<g>
											<g>
												<circle style="fill:#182E35;" cx="36.539" cy="137.505" r="4.088"/>
											</g>
										</g>
									</g>
								</g>
							</g>
						</g>
					</g>
					<g>
						<g>
							<path style="fill:#365862;" d="M50.133,133.667c-0.052,0.028-5.029-0.769-5.029-0.769l0,0
								c-0.546,0.71-1.376,1.145-2.27,1.189c-2.15,0.102-4.252,0.198-6.072,0.278c-1.697,0.075-3.014,1.513-2.941,3.21v0.003
								c0.067,1.605,1.355,2.891,2.962,2.953l10.583,0.416c1.741,0.068,4.055-0.99,5.142-2.35l0,0L50.133,133.667z"/>
						</g>
					</g>
					<g>
						<g>
							<path style="fill:#E9515A;" d="M24.132,129.44c0,0-0.456-9.315,8.299-11.258v-1.193h30.664v2.848c0,0-4.501,5.42-3.031,9.921
								c1.471,4.5,1.929,4.959,1.929,4.959h17.453c0,0,2.113-2.662,2.204-6.613c0.092-3.948-1.551-10.703-2.774-15.021
								c-1.114-3.924-1.818-7.208-1.818-7.208l5.235-1.745c0,0,9.688,12.668,10.084,13.38c0.396,0.713,1.741,2.375,1.424,6.016
								c-0.314,3.64-9.021,14.878-11.316,16.145c-2.296,1.267-4.354,1.347-6.412,1.663c-1.786,0.275-14.998,0.094-18.454,0.04
								c-1.2-0.019-2.385-0.326-3.412-0.947c-1.033-0.627-1.812-1.664-2.669-3.366l-1.82-3.562L24.132,129.44z"/>
						</g>
					</g>
					<g>
						<g>
							<path style="fill:#365862;" d="M26.478,128.792l-3.862,6.049c-0.494,0.774,0.306,1.748,1.148,1.383
								c0.409-0.177,0.85-0.453,1.296-0.878c1.767-1.681,4.915-6.106,4.915-6.106L26.478,128.792z"/>
						</g>
					</g>
					<g>
						<g>
							<path style="fill:#365862;" d="M63.095,116.989c0,0,0.506-0.604,0.554-1.373c0.049-0.771-0.303-1.732-1.132-1.732H51.929
								c-1.717,0-3.106,1.391-3.106,3.105l0,0H63.095z"/>
						</g>
					</g>
					<g>
						<g>
							<path style="fill:#E9515A;" d="M77.057,105.875l-1.842-3.84c-0.503-1.091-0.101-2.39,0.931-3.005l5.507-3.284
								c0.287-0.172,0.616-0.263,0.952-0.263h1.189l0.478,7.764l-1.837,0.702l1.163,1.89L77.057,105.875z"/>
						</g>
					</g>
					<g>
						<g>
							<path style="fill:#E1E1E0;stroke:#F5F5F5;stroke-miterlimit:10;" d="M83.812,95.766c0,0,1.884,0.432,2.121,3.338
								c0.237,2.903-1.661,3.807-1.661,3.807L83.812,95.766z"/>
						</g>
					</g>
					<g>
						<g>
							<path style="fill:#182E35;" d="M77.698,100.529c0,0-3.809,1.807-4.273,2.103c-0.322,0.204-0.599,0.564-0.348,1.198
								c0.433,1.079,2.213,0.063,2.213,0.063l3.545-1.771c0,0,1.363-0.645,0.859-1.45C79.131,99.771,77.698,100.529,77.698,100.529z
								"/>
						</g>
					</g>
					<g>
						<g>
							<path style="fill:#F6B69D;" d="M72.309,99.871c0,0,3.577,0.613,3.881,0.695c0.304,0.08,1.497,0.647,1.56,1.013
								c0.059,0.364,0,1.437,0,1.437s-0.217,0.177-0.352-0.175c-0.136-0.352-0.113-1.045-0.113-1.045l-0.67-0.258l0.365,0.647
								l0.06,1.519c0,0-0.466-0.043-0.557-0.407c-0.091-0.362-0.088-0.767-0.088-0.767l-0.489-0.414l0.365,0.494l0.124,1.094
								c0,0-0.357,0.115-0.469-0.128c-0.112-0.243-0.121-0.966-0.121-0.966l-1.374-0.48l-0.911,0.507l-1.431-0.783L72.309,99.871z"
								/>
						</g>
					</g>
					<g>
						<g>
							<ellipse style="fill:#182E35;" cx="76.393" cy="94.889" rx="1.487" ry="2.623"/>
						</g>
					</g>
					<g>
						<g>
							<path style="fill:#182E35;" d="M76.638,96.693l0.817,2.83c0.363-0.186,0.44-0.549,0.38-0.836
								c-0.204-0.969-0.321-1.661-0.546-2.51C77.262,96.092,76.638,96.693,76.638,96.693"/>
						</g>
					</g>
					<g style="opacity:0.4;">
						<g>
							<path style="fill:#040000;" d="M60.467,130.968c-0.08-0.233-0.164-0.474-0.242-0.718c-0.072-0.229-0.157-0.465-0.22-0.693
								c-0.112-0.404-0.177-0.823-0.204-1.065c-1.378,5.613,0.726,9.567,4.341,9.844c5.281,0.407,11.721,0.703,14.326,0.019
								c4.746-1.246,6.488-5.203,6.904-5.857c0.414-0.653,4.192-7.553,1.878-14.199c-2.315-6.646-6.348-13.702-6.348-13.702
								l-3.846,1.28c0,0,0.704,3.284,1.818,7.208c1.224,4.317,2.866,11.072,2.774,15.021c-0.091,3.951-2.204,6.613-2.204,6.613
								H61.992C61.992,134.717,61.618,134.343,60.467,130.968"/>
						</g>
					</g>
					<g>
						<g>
							<path style="fill:#E9515A;" d="M23.434,127.978l0.123-1.332l31.855,3.67c1.798,0.211,3.046,1.892,2.731,3.675l-0.142,0.808
								l-32.971-4.791C24.044,129.863,23.342,128.972,23.434,127.978z"/>
						</g>
					</g>
					<g style="opacity:0.6;">
						<g>
							<path style="fill:#040000;" d="M23.434,127.978l0.123-1.332l31.855,3.67c1.798,0.211,3.046,1.892,2.731,3.675l-0.142,0.808
								l-32.971-4.791C24.044,129.863,23.342,128.972,23.434,127.978z"/>
						</g>
					</g>
					<g>
						<g>
							<g>
								<path style="fill:#182E35;" d="M49.67,116.989c0,0.034-3.874,0.063-8.648,0.063c-4.778,0-8.651-0.028-8.651-0.063
									c0-0.033,3.873-0.062,8.651-0.062C45.796,116.928,49.67,116.956,49.67,116.989z"/>
							</g>
						</g>
					</g>
				</g>
				<g>
					<g>
						<g>
							<g>
								<path style="fill:#365862;" d="M29.393,143.994c-0.003,0.002-0.038-0.033-0.104-0.103c-0.062-0.073-0.161-0.172-0.272-0.315
									c-0.23-0.279-0.54-0.705-0.862-1.269c-0.646-1.115-1.287-2.856-1.279-4.853c0.008-1.994,0.664-3.731,1.319-4.841
									c0.327-0.56,0.64-0.983,0.873-1.261c0.112-0.142,0.213-0.241,0.275-0.313c0.065-0.07,0.1-0.104,0.104-0.103
									c0.003,0.003-0.027,0.045-0.085,0.118c-0.058,0.076-0.151,0.181-0.257,0.327c-0.222,0.284-0.522,0.712-0.836,1.272
									c-0.631,1.112-1.264,2.832-1.272,4.799c-0.008,1.97,0.611,3.694,1.232,4.812c0.31,0.563,0.606,0.993,0.824,1.28
									c0.105,0.146,0.199,0.251,0.256,0.328C29.366,143.949,29.396,143.991,29.393,143.994z"/>
							</g>
						</g>
					</g>
				</g>
			</g>
			<g>
				<g>
					<g>
						<g>
							<g>
								<g>
									<g>
										<g>
											<path style="fill:#365862;" d="M62.88,126.185l-0.073,0.138l-1.407,2.648l-1.973,1.9l3.942,5.248l3.286-0.544
												c0,0-0.37-0.75-2.019-0.895l-0.631-3.139l2.316-3.589"/>
										</g>
									</g>
								</g>
								<g>
									<g>
										<g>
											<polygon style="fill:#E1E1E0;" points="59.427,130.871 63.369,136.119 66.655,135.575 66.202,135.142 63.506,135.439 
												59.846,130.467 											"/>
										</g>
									</g>
								</g>
							</g>
							<g>
								<g>
									<g>
										<g>
											<path style="fill:#182E35;" d="M64.375,133.237c-0.019,0.038-0.226-0.038-0.479,0.011
												c-0.253,0.043-0.422,0.187-0.453,0.158c-0.034-0.021,0.118-0.248,0.427-0.301
												C64.179,133.047,64.4,133.207,64.375,133.237z"/>
										</g>
									</g>
								</g>
							</g>
							<g>
								<g>
									<g>
										<g>
											<path style="fill:#182E35;" d="M64.192,132.464c-0.028,0.028-0.208-0.14-0.478-0.148
												c-0.271-0.011-0.46,0.147-0.486,0.116c-0.015-0.012,0.015-0.074,0.098-0.14c0.083-0.064,0.226-0.128,0.394-0.123
												c0.167,0.006,0.306,0.078,0.383,0.149C64.183,132.389,64.207,132.452,64.192,132.464z"/>
										</g>
									</g>
								</g>
							</g>
							<g>
								<g>
									<g>
										<g>
											<path style="fill:#182E35;" d="M64.046,131.456c-0.033,0.023-0.176-0.146-0.419-0.188
												c-0.241-0.046-0.435,0.067-0.457,0.032c-0.012-0.014,0.022-0.066,0.107-0.116s0.225-0.088,0.376-0.061
												c0.152,0.026,0.271,0.111,0.331,0.187C64.048,131.385,64.062,131.444,64.046,131.456z"/>
										</g>
									</g>
								</g>
							</g>
							<g>
								<g>
									<g>
										<g>
											<path style="fill:#182E35;" d="M64.796,130.531c-0.036,0.019-0.159-0.151-0.386-0.25
												c-0.223-0.105-0.433-0.084-0.442-0.125c-0.018-0.037,0.228-0.135,0.503-0.01
												C64.747,130.27,64.835,130.519,64.796,130.531z"/>
										</g>
									</g>
								</g>
							</g>
							<g>
								<g>
									<g>
										<g>
											<path style="fill:#182E35;" d="M65.113,129.784c-0.016,0.014-0.146-0.101-0.345-0.297
												c-0.113-0.112-0.227-0.229-0.344-0.349c-0.06-0.069-0.137-0.124-0.195-0.239c-0.028-0.058-0.039-0.132-0.014-0.203
												c0.021-0.076,0.107-0.135,0.181-0.137c0.147-0.003,0.239,0.057,0.333,0.107c0.093,0.057,0.172,0.125,0.238,0.195
												c0.133,0.145,0.21,0.306,0.251,0.446c0.08,0.284,0.014,0.466,0,0.461c-0.026-0.001,0-0.179-0.099-0.428
												c-0.049-0.124-0.129-0.263-0.251-0.386c-0.062-0.062-0.131-0.117-0.213-0.164c-0.077-0.046-0.179-0.091-0.246-0.087
												c-0.032,0.005-0.048,0.015-0.058,0.041s-0.008,0.063,0.007,0.095c0.029,0.065,0.105,0.137,0.165,0.207
												c0.109,0.126,0.216,0.247,0.321,0.369C65.024,129.633,65.128,129.77,65.113,129.784z"/>
										</g>
									</g>
								</g>
							</g>
							<g>
								<g>
									<g>
										<g>
											<path style="fill:#182E35;" d="M65.247,129.862c-0.016,0.001-0.031-0.173,0.113-0.401
												c0.142-0.215,0.487-0.477,0.943-0.337c0.035,0.021,0.066,0.063,0.071,0.107c0.005,0.047-0.009,0.085-0.023,0.112
												c-0.029,0.058-0.068,0.09-0.1,0.123c-0.067,0.066-0.138,0.123-0.21,0.171c-0.144,0.098-0.289,0.158-0.412,0.193
												c-0.251,0.07-0.414,0.045-0.412,0.029c-0.002-0.024,0.153-0.039,0.379-0.129c0.111-0.045,0.24-0.109,0.367-0.204
												c0.063-0.047,0.127-0.101,0.187-0.162c0.03-0.032,0.061-0.061,0.073-0.088c0.012-0.031,0.008-0.021,0.001-0.03
												c-0.013-0.012-0.059-0.017-0.102-0.02c-0.042-0.002-0.083-0.002-0.125,0.002c-0.083,0.006-0.16,0.027-0.23,0.055
												c-0.143,0.056-0.249,0.149-0.324,0.24C65.294,129.708,65.27,129.868,65.247,129.862z"/>
										</g>
									</g>
								</g>
							</g>
							<g>
								<g>
									<g>
										<circle style="fill:#E1E1E0;" cx="61.641" cy="130.4" r="0.395"/>
									</g>
								</g>
							</g>
						</g>
					</g>
					<g>
						<g>
							<g>
								<g>
									<g>
										<path style="fill:#365862;" d="M74.848,128.71l1.053,6.844l8.523-1.267c-0.171-0.807-4.823-1.787-4.823-1.787
											l-0.495-4.412L74.848,128.71z"/>
									</g>
								</g>
							</g>
							<g>
								<g>
									<g>
										<g>
											<path style="fill:#E1E1E0;" d="M76.909,132.525c-0.157,0.068-0.244,0.271-0.181,0.433
												c0.063,0.16,0.268,0.251,0.428,0.183c0.16-0.066,0.271-0.307,0.19-0.46c-0.081-0.153-0.328-0.244-0.467-0.142"/>
										</g>
									</g>
								</g>
							</g>
							<g>
								<g>
									<g>
										<path style="fill:#E1E1E0;" d="M75.9,135.554l-0.079-0.693l8.201-0.956c0,0,0.404,0.108,0.401,0.383L75.9,135.554z"/>
									</g>
								</g>
							</g>
							<g>
								<g>
									<g>
										<g>
											<path style="fill:#182E35;" d="M79.732,132.438c0.005,0.041-0.2,0.091-0.386,0.256c-0.188,0.16-0.269,0.355-0.308,0.345
												c-0.04-0.003-0.015-0.261,0.213-0.456C79.477,132.386,79.735,132.398,79.732,132.438z"/>
										</g>
									</g>
								</g>
							</g>
							<g>
								<g>
									<g>
										<g>
											<path style="fill:#182E35;" d="M80.681,132.674c0.016,0.04-0.153,0.137-0.27,0.334c-0.12,0.193-0.127,0.39-0.169,0.396
												c-0.038,0.011-0.104-0.229,0.044-0.472C80.433,132.688,80.675,132.635,80.681,132.674z"/>
										</g>
									</g>
								</g>
							</g>
							<g>
								<g>
									<g>
										<g>
											<path style="fill:#182E35;" d="M81.348,133.669c-0.036,0.014-0.124-0.186-0.053-0.429
												c0.071-0.245,0.255-0.364,0.277-0.331c0.029,0.03-0.078,0.172-0.136,0.373C81.375,133.482,81.389,133.658,81.348,133.669
												z"/>
										</g>
									</g>
								</g>
							</g>
							<g>
								<g>
									<g>
										<g>
											<path style="fill:#182E35;" d="M79.508,131.444c-0.012,0.041-0.212,0.012-0.444,0.063
												c-0.233,0.046-0.405,0.151-0.432,0.12c-0.029-0.026,0.127-0.208,0.4-0.264C79.309,131.306,79.523,131.408,79.508,131.444
												z"/>
										</g>
									</g>
								</g>
							</g>
							<g>
								<g>
									<g>
										<g>
											<path style="fill:#182E35;" d="M79.154,130.462c0.004,0.02-0.157,0.069-0.428,0.063c-0.133-0.004-0.294-0.022-0.466-0.07
												c-0.086-0.024-0.175-0.056-0.265-0.095c-0.044-0.019-0.094-0.037-0.145-0.08c-0.052-0.036-0.095-0.144-0.052-0.22
												c0.034-0.07,0.106-0.11,0.168-0.122c0.063-0.01,0.116-0.005,0.163-0.001c0.099,0.009,0.192,0.027,0.279,0.053
												c0.174,0.049,0.319,0.123,0.433,0.198c0.225,0.154,0.315,0.3,0.302,0.31c-0.016,0.018-0.133-0.1-0.355-0.221
												c-0.112-0.06-0.252-0.118-0.413-0.157c-0.081-0.02-0.167-0.033-0.256-0.039c-0.094-0.011-0.171,0-0.188,0.044
												c-0.007,0.017-0.008,0.021,0.016,0.045c0.022,0.022,0.063,0.041,0.105,0.061c0.084,0.036,0.165,0.068,0.245,0.096
												c0.16,0.052,0.31,0.08,0.437,0.097C78.989,130.453,79.152,130.44,79.154,130.462z"/>
										</g>
									</g>
								</g>
							</g>
							<g>
								<g>
									<g>
										<g>
											<path style="fill:#182E35;" d="M79.109,130.531c-0.015,0.008-0.118-0.129-0.174-0.396
												c-0.027-0.132-0.037-0.296-0.012-0.475c0.013-0.09,0.035-0.184,0.07-0.275c0.037-0.093,0.081-0.215,0.241-0.257
												c0.082-0.016,0.163,0.04,0.194,0.092c0.037,0.055,0.05,0.103,0.067,0.15c0.03,0.098,0.043,0.195,0.043,0.288
												c0,0.185-0.052,0.348-0.117,0.468c-0.134,0.246-0.3,0.321-0.305,0.309c-0.017-0.021,0.117-0.122,0.211-0.353
												c0.048-0.115,0.084-0.261,0.076-0.421c-0.003-0.081-0.018-0.163-0.045-0.246c-0.026-0.088-0.071-0.155-0.104-0.143
												c-0.043,0.006-0.104,0.086-0.128,0.163c-0.032,0.082-0.057,0.167-0.072,0.245c-0.03,0.162-0.031,0.314-0.021,0.438
												C79.063,130.372,79.131,130.521,79.109,130.531z"/>
										</g>
									</g>
								</g>
							</g>
						</g>
					</g>
					<g>
						<g>
							<polyline style="fill:#182E35;" points="68.141,112.634 60.831,128.56 65.657,131.458 75.765,112.294 							"/>
						</g>
					</g>
					<g>
						<g>
							<path style="fill:#182E35;" d="M80.194,131.821l-5.244,0.842l-3.141-18.731l-15.508,1.124
								c-0.411,0.024-0.825-0.01-1.223-0.119c-4.357-1.192-3.767-6.745-3.347-7.637l21.461-0.616
								c2.328-0.067,4.334,1.628,4.656,3.934L80.194,131.821z"/>
						</g>
					</g>
					<g>
						<g>
							<g>
								<g>
									<g>
										<g>
											<g>
												<g>
													<g>
														<g>
															<path style="fill:#E9515A;" d="M51.521,108.181l0.078-7.921c0,0-1.023-5.148-1.324-7.172
																c-0.472-3.143-1.114-4.635,4.033-6.869l1.125-0.435l1.742,0.024c2.076,0.155,4.265,2.033,4.315,3.278l2.003,17.845
																L51.521,108.181z"/>
														</g>
													</g>
												</g>
											</g>
										</g>
									</g>
								</g>
							</g>
						</g>
					</g>
					<g>
						<g>
							<g>
								<g>
									<path style="fill:#CC4954;" d="M51.841,88.061c0,0-1.451,3.127-1.161,5.975l5.414,5.199
										c1.215,1.353,2.733,1.926,4.675,2.044l11.207,1.225l0.312-2.932l-10.66-3.021c-0.425-0.079-0.637-0.521-0.96-0.805
										L51.841,88.061"/>
								</g>
							</g>
						</g>
					</g>
				</g>
				<g>
					<g>
						<g>
							<g>
								<g>
									<g>
										<g>
											<g>
												<g>
													<g>
														<g>
															<g>
																<g>
																	<g>
																		<g>
																			<g>
																				<g>
																					<g>
																						<g>
																							<path style="fill:#F6B69D;" d="M53.764,78.917l0.544,7.708c0.089,1.258,1.136,2.234,2.397,2.234l0,0
																								c1.39,0,2.489-1.174,2.398-2.562c-0.049-0.733-0.092-1.334-0.092-1.334s1.867-0.291,1.889-2.155
																								c0.013-1.08-0.172-3.523-0.331-5.398c-0.107-1.266-1.168-2.238-2.439-2.238h-1.127
																								C55.062,75.285,53.597,76.979,53.764,78.917z"/>
																						</g>
																					</g>
																				</g>
																			</g>
																		</g>
																	</g>
																</g>
															</g>
														</g>
													</g>
												</g>
												<g>
													<g>
														<g>
															<g>
																<g>
																	<g>
																		<g>
																			<g>
																				<g>
																					<g>
																						<g>
																							<path style="fill:#F1956C;" d="M59.015,84.938c0,0-1.179,0.097-2.433-0.691c0,0,0.575,1.343,2.438,1.174
																								L59.015,84.938z"/>
																						</g>
																					</g>
																				</g>
																			</g>
																		</g>
																	</g>
																</g>
															</g>
														</g>
													</g>
												</g>
											</g>
										</g>
									</g>
									<g>
										<g>
											<g>
												<g>
													<g>
														<g>
															<g>
																<g>
																	<g>
																		<g>
																			<g>
																				<g>
																					<g>
																						<g>
																							<g>
																								<g>
																									<g>
																										<path style="fill:#182E35;" d="M60.149,79.81c0.006,0.14-0.109,0.261-0.257,0.269
																											c-0.146,0.007-0.27-0.1-0.274-0.241c-0.006-0.141,0.109-0.261,0.257-0.27
																											C60.021,79.56,60.145,79.668,60.149,79.81z"/>
																									</g>
																								</g>
																							</g>
																						</g>
																					</g>
																				</g>
																			</g>
																		</g>
																	</g>
																</g>
															</g>
															<g>
																<g>
																	<g>
																		<g>
																			<g>
																				<g>
																					<g>
																						<g>
																							<g>
																								<g>
																									<g>
																										<g>
																											<path style="fill:#182E35;" d="M60.248,79.282c-0.034,0.034-0.235-0.114-0.521-0.113
																												c-0.286-0.004-0.497,0.144-0.528,0.108c-0.015-0.016,0.019-0.078,0.109-0.146
																												c0.091-0.066,0.244-0.131,0.423-0.13c0.179,0,0.328,0.066,0.416,0.135
																												C60.234,79.204,60.264,79.266,60.248,79.282z"/>
																										</g>
																									</g>
																								</g>
																							</g>
																						</g>
																					</g>
																				</g>
																			</g>
																		</g>
																	</g>
																</g>
															</g>
														</g>
														<g>
															<g>
																<g>
																	<g>
																		<g>
																			<g>
																				<g>
																					<g>
																						<g>
																							<g>
																								<g>
																									<g>
																										<path style="fill:#182E35;" d="M57.457,79.81c0.005,0.14-0.11,0.261-0.257,0.269
																											c-0.146,0.007-0.27-0.1-0.274-0.241c-0.005-0.141,0.109-0.261,0.256-0.27
																											C57.329,79.56,57.452,79.668,57.457,79.81z"/>
																									</g>
																								</g>
																							</g>
																						</g>
																					</g>
																				</g>
																			</g>
																		</g>
																	</g>
																</g>
															</g>
															<g>
																<g>
																	<g>
																		<g>
																			<g>
																				<g>
																					<g>
																						<g>
																							<g>
																								<g>
																									<g>
																										<g>
																											<path style="fill:#182E35;" d="M57.429,79.336c-0.033,0.033-0.234-0.115-0.521-0.115
																												c-0.285-0.002-0.497,0.145-0.528,0.109c-0.016-0.015,0.019-0.078,0.111-0.144
																												c0.089-0.067,0.243-0.132,0.422-0.131c0.179,0,0.329,0.066,0.416,0.134
																												C57.415,79.258,57.444,79.32,57.429,79.336z"/>
																										</g>
																									</g>
																								</g>
																							</g>
																						</g>
																					</g>
																				</g>
																			</g>
																		</g>
																	</g>
																</g>
															</g>
														</g>
														<g>
															<g>
																<g>
																	<g>
																		<g>
																			<g>
																				<g>
																					<g>
																						<g>
																							<g>
																								<g>
																									<g>
																										<path style="fill:#182E35;" d="M58.47,81.462c-0.002-0.017,0.177-0.048,0.466-0.084
																											c0.074-0.008,0.144-0.022,0.154-0.072c0.019-0.052-0.013-0.132-0.049-0.216
																											c-0.069-0.178-0.14-0.363-0.216-0.559c-0.301-0.793-0.519-1.446-0.486-1.459
																											c0.032-0.012,0.301,0.623,0.602,1.416c0.072,0.197,0.143,0.383,0.208,0.562
																											c0.027,0.083,0.075,0.177,0.038,0.288c-0.02,0.055-0.073,0.094-0.12,0.105
																											c-0.047,0.016-0.089,0.016-0.124,0.019C58.651,81.477,58.471,81.479,58.47,81.462z"/>
																									</g>
																								</g>
																							</g>
																						</g>
																					</g>
																				</g>
																			</g>
																		</g>
																	</g>
																</g>
															</g>
														</g>
														<g>
															<g>
																<g>
																	<g>
																		<g>
																			<g>
																				<g>
																					<g>
																						<g>
																							<g>
																								<g>
																									<g>
																										<path style="fill:#182E35;" d="M57.626,81.66c0.047-0.003,0.047,0.309,0.314,0.53
																											c0.265,0.222,0.598,0.187,0.6,0.23c0.005,0.019-0.074,0.06-0.214,0.063
																											c-0.139,0.006-0.338-0.039-0.501-0.174s-0.233-0.316-0.243-0.445
																											C57.57,81.736,57.604,81.658,57.626,81.66z"/>
																									</g>
																								</g>
																							</g>
																						</g>
																					</g>
																				</g>
																			</g>
																		</g>
																	</g>
																</g>
															</g>
														</g>
													</g>
												</g>
											</g>
											<g>
												<g>
													<g>
														<g>
															<g>
																<g>
																	<g>
																		<g>
																			<g>
																				<g>
																					<g>
																						<path style="fill:#182E35;" d="M57.503,78.212c-0.029,0.079-0.314,0.04-0.65,0.081
																							c-0.339,0.034-0.609,0.133-0.653,0.063c-0.02-0.033,0.027-0.107,0.136-0.182
																							c0.11-0.076,0.283-0.146,0.485-0.169s0.387,0.009,0.509,0.06C57.453,78.113,57.515,78.175,57.503,78.212z"/>
																					</g>
																				</g>
																			</g>
																		</g>
																	</g>
																</g>
															</g>
														</g>
													</g>
												</g>
											</g>
											<g>
												<g>
													<g>
														<g>
															<g>
																<g>
																	<g>
																		<g>
																			<g>
																				<g>
																					<g>
																						<path style="fill:#182E35;" d="M60.143,78.451c-0.051,0.066-0.249,0-0.485-0.004
																							c-0.238-0.012-0.439,0.044-0.484-0.024c-0.021-0.034,0.011-0.099,0.098-0.161
																							c0.087-0.061,0.232-0.111,0.396-0.106c0.163,0.006,0.304,0.063,0.388,0.132
																							C60.137,78.354,60.164,78.42,60.143,78.451z"/>
																					</g>
																				</g>
																			</g>
																		</g>
																	</g>
																</g>
															</g>
														</g>
													</g>
												</g>
											</g>
										</g>
									</g>
									<g>
										<g>
											<g>
												<g>
													<g>
														<g>
															<g>
																<g>
																	<g>
																		<g>
																			<g>
																				<g>
																					<path style="fill:#F6B69D;" d="M54.393,80.316c-0.032-0.014-1.282-0.379-1.24,0.896
																						c0.04,1.275,1.312,0.971,1.313,0.936C54.467,82.111,54.393,80.316,54.393,80.316z"/>
																				</g>
																			</g>
																		</g>
																	</g>
																</g>
															</g>
														</g>
													</g>
												</g>
											</g>
										</g>
										<g>
											<g>
												<g>
													<g>
														<g>
															<g>
																<g>
																	<g>
																		<g>
																			<g>
																				<g>
																					<g>
																						<path style="fill:#F1956C;" d="M54.06,81.678c-0.006-0.004-0.021,0.016-0.059,0.034
																							c-0.036,0.017-0.098,0.032-0.166,0.009c-0.136-0.045-0.256-0.256-0.271-0.484
																							c-0.006-0.116,0.015-0.228,0.054-0.322c0.034-0.094,0.093-0.16,0.161-0.175
																							c0.066-0.019,0.115,0.021,0.132,0.058c0.02,0.035,0.012,0.06,0.02,0.062c0.003,0.003,0.025-0.021,0.015-0.074
																							c-0.007-0.024-0.022-0.054-0.054-0.077c-0.03-0.025-0.077-0.037-0.124-0.029
																							c-0.099,0.01-0.183,0.102-0.225,0.205c-0.048,0.102-0.074,0.228-0.067,0.357
																							c0.019,0.258,0.156,0.493,0.342,0.541c0.092,0.02,0.165-0.009,0.203-0.04
																							C54.06,81.708,54.065,81.679,54.06,81.678z"/>
																					</g>
																				</g>
																			</g>
																		</g>
																	</g>
																</g>
															</g>
														</g>
													</g>
												</g>
											</g>
										</g>
									</g>
								</g>
							</g>
							<g>
								<g>
									<g>
										<g>
											<g>
												<g>
													<g>
														<path style="fill:#182E35;" d="M53.683,80.273c0.194-0.047,0.531,0.132,0.614,0.314
															c0.083,0.182,0.101,0.389,0.185,0.571c0.082,0.183,0.27,0.347,0.463,0.3c0.135-0.03,0.231-0.156,0.267-0.29
															c0.036-0.133,0.022-0.274,0.005-0.412c-0.075-0.595-0.201-1.187-0.225-1.785c-0.024-0.601,0.062-1.225,0.376-1.735
															c0.315-0.512,0.894-0.887,1.492-0.839c0.396,0.032,0.761,0.239,1.153,0.294c0.469,0.064,0.962-0.101,1.296-0.432
															c0.043-0.043,0.242-0.175,0.242-0.175c0-0.031-0.03-0.298-0.135-0.395c-0.781-0.722-2.189-0.925-3.222-0.665
															c-1.032,0.262-2,0.989-2.443,1.956C53.307,77.948,53.438,79.294,53.683,80.273"/>
													</g>
												</g>
											</g>
										</g>
									</g>
								</g>
							</g>
						</g>
					</g>
					<g>
						<g>
							<g>
								<g>
									<path style="fill:#E9515A;" d="M60.591,77.123c0,0-4.896-1.575-7.014,2.661c0,0-0.316-1.062-0.316-1.629
										c0-0.38,0.227-2.64,2.553-3.351C55.813,74.805,59.315,73.468,60.591,77.123z"/>
								</g>
							</g>
						</g>
					</g>
					<g>
						<g>
							<g>
								<g>
									<path style="fill:#182E35;" d="M56.384,77.229c0.173,0.279,0.482,0.47,0.809,0.5c0.328,0.029,0.666-0.102,0.887-0.345
										c0.096,0.24,0.356,0.405,0.615,0.392c0.26-0.014,0.5-0.204,0.571-0.454c0.143,0.138,0.29,0.278,0.476,0.347
										c0.187,0.068,0.422,0.043,0.544-0.113c0.124-0.159,0.089-0.401-0.034-0.562c-0.121-0.161-0.31-0.257-0.495-0.334
										c-0.581-0.242-1.223-0.364-1.847-0.28c-0.625,0.085-1.23,0.387-1.621,0.882"/>
								</g>
							</g>
						</g>
					</g>
					<g style="opacity:0.4;">
						<g>
							<g>
								<g>
									<path style="fill:#040000;" d="M60.591,77.123c0,0-0.558-0.662-1.557-0.706c-1.445-0.064-4.147,0.747-5.457,3.367
										c0,0-0.316-1.062-0.316-1.629c0-0.38,0.227-2.64,2.553-3.351C55.813,74.805,59.315,73.468,60.591,77.123z"/>
								</g>
							</g>
						</g>
					</g>
					<g>
						<g>
							<g>
								<path style="fill:#E9515A;" d="M53.781,79.287c0.726-1.109,1.727-2.029,2.852-2.731c1.125-0.704,2.986-1.399,4.269-1.739
									c0.386-0.102,0.787-0.19,1.18-0.123c0.392,0.068,0.777,0.329,0.873,0.715c0.123,0.484-0.735,1.23-1.139,1.523
									c-0.402,0.293-1.225,0.724-1.225,0.724s0.011-0.897-1.424-1.082C57.214,76.321,53.781,79.287,53.781,79.287z"/>
							</g>
						</g>
					</g>
				</g>
				<g style="opacity:0.3;">
					<g>
						<g>
							<path style="fill:#040000;" d="M52.059,95.193c0.505,1.219,1.013,2.721,1.744,3.817c0.733,1.098,1.71,2.07,2.928,2.578
								c1.526,0.64,3.333,0.744,4.853,0.088c0.124-0.054,0.366-0.122,0.345-0.255c0,0-0.504-0.057-0.659-0.083
								c-3.07-0.518-4.711-1.521-6.181-2.682C54.173,97.933,53.448,96.366,52.059,95.193"/>
						</g>
					</g>
				</g>
				<g>
					<g>
						<g>
							<path style="fill:#365862;" d="M75.042,133.223c-0.001,0-0.008-0.024-0.018-0.072c-0.011-0.056-0.025-0.127-0.042-0.216
								c-0.037-0.197-0.086-0.476-0.15-0.83c-0.128-0.729-0.309-1.768-0.532-3.051c-0.437-2.587-1.04-6.146-1.707-10.077
								c-0.297-1.779-0.581-3.482-0.84-5.037l0.062,0.049c-2.724,0.197-5.053,0.368-6.71,0.491
								c-0.819,0.054-1.471,0.098-1.928,0.129c-0.217,0.013-0.389,0.023-0.513,0.029c-0.054,0.004-0.096,0.005-0.133,0.008
								c-0.029,0-0.045,0-0.045-0.003c0-0.001,0.015-0.005,0.045-0.008c0.034-0.004,0.079-0.009,0.132-0.015
								c0.123-0.013,0.294-0.027,0.511-0.048c0.456-0.039,1.107-0.093,1.926-0.164c1.655-0.133,3.983-0.316,6.707-0.534l0.051-0.005
								l0.009,0.053c0.261,1.552,0.547,3.255,0.848,5.035c0.652,3.934,1.241,7.494,1.672,10.081
								c0.207,1.287,0.375,2.329,0.493,3.061c0.054,0.354,0.097,0.634,0.127,0.832c0.013,0.09,0.023,0.161,0.03,0.218
								C75.042,133.197,75.045,133.222,75.042,133.223z"/>
						</g>
					</g>
				</g>
				<g>
					<g>
						<g>
							<path style="fill:#365862;" d="M73.385,112.262c0.023,0.027-0.387,0.377-0.851,0.851c-0.465,0.471-0.809,0.885-0.837,0.863
								c-0.025-0.019,0.279-0.471,0.751-0.948C72.918,112.548,73.366,112.236,73.385,112.262z"/>
						</g>
					</g>
				</g>
			</g>
			<g>
				<g>
					<path style="fill:none;stroke:#182E35;stroke-width:0.05;stroke-miterlimit:10;" d="M60.258,115.663"/>
				</g>
			</g>
		</g>
		<rect x="32.37" y="117.052" style="fill:#C9A063;" width="31.123" height="1.164"/>
	</g>
	<g>
		<g>
			<rect x="197.683" y="79.176" style="fill:#727171;" width="9.522" height="1.444"/>
			
				<line style="fill:none;stroke:#727171;stroke-width:2;stroke-miterlimit:10;" x1="202.444" y1="70.533" x2="202.444" y2="80.078"/>
			<circle style="fill:#FFFFFF;stroke:#727171;stroke-miterlimit:10;" cx="202.443" cy="61.268" r="11.163"/>
			<g>
				<g style="enable-background:new    ;">
					<defs>
						<polygon id="SVGID_1_" style="enable-background:new    ;" points="198.707,69.777 198.707,57.2 206.179,52.76 
							206.179,65.336 						"/>
					</defs>
					<clipPath id="SVGID_2_">
						<use xlink:href="#SVGID_1_"  style="overflow:visible;"/>
					</clipPath>
					<g style="clip-path:url(#SVGID_2_);">
						<polyline style="fill:#2C50A2;" points="206.179,52.76 198.708,57.2 198.708,66.08 203.688,63.121 203.688,60.896 
							201.198,62.377 201.198,62.376 201.198,61.64 201.198,58.682 206.179,55.72 206.179,52.76 						"/>
						<polyline style="fill:#E9C41D;" points="206.179,56.454 201.198,59.415 201.198,61.64 201.198,62.376 201.198,61.64 
							203.688,60.16 203.688,60.896 203.688,63.855 198.707,66.816 198.707,69.777 206.179,65.336 206.179,56.454 						"/>
						<polyline style="fill:#F08719;" points="203.688,60.16 201.198,61.64 201.198,62.376 201.198,62.377 203.688,60.896 
							203.688,60.16 						"/>
					</g>
				</g>
			</g>
		</g>
		<g>
			
				<rect x="178.265" y="129.302" style="fill:#B5B5B6;stroke:#FFFFFF;stroke-width:0.5;stroke-miterlimit:10;" width="15.995" height="15.996"/>
			
				<rect x="178.265" y="113.074" style="fill:#2C50A2;stroke:#FFFFFF;stroke-width:0.5;stroke-miterlimit:10;" width="15.995" height="15.996"/>
			
				<rect x="178.265" y="96.848" style="fill:#B5B5B6;stroke:#FFFFFF;stroke-width:0.5;stroke-miterlimit:10;" width="15.995" height="15.996"/>
			
				<rect x="178.265" y="80.62" style="fill:#B5B5B6;stroke:#FFFFFF;stroke-width:0.5;stroke-miterlimit:10;" width="15.995" height="15.997"/>
			
				<rect x="194.445" y="129.302" style="fill:#B5B5B6;stroke:#FFFFFF;stroke-width:0.5;stroke-miterlimit:10;" width="15.997" height="15.996"/>
			
				<rect x="194.445" y="113.074" style="fill:#B5B5B6;stroke:#FFFFFF;stroke-width:0.5;stroke-miterlimit:10;" width="15.997" height="15.996"/>
			
				<rect x="194.445" y="96.848" style="fill:#727171;stroke:#FFFFFF;stroke-width:0.5;stroke-miterlimit:10;" width="15.997" height="15.996"/>
			
				<rect x="194.445" y="80.62" style="fill:#2C50A2;stroke:#FFFFFF;stroke-width:0.5;stroke-miterlimit:10;" width="15.997" height="15.997"/>
			
				<rect x="210.653" y="129.302" style="fill:#E8C41D;stroke:#FFFFFF;stroke-width:0.5;stroke-miterlimit:10;" width="15.995" height="15.996"/>
			
				<rect x="210.653" y="113.074" style="fill:#9FA0A0;stroke:#FFFFFF;stroke-width:0.5;stroke-miterlimit:10;" width="15.995" height="15.996"/>
			
				<rect x="212.554" y="114.861" style="fill:#727171;stroke:#FFFFFF;stroke-width:0.5;stroke-miterlimit:10;" width="12.194" height="12.195"/>
			<polygon style="fill:#898989;stroke:#DCDDDD;stroke-width:0.5;stroke-miterlimit:10;" points="235.639,131.691 226.648,129.187 
				226.648,113.19 235.639,115.694 			"/>
			
				<rect x="210.653" y="96.848" style="fill:#E8C41D;stroke:#FFFFFF;stroke-width:0.5;stroke-miterlimit:10;" width="15.995" height="15.996"/>
			
				<rect x="210.653" y="80.62" style="fill:#B5B5B6;stroke:#FFFFFF;stroke-width:0.5;stroke-miterlimit:10;" width="15.995" height="15.997"/>
			<path style="fill:#FFFFFF;" d="M180.854,90.832c0,0.162-0.131,0.293-0.291,0.293l0,0c-0.162,0-0.293-0.131-0.293-0.293v-4.426
				c0-0.161,0.131-0.293,0.293-0.293l0,0c0.16,0,0.291,0.132,0.291,0.293V90.832z"/>
			<path style="fill:#FFFFFF;" d="M180.854,107.059c0,0.161-0.131,0.293-0.291,0.293l0,0c-0.162,0-0.293-0.132-0.293-0.293v-4.426
				c0-0.162,0.131-0.293,0.293-0.293l0,0c0.16,0,0.291,0.131,0.291,0.293V107.059z"/>
			<path style="fill:#FFFFFF;" d="M196.851,107.29c0,0.159-0.131,0.291-0.292,0.291l0,0c-0.161,0-0.292-0.132-0.292-0.291v-4.426
				c0-0.164,0.131-0.293,0.292-0.293l0,0c0.161,0,0.292,0.129,0.292,0.293V107.29z"/>
			<path style="fill:#FFFFFF;" d="M180.854,123.286c0,0.161-0.131,0.291-0.291,0.291l0,0c-0.162,0-0.293-0.13-0.293-0.291v-4.427
				c0-0.161,0.131-0.293,0.293-0.293l0,0c0.16,0,0.291,0.132,0.291,0.293V123.286z"/>
			<path style="fill:#FFFFFF;" d="M180.854,139.511c0,0.163-0.131,0.295-0.291,0.295l0,0c-0.162,0-0.293-0.132-0.293-0.295v-4.424
				c0-0.162,0.131-0.294,0.293-0.294l0,0c0.16,0,0.291,0.132,0.291,0.294V139.511z"/>
			<path style="fill:#FFFFFF;" d="M196.851,90.947c0,0.162-0.131,0.293-0.292,0.293l0,0c-0.161,0-0.292-0.131-0.292-0.293v-4.426
				c0-0.162,0.131-0.293,0.292-0.293l0,0c0.161,0,0.292,0.131,0.292,0.293V90.947z"/>
			<path style="fill:#FFFFFF;" d="M196.851,123.401c0,0.161-0.131,0.29-0.292,0.29l0,0c-0.161,0-0.292-0.129-0.292-0.29v-4.426
				c0-0.163,0.131-0.293,0.292-0.293l0,0c0.161,0,0.292,0.13,0.292,0.293V123.401z"/>
			<path style="fill:#FFFFFF;" d="M196.851,139.629c0,0.159-0.131,0.29-0.292,0.29l0,0c-0.161,0-0.292-0.131-0.292-0.29v-4.427
				c0-0.161,0.131-0.293,0.292-0.293l0,0c0.161,0,0.292,0.132,0.292,0.293V139.629z"/>
			<path style="fill:#FFFFFF;" d="M212.847,91.063c0,0.161-0.131,0.292-0.293,0.292l0,0c-0.16,0-0.291-0.131-0.291-0.292v-4.426
				c0-0.162,0.131-0.293,0.291-0.293l0,0c0.162,0,0.293,0.131,0.293,0.293V91.063z"/>
			<path style="fill:#FFFFFF;" d="M212.847,107.29c0,0.159-0.131,0.291-0.293,0.291l0,0c-0.16,0-0.291-0.132-0.291-0.291v-4.426
				c0-0.164,0.131-0.293,0.291-0.293l0,0c0.162,0,0.293,0.129,0.293,0.293V107.29z"/>
			<path style="fill:#FFFFFF;" d="M212.847,139.741c0,0.162-0.131,0.293-0.293,0.293l0,0c-0.16,0-0.291-0.131-0.291-0.293v-4.426
				c0-0.161,0.131-0.29,0.291-0.29l0,0c0.162,0,0.293,0.129,0.293,0.29V139.741z"/>
			
				<line style="fill:none;stroke:#FFFFFF;stroke-width:0.5;stroke-miterlimit:10;" x1="210.653" y1="113.074" x2="212.554" y2="114.861"/>
			
				<line style="fill:none;stroke:#FFFFFF;stroke-width:0.5;stroke-miterlimit:10;" x1="212.554" y1="127.057" x2="210.653" y2="129.07"/>
			
				<line style="fill:none;stroke:#FFFFFF;stroke-width:0.5;stroke-miterlimit:10;" x1="224.748" y1="127.057" x2="226.648" y2="129.07"/>
			
				<line style="fill:none;stroke:#FFFFFF;stroke-width:0.5;stroke-miterlimit:10;" x1="224.748" y1="114.861" x2="226.648" y2="113.074"/>
			
				<ellipse style="fill:#DCDDDD;stroke:#898989;stroke-width:0.5;stroke-miterlimit:10;" cx="234.127" cy="121.064" rx="0.255" ry="0.605"/>
			
				<ellipse style="fill:#DCDDDD;stroke:#898989;stroke-width:0.5;stroke-miterlimit:10;" cx="234.127" cy="126.451" rx="0.255" ry="0.605"/>
		</g>
	</g>
</g>
</svg>
