<?xml version="1.0" encoding="iso-8859-1"?>
<!-- Generator: Adobe Illustrator 16.0.0, SVG Export Plug-In . SVG Version: 6.00 Build 0)  -->
<!DOCTYPE svg PUBLIC "-//W3C//DTD SVG 1.1//EN" "http://www.w3.org/Graphics/SVG/1.1/DTD/svg11.dtd">
<svg version="1.1" id="&#x5716;&#x5C64;_1" xmlns="http://www.w3.org/2000/svg" xmlns:xlink="http://www.w3.org/1999/xlink" x="0px"
	 y="0px" width="1280px" height="210px" viewBox="0 0 1280 210" style="enable-background:new 0 0 1280 210;" xml:space="preserve">
<g>
	<g>
		<rect style="fill:#2C50A2;" width="29.475" height="210"/>
		<rect x="4.373" y="0" style="fill:#2E51A2;" width="29.475" height="209.999"/>
		<rect x="8.746" y="0" style="fill:#2F51A2;" width="29.474" height="209.999"/>
		<rect x="13.118" y="0" style="fill:#3052A2;" width="29.475" height="209.999"/>
		<rect x="17.49" y="0" style="fill:#3253A2;" width="29.475" height="209.999"/>
		<rect x="21.863" y="0" style="fill:#3353A2;" width="29.475" height="209.999"/>
		<rect x="26.235" y="0" style="fill:#3454A2;" width="29.475" height="209.999"/>
		<rect x="30.607" y="0" style="fill:#3654A2;" width="29.475" height="209.999"/>
		<rect x="34.98" y="0" style="fill:#3755A2;" width="29.475" height="209.999"/>
		<rect x="39.353" y="0" style="fill:#3856A2;" width="29.475" height="209.999"/>
		<rect x="43.725" y="0" style="fill:#3956A2;" width="29.475" height="209.999"/>
		<rect x="48.098" y="0" style="fill:#3A57A2;" width="29.475" height="209.999"/>
		<rect x="52.47" y="0" style="fill:#3C57A2;" width="29.475" height="209.999"/>
		<rect x="56.843" y="0" style="fill:#3D58A2;" width="29.474" height="209.999"/>
		<rect x="61.215" y="0" style="fill:#3E59A2;" width="29.475" height="209.999"/>
		<rect x="65.588" y="0" style="fill:#3F59A2;" width="29.475" height="209.999"/>
		<rect x="69.96" y="0" style="fill:#405AA2;" width="29.475" height="209.999"/>
		<rect x="74.332" y="0" style="fill:#415AA2;" width="29.475" height="209.999"/>
		<rect x="78.705" y="0" style="fill:#425BA2;" width="29.474" height="209.999"/>
		<rect x="83.076" y="0" style="fill:#445CA2;" width="29.476" height="209.999"/>
		<rect x="87.449" y="0" style="fill:#455CA2;" width="29.475" height="209.999"/>
		<rect x="91.822" y="0" style="fill:#465DA2;" width="29.475" height="209.999"/>
		<rect x="96.194" style="fill:#475DA2;" width="29.475" height="210"/>
		<rect x="100.566" y="0" style="fill:#485EA2;" width="29.475" height="209.999"/>
		<rect x="104.939" y="0" style="fill:#495FA2;" width="29.475" height="209.999"/>
		<rect x="109.312" y="0" style="fill:#4B5FA2;" width="29.475" height="209.999"/>
		<rect x="113.684" y="0" style="fill:#4C60A2;" width="29.476" height="209.999"/>
		<rect x="118.057" y="0" style="fill:#4D61A2;" width="29.475" height="209.999"/>
		<rect x="122.43" y="0" style="fill:#4E61A2;" width="29.475" height="209.999"/>
		<rect x="126.802" y="0" style="fill:#4F62A2;" width="29.474" height="209.999"/>
		<rect x="131.174" style="fill:#5062A2;" width="29.475" height="210"/>
		<rect x="135.547" y="0" style="fill:#5163A2;" width="29.475" height="209.999"/>
		<rect x="139.919" y="0" style="fill:#5264A2;" width="29.475" height="209.999"/>
		<rect x="144.291" y="0" style="fill:#5364A2;" width="29.475" height="209.999"/>
		<rect x="148.664" y="0" style="fill:#5565A2;" width="29.475" height="209.999"/>
		<rect x="153.036" y="0" style="fill:#5666A2;" width="29.475" height="210"/>
		<rect x="157.408" y="0" style="fill:#5766A2;" width="29.475" height="209.999"/>
		<rect x="161.781" y="0" style="fill:#5867A2;" width="29.475" height="209.999"/>
		<rect x="166.154" y="0" style="fill:#5968A2;" width="29.475" height="209.999"/>
		<rect x="170.526" style="fill:#5A68A2;" width="29.475" height="210"/>
		<rect x="174.898" y="0" style="fill:#5B69A2;" width="29.475" height="209.999"/>
		<rect x="179.271" y="0" style="fill:#5C6AA2;" width="29.475" height="209.999"/>
		<rect x="183.644" y="0" style="fill:#5D6AA1;" width="29.475" height="209.999"/>
		<rect x="188.016" style="fill:#5E6BA1;" width="29.475" height="210"/>
		<rect x="192.389" y="0" style="fill:#5F6CA1;" width="29.475" height="209.999"/>
		<rect x="196.761" y="0" style="fill:#606CA1;" width="29.475" height="209.999"/>
		<rect x="201.134" y="0" style="fill:#616DA1;" width="29.474" height="209.999"/>
		<rect x="205.506" y="0" style="fill:#626EA1;" width="29.475" height="209.999"/>
		<rect x="209.879" style="fill:#636EA1;" width="29.475" height="210"/>
		<rect x="214.251" y="0" style="fill:#646FA1;" width="29.474" height="209.999"/>
		<rect x="218.623" y="0" style="fill:#656FA1;" width="29.475" height="209.999"/>
		<rect x="222.996" y="0" style="fill:#6670A1;" width="29.475" height="209.999"/>
		<rect x="227.368" style="fill:#6771A1;" width="29.475" height="210"/>
		<rect x="231.74" y="0" style="fill:#6871A1;" width="29.475" height="209.999"/>
		<rect x="236.113" y="0" style="fill:#6972A1;" width="29.475" height="209.999"/>
		<rect x="240.486" y="0" style="fill:#6A73A1;" width="29.475" height="209.999"/>
		<rect x="244.858" y="0" style="fill:#6B73A0;" width="29.475" height="209.999"/>
		<rect x="249.23" style="fill:#6C74A0;" width="29.475" height="210"/>
		<rect x="253.604" y="0" style="fill:#6D75A0;" width="29.475" height="209.999"/>
		<rect x="257.977" y="0" style="fill:#6E75A0;" width="29.473" height="209.999"/>
		<rect x="262.348" y="0" style="fill:#6F76A0;" width="29.475" height="209.999"/>
		<rect x="266.721" style="fill:#7077A0;" width="29.475" height="210"/>
		<rect x="271.093" y="0" style="fill:#7177A0;" width="29.475" height="209.999"/>
		<rect x="275.465" y="0" style="fill:#7278A0;" width="29.475" height="209.999"/>
		<rect x="279.838" y="0" style="fill:#7379A0;" width="29.475" height="209.999"/>
		<rect x="284.211" style="fill:#73799F;" width="29.475" height="210"/>
		<rect x="288.583" y="0" style="fill:#747A9F;" width="29.475" height="209.999"/>
		<rect x="292.955" y="0" style="fill:#757B9F;" width="29.475" height="209.999"/>
		<rect x="297.328" y="0" style="fill:#767B9F;" width="29.475" height="209.999"/>
		<rect x="301.7" y="0" style="fill:#777C9F;" width="29.475" height="209.999"/>
		<rect x="306.072" style="fill:#787D9F;" width="29.475" height="210"/>
		<rect x="310.445" y="0" style="fill:#797D9F;" width="29.475" height="209.999"/>
		<rect x="314.817" y="0" style="fill:#7A7E9F;" width="29.475" height="209.999"/>
		<rect x="319.189" y="0" style="fill:#7B7F9E;" width="29.475" height="209.999"/>
		<rect x="323.563" y="0" style="fill:#7C7F9E;" width="29.475" height="209.999"/>
		<rect x="327.936" style="fill:#7D809E;" width="29.475" height="210"/>
		<rect x="332.307" y="0" style="fill:#7E819E;" width="29.476" height="209.999"/>
		<rect x="336.68" y="0" style="fill:#7F819E;" width="29.475" height="209.999"/>
		<rect x="341.053" y="0" style="fill:#80829E;" width="29.475" height="209.999"/>
		<rect x="345.425" y="0" style="fill:#81839E;" width="29.475" height="209.999"/>
		<rect x="349.797" style="fill:#82839D;" width="29.475" height="210"/>
		<rect x="354.17" y="0" style="fill:#83849D;" width="29.475" height="209.999"/>
		<rect x="358.542" y="0" style="fill:#84859D;" width="29.476" height="209.999"/>
		<rect x="362.914" y="0" style="fill:#85859D;" width="29.475" height="209.999"/>
		<rect x="367.287" style="fill:#85869D;" width="29.475" height="210"/>
		<rect x="371.66" style="fill:#86879D;" width="29.475" height="210"/>
		<rect x="376.032" style="fill:#87889C;" width="29.474" height="210"/>
		<rect x="380.404" y="0" style="fill:#88889C;" width="29.475" height="209.999"/>
		<rect x="384.777" style="fill:#89899C;" width="29.475" height="210"/>
		<rect x="389.148" style="fill:#8A8A9C;" width="29.477" height="210"/>
		<rect x="393.521" style="fill:#8B8A9C;" width="29.475" height="210"/>
		<rect x="397.895" style="fill:#8C8B9C;" width="29.475" height="210"/>
		<rect x="402.268" y="0" style="fill:#8D8C9B;" width="29.475" height="209.999"/>
		<rect x="406.639" style="fill:#8E8C9B;" width="29.475" height="210"/>
		<rect x="411.012" style="fill:#8F8D9B;" width="29.475" height="210"/>
		<rect x="415.385" style="fill:#908E9B;" width="29.475" height="210"/>
		<rect x="419.757" y="0" style="fill:#918F9B;" width="29.475" height="209.999"/>
		<rect x="424.129" style="fill:#928F9A;" width="29.475" height="210"/>
		<rect x="428.502" style="fill:#93909A;" width="29.475" height="210"/>
		<rect x="432.875" style="fill:#94919A;" width="29.474" height="210"/>
		<rect x="437.246" style="fill:#95919A;" width="29.475" height="210"/>
		<rect x="441.619" y="0" style="fill:#969299;" width="29.475" height="209.999"/>
		<rect x="445.992" style="fill:#979399;" width="29.475" height="210"/>
		<rect x="450.364" y="0" style="fill:#989499;" width="29.475" height="209.999"/>
		<rect x="454.736" y="0" style="fill:#989499;" width="29.475" height="209.999"/>
		<rect x="459.109" y="0" style="fill:#999598;" width="29.475" height="209.999"/>
		<rect x="463.481" style="fill:#9A9698;" width="29.475" height="210"/>
		<rect x="467.854" y="0" style="fill:#9B9698;" width="29.475" height="209.999"/>
		<rect x="472.227" y="0" style="fill:#9C9798;" width="29.475" height="209.999"/>
		<rect x="476.6" y="0" style="fill:#9D9897;" width="29.474" height="209.999"/>
		<rect x="480.971" style="fill:#9E9997;" width="29.475" height="210"/>
		<rect x="485.344" y="0" style="fill:#9F9997;" width="29.475" height="209.999"/>
		<rect x="489.716" y="0" style="fill:#A09A97;" width="29.476" height="209.999"/>
		<rect x="494.089" y="0" style="fill:#A19B96;" width="29.475" height="209.999"/>
		<rect x="498.461" y="0" style="fill:#A29B96;" width="29.475" height="209.999"/>
		<rect x="502.834" y="0" style="fill:#A39C96;" width="29.475" height="209.999"/>
		<rect x="507.207" y="0" style="fill:#A49D95;" width="29.474" height="209.999"/>
		<rect x="511.578" y="0" style="fill:#A59E95;" width="29.475" height="209.999"/>
		<rect x="515.951" y="0" style="fill:#A69E95;" width="29.475" height="209.999"/>
		<rect x="520.324" style="fill:#A79F95;" width="29.475" height="210"/>
		<rect x="524.695" y="0" style="fill:#A7A094;" width="29.475" height="209.999"/>
		<rect x="529.068" y="0" style="fill:#A8A194;" width="29.475" height="209.999"/>
		<rect x="533.441" y="0" style="fill:#A9A194;" width="29.475" height="209.999"/>
		<rect x="537.813" y="0" style="fill:#AAA293;" width="29.475" height="209.999"/>
		<rect x="542.186" y="0" style="fill:#ABA393;" width="29.475" height="209.999"/>
		<rect x="546.559" y="0" style="fill:#ACA393;" width="29.475" height="209.999"/>
		<rect x="550.931" y="0" style="fill:#ADA492;" width="29.475" height="209.999"/>
		<rect x="555.303" y="0" style="fill:#AEA592;" width="29.475" height="209.999"/>
		<rect x="559.676" y="0" style="fill:#AFA692;" width="29.475" height="209.999"/>
		<rect x="564.049" y="0" style="fill:#B0A691;" width="29.474" height="209.999"/>
		<rect x="568.42" y="0" style="fill:#B0A791;" width="29.475" height="209.999"/>
		<rect x="572.793" y="0" style="fill:#B1A891;" width="29.475" height="209.999"/>
		<rect x="577.166" style="fill:#B2A890;" width="29.475" height="210"/>
		<rect x="581.538" y="0" style="fill:#B3A990;" width="29.475" height="209.999"/>
		<rect x="585.91" y="0" style="fill:#B4AA90;" width="29.475" height="209.999"/>
		<rect x="590.283" y="0" style="fill:#B5AB8F;" width="29.475" height="209.999"/>
		<rect x="594.655" y="0" style="fill:#B6AB8F;" width="29.475" height="209.999"/>
		<rect x="599.028" y="0" style="fill:#B7AC8F;" width="29.474" height="209.999"/>
		<rect x="603.4" y="0" style="fill:#B8AD8E;" width="29.475" height="209.999"/>
		<rect x="607.773" y="0" style="fill:#B9AE8E;" width="29.475" height="209.999"/>
		<rect x="612.145" y="0" style="fill:#B9AE8D;" width="29.476" height="209.999"/>
		<rect x="616.518" y="0" style="fill:#BAAF8D;" width="29.475" height="209.999"/>
		<rect x="620.891" y="0" style="fill:#BBB08D;" width="29.475" height="209.999"/>
		<rect x="625.263" y="0" style="fill:#BCB08C;" width="29.475" height="209.999"/>
		<rect x="631.107" y="0" style="fill:#BDB18C;" width="29.474" height="209.999"/>
		<rect x="636.95" y="0" style="fill:#BDB18B;" width="29.475" height="209.999"/>
		<rect x="642.794" y="0" style="fill:#BDB28A;" width="29.475" height="209.999"/>
		<rect x="648.638" y="0" style="fill:#BEB28A;" width="29.474" height="209.999"/>
		<rect x="654.48" y="0" style="fill:#BEB289;" width="29.475" height="209.999"/>
		<rect x="660.324" y="0" style="fill:#BFB389;" width="29.475" height="209.999"/>
		<rect x="666.168" y="0" style="fill:#BFB388;" width="29.475" height="209.999"/>
		<rect x="672.012" y="0" style="fill:#BFB387;" width="29.475" height="209.999"/>
		<rect x="677.855" y="0" style="fill:#C0B487;" width="29.475" height="209.999"/>
		<rect x="683.699" y="0" style="fill:#C0B486;" width="29.475" height="209.999"/>
		<rect x="689.543" y="0" style="fill:#C1B585;" width="29.475" height="209.999"/>
		<rect x="695.387" y="0" style="fill:#C1B585;" width="29.474" height="209.999"/>
		<rect x="701.229" style="fill:#C1B584;" width="29.475" height="210"/>
		<rect x="707.073" y="0" style="fill:#C2B683;" width="29.475" height="209.999"/>
		<rect x="712.917" y="0" style="fill:#C2B683;" width="29.474" height="209.999"/>
		<rect x="718.76" y="0" style="fill:#C3B782;" width="29.476" height="209.999"/>
		<rect x="724.604" style="fill:#C3B781;" width="29.475" height="210"/>
		<rect x="730.447" y="0" style="fill:#C3B781;" width="29.475" height="209.999"/>
		<rect x="736.291" y="0" style="fill:#C4B880;" width="29.475" height="209.999"/>
		<rect x="742.135" y="0" style="fill:#C4B880;" width="29.475" height="209.999"/>
		<rect x="747.979" y="0" style="fill:#C5B87F;" width="29.475" height="209.999"/>
		<rect x="753.821" y="0" style="fill:#C5B97E;" width="29.476" height="209.999"/>
		<rect x="759.665" y="0" style="fill:#C6B97D;" width="29.475" height="209.999"/>
		<rect x="765.509" y="0" style="fill:#C6BA7D;" width="29.475" height="209.999"/>
		<rect x="771.353" style="fill:#C6BA7C;" width="29.475" height="210"/>
		<rect x="777.195" y="0" style="fill:#C7BA7B;" width="29.475" height="209.999"/>
		<rect x="783.039" y="0" style="fill:#C7BB7B;" width="29.475" height="209.999"/>
		<rect x="788.883" y="0" style="fill:#C8BB7A;" width="29.475" height="209.999"/>
		<rect x="794.727" style="fill:#C8BB79;" width="29.475" height="210"/>
		<rect x="800.57" y="0" style="fill:#C8BC79;" width="29.475" height="209.999"/>
		<rect x="806.414" y="0" style="fill:#C9BC78;" width="29.475" height="209.999"/>
		<rect x="812.258" style="fill:#C9BD77;" width="29.475" height="210"/>
		<rect x="818.102" y="0" style="fill:#CABD76;" width="29.475" height="209.999"/>
		<rect x="823.944" y="0" style="fill:#CABD76;" width="29.475" height="209.999"/>
		<rect x="829.788" y="0" style="fill:#CBBE75;" width="29.475" height="209.999"/>
		<rect x="835.632" y="0" style="fill:#CBBE74;" width="29.474" height="209.999"/>
		<rect x="841.475" y="0" style="fill:#CBBF73;" width="29.475" height="210"/>
		<rect x="847.318" y="0" style="fill:#CCBF73;" width="29.475" height="210"/>
		<rect x="853.162" y="0" style="fill:#CCBF72;" width="29.475" height="209.999"/>
		<rect x="859.006" y="0" style="fill:#CDC071;" width="29.475" height="209.999"/>
		<rect x="864.85" y="0" style="fill:#CDC070;" width="29.475" height="210"/>
		<rect x="870.693" y="0" style="fill:#CDC06F;" width="29.475" height="209.999"/>
		<rect x="876.536" y="0" style="fill:#CEC16F;" width="29.476" height="209.999"/>
		<rect x="882.381" style="fill:#CEC16E;" width="29.475" height="210"/>
		<rect x="888.225" y="0" style="fill:#CEC26D;" width="29.474" height="209.999"/>
		<rect x="894.067" y="0" style="fill:#CFC26C;" width="29.475" height="209.999"/>
		<rect x="899.91" y="0" style="fill:#CFC26B;" width="29.476" height="209.999"/>
		<rect x="905.754" y="0" style="fill:#D0C36B;" width="29.476" height="209.999"/>
		<rect x="911.598" style="fill:#D0C36A;" width="29.475" height="210"/>
		<rect x="917.441" style="fill:#D1C369;" width="29.475" height="210"/>
		<rect x="923.285" y="0" style="fill:#D1C468;" width="29.475" height="209.999"/>
		<rect x="929.129" y="0" style="fill:#D1C467;" width="29.475" height="209.999"/>
		<rect x="934.973" style="fill:#D2C566;" width="29.475" height="210"/>
		<rect x="940.816" y="0" style="fill:#D2C566;" width="29.474" height="209.999"/>
		<rect x="946.659" y="0" style="fill:#D3C565;" width="29.475" height="209.999"/>
		<rect x="952.503" y="0" style="fill:#D3C664;" width="29.475" height="209.999"/>
		<rect x="958.347" y="0" style="fill:#D3C663;" width="29.474" height="209.999"/>
		<rect x="964.19" style="fill:#D4C762;" width="29.474" height="210"/>
		<rect x="970.033" y="0" style="fill:#D4C761;" width="29.475" height="209.999"/>
		<rect x="975.877" y="0" style="fill:#D5C760;" width="29.475" height="209.999"/>
		<rect x="981.721" y="0" style="fill:#D5C85F;" width="29.475" height="209.999"/>
		<rect x="987.564" y="0" style="fill:#D5C85E;" width="29.475" height="209.999"/>
		<rect x="993.408" y="0" style="fill:#D6C85D;" width="29.475" height="209.999"/>
		<rect x="999.252" style="fill:#D6C95D;" width="29.475" height="210"/>
		<rect x="1005.096" style="fill:#D7C95C;" width="29.474" height="210"/>
		<rect x="1010.938" y="0" style="fill:#D7CA5B;" width="29.475" height="209.999"/>
		<rect x="1016.782" y="0" style="fill:#D7CA5A;" width="29.475" height="209.999"/>
		<rect x="1022.626" y="0" style="fill:#D8CA59;" width="29.474" height="209.999"/>
		<rect x="1028.469" y="0" style="fill:#D8CB58;" width="29.476" height="209.999"/>
		<rect x="1034.313" y="0" style="fill:#D9CB57;" width="29.475" height="209.999"/>
		<rect x="1040.156" style="fill:#D9CB56;" width="29.475" height="210"/>
		<rect x="1046" style="fill:#D9CC55;" width="29.475" height="210"/>
		<rect x="1051.844" y="0" style="fill:#DACC54;" width="29.475" height="209.999"/>
		<rect x="1057.688" y="0" style="fill:#DACD53;" width="29.475" height="209.999"/>
		<rect x="1063.531" y="0" style="fill:#DBCD52;" width="29.475" height="209.999"/>
		<rect x="1069.375" y="0" style="fill:#DBCD51;" width="29.475" height="209.999"/>
		<rect x="1075.218" y="0" style="fill:#DBCE50;" width="29.475" height="209.999"/>
		<rect x="1081.062" style="fill:#DCCE4E;" width="29.475" height="210"/>
		<rect x="1086.905" style="fill:#DCCF4D;" width="29.475" height="210"/>
		<rect x="1092.749" style="fill:#DDCF4C;" width="29.475" height="210"/>
		<rect x="1098.593" style="fill:#DDCF4B;" width="29.475" height="210"/>
		<rect x="1104.436" style="fill:#DED04A;" width="29.475" height="210"/>
		<rect x="1110.28" y="0" style="fill:#DED049;" width="29.474" height="209.999"/>
		<rect x="1116.124" style="fill:#DED148;" width="29.474" height="210"/>
		<rect x="1121.967" style="fill:#DFD147;" width="29.475" height="210"/>
		<rect x="1127.811" style="fill:#DFD145;" width="29.475" height="210"/>
		<rect x="1133.654" style="fill:#E0D244;" width="29.475" height="210"/>
		<rect x="1139.497" style="fill:#E0D243;" width="29.475" height="210"/>
		<rect x="1145.341" y="0" style="fill:#E1D242;" width="29.475" height="209.999"/>
		<rect x="1151.186" y="0" style="fill:#E1D340;" width="29.473" height="209.999"/>
		<rect x="1157.028" style="fill:#E1D33F;" width="29.475" height="210"/>
		<rect x="1162.872" y="0" style="fill:#E2D43D;" width="29.475" height="209.999"/>
		<rect x="1168.715" y="0" style="fill:#E2D43C;" width="29.475" height="209.999"/>
		<rect x="1174.559" y="0" style="fill:#E3D43B;" width="29.475" height="209.999"/>
		<rect x="1180.402" y="0" style="fill:#E3D539;" width="29.475" height="209.999"/>
		<rect x="1186.246" y="0" style="fill:#E3D538;" width="29.475" height="209.999"/>
		<rect x="1192.09" y="0" style="fill:#E4D636;" width="29.475" height="209.999"/>
		<rect x="1197.934" y="0" style="fill:#E4D634;" width="29.475" height="209.999"/>
		<rect x="1203.776" y="0" style="fill:#E5D633;" width="29.476" height="209.999"/>
		<rect x="1209.62" y="0" style="fill:#E5D731;" width="29.475" height="209.999"/>
		<rect x="1215.464" y="0" style="fill:#E5D72F;" width="29.475" height="209.999"/>
		<rect x="1221.308" y="0" style="fill:#E6D72D;" width="29.475" height="209.999"/>
		<rect x="1227.151" y="0" style="fill:#E6D82B;" width="29.475" height="209.999"/>
		<rect x="1232.994" y="0" style="fill:#E7D829;" width="29.475" height="209.999"/>
		<rect x="1238.838" y="0" style="fill:#E7D927;" width="29.475" height="209.999"/>
		<rect x="1244.682" y="0" style="fill:#E7D925;" width="29.475" height="209.999"/>
		<rect x="1250.525" y="0" style="fill:#E8D923;" width="29.475" height="209.999"/>
	</g>
	<g>
		<rect x="612.036" y="64.541" style="fill:#2C50A2;" width="3.464" height="0.998"/>
		<rect x="611.521" y="64.541" style="fill:#2E51A2;" width="3.464" height="0.998"/>
		<rect x="611.008" y="64.541" style="fill:#2F51A2;" width="3.464" height="0.998"/>
		<rect x="610.494" y="64.541" style="fill:#3052A2;" width="3.464" height="0.998"/>
		<rect x="609.98" y="64.541" style="fill:#3253A2;" width="3.464" height="0.998"/>
		<rect x="609.467" y="64.541" style="fill:#3353A2;" width="3.464" height="0.998"/>
		<rect x="608.953" y="64.541" style="fill:#3454A2;" width="3.463" height="0.998"/>
		<rect x="608.439" y="64.541" style="fill:#3654A2;" width="3.463" height="0.998"/>
		<rect x="607.926" y="64.541" style="fill:#3755A2;" width="3.463" height="0.998"/>
		<rect x="607.412" y="64.541" style="fill:#3856A2;" width="3.463" height="0.999"/>
		<rect x="606.898" y="64.541" style="fill:#3956A2;" width="3.463" height="0.998"/>
		<rect x="606.384" y="64.541" style="fill:#3A57A2;" width="3.464" height="0.998"/>
		<rect x="605.87" y="64.541" style="fill:#3C57A2;" width="3.464" height="0.998"/>
		<rect x="605.355" y="64.541" style="fill:#3D58A2;" width="3.465" height="0.998"/>
		<rect x="604.842" y="64.541" style="fill:#3E59A2;" width="3.465" height="0.998"/>
		<rect x="604.328" y="64.542" style="fill:#3F59A2;" width="3.465" height="0.997"/>
		<rect x="603.814" y="64.542" style="fill:#405AA2;" width="3.464" height="0.997"/>
		<rect x="603.301" y="64.541" style="fill:#415AA2;" width="3.464" height="0.998"/>
		<rect x="602.787" y="64.541" style="fill:#425BA2;" width="3.464" height="0.999"/>
		<rect x="602.273" y="64.541" style="fill:#445CA2;" width="3.464" height="0.999"/>
		<rect x="601.76" y="64.541" style="fill:#455CA2;" width="3.464" height="0.998"/>
		<rect x="601.246" y="64.541" style="fill:#465DA2;" width="3.463" height="0.999"/>
		<rect x="600.731" y="64.541" style="fill:#475DA2;" width="3.464" height="0.998"/>
		<rect x="600.219" y="64.541" style="fill:#485EA2;" width="3.463" height="0.998"/>
		<rect x="599.704" y="64.541" style="fill:#495FA2;" width="3.464" height="0.998"/>
		<rect x="599.191" y="64.542" style="fill:#4B5FA2;" width="3.463" height="0.997"/>
		<rect x="598.676" y="64.541" style="fill:#4C60A2;" width="3.465" height="0.999"/>
		<rect x="598.163" y="64.541" style="fill:#4D61A2;" width="3.464" height="0.998"/>
		<rect x="597.648" y="64.541" style="fill:#4E61A2;" width="3.465" height="0.998"/>
		<rect x="597.135" y="64.541" style="fill:#4F62A2;" width="3.465" height="0.999"/>
		<rect x="596.621" y="64.541" style="fill:#5062A2;" width="3.465" height="0.998"/>
		<rect x="596.107" y="64.541" style="fill:#5163A2;" width="3.464" height="0.998"/>
		<rect x="595.594" y="64.542" style="fill:#5264A2;" width="3.464" height="0.997"/>
		<rect x="595.08" y="64.542" style="fill:#5364A2;" width="3.463" height="0.997"/>
		<rect x="594.566" y="64.541" style="fill:#5565A2;" width="3.464" height="0.998"/>
		<rect x="594.053" y="64.542" style="fill:#5666A2;" width="3.463" height="0.997"/>
		<rect x="593.539" y="64.541" style="fill:#5766A2;" width="3.463" height="0.999"/>
		<rect x="593.025" y="64.541" style="fill:#5867A2;" width="3.463" height="0.998"/>
		<rect x="592.511" y="64.541" style="fill:#5968A2;" width="3.464" height="0.998"/>
		<rect x="591.997" y="64.541" style="fill:#5A68A2;" width="3.464" height="0.999"/>
		<rect x="591.483" y="64.542" style="fill:#5B69A2;" width="3.464" height="0.997"/>
		<rect x="590.969" y="64.541" style="fill:#5C6AA2;" width="3.465" height="0.998"/>
		<rect x="590.455" y="64.542" style="fill:#5D6AA1;" width="3.465" height="0.997"/>
		<rect x="589.941" y="64.542" style="fill:#5E6BA1;" width="3.465" height="0.997"/>
		<rect x="589.428" y="64.541" style="fill:#5F6CA1;" width="3.464" height="0.998"/>
		<rect x="588.914" y="64.541" style="fill:#606CA1;" width="3.464" height="0.998"/>
		<rect x="588.4" y="64.541" style="fill:#616DA1;" width="3.464" height="0.999"/>
		<rect x="587.887" y="64.541" style="fill:#626EA1;" width="3.463" height="0.998"/>
		<rect x="587.373" y="64.541" style="fill:#636EA1;" width="3.464" height="0.998"/>
		<rect x="586.859" y="64.541" style="fill:#646FA1;" width="3.463" height="0.999"/>
		<rect x="586.346" y="64.542" style="fill:#656FA1;" width="3.463" height="0.997"/>
		<rect x="585.832" y="64.541" style="fill:#6670A1;" width="3.463" height="0.998"/>
		<rect x="585.318" y="64.542" style="fill:#6771A1;" width="3.463" height="0.997"/>
		<rect x="584.804" y="64.541" style="fill:#6871A1;" width="3.464" height="0.998"/>
		<rect x="584.29" y="64.541" style="fill:#6972A1;" width="3.464" height="0.998"/>
		<rect x="583.776" y="64.541" style="fill:#6A73A1;" width="3.464" height="0.998"/>
		<rect x="583.262" y="64.541" style="fill:#6B73A0;" width="3.465" height="0.999"/>
		<rect x="582.748" y="64.542" style="fill:#6C74A0;" width="3.465" height="0.998"/>
		<rect x="582.234" y="64.541" style="fill:#6D75A0;" width="3.465" height="0.998"/>
		<rect x="581.721" y="64.541" style="fill:#6E75A0;" width="3.465" height="0.999"/>
		<rect x="581.207" y="64.542" style="fill:#6F76A0;" width="3.464" height="0.998"/>
		<rect x="580.693" y="64.541" style="fill:#7077A0;" width="3.464" height="0.998"/>
		<rect x="580.18" y="64.542" style="fill:#7177A0;" width="3.463" height="0.997"/>
		<rect x="579.666" y="64.542" style="fill:#7278A0;" width="3.463" height="0.998"/>
		<rect x="579.152" y="64.541" style="fill:#7379A0;" width="3.463" height="0.999"/>
		<rect x="578.639" y="64.541" style="fill:#73799F;" width="3.463" height="0.998"/>
		<rect x="578.125" y="64.541" style="fill:#747A9F;" width="3.463" height="0.998"/>
		<rect x="577.611" y="64.542" style="fill:#757B9F;" width="3.463" height="0.998"/>
		<rect x="577.097" y="64.541" style="fill:#767B9F;" width="3.464" height="0.998"/>
		<rect x="576.583" y="64.541" style="fill:#777C9F;" width="3.464" height="0.999"/>
		<rect x="576.068" y="64.542" style="fill:#787D9F;" width="3.465" height="0.998"/>
		<rect x="575.555" y="64.541" style="fill:#797D9F;" width="3.465" height="0.998"/>
		<rect x="575.041" y="64.541" style="fill:#7A7E9F;" width="3.465" height="0.998"/>
		<rect x="574.527" y="64.542" style="fill:#7B7F9E;" width="3.465" height="0.998"/>
		<rect x="574.014" y="64.542" style="fill:#7C7F9E;" width="3.464" height="0.997"/>
		<rect x="573.5" y="64.541" style="fill:#7D809E;" width="3.464" height="0.998"/>
		<rect x="572.986" y="64.541" style="fill:#7E819E;" width="3.464" height="0.998"/>
		<rect x="572.473" y="64.541" style="fill:#7F819E;" width="3.464" height="0.999"/>
		<rect x="571.959" y="64.541" style="fill:#80829E;" width="3.463" height="0.998"/>
		<rect x="571.445" y="64.542" style="fill:#81839E;" width="3.463" height="0.998"/>
		<rect x="570.932" y="64.541" style="fill:#82839D;" width="3.463" height="0.999"/>
		<rect x="570.417" y="64.541" style="fill:#83849D;" width="3.464" height="0.999"/>
		<rect x="569.903" y="64.541" style="fill:#84859D;" width="3.464" height="0.999"/>
		<rect x="569.389" y="64.542" style="fill:#85859D;" width="3.465" height="0.998"/>
		<rect x="568.876" y="64.542" style="fill:#85869D;" width="3.464" height="0.997"/>
		<rect x="568.361" y="64.541" style="fill:#86879D;" width="3.465" height="0.998"/>
		<rect x="567.848" y="64.541" style="fill:#87889C;" width="3.465" height="0.998"/>
		<rect x="567.334" y="64.541" style="fill:#88889C;" width="3.465" height="0.999"/>
		<rect x="566.82" y="64.541" style="fill:#89899C;" width="3.465" height="0.998"/>
		<rect x="566.307" y="64.542" style="fill:#8A8A9C;" width="3.464" height="0.998"/>
		<rect x="565.793" y="64.541" style="fill:#8B8A9C;" width="3.464" height="0.999"/>
		<rect x="565.279" y="64.541" style="fill:#8C8B9C;" width="3.464" height="0.999"/>
		<rect x="564.766" y="64.541" style="fill:#8D8C9B;" width="3.463" height="0.998"/>
		<rect x="564.252" y="64.542" style="fill:#8E8C9B;" width="3.463" height="0.998"/>
		<rect x="563.738" y="64.542" style="fill:#8F8D9B;" width="3.463" height="0.998"/>
		<rect x="563.225" y="64.541" style="fill:#908E9B;" width="3.463" height="0.998"/>
		<rect x="562.709" y="64.541" style="fill:#918F9B;" width="3.465" height="0.998"/>
		<rect x="562.196" y="64.541" style="fill:#928F9A;" width="3.464" height="0.999"/>
		<rect x="561.682" y="64.541" style="fill:#93909A;" width="3.465" height="0.998"/>
		<rect x="561.168" y="64.541" style="fill:#94919A;" width="3.465" height="0.998"/>
		<rect x="560.654" y="64.541" style="fill:#95919A;" width="3.465" height="0.999"/>
		<rect x="560.141" y="64.542" style="fill:#969299;" width="3.465" height="0.997"/>
		<rect x="559.627" y="64.541" style="fill:#979399;" width="3.464" height="0.998"/>
		<rect x="559.113" y="64.542" style="fill:#989499;" width="3.465" height="0.997"/>
		<rect x="558.6" y="64.542" style="fill:#989499;" width="3.465" height="0.997"/>
		<rect x="558.086" y="64.541" style="fill:#999598;" width="3.464" height="0.998"/>
		<rect x="557.572" y="64.541" style="fill:#9A9698;" width="3.464" height="0.998"/>
		<rect x="557.059" y="64.541" style="fill:#9B9698;" width="3.463" height="0.999"/>
		<rect x="556.545" y="64.541" style="fill:#9C9798;" width="3.463" height="0.998"/>
		<rect x="556.03" y="64.541" style="fill:#9D9897;" width="3.464" height="0.998"/>
		<rect x="555.517" y="64.541" style="fill:#9E9997;" width="3.464" height="0.999"/>
		<rect x="555.002" y="64.542" style="fill:#9F9997;" width="3.465" height="0.997"/>
		<rect x="554.489" y="64.541" style="fill:#A09A97;" width="3.464" height="0.999"/>
		<rect x="553.975" y="64.541" style="fill:#A19B96;" width="3.465" height="0.998"/>
		<rect x="553.461" y="64.542" style="fill:#A29B96;" width="3.465" height="0.997"/>
		<rect x="552.947" y="64.541" style="fill:#A39C96;" width="3.465" height="0.998"/>
		<rect x="552.434" y="64.541" style="fill:#A49D95;" width="3.464" height="0.998"/>
		<rect x="551.92" y="64.541" style="fill:#A59E95;" width="3.464" height="0.999"/>
		<rect x="551.406" y="64.541" style="fill:#A69E95;" width="3.464" height="0.998"/>
		<rect x="550.893" y="64.541" style="fill:#A79F95;" width="3.464" height="0.998"/>
		<rect x="550.379" y="64.542" style="fill:#A7A094;" width="3.463" height="0.997"/>
		<rect x="549.865" y="64.541" style="fill:#A8A194;" width="3.463" height="0.998"/>
		<rect x="549.352" y="64.541" style="fill:#A9A194;" width="3.463" height="0.999"/>
		<rect x="548.838" y="64.541" style="fill:#AAA293;" width="3.463" height="0.998"/>
		<rect x="548.324" y="64.542" style="fill:#ABA393;" width="3.463" height="0.997"/>
		<rect x="547.81" y="64.541" style="fill:#ACA393;" width="3.464" height="0.998"/>
		<rect x="547.295" y="64.541" style="fill:#ADA492;" width="3.465" height="0.998"/>
		<rect x="546.781" y="64.541" style="fill:#AEA592;" width="3.465" height="0.998"/>
		<rect x="546.268" y="64.541" style="fill:#AFA692;" width="3.465" height="0.998"/>
		<rect x="545.754" y="64.542" style="fill:#B0A691;" width="3.465" height="0.997"/>
		<rect x="545.24" y="64.541" style="fill:#B0A791;" width="3.465" height="0.998"/>
		<rect x="544.727" y="64.541" style="fill:#B1A891;" width="3.464" height="0.998"/>
		<rect x="544.213" y="64.541" style="fill:#B2A890;" width="3.465" height="0.998"/>
		<rect x="543.699" y="64.541" style="fill:#B3A990;" width="3.464" height="0.998"/>
		<rect x="543.186" y="64.541" style="fill:#B4AA90;" width="3.464" height="0.998"/>
		<rect x="542.672" y="64.541" style="fill:#B5AB8F;" width="3.463" height="0.998"/>
		<rect x="542.158" y="64.541" style="fill:#B6AB8F;" width="3.463" height="0.998"/>
		<rect x="541.645" y="64.541" style="fill:#B7AC8F;" width="3.463" height="0.998"/>
		<rect x="541.13" y="64.541" style="fill:#B8AD8E;" width="3.464" height="0.998"/>
		<rect x="540.617" y="64.541" style="fill:#B9AE8E;" width="3.463" height="0.998"/>
		<rect x="540.102" y="64.541" style="fill:#B9AE8D;" width="3.465" height="0.998"/>
		<rect x="539.589" y="64.541" style="fill:#BAAF8D;" width="3.464" height="0.998"/>
		<rect x="539.074" y="64.541" style="fill:#BBB08D;" width="3.465" height="0.998"/>
		<rect x="538.561" y="64.541" style="fill:#BCB08C;" width="3.465" height="0.998"/>
		<rect x="537.875" y="64.541" style="fill:#BDB18C;" width="3.463" height="0.998"/>
		<rect x="537.188" y="64.541" style="fill:#BDB18B;" width="3.465" height="0.999"/>
		<rect x="536.501" y="64.541" style="fill:#BDB28A;" width="3.464" height="0.998"/>
		<rect x="535.814" y="64.541" style="fill:#BEB28A;" width="3.463" height="0.998"/>
		<rect x="535.128" y="64.541" style="fill:#BEB289;" width="3.464" height="0.999"/>
		<rect x="534.441" y="64.541" style="fill:#BFB389;" width="3.463" height="0.998"/>
		<rect x="533.754" y="64.541" style="fill:#BFB388;" width="3.465" height="0.998"/>
		<rect x="533.068" y="64.541" style="fill:#BFB387;" width="3.463" height="0.998"/>
		<rect x="532.381" y="64.541" style="fill:#C0B487;" width="3.464" height="0.998"/>
		<rect x="531.694" y="64.541" style="fill:#C0B486;" width="3.464" height="0.998"/>
		<rect x="531.008" y="64.541" style="fill:#C1B585;" width="3.464" height="0.999"/>
		<rect x="530.32" y="64.541" style="fill:#C1B585;" width="3.465" height="0.998"/>
		<rect x="529.635" y="64.541" style="fill:#C1B584;" width="3.463" height="0.998"/>
		<rect x="528.947" y="64.541" style="fill:#C2B683;" width="3.465" height="0.998"/>
		<rect x="528.261" y="64.541" style="fill:#C2B683;" width="3.464" height="0.998"/>
		<rect x="527.574" y="64.541" style="fill:#C3B782;" width="3.464" height="0.998"/>
		<rect x="526.888" y="64.541" style="fill:#C3B781;" width="3.464" height="0.999"/>
		<rect x="526.201" y="64.541" style="fill:#C3B781;" width="3.463" height="0.998"/>
		<rect x="525.514" y="64.541" style="fill:#C4B880;" width="3.465" height="0.998"/>
		<rect x="524.828" y="64.541" style="fill:#C4B880;" width="3.463" height="0.998"/>
		<rect x="524.141" y="64.541" style="fill:#C5B87F;" width="3.464" height="0.998"/>
		<rect x="523.454" y="64.541" style="fill:#C5B97E;" width="3.464" height="0.998"/>
		<rect x="522.768" y="64.541" style="fill:#C6B97D;" width="3.464" height="0.999"/>
		<rect x="522.08" y="64.541" style="fill:#C6BA7D;" width="3.465" height="0.998"/>
		<rect x="521.395" y="64.541" style="fill:#C6BA7C;" width="3.463" height="0.998"/>
		<rect x="520.707" y="64.541" style="fill:#C7BA7B;" width="3.465" height="0.998"/>
		<rect x="520.021" y="64.541" style="fill:#C7BB7B;" width="3.464" height="0.998"/>
		<rect x="519.334" y="64.541" style="fill:#C8BB7A;" width="3.465" height="0.998"/>
		<rect x="518.647" y="64.541" style="fill:#C8BB79;" width="3.464" height="0.998"/>
		<rect x="517.961" y="64.541" style="fill:#C8BC79;" width="3.464" height="0.998"/>
		<rect x="517.273" y="64.541" style="fill:#C9BC78;" width="3.465" height="0.998"/>
		<rect x="516.588" y="64.541" style="fill:#C9BD77;" width="3.463" height="0.999"/>
		<rect x="515.9" y="64.541" style="fill:#CABD76;" width="3.465" height="0.998"/>
		<rect x="515.214" y="64.541" style="fill:#CABD76;" width="3.464" height="0.998"/>
		<rect x="514.527" y="64.541" style="fill:#CBBE75;" width="3.464" height="0.999"/>
		<rect x="513.841" y="64.541" style="fill:#CBBE74;" width="3.464" height="0.998"/>
		<rect x="513.154" y="64.541" style="fill:#CBBF73;" width="3.463" height="0.998"/>
		<rect x="512.467" y="64.541" style="fill:#CCBF73;" width="3.465" height="0.998"/>
		<rect x="511.781" y="64.541" style="fill:#CCBF72;" width="3.463" height="0.998"/>
		<rect x="511.094" y="64.542" style="fill:#CDC071;" width="3.464" height="0.997"/>
		<rect x="510.407" y="64.541" style="fill:#CDC070;" width="3.464" height="0.998"/>
		<rect x="509.721" y="64.541" style="fill:#CDC06F;" width="3.464" height="0.998"/>
		<rect x="509.033" y="64.541" style="fill:#CEC16F;" width="3.465" height="0.998"/>
		<rect x="508.348" y="64.542" style="fill:#CEC16E;" width="3.464" height="0.997"/>
		<rect x="507.66" y="64.542" style="fill:#CEC26D;" width="3.465" height="0.997"/>
		<rect x="506.974" y="64.542" style="fill:#CFC26C;" width="3.464" height="0.997"/>
		<rect x="506.287" y="64.541" style="fill:#CFC26B;" width="3.465" height="0.999"/>
		<rect x="505.601" y="64.541" style="fill:#D0C36B;" width="3.464" height="0.998"/>
		<rect x="504.914" y="64.541" style="fill:#D0C36A;" width="3.463" height="0.998"/>
		<rect x="504.227" y="64.541" style="fill:#D1C369;" width="3.465" height="0.999"/>
		<rect x="503.541" y="64.542" style="fill:#D1C468;" width="3.463" height="0.997"/>
		<rect x="502.854" y="64.542" style="fill:#D1C467;" width="3.464" height="0.997"/>
		<rect x="502.167" y="64.541" style="fill:#D2C566;" width="3.464" height="0.998"/>
		<rect x="501.48" y="64.541" style="fill:#D2C566;" width="3.464" height="0.998"/>
		<rect x="500.794" y="64.541" style="fill:#D3C565;" width="3.464" height="0.999"/>
		<rect x="500.107" y="64.541" style="fill:#D3C664;" width="3.463" height="0.998"/>
		<rect x="499.42" y="64.541" style="fill:#D3C663;" width="3.465" height="0.999"/>
		<rect x="498.734" y="64.542" style="fill:#D4C762;" width="3.463" height="0.997"/>
		<rect x="498.047" y="64.542" style="fill:#D4C761;" width="3.464" height="0.997"/>
		<rect x="497.36" y="64.541" style="fill:#D5C760;" width="3.464" height="0.998"/>
		<rect x="496.674" y="64.542" style="fill:#D5C85F;" width="3.464" height="0.997"/>
		<rect x="495.986" y="64.541" style="fill:#D5C85E;" width="3.465" height="0.999"/>
		<rect x="495.301" y="64.541" style="fill:#D6C85D;" width="3.463" height="0.999"/>
		<rect x="494.613" y="64.542" style="fill:#D6C95D;" width="3.465" height="0.997"/>
		<rect x="493.927" y="64.542" style="fill:#D7C95C;" width="3.464" height="0.997"/>
		<rect x="493.24" y="64.541" style="fill:#D7CA5B;" width="3.465" height="0.999"/>
		<rect x="492.554" y="64.541" style="fill:#D7CA5A;" width="3.464" height="0.998"/>
		<rect x="491.867" y="64.541" style="fill:#D8CA59;" width="3.463" height="0.999"/>
		<rect x="491.18" y="64.541" style="fill:#D8CB58;" width="3.465" height="0.999"/>
		<rect x="490.494" y="64.542" style="fill:#D9CB57;" width="3.463" height="0.997"/>
		<rect x="489.807" y="64.541" style="fill:#D9CB56;" width="3.464" height="0.998"/>
		<rect x="489.12" y="64.542" style="fill:#D9CC55;" width="3.464" height="0.997"/>
		<rect x="488.434" y="64.541" style="fill:#DACC54;" width="3.464" height="0.999"/>
		<rect x="487.746" y="64.541" style="fill:#DACD53;" width="3.465" height="0.999"/>
		<rect x="487.061" y="64.541" style="fill:#DBCD52;" width="3.464" height="0.999"/>
		<rect x="486.373" y="64.542" style="fill:#DBCD51;" width="3.465" height="0.997"/>
		<rect x="485.688" y="64.541" style="fill:#DBCE50;" width="3.463" height="0.999"/>
		<rect x="485" y="64.541" style="fill:#DCCE4E;" width="3.464" height="0.998"/>
		<rect x="484.313" y="64.542" style="fill:#DCCF4D;" width="3.464" height="0.998"/>
		<rect x="483.627" y="64.541" style="fill:#DDCF4C;" width="3.464" height="0.999"/>
		<rect x="482.939" y="64.542" style="fill:#DDCF4B;" width="3.465" height="0.998"/>
		<rect x="482.254" y="64.541" style="fill:#DED04A;" width="3.463" height="0.998"/>
		<rect x="481.566" y="64.542" style="fill:#DED049;" width="3.465" height="0.998"/>
		<rect x="480.88" y="64.541" style="fill:#DED148;" width="3.464" height="0.998"/>
		<rect x="480.193" y="64.541" style="fill:#DFD147;" width="3.464" height="0.998"/>
		<rect x="479.506" y="64.541" style="fill:#DFD145;" width="3.465" height="0.998"/>
		<rect x="478.82" y="64.542" style="fill:#E0D244;" width="3.463" height="0.997"/>
		<rect x="478.134" y="64.541" style="fill:#E0D243;" width="3.464" height="0.998"/>
		<rect x="477.447" y="64.541" style="fill:#E1D242;" width="3.463" height="0.998"/>
		<rect x="476.76" y="64.541" style="fill:#E1D340;" width="3.464" height="0.998"/>
		<rect x="476.073" y="64.541" style="fill:#E1D33F;" width="3.464" height="0.999"/>
		<rect x="475.387" y="64.541" style="fill:#E2D43D;" width="3.464" height="0.999"/>
		<rect x="474.699" y="64.542" style="fill:#E2D43C;" width="3.465" height="0.998"/>
		<rect x="474.014" y="64.541" style="fill:#E3D43B;" width="3.463" height="0.998"/>
		<rect x="473.326" y="64.541" style="fill:#E3D539;" width="3.465" height="0.998"/>
		<rect x="472.641" y="64.541" style="fill:#E3D538;" width="3.463" height="0.998"/>
		<rect x="471.953" y="64.541" style="fill:#E4D636;" width="3.465" height="0.998"/>
		<rect x="471.267" y="64.541" style="fill:#E4D634;" width="3.464" height="0.999"/>
		<rect x="470.58" y="64.541" style="fill:#E5D633;" width="3.463" height="0.998"/>
		<rect x="469.893" y="64.541" style="fill:#E5D731;" width="3.465" height="0.998"/>
		<rect x="469.207" y="64.541" style="fill:#E5D72F;" width="3.463" height="0.998"/>
		<rect x="468.52" y="64.541" style="fill:#E6D72D;" width="3.465" height="0.998"/>
		<rect x="467.833" y="64.541" style="fill:#E6D82B;" width="3.464" height="0.998"/>
		<rect x="467.146" y="64.541" style="fill:#E7D829;" width="3.464" height="0.998"/>
		<rect x="466.46" y="64.541" style="fill:#E7D927;" width="3.464" height="0.998"/>
		<rect x="465.773" y="64.541" style="fill:#E7D925;" width="3.463" height="0.998"/>
		<rect x="465.086" y="64.541" style="fill:#E8D923;" width="3.465" height="0.998"/>
	</g>
	<g>
		<path style="fill:#FFFFFF;" d="M676.521,56.462h11.763v4.014h-7.69v3.896h7.69v3.939h-7.69v5.67h7.69v4.027h-11.763V56.462z"/>
		<path style="fill:#FFFFFF;" d="M691.668,62.071h3.999v1.634c0.907-0.765,1.729-1.296,2.465-1.595
			c0.735-0.299,1.489-0.449,2.26-0.449c1.58,0,2.921,0.553,4.022,1.656c0.927,0.938,1.39,2.324,1.39,4.16v10.531h-3.955V71.03
			c0-1.902-0.085-3.165-0.256-3.789c-0.171-0.625-0.468-1.101-0.892-1.428c-0.424-0.326-0.947-0.49-1.57-0.49
			c-0.809,0-1.503,0.271-2.083,0.813c-0.579,0.541-0.981,1.29-1.205,2.246c-0.117,0.498-0.176,1.575-0.176,3.233v6.394h-3.999
			V62.071z"/>
		<path style="fill:#FFFFFF;" d="M721.448,62.071h3.984v13.652c0,2.695-0.542,4.678-1.626,5.947
			c-1.455,1.719-3.647,2.578-6.577,2.578c-1.563,0-2.876-0.195-3.94-0.586s-1.963-0.964-2.695-1.721s-1.274-1.678-1.626-2.762h4.409
			c0.391,0.449,0.894,0.789,1.509,1.019s1.343,0.345,2.183,0.345c1.074,0,1.938-0.166,2.593-0.498s1.115-0.762,1.385-1.289
			c0.268-0.527,0.402-1.436,0.402-2.725c-0.703,0.703-1.44,1.208-2.212,1.516s-1.646,0.461-2.622,0.461
			c-2.139,0-3.945-0.771-5.42-2.314s-2.212-3.496-2.212-5.859c0-2.529,0.781-4.561,2.344-6.094c1.416-1.387,3.105-2.08,5.068-2.08
			c0.918,0,1.784,0.169,2.601,0.506c0.814,0.337,1.633,0.891,2.453,1.662V62.071z M717.303,65.397c-1.26,0-2.3,0.422-3.12,1.267
			s-1.23,1.907-1.23,3.187c0,1.328,0.42,2.416,1.26,3.266s1.895,1.275,3.164,1.275c1.24,0,2.264-0.416,3.068-1.246
			c0.807-0.83,1.209-1.918,1.209-3.266c0-1.328-0.405-2.408-1.216-3.238S718.582,65.397,717.303,65.397z"/>
		<path style="fill:#FFFFFF;" d="M731.036,55.509c0.7,0,1.302,0.254,1.804,0.762c0.501,0.508,0.752,1.123,0.752,1.846
			c0,0.713-0.248,1.321-0.745,1.824c-0.496,0.503-1.091,0.754-1.781,0.754c-0.711,0-1.317-0.256-1.819-0.769
			c-0.501-0.513-0.752-1.136-0.752-1.868c0-0.703,0.248-1.303,0.745-1.801C729.735,55.759,730.334,55.509,731.036,55.509z
			 M729.036,62.071h3.999v15.938h-3.999V62.071z"/>
		<path style="fill:#FFFFFF;" d="M736.668,62.071h3.999v1.634c0.907-0.765,1.729-1.296,2.465-1.595
			c0.735-0.299,1.489-0.449,2.26-0.449c1.58,0,2.921,0.553,4.022,1.656c0.927,0.938,1.39,2.324,1.39,4.16v10.531h-3.955V71.03
			c0-1.902-0.085-3.165-0.256-3.789c-0.171-0.625-0.468-1.101-0.892-1.428c-0.424-0.326-0.947-0.49-1.57-0.49
			c-0.809,0-1.503,0.271-2.083,0.813c-0.579,0.541-0.981,1.29-1.205,2.246c-0.117,0.498-0.176,1.575-0.176,3.233v6.394h-3.999
			V62.071z"/>
		<path style="fill:#FFFFFF;" d="M770.638,71.198h-12.847c0.186,1.133,0.681,2.033,1.487,2.702c0.805,0.669,1.833,1.003,3.083,1.003
			c1.494,0,2.778-0.521,3.853-1.566l3.369,1.582c-0.84,1.191-1.846,2.072-3.018,2.644s-2.563,0.856-4.175,0.856
			c-2.5,0-4.536-0.788-6.108-2.365s-2.358-3.553-2.358-5.926c0-2.432,0.784-4.45,2.351-6.057c1.568-1.606,3.533-2.41,5.896-2.41
			c2.51,0,4.551,0.804,6.123,2.41s2.358,3.729,2.358,6.365L770.638,71.198z M766.639,68.048c-0.264-0.889-0.785-1.611-1.563-2.168
			c-0.778-0.557-1.681-0.834-2.708-0.834c-1.114,0-2.093,0.313-2.934,0.938c-0.528,0.391-1.018,1.078-1.468,2.064H766.639z"/>
		<path style="fill:#FFFFFF;" d="M789.842,71.198h-12.847c0.186,1.133,0.681,2.033,1.487,2.702c0.805,0.669,1.833,1.003,3.083,1.003
			c1.494,0,2.778-0.521,3.853-1.566l3.369,1.582c-0.84,1.191-1.846,2.072-3.018,2.644s-2.563,0.856-4.175,0.856
			c-2.5,0-4.536-0.788-6.108-2.365s-2.358-3.553-2.358-5.926c0-2.432,0.784-4.45,2.351-6.057c1.568-1.606,3.533-2.41,5.896-2.41
			c2.51,0,4.551,0.804,6.123,2.41s2.358,3.729,2.358,6.365L789.842,71.198z M785.843,68.048c-0.264-0.889-0.785-1.611-1.563-2.168
			c-0.778-0.557-1.681-0.834-2.708-0.834c-1.114,0-2.093,0.313-2.934,0.938c-0.528,0.391-1.018,1.078-1.468,2.064H785.843z"/>
		<path style="fill:#FFFFFF;" d="M792.142,62.071h3.428v2.008c0.371-0.791,0.864-1.393,1.479-1.803s1.289-0.615,2.021-0.615
			c0.518,0,1.06,0.137,1.626,0.41l-1.245,3.443c-0.469-0.234-0.854-0.352-1.157-0.352c-0.615,0-1.135,0.381-1.561,1.143
			c-0.424,0.762-0.637,2.256-0.637,4.482l0.015,0.775v6.445h-3.97V62.071z"/>
		<path style="fill:#FFFFFF;" d="M812.43,64.298l-2.476,2.477c-1.006-0.996-1.919-1.494-2.739-1.494
			c-0.449,0-0.801,0.095-1.055,0.285s-0.381,0.428-0.381,0.711c0,0.215,0.08,0.412,0.242,0.593c0.16,0.181,0.559,0.427,1.193,0.739
			l1.465,0.732c1.543,0.762,2.603,1.539,3.179,2.33s0.864,1.719,0.864,2.783c0,1.416-0.52,2.598-1.561,3.545
			c-1.039,0.947-2.434,1.42-4.182,1.42c-2.324,0-4.18-0.908-5.566-2.725l2.461-2.68c0.469,0.547,1.018,0.988,1.648,1.325
			c0.629,0.337,1.188,0.505,1.677,0.505c0.527,0,0.952-0.127,1.274-0.381s0.483-0.547,0.483-0.879c0-0.615-0.581-1.215-1.743-1.801
			l-1.348-0.674c-2.578-1.299-3.867-2.926-3.867-4.879c0-1.26,0.485-2.336,1.457-3.229s2.215-1.341,3.729-1.341
			c1.035,0,2.009,0.228,2.922,0.682S811.795,63.448,812.43,64.298z"/>
		<path style="fill:#FFFFFF;" d="M817.791,73.952l2.856,1.436l-3.618,6.182l-1.992-0.953L817.791,73.952z"/>
		<path style="fill:#FFFFFF;" d="M687.83,91.919h3.999v22.09h-3.999v-1.684c-0.78,0.742-1.563,1.276-2.349,1.604
			s-1.636,0.49-2.553,0.49c-2.059,0-3.839-0.798-5.341-2.395s-2.253-3.582-2.253-5.955c0-2.461,0.727-4.477,2.18-6.049
			c1.454-1.572,3.219-2.359,5.297-2.359c0.956,0,1.854,0.182,2.692,0.543s1.614,0.902,2.326,1.625V91.919z M683.626,101.353
			c-1.236,0-2.263,0.438-3.08,1.312s-1.227,1.995-1.227,3.362c0,1.377,0.416,2.51,1.248,3.398s1.856,1.332,3.073,1.332
			c1.256,0,2.297-0.437,3.124-1.311s1.241-2.02,1.241-3.436c0-1.387-0.414-2.51-1.241-3.369S684.892,101.353,683.626,101.353z"/>
		<path style="fill:#FFFFFF;" d="M711.839,107.198h-12.847c0.186,1.133,0.681,2.033,1.487,2.702
			c0.805,0.669,1.833,1.003,3.083,1.003c1.494,0,2.778-0.521,3.853-1.566l3.369,1.582c-0.84,1.191-1.846,2.072-3.018,2.644
			s-2.563,0.856-4.175,0.856c-2.5,0-4.536-0.788-6.108-2.365s-2.358-3.553-2.358-5.926c0-2.432,0.784-4.45,2.351-6.057
			c1.568-1.606,3.533-2.41,5.896-2.41c2.51,0,4.551,0.804,6.123,2.41s2.358,3.729,2.358,6.365L711.839,107.198z M707.84,104.048
			c-0.264-0.889-0.785-1.611-1.563-2.168c-0.778-0.557-1.681-0.834-2.708-0.834c-1.114,0-2.093,0.313-2.934,0.938
			c-0.528,0.391-1.018,1.078-1.468,2.064H707.84z"/>
		<path style="fill:#FFFFFF;" d="M724.832,100.298l-2.476,2.477c-1.006-0.996-1.919-1.494-2.739-1.494
			c-0.449,0-0.801,0.095-1.055,0.285s-0.381,0.428-0.381,0.711c0,0.215,0.08,0.412,0.242,0.593c0.16,0.181,0.559,0.427,1.193,0.739
			l1.465,0.732c1.543,0.762,2.603,1.539,3.179,2.33s0.864,1.719,0.864,2.783c0,1.416-0.52,2.598-1.561,3.545
			c-1.039,0.947-2.434,1.42-4.182,1.42c-2.324,0-4.18-0.908-5.566-2.725l2.461-2.68c0.469,0.547,1.018,0.988,1.648,1.325
			c0.629,0.337,1.188,0.505,1.677,0.505c0.527,0,0.952-0.127,1.274-0.381s0.483-0.547,0.483-0.879c0-0.615-0.581-1.215-1.743-1.801
			l-1.348-0.674c-2.578-1.299-3.867-2.926-3.867-4.879c0-1.26,0.485-2.336,1.457-3.229s2.215-1.341,3.729-1.341
			c1.035,0,2.009,0.228,2.922,0.682S724.197,99.448,724.832,100.298z"/>
		<path style="fill:#FFFFFF;" d="M729.835,91.509c0.7,0,1.302,0.254,1.804,0.762c0.501,0.508,0.752,1.123,0.752,1.846
			c0,0.713-0.248,1.321-0.745,1.824c-0.496,0.503-1.091,0.754-1.781,0.754c-0.711,0-1.317-0.256-1.819-0.769
			c-0.501-0.513-0.752-1.136-0.752-1.868c0-0.703,0.248-1.303,0.745-1.801C728.534,91.759,729.133,91.509,729.835,91.509z
			 M727.835,98.071h3.999v15.938h-3.999V98.071z"/>
		<path style="fill:#FFFFFF;" d="M747.244,98.071h3.984v13.652c0,2.695-0.542,4.678-1.626,5.947
			c-1.455,1.719-3.647,2.578-6.577,2.578c-1.563,0-2.876-0.195-3.94-0.586s-1.963-0.964-2.695-1.721s-1.274-1.678-1.626-2.762h4.409
			c0.391,0.449,0.894,0.789,1.509,1.019s1.343,0.345,2.183,0.345c1.074,0,1.938-0.166,2.593-0.498s1.115-0.762,1.385-1.289
			c0.268-0.527,0.402-1.436,0.402-2.725c-0.703,0.703-1.44,1.208-2.212,1.516s-1.646,0.461-2.622,0.461
			c-2.139,0-3.945-0.771-5.42-2.314s-2.212-3.496-2.212-5.859c0-2.529,0.781-4.561,2.344-6.094c1.416-1.387,3.105-2.08,5.068-2.08
			c0.918,0,1.784,0.169,2.601,0.506c0.814,0.337,1.633,0.891,2.453,1.662V98.071z M743.099,101.397c-1.26,0-2.3,0.422-3.12,1.267
			s-1.23,1.907-1.23,3.187c0,1.328,0.42,2.416,1.26,3.266s1.895,1.275,3.164,1.275c1.24,0,2.264-0.416,3.068-1.246
			c0.807-0.83,1.209-1.918,1.209-3.266c0-1.328-0.405-2.408-1.216-3.238S744.378,101.397,743.099,101.397z"/>
		<path style="fill:#FFFFFF;" d="M755.271,98.071h3.999v1.634c0.907-0.765,1.729-1.296,2.465-1.595
			c0.735-0.299,1.489-0.449,2.26-0.449c1.58,0,2.921,0.553,4.022,1.656c0.927,0.938,1.39,2.324,1.39,4.16v10.531h-3.955v-6.979
			c0-1.902-0.085-3.165-0.256-3.789c-0.171-0.625-0.468-1.101-0.892-1.428c-0.424-0.326-0.947-0.49-1.57-0.49
			c-0.809,0-1.503,0.271-2.083,0.813c-0.579,0.541-0.981,1.29-1.205,2.246c-0.117,0.498-0.176,1.575-0.176,3.233v6.394h-3.999
			V98.071z"/>
		<path style="fill:#FFFFFF;" d="M789.241,107.198h-12.847c0.186,1.133,0.681,2.033,1.487,2.702
			c0.805,0.669,1.833,1.003,3.083,1.003c1.494,0,2.778-0.521,3.853-1.566l3.369,1.582c-0.84,1.191-1.846,2.072-3.018,2.644
			s-2.563,0.856-4.175,0.856c-2.5,0-4.536-0.788-6.108-2.365s-2.358-3.553-2.358-5.926c0-2.432,0.784-4.45,2.351-6.057
			c1.568-1.606,3.533-2.41,5.896-2.41c2.51,0,4.551,0.804,6.123,2.41s2.358,3.729,2.358,6.365L789.241,107.198z M785.242,104.048
			c-0.264-0.889-0.785-1.611-1.563-2.168c-0.778-0.557-1.681-0.834-2.708-0.834c-1.114,0-2.093,0.313-2.934,0.938
			c-0.528,0.391-1.018,1.078-1.468,2.064H785.242z"/>
		<path style="fill:#FFFFFF;" d="M791.541,98.071h3.428v2.008c0.371-0.791,0.864-1.393,1.479-1.803s1.289-0.615,2.021-0.615
			c0.518,0,1.06,0.137,1.626,0.41l-1.245,3.443c-0.469-0.234-0.854-0.352-1.157-0.352c-0.615,0-1.135,0.381-1.561,1.143
			c-0.424,0.762-0.637,2.256-0.637,4.482l0.015,0.775v6.445h-3.97V98.071z"/>
		<path style="fill:#FFFFFF;" d="M811.829,100.298l-2.476,2.477c-1.006-0.996-1.919-1.494-2.739-1.494
			c-0.449,0-0.801,0.095-1.055,0.285s-0.381,0.428-0.381,0.711c0,0.215,0.08,0.412,0.242,0.593c0.16,0.181,0.559,0.427,1.193,0.739
			l1.465,0.732c1.543,0.762,2.603,1.539,3.179,2.33s0.864,1.719,0.864,2.783c0,1.416-0.52,2.598-1.561,3.545
			c-1.039,0.947-2.434,1.42-4.182,1.42c-2.324,0-4.18-0.908-5.566-2.725l2.461-2.68c0.469,0.547,1.018,0.988,1.648,1.325
			c0.629,0.337,1.188,0.505,1.677,0.505c0.527,0,0.952-0.127,1.274-0.381s0.483-0.547,0.483-0.879c0-0.615-0.581-1.215-1.743-1.801
			l-1.348-0.674c-2.578-1.299-3.867-2.926-3.867-4.879c0-1.26,0.485-2.336,1.457-3.229s2.215-1.341,3.729-1.341
			c1.035,0,2.009,0.228,2.922,0.682S811.194,99.448,811.829,100.298z"/>
		<path style="fill:#FFFFFF;" d="M817.19,109.952l2.856,1.436l-3.618,6.182l-1.992-0.953L817.19,109.952z"/>
		<path style="fill:#FFFFFF;" d="M676.551,128.198h3.999v5.873h2.373v3.443h-2.373v12.494h-3.999v-12.494H674.5v-3.443h2.051
			V128.198z"/>
		<path style="fill:#FFFFFF;" d="M685.076,127.919h3.97v7.764c0.781-0.674,1.567-1.179,2.358-1.516s1.592-0.506,2.402-0.506
			c1.582,0,2.915,0.547,3.999,1.641c0.928,0.947,1.392,2.34,1.392,4.176v10.531h-3.94v-6.986c0-1.846-0.088-3.096-0.264-3.75
			s-0.477-1.143-0.9-1.465c-0.426-0.322-0.95-0.484-1.575-0.484c-0.811,0-1.507,0.27-2.087,0.807
			c-0.582,0.537-0.984,1.27-1.209,2.197c-0.117,0.479-0.176,1.572-0.176,3.281v6.4h-3.97V127.919z"/>
		<path style="fill:#FFFFFF;" d="M704.625,127.509c0.7,0,1.302,0.254,1.804,0.762c0.501,0.508,0.752,1.123,0.752,1.846
			c0,0.713-0.248,1.321-0.745,1.824c-0.496,0.503-1.091,0.754-1.781,0.754c-0.711,0-1.317-0.256-1.819-0.769
			c-0.501-0.513-0.752-1.136-0.752-1.868c0-0.703,0.248-1.303,0.745-1.801C703.324,127.759,703.923,127.509,704.625,127.509z
			 M702.625,134.071h3.999v15.938h-3.999V134.071z"/>
		<path style="fill:#FFFFFF;" d="M710.257,134.071h3.999v1.634c0.907-0.765,1.729-1.296,2.465-1.595
			c0.735-0.299,1.489-0.449,2.26-0.449c1.58,0,2.921,0.553,4.022,1.656c0.927,0.938,1.39,2.324,1.39,4.16v10.531h-3.955v-6.979
			c0-1.902-0.085-3.165-0.256-3.789c-0.171-0.625-0.468-1.101-0.892-1.428c-0.424-0.326-0.947-0.49-1.57-0.49
			c-0.809,0-1.503,0.271-2.083,0.813c-0.579,0.541-0.981,1.29-1.205,2.246c-0.117,0.498-0.176,1.575-0.176,3.233v6.394h-3.999
			V134.071z"/>
		<path style="fill:#FFFFFF;" d="M728.289,127.919h3.999v12.724l5.889-6.571h5.022l-6.866,7.639l7.687,8.299h-4.964l-6.768-7.345
			v7.345h-3.999V127.919z"/>
		<path style="fill:#FFFFFF;" d="M761.629,143.198h-12.847c0.186,1.133,0.681,2.033,1.487,2.702
			c0.805,0.669,1.833,1.003,3.083,1.003c1.494,0,2.778-0.521,3.853-1.566l3.369,1.582c-0.84,1.191-1.846,2.072-3.018,2.644
			s-2.563,0.856-4.175,0.856c-2.5,0-4.536-0.788-6.108-2.365s-2.358-3.553-2.358-5.926c0-2.432,0.784-4.45,2.351-6.057
			c1.568-1.606,3.533-2.41,5.896-2.41c2.51,0,4.551,0.804,6.123,2.41s2.358,3.729,2.358,6.365L761.629,143.198z M757.63,140.048
			c-0.264-0.889-0.785-1.611-1.563-2.168c-0.778-0.557-1.681-0.834-2.708-0.834c-1.114,0-2.093,0.313-2.934,0.938
			c-0.528,0.391-1.018,1.078-1.468,2.064H757.63z"/>
		<path style="fill:#FFFFFF;" d="M763.929,134.071h3.428v2.008c0.371-0.791,0.864-1.393,1.479-1.803s1.289-0.615,2.021-0.615
			c0.518,0,1.06,0.137,1.626,0.41l-1.245,3.443c-0.469-0.234-0.854-0.352-1.157-0.352c-0.615,0-1.135,0.381-1.561,1.143
			c-0.424,0.762-0.637,2.256-0.637,4.482l0.015,0.775v6.445h-3.97V134.071z"/>
		<path style="fill:#FFFFFF;" d="M784.217,136.298l-2.476,2.477c-1.006-0.996-1.919-1.494-2.739-1.494
			c-0.449,0-0.801,0.095-1.055,0.285s-0.381,0.428-0.381,0.711c0,0.215,0.08,0.412,0.242,0.593c0.16,0.181,0.559,0.427,1.193,0.739
			l1.465,0.732c1.543,0.762,2.603,1.539,3.179,2.33s0.864,1.719,0.864,2.783c0,1.416-0.52,2.598-1.561,3.545
			c-1.039,0.947-2.434,1.42-4.182,1.42c-2.324,0-4.18-0.908-5.566-2.725l2.461-2.68c0.469,0.547,1.018,0.988,1.648,1.325
			c0.629,0.337,1.188,0.505,1.677,0.505c0.527,0,0.952-0.127,1.274-0.381s0.483-0.547,0.483-0.879c0-0.615-0.581-1.215-1.743-1.801
			l-1.348-0.674c-2.578-1.299-3.867-2.926-3.867-4.879c0-1.26,0.485-2.336,1.457-3.229s2.215-1.341,3.729-1.341
			c1.035,0,2.009,0.228,2.922,0.682S783.582,135.448,784.217,136.298z"/>
		<path style="fill:#FFFFFF;" d="M810.001,141.542l2.443,2.799l-1.11,1.01l-1.097,0.994l3.46,3.664h-4.973l-1.421-1.465
			c-2.266,1.338-4.37,2.008-6.314,2.008c-1.65,0-2.985-0.484-4.007-1.451c-1.021-0.967-1.53-2.207-1.53-3.721
			c0-1.143,0.289-2.221,0.867-3.236c0.579-1.016,1.568-2.066,2.971-3.15c-1.387-1.865-2.08-3.516-2.08-4.951
			c0-1.064,0.459-2.113,1.377-3.148s2.212-1.553,3.882-1.553c1.689,0,2.985,0.512,3.889,1.537s1.355,2.061,1.355,3.105
			c0,0.82-0.208,1.607-0.623,2.359s-1.369,1.865-2.863,3.34c1.749,2.061,2.877,3.344,3.386,3.852
			C807.925,143.3,808.721,142.636,810.001,141.542z M804.646,145.694c-0.755-0.74-1.817-1.969-3.188-3.684
			c-1.445,1.201-2.168,2.252-2.168,3.15c0,0.42,0.197,0.805,0.593,1.156c0.395,0.352,0.895,0.527,1.5,0.527
			C802.251,146.845,803.339,146.462,804.646,145.694z M802.205,136.796c1.084-0.928,1.626-1.748,1.626-2.461
			c0-0.371-0.122-0.674-0.366-0.908s-0.566-0.352-0.967-0.352c-0.371,0-0.687,0.133-0.945,0.396s-0.388,0.57-0.388,0.922
			C801.165,135.097,801.512,135.897,802.205,136.796z"/>
		<path style="fill:#FFFFFF;" d="M840.452,137.294l-3.329,1.832c-0.626-0.654-1.244-1.109-1.855-1.363s-1.327-0.381-2.148-0.381
			c-1.496,0-2.706,0.447-3.63,1.339s-1.386,2.035-1.386,3.43c0,1.354,0.444,2.462,1.335,3.319c0.89,0.859,2.058,1.287,3.505,1.287
			c1.789,0,3.183-0.609,4.18-1.83l3.153,2.158c-1.709,2.223-4.121,3.334-7.236,3.334c-2.803,0-4.998-0.83-6.585-2.49
			s-2.38-3.604-2.38-5.83c0-1.543,0.386-2.963,1.157-4.262s1.848-2.32,3.23-3.063c1.381-0.742,2.927-1.113,4.636-1.113
			c1.582,0,3.003,0.315,4.263,0.945S839.651,136.132,840.452,137.294z"/>
		<path style="fill:#FFFFFF;" d="M851.541,133.661c1.504,0,2.917,0.377,4.241,1.129c1.322,0.752,2.355,1.771,3.098,3.061
			s1.113,2.682,1.113,4.176c0,1.504-0.373,2.91-1.121,4.219c-0.746,1.309-1.765,2.331-3.054,3.068s-2.71,1.105-4.263,1.105
			c-2.285,0-4.236-0.813-5.852-2.438c-1.617-1.626-2.425-3.601-2.425-5.925c0-2.49,0.913-4.566,2.739-6.227
			C847.62,134.384,849.461,133.661,851.541,133.661z M851.606,137.427c-1.242,0-2.276,0.432-3.103,1.296
			c-0.827,0.864-1.24,1.97-1.24,3.317c0,1.387,0.408,2.51,1.226,3.369c0.816,0.859,1.851,1.289,3.104,1.289
			c1.252,0,2.293-0.434,3.125-1.303c0.831-0.869,1.247-1.988,1.247-3.355s-0.408-2.478-1.226-3.332
			C853.923,137.854,852.879,137.427,851.606,137.427z"/>
		<path style="fill:#FFFFFF;" d="M862.82,127.919h3.999v22.09h-3.999V127.919z"/>
		<path style="fill:#FFFFFF;" d="M870.013,127.919h3.999v22.09h-3.999V127.919z"/>
		<path style="fill:#FFFFFF;" d="M889.407,134.071h3.999v15.938h-3.999v-1.684c-0.78,0.742-1.563,1.276-2.349,1.604
			s-1.636,0.49-2.553,0.49c-2.059,0-3.839-0.798-5.341-2.395s-2.253-3.582-2.253-5.955c0-2.461,0.727-4.477,2.18-6.049
			c1.454-1.572,3.219-2.359,5.297-2.359c0.956,0,1.854,0.182,2.692,0.543s1.614,0.902,2.326,1.625V134.071z M885.203,137.353
			c-1.236,0-2.263,0.438-3.08,1.312s-1.227,1.995-1.227,3.362c0,1.377,0.416,2.51,1.248,3.398s1.856,1.332,3.073,1.332
			c1.256,0,2.297-0.437,3.124-1.311s1.241-2.02,1.241-3.436c0-1.387-0.414-2.51-1.241-3.369S886.469,137.353,885.203,137.353z"/>
		<path style="fill:#FFFFFF;" d="M901.419,127.919v7.91c0.723-0.723,1.504-1.264,2.344-1.625s1.738-0.543,2.695-0.543
			c2.08,0,3.848,0.787,5.303,2.359s2.183,3.588,2.183,6.049c0,2.373-0.752,4.358-2.256,5.955s-3.286,2.395-5.347,2.395
			c-0.918,0-1.772-0.163-2.563-0.49s-1.577-0.861-2.358-1.604v1.684h-3.97v-22.09H901.419z M905.623,137.353
			c-1.26,0-2.305,0.43-3.135,1.289s-1.245,1.982-1.245,3.369c0,1.416,0.415,2.562,1.245,3.436s1.875,1.311,3.135,1.311
			c1.221,0,2.248-0.443,3.084-1.332c0.834-0.889,1.252-2.021,1.252-3.398c0-1.367-0.41-2.488-1.23-3.362
			S906.873,137.353,905.623,137.353z"/>
		<path style="fill:#FFFFFF;" d="M924.739,133.661c1.504,0,2.917,0.377,4.241,1.129c1.322,0.752,2.355,1.771,3.098,3.061
			s1.113,2.682,1.113,4.176c0,1.504-0.373,2.91-1.121,4.219c-0.746,1.309-1.765,2.331-3.054,3.068s-2.71,1.105-4.263,1.105
			c-2.285,0-4.236-0.813-5.852-2.438c-1.617-1.626-2.425-3.601-2.425-5.925c0-2.49,0.913-4.566,2.739-6.227
			C920.818,134.384,922.659,133.661,924.739,133.661z M924.805,137.427c-1.242,0-2.276,0.432-3.103,1.296
			c-0.827,0.864-1.24,1.97-1.24,3.317c0,1.387,0.408,2.51,1.226,3.369c0.816,0.859,1.851,1.289,3.104,1.289
			c1.252,0,2.293-0.434,3.125-1.303c0.831-0.869,1.247-1.988,1.247-3.355s-0.408-2.478-1.226-3.332
			C927.121,137.854,926.077,137.427,924.805,137.427z"/>
		<path style="fill:#FFFFFF;" d="M935.521,134.071h3.428v2.008c0.371-0.791,0.864-1.393,1.479-1.803s1.289-0.615,2.021-0.615
			c0.518,0,1.06,0.137,1.626,0.41l-1.245,3.443c-0.469-0.234-0.854-0.352-1.157-0.352c-0.615,0-1.135,0.381-1.561,1.143
			c-0.424,0.762-0.637,2.256-0.637,4.482l0.015,0.775v6.445h-3.97V134.071z"/>
		<path style="fill:#FFFFFF;" d="M957.815,134.071h3.999v15.938h-3.999v-1.684c-0.78,0.742-1.563,1.276-2.349,1.604
			s-1.636,0.49-2.553,0.49c-2.059,0-3.839-0.798-5.341-2.395s-2.253-3.582-2.253-5.955c0-2.461,0.727-4.477,2.18-6.049
			c1.454-1.572,3.219-2.359,5.297-2.359c0.956,0,1.854,0.182,2.692,0.543s1.614,0.902,2.326,1.625V134.071z M953.611,137.353
			c-1.236,0-2.263,0.438-3.08,1.312s-1.227,1.995-1.227,3.362c0,1.377,0.416,2.51,1.248,3.398s1.856,1.332,3.073,1.332
			c1.256,0,2.297-0.437,3.124-1.311s1.241-2.02,1.241-3.436c0-1.387-0.414-2.51-1.241-3.369S954.877,137.353,953.611,137.353z"/>
		<path style="fill:#FFFFFF;" d="M966.341,128.198h3.999v5.873h2.373v3.443h-2.373v12.494h-3.999v-12.494h-2.051v-3.443h2.051
			V128.198z"/>
		<path style="fill:#FFFFFF;" d="M982.337,133.661c1.504,0,2.917,0.377,4.241,1.129c1.322,0.752,2.355,1.771,3.098,3.061
			s1.113,2.682,1.113,4.176c0,1.504-0.373,2.91-1.121,4.219c-0.746,1.309-1.765,2.331-3.054,3.068s-2.71,1.105-4.263,1.105
			c-2.285,0-4.236-0.813-5.852-2.438c-1.617-1.626-2.425-3.601-2.425-5.925c0-2.49,0.913-4.566,2.739-6.227
			C978.416,134.384,980.257,133.661,982.337,133.661z M982.402,137.427c-1.242,0-2.276,0.432-3.103,1.296
			c-0.827,0.864-1.24,1.97-1.24,3.317c0,1.387,0.408,2.51,1.226,3.369c0.816,0.859,1.851,1.289,3.104,1.289
			c1.252,0,2.293-0.434,3.125-1.303c0.831-0.869,1.247-1.988,1.247-3.355s-0.408-2.478-1.226-3.332
			C984.719,137.854,983.675,137.427,982.402,137.427z"/>
		<path style="fill:#FFFFFF;" d="M993.118,134.071h3.428v2.008c0.371-0.791,0.864-1.393,1.479-1.803s1.289-0.615,2.021-0.615
			c0.518,0,1.06,0.137,1.626,0.41l-1.245,3.443c-0.469-0.234-0.854-0.352-1.157-0.352c-0.615,0-1.135,0.381-1.561,1.143
			c-0.424,0.762-0.637,2.256-0.637,4.482l0.015,0.775v6.445h-3.97V134.071z"/>
		<path style="fill:#FFFFFF;" d="M1013.406,136.298l-2.476,2.477c-1.006-0.996-1.919-1.494-2.739-1.494
			c-0.449,0-0.801,0.095-1.055,0.285s-0.381,0.428-0.381,0.711c0,0.215,0.08,0.412,0.242,0.593c0.16,0.181,0.559,0.427,1.193,0.739
			l1.465,0.732c1.543,0.762,2.603,1.539,3.179,2.33s0.864,1.719,0.864,2.783c0,1.416-0.52,2.598-1.561,3.545
			c-1.039,0.947-2.434,1.42-4.182,1.42c-2.324,0-4.18-0.908-5.566-2.725l2.461-2.68c0.469,0.547,1.018,0.988,1.648,1.325
			c0.629,0.337,1.188,0.505,1.677,0.505c0.527,0,0.952-0.127,1.274-0.381s0.483-0.547,0.483-0.879c0-0.615-0.581-1.215-1.743-1.801
			l-1.348-0.674c-2.578-1.299-3.867-2.926-3.867-4.879c0-1.26,0.485-2.336,1.457-3.229s2.215-1.341,3.729-1.341
			c1.035,0,2.009,0.228,2.922,0.682S1012.771,135.448,1013.406,136.298z"/>
		<path style="fill:#FFFFFF;" d="M1027.41,145.409c0.693,0,1.286,0.244,1.779,0.732s0.74,1.08,0.74,1.773
			c0,0.684-0.247,1.271-0.74,1.765s-1.086,0.739-1.779,0.739s-1.284-0.244-1.772-0.732s-0.732-1.078-0.732-1.771
			s0.244-1.285,0.732-1.773S1026.717,145.409,1027.41,145.409z M1025.389,127.919h4.043v15.748h-4.043V127.919z"/>
	</g>
	<g>
		<path style="fill:#FFFFFF;" d="M315.25,56.433h3.228l2.491,11.004l3.078-11.004h2.729l3.123,11.004l2.467-11.004h3.229
			l-3.884,17.238h-3.147l-3.176-11.145l-3.117,11.145h-3.117L315.25,56.433z"/>
		<path style="fill:#FFFFFF;" d="M337.814,55.999h3.176v6.211c0.625-0.539,1.254-0.943,1.887-1.213s1.273-0.404,1.922-0.404
			c1.266,0,2.332,0.438,3.199,1.313c0.742,0.758,1.113,1.871,1.113,3.34v8.426h-3.152v-5.59c0-1.477-0.07-2.477-0.211-3
			s-0.381-0.914-0.721-1.172s-0.76-0.387-1.26-0.387c-0.648,0-1.205,0.215-1.67,0.645s-0.787,1.016-0.967,1.758
			c-0.094,0.383-0.141,1.258-0.141,2.625v5.121h-3.176V55.999z"/>
		<path style="fill:#FFFFFF;" d="M358.193,60.593c1.203,0,2.334,0.301,3.393,0.902s1.885,1.418,2.479,2.449s0.891,2.145,0.891,3.34
			c0,1.203-0.299,2.328-0.896,3.375s-1.412,1.865-2.443,2.455s-2.168,0.885-3.41,0.885c-1.828,0-3.389-0.65-4.682-1.951
			s-1.939-2.881-1.939-4.74c0-1.992,0.73-3.652,2.191-4.98C355.057,61.171,356.529,60.593,358.193,60.593z M358.246,63.604
			c-0.994,0-1.821,0.346-2.482,1.037c-0.662,0.691-0.992,1.576-0.992,2.654c0,1.109,0.326,2.008,0.98,2.695
			c0.653,0.688,1.48,1.031,2.482,1.031s1.835-0.348,2.5-1.043s0.998-1.59,0.998-2.684s-0.327-1.982-0.98-2.666
			S359.264,63.604,358.246,63.604z"/>
		<path style="fill:#FFFFFF;" d="M372.871,60.921h3.132l2.563,7.254l2.759-7.254h1.915l2.709,7.172l2.567-7.172h3.151l-4.652,12.75
			h-2.027l-2.719-7.266l-2.801,7.266h-2.004L372.871,60.921z"/>
		<path style="fill:#FFFFFF;" d="M406.252,68.222h-10.277c0.148,0.906,0.545,1.627,1.189,2.162s1.467,0.803,2.467,0.803
			c1.195,0,2.223-0.418,3.082-1.254l2.695,1.266c-0.672,0.953-1.477,1.658-2.414,2.115s-2.051,0.686-3.34,0.686
			c-2,0-3.629-0.631-4.887-1.893s-1.887-2.842-1.887-4.74c0-1.945,0.627-3.561,1.881-4.846s2.826-1.928,4.717-1.928
			c2.008,0,3.641,0.643,4.898,1.928s1.887,2.982,1.887,5.092L406.252,68.222z M403.053,65.702c-0.211-0.711-0.628-1.289-1.25-1.734
			s-1.344-0.668-2.166-0.668c-0.893,0-1.675,0.25-2.348,0.75c-0.423,0.313-0.813,0.863-1.174,1.652H403.053z"/>
		<path style="fill:#2C50A2;" d="M325.615,89.722h3.199v12.75h-3.199v-1.348c-0.624,0.594-1.251,1.021-1.879,1.283
			s-1.309,0.393-2.042,0.393c-1.646,0-3.071-0.639-4.272-1.916c-1.202-1.277-1.803-2.865-1.803-4.764
			c0-1.969,0.581-3.582,1.744-4.84s2.575-1.887,4.237-1.887c0.765,0,1.482,0.145,2.153,0.434s1.291,0.723,1.861,1.301V89.722z
			 M322.252,92.347c-0.988,0-1.811,0.35-2.464,1.049c-0.654,0.699-0.981,1.596-0.981,2.689c0,1.102,0.333,2.008,0.998,2.719
			c0.666,0.711,1.485,1.066,2.459,1.066c1.005,0,1.838-0.35,2.499-1.049c0.662-0.699,0.993-1.615,0.993-2.748
			c0-1.109-0.331-2.008-0.993-2.695C324.102,92.69,323.265,92.347,322.252,92.347z"/>
		<path style="fill:#2C50A2;" d="M331.299,89.722h2.742v1.605c0.297-0.633,0.691-1.113,1.184-1.441s1.031-0.492,1.617-0.492
			c0.414,0,0.848,0.109,1.301,0.328l-0.996,2.754c-0.375-0.188-0.684-0.281-0.926-0.281c-0.492,0-0.908,0.305-1.248,0.914
			s-0.51,1.805-0.51,3.586l0.012,0.621v5.156h-3.176V89.722z"/>
		<path style="fill:#2C50A2;" d="M352.498,97.022h-10.277c0.148,0.906,0.545,1.627,1.189,2.162s1.467,0.803,2.467,0.803
			c1.195,0,2.223-0.418,3.082-1.254l2.695,1.266c-0.672,0.953-1.477,1.658-2.414,2.115s-2.051,0.686-3.34,0.686
			c-2,0-3.629-0.631-4.887-1.893s-1.887-2.842-1.887-4.74c0-1.945,0.627-3.561,1.881-4.846s2.826-1.928,4.717-1.928
			c2.008,0,3.641,0.643,4.898,1.928s1.887,2.982,1.887,5.092L352.498,97.022z M349.299,94.503c-0.211-0.711-0.628-1.289-1.25-1.734
			s-1.344-0.668-2.166-0.668c-0.893,0-1.675,0.25-2.348,0.75c-0.423,0.313-0.813,0.863-1.174,1.652H349.299z"/>
	</g>
	<rect x="319.041" y="109.598" style="fill:#E9C41D;" width="30" height="2"/>
</g>
</svg>
