<?xml version="1.0" encoding="iso-8859-1"?>
<!-- Generator: Adobe Illustrator 16.0.0, SVG Export Plug-In . SVG Version: 6.00 Build 0)  -->
<!DOCTYPE svg PUBLIC "-//W3C//DTD SVG 1.1//EN" "http://www.w3.org/Graphics/SVG/1.1/DTD/svg11.dtd">
<svg version="1.1" id="&#x5716;&#x5C64;_1" xmlns="http://www.w3.org/2000/svg" xmlns:xlink="http://www.w3.org/1999/xlink" x="0px"
	 y="0px" width="29.279px" height="29.279px" viewBox="0 0 29.279 29.279" style="enable-background:new 0 0 29.279 29.279;"
	 xml:space="preserve">
<g>
	<circle style="fill:#DCDDDD;" cx="14.64" cy="14.64" r="14.64"/>
	<g>
		<path style="fill:none;stroke:#2C50A2;stroke-miterlimit:10;" d="M21.552,20.817c0,0.651-0.415,1.18-0.928,1.18H8.567
			c-0.513,0-0.928-0.528-0.928-1.18v-9.836c0-0.652,0.415-1.18,0.928-1.18h12.057c0.513,0,0.928,0.527,0.928,1.18V20.817z"/>
		<path style="fill:none;stroke:#2C50A2;stroke-miterlimit:10;" d="M18.532,9.019c0,0.958-0.57,1.736-1.273,1.736h-5.326
			c-0.703,0-1.273-0.778-1.273-1.736l0,0c0-0.958,0.57-1.736,1.273-1.736h5.326C17.962,7.282,18.532,8.061,18.532,9.019
			L18.532,9.019z"/>
		<path style="fill:#2C50A2;stroke:#2C50A2;stroke-miterlimit:10;" d="M21.591,13.495c0,0.553-0.484,1-1.082,1H8.724
			c-0.599,0-1.084-0.447-1.084-1v-2.693c0-0.553,0.485-1,1.084-1h11.785c0.598,0,1.082,0.447,1.082,1V13.495z"/>
		<path style="fill:#DCDDDD;stroke:#2C50A2;stroke-miterlimit:10;" d="M16.564,14.833c0,0.59-0.447,1.066-1,1.066h-1.938
			c-0.552,0-1-0.477-1-1.066v-0.387c0-0.589,0.448-1.066,1-1.066h1.938c0.553,0,1,0.478,1,1.066V14.833z"/>
	</g>
</g>
</svg>
