<?xml version="1.0" encoding="iso-8859-1"?>
<!-- Generator: Adobe Illustrator 16.0.0, SVG Export Plug-In . SVG Version: 6.00 Build 0)  -->
<!DOCTYPE svg PUBLIC "-//W3C//DTD SVG 1.1//EN" "http://www.w3.org/Graphics/SVG/1.1/DTD/svg11.dtd">
<svg version="1.1" id="&#x5716;&#x5C64;_1" xmlns="http://www.w3.org/2000/svg" xmlns:xlink="http://www.w3.org/1999/xlink" x="0px"
	 y="0px" width="29.279px" height="29.279px" viewBox="0 0 29.279 29.279" style="enable-background:new 0 0 29.279 29.279;"
	 xml:space="preserve">
<g>
	<g>
		<g>
			<circle style="fill:#2C50A2;" cx="14.64" cy="14.64" r="14.64"/>
		</g>
	</g>
	<g>
		<path style="fill:none;stroke:#E8C41D;stroke-miterlimit:10;" d="M21.655,20.858c0,0.553-0.447,1-1,1H8.704c-0.553,0-1-0.447-1-1
			v-8.717c0-0.553,0.447-1,1-1h11.951c0.553,0,1,0.447,1,1V20.858z"/>
		<path style="fill:none;stroke:#E8C41D;stroke-miterlimit:10;" d="M14.704,11.142c0,0-0.512-3.871-2.324-3.998
			S9.536,8.017,9.942,9.298s6.281,2.063,8.781,4.531"/>
		<path style="fill:none;stroke:#E8C41D;stroke-miterlimit:10;" d="M14.64,11.142c0,0,0.512-3.871,2.324-3.998
			s2.844,0.873,2.438,2.154s-6.334,2.063-8.834,4.531"/>
		<path style="fill:none;stroke:#E8C41D;stroke-miterlimit:10;" d="M15.682,20.858c0,0.553-0.448,1-1,1h-0.069c-0.553,0-1-0.447-1-1
			v-8.717c0-0.553,0.447-1,1-1h0.069c0.552,0,1,0.447,1,1V20.858z"/>
		<rect x="7.671" y="15.892" style="fill:#E8C41D;" width="13.951" height="1.875"/>
	</g>
</g>
</svg>
