<?xml version="1.0" encoding="iso-8859-1"?>
<!-- Generator: Adobe Illustrator 16.0.0, SVG Export Plug-In . SVG Version: 6.00 Build 0)  -->
<!DOCTYPE svg PUBLIC "-//W3C//DTD SVG 1.1//EN" "http://www.w3.org/Graphics/SVG/1.1/DTD/svg11.dtd">
<svg version="1.1" id="&#x5716;&#x5C64;_1" xmlns="http://www.w3.org/2000/svg" xmlns:xlink="http://www.w3.org/1999/xlink" x="0px"
	 y="0px" width="47.334px" height="58.959px" viewBox="0 0 47.334 58.959" style="enable-background:new 0 0 47.334 58.959;"
	 xml:space="preserve">
<g>
	<g>
		<g>
			<path style="fill:#595757;" d="M14.007,58.85l0.823-5.746h0.093l2.336,4.715l2.313-4.715h0.092l0.827,5.746h-0.563L19.36,54.74
				l-2.032,4.109h-0.147l-2.056-4.141l-0.564,4.141H14.007z"/>
			<path style="fill:#595757;" d="M23.542,54.49c0.655,0,1.197,0.237,1.628,0.711c0.391,0.432,0.587,0.944,0.587,1.535
				c0,0.594-0.207,1.113-0.62,1.557c-0.414,0.444-0.945,0.666-1.595,0.666c-0.652,0-1.185-0.222-1.599-0.666s-0.62-0.963-0.62-1.557
				c0-0.588,0.196-1.099,0.587-1.531C22.341,54.729,22.885,54.49,23.542,54.49z M23.54,55.025c-0.455,0-0.846,0.168-1.172,0.504
				c-0.327,0.336-0.49,0.742-0.49,1.219c0,0.307,0.074,0.594,0.224,0.859c0.149,0.266,0.35,0.471,0.604,0.615
				s0.532,0.217,0.835,0.217s0.582-0.072,0.835-0.217s0.455-0.35,0.604-0.615s0.224-0.552,0.224-0.859
				c0-0.477-0.164-0.883-0.492-1.219C24.382,55.193,23.992,55.025,23.54,55.025z"/>
			<path style="fill:#595757;" d="M26.562,54.6h0.559v0.621c0.167-0.245,0.342-0.428,0.527-0.549s0.377-0.182,0.578-0.182
				c0.151,0,0.313,0.048,0.484,0.145l-0.285,0.461c-0.115-0.049-0.211-0.074-0.289-0.074c-0.182,0-0.358,0.075-0.527,0.225
				s-0.298,0.382-0.387,0.697c-0.068,0.242-0.102,0.732-0.102,1.469v1.438h-0.559V54.6z"/>
			<path style="fill:#595757;" d="M32.753,57.439l0.461,0.242c-0.151,0.297-0.326,0.537-0.524,0.719s-0.421,0.321-0.668,0.416
				c-0.248,0.095-0.528,0.143-0.841,0.143c-0.693,0-1.235-0.227-1.626-0.682s-0.586-0.968-0.586-1.541
				c0-0.539,0.166-1.02,0.497-1.441c0.419-0.537,0.981-0.805,1.685-0.805c0.725,0,1.303,0.275,1.736,0.824
				c0.308,0.388,0.464,0.873,0.469,1.453H29.53c0.01,0.494,0.168,0.898,0.473,1.214c0.305,0.316,0.682,0.474,1.13,0.474
				c0.216,0,0.427-0.038,0.632-0.113c0.205-0.075,0.378-0.175,0.522-0.3C32.431,57.918,32.586,57.717,32.753,57.439z M32.753,56.295
				c-0.073-0.292-0.179-0.525-0.319-0.699s-0.324-0.315-0.553-0.422s-0.471-0.16-0.724-0.16c-0.417,0-0.776,0.134-1.076,0.402
				c-0.219,0.195-0.384,0.488-0.497,0.879H32.753z"/>
		</g>
	</g>
	<g>
		<circle style="fill:#9FA0A0;" cx="23.667" cy="23.667" r="23.667"/>
		<circle style="fill:#FFFFFF;" cx="23.667" cy="23.664" r="3"/>
		<circle style="fill:#FFFFFF;" cx="32.854" cy="23.664" r="3"/>
		<circle style="fill:#FFFFFF;" cx="14.479" cy="23.664" r="3"/>
	</g>
</g>
</svg>
