<?xml version="1.0" encoding="iso-8859-1"?>
<!-- Generator: Adobe Illustrator 16.0.0, SVG Export Plug-In . SVG Version: 6.00 Build 0)  -->
<!DOCTYPE svg PUBLIC "-//W3C//DTD SVG 1.1//EN" "http://www.w3.org/Graphics/SVG/1.1/DTD/svg11.dtd">
<svg version="1.1" id="&#x5716;&#x5C64;_1" xmlns="http://www.w3.org/2000/svg" xmlns:xlink="http://www.w3.org/1999/xlink" x="0px"
	 y="0px" width="14.811px" height="19.437px" viewBox="0 0 14.811 19.437" style="enable-background:new 0 0 14.811 19.437;"
	 xml:space="preserve">
<path style="fill:#2C50A2;stroke:#00A0E9;stroke-width:0.25;stroke-miterlimit:10;" d="M7.405,0.125c-4.026,0-7.28,2.955-7.28,6.594
	c0,0.582,0.079,1.143,0.24,1.676H0.358c0.611,3.463,7.047,10.852,7.047,10.852s6.429-7.389,7.04-10.852
	c0.16-0.533,0.24-1.094,0.24-1.676C14.686,3.08,11.424,0.125,7.405,0.125z M10.04,7.346C9.734,8.408,8.671,9.193,7.405,9.193
	c-1.268,0-2.33-0.785-2.635-1.848C4.704,7.148,4.675,6.938,4.675,6.719c0-1.363,1.223-2.473,2.73-2.473
	c1.507,0,2.73,1.109,2.73,2.473C10.136,6.938,10.106,7.148,10.04,7.346z"/>
</svg>
