<?xml version="1.0" encoding="iso-8859-1"?>
<!-- Generator: Adobe Illustrator 16.0.0, SVG Export Plug-In . SVG Version: 6.00 Build 0)  -->
<!DOCTYPE svg PUBLIC "-//W3C//DTD SVG 1.1//EN" "http://www.w3.org/Graphics/SVG/1.1/DTD/svg11.dtd">
<svg version="1.1" id="&#x5716;&#x5C64;_1" xmlns="http://www.w3.org/2000/svg" xmlns:xlink="http://www.w3.org/1999/xlink" x="0px"
	 y="0px" width="47.334px" height="58.959px" viewBox="0 0 47.334 58.959" style="enable-background:new 0 0 47.334 58.959;"
	 xml:space="preserve">
<g>
	<g>
		<g>
			<path style="fill:#595757;" d="M8.167,58.85l0.823-5.746h0.093l2.336,4.715l2.313-4.715h0.092l0.827,5.746h-0.563l-0.568-4.109
				l-2.032,4.109h-0.147l-2.056-4.141L8.722,58.85H8.167z"/>
			<path style="fill:#595757;" d="M19.269,57.439l0.461,0.242c-0.151,0.297-0.326,0.537-0.524,0.719s-0.421,0.321-0.668,0.416
				c-0.248,0.095-0.528,0.143-0.841,0.143c-0.693,0-1.235-0.227-1.626-0.682s-0.586-0.968-0.586-1.541
				c0-0.539,0.166-1.02,0.497-1.441c0.419-0.537,0.981-0.805,1.685-0.805c0.725,0,1.303,0.275,1.736,0.824
				c0.308,0.388,0.464,0.873,0.469,1.453h-3.824c0.01,0.494,0.168,0.898,0.473,1.214c0.305,0.316,0.682,0.474,1.13,0.474
				c0.216,0,0.427-0.038,0.632-0.113c0.205-0.075,0.378-0.175,0.522-0.3C18.946,57.918,19.102,57.717,19.269,57.439z M19.269,56.295
				c-0.073-0.292-0.179-0.525-0.319-0.699s-0.324-0.315-0.553-0.422s-0.471-0.16-0.724-0.16c-0.417,0-0.776,0.134-1.076,0.402
				c-0.219,0.195-0.384,0.488-0.497,0.879H19.269z"/>
			<path style="fill:#595757;" d="M25.132,52.959v5.891h-0.539v-0.73c-0.229,0.279-0.486,0.488-0.771,0.629
				s-0.597,0.211-0.936,0.211c-0.602,0-1.115-0.218-1.541-0.654s-0.639-0.967-0.639-1.592c0-0.612,0.215-1.135,0.645-1.57
				s0.947-0.652,1.551-0.652c0.349,0,0.665,0.074,0.947,0.223s0.531,0.371,0.744,0.668v-2.422H25.132z M22.946,55.018
				c-0.304,0-0.585,0.075-0.843,0.225c-0.258,0.149-0.462,0.359-0.615,0.63c-0.152,0.271-0.228,0.557-0.228,0.858
				c0,0.299,0.077,0.585,0.23,0.858c0.154,0.273,0.36,0.486,0.619,0.638c0.259,0.152,0.537,0.229,0.833,0.229
				c0.299,0,0.583-0.075,0.851-0.227c0.268-0.15,0.474-0.355,0.618-0.612c0.145-0.257,0.217-0.547,0.217-0.87
				c0-0.492-0.162-0.902-0.486-1.233S23.42,55.018,22.946,55.018z"/>
			<path style="fill:#595757;" d="M26.56,52.85c0.125,0,0.231,0.044,0.319,0.133c0.088,0.088,0.132,0.195,0.132,0.32
				c0,0.123-0.044,0.228-0.132,0.316c-0.088,0.088-0.194,0.133-0.319,0.133c-0.122,0-0.227-0.044-0.315-0.133
				c-0.088-0.088-0.132-0.194-0.132-0.316c0-0.125,0.044-0.232,0.132-0.32C26.333,52.894,26.438,52.85,26.56,52.85z M26.288,54.6
				h0.547v4.25h-0.547V54.6z"/>
			<path style="fill:#595757;" d="M32.097,55.482l-0.434,0.27c-0.375-0.498-0.886-0.746-1.533-0.746c-0.518,0-0.948,0.167-1.29,0.5
				c-0.342,0.333-0.513,0.737-0.513,1.213c0,0.31,0.079,0.601,0.236,0.874c0.158,0.273,0.374,0.485,0.648,0.636
				c0.274,0.151,0.582,0.227,0.923,0.227c0.624,0,1.134-0.249,1.529-0.746l0.434,0.285c-0.203,0.306-0.476,0.543-0.818,0.712
				c-0.342,0.168-0.732,0.253-1.17,0.253c-0.672,0-1.229-0.213-1.672-0.641s-0.664-0.947-0.664-1.559
				c0-0.412,0.104-0.793,0.311-1.146s0.492-0.628,0.854-0.826s0.767-0.297,1.215-0.297c0.281,0,0.553,0.043,0.814,0.129
				s0.484,0.198,0.666,0.336S31.969,55.269,32.097,55.482z"/>
			<path style="fill:#595757;" d="M37.382,54.6v4.25h-0.539v-0.73c-0.229,0.279-0.486,0.488-0.771,0.629s-0.597,0.211-0.936,0.211
				c-0.602,0-1.115-0.218-1.541-0.654s-0.639-0.967-0.639-1.592c0-0.612,0.215-1.135,0.645-1.57s0.947-0.652,1.551-0.652
				c0.349,0,0.665,0.074,0.947,0.223s0.531,0.371,0.744,0.668V54.6H37.382z M35.196,55.018c-0.304,0-0.585,0.075-0.843,0.225
				c-0.258,0.149-0.462,0.359-0.615,0.63c-0.152,0.271-0.228,0.557-0.228,0.858c0,0.299,0.077,0.585,0.23,0.858
				c0.154,0.273,0.36,0.486,0.619,0.638c0.259,0.152,0.537,0.229,0.833,0.229c0.299,0,0.583-0.075,0.851-0.227
				c0.268-0.15,0.474-0.355,0.618-0.612c0.145-0.257,0.217-0.547,0.217-0.87c0-0.492-0.162-0.902-0.486-1.233
				S35.67,55.018,35.196,55.018z"/>
			<path style="fill:#595757;" d="M38.53,52.959h0.547v5.891H38.53V52.959z"/>
		</g>
	</g>
	<g>
		<circle style="fill:#036EB8;" cx="23.667" cy="23.667" r="23.667"/>
		<g>
			<path style="fill:#FFFFFF;" d="M19.96,19.957l7.415,7.415l-6.306,6.306c-2.046,2.047-5.368,2.047-7.415,0s-2.047-5.368,0-7.415
				L19.96,19.957z"/>
			<path style="fill:none;stroke:#FFFFFF;stroke-miterlimit:10;" d="M26.263,13.655L13.658,26.26c-2.049,2.047-2.049,5.368,0,7.415
				c2.047,2.048,5.367,2.047,7.414,0l12.605-12.605c2.047-2.047,2.048-5.367,0-7.414C31.631,11.606,28.311,11.606,26.263,13.655z"/>
		</g>
	</g>
</g>
</svg>
