<?xml version="1.0" encoding="iso-8859-1"?>
<!-- Generator: Adobe Illustrator 16.0.0, SVG Export Plug-In . SVG Version: 6.00 Build 0)  -->
<!DOCTYPE svg PUBLIC "-//W3C//DTD SVG 1.1//EN" "http://www.w3.org/Graphics/SVG/1.1/DTD/svg11.dtd">
<svg version="1.1" id="&#x5716;&#x5C64;_1" xmlns="http://www.w3.org/2000/svg" xmlns:xlink="http://www.w3.org/1999/xlink" x="0px"
	 y="0px" width="32.484px" height="10.563px" viewBox="0 0 32.484 10.563" style="enable-background:new 0 0 32.484 10.563;"
	 xml:space="preserve">
<g>
	<path style="fill:#E8C41D;" d="M6.146,1.621l-1.418,1.25c-0.498-0.692-1.004-1.039-1.52-1.039c-0.252,0-0.457,0.068-0.617,0.202
		C2.432,2.168,2.352,2.32,2.352,2.488c0,0.169,0.058,0.328,0.171,0.479C2.678,3.168,3.146,3.599,3.927,4.26
		C4.657,4.87,5.1,5.255,5.255,5.414c0.389,0.393,0.663,0.768,0.824,1.125c0.162,0.357,0.244,0.748,0.244,1.172
		c0,0.825-0.285,1.507-0.855,2.045c-0.57,0.537-1.314,0.807-2.23,0.807c-0.717,0-1.34-0.176-1.872-0.527
		C0.834,9.685,0.378,9.133,0,8.381L1.608,7.41c0.484,0.889,1.041,1.334,1.671,1.334c0.329,0,0.604-0.096,0.829-0.287
		c0.223-0.191,0.335-0.413,0.335-0.664c0-0.228-0.085-0.455-0.253-0.684c-0.17-0.228-0.541-0.576-1.117-1.045
		C1.978,5.171,1.271,4.481,0.951,3.996s-0.479-0.97-0.479-1.453c0-0.697,0.266-1.295,0.797-1.794S2.456,0,3.237,0
		c0.502,0,0.979,0.117,1.434,0.35C5.124,0.582,5.616,1.006,6.146,1.621z"/>
	<path style="fill:#E8C41D;" d="M13.433,2.871h1.866v7.438h-1.866V9.523c-0.364,0.346-0.729,0.596-1.096,0.748
		c-0.367,0.152-0.764,0.229-1.191,0.229c-0.961,0-1.791-0.372-2.492-1.117S7.602,7.711,7.602,6.604c0-1.148,0.339-2.089,1.018-2.822
		c0.679-0.734,1.502-1.102,2.472-1.102c0.445,0,0.865,0.085,1.256,0.254c0.392,0.168,0.754,0.421,1.086,0.758V2.871z M11.471,4.402
		c-0.577,0-1.056,0.205-1.438,0.612S9.461,5.945,9.461,6.584c0,0.643,0.194,1.171,0.583,1.586c0.388,0.414,0.865,0.621,1.434,0.621
		c0.586,0,1.072-0.203,1.458-0.611s0.579-0.942,0.579-1.604c0-0.646-0.193-1.171-0.579-1.572C12.55,4.604,12.062,4.402,11.471,4.402
		z"/>
	<path style="fill:#E8C41D;" d="M16.39,2.871h1.9l1.879,4.389l1.875-4.389h1.893l-3.166,7.438h-1.209L16.39,2.871z"/>
	<path style="fill:#E8C41D;" d="M32.478,7.131h-5.995c0.087,0.528,0.317,0.949,0.694,1.261c0.375,0.312,0.855,0.468,1.438,0.468
		c0.696,0,1.296-0.243,1.798-0.73l1.572,0.738c-0.393,0.556-0.861,0.967-1.408,1.233S29.381,10.5,28.629,10.5
		c-1.167,0-2.116-0.367-2.851-1.104s-1.101-1.658-1.101-2.766c0-1.135,0.366-2.076,1.097-2.826c0.732-0.75,1.648-1.125,2.752-1.125
		c1.172,0,2.123,0.375,2.857,1.125s1.101,1.74,1.101,2.971L32.478,7.131z M30.611,5.66c-0.123-0.414-0.366-0.752-0.729-1.012
		S29.099,4.26,28.618,4.26c-0.52,0-0.977,0.146-1.369,0.438C27.003,4.879,26.774,5.2,26.564,5.66H30.611z"/>
</g>
</svg>
