<?xml version="1.0" encoding="iso-8859-1"?>
<!-- Generator: Adobe Illustrator 16.0.0, SVG Export Plug-In . SVG Version: 6.00 Build 0)  -->
<!DOCTYPE svg PUBLIC "-//W3C//DTD SVG 1.1//EN" "http://www.w3.org/Graphics/SVG/1.1/DTD/svg11.dtd">
<svg version="1.1" id="&#x5716;&#x5C64;_1" xmlns="http://www.w3.org/2000/svg" xmlns:xlink="http://www.w3.org/1999/xlink" x="0px"
	 y="0px" width="47.33px" height="58.958px" viewBox="0 0 47.33 58.958" style="enable-background:new 0 0 47.33 58.958;"
	 xml:space="preserve">
<g>
	<g>
		<g>
			<path style="fill:#595757;" d="M14.446,53.103h2.879v0.563h-2.305v1.801h2.305v0.563h-2.305v2.82h-0.574V53.103z"/>
			<path style="fill:#595757;" d="M20.247,54.489c0.655,0,1.197,0.237,1.628,0.711c0.391,0.432,0.587,0.944,0.587,1.535
				c0,0.594-0.207,1.113-0.62,1.557c-0.414,0.444-0.945,0.666-1.595,0.666c-0.652,0-1.185-0.222-1.599-0.666s-0.62-0.963-0.62-1.557
				c0-0.588,0.196-1.099,0.587-1.531C19.046,54.728,19.59,54.489,20.247,54.489z M20.245,55.024c-0.455,0-0.846,0.168-1.172,0.504
				c-0.327,0.336-0.49,0.742-0.49,1.219c0,0.307,0.074,0.594,0.224,0.859c0.149,0.266,0.35,0.471,0.604,0.615
				s0.532,0.217,0.835,0.217s0.582-0.072,0.835-0.217s0.455-0.35,0.604-0.615s0.224-0.552,0.224-0.859
				c0-0.477-0.164-0.883-0.492-1.219C21.087,55.192,20.697,55.024,20.245,55.024z"/>
			<path style="fill:#595757;" d="M25.485,54.489c0.655,0,1.197,0.237,1.628,0.711c0.391,0.432,0.587,0.944,0.587,1.535
				c0,0.594-0.207,1.113-0.62,1.557c-0.414,0.444-0.945,0.666-1.595,0.666c-0.652,0-1.185-0.222-1.599-0.666s-0.62-0.963-0.62-1.557
				c0-0.588,0.196-1.099,0.587-1.531C24.284,54.728,24.828,54.489,25.485,54.489z M25.483,55.024c-0.455,0-0.846,0.168-1.172,0.504
				c-0.327,0.336-0.49,0.742-0.49,1.219c0,0.307,0.074,0.594,0.224,0.859c0.149,0.266,0.35,0.471,0.604,0.615
				s0.532,0.217,0.835,0.217s0.582-0.072,0.835-0.217s0.455-0.35,0.604-0.615s0.224-0.552,0.224-0.859
				c0-0.477-0.164-0.883-0.492-1.219C26.326,55.192,25.936,55.024,25.483,55.024z"/>
			<path style="fill:#595757;" d="M32.954,52.958v5.891h-0.539v-0.73c-0.229,0.279-0.486,0.488-0.771,0.629
				s-0.597,0.211-0.936,0.211c-0.602,0-1.115-0.218-1.541-0.654s-0.639-0.967-0.639-1.592c0-0.612,0.215-1.135,0.645-1.57
				s0.947-0.652,1.551-0.652c0.349,0,0.665,0.074,0.947,0.223s0.531,0.371,0.744,0.668v-2.422H32.954z M30.769,55.017
				c-0.304,0-0.585,0.075-0.843,0.225c-0.258,0.149-0.462,0.359-0.615,0.63c-0.152,0.271-0.228,0.557-0.228,0.858
				c0,0.299,0.077,0.585,0.23,0.858c0.154,0.273,0.36,0.486,0.619,0.638c0.259,0.152,0.537,0.229,0.833,0.229
				c0.299,0,0.583-0.075,0.851-0.227c0.268-0.15,0.474-0.355,0.618-0.612c0.145-0.257,0.217-0.547,0.217-0.87
				c0-0.492-0.162-0.902-0.486-1.233S31.242,55.017,30.769,55.017z"/>
		</g>
	</g>
	<g>
		<path style="fill:#E4007F;" d="M47.33,23.67c0,10.359-6.67,19.17-15.949,22.359c-0.811,0.29-1.641,0.53-2.49,0.71
			c-1.681,0.391-3.431,0.59-5.23,0.59c-1.84,0-3.64-0.21-5.359-0.619c-0.71-0.16-1.41-0.351-2.091-0.591C6.79,43.01,0,34.14,0,23.67
			C0,10.6,10.591,0,23.66,0C36.73,0,47.33,10.6,47.33,23.67z"/>
		<path style="fill-rule:evenodd;clip-rule:evenodd;fill:#FFFFFF;" d="M32.04,16.619L31.699,35.1v5.92l-0.509,0.81l0.19,4.2
			c-0.811,0.29-1.641,0.53-2.49,0.71h-0.17l0.189-5.01c0.221-1.6-2.5-1.63-2.609-3.75c0-8.3,0.739-12.57,2.609-20.71
			C29.62,14.149,32.301,10.729,32.04,16.619z"/>
		<path style="fill-rule:evenodd;clip-rule:evenodd;fill:#FFFFFF;" d="M21.971,30.56c0,2.75-3.601,3.67-3.601,5.4v10.75h-0.069
			c-0.71-0.16-1.41-0.351-2.091-0.591V35.96c0-1.73-3.6-2.641-3.6-5.4c0.45-5.65,0.89-11.31,1.33-16.97
			c0.2-0.11,0.4-0.221,0.59,0.01c0.101,5.14,0.2,10.27,0.3,15.41c0.17,0.319,0.38,0.319,0.63,0c0.131-5.13,0.261-10.26,0.39-15.38
			c0.221-0.25,0.411-0.25,0.681,0.01c0.13,5.12,0.33,10.25,0.46,15.37c0.22,0.24,0.44,0.24,0.66-0.01
			c0.14-5.11,0.28-10.23,0.42-15.351c0.2-0.25,0.39-0.25,0.59,0c0.15,5.12,0.311,10.24,0.46,15.351c0.24,0.329,0.48,0.329,0.721,0
			c0.109-5.11,0.22-10.23,0.329-15.351c0.221-0.22,0.421-0.21,0.591,0.01L21.971,30.56z"/>
	</g>
</g>
</svg>
