<?xml version="1.0" encoding="iso-8859-1"?>
<!-- Generator: Adobe Illustrator 16.0.0, SVG Export Plug-In . SVG Version: 6.00 Build 0)  -->
<!DOCTYPE svg PUBLIC "-//W3C//DTD SVG 1.1//EN" "http://www.w3.org/Graphics/SVG/1.1/DTD/svg11.dtd">
<svg version="1.1" id="&#x5716;&#x5C64;_1" xmlns="http://www.w3.org/2000/svg" xmlns:xlink="http://www.w3.org/1999/xlink" x="0px"
	 y="0px" width="47.333px" height="58.959px" viewBox="0 0 47.333 58.959" style="enable-background:new 0 0 47.333 58.959;"
	 xml:space="preserve">
<g>
	<g>
		<g>
			<path style="fill:#595757;" d="M13.386,58.85v-5.746h1.191c0.859,0,1.483,0.069,1.871,0.207c0.557,0.195,0.993,0.534,1.307,1.016
				s0.471,1.056,0.471,1.723c0,0.576-0.125,1.082-0.373,1.52s-0.572,0.76-0.969,0.969s-0.954,0.313-1.67,0.313H13.386z
				 M13.937,58.307h0.664c0.794,0,1.345-0.049,1.652-0.148c0.432-0.141,0.772-0.394,1.02-0.759c0.248-0.366,0.371-0.813,0.371-1.341
				c0-0.554-0.134-1.028-0.402-1.421c-0.268-0.393-0.642-0.662-1.121-0.808c-0.359-0.109-0.952-0.164-1.777-0.164h-0.406V58.307z"/>
			<path style="fill:#595757;" d="M19.042,54.6h0.559v0.621c0.167-0.245,0.342-0.428,0.527-0.549s0.377-0.182,0.578-0.182
				c0.151,0,0.313,0.048,0.484,0.145l-0.285,0.461c-0.115-0.049-0.211-0.074-0.289-0.074c-0.182,0-0.358,0.075-0.527,0.225
				s-0.298,0.382-0.387,0.697c-0.068,0.242-0.102,0.732-0.102,1.469v1.438h-0.559V54.6z"/>
			<path style="fill:#595757;" d="M21.845,52.85c0.125,0,0.231,0.044,0.319,0.133c0.088,0.088,0.132,0.195,0.132,0.32
				c0,0.123-0.044,0.228-0.132,0.316c-0.088,0.088-0.194,0.133-0.319,0.133c-0.122,0-0.227-0.044-0.315-0.133
				c-0.088-0.088-0.132-0.194-0.132-0.316c0-0.125,0.044-0.232,0.132-0.32C21.618,52.894,21.723,52.85,21.845,52.85z M21.573,54.6
				h0.547v4.25h-0.547V54.6z"/>
			<path style="fill:#595757;" d="M23.257,54.6h0.547v0.762c0.219-0.292,0.461-0.51,0.727-0.654s0.555-0.217,0.867-0.217
				c0.318,0,0.6,0.081,0.846,0.242s0.428,0.379,0.545,0.652s0.176,0.699,0.176,1.277v2.188h-0.547v-2.027
				c0-0.49-0.021-0.816-0.061-0.98c-0.063-0.281-0.185-0.493-0.364-0.635s-0.415-0.213-0.704-0.213
				c-0.331,0-0.627,0.109-0.889,0.328s-0.434,0.49-0.518,0.813c-0.052,0.211-0.078,0.596-0.078,1.156v1.559h-0.547V54.6z"/>
			<path style="fill:#595757;" d="M28.132,52.959h0.547v3.356l1.97-1.715h0.803l-2.336,2.027l2.473,2.223h-0.77l-2.141-1.914v1.914
				h-0.547V52.959z"/>
			<path style="fill:#595757;" d="M34.288,55.064l-0.352,0.363c-0.292-0.284-0.578-0.426-0.857-0.426
				c-0.178,0-0.33,0.059-0.457,0.176s-0.19,0.254-0.19,0.41c0,0.138,0.052,0.27,0.157,0.395c0.104,0.127,0.323,0.277,0.658,0.449
				c0.407,0.211,0.684,0.414,0.83,0.609c0.144,0.198,0.215,0.42,0.215,0.668c0,0.349-0.123,0.645-0.368,0.887
				s-0.552,0.363-0.919,0.363c-0.245,0-0.479-0.053-0.702-0.16c-0.223-0.107-0.408-0.254-0.554-0.441l0.344-0.391
				c0.279,0.315,0.576,0.473,0.889,0.473c0.219,0,0.406-0.07,0.56-0.211c0.154-0.141,0.231-0.306,0.231-0.496
				c0-0.156-0.051-0.295-0.153-0.418c-0.102-0.12-0.332-0.271-0.689-0.453c-0.383-0.198-0.645-0.393-0.783-0.586
				s-0.208-0.413-0.208-0.66c0-0.323,0.11-0.591,0.331-0.805s0.499-0.32,0.835-0.32C33.498,54.49,33.892,54.682,34.288,55.064z"/>
		</g>
	</g>
	<g>
		<circle style="fill:#E8C41D;" cx="23.667" cy="23.667" r="23.667"/>
		<g>
			<path style="fill:#FFFFFF;" d="M15.05,14.98v0.66h1.149l2.87,20h9.2l2.87-20h1.149v-0.66H15.05z M23.669,29.311
				c-2.21,0-4-1.79-4-4s1.79-4,4-4s4,1.79,4,4S25.879,29.311,23.669,29.311z"/>
			<line style="fill:none;stroke:#FFFFFF;stroke-miterlimit:10;" x1="23.046" y1="17.76" x2="24.213" y2="11.552"/>
			<line style="fill:none;stroke:#FFFFFF;stroke-miterlimit:10;" x1="23.963" y1="11.989" x2="28.421" y2="9.885"/>
		</g>
	</g>
</g>
</svg>
