<?xml version="1.0" encoding="iso-8859-1"?>
<!-- Generator: Adobe Illustrator 16.0.0, SVG Export Plug-In . SVG Version: 6.00 Build 0)  -->
<!DOCTYPE svg PUBLIC "-//W3C//DTD SVG 1.1//EN" "http://www.w3.org/Graphics/SVG/1.1/DTD/svg11.dtd">
<svg version="1.1" id="&#x5716;&#x5C64;_1" xmlns="http://www.w3.org/2000/svg" xmlns:xlink="http://www.w3.org/1999/xlink" x="0px"
	 y="0px" width="57.934px" height="23.166px" viewBox="0 0 57.934 23.166" style="enable-background:new 0 0 57.934 23.166;"
	 xml:space="preserve">
<g>
	<g>
		<path style="fill:#FFFFFF;" d="M19.003,7.208L18.21,7.817c-0.438-0.57-0.963-1.002-1.575-1.296
			c-0.613-0.294-1.287-0.44-2.021-0.44c-0.802,0-1.546,0.191-2.229,0.577s-1.213,0.902-1.588,1.552
			c-0.377,0.649-0.564,1.38-0.564,2.191c0,1.226,0.42,2.248,1.262,3.068c0.84,0.82,1.9,1.23,3.182,1.23
			c1.408,0,2.586-0.551,3.534-1.654l0.793,0.602c-0.501,0.639-1.127,1.132-1.876,1.48c-0.75,0.349-1.588,0.523-2.513,0.523
			c-1.759,0-3.147-0.586-4.163-1.758c-0.852-0.988-1.278-2.183-1.278-3.582c0-1.472,0.517-2.71,1.548-3.715
			c1.033-1.005,2.326-1.508,3.88-1.508c0.938,0,1.786,0.186,2.543,0.558S18.52,6.538,19.003,7.208z"/>
		<path style="fill:#FFFFFF;" d="M28.272,7.96v7.438h-0.943V14.12c-0.401,0.487-0.851,0.854-1.351,1.1
			c-0.498,0.246-1.045,0.369-1.637,0.369c-1.053,0-1.951-0.381-2.697-1.145c-0.744-0.764-1.117-1.691-1.117-2.785
			c0-1.071,0.376-1.987,1.128-2.748c0.752-0.762,1.657-1.143,2.714-1.143c0.611,0,1.162,0.131,1.658,0.391
			c0.494,0.26,0.928,0.648,1.302,1.168V7.96H28.272z M24.447,8.692c-0.532,0-1.023,0.131-1.475,0.393s-0.809,0.629-1.075,1.103
			s-0.399,0.974-0.399,1.502c0,0.523,0.135,1.024,0.402,1.503c0.27,0.477,0.63,0.85,1.082,1.115c0.453,0.267,0.939,0.4,1.459,0.4
			c0.523,0,1.02-0.133,1.488-0.396s0.829-0.621,1.082-1.072c0.252-0.45,0.379-0.958,0.379-1.522c0-0.86-0.283-1.579-0.85-2.157
			C25.974,8.981,25.276,8.692,24.447,8.692z"/>
		<path style="fill:#FFFFFF;" d="M30.426,7.96h0.957v1.334c0.383-0.511,0.807-0.893,1.271-1.146s0.971-0.38,1.518-0.38
			c0.557,0,1.049,0.142,1.48,0.424c0.43,0.283,0.748,0.664,0.953,1.143s0.308,1.223,0.308,2.234v3.828h-0.957v-3.547
			c0-0.857-0.036-1.43-0.106-1.717c-0.111-0.492-0.324-0.861-0.639-1.11s-0.725-0.372-1.23-0.372c-0.578,0-1.098,0.191-1.555,0.574
			c-0.459,0.383-0.76,0.856-0.906,1.422c-0.092,0.369-0.137,1.043-0.137,2.023v2.727h-0.957V7.96z"/>
		<path style="fill:#FFFFFF;" d="M46.182,9.505l-0.758,0.473c-0.655-0.871-1.55-1.307-2.684-1.307c-0.906,0-1.658,0.292-2.256,0.875
			c-0.6,0.582-0.898,1.29-0.898,2.123c0,0.541,0.138,1.052,0.413,1.529c0.275,0.479,0.653,0.85,1.134,1.113s1.018,0.396,1.614,0.396
			c1.093,0,1.985-0.436,2.677-1.307l0.758,0.5c-0.354,0.535-0.832,0.95-1.432,1.245c-0.6,0.296-1.281,0.442-2.047,0.442
			c-1.176,0-2.15-0.373-2.926-1.121c-0.775-0.747-1.162-1.656-1.162-2.727c0-0.721,0.182-1.389,0.543-2.007
			c0.363-0.618,0.861-1.1,1.494-1.446c0.633-0.346,1.342-0.52,2.126-0.52c0.492,0,0.968,0.076,1.425,0.227
			c0.459,0.15,0.848,0.346,1.166,0.588C45.688,8.824,45.959,9.132,46.182,9.505z"/>
		<path style="fill:#FFFFFF;" d="M54.283,12.931l0.807,0.424c-0.265,0.52-0.57,0.938-0.917,1.258
			c-0.347,0.318-0.736,0.561-1.17,0.728c-0.435,0.167-0.924,0.249-1.472,0.249c-1.213,0-2.162-0.396-2.846-1.192
			s-1.026-1.694-1.026-2.696c0-0.943,0.29-1.785,0.869-2.523c0.733-0.938,1.718-1.408,2.948-1.408c1.269,0,2.281,0.481,3.037,1.443
			c0.539,0.679,0.813,1.526,0.822,2.543h-6.692c0.019,0.863,0.294,1.572,0.828,2.124s1.193,0.829,1.978,0.829
			c0.379,0,0.748-0.066,1.105-0.197c0.358-0.133,0.662-0.307,0.914-0.525C53.72,13.768,53.991,13.416,54.283,12.931z M54.283,10.927
			c-0.128-0.51-0.313-0.918-0.559-1.223c-0.244-0.306-0.566-0.552-0.968-0.738c-0.401-0.188-0.823-0.281-1.267-0.281
			c-0.729,0-1.357,0.235-1.882,0.705c-0.384,0.342-0.673,0.854-0.869,1.537H54.283z"/>
		<path style="fill:#FFFFFF;" d="M56.977,5.089h0.957v10.309h-0.957V5.089z"/>
	</g>
	<line style="fill:none;stroke:#FFFFFF;stroke-miterlimit:10;" x1="0" y1="0" x2="0" y2="23.166"/>
</g>
</svg>
