<?xml version="1.0" encoding="iso-8859-1"?>
<!-- Generator: Adobe Illustrator 16.0.0, SVG Export Plug-In . SVG Version: 6.00 Build 0)  -->
<!DOCTYPE svg PUBLIC "-//W3C//DTD SVG 1.1//EN" "http://www.w3.org/Graphics/SVG/1.1/DTD/svg11.dtd">
<svg version="1.1" id="&#x5716;&#x5C64;_1" xmlns="http://www.w3.org/2000/svg" xmlns:xlink="http://www.w3.org/1999/xlink" x="0px"
	 y="0px" width="29.366px" height="29.366px" viewBox="0 0 29.366 29.366" style="enable-background:new 0 0 29.366 29.366;"
	 xml:space="preserve">
<g>
	<path style="fill:#E4007F;" d="M29.366,14.687c0,6.427-4.139,11.895-9.896,13.873c-0.504,0.18-1.019,0.33-1.544,0.439
		c-1.045,0.244-2.129,0.367-3.246,0.367c-1.143,0-2.259-0.13-3.326-0.384c-0.439-0.1-0.875-0.218-1.297-0.367
		C4.213,26.686,0,21.183,0,14.687C0,6.577,6.571,0,14.681,0S29.366,6.577,29.366,14.687z"/>
	<path style="fill-rule:evenodd;clip-rule:evenodd;fill:#FFFFFF;" d="M19.88,10.312l-0.211,11.467v3.673l-0.317,0.502l0.119,2.606
		c-0.504,0.18-1.019,0.33-1.544,0.439H17.82l0.115-3.106c0.14-0.993-1.55-1.012-1.617-2.327c0-5.15,0.46-7.8,1.617-12.85
		C18.378,8.779,20.042,6.657,19.88,10.312z"/>
	<path style="fill-rule:evenodd;clip-rule:evenodd;fill:#FFFFFF;" d="M13.632,18.96c0,1.707-2.233,2.278-2.233,3.352v6.671h-0.044
		c-0.439-0.1-0.875-0.218-1.297-0.367v-6.304c0-1.073-2.234-1.638-2.234-3.352c0.279-3.506,0.553-7.017,0.827-10.527
		c0.124-0.069,0.247-0.137,0.365,0.005c0.063,3.189,0.124,6.372,0.187,9.562c0.104,0.198,0.233,0.198,0.391,0
		c0.08-3.183,0.16-6.365,0.241-9.543c0.137-0.154,0.254-0.154,0.42,0.007c0.083,3.178,0.206,6.359,0.288,9.536
		c0.137,0.149,0.273,0.149,0.41-0.006c0.086-3.171,0.172-6.348,0.26-9.523c0.124-0.156,0.242-0.156,0.366,0
		c0.092,3.176,0.192,6.353,0.286,9.523c0.148,0.204,0.297,0.204,0.445,0c0.068-3.171,0.138-6.348,0.205-9.523
		c0.137-0.137,0.261-0.131,0.367,0.005L13.632,18.96z"/>
</g>
</svg>
