<?xml version="1.0" encoding="iso-8859-1"?>
<!-- Generator: Adobe Illustrator 16.0.0, SVG Export Plug-In . SVG Version: 6.00 Build 0)  -->
<!DOCTYPE svg PUBLIC "-//W3C//DTD SVG 1.1//EN" "http://www.w3.org/Graphics/SVG/1.1/DTD/svg11.dtd">
<svg version="1.1" id="&#x5716;&#x5C64;_1" xmlns="http://www.w3.org/2000/svg" xmlns:xlink="http://www.w3.org/1999/xlink" x="0px"
	 y="0px" width="86px" height="34px" viewBox="0 0 86 34" style="enable-background:new 0 0 86 34;" xml:space="preserve">
<g>
	<g>
		<path style="fill:#FFFFFF;stroke:#E8C41D;stroke-width:2;stroke-miterlimit:10;" d="M69,1H17C8.164,1,1,8.162,1,17
			c0,8.836,7.164,16,16,16h52l0,0c8.838,0,16-7.164,16-16C85,8.162,77.838,1,69,1z"/>
	</g>
	<g>
		<path style="fill:#2C50A2;" d="M38.881,11.439h1.941v3.793h3.357v-3.793h1.934v10.055H44.18v-4.408h-3.357v4.408h-1.941V11.439z"
			/>
		<path style="fill:#2C50A2;" d="M48.934,10.994c0.327,0,0.607,0.119,0.842,0.355c0.234,0.238,0.352,0.525,0.352,0.861
			c0,0.334-0.116,0.617-0.348,0.852c-0.232,0.234-0.51,0.352-0.832,0.352c-0.332,0-0.615-0.119-0.849-0.357
			c-0.233-0.24-0.351-0.531-0.351-0.873c0-0.328,0.115-0.607,0.348-0.84C48.326,11.111,48.606,10.994,48.934,10.994z M48,14.057
			h1.867v7.438H48V14.057z"/>
		<path style="fill:#2C50A2;" d="M57.051,11.186h1.867v10.309h-1.867v-0.785c-0.363,0.346-0.729,0.596-1.096,0.748
			c-0.366,0.152-0.764,0.229-1.191,0.229c-0.961,0-1.791-0.371-2.492-1.117c-0.701-0.744-1.051-1.672-1.051-2.779
			c0-1.148,0.338-2.088,1.018-2.822c0.678-0.734,1.502-1.102,2.471-1.102c0.446,0,0.865,0.086,1.256,0.254
			c0.393,0.168,0.754,0.422,1.086,0.758V11.186z M55.09,15.588c-0.578,0-1.057,0.205-1.438,0.613
			c-0.382,0.406-0.572,0.93-0.572,1.568c0,0.643,0.193,1.172,0.582,1.586s0.865,0.621,1.434,0.621c0.586,0,1.072-0.203,1.459-0.611
			c0.385-0.408,0.578-0.941,0.578-1.604c0-0.646-0.193-1.17-0.578-1.572C56.168,15.789,55.68,15.588,55.09,15.588z"/>
		<path style="fill:#2C50A2;" d="M68.256,18.316H62.26c0.087,0.529,0.318,0.949,0.694,1.262c0.376,0.311,0.855,0.467,1.438,0.467
			c0.697,0,1.297-0.242,1.799-0.73l1.572,0.738c-0.393,0.557-0.861,0.967-1.408,1.234c-0.547,0.266-1.197,0.398-1.949,0.398
			c-1.166,0-2.116-0.367-2.85-1.104c-0.734-0.736-1.102-1.658-1.102-2.766c0-1.135,0.366-2.076,1.098-2.826s1.648-1.125,2.752-1.125
			c1.17,0,2.123,0.375,2.857,1.125c0.732,0.75,1.1,1.74,1.1,2.971L68.256,18.316z M66.389,16.846
			c-0.123-0.414-0.365-0.752-0.729-1.012s-0.784-0.389-1.264-0.389c-0.521,0-0.977,0.146-1.369,0.438
			c-0.246,0.182-0.475,0.504-0.686,0.963H66.389z"/>
	</g>
	<polygon style="fill:#2C50A2;" points="30.283,18.547 28.436,21.174 23.527,16.24 18.621,21.174 16.783,18.547 23.527,11.76 	"/>
</g>
</svg>
