<?xml version="1.0" encoding="iso-8859-1"?>
<!-- Generator: Adobe Illustrator 16.0.0, SVG Export Plug-In . SVG Version: 6.00 Build 0)  -->
<!DOCTYPE svg PUBLIC "-//W3C//DTD SVG 1.1//EN" "http://www.w3.org/Graphics/SVG/1.1/DTD/svg11.dtd">
<svg version="1.1" id="&#x5716;&#x5C64;_1" xmlns="http://www.w3.org/2000/svg" xmlns:xlink="http://www.w3.org/1999/xlink" x="0px"
	 y="0px" width="14.951px" height="15.715px" viewBox="0 0 14.951 15.715" style="enable-background:new 0 0 14.951 15.715;"
	 xml:space="preserve">
<g>
	<g>
		<path style="fill:none;stroke:#FFFFFF;stroke-miterlimit:10;" d="M14.412,14.035c0,0.651-0.415,1.18-0.928,1.18H1.428
			c-0.513,0-0.928-0.528-0.928-1.18V4.199c0-0.652,0.415-1.18,0.928-1.18h12.057c0.513,0,0.928,0.527,0.928,1.18V14.035z"/>
		<path style="fill:none;stroke:#FFFFFF;stroke-miterlimit:10;" d="M11.393,2.236c0,0.958-0.57,1.736-1.273,1.736H4.793
			c-0.703,0-1.273-0.778-1.273-1.736l0,0C3.52,1.278,4.09,0.5,4.793,0.5h5.326C10.822,0.5,11.393,1.278,11.393,2.236L11.393,2.236z"
			/>
		<path style="fill:#FFFFFF;stroke:#FFFFFF;stroke-miterlimit:10;" d="M14.451,6.713c0,0.553-0.484,1-1.082,1H1.584
			c-0.599,0-1.084-0.447-1.084-1V4.02c0-0.553,0.485-1,1.084-1h11.785c0.598,0,1.082,0.447,1.082,1V6.713z"/>
		<path style="fill:#2C50A2;stroke:#FFFFFF;stroke-miterlimit:10;" d="M9.425,8.051c0,0.59-0.447,1.066-1,1.066H6.486
			c-0.552,0-1-0.477-1-1.066V7.664c0-0.589,0.448-1.066,1-1.066h1.938c0.553,0,1,0.478,1,1.066V8.051z"/>
	</g>
</g>
</svg>
