<?xml version="1.0" encoding="iso-8859-1"?>
<!-- Generator: Adobe Illustrator 16.0.0, SVG Export Plug-In . SVG Version: 6.00 Build 0)  -->
<!DOCTYPE svg PUBLIC "-//W3C//DTD SVG 1.1//EN" "http://www.w3.org/Graphics/SVG/1.1/DTD/svg11.dtd">
<svg version="1.1" id="&#x5716;&#x5C64;_1" xmlns="http://www.w3.org/2000/svg" xmlns:xlink="http://www.w3.org/1999/xlink" x="0px"
	 y="0px" width="843.139px" height="129.044px" viewBox="0 0 843.139 129.044" style="enable-background:new 0 0 843.139 129.044;"
	 xml:space="preserve">
<g>
	
		<line style="fill:none;stroke:#FAFAFA;stroke-width:0.75;stroke-miterlimit:10;" x1="640.444" y1="129.044" x2="710.444" y2="129.044"/>
	<g>
		<rect x="823.724" y="75.135" style="fill:#2C50A2;" width="19.415" height="7"/>
		<rect x="820.845" y="75.135" style="fill:#2E51A2;" width="19.414" height="7"/>
		<rect x="817.964" y="75.135" style="fill:#2F51A2;" width="19.416" height="7"/>
		<rect x="815.084" y="75.135" style="fill:#3052A2;" width="19.415" height="7"/>
		<rect x="812.204" y="75.135" style="fill:#3253A2;" width="19.415" height="7"/>
		<rect x="809.323" y="75.135" style="fill:#3353A2;" width="19.416" height="7"/>
		<rect x="806.444" y="75.135" style="fill:#3454A2;" width="19.414" height="7"/>
		<rect x="803.563" y="75.135" style="fill:#3654A2;" width="19.415" height="7"/>
		<rect x="800.684" y="75.135" style="fill:#3755A2;" width="19.415" height="7"/>
		<rect x="797.804" y="75.135" style="fill:#3856A2;" width="19.414" height="7"/>
		<rect x="794.923" y="75.135" style="fill:#3956A2;" width="19.415" height="7"/>
		<rect x="792.042" y="75.135" style="fill:#3A57A2;" width="19.416" height="7"/>
		<rect x="789.163" y="75.135" style="fill:#3C57A2;" width="19.415" height="7"/>
		<rect x="786.282" y="75.135" style="fill:#3D58A2;" width="19.416" height="7"/>
		<rect x="783.402" y="75.135" style="fill:#3E59A2;" width="19.415" height="7"/>
		<rect x="780.522" y="75.135" style="fill:#3F59A2;" width="19.414" height="7"/>
		<rect x="777.642" y="75.135" style="fill:#405AA2;" width="19.416" height="7"/>
		<rect x="774.762" y="75.135" style="fill:#415AA2;" width="19.415" height="7"/>
		<rect x="771.882" y="75.135" style="fill:#425BA2;" width="19.415" height="7"/>
		<rect x="769.001" y="75.135" style="fill:#445CA2;" width="19.416" height="7"/>
		<rect x="766.122" y="75.135" style="fill:#455CA2;" width="19.414" height="7"/>
		<rect x="763.241" y="75.135" style="fill:#465DA2;" width="19.415" height="7"/>
		<rect x="760.361" y="75.134" style="fill:#475DA2;" width="19.415" height="7"/>
		<rect x="757.481" y="75.135" style="fill:#485EA2;" width="19.414" height="7"/>
		<rect x="754.601" y="75.135" style="fill:#495FA2;" width="19.415" height="7"/>
		<rect x="751.721" y="75.135" style="fill:#4B5FA2;" width="19.415" height="7"/>
		<rect x="748.841" y="75.135" style="fill:#4C60A2;" width="19.414" height="7"/>
		<rect x="745.96" y="75.135" style="fill:#4D61A2;" width="19.415" height="7"/>
		<rect x="743.081" y="75.135" style="fill:#4E61A2;" width="19.414" height="7"/>
		<rect x="740.2" y="75.135" style="fill:#4F62A2;" width="19.415" height="7"/>
		<rect x="737.319" y="75.135" style="fill:#5062A2;" width="19.416" height="7"/>
		<rect x="734.44" y="75.135" style="fill:#5163A2;" width="19.414" height="7"/>
		<rect x="731.56" y="75.135" style="fill:#5264A2;" width="19.415" height="7"/>
		<rect x="728.679" y="75.135" style="fill:#5364A2;" width="19.416" height="7"/>
		<rect x="725.8" y="75.135" style="fill:#5565A2;" width="19.414" height="7"/>
		<rect x="722.919" y="75.135" style="fill:#5666A2;" width="19.415" height="7"/>
		<rect x="720.039" y="75.135" style="fill:#5766A2;" width="19.415" height="7"/>
		<rect x="717.159" y="75.135" style="fill:#5867A2;" width="19.414" height="7"/>
		<rect x="714.278" y="75.135" style="fill:#5968A2;" width="19.416" height="7"/>
		<rect x="711.398" y="75.135" style="fill:#5A68A2;" width="19.415" height="7"/>
		<rect x="708.519" y="75.135" style="fill:#5B69A2;" width="19.414" height="7"/>
		<rect x="705.638" y="75.135" style="fill:#5C6AA2;" width="19.416" height="7"/>
		<rect x="702.758" y="75.135" style="fill:#5D6AA1;" width="19.415" height="7"/>
		<rect x="699.878" y="75.135" style="fill:#5E6BA1;" width="19.415" height="7"/>
		<rect x="696.998" y="75.135" style="fill:#5F6CA1;" width="19.414" height="7"/>
		<rect x="694.118" y="75.135" style="fill:#606CA1;" width="19.414" height="7"/>
		<rect x="691.237" y="75.135" style="fill:#616DA1;" width="19.415" height="7"/>
		<rect x="688.358" y="75.135" style="fill:#626EA1;" width="19.414" height="7"/>
		<rect x="685.478" y="75.135" style="fill:#636EA1;" width="19.414" height="7"/>
		<rect x="682.597" y="75.135" style="fill:#646FA1;" width="19.415" height="7"/>
		<rect x="679.717" y="75.135" style="fill:#656FA1;" width="19.415" height="7"/>
		<rect x="676.837" y="75.135" style="fill:#6670A1;" width="19.414" height="7"/>
		<rect x="673.956" y="75.135" style="fill:#6771A1;" width="19.415" height="7"/>
		<rect x="671.076" y="75.135" style="fill:#6871A1;" width="19.415" height="7"/>
		<rect x="668.196" y="75.135" style="fill:#6972A1;" width="19.414" height="7"/>
		<rect x="665.316" y="75.135" style="fill:#6A73A1;" width="19.415" height="7"/>
		<rect x="662.437" y="75.135" style="fill:#6B73A0;" width="19.414" height="7"/>
		<rect x="659.556" y="75.135" style="fill:#6C74A0;" width="19.414" height="7"/>
		<rect x="656.676" y="75.135" style="fill:#6D75A0;" width="19.415" height="7"/>
		<rect x="653.796" y="75.135" style="fill:#6E75A0;" width="19.414" height="7"/>
		<rect x="650.915" y="75.135" style="fill:#6F76A0;" width="19.415" height="7"/>
		<rect x="648.035" y="75.135" style="fill:#7077A0;" width="19.415" height="7"/>
		<rect x="645.155" y="75.135" style="fill:#7177A0;" width="19.414" height="7"/>
		<rect x="642.275" y="75.135" style="fill:#7278A0;" width="19.414" height="7"/>
		<rect x="639.395" y="75.135" style="fill:#7379A0;" width="19.415" height="7"/>
		<rect x="636.515" y="75.135" style="fill:#73799F;" width="19.414" height="7"/>
		<rect x="633.634" y="75.135" style="fill:#747A9F;" width="19.415" height="7"/>
		<rect x="630.754" y="75.135" style="fill:#757B9F;" width="19.415" height="7"/>
		<rect x="627.874" y="75.135" style="fill:#767B9F;" width="19.415" height="7"/>
		<rect x="624.994" y="75.135" style="fill:#777C9F;" width="19.415" height="7"/>
		<rect x="622.114" y="75.135" style="fill:#787D9F;" width="19.414" height="7"/>
		<rect x="619.233" y="75.135" style="fill:#797D9F;" width="19.415" height="7"/>
		<rect x="616.354" y="75.135" style="fill:#7A7E9F;" width="19.415" height="7"/>
		<rect x="613.474" y="75.135" style="fill:#7B7F9E;" width="19.414" height="7"/>
		<rect x="610.593" y="75.135" style="fill:#7C7F9E;" width="19.415" height="7"/>
		<rect x="607.713" y="75.135" style="fill:#7D809E;" width="19.415" height="7"/>
		<rect x="604.833" y="75.135" style="fill:#7E819E;" width="19.414" height="7"/>
		<rect x="601.953" y="75.135" style="fill:#7F819E;" width="19.414" height="7"/>
		<rect x="599.073" y="75.135" style="fill:#80829E;" width="19.414" height="7"/>
		<rect x="596.192" y="75.135" style="fill:#81839E;" width="19.415" height="7"/>
		<rect x="593.313" y="75.135" style="fill:#82839D;" width="19.414" height="7"/>
		<rect x="590.433" y="75.135" style="fill:#83849D;" width="19.414" height="7"/>
		<rect x="587.552" y="75.135" style="fill:#84859D;" width="19.415" height="7"/>
		<rect x="584.672" y="75.135" style="fill:#85859D;" width="19.415" height="7"/>
		<rect x="581.792" y="75.135" style="fill:#85869D;" width="19.414" height="7"/>
		<rect x="578.911" y="75.135" style="fill:#86879D;" width="19.415" height="7"/>
		<rect x="576.031" y="75.135" style="fill:#87889C;" width="19.415" height="7"/>
		<rect x="573.151" y="75.135" style="fill:#88889C;" width="19.414" height="7"/>
		<rect x="570.271" y="75.135" style="fill:#89899C;" width="19.414" height="7"/>
		<rect x="567.391" y="75.135" style="fill:#8A8A9C;" width="19.415" height="7"/>
		<rect x="564.511" y="75.135" style="fill:#8B8A9C;" width="19.414" height="7"/>
		<rect x="561.63" y="75.135" style="fill:#8C8B9C;" width="19.415" height="7"/>
		<rect x="558.751" y="75.135" style="fill:#8D8C9B;" width="19.414" height="7"/>
		<rect x="555.87" y="75.135" style="fill:#8E8C9B;" width="19.414" height="7"/>
		<rect x="552.99" y="75.135" style="fill:#8F8D9B;" width="19.415" height="7"/>
		<rect x="550.11" y="75.135" style="fill:#908E9B;" width="19.414" height="7"/>
		<rect x="547.229" y="75.135" style="fill:#918F9B;" width="19.415" height="7"/>
		<rect x="544.35" y="75.135" style="fill:#928F9A;" width="19.415" height="7"/>
		<rect x="541.47" y="75.135" style="fill:#93909A;" width="19.414" height="7"/>
		<rect x="538.589" y="75.135" style="fill:#94919A;" width="19.415" height="7"/>
		<rect x="535.71" y="75.135" style="fill:#95919A;" width="19.414" height="7"/>
		<rect x="532.829" y="75.135" style="fill:#969299;" width="19.414" height="7"/>
		<rect x="529.948" y="75.135" style="fill:#979399;" width="19.415" height="7"/>
		<rect x="527.069" y="75.135" style="fill:#989499;" width="19.414" height="7"/>
		<rect x="524.188" y="75.135" style="fill:#989499;" width="19.414" height="7"/>
		<rect x="521.308" y="75.135" style="fill:#999598;" width="19.415" height="7"/>
		<rect x="518.429" y="75.135" style="fill:#9A9698;" width="19.414" height="7"/>
		<rect x="515.548" y="75.135" style="fill:#9B9698;" width="19.414" height="7"/>
		<rect x="512.667" y="75.135" style="fill:#9C9798;" width="19.416" height="7"/>
		<rect x="509.788" y="75.135" style="fill:#9D9897;" width="19.414" height="7"/>
		<rect x="506.907" y="75.135" style="fill:#9E9997;" width="19.414" height="7"/>
		<rect x="504.027" y="75.135" style="fill:#9F9997;" width="19.415" height="7"/>
		<rect x="501.147" y="75.135" style="fill:#A09A97;" width="19.414" height="7"/>
		<rect x="498.267" y="75.135" style="fill:#A19B96;" width="19.414" height="7"/>
		<rect x="495.388" y="75.135" style="fill:#A29B96;" width="19.414" height="7"/>
		<rect x="492.507" y="75.135" style="fill:#A39C96;" width="19.414" height="7"/>
		<rect x="489.626" y="75.135" style="fill:#A49D95;" width="19.414" height="7"/>
		<rect x="486.747" y="75.135" style="fill:#A59E95;" width="19.414" height="7"/>
		<rect x="483.866" y="75.135" style="fill:#A69E95;" width="19.414" height="7"/>
		<rect x="480.985" y="75.135" style="fill:#A79F95;" width="19.415" height="7"/>
		<rect x="478.106" y="75.135" style="fill:#A7A094;" width="19.414" height="7"/>
		<rect x="475.226" y="75.135" style="fill:#A8A194;" width="19.414" height="7"/>
		<rect x="472.346" y="75.135" style="fill:#A9A194;" width="19.414" height="7"/>
		<rect x="469.466" y="75.135" style="fill:#AAA293;" width="19.414" height="7"/>
		<rect x="466.585" y="75.135" style="fill:#ABA393;" width="19.414" height="7"/>
		<rect x="463.705" y="75.135" style="fill:#ACA393;" width="19.415" height="7"/>
		<rect x="460.825" y="75.135" style="fill:#ADA492;" width="19.414" height="7"/>
		<rect x="457.944" y="75.135" style="fill:#AEA592;" width="19.414" height="7"/>
		<rect x="455.065" y="75.135" style="fill:#AFA692;" width="19.414" height="7"/>
		<rect x="452.185" y="75.135" style="fill:#B0A691;" width="19.414" height="7"/>
		<rect x="449.304" y="75.135" style="fill:#B0A791;" width="19.414" height="7"/>
		<rect x="446.424" y="75.135" style="fill:#B1A891;" width="19.415" height="7"/>
		<rect x="443.544" y="75.135" style="fill:#B2A890;" width="19.414" height="7"/>
		<rect x="440.664" y="75.135" style="fill:#B3A990;" width="19.413" height="7"/>
		<rect x="437.784" y="75.135" style="fill:#B4AA90;" width="19.414" height="7"/>
		<rect x="434.903" y="75.135" style="fill:#B5AB8F;" width="19.414" height="7"/>
		<rect x="432.023" y="75.135" style="fill:#B6AB8F;" width="19.414" height="7"/>
		<rect x="429.144" y="75.135" style="fill:#B7AC8F;" width="19.414" height="7"/>
		<rect x="426.263" y="75.135" style="fill:#B8AD8E;" width="19.414" height="7"/>
		<rect x="423.383" y="75.135" style="fill:#B9AE8E;" width="19.415" height="7"/>
		<rect x="420.503" y="75.135" style="fill:#B9AE8D;" width="19.414" height="7"/>
		<rect x="417.622" y="75.135" style="fill:#BAAF8D;" width="19.414" height="7"/>
		<rect x="414.743" y="75.135" style="fill:#BBB08D;" width="19.414" height="7"/>
		<rect x="411.862" y="75.135" style="fill:#BCB08C;" width="19.414" height="7"/>
		<rect x="408.013" y="75.135" style="fill:#BDB18C;" width="19.415" height="7"/>
		<rect x="404.164" y="75.135" style="fill:#BDB18B;" width="19.414" height="7"/>
		<rect x="400.315" y="75.135" style="fill:#BDB28A;" width="19.414" height="7"/>
		<rect x="396.466" y="75.135" style="fill:#BEB28A;" width="19.414" height="7"/>
		<rect x="392.616" y="75.135" style="fill:#BEB289;" width="19.414" height="7"/>
		<rect x="388.767" y="75.135" style="fill:#BFB389;" width="19.415" height="7"/>
		<rect x="384.918" y="75.134" style="fill:#BFB388;" width="19.415" height="7"/>
		<rect x="381.069" y="75.135" style="fill:#BFB387;" width="19.414" height="7"/>
		<rect x="377.22" y="75.135" style="fill:#C0B487;" width="19.414" height="7"/>
		<rect x="373.37" y="75.135" style="fill:#C0B486;" width="19.414" height="7"/>
		<rect x="369.521" y="75.135" style="fill:#C1B585;" width="19.415" height="7"/>
		<rect x="365.673" y="75.135" style="fill:#C1B585;" width="19.414" height="7"/>
		<rect x="361.823" y="75.135" style="fill:#C1B584;" width="19.414" height="7"/>
		<rect x="357.974" y="75.135" style="fill:#C2B683;" width="19.414" height="7"/>
		<rect x="354.125" y="75.135" style="fill:#C2B683;" width="19.414" height="7"/>
		<rect x="350.275" y="75.135" style="fill:#C3B782;" width="19.415" height="7"/>
		<rect x="346.427" y="75.135" style="fill:#C3B781;" width="19.414" height="7"/>
		<rect x="342.577" y="75.135" style="fill:#C3B781;" width="19.414" height="7"/>
		<rect x="338.728" y="75.135" style="fill:#C4B880;" width="19.415" height="7"/>
		<rect x="334.879" y="75.135" style="fill:#C4B880;" width="19.414" height="7"/>
		<rect x="331.03" y="75.135" style="fill:#C5B87F;" width="19.414" height="7"/>
		<rect x="327.181" y="75.135" style="fill:#C5B97E;" width="19.414" height="7"/>
		<rect x="323.331" y="75.135" style="fill:#C6B97D;" width="19.414" height="7"/>
		<rect x="319.481" y="75.135" style="fill:#C6BA7D;" width="19.415" height="7"/>
		<rect x="315.634" y="75.135" style="fill:#C6BA7C;" width="19.414" height="7"/>
		<rect x="311.784" y="75.135" style="fill:#C7BA7B;" width="19.414" height="7"/>
		<rect x="307.935" y="75.135" style="fill:#C7BB7B;" width="19.414" height="7"/>
		<rect x="304.085" y="75.135" style="fill:#C8BB7A;" width="19.414" height="7"/>
		<rect x="300.236" y="75.135" style="fill:#C8BB79;" width="19.415" height="7"/>
		<rect x="296.388" y="75.135" style="fill:#C8BC79;" width="19.414" height="7"/>
		<rect x="292.538" y="75.135" style="fill:#C9BC78;" width="19.414" height="7"/>
		<rect x="288.688" y="75.135" style="fill:#C9BD77;" width="19.414" height="7"/>
		<rect x="284.84" y="75.134" style="fill:#CABD76;" width="19.414" height="7"/>
		<rect x="280.99" y="75.135" style="fill:#CABD76;" width="19.415" height="7"/>
		<rect x="277.142" y="75.134" style="fill:#CBBE75;" width="19.414" height="7"/>
		<rect x="273.292" y="75.135" style="fill:#CBBE74;" width="19.414" height="7"/>
		<rect x="269.442" y="75.135" style="fill:#CBBF73;" width="19.414" height="7"/>
		<rect x="265.594" y="75.135" style="fill:#CCBF73;" width="19.414" height="7"/>
		<rect x="261.744" y="75.135" style="fill:#CCBF72;" width="19.415" height="7"/>
		<rect x="257.896" y="75.135" style="fill:#CDC071;" width="19.414" height="7"/>
		<rect x="254.046" y="75.135" style="fill:#CDC070;" width="19.414" height="7"/>
		<rect x="250.196" y="75.135" style="fill:#CDC06F;" width="19.415" height="7"/>
		<rect x="246.348" y="75.135" style="fill:#CEC16F;" width="19.415" height="7"/>
		<rect x="242.499" y="75.135" style="fill:#CEC16E;" width="19.414" height="7"/>
		<rect x="238.649" y="75.135" style="fill:#CEC26D;" width="19.414" height="7"/>
		<rect x="234.8" y="75.135" style="fill:#CFC26C;" width="19.415" height="7"/>
		<rect x="230.95" y="75.135" style="fill:#CFC26B;" width="19.416" height="7"/>
		<rect x="227.102" y="75.135" style="fill:#D0C36B;" width="19.415" height="7"/>
		<rect x="223.253" y="75.135" style="fill:#D0C36A;" width="19.414" height="7"/>
		<rect x="219.403" y="75.135" style="fill:#D1C369;" width="19.414" height="7"/>
		<rect x="215.554" y="75.135" style="fill:#D1C468;" width="19.415" height="7"/>
		<rect x="211.705" y="75.135" style="fill:#D1C467;" width="19.415" height="7"/>
		<rect x="207.856" y="75.135" style="fill:#D2C566;" width="19.414" height="7"/>
		<rect x="204.007" y="75.135" style="fill:#D2C566;" width="19.414" height="7"/>
		<rect x="200.157" y="75.135" style="fill:#D3C565;" width="19.415" height="7"/>
		<rect x="196.309" y="75.135" style="fill:#D3C664;" width="19.415" height="7"/>
		<rect x="192.46" y="75.135" style="fill:#D3C663;" width="19.414" height="7"/>
		<rect x="188.61" y="75.135" style="fill:#D4C762;" width="19.414" height="7"/>
		<rect x="184.761" y="75.135" style="fill:#D4C761;" width="19.414" height="7"/>
		<rect x="180.911" y="75.135" style="fill:#D5C760;" width="19.415" height="7"/>
		<rect x="177.063" y="75.135" style="fill:#D5C85F;" width="19.415" height="7"/>
		<rect x="173.214" y="75.135" style="fill:#D5C85E;" width="19.414" height="7"/>
		<rect x="169.364" y="75.135" style="fill:#D6C85D;" width="19.415" height="7"/>
		<rect x="165.515" y="75.135" style="fill:#D6C95D;" width="19.415" height="7"/>
		<rect x="161.665" y="75.135" style="fill:#D7C95C;" width="19.416" height="7"/>
		<rect x="157.817" y="75.135" style="fill:#D7CA5B;" width="19.414" height="7"/>
		<rect x="153.968" y="75.135" style="fill:#D7CA5A;" width="19.414" height="7"/>
		<rect x="150.118" y="75.135" style="fill:#D8CA59;" width="19.414" height="7"/>
		<rect x="146.27" y="75.135" style="fill:#D8CB58;" width="19.414" height="7"/>
		<rect x="142.42" y="75.135" style="fill:#D9CB57;" width="19.415" height="7"/>
		<rect x="138.57" y="75.135" style="fill:#D9CB56;" width="19.415" height="7"/>
		<rect x="134.722" y="75.135" style="fill:#D9CC55;" width="19.415" height="7"/>
		<rect x="130.872" y="75.135" style="fill:#DACC54;" width="19.416" height="7"/>
		<rect x="127.023" y="75.135" style="fill:#DACD53;" width="19.415" height="7"/>
		<rect x="123.174" y="75.135" style="fill:#DBCD52;" width="19.415" height="7"/>
		<rect x="119.325" y="75.135" style="fill:#DBCD51;" width="19.414" height="7"/>
		<rect x="115.476" y="75.135" style="fill:#DBCE50;" width="19.415" height="7"/>
		<rect x="111.626" y="75.135" style="fill:#DCCE4E;" width="19.416" height="7"/>
		<rect x="107.777" y="75.135" style="fill:#DCCF4D;" width="19.415" height="7"/>
		<rect x="103.929" y="75.135" style="fill:#DDCF4C;" width="19.414" height="7"/>
		<rect x="100.079" y="75.135" style="fill:#DDCF4B;" width="19.415" height="7"/>
		<rect x="96.229" y="75.135" style="fill:#DED04A;" width="19.415" height="7"/>
		<rect x="92.381" y="75.135" style="fill:#DED049;" width="19.415" height="7"/>
		<rect x="88.532" y="75.135" style="fill:#DED148;" width="19.414" height="7"/>
		<rect x="84.683" y="75.135" style="fill:#DFD147;" width="19.414" height="7"/>
		<rect x="80.833" y="75.135" style="fill:#DFD145;" width="19.415" height="7"/>
		<rect x="76.983" y="75.135" style="fill:#E0D244;" width="19.416" height="7"/>
		<rect x="73.135" y="75.135" style="fill:#E0D243;" width="19.415" height="7"/>
		<rect x="69.286" y="75.135" style="fill:#E1D242;" width="19.414" height="7"/>
		<rect x="65.437" y="75.135" style="fill:#E1D340;" width="19.414" height="7"/>
		<rect x="61.587" y="75.135" style="fill:#E1D33F;" width="19.416" height="7"/>
		<rect x="57.738" y="75.135" style="fill:#E2D43D;" width="19.415" height="7"/>
		<rect x="53.89" y="75.135" style="fill:#E2D43C;" width="19.414" height="7"/>
		<rect x="50.04" y="75.135" style="fill:#E3D43B;" width="19.414" height="7"/>
		<rect x="46.19" y="75.135" style="fill:#E3D539;" width="19.415" height="7"/>
		<rect x="42.341" y="75.135" style="fill:#E3D538;" width="19.416" height="7"/>
		<rect x="38.492" y="75.135" style="fill:#E4D636;" width="19.415" height="7"/>
		<rect x="34.644" y="75.135" style="fill:#E4D634;" width="19.414" height="7"/>
		<rect x="30.794" y="75.135" style="fill:#E5D633;" width="19.415" height="7"/>
		<rect x="26.944" y="75.135" style="fill:#E5D731;" width="19.416" height="7"/>
		<rect x="23.095" y="75.135" style="fill:#E5D72F;" width="19.416" height="7"/>
		<rect x="19.246" y="75.135" style="fill:#E6D72D;" width="19.415" height="7"/>
		<rect x="15.397" y="75.135" style="fill:#E6D82B;" width="19.415" height="7"/>
		<rect x="11.548" y="75.135" style="fill:#E7D829;" width="19.415" height="7"/>
		<rect x="7.698" y="75.135" style="fill:#E7D927;" width="19.416" height="7"/>
		<rect x="3.85" y="75.135" style="fill:#E7D925;" width="19.415" height="7"/>
		<rect x="0.001" y="75.135" style="fill:#E8D923;" width="19.414" height="7"/>
	</g>
	<g>
		<path style="fill:#FFFFFF;" d="M79.198,1.904h23.818V9.99h-7.852V45h-8.32V9.99h-7.646V1.904z"/>
		<path style="fill:#FFFFFF;" d="M107.792,0.82h7.939v15.527c1.563-1.348,3.135-2.358,4.717-3.032s3.184-1.011,4.805-1.011
			c3.164,0,5.83,1.094,7.998,3.281c1.855,1.895,2.783,4.678,2.783,8.35V45h-7.881V31.025c0-3.691-0.176-6.191-0.527-7.5
			s-0.952-2.285-1.802-2.93s-1.899-0.967-3.149-0.967c-1.621,0-3.013,0.537-4.175,1.611s-1.968,2.539-2.417,4.395
			c-0.234,0.957-0.352,3.145-0.352,6.563V45h-7.939V0.82z"/>
		<path style="fill:#FFFFFF;" d="M146.889,0c1.402,0,2.604,0.508,3.607,1.523s1.505,2.246,1.505,3.691
			c0,1.426-0.497,2.642-1.49,3.647c-0.993,1.007-2.181,1.509-3.563,1.509c-1.422,0-2.635-0.513-3.638-1.538
			s-1.504-2.271-1.504-3.735c0-1.406,0.496-2.607,1.489-3.604S145.486,0,146.889,0z M142.89,13.125h7.998V45h-7.998V13.125z"/>
		<path style="fill:#FFFFFF;" d="M158.153,13.125h7.998v3.267c1.813-1.528,3.457-2.593,4.93-3.19
			c1.472-0.598,2.979-0.896,4.52-0.896c3.159,0,5.841,1.104,8.045,3.311c1.853,1.875,2.779,4.648,2.779,8.32V45h-7.91V31.041
			c0-3.804-0.171-6.33-0.512-7.578c-0.341-1.249-0.936-2.199-1.783-2.854s-1.895-0.98-3.142-0.98c-1.617,0-3.006,0.541-4.165,1.624
			s-1.963,2.581-2.411,4.492c-0.233,0.995-0.351,3.151-0.351,6.467V45h-7.998V13.125z"/>
		<path style="fill:#FFFFFF;" d="M194.218,0.82h7.998v25.446l11.777-13.142h10.044l-13.73,15.277L225.68,45h-9.929l-13.535-14.69V45
			h-7.998V0.82z"/>
		<path style="fill:#FFFFFF;" d="M232.802,36.885l5.713,2.871l-7.236,12.363l-3.984-1.904L232.802,36.885z"/>
		<path style="fill:#FFFFFF;" d="M293.739,19.57l-6.658,3.662c-1.252-1.309-2.488-2.217-3.711-2.725
			c-1.222-0.508-2.654-0.762-4.297-0.762c-2.992,0-5.412,0.893-7.26,2.677s-2.771,4.071-2.771,6.858c0,2.711,0.89,4.926,2.669,6.641
			c1.779,1.717,4.116,2.574,7.011,2.574c3.578,0,6.365-1.221,8.359-3.662l6.307,4.318c-3.418,4.445-8.242,6.668-14.473,6.668
			c-5.605,0-9.995-1.66-13.169-4.98s-4.761-7.207-4.761-11.66c0-3.086,0.771-5.928,2.314-8.525s3.696-4.639,6.46-6.123
			s5.854-2.227,9.272-2.227c3.164,0,6.006,0.63,8.525,1.89S292.138,17.246,293.739,19.57z"/>
		<path style="fill:#FFFFFF;" d="M300.067,0.82h7.998V45h-7.998V0.82z"/>
		<path style="fill:#FFFFFF;" d="M318.451,0c1.402,0,2.604,0.508,3.607,1.523s1.505,2.246,1.505,3.691
			c0,1.426-0.497,2.642-1.49,3.647c-0.993,1.007-2.181,1.509-3.563,1.509c-1.422,0-2.635-0.513-3.638-1.538
			s-1.504-2.271-1.504-3.735c0-1.406,0.496-2.607,1.489-3.604S317.049,0,318.451,0z M314.452,13.125h7.998V45h-7.998V13.125z"/>
		<path style="fill:#FFFFFF;" d="M360.917,19.57l-6.658,3.662c-1.252-1.309-2.488-2.217-3.711-2.725
			c-1.222-0.508-2.654-0.762-4.297-0.762c-2.992,0-5.412,0.893-7.26,2.677s-2.771,4.071-2.771,6.858c0,2.711,0.89,4.926,2.669,6.641
			c1.779,1.717,4.116,2.574,7.011,2.574c3.578,0,6.365-1.221,8.359-3.662l6.307,4.318c-3.418,4.445-8.242,6.668-14.473,6.668
			c-5.605,0-9.995-1.66-13.169-4.98s-4.761-7.207-4.761-11.66c0-3.086,0.771-5.928,2.314-8.525s3.696-4.639,6.46-6.123
			s5.854-2.227,9.272-2.227c3.164,0,6.006,0.63,8.525,1.89S359.315,17.246,360.917,19.57z"/>
		<path style="fill:#FFFFFF;" d="M368.183,0.82h7.998v25.446l11.777-13.142h10.044l-13.73,15.277L399.645,45h-9.929l-13.535-14.69
			V45h-7.998V0.82z"/>
		<path style="fill:#FFFFFF;" d="M443.241,13.125h7.998V45h-7.998v-3.369c-1.561,1.484-3.127,2.554-4.696,3.208
			c-1.571,0.654-3.272,0.981-5.106,0.981c-4.116,0-7.677-1.597-10.682-4.79c-3.004-3.193-4.506-7.163-4.506-11.909
			c0-4.922,1.453-8.955,4.36-12.1c2.906-3.145,6.438-4.717,10.593-4.717c1.912,0,3.706,0.361,5.384,1.084s3.229,1.807,4.653,3.252
			V13.125z M434.833,19.688c-2.472,0-4.525,0.875-6.16,2.622c-1.636,1.748-2.453,3.989-2.453,6.724c0,2.754,0.832,5.02,2.496,6.797
			s3.713,2.666,6.146,2.666c2.512,0,4.594-0.874,6.248-2.622c1.654-1.747,2.482-4.038,2.482-6.87c0-2.773-0.828-5.02-2.482-6.738
			S437.364,19.688,434.833,19.688z"/>
		<path style="fill:#FFFFFF;" d="M459.325,13.125h7.998v3.267c1.813-1.528,3.457-2.593,4.93-3.19
			c1.472-0.598,2.979-0.896,4.52-0.896c3.159,0,5.841,1.104,8.045,3.311c1.853,1.875,2.779,4.648,2.779,8.32V45h-7.91V31.041
			c0-3.804-0.171-6.33-0.512-7.578c-0.341-1.249-0.936-2.199-1.783-2.854s-1.895-0.98-3.142-0.98c-1.617,0-3.006,0.541-4.165,1.624
			s-1.963,2.581-2.411,4.492c-0.233,0.995-0.351,3.151-0.351,6.467V45h-7.998V13.125z"/>
		<path style="fill:#FFFFFF;" d="M518.856,0.82h7.998V45h-7.998v-3.369c-1.561,1.484-3.127,2.554-4.696,3.208
			c-1.571,0.654-3.272,0.981-5.106,0.981c-4.116,0-7.677-1.597-10.682-4.79c-3.004-3.193-4.506-7.163-4.506-11.909
			c0-4.922,1.453-8.955,4.36-12.1c2.906-3.145,6.438-4.717,10.593-4.717c1.912,0,3.706,0.361,5.384,1.084s3.229,1.807,4.653,3.252
			V0.82z M510.448,19.688c-2.472,0-4.525,0.875-6.16,2.622c-1.636,1.748-2.453,3.989-2.453,6.724c0,2.754,0.832,5.02,2.496,6.797
			s3.713,2.666,6.146,2.666c2.512,0,4.594-0.874,6.248-2.622c1.654-1.747,2.482-4.038,2.482-6.87c0-2.773-0.828-5.02-2.482-6.738
			S512.979,19.688,510.448,19.688z"/>
		<path style="fill:#FFFFFF;" d="M559.667,13.125v3.516c1.445-1.445,3.008-2.529,4.688-3.252s3.477-1.084,5.391-1.084
			c4.16,0,7.695,1.572,10.605,4.717s4.365,7.178,4.365,12.1c0,4.746-1.504,8.716-4.512,11.909s-6.572,4.79-10.693,4.79
			c-1.836,0-3.545-0.327-5.127-0.981s-3.154-1.724-4.717-3.208V56.66h-7.939V13.125H559.667z M568.075,19.688
			c-2.52,0-4.609,0.859-6.27,2.578s-2.49,3.965-2.49,6.738c0,2.832,0.83,5.123,2.49,6.87c1.66,1.748,3.75,2.622,6.27,2.622
			c2.441,0,4.497-0.889,6.167-2.666s2.505-4.043,2.505-6.797c0-2.734-0.82-4.976-2.461-6.724
			C572.646,20.563,570.575,19.688,568.075,19.688z"/>
		<path style="fill:#FFFFFF;" d="M594.457,0c1.402,0,2.604,0.508,3.607,1.523s1.505,2.246,1.505,3.691
			c0,1.426-0.497,2.642-1.49,3.647c-0.993,1.007-2.181,1.509-3.563,1.509c-1.422,0-2.635-0.513-3.638-1.538
			s-1.504-2.271-1.504-3.735c0-1.406,0.496-2.607,1.489-3.604S593.055,0,594.457,0z M590.458,13.125h7.998V45h-7.998V13.125z"/>
		<path style="fill:#FFFFFF;" d="M636.923,19.57l-6.658,3.662c-1.252-1.309-2.488-2.217-3.711-2.725
			c-1.222-0.508-2.654-0.762-4.297-0.762c-2.992,0-5.412,0.893-7.26,2.677s-2.771,4.071-2.771,6.858c0,2.711,0.89,4.926,2.669,6.641
			c1.779,1.717,4.116,2.574,7.011,2.574c3.578,0,6.365-1.221,8.359-3.662l6.307,4.318c-3.418,4.445-8.242,6.668-14.473,6.668
			c-5.605,0-9.995-1.66-13.169-4.98s-4.761-7.207-4.761-11.66c0-3.086,0.771-5.928,2.314-8.525s3.696-4.639,6.46-6.123
			s5.854-2.227,9.272-2.227c3.164,0,6.006,0.63,8.525,1.89S635.321,17.246,636.923,19.57z"/>
		<path style="fill:#FFFFFF;" d="M644.188,0.82h7.998v25.446l11.777-13.142h10.044l-13.73,15.277L675.65,45h-9.929l-13.535-14.69V45
			h-7.998V0.82z"/>
		<path style="fill:#FFFFFF;" d="M695.692,13.125h8.086v15.352c0,2.988,0.205,5.064,0.616,6.226c0.411,1.162,1.072,2.065,1.983,2.71
			c0.909,0.645,2.03,0.967,3.362,0.967c1.331,0,2.462-0.317,3.392-0.952c0.931-0.634,1.62-1.567,2.071-2.798
			c0.332-0.918,0.499-2.881,0.499-5.889V13.125h7.998v13.506c0,5.566-0.439,9.375-1.318,11.426c-1.074,2.5-2.656,4.42-4.746,5.757
			s-4.746,2.007-7.969,2.007c-3.496,0-6.323-0.781-8.481-2.344s-3.677-3.74-4.556-6.533c-0.625-1.934-0.938-5.449-0.938-10.547
			V13.125z"/>
		<path style="fill:#FFFFFF;" d="M739.667,13.125v3.516c1.445-1.445,3.008-2.529,4.688-3.252s3.477-1.084,5.391-1.084
			c4.16,0,7.695,1.572,10.605,4.717s4.365,7.178,4.365,12.1c0,4.746-1.504,8.716-4.512,11.909s-6.572,4.79-10.693,4.79
			c-1.836,0-3.545-0.327-5.127-0.981s-3.154-1.724-4.717-3.208V56.66h-7.939V13.125H739.667z M748.075,19.688
			c-2.52,0-4.609,0.859-6.27,2.578s-2.49,3.965-2.49,6.738c0,2.832,0.83,5.123,2.49,6.87c1.66,1.748,3.75,2.622,6.27,2.622
			c2.441,0,4.497-0.889,6.167-2.666s2.505-4.043,2.505-6.797c0-2.734-0.82-4.976-2.461-6.724
			C752.646,20.563,750.575,19.688,748.075,19.688z"/>
	</g>
	<g>
		<path style="fill:#FFFFFF;" d="M142.239,107.811h1.508v10.183c0,1.565-0.121,2.654-0.364,3.266
			c-0.242,0.612-0.647,1.102-1.215,1.467s-1.255,0.549-2.062,0.549c-0.608,0-1.208-0.118-1.799-0.354
			c-0.592-0.235-1.246-0.651-1.964-1.245l0.8-1.2c0.788,0.554,1.441,0.943,1.963,1.169c0.342,0.15,0.678,0.226,1.007,0.226
			c0.431,0,0.823-0.13,1.176-0.39c0.354-0.26,0.6-0.605,0.74-1.035c0.14-0.432,0.21-1.266,0.21-2.502V107.811z"/>
		<path style="fill:#FFFFFF;" d="M146.998,111.738h1.436v5.209c0,1.271,0.068,2.146,0.205,2.625c0.206,0.684,0.598,1.224,1.176,1.62
			c0.579,0.396,1.269,0.595,2.069,0.595s1.48-0.192,2.039-0.579c0.558-0.387,0.942-0.895,1.155-1.523
			c0.144-0.43,0.216-1.343,0.216-2.737v-5.209h1.466v5.476c0,1.538-0.18,2.697-0.538,3.477c-0.359,0.779-0.899,1.389-1.62,1.83
			c-0.722,0.44-1.626,0.661-2.712,0.661c-1.088,0-1.995-0.221-2.723-0.661c-0.729-0.441-1.271-1.057-1.631-1.846
			c-0.358-0.79-0.538-1.978-0.538-3.563V111.738z"/>
		<path style="fill:#FFFFFF;" d="M165.558,112.958l-0.924,0.954c-0.768-0.745-1.518-1.118-2.251-1.118
			c-0.466,0-0.865,0.154-1.197,0.462c-0.333,0.308-0.499,0.667-0.499,1.077c0,0.361,0.137,0.707,0.411,1.035
			c0.273,0.335,0.85,0.729,1.727,1.18c1.068,0.553,1.794,1.086,2.178,1.6c0.377,0.52,0.565,1.104,0.565,1.753
			c0,0.916-0.322,1.692-0.966,2.327c-0.644,0.637-1.447,0.954-2.413,0.954c-0.644,0-1.258-0.14-1.843-0.421
			c-0.586-0.279-1.07-0.666-1.454-1.158l0.902-1.025c0.733,0.827,1.512,1.24,2.334,1.24c0.575,0,1.064-0.184,1.47-0.553
			c0.403-0.369,0.606-0.804,0.606-1.303c0-0.41-0.134-0.775-0.401-1.098c-0.267-0.314-0.87-0.711-1.809-1.189
			c-1.007-0.52-1.692-1.031-2.055-1.537c-0.363-0.506-0.545-1.084-0.545-1.733c0-0.848,0.289-1.552,0.868-2.112
			c0.578-0.561,1.31-0.841,2.192-0.841C163.482,111.451,164.517,111.954,165.558,112.958z"/>
		<path style="fill:#FFFFFF;" d="M169.352,107.596h1.436v4.143h2.276v1.241h-2.276v9.915h-1.436v-9.915h-1.958v-1.241h1.958V107.596
			z"/>
		<path style="fill:#FFFFFF;" d="M192.146,111.738v11.156h-1.415v-1.917c-0.602,0.73-1.276,1.281-2.025,1.65
			c-0.748,0.369-1.567,0.554-2.456,0.554c-1.578,0-2.927-0.572-4.045-1.718c-1.117-1.145-1.676-2.537-1.676-4.178
			c0-1.607,0.563-2.98,1.691-4.123c1.128-1.141,2.484-1.712,4.07-1.712c0.916,0,1.745,0.194,2.487,0.585
			c0.741,0.389,1.393,0.974,1.953,1.753v-2.051H192.146z M186.408,112.835c-0.799,0-1.536,0.197-2.212,0.59
			s-1.214,0.943-1.613,1.654c-0.399,0.709-0.6,1.461-0.6,2.253c0,0.785,0.202,1.536,0.604,2.253
			c0.403,0.717,0.944,1.275,1.623,1.675c0.68,0.399,1.409,0.599,2.188,0.599c0.785,0,1.529-0.197,2.232-0.594
			s1.244-0.932,1.623-1.607s0.569-1.438,0.569-2.284c0-1.29-0.426-2.37-1.275-3.237
			C188.697,113.269,187.651,112.835,186.408,112.835z"/>
		<path style="fill:#FFFFFF;" d="M205.784,107.432v1.404c-0.526-0.225-0.978-0.338-1.354-0.338c-0.28,0-0.513,0.057-0.697,0.169
			c-0.185,0.113-0.301,0.243-0.349,0.39c-0.048,0.147-0.071,0.539-0.071,1.174l-0.002,1.508h2.329v1.241h-2.33l-0.008,9.915h-1.436
			v-9.915h-1.466v-1.241h1.466v-1.743c0-0.8,0.073-1.37,0.221-1.712c0.146-0.342,0.396-0.617,0.748-0.826
			c0.353-0.208,0.777-0.313,1.276-0.313C204.577,107.145,205.135,107.24,205.784,107.432z"/>
		<path style="fill:#FFFFFF;" d="M217.177,119.192l1.21,0.637c-0.396,0.779-0.855,1.408-1.375,1.887
			c-0.521,0.479-1.105,0.842-1.755,1.092c-0.65,0.249-1.386,0.374-2.207,0.374c-1.82,0-3.243-0.597-4.27-1.789
			s-1.539-2.542-1.539-4.046c0-1.414,0.434-2.676,1.303-3.783c1.102-1.408,2.576-2.112,4.424-2.112c1.902,0,3.421,0.722,4.557,2.163
			c0.808,1.02,1.218,2.291,1.231,3.814h-10.038c0.026,1.297,0.44,2.358,1.241,3.188c0.801,0.828,1.79,1.242,2.968,1.242
			c0.567,0,1.12-0.098,1.657-0.296c0.538-0.197,0.994-0.46,1.371-0.786C216.331,120.449,216.738,119.921,217.177,119.192z
			 M217.177,116.188c-0.191-0.766-0.471-1.377-0.837-1.836c-0.366-0.457-0.851-0.826-1.452-1.107
			c-0.603-0.279-1.236-0.42-1.899-0.42c-1.096,0-2.036,0.352-2.823,1.057c-0.575,0.512-1.01,1.281-1.305,2.307H217.177z"/>
		<path style="fill:#FFFFFF;" d="M219.925,111.738h1.477l3.42,8.101l3.56-8.101h0.261l3.583,8.101l3.485-8.101h1.493l-4.847,11.156
			h-0.266l-3.567-7.987l-3.565,7.987h-0.268L219.925,111.738z"/>
		<path style="fill:#FFFFFF;" d="M250.308,112.958l-0.924,0.954c-0.768-0.745-1.518-1.118-2.251-1.118
			c-0.466,0-0.865,0.154-1.197,0.462c-0.333,0.308-0.499,0.667-0.499,1.077c0,0.361,0.137,0.707,0.411,1.035
			c0.273,0.335,0.85,0.729,1.727,1.18c1.068,0.553,1.794,1.086,2.178,1.6c0.377,0.52,0.565,1.104,0.565,1.753
			c0,0.916-0.322,1.692-0.966,2.327c-0.644,0.637-1.447,0.954-2.413,0.954c-0.644,0-1.258-0.14-1.843-0.421
			c-0.586-0.279-1.07-0.666-1.454-1.158l0.902-1.025c0.733,0.827,1.512,1.24,2.334,1.24c0.575,0,1.064-0.184,1.47-0.553
			c0.403-0.369,0.606-0.804,0.606-1.303c0-0.41-0.134-0.775-0.401-1.098c-0.267-0.314-0.87-0.711-1.809-1.189
			c-1.007-0.52-1.692-1.031-2.055-1.537c-0.363-0.506-0.545-1.084-0.545-1.733c0-0.848,0.289-1.552,0.868-2.112
			c0.578-0.561,1.31-0.841,2.192-0.841C248.232,111.451,249.267,111.954,250.308,112.958z"/>
		<path style="fill:#FFFFFF;" d="M254.102,107.596h1.436v4.143h2.276v1.241h-2.276v9.915h-1.436v-9.915h-1.958v-1.241h1.958V107.596
			z"/>
		<path style="fill:#FFFFFF;" d="M269.359,119.192l1.21,0.637c-0.396,0.779-0.855,1.408-1.375,1.887
			c-0.521,0.479-1.105,0.842-1.755,1.092c-0.65,0.249-1.386,0.374-2.207,0.374c-1.82,0-3.243-0.597-4.27-1.789
			s-1.539-2.542-1.539-4.046c0-1.414,0.434-2.676,1.303-3.783c1.102-1.408,2.576-2.112,4.424-2.112c1.902,0,3.421,0.722,4.557,2.163
			c0.808,1.02,1.218,2.291,1.231,3.814H260.9c0.026,1.297,0.44,2.358,1.241,3.188c0.801,0.828,1.79,1.242,2.968,1.242
			c0.567,0,1.12-0.098,1.657-0.296c0.538-0.197,0.994-0.46,1.371-0.786C268.514,120.449,268.921,119.921,269.359,119.192z
			 M269.359,116.188c-0.191-0.766-0.471-1.377-0.837-1.836c-0.366-0.457-0.851-0.826-1.452-1.107
			c-0.603-0.279-1.236-0.42-1.899-0.42c-1.096,0-2.036,0.352-2.823,1.057c-0.575,0.512-1.01,1.281-1.305,2.307H269.359z"/>
		<path style="fill:#FFFFFF;" d="M273.635,111.738h1.436v2.051c0.566-0.779,1.219-1.364,1.957-1.753
			c0.737-0.391,1.56-0.585,2.468-0.585c1.585,0,2.94,0.571,4.067,1.712c1.126,1.143,1.69,2.516,1.69,4.123
			c0,1.641-0.559,3.033-1.676,4.178c-1.116,1.146-2.463,1.718-4.041,1.718c-0.888,0-1.703-0.185-2.448-0.554
			c-0.744-0.369-1.417-0.92-2.018-1.65v5.998h-1.436V111.738z M279.377,112.835c-1.241,0-2.286,0.434-3.136,1.301
			c-0.849,0.867-1.273,1.947-1.273,3.237c0,0.847,0.189,1.608,0.567,2.284c0.379,0.676,0.921,1.211,1.627,1.607
			s1.451,0.594,2.235,0.594c0.771,0,1.495-0.199,2.174-0.599s1.219-0.958,1.621-1.675s0.604-1.468,0.604-2.253
			c0-0.792-0.199-1.544-0.598-2.253c-0.399-0.711-0.937-1.262-1.611-1.654C280.911,113.032,280.175,112.835,279.377,112.835z"/>
		<path style="fill:#FFFFFF;" d="M293.548,112.958l-0.924,0.954c-0.768-0.745-1.518-1.118-2.251-1.118
			c-0.466,0-0.865,0.154-1.197,0.462c-0.333,0.308-0.499,0.667-0.499,1.077c0,0.361,0.137,0.707,0.411,1.035
			c0.273,0.335,0.85,0.729,1.727,1.18c1.068,0.553,1.794,1.086,2.178,1.6c0.377,0.52,0.565,1.104,0.565,1.753
			c0,0.916-0.322,1.692-0.966,2.327c-0.644,0.637-1.447,0.954-2.413,0.954c-0.644,0-1.258-0.14-1.843-0.421
			c-0.586-0.279-1.07-0.666-1.454-1.158l0.902-1.025c0.733,0.827,1.512,1.24,2.334,1.24c0.575,0,1.064-0.184,1.47-0.553
			c0.403-0.369,0.606-0.804,0.606-1.303c0-0.41-0.134-0.775-0.401-1.098c-0.267-0.314-0.87-0.711-1.809-1.189
			c-1.007-0.52-1.692-1.031-2.055-1.537c-0.363-0.506-0.545-1.084-0.545-1.733c0-0.848,0.289-1.552,0.868-2.112
			c0.578-0.561,1.31-0.841,2.192-0.841C291.473,111.451,292.507,111.954,293.548,112.958z"/>
		<path style="fill:#FFFFFF;" d="M300.706,111.738h1.518l3.834,8.591l3.723-8.591h1.527l-6.654,15.237h-1.517l2.148-4.926
			L300.706,111.738z"/>
		<path style="fill:#FFFFFF;" d="M318.445,111.451c1.719,0,3.143,0.622,4.272,1.866c1.027,1.135,1.541,2.479,1.541,4.029
			c0,1.559-0.543,2.922-1.628,4.087c-1.086,1.165-2.481,1.748-4.186,1.748c-1.713,0-3.111-0.583-4.196-1.748
			c-1.086-1.165-1.628-2.528-1.628-4.087c0-1.545,0.513-2.885,1.54-4.02C315.291,112.077,316.719,111.451,318.445,111.451z
			 M318.439,112.856c-1.193,0-2.219,0.44-3.076,1.322s-1.287,1.948-1.287,3.199c0,0.807,0.196,1.559,0.587,2.256
			s0.919,1.235,1.585,1.615c0.665,0.379,1.396,0.568,2.191,0.568s1.526-0.189,2.192-0.568c0.665-0.38,1.193-0.918,1.584-1.615
			c0.392-0.697,0.587-1.449,0.587-2.256c0-1.251-0.431-2.317-1.292-3.199C320.65,113.297,319.626,112.856,318.439,112.856z"/>
		<path style="fill:#FFFFFF;" d="M326.73,111.738h1.436v5.209c0,1.271,0.068,2.146,0.205,2.625c0.206,0.684,0.598,1.224,1.176,1.62
			c0.579,0.396,1.269,0.595,2.069,0.595s1.48-0.192,2.039-0.579c0.558-0.387,0.942-0.895,1.155-1.523
			c0.144-0.43,0.216-1.343,0.216-2.737v-5.209h1.466v5.476c0,1.538-0.18,2.697-0.538,3.477c-0.359,0.779-0.899,1.389-1.62,1.83
			c-0.722,0.44-1.626,0.661-2.712,0.661c-1.088,0-1.995-0.221-2.723-0.661c-0.729-0.441-1.271-1.057-1.631-1.846
			c-0.358-0.79-0.538-1.978-0.538-3.563V111.738z"/>
		<path style="fill:#FFFFFF;" d="M339.138,111.738h1.466v1.63c0.438-0.643,0.898-1.122,1.384-1.44
			c0.485-0.317,0.991-0.477,1.518-0.477c0.396,0,0.82,0.126,1.271,0.38l-0.748,1.209c-0.301-0.129-0.554-0.194-0.759-0.194
			c-0.479,0-0.94,0.196-1.384,0.59c-0.445,0.394-0.783,1.003-1.016,1.83c-0.178,0.636-0.267,1.921-0.267,3.855v3.773h-1.466V111.738
			z"/>
		<path style="fill:#FFFFFF;" d="M351.812,107.432h1.436v6.306c0.581-0.766,1.221-1.338,1.918-1.717
			c0.697-0.38,1.452-0.569,2.266-0.569c0.834,0,1.574,0.212,2.22,0.636c0.646,0.424,1.123,0.993,1.431,1.707
			c0.308,0.715,0.461,1.834,0.461,3.358v5.742h-1.436v-5.321c0-1.285-0.051-2.144-0.153-2.574c-0.178-0.738-0.501-1.293-0.969-1.666
			c-0.469-0.373-1.082-0.559-1.841-0.559c-0.868,0-1.646,0.287-2.333,0.861c-0.687,0.574-1.14,1.285-1.358,2.133
			c-0.137,0.547-0.205,1.559-0.205,3.035v4.091h-1.436V107.432z"/>
		<path style="fill:#FFFFFF;" d="M375.733,111.738v11.156h-1.415v-1.917c-0.602,0.73-1.276,1.281-2.025,1.65
			c-0.748,0.369-1.567,0.554-2.456,0.554c-1.578,0-2.927-0.572-4.045-1.718c-1.117-1.145-1.676-2.537-1.676-4.178
			c0-1.607,0.563-2.98,1.691-4.123c1.128-1.141,2.484-1.712,4.07-1.712c0.916,0,1.745,0.194,2.487,0.585
			c0.741,0.389,1.393,0.974,1.953,1.753v-2.051H375.733z M369.996,112.835c-0.799,0-1.536,0.197-2.212,0.59
			s-1.214,0.943-1.613,1.654c-0.399,0.709-0.6,1.461-0.6,2.253c0,0.785,0.202,1.536,0.604,2.253
			c0.403,0.717,0.944,1.275,1.623,1.675c0.68,0.399,1.409,0.599,2.188,0.599c0.785,0,1.529-0.197,2.232-0.594
			s1.244-0.932,1.623-1.607s0.569-1.438,0.569-2.284c0-1.29-0.426-2.37-1.275-3.237
			C372.285,113.269,371.239,112.835,369.996,112.835z"/>
		<path style="fill:#FFFFFF;" d="M378.984,111.738h1.436v2.051c0.566-0.779,1.219-1.364,1.957-1.753
			c0.737-0.391,1.56-0.585,2.468-0.585c1.585,0,2.94,0.571,4.067,1.712c1.126,1.143,1.69,2.516,1.69,4.123
			c0,1.641-0.559,3.033-1.676,4.178c-1.116,1.146-2.463,1.718-4.041,1.718c-0.888,0-1.703-0.185-2.448-0.554
			c-0.744-0.369-1.417-0.92-2.018-1.65v5.998h-1.436V111.738z M384.727,112.835c-1.241,0-2.286,0.434-3.136,1.301
			c-0.849,0.867-1.273,1.947-1.273,3.237c0,0.847,0.189,1.608,0.567,2.284c0.379,0.676,0.921,1.211,1.627,1.607
			s1.451,0.594,2.235,0.594c0.771,0,1.495-0.199,2.174-0.599s1.219-0.958,1.621-1.675s0.604-1.468,0.604-2.253
			c0-0.792-0.199-1.544-0.598-2.253c-0.399-0.711-0.937-1.262-1.611-1.654C386.261,113.032,385.524,112.835,384.727,112.835z"/>
		<path style="fill:#FFFFFF;" d="M393.309,111.738h1.436v2.051c0.566-0.779,1.219-1.364,1.957-1.753
			c0.737-0.391,1.56-0.585,2.468-0.585c1.585,0,2.94,0.571,4.067,1.712c1.126,1.143,1.69,2.516,1.69,4.123
			c0,1.641-0.559,3.033-1.676,4.178c-1.116,1.146-2.463,1.718-4.041,1.718c-0.888,0-1.703-0.185-2.448-0.554
			c-0.744-0.369-1.417-0.92-2.018-1.65v5.998h-1.436V111.738z M399.051,112.835c-1.241,0-2.286,0.434-3.136,1.301
			c-0.849,0.867-1.273,1.947-1.273,3.237c0,0.847,0.189,1.608,0.567,2.284c0.379,0.676,0.921,1.211,1.627,1.607
			s1.451,0.594,2.235,0.594c0.771,0,1.495-0.199,2.174-0.599s1.219-0.958,1.621-1.675s0.604-1.468,0.604-2.253
			c0-0.792-0.199-1.544-0.598-2.253c-0.399-0.711-0.937-1.262-1.611-1.654C400.585,113.032,399.849,112.835,399.051,112.835z"/>
		<path style="fill:#FFFFFF;" d="M408.109,107.145c0.327,0,0.606,0.116,0.837,0.349c0.231,0.232,0.348,0.513,0.348,0.841
			c0,0.321-0.116,0.598-0.348,0.83c-0.23,0.232-0.51,0.35-0.837,0.35c-0.319,0-0.596-0.117-0.827-0.35s-0.347-0.509-0.347-0.83
			c0-0.328,0.115-0.608,0.347-0.841S407.79,107.145,408.109,107.145z M407.397,111.738h1.436v11.156h-1.436V111.738z"/>
		<path style="fill:#FFFFFF;" d="M411.816,111.738h1.436v1.999c0.574-0.766,1.21-1.338,1.907-1.717
			c0.697-0.38,1.456-0.569,2.276-0.569c0.834,0,1.574,0.212,2.22,0.636c0.646,0.424,1.123,0.994,1.431,1.713
			c0.308,0.717,0.461,1.835,0.461,3.353v5.742h-1.436v-5.321c0-1.285-0.053-2.144-0.159-2.574c-0.166-0.738-0.485-1.293-0.957-1.666
			s-1.087-0.559-1.846-0.559c-0.869,0-1.646,0.287-2.334,0.861c-0.687,0.574-1.14,1.285-1.358,2.133
			c-0.137,0.553-0.205,1.564-0.205,3.035v4.091h-1.436V111.738z"/>
		<path style="fill:#FFFFFF;" d="M434.017,119.192l1.21,0.637c-0.396,0.779-0.855,1.408-1.375,1.887
			c-0.521,0.479-1.105,0.842-1.755,1.092c-0.65,0.249-1.386,0.374-2.207,0.374c-1.82,0-3.243-0.597-4.27-1.789
			s-1.539-2.542-1.539-4.046c0-1.414,0.434-2.676,1.303-3.783c1.102-1.408,2.576-2.112,4.424-2.112c1.902,0,3.421,0.722,4.557,2.163
			c0.808,1.02,1.218,2.291,1.231,3.814h-10.038c0.026,1.297,0.44,2.358,1.241,3.188c0.801,0.828,1.79,1.242,2.968,1.242
			c0.567,0,1.12-0.098,1.657-0.296c0.538-0.197,0.994-0.46,1.371-0.786C433.171,120.449,433.578,119.921,434.017,119.192z
			 M434.017,116.188c-0.191-0.766-0.471-1.377-0.837-1.836c-0.366-0.457-0.851-0.826-1.452-1.107
			c-0.603-0.279-1.236-0.42-1.899-0.42c-1.096,0-2.036,0.352-2.823,1.057c-0.575,0.512-1.01,1.281-1.305,2.307H434.017z"/>
		<path style="fill:#FFFFFF;" d="M443.882,112.958l-0.924,0.954c-0.768-0.745-1.518-1.118-2.251-1.118
			c-0.466,0-0.865,0.154-1.197,0.462c-0.333,0.308-0.499,0.667-0.499,1.077c0,0.361,0.137,0.707,0.411,1.035
			c0.273,0.335,0.85,0.729,1.727,1.18c1.068,0.553,1.794,1.086,2.178,1.6c0.377,0.52,0.565,1.104,0.565,1.753
			c0,0.916-0.322,1.692-0.966,2.327c-0.644,0.637-1.447,0.954-2.413,0.954c-0.644,0-1.258-0.14-1.843-0.421
			c-0.586-0.279-1.07-0.666-1.454-1.158l0.902-1.025c0.733,0.827,1.512,1.24,2.334,1.24c0.575,0,1.064-0.184,1.47-0.553
			c0.403-0.369,0.606-0.804,0.606-1.303c0-0.41-0.134-0.775-0.401-1.098c-0.267-0.314-0.87-0.711-1.809-1.189
			c-1.007-0.52-1.692-1.031-2.055-1.537c-0.363-0.506-0.545-1.084-0.545-1.733c0-0.848,0.289-1.552,0.868-2.112
			c0.578-0.561,1.31-0.841,2.192-0.841C441.807,111.451,442.841,111.954,443.882,112.958z"/>
		<path style="fill:#FFFFFF;" d="M452.034,112.958l-0.924,0.954c-0.768-0.745-1.518-1.118-2.251-1.118
			c-0.466,0-0.865,0.154-1.197,0.462c-0.333,0.308-0.499,0.667-0.499,1.077c0,0.361,0.137,0.707,0.411,1.035
			c0.273,0.335,0.85,0.729,1.727,1.18c1.068,0.553,1.794,1.086,2.178,1.6c0.377,0.52,0.565,1.104,0.565,1.753
			c0,0.916-0.322,1.692-0.966,2.327c-0.644,0.637-1.447,0.954-2.413,0.954c-0.644,0-1.258-0.14-1.843-0.421
			c-0.586-0.279-1.07-0.666-1.454-1.158l0.902-1.025c0.733,0.827,1.512,1.24,2.334,1.24c0.575,0,1.064-0.184,1.47-0.553
			c0.403-0.369,0.606-0.804,0.606-1.303c0-0.41-0.134-0.775-0.401-1.098c-0.267-0.314-0.87-0.711-1.809-1.189
			c-1.007-0.52-1.692-1.031-2.055-1.537c-0.363-0.506-0.545-1.084-0.545-1.733c0-0.848,0.289-1.552,0.868-2.112
			c0.578-0.561,1.31-0.841,2.192-0.841C449.959,111.451,450.993,111.954,452.034,112.958z"/>
		<path style="fill:#FFFFFF;" d="M458.884,111.738h1.477l3.42,8.101l3.56-8.101h0.261l3.583,8.101l3.485-8.101h1.493l-4.847,11.156
			h-0.266l-3.567-7.987l-3.565,7.987h-0.268L458.884,111.738z"/>
		<path style="fill:#FFFFFF;" d="M478.341,107.145c0.327,0,0.606,0.116,0.837,0.349c0.231,0.232,0.348,0.513,0.348,0.841
			c0,0.321-0.116,0.598-0.348,0.83c-0.23,0.232-0.51,0.35-0.837,0.35c-0.319,0-0.596-0.117-0.827-0.35s-0.347-0.509-0.347-0.83
			c0-0.328,0.115-0.608,0.347-0.841S478.021,107.145,478.341,107.145z M477.629,111.738h1.436v11.156h-1.436V111.738z"/>
		<path style="fill:#FFFFFF;" d="M481.833,107.432h1.436v15.463h-1.436V107.432z"/>
		<path style="fill:#FFFFFF;" d="M486.037,107.432h1.436v15.463h-1.436V107.432z"/>
		<path style="fill:#FFFFFF;" d="M496.362,122.895v-15.463h1.436v6.224c0.602-0.738,1.274-1.289,2.019-1.655
			s1.561-0.549,2.448-0.549c1.577,0,2.925,0.573,4.041,1.718s1.675,2.534,1.675,4.168c0,1.613-0.563,2.99-1.69,4.133
			c-1.127,1.141-2.482,1.712-4.066,1.712c-0.908,0-1.731-0.194-2.469-0.585c-0.737-0.389-1.39-0.974-1.957-1.753v2.051H496.362z
			 M502.104,121.798c0.799,0,1.535-0.197,2.21-0.59c0.676-0.393,1.213-0.945,1.611-1.656c0.399-0.711,0.599-1.463,0.599-2.256
			s-0.201-1.549-0.604-2.266c-0.402-0.719-0.943-1.277-1.621-1.677c-0.679-0.4-1.403-0.601-2.174-0.601
			c-0.785,0-1.53,0.2-2.236,0.601c-0.705,0.399-1.248,0.938-1.626,1.614c-0.379,0.678-0.567,1.439-0.567,2.287
			c0,1.292,0.424,2.372,1.273,3.24C499.818,121.363,500.863,121.798,502.104,121.798z"/>
		<path style="fill:#FFFFFF;" d="M519.987,119.192l1.21,0.637c-0.396,0.779-0.855,1.408-1.375,1.887
			c-0.521,0.479-1.105,0.842-1.755,1.092c-0.65,0.249-1.386,0.374-2.207,0.374c-1.82,0-3.243-0.597-4.27-1.789
			s-1.539-2.542-1.539-4.046c0-1.414,0.434-2.676,1.303-3.783c1.102-1.408,2.576-2.112,4.424-2.112c1.902,0,3.421,0.722,4.557,2.163
			c0.808,1.02,1.218,2.291,1.231,3.814h-10.038c0.026,1.297,0.44,2.358,1.241,3.188c0.801,0.828,1.79,1.242,2.968,1.242
			c0.567,0,1.12-0.098,1.657-0.296c0.538-0.197,0.994-0.46,1.371-0.786C519.142,120.449,519.549,119.921,519.987,119.192z
			 M519.987,116.188c-0.191-0.766-0.471-1.377-0.837-1.836c-0.366-0.457-0.851-0.826-1.452-1.107
			c-0.603-0.279-1.236-0.42-1.899-0.42c-1.096,0-2.036,0.352-2.823,1.057c-0.575,0.512-1.01,1.281-1.305,2.307H519.987z"/>
		<path style="fill:#FFFFFF;" d="M530.555,107.145c0.327,0,0.606,0.116,0.837,0.349c0.231,0.232,0.348,0.513,0.348,0.841
			c0,0.321-0.116,0.598-0.348,0.83c-0.23,0.232-0.51,0.35-0.837,0.35c-0.319,0-0.596-0.117-0.827-0.35s-0.347-0.509-0.347-0.83
			c0-0.328,0.115-0.608,0.347-0.841S530.235,107.145,530.555,107.145z M529.843,111.738h1.436v11.156h-1.436V111.738z"/>
		<path style="fill:#FFFFFF;" d="M534.262,111.738h1.436v1.999c0.574-0.766,1.21-1.338,1.907-1.717
			c0.697-0.38,1.456-0.569,2.276-0.569c0.834,0,1.574,0.212,2.22,0.636c0.646,0.424,1.123,0.994,1.431,1.713
			c0.308,0.717,0.461,1.835,0.461,3.353v5.742h-1.436v-5.321c0-1.285-0.053-2.144-0.159-2.574c-0.166-0.738-0.485-1.293-0.957-1.666
			s-1.087-0.559-1.846-0.559c-0.869,0-1.646,0.287-2.334,0.861c-0.687,0.574-1.14,1.285-1.358,2.133
			c-0.137,0.553-0.205,1.564-0.205,3.035v4.091h-1.436V111.738z"/>
		<path style="fill:#FFFFFF;" d="M558.165,111.451c1.719,0,3.143,0.622,4.272,1.866c1.027,1.135,1.541,2.479,1.541,4.029
			c0,1.559-0.543,2.922-1.628,4.087c-1.086,1.165-2.481,1.748-4.186,1.748c-1.713,0-3.111-0.583-4.196-1.748
			c-1.086-1.165-1.628-2.528-1.628-4.087c0-1.545,0.513-2.885,1.54-4.02C555.011,112.077,556.438,111.451,558.165,111.451z
			 M558.159,112.856c-1.193,0-2.219,0.44-3.076,1.322s-1.287,1.948-1.287,3.199c0,0.807,0.196,1.559,0.587,2.256
			s0.919,1.235,1.585,1.615c0.665,0.379,1.396,0.568,2.191,0.568s1.526-0.189,2.192-0.568c0.665-0.38,1.193-0.918,1.584-1.615
			c0.392-0.697,0.587-1.449,0.587-2.256c0-1.251-0.431-2.317-1.292-3.199C560.37,113.297,559.346,112.856,558.159,112.856z"/>
		<path style="fill:#FFFFFF;" d="M566.449,111.738h1.436v5.209c0,1.271,0.068,2.146,0.205,2.625c0.206,0.684,0.598,1.224,1.176,1.62
			c0.579,0.396,1.269,0.595,2.069,0.595s1.48-0.192,2.039-0.579c0.558-0.387,0.942-0.895,1.155-1.523
			c0.144-0.43,0.216-1.343,0.216-2.737v-5.209h1.466v5.476c0,1.538-0.18,2.697-0.538,3.477c-0.359,0.779-0.899,1.389-1.62,1.83
			c-0.722,0.44-1.626,0.661-2.712,0.661c-1.088,0-1.995-0.221-2.723-0.661c-0.729-0.441-1.271-1.057-1.631-1.846
			c-0.358-0.79-0.538-1.978-0.538-3.563V111.738z"/>
		<path style="fill:#FFFFFF;" d="M578.856,111.738h1.466v1.63c0.438-0.643,0.898-1.122,1.384-1.44
			c0.485-0.317,0.991-0.477,1.518-0.477c0.396,0,0.82,0.126,1.271,0.38l-0.748,1.209c-0.301-0.129-0.554-0.194-0.759-0.194
			c-0.479,0-0.94,0.196-1.384,0.59c-0.445,0.394-0.783,1.003-1.016,1.83c-0.178,0.636-0.267,1.921-0.267,3.855v3.773h-1.466V111.738
			z"/>
		<path style="fill:#FFFFFF;" d="M597.14,112.958l-0.924,0.954c-0.768-0.745-1.518-1.118-2.251-1.118
			c-0.466,0-0.865,0.154-1.197,0.462c-0.333,0.308-0.499,0.667-0.499,1.077c0,0.361,0.137,0.707,0.411,1.035
			c0.273,0.335,0.85,0.729,1.727,1.18c1.068,0.553,1.794,1.086,2.178,1.6c0.377,0.52,0.565,1.104,0.565,1.753
			c0,0.916-0.322,1.692-0.966,2.327c-0.644,0.637-1.447,0.954-2.413,0.954c-0.644,0-1.258-0.14-1.843-0.421
			c-0.586-0.279-1.07-0.666-1.454-1.158l0.902-1.025c0.733,0.827,1.512,1.24,2.334,1.24c0.575,0,1.064-0.184,1.47-0.553
			c0.403-0.369,0.606-0.804,0.606-1.303c0-0.41-0.134-0.775-0.401-1.098c-0.267-0.314-0.87-0.711-1.809-1.189
			c-1.007-0.52-1.692-1.031-2.055-1.537c-0.363-0.506-0.545-1.084-0.545-1.733c0-0.848,0.289-1.552,0.868-2.112
			c0.578-0.561,1.31-0.841,2.192-0.841C595.064,111.451,596.099,111.954,597.14,112.958z"/>
		<path style="fill:#FFFFFF;" d="M610.798,111.738v11.156h-1.415v-1.917c-0.602,0.73-1.276,1.281-2.025,1.65
			c-0.748,0.369-1.567,0.554-2.456,0.554c-1.578,0-2.927-0.572-4.045-1.718c-1.117-1.145-1.676-2.537-1.676-4.178
			c0-1.607,0.563-2.98,1.691-4.123c1.128-1.141,2.484-1.712,4.07-1.712c0.916,0,1.745,0.194,2.487,0.585
			c0.741,0.389,1.393,0.974,1.953,1.753v-2.051H610.798z M605.061,112.835c-0.799,0-1.536,0.197-2.212,0.59
			s-1.214,0.943-1.613,1.654c-0.399,0.709-0.6,1.461-0.6,2.253c0,0.785,0.202,1.536,0.604,2.253
			c0.403,0.717,0.944,1.275,1.623,1.675c0.68,0.399,1.409,0.599,2.188,0.599c0.785,0,1.529-0.197,2.232-0.594
			s1.244-0.932,1.623-1.607s0.569-1.438,0.569-2.284c0-1.29-0.426-2.37-1.275-3.237C607.35,113.269,606.304,112.835,605.061,112.835
			z"/>
		<path style="fill:#FFFFFF;" d="M618.622,107.432v1.404c-0.526-0.225-0.978-0.338-1.354-0.338c-0.28,0-0.513,0.057-0.697,0.169
			c-0.185,0.113-0.301,0.243-0.349,0.39c-0.048,0.147-0.071,0.539-0.071,1.174l-0.002,1.508h2.329v1.241h-2.33l-0.008,9.915h-1.436
			v-9.915h-1.466v-1.241h1.466v-1.743c0-0.8,0.073-1.37,0.221-1.712c0.146-0.342,0.396-0.617,0.748-0.826
			c0.353-0.208,0.777-0.313,1.276-0.313C617.415,107.145,617.973,107.24,618.622,107.432z"/>
		<path style="fill:#FFFFFF;" d="M630.015,119.192l1.21,0.637c-0.396,0.779-0.855,1.408-1.375,1.887
			c-0.521,0.479-1.105,0.842-1.755,1.092c-0.65,0.249-1.386,0.374-2.207,0.374c-1.82,0-3.243-0.597-4.27-1.789
			s-1.539-2.542-1.539-4.046c0-1.414,0.434-2.676,1.303-3.783c1.102-1.408,2.576-2.112,4.424-2.112c1.902,0,3.421,0.722,4.557,2.163
			c0.808,1.02,1.218,2.291,1.231,3.814h-10.038c0.026,1.297,0.44,2.358,1.241,3.188c0.801,0.828,1.79,1.242,2.968,1.242
			c0.567,0,1.12-0.098,1.657-0.296c0.538-0.197,0.994-0.46,1.371-0.786C629.169,120.449,629.576,119.921,630.015,119.192z
			 M630.015,116.188c-0.191-0.766-0.471-1.377-0.837-1.836c-0.366-0.457-0.851-0.826-1.452-1.107
			c-0.603-0.279-1.236-0.42-1.899-0.42c-1.096,0-2.036,0.352-2.823,1.057c-0.575,0.512-1.01,1.281-1.305,2.307H630.015z"/>
		<path style="fill:#FFFFFF;" d="M639.87,107.432h1.436v15.463h-1.436V107.432z"/>
		<path style="fill:#FFFFFF;" d="M649.57,111.451c1.719,0,3.143,0.622,4.272,1.866c1.027,1.135,1.541,2.479,1.541,4.029
			c0,1.559-0.543,2.922-1.628,4.087c-1.086,1.165-2.481,1.748-4.186,1.748c-1.713,0-3.111-0.583-4.196-1.748
			c-1.086-1.165-1.628-2.528-1.628-4.087c0-1.545,0.513-2.885,1.54-4.02C646.416,112.077,647.844,111.451,649.57,111.451z
			 M649.564,112.856c-1.193,0-2.219,0.44-3.076,1.322s-1.287,1.948-1.287,3.199c0,0.807,0.196,1.559,0.587,2.256
			s0.919,1.235,1.585,1.615c0.665,0.379,1.396,0.568,2.191,0.568s1.526-0.189,2.192-0.568c0.665-0.38,1.193-0.918,1.584-1.615
			c0.392-0.697,0.587-1.449,0.587-2.256c0-1.251-0.431-2.317-1.292-3.199C651.775,113.297,650.751,112.856,649.564,112.856z"/>
		<path style="fill:#FFFFFF;" d="M668.868,114.056l-1.139,0.707c-0.982-1.305-2.324-1.958-4.024-1.958
			c-1.359,0-2.487,0.437-3.385,1.312c-0.898,0.873-1.347,1.936-1.347,3.185c0,0.813,0.206,1.577,0.619,2.294
			c0.413,0.718,0.979,1.273,1.7,1.67s1.527,0.594,2.422,0.594c1.639,0,2.978-0.652,4.015-1.958l1.139,0.749
			c-0.533,0.803-1.249,1.426-2.148,1.868c-0.898,0.442-1.922,0.664-3.07,0.664c-1.764,0-3.228-0.561-4.389-1.682
			c-1.163-1.121-1.744-2.485-1.744-4.091c0-1.08,0.272-2.084,0.815-3.01c0.544-0.926,1.29-1.649,2.241-2.169
			c0.949-0.52,2.013-0.779,3.188-0.779c0.738,0,1.451,0.112,2.138,0.339c0.688,0.225,1.27,0.52,1.748,0.881
			C668.126,113.034,668.533,113.495,668.868,114.056z"/>
		<path style="fill:#FFFFFF;" d="M671.616,107.432h1.436v8.81l5.172-4.503h2.107l-6.131,5.321l6.49,5.835h-2.021l-5.618-5.022v5.022
			h-1.436V107.432z"/>
		<path style="fill:#FFFFFF;" d="M691.56,119.192l1.21,0.637c-0.396,0.779-0.855,1.408-1.375,1.887
			c-0.521,0.479-1.105,0.842-1.755,1.092c-0.65,0.249-1.386,0.374-2.207,0.374c-1.82,0-3.243-0.597-4.27-1.789
			s-1.539-2.542-1.539-4.046c0-1.414,0.434-2.676,1.303-3.783c1.102-1.408,2.576-2.112,4.424-2.112c1.902,0,3.421,0.722,4.557,2.163
			c0.808,1.02,1.218,2.291,1.231,3.814h-10.038c0.026,1.297,0.44,2.358,1.241,3.188c0.801,0.828,1.79,1.242,2.968,1.242
			c0.567,0,1.12-0.098,1.657-0.296c0.538-0.197,0.994-0.46,1.371-0.786C690.714,120.449,691.121,119.921,691.56,119.192z
			 M691.56,116.188c-0.191-0.766-0.471-1.377-0.837-1.836c-0.366-0.457-0.851-0.826-1.452-1.107c-0.603-0.279-1.236-0.42-1.899-0.42
			c-1.096,0-2.036,0.352-2.823,1.057c-0.575,0.512-1.01,1.281-1.305,2.307H691.56z"/>
		<path style="fill:#FFFFFF;" d="M695.272,111.738h1.466v1.63c0.438-0.643,0.898-1.122,1.384-1.44
			c0.485-0.317,0.991-0.477,1.518-0.477c0.396,0,0.82,0.126,1.271,0.38l-0.748,1.209c-0.301-0.129-0.554-0.194-0.759-0.194
			c-0.479,0-0.94,0.196-1.384,0.59c-0.445,0.394-0.783,1.003-1.016,1.83c-0.178,0.636-0.267,1.921-0.267,3.855v3.773h-1.466V111.738
			z"/>
		<path style="fill:#FFFFFF;" d="M707.741,112.958l-0.924,0.954c-0.768-0.745-1.518-1.118-2.251-1.118
			c-0.466,0-0.865,0.154-1.197,0.462c-0.333,0.308-0.499,0.667-0.499,1.077c0,0.361,0.137,0.707,0.411,1.035
			c0.273,0.335,0.85,0.729,1.727,1.18c1.068,0.553,1.794,1.086,2.178,1.6c0.377,0.52,0.565,1.104,0.565,1.753
			c0,0.916-0.322,1.692-0.966,2.327c-0.644,0.637-1.447,0.954-2.413,0.954c-0.644,0-1.258-0.14-1.843-0.421
			c-0.586-0.279-1.07-0.666-1.454-1.158l0.902-1.025c0.733,0.827,1.512,1.24,2.334,1.24c0.575,0,1.064-0.184,1.47-0.553
			c0.403-0.369,0.606-0.804,0.606-1.303c0-0.41-0.134-0.775-0.401-1.098c-0.267-0.314-0.87-0.711-1.809-1.189
			c-1.007-0.52-1.692-1.031-2.055-1.537c-0.363-0.506-0.545-1.084-0.545-1.733c0-0.848,0.289-1.552,0.868-2.112
			c0.578-0.561,1.31-0.841,2.192-0.841C705.666,111.451,706.7,111.954,707.741,112.958z"/>
		<path style="fill:#FFFFFF;" d="M711.863,120.639c0.349,0,0.646,0.123,0.892,0.369s0.369,0.547,0.369,0.902
			c0,0.349-0.123,0.647-0.369,0.897c-0.246,0.249-0.543,0.374-0.892,0.374s-0.646-0.125-0.892-0.374
			c-0.246-0.25-0.369-0.549-0.369-0.897c0-0.355,0.123-0.656,0.369-0.902S711.515,120.639,711.863,120.639z"/>
	</g>
</g>
</svg>
