<?xml version="1.0" encoding="iso-8859-1"?>
<!-- Generator: Adobe Illustrator 16.0.0, SVG Export Plug-In . SVG Version: 6.00 Build 0)  -->
<!DOCTYPE svg PUBLIC "-//W3C//DTD SVG 1.1//EN" "http://www.w3.org/Graphics/SVG/1.1/DTD/svg11.dtd">
<svg version="1.1" id="&#x5716;&#x5C64;_1" xmlns="http://www.w3.org/2000/svg" xmlns:xlink="http://www.w3.org/1999/xlink" x="0px"
	 y="0px" width="34.65px" height="34.641px" viewBox="0 0 34.65 34.641" style="enable-background:new 0 0 34.65 34.641;"
	 xml:space="preserve">
<path style="fill:#FFFFFF;" d="M24.787,0.001H9.863C4.427,0.001,0,4.417,0,9.854v14.924c0,5.436,4.427,9.863,9.863,9.863h10.123
	V23.433h-2.661v-3.855h2.661v-1.326c0-1.504,0.168-2.701,0.505-3.41c0.326-0.793,0.905-1.346,1.784-1.822
	c0.868-0.504,1.951-0.719,3.324-0.719s2.699,0.131,3.988,0.58l-0.625,3.381c-0.748-0.215-1.542-0.309-2.195-0.309
	c-0.71,0-1.215,0.215-1.457,0.506c-0.337,0.334-0.458,0.924-0.458,1.877v1.242h3.53v3.855h-3.53v11.209
	c5.407-0.037,9.798-4.445,9.798-9.863V9.854C34.65,4.417,30.223,0.001,24.787,0.001z"/>
</svg>
