<?xml version="1.0" encoding="iso-8859-1"?>
<!-- Generator: Adobe Illustrator 16.0.0, SVG Export Plug-In . SVG Version: 6.00 Build 0)  -->
<!DOCTYPE svg PUBLIC "-//W3C//DTD SVG 1.1//EN" "http://www.w3.org/Graphics/SVG/1.1/DTD/svg11.dtd">
<svg version="1.1" id="&#x5716;&#x5C64;_1" xmlns="http://www.w3.org/2000/svg" xmlns:xlink="http://www.w3.org/1999/xlink" x="0px"
	 y="0px" width="323.744px" height="54.557px" viewBox="0 0 323.744 54.557" style="enable-background:new 0 0 323.744 54.557;"
	 xml:space="preserve">
<g>
	<path style="fill:#2C50A2;" d="M303.744,0H20C8.955,0,0,8.955,0,20c0,11.047,8.955,20,20,20h57.401l-1.255,14.557L88.483,40h215.26
		c11.045,0,20-8.953,20-20C323.744,8.955,314.789,0,303.744,0z"/>
	<g>
		<path style="fill:#FFFFFF;" d="M17,15.199h1.935v3.467l2.73-3.467h2.298l-3.511,4.486l3.853,5.568h-2.27l-3.1-4.467v4.467H17
			V15.199z"/>
		<path style="fill:#FFFFFF;" d="M33.614,22.076h-5.995c0.086,0.527,0.318,0.949,0.694,1.26c0.376,0.313,0.855,0.469,1.439,0.469
			c0.697,0,1.296-0.244,1.798-0.73l1.572,0.738c-0.392,0.555-0.861,0.967-1.408,1.232c-0.547,0.268-1.196,0.4-1.948,0.4
			c-1.167,0-2.117-0.367-2.851-1.104s-1.101-1.658-1.101-2.766c0-1.135,0.366-2.076,1.097-2.826s1.648-1.125,2.751-1.125
			c1.171,0,2.124,0.375,2.857,1.125s1.101,1.74,1.101,2.971L33.614,22.076z M31.748,20.605c-0.123-0.414-0.366-0.752-0.729-1.012
			c-0.363-0.26-0.784-0.389-1.263-0.389c-0.521,0-0.977,0.145-1.37,0.438c-0.246,0.182-0.475,0.504-0.685,0.963H31.748z"/>
		<path style="fill:#FFFFFF;" d="M43.276,22.076h-5.995c0.086,0.527,0.318,0.949,0.694,1.26c0.376,0.313,0.855,0.469,1.439,0.469
			c0.697,0,1.296-0.244,1.798-0.73l1.572,0.738c-0.392,0.555-0.861,0.967-1.408,1.232c-0.547,0.268-1.196,0.4-1.948,0.4
			c-1.167,0-2.117-0.367-2.851-1.104s-1.101-1.658-1.101-2.766c0-1.135,0.366-2.076,1.097-2.826s1.648-1.125,2.751-1.125
			c1.171,0,2.124,0.375,2.857,1.125s1.101,1.74,1.101,2.971L43.276,22.076z M41.41,20.605c-0.123-0.414-0.366-0.752-0.729-1.012
			c-0.363-0.26-0.784-0.389-1.263-0.389c-0.521,0-0.977,0.145-1.37,0.438c-0.246,0.182-0.475,0.504-0.685,0.963H41.41z"/>
		<path style="fill:#FFFFFF;" d="M47.339,17.816v0.82c0.337-0.336,0.702-0.59,1.094-0.758c0.392-0.17,0.811-0.254,1.258-0.254
			c0.971,0,1.795,0.367,2.475,1.102c0.679,0.732,1.019,1.674,1.019,2.822c0,1.107-0.351,2.033-1.053,2.779
			c-0.702,0.744-1.534,1.117-2.495,1.117c-0.428,0-0.827-0.076-1.196-0.229s-0.736-0.402-1.101-0.748v3.506h-1.853V17.816H47.339z
			 M49.301,19.348c-0.588,0-1.076,0.201-1.463,0.602c-0.387,0.402-0.581,0.926-0.581,1.572c0,0.662,0.194,1.195,0.581,1.604
			s0.875,0.611,1.463,0.611c0.57,0,1.049-0.207,1.439-0.621c0.39-0.416,0.584-0.943,0.584-1.586c0-0.639-0.191-1.162-0.574-1.57
			C50.368,19.553,49.885,19.348,49.301,19.348z"/>
		<path style="fill:#FFFFFF;" d="M59.222,17.816h1.827l1.496,4.232l1.609-4.232h1.118L66.851,22l1.498-4.184h1.838l-2.714,7.438
			h-1.183l-1.586-4.238l-1.634,4.238h-1.169L59.222,17.816z"/>
		<path style="fill:#FFFFFF;" d="M75.437,17.625c0.702,0,1.361,0.176,1.979,0.527c0.618,0.35,1.1,0.826,1.446,1.428
			s0.52,1.252,0.52,1.949c0,0.701-0.174,1.357-0.523,1.969c-0.349,0.609-0.824,1.088-1.425,1.432s-1.265,0.516-1.989,0.516
			c-1.066,0-1.977-0.379-2.731-1.139c-0.754-0.758-1.131-1.68-1.131-2.764c0-1.162,0.426-2.131,1.278-2.906
			C73.607,17.963,74.466,17.625,75.437,17.625z M75.467,19.383c-0.58,0-1.063,0.201-1.448,0.604
			c-0.386,0.404-0.579,0.92-0.579,1.549c0,0.648,0.19,1.172,0.572,1.572c0.381,0.402,0.864,0.602,1.448,0.602
			s1.07-0.203,1.458-0.607c0.388-0.406,0.582-0.928,0.582-1.566c0-0.637-0.19-1.156-0.572-1.555S76.061,19.383,75.467,19.383z"/>
		<path style="fill:#FFFFFF;" d="M81.167,17.816h1.6v0.938c0.173-0.369,0.403-0.65,0.69-0.842s0.602-0.287,0.943-0.287
			c0.242,0,0.495,0.064,0.759,0.191l-0.581,1.607c-0.219-0.109-0.399-0.164-0.54-0.164c-0.287,0-0.53,0.178-0.728,0.533
			s-0.297,1.053-0.297,2.092l0.007,0.361v3.008h-1.853V17.816z"/>
		<path style="fill:#FFFFFF;" d="M86.796,14.945h1.866v5.938l2.748-3.066h2.344l-3.204,3.564l3.587,3.873h-2.316l-3.158-3.428v3.428
			h-1.866V14.945z"/>
		<path style="fill:#FFFFFF;" d="M96.332,14.754c0.327,0,0.608,0.119,0.842,0.355c0.234,0.238,0.351,0.525,0.351,0.861
			c0,0.334-0.116,0.617-0.348,0.852s-0.509,0.352-0.832,0.352c-0.332,0-0.615-0.119-0.849-0.359
			c-0.234-0.238-0.351-0.529-0.351-0.871c0-0.328,0.116-0.607,0.348-0.84C95.725,14.871,96.004,14.754,96.332,14.754z
			 M95.398,17.816h1.866v7.438h-1.866V17.816z"/>
		<path style="fill:#FFFFFF;" d="M99.66,17.816h1.866v0.762c0.423-0.355,0.807-0.604,1.15-0.744
			c0.343-0.139,0.695-0.209,1.054-0.209c0.737,0,1.363,0.258,1.877,0.773c0.432,0.438,0.648,1.084,0.648,1.941v4.914h-1.846v-3.256
			c0-0.889-0.04-1.479-0.12-1.77s-0.218-0.514-0.416-0.666c-0.198-0.152-0.442-0.229-0.733-0.229c-0.377,0-0.701,0.127-0.972,0.379
			c-0.271,0.254-0.458,0.604-0.563,1.049c-0.055,0.232-0.082,0.734-0.082,1.508v2.984H99.66V17.816z"/>
		<path style="fill:#FFFFFF;" d="M114.258,17.816h1.859v6.371c0,1.258-0.253,2.184-0.759,2.775
			c-0.679,0.803-1.702,1.203-3.069,1.203c-0.729,0-1.342-0.09-1.839-0.273c-0.497-0.182-0.916-0.449-1.258-0.803
			s-0.595-0.783-0.759-1.289h2.058c0.182,0.211,0.417,0.369,0.704,0.475c0.287,0.107,0.626,0.162,1.019,0.162
			c0.501,0,0.905-0.078,1.21-0.232c0.305-0.156,0.521-0.355,0.646-0.602s0.188-0.67,0.188-1.271
			c-0.328,0.328-0.672,0.563-1.032,0.707c-0.36,0.143-0.768,0.215-1.224,0.215c-0.998,0-1.841-0.359-2.529-1.08
			c-0.688-0.719-1.032-1.631-1.032-2.734c0-1.18,0.365-2.127,1.094-2.844c0.661-0.646,1.449-0.971,2.365-0.971
			c0.428,0,0.833,0.078,1.213,0.236c0.38,0.156,0.762,0.416,1.145,0.775V17.816z M112.323,19.369c-0.588,0-1.073,0.197-1.456,0.59
			c-0.383,0.395-0.574,0.891-0.574,1.488c0,0.619,0.196,1.127,0.588,1.523s0.884,0.596,1.477,0.596c0.579,0,1.056-0.193,1.432-0.582
			c0.376-0.387,0.564-0.895,0.564-1.523c0-0.621-0.189-1.123-0.567-1.512C113.408,19.563,112.92,19.369,112.323,19.369z"/>
		<path style="fill:#FFFFFF;" d="M124.333,23.107c0.324,0,0.601,0.115,0.831,0.342c0.23,0.229,0.345,0.504,0.345,0.828
			c0,0.318-0.115,0.594-0.345,0.822c-0.23,0.23-0.507,0.346-0.831,0.346s-0.599-0.113-0.827-0.342
			c-0.228-0.227-0.342-0.504-0.342-0.826c0-0.324,0.114-0.6,0.342-0.828C123.733,23.223,124.009,23.107,124.333,23.107z
			 M123.389,14.945h1.887v7.35h-1.887V14.945z"/>
		<path style="fill:#FFFFFF;" d="M132.76,15.199h1.914v8.23h2.789v1.824h-4.703V15.199z"/>
		<path style="fill:#FFFFFF;" d="M146.865,22.076h-5.995c0.086,0.527,0.318,0.949,0.694,1.26c0.376,0.313,0.855,0.469,1.439,0.469
			c0.697,0,1.296-0.244,1.798-0.73l1.572,0.738c-0.392,0.555-0.861,0.967-1.408,1.232c-0.547,0.268-1.196,0.4-1.948,0.4
			c-1.167,0-2.117-0.367-2.851-1.104s-1.101-1.658-1.101-2.766c0-1.135,0.366-2.076,1.097-2.826s1.648-1.125,2.751-1.125
			c1.171,0,2.124,0.375,2.857,1.125s1.101,1.74,1.101,2.971L146.865,22.076z M144.999,20.605c-0.123-0.414-0.366-0.752-0.729-1.012
			c-0.363-0.26-0.784-0.389-1.263-0.389c-0.521,0-0.977,0.145-1.37,0.438c-0.246,0.182-0.475,0.504-0.685,0.963H144.999z"/>
		<path style="fill:#FFFFFF;" d="M149.301,15.076h1.866v2.74h1.107v1.607h-1.107v5.83h-1.866v-5.83h-0.957v-1.607h0.957V15.076z"/>
		<path style="fill:#FFFFFF;" d="M154.089,14.945h1.723v0.941c0,0.602-0.074,1.117-0.222,1.551
			c-0.148,0.432-0.397,0.877-0.749,1.336l-0.67-0.523c0.168-0.246,0.293-0.457,0.373-0.637s0.158-0.418,0.236-0.713h-0.69V14.945z"
			/>
		<path style="fill:#FFFFFF;" d="M163.143,18.855l-1.155,1.156c-0.469-0.465-0.896-0.697-1.278-0.697
			c-0.209,0-0.374,0.043-0.492,0.133c-0.119,0.088-0.178,0.199-0.178,0.332c0,0.1,0.038,0.191,0.113,0.275
			c0.075,0.086,0.261,0.201,0.557,0.346l0.684,0.342c0.72,0.355,1.214,0.719,1.483,1.088s0.403,0.801,0.403,1.299
			c0,0.66-0.243,1.211-0.728,1.654c-0.485,0.441-1.136,0.662-1.952,0.662c-1.084,0-1.951-0.424-2.598-1.271l1.148-1.25
			c0.219,0.254,0.475,0.461,0.769,0.617c0.294,0.158,0.555,0.236,0.783,0.236c0.246,0,0.444-0.059,0.595-0.178
			c0.15-0.117,0.226-0.254,0.226-0.41c0-0.287-0.271-0.566-0.813-0.84l-0.629-0.314c-1.203-0.607-1.805-1.365-1.805-2.277
			c0-0.588,0.227-1.09,0.68-1.508c0.454-0.416,1.033-0.625,1.74-0.625c0.483,0,0.938,0.105,1.364,0.318
			C162.485,18.154,162.846,18.459,163.143,18.855z"/>
		<path style="fill:#FFFFFF;" d="M169.178,17.816h0.663c0.004-0.975,0.021-1.551,0.048-1.729c0.05-0.41,0.222-0.736,0.516-0.975
			c0.294-0.24,0.71-0.359,1.248-0.359c0.387,0,0.825,0.09,1.313,0.268v1.422c-0.269-0.078-0.49-0.117-0.663-0.117
			c-0.219,0-0.378,0.047-0.479,0.137c-0.073,0.068-0.109,0.211-0.109,0.424l-0.007,0.93h1.183v1.58h-1.183v5.857h-1.866v-5.857
			h-0.663V17.816z"/>
		<path style="fill:#FFFFFF;" d="M175.411,14.754c0.327,0,0.608,0.119,0.842,0.355c0.234,0.238,0.351,0.525,0.351,0.861
			c0,0.334-0.116,0.617-0.348,0.852s-0.509,0.352-0.832,0.352c-0.332,0-0.615-0.119-0.849-0.359
			c-0.234-0.238-0.351-0.529-0.351-0.871c0-0.328,0.116-0.607,0.348-0.84C174.804,14.871,175.084,14.754,175.411,14.754z
			 M174.478,17.816h1.866v7.438h-1.866V17.816z"/>
		<path style="fill:#FFFFFF;" d="M184.236,17.816h1.859v6.371c0,1.258-0.253,2.184-0.759,2.775
			c-0.679,0.803-1.702,1.203-3.069,1.203c-0.729,0-1.342-0.09-1.839-0.273c-0.497-0.182-0.916-0.449-1.258-0.803
			s-0.595-0.783-0.759-1.289h2.058c0.182,0.211,0.417,0.369,0.704,0.475c0.287,0.107,0.626,0.162,1.019,0.162
			c0.501,0,0.905-0.078,1.21-0.232c0.305-0.156,0.521-0.355,0.646-0.602s0.188-0.67,0.188-1.271
			c-0.328,0.328-0.672,0.563-1.032,0.707c-0.36,0.143-0.768,0.215-1.224,0.215c-0.998,0-1.841-0.359-2.529-1.08
			c-0.688-0.719-1.032-1.631-1.032-2.734c0-1.18,0.365-2.127,1.094-2.844c0.661-0.646,1.449-0.971,2.365-0.971
			c0.428,0,0.833,0.078,1.213,0.236c0.38,0.156,0.762,0.416,1.145,0.775V17.816z M182.301,19.369c-0.588,0-1.073,0.197-1.456,0.59
			c-0.383,0.395-0.574,0.891-0.574,1.488c0,0.619,0.196,1.127,0.588,1.523s0.884,0.596,1.477,0.596c0.579,0,1.056-0.193,1.432-0.582
			c0.376-0.387,0.564-0.895,0.564-1.523c0-0.621-0.189-1.123-0.567-1.512C183.386,19.563,182.898,19.369,182.301,19.369z"/>
		<path style="fill:#FFFFFF;" d="M188.688,14.945h1.853v3.623c0.365-0.314,0.731-0.551,1.101-0.707
			c0.369-0.158,0.743-0.236,1.121-0.236c0.738,0,1.36,0.256,1.866,0.766c0.433,0.443,0.649,1.092,0.649,1.949v4.914h-1.839v-3.26
			c0-0.861-0.041-1.445-0.123-1.75c-0.082-0.307-0.222-0.533-0.42-0.684s-0.443-0.227-0.735-0.227c-0.378,0-0.703,0.125-0.974,0.377
			c-0.271,0.25-0.459,0.592-0.564,1.025c-0.055,0.223-0.082,0.732-0.082,1.531v2.986h-1.853V14.945z"/>
		<path style="fill:#FFFFFF;" d="M198.009,15.076h1.866v2.74h1.107v1.607h-1.107v5.83h-1.866v-5.83h-0.957v-1.607h0.957V15.076z"/>
		<path style="fill:#FFFFFF;" d="M206.409,17.816h0.663c0.004-0.975,0.021-1.551,0.048-1.729c0.05-0.41,0.222-0.736,0.516-0.975
			c0.294-0.24,0.71-0.359,1.248-0.359c0.387,0,0.825,0.09,1.313,0.268v1.422c-0.269-0.078-0.49-0.117-0.663-0.117
			c-0.219,0-0.378,0.047-0.479,0.137c-0.073,0.068-0.109,0.211-0.109,0.424l-0.007,0.93h1.183v1.58h-1.183v5.857h-1.866v-5.857
			h-0.663V17.816z"/>
		<path style="fill:#FFFFFF;" d="M215.408,17.625c0.702,0,1.361,0.176,1.979,0.527c0.618,0.35,1.1,0.826,1.446,1.428
			s0.52,1.252,0.52,1.949c0,0.701-0.174,1.357-0.523,1.969c-0.349,0.609-0.824,1.088-1.425,1.432s-1.265,0.516-1.989,0.516
			c-1.066,0-1.977-0.379-2.731-1.139c-0.754-0.758-1.131-1.68-1.131-2.764c0-1.162,0.426-2.131,1.278-2.906
			C213.578,17.963,214.437,17.625,215.408,17.625z M215.438,19.383c-0.58,0-1.063,0.201-1.448,0.604
			c-0.386,0.404-0.579,0.92-0.579,1.549c0,0.648,0.19,1.172,0.572,1.572c0.381,0.402,0.864,0.602,1.448,0.602
			s1.07-0.203,1.458-0.607c0.388-0.406,0.582-0.928,0.582-1.566c0-0.637-0.19-1.156-0.572-1.555S216.032,19.383,215.438,19.383z"/>
		<path style="fill:#FFFFFF;" d="M221.139,17.816h1.6v0.938c0.173-0.369,0.403-0.65,0.69-0.842s0.602-0.287,0.943-0.287
			c0.242,0,0.495,0.064,0.759,0.191l-0.581,1.607c-0.219-0.109-0.399-0.164-0.54-0.164c-0.287,0-0.53,0.178-0.728,0.533
			s-0.297,1.053-0.297,2.092l0.007,0.361v3.008h-1.853V17.816z"/>
		<path style="fill:#FFFFFF;" d="M240.818,16.967l-1.339,1.275c-0.911-0.963-1.935-1.443-3.073-1.443
			c-0.961,0-1.77,0.328-2.428,0.984c-0.658,0.658-0.987,1.467-0.987,2.43c0,0.67,0.146,1.266,0.437,1.785
			c0.292,0.521,0.704,0.93,1.236,1.227c0.533,0.295,1.125,0.443,1.776,0.443c0.555,0,1.063-0.104,1.523-0.311
			s0.965-0.586,1.516-1.133l1.298,1.354c-0.743,0.727-1.445,1.229-2.105,1.508c-0.661,0.281-1.415,0.422-2.263,0.422
			c-1.563,0-2.843-0.496-3.838-1.488c-0.996-0.99-1.494-2.26-1.494-3.811c0-1.002,0.227-1.893,0.68-2.672s1.103-1.406,1.948-1.881
			c0.845-0.473,1.756-0.711,2.731-0.711c0.83,0,1.628,0.176,2.396,0.525C239.601,15.822,240.262,16.32,240.818,16.967z"/>
		<path style="fill:#FFFFFF;" d="M247.94,14.945c1.423,0,2.646,0.516,3.67,1.545c1.024,1.031,1.536,2.285,1.536,3.768
			c0,1.467-0.505,2.709-1.515,3.725c-1.01,1.018-2.236,1.525-3.677,1.525c-1.509,0-2.764-0.521-3.762-1.566
			c-0.999-1.043-1.498-2.283-1.498-3.719c0-0.961,0.232-1.846,0.698-2.652s1.104-1.445,1.918-1.918
			C246.124,15.182,247.001,14.945,247.94,14.945z M247.92,16.818c-0.931,0-1.713,0.324-2.347,0.971
			c-0.634,0.648-0.951,1.471-0.951,2.469c0,1.111,0.399,1.99,1.198,2.639c0.62,0.506,1.332,0.758,2.135,0.758
			c0.908,0,1.681-0.328,2.32-0.984s0.958-1.465,0.958-2.426c0-0.957-0.322-1.768-0.965-2.432
			C249.624,17.15,248.841,16.818,247.92,16.818z"/>
		<path style="fill:#FFFFFF;" d="M254.889,15.199h1.968l2.53,7.143l2.567-7.143h1.965l-3.623,10.055h-1.846L254.889,15.199z"/>
		<path style="fill:#FFFFFF;" d="M266.017,15.199h1.9v10.055h-1.9V15.199z"/>
		<path style="fill:#FFFFFF;" d="M270.777,15.199h2.268c1.461,0,2.547,0.18,3.258,0.543c0.71,0.361,1.295,0.951,1.755,1.768
			c0.46,0.814,0.69,1.768,0.69,2.857c0,0.773-0.129,1.486-0.386,2.135c-0.257,0.65-0.613,1.189-1.066,1.617
			c-0.453,0.43-0.943,0.725-1.472,0.889s-1.443,0.246-2.746,0.246h-2.302V15.199z M272.678,17.045v6.344h0.889
			c0.875,0,1.51-0.102,1.904-0.301c0.394-0.201,0.717-0.539,0.967-1.014s0.376-1.059,0.376-1.752c0-1.066-0.298-1.895-0.896-2.484
			c-0.538-0.529-1.401-0.793-2.591-0.793H272.678z"/>
		<path style="fill:#FFFFFF;" d="M281.328,20.682h3.473v1.736h-3.473V20.682z"/>
		<path style="fill:#FFFFFF;" d="M289.007,15.199h2.864v10.055h-1.9v-8.258H287.9L289.007,15.199z"/>
		<path style="fill:#FFFFFF;" d="M299.025,25.508l-1.626-0.809l1.762-3.424c-0.854,0-1.58-0.305-2.178-0.914
			c-0.598-0.611-0.897-1.369-0.897-2.275c0-0.877,0.307-1.621,0.919-2.229s1.353-0.912,2.218-0.912c0.907,0,1.662,0.316,2.266,0.945
			c0.604,0.631,0.906,1.355,0.906,2.176c0,0.309-0.047,0.619-0.14,0.932s-0.309,0.793-0.646,1.443L299.025,25.508z M299.264,19.465
			c0.355,0,0.654-0.131,0.896-0.389c0.242-0.26,0.362-0.58,0.362-0.963c0-0.391-0.126-0.717-0.379-0.98s-0.548-0.396-0.885-0.396
			c-0.355,0-0.661,0.131-0.916,0.393s-0.383,0.588-0.383,0.979c0,0.387,0.124,0.709,0.373,0.969
			C298.58,19.334,298.891,19.465,299.264,19.465z"/>
		<path style="fill:#FFFFFF;" d="M305.74,23.107c0.324,0,0.601,0.115,0.831,0.342c0.23,0.229,0.345,0.504,0.345,0.828
			c0,0.318-0.115,0.594-0.345,0.822c-0.23,0.23-0.507,0.346-0.831,0.346s-0.599-0.113-0.827-0.342
			c-0.228-0.227-0.342-0.504-0.342-0.826c0-0.324,0.114-0.6,0.342-0.828C305.141,23.223,305.417,23.107,305.74,23.107z
			 M304.797,14.945h1.887v7.35h-1.887V14.945z"/>
	</g>
</g>
</svg>
