<?xml version="1.0" encoding="iso-8859-1"?>
<!-- Generator: Adobe Illustrator 16.0.0, SVG Export Plug-In . SVG Version: 6.00 Build 0)  -->
<!DOCTYPE svg PUBLIC "-//W3C//DTD SVG 1.1//EN" "http://www.w3.org/Graphics/SVG/1.1/DTD/svg11.dtd">
<svg version="1.1" id="&#x5716;&#x5C64;_1" xmlns="http://www.w3.org/2000/svg" xmlns:xlink="http://www.w3.org/1999/xlink" x="0px"
	 y="0px" width="239.268px" height="53px" viewBox="0 0 239.268 53" style="enable-background:new 0 0 239.268 53;"
	 xml:space="preserve">
<g>
	<path style="fill:#2C50A2;" d="M219.268,0H20C8.955,0,0,8.955,0,20s8.955,20,20,20h1.638l-2.314,13l11.949-13h187.995
		c11.046,0,20-8.955,20-20S230.313,0,219.268,0z"/>
	<g>
		<path style="fill:#FFFFFF;" d="M20.1,14.973H22v10.055h-1.9V14.973z"/>
		<path style="fill:#FFFFFF;" d="M28.441,17.59h1.827l1.496,4.232l1.609-4.232h1.118l1.58,4.184l1.498-4.184h1.838l-2.714,7.438
			H35.51l-1.586-4.238l-1.634,4.238h-1.169L28.441,17.59z"/>
		<path style="fill:#FFFFFF;" d="M41.891,14.527c0.327,0,0.608,0.119,0.842,0.355c0.234,0.238,0.351,0.525,0.351,0.861
			c0,0.334-0.116,0.617-0.348,0.852s-0.509,0.352-0.832,0.352c-0.332,0-0.615-0.119-0.849-0.359
			c-0.234-0.238-0.351-0.529-0.351-0.871c0-0.328,0.116-0.607,0.348-0.84C41.284,14.645,41.563,14.527,41.891,14.527z M40.958,17.59
			h1.866v7.438h-1.866V17.59z"/>
		<path style="fill:#FFFFFF;" d="M45.014,14.719h1.866v10.309h-1.866V14.719z"/>
		<path style="fill:#FFFFFF;" d="M49.07,14.719h1.866v10.309H49.07V14.719z"/>
		<path style="fill:#FFFFFF;" d="M63.438,14.719h1.866v10.309h-1.866v-0.785c-0.364,0.346-0.729,0.596-1.096,0.748
			c-0.367,0.152-0.764,0.229-1.192,0.229c-0.96,0-1.791-0.373-2.492-1.117c-0.701-0.746-1.051-1.672-1.051-2.779
			c0-1.148,0.339-2.09,1.018-2.822c0.678-0.734,1.502-1.102,2.472-1.102c0.446,0,0.865,0.084,1.256,0.254
			c0.392,0.168,0.753,0.422,1.086,0.758V14.719z M61.476,19.121c-0.577,0-1.056,0.205-1.438,0.611
			c-0.381,0.408-0.572,0.932-0.572,1.57c0,0.643,0.194,1.17,0.583,1.586c0.388,0.414,0.866,0.621,1.434,0.621
			c0.586,0,1.072-0.203,1.458-0.611c0.386-0.408,0.579-0.941,0.579-1.604c0-0.646-0.193-1.17-0.579-1.572
			C62.555,19.322,62.066,19.121,61.476,19.121z"/>
		<path style="fill:#FFFFFF;" d="M71.384,17.398c0.702,0,1.361,0.176,1.979,0.527c0.618,0.35,1.1,0.826,1.446,1.428
			s0.52,1.252,0.52,1.949c0,0.701-0.174,1.357-0.523,1.969c-0.349,0.609-0.824,1.088-1.425,1.432s-1.265,0.516-1.989,0.516
			c-1.066,0-1.977-0.379-2.731-1.139c-0.754-0.758-1.131-1.68-1.131-2.764c0-1.162,0.426-2.131,1.278-2.906
			C69.555,17.736,70.414,17.398,71.384,17.398z M71.415,19.156c-0.58,0-1.063,0.201-1.448,0.604
			c-0.386,0.404-0.579,0.92-0.579,1.549c0,0.648,0.19,1.172,0.572,1.572c0.381,0.402,0.864,0.602,1.448,0.602
			s1.07-0.203,1.458-0.607c0.388-0.406,0.582-0.928,0.582-1.566c0-0.637-0.19-1.156-0.572-1.555S72.008,19.156,71.415,19.156z"/>
		<path style="fill:#FFFFFF;" d="M82.156,17.59h1.866v0.855c0.319-0.352,0.674-0.613,1.064-0.787c0.39-0.172,0.815-0.26,1.276-0.26
			c0.465,0,0.884,0.115,1.258,0.342c0.374,0.229,0.675,0.561,0.903,0.998c0.296-0.438,0.66-0.77,1.091-0.998
			c0.431-0.227,0.902-0.342,1.413-0.342c0.529,0,0.994,0.123,1.396,0.369s0.69,0.568,0.866,0.965
			c0.175,0.396,0.263,1.041,0.263,1.934v4.361h-1.88v-3.773c0-0.842-0.105-1.414-0.314-1.713c-0.209-0.297-0.524-0.447-0.943-0.447
			c-0.319,0-0.605,0.092-0.858,0.273c-0.253,0.184-0.441,0.434-0.564,0.756c-0.123,0.32-0.185,0.838-0.185,1.549v3.355h-1.88v-3.602
			c0-0.666-0.049-1.148-0.147-1.447c-0.098-0.297-0.246-0.52-0.442-0.666c-0.196-0.145-0.434-0.219-0.712-0.219
			c-0.311,0-0.593,0.092-0.847,0.277c-0.253,0.184-0.443,0.443-0.568,0.775c-0.125,0.334-0.188,0.857-0.188,1.572v3.309h-1.866
			V17.59z"/>
		<path style="fill:#FFFFFF;" d="M95.204,17.59h1.907l1.932,4.668l2.132-4.668h1.913l-4.658,10.158h-1.927l1.529-3.275L95.204,17.59
			z"/>
		<path style="fill:#FFFFFF;" d="M111.32,14.719v3.691c0.337-0.336,0.702-0.59,1.094-0.758c0.392-0.17,0.811-0.254,1.258-0.254
			c0.971,0,1.795,0.367,2.475,1.102c0.679,0.732,1.019,1.674,1.019,2.822c0,1.107-0.351,2.033-1.053,2.779
			c-0.702,0.744-1.534,1.117-2.495,1.117c-0.428,0-0.827-0.076-1.196-0.229s-0.736-0.402-1.101-0.748v0.785h-1.853V14.719H111.32z
			 M113.282,19.121c-0.588,0-1.076,0.201-1.463,0.602c-0.387,0.402-0.581,0.926-0.581,1.572c0,0.662,0.194,1.195,0.581,1.604
			s0.875,0.611,1.463,0.611c0.57,0,1.049-0.207,1.439-0.621c0.39-0.416,0.584-0.943,0.584-1.586c0-0.639-0.191-1.162-0.574-1.57
			C114.348,19.326,113.865,19.121,113.282,19.121z"/>
		<path style="fill:#FFFFFF;" d="M126.86,21.85h-5.995c0.086,0.527,0.318,0.949,0.694,1.26c0.376,0.313,0.855,0.469,1.439,0.469
			c0.697,0,1.296-0.244,1.798-0.73l1.572,0.738c-0.392,0.555-0.861,0.967-1.408,1.232c-0.547,0.268-1.196,0.4-1.948,0.4
			c-1.167,0-2.117-0.367-2.851-1.104s-1.101-1.658-1.101-2.766c0-1.135,0.366-2.076,1.097-2.826s1.648-1.125,2.751-1.125
			c1.171,0,2.124,0.375,2.857,1.125s1.101,1.74,1.101,2.971L126.86,21.85z M124.994,20.379c-0.123-0.414-0.366-0.752-0.729-1.012
			c-0.363-0.26-0.784-0.389-1.263-0.389c-0.521,0-0.977,0.145-1.37,0.438c-0.246,0.182-0.475,0.504-0.685,0.963H124.994z"/>
		<path style="fill:#FFFFFF;" d="M133.624,18.629l-1.155,1.156c-0.469-0.465-0.896-0.697-1.278-0.697
			c-0.209,0-0.374,0.043-0.492,0.133c-0.119,0.088-0.178,0.199-0.178,0.332c0,0.1,0.038,0.191,0.113,0.275
			c0.075,0.086,0.261,0.201,0.557,0.346l0.684,0.342c0.72,0.355,1.214,0.719,1.483,1.088s0.403,0.801,0.403,1.299
			c0,0.66-0.243,1.211-0.728,1.654c-0.485,0.441-1.136,0.662-1.952,0.662c-1.084,0-1.951-0.424-2.598-1.271l1.148-1.25
			c0.219,0.254,0.475,0.461,0.769,0.617c0.294,0.158,0.555,0.236,0.783,0.236c0.246,0,0.444-0.059,0.595-0.178
			c0.15-0.117,0.226-0.254,0.226-0.41c0-0.287-0.271-0.566-0.813-0.84l-0.629-0.314c-1.203-0.607-1.805-1.365-1.805-2.277
			c0-0.588,0.227-1.09,0.68-1.508c0.454-0.416,1.033-0.625,1.74-0.625c0.483,0,0.938,0.105,1.364,0.318
			C132.967,17.928,133.328,18.232,133.624,18.629z"/>
		<path style="fill:#FFFFFF;" d="M136.156,14.85h1.866v2.74h1.107v1.607h-1.107v5.83h-1.866v-5.83h-0.957V17.59h0.957V14.85z"/>
		<path style="fill:#FFFFFF;" d="M145.67,14.85h1.866v2.74h1.107v1.607h-1.107v5.83h-1.866v-5.83h-0.957V17.59h0.957V14.85z"/>
		<path style="fill:#FFFFFF;" d="M153.835,17.398c0.702,0,1.361,0.176,1.979,0.527c0.618,0.35,1.1,0.826,1.446,1.428
			s0.52,1.252,0.52,1.949c0,0.701-0.174,1.357-0.523,1.969c-0.349,0.609-0.824,1.088-1.425,1.432s-1.265,0.516-1.989,0.516
			c-1.066,0-1.977-0.379-2.731-1.139c-0.754-0.758-1.131-1.68-1.131-2.764c0-1.162,0.426-2.131,1.278-2.906
			C152.005,17.736,152.864,17.398,153.835,17.398z M153.866,19.156c-0.58,0-1.063,0.201-1.448,0.604
			c-0.386,0.404-0.579,0.92-0.579,1.549c0,0.648,0.19,1.172,0.572,1.572c0.381,0.402,0.864,0.602,1.448,0.602
			s1.07-0.203,1.458-0.607c0.388-0.406,0.582-0.928,0.582-1.566c0-0.637-0.19-1.156-0.572-1.555S154.459,19.156,153.866,19.156z"/>
		<path style="fill:#FFFFFF;" d="M169.174,18.629l-1.155,1.156c-0.469-0.465-0.896-0.697-1.278-0.697
			c-0.209,0-0.374,0.043-0.492,0.133c-0.119,0.088-0.178,0.199-0.178,0.332c0,0.1,0.038,0.191,0.113,0.275
			c0.075,0.086,0.261,0.201,0.557,0.346l0.684,0.342c0.72,0.355,1.214,0.719,1.483,1.088s0.403,0.801,0.403,1.299
			c0,0.66-0.243,1.211-0.728,1.654c-0.485,0.441-1.136,0.662-1.952,0.662c-1.084,0-1.951-0.424-2.598-1.271l1.148-1.25
			c0.219,0.254,0.475,0.461,0.769,0.617c0.294,0.158,0.555,0.236,0.783,0.236c0.246,0,0.444-0.059,0.595-0.178
			c0.15-0.117,0.226-0.254,0.226-0.41c0-0.287-0.271-0.566-0.813-0.84l-0.629-0.314c-1.203-0.607-1.805-1.365-1.805-2.277
			c0-0.588,0.227-1.09,0.68-1.508c0.454-0.416,1.033-0.625,1.74-0.625c0.483,0,0.938,0.105,1.364,0.318
			C168.517,17.928,168.877,18.232,169.174,18.629z"/>
		<path style="fill:#FFFFFF;" d="M178.931,21.85h-5.995c0.086,0.527,0.318,0.949,0.694,1.26c0.376,0.313,0.855,0.469,1.439,0.469
			c0.697,0,1.296-0.244,1.798-0.73l1.572,0.738c-0.392,0.555-0.861,0.967-1.408,1.232c-0.547,0.268-1.196,0.4-1.948,0.4
			c-1.167,0-2.117-0.367-2.851-1.104s-1.101-1.658-1.101-2.766c0-1.135,0.366-2.076,1.097-2.826s1.648-1.125,2.751-1.125
			c1.171,0,2.124,0.375,2.857,1.125s1.101,1.74,1.101,2.971L178.931,21.85z M177.065,20.379c-0.123-0.414-0.366-0.752-0.729-1.012
			c-0.363-0.26-0.784-0.389-1.263-0.389c-0.521,0-0.977,0.145-1.37,0.438c-0.246,0.182-0.475,0.504-0.685,0.963H177.065z"/>
		<path style="fill:#FFFFFF;" d="M180.705,17.59h1.6v0.938c0.173-0.369,0.403-0.65,0.69-0.842s0.602-0.287,0.943-0.287
			c0.242,0,0.495,0.064,0.759,0.191l-0.581,1.607c-0.219-0.109-0.399-0.164-0.54-0.164c-0.287,0-0.53,0.178-0.728,0.533
			s-0.297,1.053-0.297,2.092l0.007,0.361v3.008h-1.853V17.59z"/>
		<path style="fill:#FFFFFF;" d="M185.523,17.59h1.901l1.879,4.389l1.875-4.389h1.892l-3.165,7.438h-1.21L185.523,17.59z"/>
		<path style="fill:#FFFFFF;" d="M195.588,14.527c0.327,0,0.608,0.119,0.842,0.355c0.234,0.238,0.351,0.525,0.351,0.861
			c0,0.334-0.116,0.617-0.348,0.852s-0.509,0.352-0.832,0.352c-0.332,0-0.615-0.119-0.849-0.359
			c-0.234-0.238-0.351-0.529-0.351-0.871c0-0.328,0.116-0.607,0.348-0.84C194.981,14.645,195.261,14.527,195.588,14.527z
			 M194.655,17.59h1.866v7.438h-1.866V17.59z"/>
		<path style="fill:#FFFFFF;" d="M206.197,19.094l-1.554,0.855c-0.292-0.307-0.581-0.518-0.866-0.637
			c-0.285-0.117-0.619-0.178-1.002-0.178c-0.698,0-1.263,0.209-1.694,0.625c-0.432,0.416-0.647,0.949-0.647,1.6
			c0,0.633,0.208,1.15,0.623,1.551c0.415,0.4,0.96,0.6,1.635,0.6c0.835,0,1.485-0.285,1.951-0.854l1.472,1.008
			c-0.797,1.037-1.923,1.555-3.377,1.555c-1.308,0-2.332-0.387-3.073-1.162c-0.741-0.773-1.111-1.682-1.111-2.721
			c0-0.719,0.18-1.383,0.54-1.988c0.36-0.607,0.862-1.082,1.507-1.43c0.645-0.346,1.366-0.52,2.164-0.52
			c0.738,0,1.401,0.146,1.989,0.441C205.343,18.133,205.824,18.553,206.197,19.094z"/>
		<path style="fill:#FFFFFF;" d="M216.03,21.85h-5.995c0.086,0.527,0.318,0.949,0.694,1.26c0.376,0.313,0.855,0.469,1.439,0.469
			c0.697,0,1.296-0.244,1.798-0.73l1.572,0.738c-0.392,0.555-0.861,0.967-1.408,1.232c-0.547,0.268-1.196,0.4-1.948,0.4
			c-1.167,0-2.117-0.367-2.851-1.104s-1.101-1.658-1.101-2.766c0-1.135,0.366-2.076,1.097-2.826s1.648-1.125,2.751-1.125
			c1.171,0,2.124,0.375,2.857,1.125s1.101,1.74,1.101,2.971L216.03,21.85z M214.164,20.379c-0.123-0.414-0.366-0.752-0.729-1.012
			c-0.363-0.26-0.784-0.389-1.263-0.389c-0.521,0-0.977,0.145-1.37,0.438c-0.246,0.182-0.475,0.504-0.685,0.963H214.164z"/>
		<path style="fill:#FFFFFF;" d="M219.252,22.881c0.324,0,0.601,0.115,0.831,0.342c0.23,0.229,0.345,0.504,0.345,0.828
			c0,0.318-0.115,0.594-0.345,0.822c-0.23,0.23-0.507,0.346-0.831,0.346s-0.599-0.113-0.827-0.342
			c-0.228-0.227-0.342-0.504-0.342-0.826c0-0.324,0.114-0.6,0.342-0.828C218.653,22.996,218.929,22.881,219.252,22.881z
			 M218.309,14.719h1.887v7.35h-1.887V14.719z"/>
	</g>
</g>
</svg>
