<?xml version="1.0" encoding="iso-8859-1"?>
<!-- Generator: Adobe Illustrator 16.0.0, SVG Export Plug-In . SVG Version: 6.00 Build 0)  -->
<!DOCTYPE svg PUBLIC "-//W3C//DTD SVG 1.1//EN" "http://www.w3.org/Graphics/SVG/1.1/DTD/svg11.dtd">
<svg version="1.1" id="&#x5716;&#x5C64;_1" xmlns="http://www.w3.org/2000/svg" xmlns:xlink="http://www.w3.org/1999/xlink" x="0px"
	 y="0px" width="279.508px" height="52.78px" viewBox="0 0 279.508 52.78" style="enable-background:new 0 0 279.508 52.78;"
	 xml:space="preserve">
<g>
	<path style="fill:#E9C41D;" d="M259.509,0H20C8.954,0,0,8.955,0,19.998C0,31.045,8.954,40,20,40h217.741l21.513,12.781L254.622,40
		h4.887c11.046,0,19.999-8.955,19.999-20.002C279.508,8.953,270.555,0,259.509,0z"/>
	<g>
		<path style="fill:#FFFFFF;" d="M19.316,14.736h1.9v10.057h-1.9V14.736z"/>
		<path style="fill:#FFFFFF;" d="M35.762,18.859l-1.553,0.854c-0.293-0.305-0.581-0.518-0.866-0.635
			c-0.285-0.119-0.619-0.178-1.003-0.178c-0.697,0-1.263,0.207-1.693,0.625C30.215,19.941,30,20.475,30,21.125
			c0,0.633,0.207,1.148,0.623,1.549c0.414,0.4,0.96,0.602,1.635,0.602c0.836,0,1.485-0.285,1.951-0.855l1.471,1.008
			c-0.797,1.037-1.923,1.557-3.377,1.557c-1.308,0-2.332-0.389-3.072-1.162c-0.74-0.775-1.111-1.682-1.111-2.721
			c0-0.721,0.181-1.383,0.541-1.99c0.359-0.605,0.861-1.082,1.507-1.428c0.646-0.348,1.366-0.52,2.163-0.52
			c0.738,0,1.402,0.146,1.99,0.441C34.908,17.898,35.389,18.316,35.762,18.859z"/>
		<path style="fill:#FFFFFF;" d="M43.633,17.355H45.5v7.438h-1.867v-0.787c-0.363,0.348-0.729,0.596-1.096,0.75
			c-0.366,0.152-0.764,0.229-1.191,0.229c-0.961,0-1.791-0.373-2.492-1.117c-0.701-0.746-1.051-1.672-1.051-2.779
			c0-1.148,0.339-2.09,1.018-2.824c0.678-0.732,1.502-1.1,2.471-1.1c0.446,0,0.865,0.084,1.256,0.252
			c0.393,0.17,0.754,0.422,1.086,0.76V17.355z M41.672,18.887c-0.577,0-1.057,0.203-1.438,0.611
			c-0.382,0.408-0.572,0.932-0.572,1.568c0,0.643,0.193,1.172,0.582,1.586c0.389,0.416,0.866,0.623,1.434,0.623
			c0.586,0,1.072-0.205,1.459-0.611c0.385-0.408,0.578-0.943,0.578-1.604c0-0.648-0.193-1.172-0.578-1.572
			C42.75,19.086,42.262,18.887,41.672,18.887z"/>
		<path style="fill:#FFFFFF;" d="M48.086,17.355h1.866v0.762c0.423-0.357,0.807-0.605,1.15-0.744
			c0.343-0.141,0.694-0.209,1.054-0.209c0.738,0,1.363,0.258,1.878,0.771c0.433,0.438,0.648,1.086,0.648,1.941v4.916h-1.846v-3.258
			c0-0.887-0.04-1.477-0.12-1.768c-0.079-0.291-0.217-0.514-0.416-0.666c-0.197-0.152-0.441-0.229-0.732-0.229
			c-0.377,0-0.701,0.125-0.972,0.379c-0.271,0.252-0.458,0.602-0.563,1.047c-0.055,0.232-0.082,0.736-0.082,1.51v2.984h-1.866
			V17.355z"/>
		<path style="fill:#FFFFFF;" d="M57.304,14.484h1.723v0.941c0,0.6-0.074,1.117-0.222,1.549c-0.148,0.432-0.398,0.879-0.749,1.338
			l-0.67-0.525c0.169-0.244,0.293-0.457,0.372-0.637c0.08-0.18,0.158-0.416,0.236-0.711h-0.69V14.484z"/>
		<path style="fill:#FFFFFF;" d="M62.03,14.613h1.866v2.742h1.107v1.605h-1.107v5.832H62.03v-5.832h-0.957v-1.605h0.957V14.613z"/>
		<path style="fill:#FFFFFF;" d="M70.495,17.355h1.827l1.495,4.23l1.608-4.23h1.118l1.58,4.184l1.497-4.184h1.839l-2.714,7.438
			h-1.183l-1.586-4.238l-1.634,4.238h-1.169L70.495,17.355z"/>
		<path style="fill:#FFFFFF;" d="M88.705,17.355h1.866v7.438h-1.866v-0.787c-0.364,0.348-0.729,0.596-1.096,0.75
			c-0.367,0.152-0.764,0.229-1.191,0.229c-0.961,0-1.791-0.373-2.492-1.117c-0.701-0.746-1.052-1.672-1.052-2.779
			c0-1.148,0.339-2.09,1.018-2.824c0.679-0.732,1.502-1.1,2.472-1.1c0.445,0,0.865,0.084,1.256,0.252
			c0.392,0.17,0.754,0.422,1.086,0.76V17.355z M86.743,18.887c-0.577,0-1.056,0.203-1.438,0.611s-0.572,0.932-0.572,1.568
			c0,0.643,0.194,1.172,0.583,1.586c0.388,0.416,0.865,0.623,1.434,0.623c0.586,0,1.072-0.205,1.458-0.611
			c0.386-0.408,0.579-0.943,0.579-1.604c0-0.648-0.193-1.172-0.579-1.572C87.822,19.086,87.334,18.887,86.743,18.887z"/>
		<path style="fill:#FFFFFF;" d="M93.887,14.293c0.326,0,0.607,0.117,0.842,0.355c0.233,0.236,0.351,0.523,0.351,0.861
			c0,0.332-0.116,0.615-0.348,0.852c-0.231,0.234-0.509,0.352-0.831,0.352c-0.332,0-0.615-0.119-0.85-0.359
			c-0.233-0.238-0.351-0.529-0.351-0.871c0-0.328,0.116-0.609,0.348-0.842S93.559,14.293,93.887,14.293z M92.953,17.355h1.866v7.438
			h-1.866V17.355z"/>
		<path style="fill:#FFFFFF;" d="M97.44,14.613h1.866v2.742h1.107v1.605h-1.107v5.832H97.44v-5.832h-0.957v-1.605h0.957V14.613z"/>
		<path style="fill:#FFFFFF;" d="M106.955,14.613h1.865v2.742h1.107v1.605h-1.107v5.832h-1.865v-5.832h-0.957v-1.605h0.957V14.613z"
			/>
		<path style="fill:#FFFFFF;" d="M115.119,17.164c0.701,0,1.361,0.176,1.979,0.525c0.618,0.352,1.1,0.828,1.446,1.43
			s0.52,1.25,0.52,1.947c0,0.703-0.175,1.359-0.522,1.969c-0.35,0.611-0.824,1.088-1.426,1.434
			c-0.602,0.344-1.265,0.516-1.989,0.516c-1.066,0-1.977-0.379-2.731-1.139c-0.754-0.758-1.131-1.68-1.131-2.766
			c0-1.162,0.426-2.131,1.278-2.904C113.289,17.5,114.148,17.164,115.119,17.164z M115.15,18.92c-0.58,0-1.063,0.203-1.449,0.605
			c-0.385,0.404-0.578,0.92-0.578,1.549c0,0.646,0.19,1.17,0.572,1.572c0.381,0.4,0.863,0.602,1.447,0.602
			c0.585,0,1.07-0.203,1.459-0.609c0.389-0.404,0.582-0.928,0.582-1.564c0-0.639-0.19-1.156-0.572-1.555
			C116.23,19.119,115.743,18.92,115.15,18.92z"/>
		<path style="fill:#FFFFFF;" d="M129.398,17.164c0.701,0,1.361,0.176,1.979,0.525c0.618,0.352,1.1,0.828,1.446,1.43
			s0.52,1.25,0.52,1.947c0,0.703-0.175,1.359-0.522,1.969c-0.35,0.611-0.824,1.088-1.426,1.434
			c-0.602,0.344-1.265,0.516-1.989,0.516c-1.066,0-1.977-0.379-2.731-1.139c-0.754-0.758-1.131-1.68-1.131-2.766
			c0-1.162,0.426-2.131,1.278-2.904C127.568,17.5,128.428,17.164,129.398,17.164z M129.43,18.92c-0.58,0-1.063,0.203-1.449,0.605
			c-0.385,0.404-0.578,0.92-0.578,1.549c0,0.646,0.19,1.17,0.572,1.572c0.381,0.4,0.863,0.602,1.447,0.602
			c0.585,0,1.07-0.203,1.459-0.609c0.389-0.404,0.582-0.928,0.582-1.564c0-0.639-0.19-1.156-0.572-1.555
			C130.51,19.119,130.022,18.92,129.43,18.92z"/>
		<path style="fill:#FFFFFF;" d="M137.42,17.355v0.82c0.337-0.338,0.701-0.59,1.094-0.76c0.392-0.168,0.811-0.252,1.258-0.252
			c0.971,0,1.795,0.367,2.475,1.1c0.679,0.734,1.018,1.676,1.018,2.824c0,1.107-0.351,2.033-1.053,2.779
			c-0.701,0.744-1.533,1.117-2.494,1.117c-0.429,0-0.828-0.076-1.197-0.229c-0.369-0.154-0.735-0.402-1.1-0.75v3.508h-1.854V17.355
			H137.42z M139.381,18.887c-0.588,0-1.075,0.199-1.463,0.602c-0.387,0.4-0.58,0.924-0.58,1.572c0,0.66,0.193,1.195,0.58,1.604
			c0.388,0.406,0.875,0.611,1.463,0.611c0.57,0,1.05-0.207,1.439-0.623c0.39-0.414,0.584-0.943,0.584-1.586
			c0-0.637-0.191-1.16-0.574-1.568S139.965,18.887,139.381,18.887z"/>
		<path style="fill:#FFFFFF;" d="M152.961,21.613h-5.996c0.087,0.529,0.318,0.949,0.694,1.262s0.855,0.469,1.438,0.469
			c0.697,0,1.297-0.244,1.799-0.732l1.572,0.738c-0.393,0.557-0.861,0.969-1.408,1.234c-0.547,0.268-1.197,0.4-1.949,0.4
			c-1.166,0-2.116-0.369-2.85-1.104c-0.734-0.736-1.102-1.658-1.102-2.766c0-1.135,0.366-2.078,1.098-2.826
			c0.731-0.75,1.648-1.125,2.752-1.125c1.171,0,2.123,0.375,2.857,1.125c0.733,0.748,1.1,1.738,1.1,2.969L152.961,21.613z
			 M151.094,20.145c-0.123-0.416-0.365-0.752-0.729-1.012s-0.784-0.391-1.264-0.391c-0.521,0-0.977,0.146-1.369,0.438
			c-0.246,0.184-0.475,0.504-0.686,0.965H151.094z"/>
		<path style="fill:#FFFFFF;" d="M155.171,17.355h1.866v0.762c0.424-0.357,0.807-0.605,1.15-0.744
			c0.344-0.141,0.695-0.209,1.055-0.209c0.736,0,1.363,0.258,1.877,0.771c0.432,0.438,0.648,1.086,0.648,1.941v4.916h-1.846v-3.258
			c0-0.887-0.04-1.477-0.119-1.768c-0.08-0.291-0.219-0.514-0.416-0.666c-0.198-0.152-0.442-0.229-0.733-0.229
			c-0.378,0-0.701,0.125-0.972,0.379c-0.271,0.252-0.458,0.602-0.563,1.047c-0.055,0.232-0.082,0.736-0.082,1.51v2.984h-1.866
			V17.355z"/>
		<path style="fill:#FFFFFF;" d="M168.876,17.355h1.866v0.854c0.319-0.35,0.674-0.613,1.064-0.785
			c0.389-0.174,0.814-0.26,1.275-0.26c0.465,0,0.885,0.113,1.258,0.342c0.375,0.227,0.676,0.561,0.904,0.998
			c0.296-0.438,0.659-0.771,1.09-0.998c0.432-0.229,0.902-0.342,1.413-0.342c0.529,0,0.994,0.123,1.396,0.369
			s0.689,0.566,0.865,0.963s0.264,1.041,0.264,1.936v4.361h-1.88V21.02c0-0.844-0.104-1.414-0.314-1.713s-0.524-0.447-0.943-0.447
			c-0.319,0-0.604,0.09-0.858,0.273c-0.252,0.182-0.44,0.434-0.563,0.756c-0.123,0.32-0.185,0.836-0.185,1.547v3.357h-1.88v-3.604
			c0-0.664-0.05-1.146-0.147-1.445s-0.246-0.521-0.441-0.666c-0.197-0.146-0.435-0.219-0.713-0.219
			c-0.311,0-0.593,0.092-0.847,0.277c-0.253,0.184-0.442,0.441-0.568,0.775c-0.126,0.332-0.188,0.855-0.188,1.572v3.309h-1.866
			V17.355z"/>
		<path style="fill:#FFFFFF;" d="M181.924,17.355h1.906l1.932,4.666l2.133-4.666h1.912l-4.658,10.158h-1.928l1.529-3.275
			L181.924,17.355z"/>
		<path style="fill:#FFFFFF;" d="M198.039,17.355v0.82c0.338-0.338,0.701-0.59,1.094-0.76c0.393-0.168,0.811-0.252,1.258-0.252
			c0.971,0,1.795,0.367,2.475,1.1c0.68,0.734,1.019,1.676,1.019,2.824c0,1.107-0.351,2.033-1.053,2.779
			c-0.702,0.744-1.534,1.117-2.495,1.117c-0.428,0-0.827-0.076-1.196-0.229c-0.369-0.154-0.735-0.402-1.101-0.75v3.508h-1.853
			V17.355H198.039z M200.001,18.887c-0.588,0-1.075,0.199-1.463,0.602c-0.388,0.4-0.581,0.924-0.581,1.572
			c0,0.66,0.193,1.195,0.581,1.604c0.388,0.406,0.875,0.611,1.463,0.611c0.569,0,1.05-0.207,1.438-0.623
			c0.391-0.414,0.585-0.943,0.585-1.586c0-0.637-0.191-1.16-0.574-1.568S200.584,18.887,200.001,18.887z"/>
		<path style="fill:#FFFFFF;" d="M211.618,17.355h1.866v7.438h-1.866v-0.787c-0.364,0.348-0.729,0.596-1.096,0.75
			c-0.366,0.152-0.764,0.229-1.192,0.229c-0.96,0-1.791-0.373-2.492-1.117c-0.7-0.746-1.051-1.672-1.051-2.779
			c0-1.148,0.34-2.09,1.018-2.824c0.678-0.732,1.502-1.1,2.472-1.1c0.446,0,0.864,0.084,1.256,0.252
			c0.392,0.17,0.753,0.422,1.086,0.76V17.355z M209.656,18.887c-0.576,0-1.057,0.203-1.438,0.611s-0.572,0.932-0.572,1.568
			c0,0.643,0.193,1.172,0.582,1.586c0.389,0.416,0.867,0.623,1.435,0.623c0.586,0,1.071-0.205,1.458-0.611
			c0.386-0.408,0.579-0.943,0.579-1.604c0-0.648-0.193-1.172-0.579-1.572C210.734,19.086,210.246,18.887,209.656,18.887z"/>
		<path style="fill:#FFFFFF;" d="M223.352,18.859l-1.554,0.854c-0.292-0.305-0.581-0.518-0.866-0.635
			c-0.285-0.119-0.619-0.178-1.002-0.178c-0.698,0-1.264,0.207-1.693,0.625c-0.432,0.416-0.647,0.949-0.647,1.6
			c0,0.633,0.208,1.148,0.623,1.549s0.96,0.602,1.636,0.602c0.835,0,1.484-0.285,1.95-0.855l1.472,1.008
			c-0.797,1.037-1.924,1.557-3.377,1.557c-1.309,0-2.332-0.389-3.072-1.162c-0.741-0.775-1.111-1.682-1.111-2.721
			c0-0.721,0.18-1.383,0.54-1.99c0.36-0.605,0.862-1.082,1.507-1.428c0.646-0.348,1.367-0.52,2.164-0.52
			c0.738,0,1.401,0.146,1.989,0.441C222.497,17.898,222.979,18.316,223.352,18.859z"/>
		<path style="fill:#FFFFFF;" d="M225.746,14.484h1.867v5.938l2.748-3.066h2.344L229.5,20.92l3.588,3.873h-2.316l-3.158-3.428v3.428
			h-1.867V14.484z"/>
		<path style="fill:#FFFFFF;" d="M240.043,17.355h1.867v7.438h-1.867v-0.787c-0.363,0.348-0.729,0.596-1.096,0.75
			c-0.366,0.152-0.764,0.229-1.191,0.229c-0.961,0-1.791-0.373-2.492-1.117c-0.701-0.746-1.051-1.672-1.051-2.779
			c0-1.148,0.339-2.09,1.018-2.824c0.678-0.732,1.502-1.1,2.471-1.1c0.446,0,0.865,0.084,1.256,0.252
			c0.393,0.17,0.754,0.422,1.086,0.76V17.355z M238.082,18.887c-0.577,0-1.057,0.203-1.438,0.611
			c-0.382,0.408-0.572,0.932-0.572,1.568c0,0.643,0.193,1.172,0.582,1.586c0.389,0.416,0.866,0.623,1.434,0.623
			c0.586,0,1.072-0.205,1.459-0.611c0.385-0.408,0.578-0.943,0.578-1.604c0-0.648-0.193-1.172-0.578-1.572
			C239.16,19.086,238.672,18.887,238.082,18.887z"/>
		<path style="fill:#FFFFFF;" d="M249.992,17.355h1.859v6.371c0,1.258-0.253,2.182-0.759,2.775
			c-0.679,0.801-1.702,1.203-3.069,1.203c-0.729,0-1.342-0.092-1.839-0.273c-0.497-0.184-0.916-0.451-1.258-0.803
			c-0.342-0.354-0.595-0.783-0.759-1.289h2.058c0.183,0.209,0.417,0.367,0.704,0.475s0.627,0.16,1.019,0.16
			c0.501,0,0.905-0.076,1.21-0.232c0.305-0.154,0.521-0.355,0.646-0.602c0.125-0.246,0.188-0.67,0.188-1.271
			c-0.328,0.328-0.672,0.564-1.032,0.709c-0.36,0.143-0.769,0.215-1.224,0.215c-0.998,0-1.842-0.361-2.529-1.08
			c-0.688-0.721-1.032-1.633-1.032-2.734c0-1.182,0.364-2.129,1.094-2.844c0.661-0.648,1.449-0.971,2.365-0.971
			c0.429,0,0.833,0.078,1.214,0.236c0.38,0.156,0.762,0.414,1.145,0.775V17.355z M248.058,18.906c-0.588,0-1.073,0.197-1.456,0.592
			s-0.574,0.891-0.574,1.486c0,0.621,0.195,1.129,0.588,1.525s0.885,0.594,1.477,0.594c0.578,0,1.057-0.193,1.432-0.58
			c0.377-0.389,0.564-0.896,0.564-1.525c0-0.619-0.189-1.123-0.567-1.51C249.143,19.1,248.654,18.906,248.058,18.906z"/>
		<path style="fill:#FFFFFF;" d="M261.89,21.613h-5.995c0.086,0.529,0.318,0.949,0.693,1.262c0.377,0.313,0.855,0.469,1.439,0.469
			c0.697,0,1.297-0.244,1.798-0.732l1.572,0.738c-0.392,0.557-0.861,0.969-1.408,1.234c-0.547,0.268-1.196,0.4-1.948,0.4
			c-1.166,0-2.117-0.369-2.851-1.104c-0.733-0.736-1.101-1.658-1.101-2.766c0-1.135,0.365-2.078,1.098-2.826
			c0.73-0.75,1.648-1.125,2.751-1.125c1.171,0,2.124,0.375,2.857,1.125c0.733,0.748,1.101,1.738,1.101,2.969L261.89,21.613z
			 M260.023,20.145c-0.123-0.416-0.366-0.752-0.729-1.012c-0.362-0.26-0.784-0.391-1.263-0.391c-0.521,0-0.978,0.146-1.37,0.438
			c-0.246,0.184-0.475,0.504-0.685,0.965H260.023z"/>
		<path style="fill:#FFFFFF;" d="M265.119,22.844c0.297,0,0.549,0.104,0.759,0.313c0.21,0.207,0.314,0.459,0.314,0.754
			c0,0.297-0.104,0.549-0.314,0.76c-0.21,0.209-0.462,0.314-0.759,0.314s-0.549-0.105-0.759-0.314
			c-0.21-0.211-0.314-0.463-0.314-0.76c0-0.295,0.104-0.547,0.314-0.754C264.57,22.947,264.822,22.844,265.119,22.844z"/>
	</g>
</g>
</svg>
