<?xml version="1.0" encoding="iso-8859-1"?>
<!-- Generator: Adobe Illustrator 16.0.0, SVG Export Plug-In . SVG Version: 6.00 Build 0)  -->
<!DOCTYPE svg PUBLIC "-//W3C//DTD SVG 1.1//EN" "http://www.w3.org/Graphics/SVG/1.1/DTD/svg11.dtd">
<svg version="1.1" id="&#x5716;&#x5C64;_1" xmlns="http://www.w3.org/2000/svg" xmlns:xlink="http://www.w3.org/1999/xlink" x="0px"
	 y="0px" width="183px" height="50.652px" viewBox="0 0 183 50.652" style="enable-background:new 0 0 183 50.652;"
	 xml:space="preserve">
<g>
	<path style="fill:#E9C41D;" d="M163,0H20C8.955,0,0,8.955,0,20s8.955,20,20,20h4.626l-3.622,10.652L36.353,40H163
		c11.046,0,20-8.955,20-20S174.046,0,163,0z"/>
	<g>
		<path style="fill:#FFFFFF;" d="M18.429,15.09c1.422,0,2.646,0.516,3.67,1.545c1.023,1.031,1.535,2.285,1.535,3.768
			c0,1.467-0.505,2.709-1.516,3.725c-1.01,1.018-2.235,1.525-3.676,1.525c-1.51,0-2.764-0.521-3.763-1.566
			c-0.999-1.043-1.498-2.283-1.498-3.719c0-0.961,0.232-1.846,0.698-2.652c0.465-0.807,1.104-1.445,1.918-1.918
			C16.612,15.326,17.489,15.09,18.429,15.09z M18.407,16.963c-0.93,0-1.713,0.324-2.347,0.971c-0.634,0.648-0.951,1.471-0.951,2.469
			c0,1.111,0.399,1.99,1.198,2.639c0.619,0.506,1.332,0.758,2.135,0.758c0.907,0,1.681-0.328,2.319-0.984s0.958-1.465,0.958-2.426
			c0-0.957-0.322-1.768-0.965-2.432C20.111,17.295,19.329,16.963,18.407,16.963z"/>
		<path style="fill:#FFFFFF;" d="M27.114,15.344h1.865l2.33,7.014l2.353-7.014h1.864l1.687,10.055h-1.851l-1.078-6.35l-2.137,6.35
			H30.46l-2.117-6.35l-1.104,6.35h-1.866L27.114,15.344z"/>
		<path style="fill:#FFFFFF;" d="M48.72,16.984l-1.348,1.332c-0.853-0.902-1.848-1.354-2.982-1.354c-0.99,0-1.819,0.328-2.487,0.984
			c-0.669,0.656-1.003,1.455-1.003,2.393c0,0.971,0.348,1.793,1.041,2.469c0.693,0.674,1.549,1.012,2.566,1.012
			c0.661,0,1.219-0.139,1.673-0.418c0.454-0.277,0.819-0.713,1.099-1.305h-2.912v-1.799h5.059l0.014,0.424
			c0,0.881-0.229,1.715-0.684,2.502c-0.456,0.789-1.047,1.391-1.771,1.805c-0.725,0.416-1.574,0.623-2.549,0.623
			c-1.044,0-1.975-0.227-2.793-0.682c-0.818-0.453-1.465-1.098-1.941-1.938c-0.477-0.838-0.715-1.742-0.715-2.713
			c0-1.332,0.44-2.488,1.32-3.473c1.043-1.172,2.401-1.758,4.074-1.758c0.875,0,1.692,0.162,2.453,0.486
			C47.476,15.85,48.104,16.318,48.72,16.984z"/>
		<path style="fill:#FFFFFF;" d="M52.702,23.252c0.323,0,0.6,0.115,0.83,0.342c0.23,0.229,0.346,0.504,0.346,0.828
			c0,0.318-0.115,0.594-0.346,0.822c-0.23,0.23-0.507,0.346-0.83,0.346c-0.324,0-0.6-0.113-0.828-0.342
			c-0.228-0.227-0.342-0.504-0.342-0.826c0-0.324,0.114-0.6,0.342-0.828C52.103,23.367,52.378,23.252,52.702,23.252z M51.759,15.09
			h1.887v7.35h-1.887V15.09z"/>
		<path style="fill:#FFFFFF;" d="M60.138,15.344h5.558v1.887h-1.832v8.168h-1.941V17.23h-1.784V15.344z"/>
		<path style="fill:#FFFFFF;" d="M67.51,15.09h1.853v3.623c0.365-0.314,0.731-0.551,1.101-0.707
			c0.369-0.158,0.743-0.236,1.121-0.236c0.738,0,1.36,0.256,1.866,0.766c0.434,0.443,0.649,1.092,0.649,1.949v4.914h-1.839v-3.26
			c0-0.861-0.041-1.445-0.123-1.75c-0.082-0.307-0.223-0.533-0.42-0.684c-0.199-0.15-0.443-0.227-0.735-0.227
			c-0.378,0-0.703,0.125-0.974,0.377c-0.271,0.25-0.459,0.592-0.564,1.025c-0.055,0.223-0.082,0.732-0.082,1.531v2.986H67.51V15.09z
			"/>
		<path style="fill:#FFFFFF;" d="M82.093,17.961h1.867v7.438h-1.867v-0.785c-0.363,0.346-0.729,0.596-1.096,0.748
			c-0.366,0.152-0.764,0.229-1.191,0.229c-0.961,0-1.791-0.373-2.492-1.117c-0.701-0.746-1.051-1.672-1.051-2.779
			c0-1.148,0.339-2.09,1.018-2.822c0.678-0.734,1.502-1.102,2.471-1.102c0.446,0,0.865,0.084,1.256,0.254
			c0.393,0.168,0.754,0.422,1.086,0.758V17.961z M80.132,19.492c-0.577,0-1.057,0.205-1.438,0.611
			c-0.382,0.408-0.572,0.932-0.572,1.57c0,0.643,0.193,1.17,0.582,1.586c0.389,0.414,0.866,0.621,1.434,0.621
			c0.586,0,1.072-0.203,1.459-0.611c0.385-0.408,0.578-0.941,0.578-1.604c0-0.646-0.193-1.17-0.578-1.572
			C81.21,19.693,80.722,19.492,80.132,19.492z"/>
		<path style="fill:#FFFFFF;" d="M86.772,15.221h1.865v2.74h1.107v1.607h-1.107v5.83h-1.865v-5.83h-0.957v-1.607h0.957V15.221z"/>
		<path style="fill:#FFFFFF;" d="M91.56,15.09h1.723v0.941c0,0.602-0.074,1.117-0.223,1.551c-0.147,0.432-0.396,0.877-0.748,1.336
			l-0.67-0.523c0.168-0.246,0.293-0.457,0.373-0.637c0.079-0.18,0.158-0.418,0.235-0.713h-0.69V15.09z"/>
		<path style="fill:#FFFFFF;" d="M100.613,19l-1.155,1.156c-0.469-0.465-0.896-0.697-1.278-0.697c-0.21,0-0.374,0.043-0.492,0.133
			c-0.118,0.088-0.178,0.199-0.178,0.332c0,0.1,0.038,0.191,0.112,0.275c0.076,0.086,0.262,0.201,0.558,0.346l0.684,0.342
			c0.72,0.355,1.214,0.719,1.483,1.088s0.403,0.801,0.403,1.299c0,0.66-0.243,1.211-0.728,1.654
			c-0.486,0.441-1.137,0.662-1.952,0.662c-1.085,0-1.95-0.424-2.598-1.271l1.148-1.25c0.219,0.254,0.476,0.461,0.769,0.617
			c0.295,0.158,0.555,0.236,0.783,0.236c0.246,0,0.444-0.059,0.595-0.178c0.15-0.117,0.226-0.254,0.226-0.41
			c0-0.287-0.271-0.566-0.813-0.84l-0.629-0.314c-1.203-0.607-1.805-1.365-1.805-2.277c0-0.588,0.227-1.09,0.681-1.508
			c0.453-0.416,1.033-0.625,1.739-0.625c0.483,0,0.938,0.105,1.364,0.318C99.956,18.299,100.317,18.604,100.613,19z"/>
		<path style="fill:#FFFFFF;" d="M112.089,19l-1.154,1.156c-0.47-0.465-0.896-0.697-1.279-0.697c-0.209,0-0.373,0.043-0.492,0.133
			c-0.118,0.088-0.178,0.199-0.178,0.332c0,0.1,0.038,0.191,0.113,0.275c0.075,0.086,0.261,0.201,0.557,0.346l0.684,0.342
			c0.721,0.355,1.215,0.719,1.484,1.088c0.269,0.369,0.402,0.801,0.402,1.299c0,0.66-0.242,1.211-0.728,1.654
			c-0.485,0.441-1.136,0.662-1.952,0.662c-1.084,0-1.95-0.424-2.598-1.271l1.148-1.25c0.219,0.254,0.476,0.461,0.77,0.617
			c0.294,0.158,0.555,0.236,0.783,0.236c0.246,0,0.443-0.059,0.594-0.178c0.15-0.117,0.227-0.254,0.227-0.41
			c0-0.287-0.271-0.566-0.814-0.84l-0.629-0.314c-1.203-0.607-1.805-1.365-1.805-2.277c0-0.588,0.227-1.09,0.681-1.508
			c0.454-0.416,1.033-0.625,1.739-0.625c0.483,0,0.938,0.105,1.364,0.318C111.433,18.299,111.793,18.604,112.089,19z"/>
		<path style="fill:#FFFFFF;" d="M117.89,17.77c0.701,0,1.361,0.176,1.979,0.527c0.617,0.35,1.1,0.826,1.445,1.428
			c0.347,0.602,0.52,1.252,0.52,1.949c0,0.701-0.174,1.357-0.522,1.969c-0.349,0.609-0.823,1.088-1.425,1.432
			s-1.266,0.516-1.99,0.516c-1.066,0-1.977-0.379-2.73-1.139c-0.754-0.758-1.131-1.68-1.131-2.764c0-1.162,0.426-2.131,1.277-2.906
			C116.06,18.107,116.919,17.77,117.89,17.77z M117.92,19.527c-0.579,0-1.063,0.201-1.448,0.604
			c-0.386,0.404-0.578,0.92-0.578,1.549c0,0.648,0.189,1.172,0.571,1.572c0.381,0.402,0.864,0.602,1.448,0.602
			s1.07-0.203,1.459-0.607c0.388-0.406,0.582-0.928,0.582-1.566c0-0.637-0.191-1.156-0.572-1.555S118.513,19.527,117.92,19.527z"/>
		<path style="fill:#FFFFFF;" d="M136.126,22.221h-5.995c0.087,0.527,0.317,0.949,0.694,1.26c0.375,0.313,0.855,0.469,1.438,0.469
			c0.697,0,1.296-0.244,1.798-0.73l1.572,0.738c-0.393,0.555-0.861,0.967-1.408,1.232c-0.547,0.268-1.196,0.4-1.948,0.4
			c-1.167,0-2.116-0.367-2.851-1.104s-1.101-1.658-1.101-2.766c0-1.135,0.366-2.076,1.097-2.826c0.732-0.75,1.648-1.125,2.752-1.125
			c1.172,0,2.123,0.375,2.857,1.125s1.101,1.74,1.101,2.971L136.126,22.221z M134.26,20.75c-0.123-0.414-0.366-0.752-0.729-1.012
			s-0.783-0.389-1.264-0.389c-0.52,0-0.977,0.145-1.369,0.438c-0.246,0.182-0.475,0.504-0.685,0.963H134.26z"/>
		<path style="fill:#FFFFFF;" d="M143.826,17.961h1.866v7.438h-1.866v-0.785c-0.364,0.346-0.729,0.596-1.096,0.748
			s-0.764,0.229-1.192,0.229c-0.96,0-1.791-0.373-2.492-1.117c-0.7-0.746-1.051-1.672-1.051-2.779c0-1.148,0.34-2.09,1.018-2.822
			c0.678-0.734,1.502-1.102,2.472-1.102c0.446,0,0.864,0.084,1.256,0.254c0.392,0.168,0.753,0.422,1.086,0.758V17.961z
			 M141.864,19.492c-0.576,0-1.057,0.205-1.438,0.611c-0.381,0.408-0.572,0.932-0.572,1.57c0,0.643,0.193,1.17,0.582,1.586
			c0.389,0.414,0.867,0.621,1.435,0.621c0.586,0,1.071-0.203,1.458-0.611c0.386-0.408,0.579-0.941,0.579-1.604
			c0-0.646-0.193-1.17-0.579-1.572C142.942,19.693,142.454,19.492,141.864,19.492z"/>
		<path style="fill:#FFFFFF;" d="M152.831,19l-1.154,1.156c-0.47-0.465-0.896-0.697-1.279-0.697c-0.209,0-0.373,0.043-0.492,0.133
			c-0.118,0.088-0.178,0.199-0.178,0.332c0,0.1,0.038,0.191,0.113,0.275c0.075,0.086,0.261,0.201,0.557,0.346l0.684,0.342
			c0.721,0.355,1.215,0.719,1.484,1.088c0.269,0.369,0.402,0.801,0.402,1.299c0,0.66-0.242,1.211-0.728,1.654
			c-0.485,0.441-1.136,0.662-1.952,0.662c-1.084,0-1.95-0.424-2.598-1.271l1.148-1.25c0.219,0.254,0.476,0.461,0.77,0.617
			c0.294,0.158,0.555,0.236,0.783,0.236c0.246,0,0.443-0.059,0.594-0.178c0.15-0.117,0.227-0.254,0.227-0.41
			c0-0.287-0.271-0.566-0.814-0.84l-0.629-0.314c-1.203-0.607-1.805-1.365-1.805-2.277c0-0.588,0.227-1.09,0.681-1.508
			c0.454-0.416,1.033-0.625,1.739-0.625c0.483,0,0.938,0.105,1.364,0.318C152.175,18.299,152.535,18.604,152.831,19z"/>
		<path style="fill:#FFFFFF;" d="M154.313,17.961h1.906l1.932,4.668l2.133-4.668h1.912l-4.658,10.158h-1.928l1.529-3.275
			L154.313,17.961z"/>
		<path style="fill:#FFFFFF;" d="M164.978,23.451c0.297,0,0.549,0.104,0.759,0.311s0.314,0.459,0.314,0.756
			c0,0.295-0.104,0.549-0.314,0.758c-0.21,0.211-0.462,0.314-0.759,0.314s-0.549-0.104-0.759-0.314
			c-0.21-0.209-0.314-0.463-0.314-0.758c0-0.297,0.104-0.549,0.314-0.756S164.681,23.451,164.978,23.451z"/>
	</g>
</g>
</svg>
