<?xml version="1.0" encoding="iso-8859-1"?>
<!-- Generator: Adobe Illustrator 16.0.0, SVG Export Plug-In . SVG Version: 6.00 Build 0)  -->
<!DOCTYPE svg PUBLIC "-//W3C//DTD SVG 1.1//EN" "http://www.w3.org/Graphics/SVG/1.1/DTD/svg11.dtd">
<svg version="1.1" id="&#x5716;&#x5C64;_1" xmlns="http://www.w3.org/2000/svg" xmlns:xlink="http://www.w3.org/1999/xlink" x="0px"
	 y="0px" width="200px" height="200px" viewBox="0 0 200 200" style="enable-background:new 0 0 200 200;" xml:space="preserve">
<g>
	<g>
		<rect style="fill:#E8C41D;" width="200" height="200"/>
	</g>
	<g>
		<path style="fill:none;stroke:#2C50A2;stroke-width:3;stroke-miterlimit:10;" d="M155.438,76.746v-0.059H44.563v0.059l0,0
			c-12.843,0-23.254,10.41-23.254,23.254c0,12.842,10.411,23.254,23.254,23.254l0,0v0.057h110.875v-0.057
			c12.842,0,23.254-10.412,23.254-23.254C178.691,87.156,168.279,76.746,155.438,76.746z"/>
		<g>
			<path style="fill:#2C50A2;" d="M51.945,90.266c2.623,0,4.877,0.949,6.766,2.848c1.887,1.898,2.83,4.213,2.83,6.943
				c0,2.705-0.931,4.994-2.793,6.867s-4.121,2.811-6.777,2.811c-2.783,0-5.094-0.963-6.935-2.887s-2.762-4.209-2.762-6.854
				c0-1.773,0.429-3.402,1.286-4.891c0.857-1.486,2.036-2.664,3.537-3.533C48.598,90.699,50.214,90.266,51.945,90.266z
				 M51.908,93.719c-1.717,0-3.158,0.596-4.326,1.789c-1.17,1.193-1.754,2.709-1.754,4.549c0,2.049,0.735,3.67,2.207,4.863
				c1.144,0.934,2.455,1.398,3.936,1.398c1.674,0,3.099-0.604,4.275-1.814c1.178-1.209,1.768-2.701,1.768-4.473
				c0-1.764-0.594-3.258-1.779-4.48S53.605,93.719,51.908,93.719z"/>
			<path style="fill:#2C50A2;" d="M64.478,95.559h3.478v6.602c0,1.285,0.088,2.178,0.266,2.678c0.176,0.5,0.461,0.889,0.853,1.166
				s0.874,0.416,1.446,0.416s1.059-0.137,1.459-0.41c0.4-0.271,0.697-0.674,0.891-1.203c0.144-0.395,0.215-1.238,0.215-2.533v-6.715
				h3.439v5.809c0,2.395-0.188,4.031-0.566,4.914c-0.462,1.076-1.143,1.9-2.041,2.477c-0.899,0.574-2.042,0.863-3.428,0.863
				c-1.504,0-2.72-0.336-3.648-1.008c-0.928-0.674-1.581-1.609-1.959-2.811c-0.27-0.832-0.403-2.344-0.403-4.537V95.559z"/>
			<path style="fill:#2C50A2;" d="M79.17,95.559h2.949v1.725c0.319-0.68,0.743-1.195,1.272-1.549s1.108-0.529,1.739-0.529
				c0.445,0,0.911,0.117,1.398,0.354l-1.071,2.961c-0.403-0.203-0.735-0.303-0.995-0.303c-0.529,0-0.977,0.328-1.342,0.982
				c-0.365,0.656-0.549,1.941-0.549,3.855l0.013,0.668v5.545H79.17V95.559z"/>
			<path style="fill:#2C50A2;" d="M95.867,90.504h3.439v5.055h2.041v2.961h-2.041v10.748h-3.439V98.52h-1.765v-2.961h1.765V90.504z"
				/>
			<path style="fill:#2C50A2;" d="M116.924,103.408h-11.052c0.159,0.975,0.586,1.75,1.279,2.324
				c0.692,0.576,1.577,0.863,2.652,0.863c1.285,0,2.39-0.449,3.313-1.348l2.898,1.361c-0.723,1.025-1.588,1.783-2.596,2.273
				c-1.008,0.492-2.205,0.738-3.591,0.738c-2.151,0-3.902-0.68-5.255-2.035c-1.353-1.357-2.029-3.057-2.029-5.098
				c0-2.092,0.675-3.828,2.023-5.211c1.348-1.381,3.039-2.072,5.071-2.072c2.159,0,3.915,0.691,5.268,2.072
				c1.353,1.383,2.028,3.207,2.028,5.477L116.924,103.408z M113.483,100.699c-0.228-0.766-0.676-1.387-1.345-1.865
				s-1.445-0.719-2.328-0.719c-0.959,0-1.801,0.27-2.525,0.807c-0.454,0.336-0.875,0.928-1.262,1.777H113.483z"/>
			<path style="fill:#2C50A2;" d="M129.827,95.559h3.44v13.709h-3.44v-1.449c-0.672,0.639-1.345,1.1-2.021,1.381
				s-1.407,0.422-2.196,0.422c-1.771,0-3.302-0.688-4.594-2.061s-1.938-3.082-1.938-5.123c0-2.117,0.625-3.852,1.875-5.203
				c1.251-1.354,2.77-2.029,4.557-2.029c0.822,0,1.594,0.154,2.315,0.467c0.722,0.311,1.39,0.775,2.002,1.398V95.559z
				 M126.211,98.381c-1.064,0-1.947,0.375-2.65,1.127s-1.055,1.717-1.055,2.893c0,1.184,0.357,2.158,1.074,2.924
				c0.715,0.764,1.596,1.146,2.643,1.146c1.08,0,1.977-0.377,2.688-1.129c0.713-0.752,1.068-1.736,1.068-2.955
				c0-1.191-0.355-2.158-1.068-2.898C128.199,98.75,127.299,98.381,126.211,98.381z"/>
			<path style="fill:#2C50A2;" d="M136.72,95.559h3.44v1.574c0.588-0.646,1.242-1.129,1.961-1.449
				c0.719-0.318,1.502-0.479,2.352-0.479c0.857,0,1.631,0.209,2.32,0.629c0.689,0.422,1.244,1.035,1.664,1.84
				c0.547-0.805,1.217-1.418,2.012-1.84c0.794-0.42,1.662-0.629,2.604-0.629c0.976,0,1.833,0.227,2.572,0.68
				c0.74,0.455,1.271,1.047,1.596,1.777s0.485,1.92,0.485,3.566v8.039h-3.465v-6.955c0-1.555-0.193-2.607-0.58-3.156
				c-0.386-0.551-0.966-0.826-1.739-0.826c-0.588,0-1.115,0.168-1.581,0.504s-0.813,0.801-1.04,1.393
				c-0.227,0.592-0.34,1.543-0.34,2.854v6.188h-3.465v-6.641c0-1.227-0.091-2.115-0.271-2.666c-0.182-0.549-0.453-0.959-0.815-1.229
				c-0.362-0.268-0.8-0.402-1.313-0.402c-0.572,0-1.093,0.17-1.56,0.51c-0.468,0.34-0.817,0.818-1.049,1.432
				c-0.231,0.611-0.347,1.578-0.347,2.896v6.1h-3.44V95.559z"/>
		</g>
	</g>
</g>
</svg>
