<?xml version="1.0" encoding="iso-8859-1"?>
<!-- Generator: Adobe Illustrator 16.0.0, SVG Export Plug-In . SVG Version: 6.00 Build 0)  -->
<!DOCTYPE svg PUBLIC "-//W3C//DTD SVG 1.1//EN" "http://www.w3.org/Graphics/SVG/1.1/DTD/svg11.dtd">
<svg version="1.1" id="&#x5716;&#x5C64;_1" xmlns="http://www.w3.org/2000/svg" xmlns:xlink="http://www.w3.org/1999/xlink" x="0px"
	 y="0px" width="85px" height="33px" viewBox="0 0 85 33" style="enable-background:new 0 0 85 33;" xml:space="preserve">
<g>
	<path style="fill:#2C50A2;stroke:#4B67B0;stroke-miterlimit:10;" d="M68.5,0.5h-52c-8.837,0-16,7.164-16,16c0,8.836,7.163,16,16,16
		h52v0c8.837,0,16-7.163,16-16C84.5,7.664,77.337,0.5,68.5,0.5z"/>
	<g>
		<path style="fill:#FFFFFF;" d="M24.728,11.478l-1.418,1.251c-0.497-0.693-1.004-1.039-1.52-1.039
			c-0.252,0-0.457,0.067-0.617,0.202c-0.159,0.134-0.239,0.286-0.239,0.455s0.057,0.328,0.171,0.479
			c0.155,0.201,0.623,0.631,1.404,1.292c0.73,0.611,1.173,0.996,1.328,1.155c0.388,0.392,0.663,0.767,0.825,1.125
			s0.243,0.749,0.243,1.172c0,0.825-0.285,1.506-0.855,2.044s-1.313,0.807-2.23,0.807c-0.717,0-1.341-0.175-1.872-0.526
			s-0.986-0.902-1.365-1.654l1.609-0.971c0.483,0.889,1.04,1.333,1.67,1.333c0.329,0,0.604-0.096,0.828-0.287
			s0.336-0.413,0.336-0.663c0-0.228-0.085-0.456-0.253-0.684c-0.169-0.228-0.541-0.577-1.116-1.046
			c-1.096-0.893-1.804-1.583-2.123-2.068s-0.479-0.97-0.479-1.453c0-0.697,0.266-1.295,0.797-1.794
			c0.532-0.499,1.188-0.749,1.968-0.749c0.502,0,0.98,0.116,1.435,0.349C23.706,10.438,24.198,10.862,24.728,11.478z"/>
		<path style="fill:#FFFFFF;" d="M27.254,9.666c0.327,0,0.607,0.119,0.841,0.355c0.234,0.237,0.352,0.524,0.352,0.861
			c0,0.333-0.116,0.616-0.348,0.851s-0.509,0.352-0.831,0.352c-0.332,0-0.615-0.12-0.85-0.359c-0.233-0.239-0.351-0.53-0.351-0.872
			c0-0.328,0.116-0.608,0.348-0.841S26.926,9.666,27.254,9.666z M26.32,12.729h1.866v7.438H26.32V12.729z"/>
		<path style="fill:#FFFFFF;" d="M35.378,12.729h1.859V19.1c0,1.258-0.253,2.183-0.759,2.775c-0.679,0.802-1.702,1.203-3.069,1.203
			c-0.729,0-1.342-0.091-1.839-0.273s-0.916-0.45-1.258-0.803s-0.595-0.783-0.759-1.289h2.058c0.183,0.209,0.417,0.368,0.704,0.475
			s0.627,0.161,1.019,0.161c0.501,0,0.904-0.078,1.21-0.232s0.521-0.355,0.646-0.602c0.125-0.246,0.188-0.67,0.188-1.271
			c-0.328,0.328-0.672,0.564-1.032,0.708s-0.768,0.215-1.224,0.215c-0.998,0-1.841-0.36-2.529-1.08s-1.032-1.631-1.032-2.734
			c0-1.18,0.364-2.128,1.094-2.844c0.661-0.647,1.449-0.971,2.365-0.971c0.429,0,0.833,0.079,1.214,0.236
			c0.38,0.157,0.762,0.416,1.145,0.776V12.729z M33.443,14.28c-0.588,0-1.073,0.197-1.456,0.591s-0.574,0.89-0.574,1.487
			c0,0.62,0.196,1.128,0.588,1.524s0.884,0.595,1.477,0.595c0.579,0,1.057-0.194,1.432-0.581c0.377-0.387,0.564-0.896,0.564-1.524
			c0-0.62-0.189-1.124-0.567-1.511S34.04,14.28,33.443,14.28z"/>
		<path style="fill:#FFFFFF;" d="M39.124,12.729h1.866v0.762c0.423-0.357,0.807-0.605,1.15-0.744
			c0.343-0.14,0.695-0.209,1.055-0.209c0.737,0,1.362,0.257,1.877,0.772c0.433,0.438,0.648,1.084,0.648,1.941v4.915h-1.846v-3.257
			c0-0.888-0.04-1.477-0.119-1.769c-0.08-0.292-0.219-0.513-0.416-0.666c-0.198-0.153-0.442-0.229-0.733-0.229
			c-0.377,0-0.701,0.126-0.972,0.379c-0.271,0.253-0.458,0.602-0.563,1.048c-0.055,0.232-0.082,0.735-0.082,1.509v2.984h-1.866
			V12.729z"/>
		<path style="fill:#FFFFFF;" d="M51.436,12.729h1.887v3.582c0,0.697,0.048,1.182,0.144,1.453c0.097,0.271,0.25,0.482,0.463,0.632
			c0.212,0.15,0.474,0.226,0.785,0.226c0.311,0,0.574-0.074,0.791-0.222s0.378-0.366,0.483-0.653
			c0.077-0.214,0.116-0.672,0.116-1.374v-3.644h1.866v3.151c0,1.299-0.103,2.188-0.308,2.666c-0.251,0.583-0.62,1.031-1.107,1.343
			s-1.107,0.468-1.859,0.468c-0.815,0-1.476-0.182-1.979-0.547c-0.504-0.365-0.858-0.873-1.063-1.524
			c-0.146-0.451-0.219-1.271-0.219-2.461V12.729z"/>
		<path style="fill:#FFFFFF;" d="M61.696,12.729v0.82c0.337-0.337,0.702-0.59,1.094-0.759s0.812-0.253,1.258-0.253
			c0.971,0,1.796,0.367,2.475,1.101s1.019,1.675,1.019,2.823c0,1.107-0.351,2.034-1.053,2.779s-1.533,1.118-2.495,1.118
			c-0.429,0-0.827-0.076-1.196-0.229s-0.736-0.402-1.101-0.749v3.507h-1.853V12.729H61.696z M63.658,14.26
			c-0.588,0-1.075,0.201-1.463,0.602s-0.581,0.925-0.581,1.572c0,0.661,0.193,1.195,0.581,1.603s0.875,0.612,1.463,0.612
			c0.569,0,1.049-0.208,1.439-0.622c0.389-0.415,0.584-0.943,0.584-1.586c0-0.638-0.191-1.161-0.574-1.569
			S64.241,14.26,63.658,14.26z"/>
	</g>
</g>
</svg>
