<?xml version="1.0" encoding="iso-8859-1"?>
<!-- Generator: Adobe Illustrator 16.0.0, SVG Export Plug-In . SVG Version: 6.00 Build 0)  -->
<!DOCTYPE svg PUBLIC "-//W3C//DTD SVG 1.1//EN" "http://www.w3.org/Graphics/SVG/1.1/DTD/svg11.dtd">
<svg version="1.1" id="&#x5716;&#x5C64;_1" xmlns="http://www.w3.org/2000/svg" xmlns:xlink="http://www.w3.org/1999/xlink" x="0px"
	 y="0px" width="54px" height="54px" viewBox="0 0 54 54" style="enable-background:new 0 0 54 54;" xml:space="preserve">
<g>
	<circle style="fill:#FFFFFF;stroke:#036EB8;stroke-width:2;stroke-miterlimit:10;" cx="27" cy="27" r="26"/>
	<g>
		<path style="opacity:0.5;fill:#036EB8;" d="M25.88,40.371H11.646c0-6.833,3.189-12.367,7.12-12.367S25.88,33.538,25.88,40.371z"/>
		<path style="opacity:0.5;fill:#036EB8;" d="M42.354,40.371H28.119c0-6.833,3.186-12.367,7.12-12.367
			C39.166,28.004,42.354,33.538,42.354,40.371z"/>
		<path style="fill:#036EB8;" d="M35.301,40.371H18.699c0-8.457,3.717-15.309,8.303-15.309
			C31.585,25.063,35.301,31.914,35.301,40.371z"/>
		<ellipse style="opacity:0.5;fill:#036EB8;" cx="18.731" cy="22.324" rx="5.694" ry="4.72"/>
		<ellipse style="opacity:0.5;fill:#036EB8;" cx="35.269" cy="22.324" rx="5.694" ry="4.72"/>
		<path style="fill:#036EB8;" d="M32.664,18.35c0,2.607-2.551,4.72-5.693,4.72c-3.146,0-5.695-2.112-5.695-4.72
			c0-2.604,2.55-4.721,5.695-4.721C30.113,13.629,32.664,15.746,32.664,18.35z"/>
	</g>
</g>
</svg>
