<?xml version="1.0" encoding="iso-8859-1"?>
<!-- Generator: Adobe Illustrator 16.0.0, SVG Export Plug-In . SVG Version: 6.00 Build 0)  -->
<!DOCTYPE svg PUBLIC "-//W3C//DTD SVG 1.1//EN" "http://www.w3.org/Graphics/SVG/1.1/DTD/svg11.dtd">
<svg version="1.1" id="&#x5716;&#x5C64;_1" xmlns="http://www.w3.org/2000/svg" xmlns:xlink="http://www.w3.org/1999/xlink" x="0px"
	 y="0px" width="64.795px" height="11.536px" viewBox="0 0 64.795 11.536" style="enable-background:new 0 0 64.795 11.536;"
	 xml:space="preserve">
<g>
	<polygon style="fill:#E8C41D;stroke:#E8C41D;stroke-width:0.75;stroke-miterlimit:10;" points="6.064,0.848 7.689,4.139 
		11.322,4.667 8.693,7.229 9.314,10.85 6.064,9.141 2.816,10.85 3.435,7.229 0.806,4.667 4.439,4.139 	"/>
	<polygon style="fill:#E8C41D;stroke:#E8C41D;stroke-width:0.75;stroke-miterlimit:10;" points="19.232,0.848 20.855,4.139 
		24.49,4.667 21.861,7.229 22.48,10.85 19.232,9.141 15.982,10.85 16.603,7.229 13.974,4.667 17.607,4.139 	"/>
	<polygon style="fill:#E8C41D;stroke:#E8C41D;stroke-width:0.75;stroke-miterlimit:10;" points="32.398,0.848 34.023,4.139 
		37.656,4.667 35.027,7.229 35.648,10.85 32.398,9.141 29.15,10.85 29.769,7.229 27.14,4.667 30.773,4.139 	"/>
	<polygon style="fill:#E8C41D;stroke:#E8C41D;stroke-width:0.75;stroke-miterlimit:10;" points="45.566,0.848 47.189,4.139 
		50.824,4.667 48.195,7.229 48.814,10.85 45.566,9.141 42.316,10.85 42.937,7.229 40.308,4.667 43.941,4.139 	"/>
	<polygon style="fill:none;stroke:#E8C41D;stroke-width:0.75;stroke-miterlimit:10;" points="58.732,0.848 60.357,4.139 
		63.99,4.667 61.361,7.229 61.982,10.85 58.732,9.141 55.484,10.85 56.103,7.229 53.474,4.667 57.107,4.139 	"/>
</g>
</svg>
