<?xml version="1.0" encoding="iso-8859-1"?>
<!-- Generator: Adobe Illustrator 16.0.0, SVG Export Plug-In . SVG Version: 6.00 Build 0)  -->
<!DOCTYPE svg PUBLIC "-//W3C//DTD SVG 1.1//EN" "http://www.w3.org/Graphics/SVG/1.1/DTD/svg11.dtd">
<svg version="1.1" id="&#x5716;&#x5C64;_1" xmlns="http://www.w3.org/2000/svg" xmlns:xlink="http://www.w3.org/1999/xlink" x="0px"
	 y="0px" width="7.895px" height="10.353px" viewBox="0 0 7.895 10.353" style="enable-background:new 0 0 7.895 10.353;"
	 xml:space="preserve">
<path style="fill:#2C50A2;stroke:#00A0E9;stroke-width:0.25;stroke-miterlimit:10;" d="M3.947,0.125
	c-2.113,0-3.822,1.551-3.822,3.461c0,0.306,0.042,0.6,0.127,0.88H0.248c0.32,1.817,3.699,5.696,3.699,5.696s3.375-3.879,3.695-5.696
	c0.084-0.28,0.127-0.574,0.127-0.88C7.77,1.676,6.057,0.125,3.947,0.125z M5.33,3.915c-0.16,0.558-0.719,0.97-1.383,0.97
	c-0.666,0-1.223-0.412-1.383-0.97C2.529,3.812,2.514,3.701,2.514,3.586c0-0.716,0.643-1.298,1.434-1.298S5.381,2.87,5.381,3.586
	C5.381,3.701,5.365,3.812,5.33,3.915z"/>
</svg>
