<?xml version="1.0" encoding="iso-8859-1"?>
<!-- Generator: Adobe Illustrator 16.0.0, SVG Export Plug-In . SVG Version: 6.00 Build 0)  -->
<!DOCTYPE svg PUBLIC "-//W3C//DTD SVG 1.1//EN" "http://www.w3.org/Graphics/SVG/1.1/DTD/svg11.dtd">
<svg version="1.1" id="&#x5716;&#x5C64;_1" xmlns="http://www.w3.org/2000/svg" xmlns:xlink="http://www.w3.org/1999/xlink" x="0px"
	 y="0px" width="350px" height="50px" viewBox="0 0 350 50" style="enable-background:new 0 0 350 50;" xml:space="preserve">
<g>
	<g>
		<rect style="fill:#E8C41D;" width="350" height="50"/>
	</g>
	<g>
		<path style="fill:#2C50A2;" d="M120.849,17.504h2.912l5.801,15.084h-2.983l-1.18-3.107h-6.155l-1.228,3.107h-2.983L120.849,17.504
			z M122.323,21.504l-2.023,5.178h4.035L122.323,21.504z"/>
		<path style="fill:#2C50A2;" d="M139.708,17.125h2.799v15.463h-2.799v-1.18c-0.546,0.521-1.094,0.895-1.644,1.123
			c-0.549,0.229-1.145,0.344-1.787,0.344c-1.44,0-2.687-0.559-3.738-1.677c-1.051-1.117-1.577-2.507-1.577-4.168
			c0-1.723,0.509-3.134,1.526-4.235c1.018-1.1,2.253-1.65,3.708-1.65c0.669,0,1.297,0.127,1.884,0.379
			c0.587,0.254,1.13,0.633,1.628,1.139V17.125z M136.766,23.729c-0.865,0-1.584,0.306-2.156,0.918
			c-0.572,0.611-0.858,1.396-0.858,2.354c0,0.963,0.291,1.757,0.874,2.379s1.3,0.933,2.151,0.933c0.879,0,1.608-0.306,2.187-0.918
			c0.579-0.611,0.869-1.413,0.869-2.404c0-0.971-0.29-1.757-0.869-2.358S137.651,23.729,136.766,23.729z"/>
		<path style="fill:#2C50A2;" d="M153.572,17.125h2.799v15.463h-2.799v-1.18c-0.546,0.521-1.094,0.895-1.644,1.123
			c-0.549,0.229-1.145,0.344-1.787,0.344c-1.44,0-2.687-0.559-3.738-1.677c-1.051-1.117-1.577-2.507-1.577-4.168
			c0-1.723,0.509-3.134,1.526-4.235c1.018-1.1,2.253-1.65,3.708-1.65c0.669,0,1.297,0.127,1.884,0.379
			c0.587,0.254,1.13,0.633,1.628,1.139V17.125z M150.629,23.729c-0.865,0-1.584,0.306-2.156,0.918
			c-0.572,0.611-0.858,1.396-0.858,2.354c0,0.963,0.291,1.757,0.874,2.379s1.3,0.933,2.151,0.933c0.879,0,1.608-0.306,2.187-0.918
			c0.579-0.611,0.869-1.413,0.869-2.404c0-0.971-0.29-1.757-0.869-2.358S151.515,23.729,150.629,23.729z"/>
		<path style="fill:#2C50A2;" d="M171.291,17.32h2.799v4.111h1.661v2.41h-1.661v8.746h-2.799v-8.746h-1.436v-2.41h1.436V17.32z"/>
		<path style="fill:#2C50A2;" d="M182.488,21.145c1.053,0,2.042,0.264,2.968,0.789c0.926,0.527,1.649,1.241,2.169,2.144
			s0.779,1.876,0.779,2.923c0,1.053-0.262,2.037-0.784,2.953c-0.523,0.916-1.236,1.632-2.138,2.147
			c-0.902,0.517-1.897,0.774-2.984,0.774c-1.6,0-2.965-0.569-4.097-1.707c-1.131-1.139-1.697-2.521-1.697-4.148
			c0-1.742,0.639-3.195,1.917-4.357C179.743,21.65,181.032,21.145,182.488,21.145z M182.534,23.779c-0.87,0-1.594,0.303-2.173,0.908
			c-0.579,0.604-0.868,1.379-0.868,2.322c0,0.971,0.286,1.757,0.857,2.358s1.296,0.902,2.172,0.902s1.606-0.304,2.188-0.913
			c0.582-0.607,0.873-1.391,0.873-2.348s-0.286-1.734-0.857-2.333C184.155,24.079,183.424,23.779,182.534,23.779z"/>
		<path style="fill:#2C50A2;" d="M196.895,17.504h2.902v5.2l4.095-5.2h3.447l-5.267,6.732l5.779,8.352h-3.404l-4.65-6.702v6.702
			h-2.902V17.504z"/>
		<path style="fill:#2C50A2;" d="M217.823,21.432h2.799v11.156h-2.799v-1.18c-0.546,0.521-1.094,0.895-1.644,1.123
			c-0.549,0.229-1.145,0.344-1.787,0.344c-1.44,0-2.687-0.559-3.738-1.677c-1.051-1.117-1.577-2.507-1.577-4.168
			c0-1.723,0.509-3.134,1.526-4.235c1.018-1.1,2.253-1.65,3.708-1.65c0.669,0,1.297,0.127,1.884,0.379
			c0.587,0.254,1.13,0.633,1.628,1.139V21.432z M214.88,23.729c-0.865,0-1.584,0.306-2.156,0.918
			c-0.572,0.611-0.858,1.396-0.858,2.354c0,0.963,0.291,1.757,0.874,2.379s1.3,0.933,2.151,0.933c0.879,0,1.608-0.306,2.187-0.918
			c0.579-0.611,0.869-1.413,0.869-2.404c0-0.971-0.29-1.757-0.869-2.358S215.766,23.729,214.88,23.729z"/>
		<path style="fill:#2C50A2;" d="M222.796,21.432h2.399v1.404c0.26-0.553,0.605-0.974,1.036-1.261s0.902-0.431,1.415-0.431
			c0.362,0,0.742,0.096,1.138,0.287l-0.872,2.41c-0.328-0.164-0.598-0.246-0.81-0.246c-0.431,0-0.795,0.266-1.092,0.799
			c-0.298,0.533-0.446,1.58-0.446,3.139l0.01,0.543v4.512h-2.779V21.432z"/>
		<path style="fill:#2C50A2;" d="M230.507,17.32h2.799v4.111h1.661v2.41h-1.661v8.746h-2.799v-8.746h-1.436v-2.41h1.436V17.32z"/>
	</g>
</g>
</svg>
