<?xml version="1.0" encoding="iso-8859-1"?>
<!-- Generator: Adobe Illustrator 16.0.0, SVG Export Plug-In . SVG Version: 6.00 Build 0)  -->
<!DOCTYPE svg PUBLIC "-//W3C//DTD SVG 1.1//EN" "http://www.w3.org/Graphics/SVG/1.1/DTD/svg11.dtd">
<svg version="1.1" id="&#x5716;&#x5C64;_1" xmlns="http://www.w3.org/2000/svg" xmlns:xlink="http://www.w3.org/1999/xlink" x="0px"
	 y="0px" width="714.68px" height="95.043px" viewBox="0 0 714.68 95.043" style="enable-background:new 0 0 714.68 95.043;"
	 xml:space="preserve">
<g>
	<g>
		<rect x="296.786" y="9.032" style="fill:#2C50A2;" width="3.464" height="0.998"/>
		<rect x="296.271" y="9.032" style="fill:#2E51A2;" width="3.464" height="0.998"/>
		<rect x="295.758" y="9.032" style="fill:#2F51A2;" width="3.464" height="0.998"/>
		<rect x="295.244" y="9.032" style="fill:#3052A2;" width="3.464" height="0.998"/>
		<rect x="294.73" y="9.032" style="fill:#3253A2;" width="3.464" height="0.998"/>
		<rect x="294.217" y="9.032" style="fill:#3353A2;" width="3.464" height="0.998"/>
		<rect x="293.703" y="9.032" style="fill:#3454A2;" width="3.463" height="0.998"/>
		<rect x="293.189" y="9.032" style="fill:#3654A2;" width="3.463" height="0.998"/>
		<rect x="292.676" y="9.032" style="fill:#3755A2;" width="3.463" height="0.998"/>
		<rect x="292.162" y="9.032" style="fill:#3856A2;" width="3.463" height="0.998"/>
		<rect x="291.648" y="9.032" style="fill:#3956A2;" width="3.463" height="0.998"/>
		<rect x="291.134" y="9.032" style="fill:#3A57A2;" width="3.464" height="0.998"/>
		<rect x="290.62" y="9.032" style="fill:#3C57A2;" width="3.464" height="0.998"/>
		<rect x="290.105" y="9.032" style="fill:#3D58A2;" width="3.465" height="0.998"/>
		<rect x="289.592" y="9.032" style="fill:#3E59A2;" width="3.465" height="0.998"/>
		<rect x="289.078" y="9.032" style="fill:#3F59A2;" width="3.465" height="0.998"/>
		<rect x="288.564" y="9.032" style="fill:#405AA2;" width="3.464" height="0.998"/>
		<rect x="288.051" y="9.032" style="fill:#415AA2;" width="3.464" height="0.998"/>
		<rect x="287.537" y="9.032" style="fill:#425BA2;" width="3.464" height="0.998"/>
		<rect x="287.023" y="9.032" style="fill:#445CA2;" width="3.464" height="0.998"/>
		<rect x="286.51" y="9.032" style="fill:#455CA2;" width="3.464" height="0.998"/>
		<rect x="285.996" y="9.032" style="fill:#465DA2;" width="3.463" height="0.998"/>
		<rect x="285.481" y="9.032" style="fill:#475DA2;" width="3.464" height="0.998"/>
		<rect x="284.969" y="9.032" style="fill:#485EA2;" width="3.463" height="0.998"/>
		<rect x="284.454" y="9.032" style="fill:#495FA2;" width="3.464" height="0.998"/>
		<rect x="283.941" y="9.032" style="fill:#4B5FA2;" width="3.463" height="0.998"/>
		<rect x="283.426" y="9.032" style="fill:#4C60A2;" width="3.465" height="0.998"/>
		<rect x="282.913" y="9.032" style="fill:#4D61A2;" width="3.464" height="0.998"/>
		<rect x="282.398" y="9.032" style="fill:#4E61A2;" width="3.465" height="0.998"/>
		<rect x="281.885" y="9.032" style="fill:#4F62A2;" width="3.465" height="0.998"/>
		<rect x="281.371" y="9.032" style="fill:#5062A2;" width="3.465" height="0.998"/>
		<rect x="280.857" y="9.032" style="fill:#5163A2;" width="3.464" height="0.998"/>
		<rect x="280.344" y="9.032" style="fill:#5264A2;" width="3.464" height="0.998"/>
		<rect x="279.83" y="9.032" style="fill:#5364A2;" width="3.463" height="0.998"/>
		<rect x="279.316" y="9.032" style="fill:#5565A2;" width="3.464" height="0.998"/>
		<rect x="278.803" y="9.032" style="fill:#5666A2;" width="3.463" height="0.998"/>
		<rect x="278.289" y="9.032" style="fill:#5766A2;" width="3.463" height="0.998"/>
		<rect x="277.775" y="9.032" style="fill:#5867A2;" width="3.463" height="0.998"/>
		<rect x="277.261" y="9.032" style="fill:#5968A2;" width="3.464" height="0.998"/>
		<rect x="276.747" y="9.032" style="fill:#5A68A2;" width="3.464" height="0.998"/>
		<rect x="276.233" y="9.032" style="fill:#5B69A2;" width="3.464" height="0.998"/>
		<rect x="275.719" y="9.032" style="fill:#5C6AA2;" width="3.465" height="0.998"/>
		<rect x="275.205" y="9.032" style="fill:#5D6AA1;" width="3.465" height="0.998"/>
		<rect x="274.691" y="9.032" style="fill:#5E6BA1;" width="3.465" height="0.998"/>
		<rect x="274.178" y="9.032" style="fill:#5F6CA1;" width="3.464" height="0.998"/>
		<rect x="273.664" y="9.032" style="fill:#606CA1;" width="3.464" height="0.998"/>
		<rect x="273.15" y="9.032" style="fill:#616DA1;" width="3.464" height="0.998"/>
		<rect x="272.637" y="9.032" style="fill:#626EA1;" width="3.463" height="0.998"/>
		<rect x="272.123" y="9.032" style="fill:#636EA1;" width="3.464" height="0.998"/>
		<rect x="271.609" y="9.032" style="fill:#646FA1;" width="3.463" height="0.998"/>
		<rect x="271.096" y="9.032" style="fill:#656FA1;" width="3.463" height="0.998"/>
		<rect x="270.582" y="9.032" style="fill:#6670A1;" width="3.463" height="0.998"/>
		<rect x="270.068" y="9.032" style="fill:#6771A1;" width="3.463" height="0.998"/>
		<rect x="269.554" y="9.032" style="fill:#6871A1;" width="3.464" height="0.998"/>
		<rect x="269.04" y="9.032" style="fill:#6972A1;" width="3.464" height="0.998"/>
		<rect x="268.526" y="9.032" style="fill:#6A73A1;" width="3.464" height="0.998"/>
		<rect x="268.012" y="9.032" style="fill:#6B73A0;" width="3.465" height="0.998"/>
		<rect x="267.498" y="9.032" style="fill:#6C74A0;" width="3.465" height="0.998"/>
		<rect x="266.984" y="9.032" style="fill:#6D75A0;" width="3.465" height="0.998"/>
		<rect x="266.471" y="9.032" style="fill:#6E75A0;" width="3.465" height="0.998"/>
		<rect x="265.957" y="9.032" style="fill:#6F76A0;" width="3.464" height="0.998"/>
		<rect x="265.443" y="9.032" style="fill:#7077A0;" width="3.464" height="0.998"/>
		<rect x="264.93" y="9.032" style="fill:#7177A0;" width="3.463" height="0.998"/>
		<rect x="264.416" y="9.032" style="fill:#7278A0;" width="3.463" height="0.998"/>
		<rect x="263.902" y="9.032" style="fill:#7379A0;" width="3.463" height="0.998"/>
		<rect x="263.389" y="9.032" style="fill:#73799F;" width="3.463" height="0.998"/>
		<rect x="262.875" y="9.032" style="fill:#747A9F;" width="3.463" height="0.998"/>
		<rect x="262.361" y="9.032" style="fill:#757B9F;" width="3.463" height="0.998"/>
		<rect x="261.847" y="9.032" style="fill:#767B9F;" width="3.464" height="0.998"/>
		<rect x="261.333" y="9.032" style="fill:#777C9F;" width="3.464" height="0.998"/>
		<rect x="260.818" y="9.032" style="fill:#787D9F;" width="3.465" height="0.998"/>
		<rect x="260.305" y="9.032" style="fill:#797D9F;" width="3.465" height="0.998"/>
		<rect x="259.791" y="9.032" style="fill:#7A7E9F;" width="3.465" height="0.998"/>
		<rect x="259.277" y="9.032" style="fill:#7B7F9E;" width="3.465" height="0.998"/>
		<rect x="258.764" y="9.032" style="fill:#7C7F9E;" width="3.464" height="0.998"/>
		<rect x="258.25" y="9.032" style="fill:#7D809E;" width="3.464" height="0.998"/>
		<rect x="257.736" y="9.032" style="fill:#7E819E;" width="3.464" height="0.998"/>
		<rect x="257.223" y="9.032" style="fill:#7F819E;" width="3.464" height="0.998"/>
		<rect x="256.709" y="9.032" style="fill:#80829E;" width="3.463" height="0.998"/>
		<rect x="256.195" y="9.032" style="fill:#81839E;" width="3.463" height="0.998"/>
		<rect x="255.682" y="9.032" style="fill:#82839D;" width="3.463" height="0.998"/>
		<rect x="255.167" y="9.032" style="fill:#83849D;" width="3.464" height="0.998"/>
		<rect x="254.653" y="9.032" style="fill:#84859D;" width="3.464" height="0.998"/>
		<rect x="254.139" y="9.032" style="fill:#85859D;" width="3.465" height="0.998"/>
		<rect x="253.626" y="9.032" style="fill:#85869D;" width="3.464" height="0.998"/>
		<rect x="253.111" y="9.032" style="fill:#86879D;" width="3.465" height="0.998"/>
		<rect x="252.598" y="9.032" style="fill:#87889C;" width="3.465" height="0.998"/>
		<rect x="252.084" y="9.032" style="fill:#88889C;" width="3.465" height="0.998"/>
		<rect x="251.57" y="9.032" style="fill:#89899C;" width="3.465" height="0.998"/>
		<rect x="251.057" y="9.032" style="fill:#8A8A9C;" width="3.464" height="0.998"/>
		<rect x="250.543" y="9.032" style="fill:#8B8A9C;" width="3.464" height="0.998"/>
		<rect x="250.029" y="9.032" style="fill:#8C8B9C;" width="3.464" height="0.998"/>
		<rect x="249.516" y="9.032" style="fill:#8D8C9B;" width="3.463" height="0.998"/>
		<rect x="249.002" y="9.032" style="fill:#8E8C9B;" width="3.463" height="0.998"/>
		<rect x="248.488" y="9.032" style="fill:#8F8D9B;" width="3.463" height="0.998"/>
		<rect x="247.975" y="9.032" style="fill:#908E9B;" width="3.463" height="0.998"/>
		<rect x="247.459" y="9.032" style="fill:#918F9B;" width="3.465" height="0.998"/>
		<rect x="246.946" y="9.032" style="fill:#928F9A;" width="3.464" height="0.998"/>
		<rect x="246.432" y="9.032" style="fill:#93909A;" width="3.465" height="0.998"/>
		<rect x="245.918" y="9.032" style="fill:#94919A;" width="3.465" height="0.998"/>
		<rect x="245.404" y="9.032" style="fill:#95919A;" width="3.465" height="0.998"/>
		<rect x="244.891" y="9.032" style="fill:#969299;" width="3.465" height="0.998"/>
		<rect x="244.377" y="9.032" style="fill:#979399;" width="3.464" height="0.998"/>
		<rect x="243.863" y="9.032" style="fill:#989499;" width="3.465" height="0.998"/>
		<rect x="243.35" y="9.032" style="fill:#989499;" width="3.465" height="0.998"/>
		<rect x="242.836" y="9.032" style="fill:#999598;" width="3.464" height="0.998"/>
		<rect x="242.322" y="9.032" style="fill:#9A9698;" width="3.464" height="0.998"/>
		<rect x="241.809" y="9.032" style="fill:#9B9698;" width="3.463" height="0.998"/>
		<rect x="241.295" y="9.032" style="fill:#9C9798;" width="3.463" height="0.998"/>
		<rect x="240.78" y="9.032" style="fill:#9D9897;" width="3.464" height="0.998"/>
		<rect x="240.267" y="9.032" style="fill:#9E9997;" width="3.464" height="0.998"/>
		<rect x="239.752" y="9.032" style="fill:#9F9997;" width="3.465" height="0.998"/>
		<rect x="239.239" y="9.032" style="fill:#A09A97;" width="3.464" height="0.998"/>
		<rect x="238.725" y="9.032" style="fill:#A19B96;" width="3.465" height="0.998"/>
		<rect x="238.211" y="9.032" style="fill:#A29B96;" width="3.465" height="0.998"/>
		<rect x="237.697" y="9.032" style="fill:#A39C96;" width="3.465" height="0.998"/>
		<rect x="237.184" y="9.032" style="fill:#A49D95;" width="3.464" height="0.998"/>
		<rect x="236.67" y="9.032" style="fill:#A59E95;" width="3.464" height="0.998"/>
		<rect x="236.156" y="9.032" style="fill:#A69E95;" width="3.464" height="0.998"/>
		<rect x="235.643" y="9.032" style="fill:#A79F95;" width="3.464" height="0.998"/>
		<rect x="235.129" y="9.032" style="fill:#A7A094;" width="3.463" height="0.998"/>
		<rect x="234.615" y="9.032" style="fill:#A8A194;" width="3.463" height="0.998"/>
		<rect x="234.102" y="9.032" style="fill:#A9A194;" width="3.463" height="0.998"/>
		<rect x="233.588" y="9.032" style="fill:#AAA293;" width="3.463" height="0.998"/>
		<rect x="233.074" y="9.032" style="fill:#ABA393;" width="3.463" height="0.998"/>
		<rect x="232.56" y="9.032" style="fill:#ACA393;" width="3.464" height="0.998"/>
		<rect x="232.045" y="9.032" style="fill:#ADA492;" width="3.465" height="0.998"/>
		<rect x="231.531" y="9.032" style="fill:#AEA592;" width="3.465" height="0.998"/>
		<rect x="231.018" y="9.032" style="fill:#AFA692;" width="3.465" height="0.998"/>
		<rect x="230.504" y="9.032" style="fill:#B0A691;" width="3.465" height="0.998"/>
		<rect x="229.99" y="9.032" style="fill:#B0A791;" width="3.465" height="0.998"/>
		<rect x="229.477" y="9.032" style="fill:#B1A891;" width="3.464" height="0.998"/>
		<rect x="228.963" y="9.032" style="fill:#B2A890;" width="3.465" height="0.998"/>
		<rect x="228.449" y="9.032" style="fill:#B3A990;" width="3.464" height="0.998"/>
		<rect x="227.936" y="9.032" style="fill:#B4AA90;" width="3.464" height="0.998"/>
		<rect x="227.422" y="9.032" style="fill:#B5AB8F;" width="3.463" height="0.998"/>
		<rect x="226.908" y="9.032" style="fill:#B6AB8F;" width="3.463" height="0.998"/>
		<rect x="226.395" y="9.032" style="fill:#B7AC8F;" width="3.463" height="0.998"/>
		<rect x="225.88" y="9.032" style="fill:#B8AD8E;" width="3.464" height="0.998"/>
		<rect x="225.367" y="9.032" style="fill:#B9AE8E;" width="3.463" height="0.998"/>
		<rect x="224.852" y="9.032" style="fill:#B9AE8D;" width="3.465" height="0.998"/>
		<rect x="224.339" y="9.032" style="fill:#BAAF8D;" width="3.464" height="0.998"/>
		<rect x="223.824" y="9.032" style="fill:#BBB08D;" width="3.465" height="0.998"/>
		<rect x="223.311" y="9.032" style="fill:#BCB08C;" width="3.465" height="0.998"/>
		<rect x="222.625" y="9.032" style="fill:#BDB18C;" width="3.463" height="0.998"/>
		<rect x="221.938" y="9.032" style="fill:#BDB18B;" width="3.465" height="0.998"/>
		<rect x="221.251" y="9.032" style="fill:#BDB28A;" width="3.464" height="0.998"/>
		<rect x="220.564" y="9.032" style="fill:#BEB28A;" width="3.463" height="0.998"/>
		<rect x="219.878" y="9.032" style="fill:#BEB289;" width="3.464" height="0.998"/>
		<rect x="219.191" y="9.032" style="fill:#BFB389;" width="3.463" height="0.998"/>
		<rect x="218.504" y="9.032" style="fill:#BFB388;" width="3.465" height="0.998"/>
		<rect x="217.818" y="9.032" style="fill:#BFB387;" width="3.463" height="0.998"/>
		<rect x="217.131" y="9.032" style="fill:#C0B487;" width="3.464" height="0.998"/>
		<rect x="216.444" y="9.032" style="fill:#C0B486;" width="3.464" height="0.998"/>
		<rect x="215.758" y="9.032" style="fill:#C1B585;" width="3.464" height="0.998"/>
		<rect x="215.07" y="9.032" style="fill:#C1B585;" width="3.465" height="0.998"/>
		<rect x="214.385" y="9.032" style="fill:#C1B584;" width="3.463" height="0.998"/>
		<rect x="213.697" y="9.032" style="fill:#C2B683;" width="3.465" height="0.998"/>
		<rect x="213.011" y="9.032" style="fill:#C2B683;" width="3.464" height="0.998"/>
		<rect x="212.324" y="9.032" style="fill:#C3B782;" width="3.464" height="0.998"/>
		<rect x="211.638" y="9.032" style="fill:#C3B781;" width="3.464" height="0.998"/>
		<rect x="210.951" y="9.032" style="fill:#C3B781;" width="3.463" height="0.998"/>
		<rect x="210.264" y="9.032" style="fill:#C4B880;" width="3.465" height="0.998"/>
		<rect x="209.578" y="9.032" style="fill:#C4B880;" width="3.463" height="0.998"/>
		<rect x="208.891" y="9.032" style="fill:#C5B87F;" width="3.464" height="0.998"/>
		<rect x="208.204" y="9.032" style="fill:#C5B97E;" width="3.464" height="0.998"/>
		<rect x="207.518" y="9.032" style="fill:#C6B97D;" width="3.464" height="0.998"/>
		<rect x="206.83" y="9.032" style="fill:#C6BA7D;" width="3.465" height="0.998"/>
		<rect x="206.145" y="9.032" style="fill:#C6BA7C;" width="3.463" height="0.998"/>
		<rect x="205.457" y="9.032" style="fill:#C7BA7B;" width="3.465" height="0.998"/>
		<rect x="204.771" y="9.032" style="fill:#C7BB7B;" width="3.464" height="0.998"/>
		<rect x="204.084" y="9.032" style="fill:#C8BB7A;" width="3.465" height="0.998"/>
		<rect x="203.397" y="9.032" style="fill:#C8BB79;" width="3.464" height="0.998"/>
		<rect x="202.711" y="9.032" style="fill:#C8BC79;" width="3.464" height="0.998"/>
		<rect x="202.023" y="9.032" style="fill:#C9BC78;" width="3.465" height="0.998"/>
		<rect x="201.338" y="9.032" style="fill:#C9BD77;" width="3.463" height="0.998"/>
		<rect x="200.65" y="9.032" style="fill:#CABD76;" width="3.465" height="0.998"/>
		<rect x="199.964" y="9.032" style="fill:#CABD76;" width="3.464" height="0.998"/>
		<rect x="199.277" y="9.032" style="fill:#CBBE75;" width="3.464" height="0.998"/>
		<rect x="198.591" y="9.032" style="fill:#CBBE74;" width="3.464" height="0.998"/>
		<rect x="197.904" y="9.032" style="fill:#CBBF73;" width="3.463" height="0.998"/>
		<rect x="197.217" y="9.032" style="fill:#CCBF73;" width="3.465" height="0.998"/>
		<rect x="196.531" y="9.032" style="fill:#CCBF72;" width="3.463" height="0.998"/>
		<rect x="195.844" y="9.032" style="fill:#CDC071;" width="3.464" height="0.998"/>
		<rect x="195.157" y="9.032" style="fill:#CDC070;" width="3.464" height="0.998"/>
		<rect x="194.471" y="9.032" style="fill:#CDC06F;" width="3.464" height="0.998"/>
		<rect x="193.783" y="9.032" style="fill:#CEC16F;" width="3.465" height="0.998"/>
		<rect x="193.098" y="9.032" style="fill:#CEC16E;" width="3.464" height="0.998"/>
		<rect x="192.41" y="9.032" style="fill:#CEC26D;" width="3.465" height="0.998"/>
		<rect x="191.724" y="9.032" style="fill:#CFC26C;" width="3.464" height="0.998"/>
		<rect x="191.037" y="9.032" style="fill:#CFC26B;" width="3.465" height="0.998"/>
		<rect x="190.351" y="9.032" style="fill:#D0C36B;" width="3.464" height="0.998"/>
		<rect x="189.664" y="9.032" style="fill:#D0C36A;" width="3.463" height="0.998"/>
		<rect x="188.977" y="9.032" style="fill:#D1C369;" width="3.465" height="0.998"/>
		<rect x="188.291" y="9.032" style="fill:#D1C468;" width="3.463" height="0.998"/>
		<rect x="187.604" y="9.032" style="fill:#D1C467;" width="3.464" height="0.998"/>
		<rect x="186.917" y="9.032" style="fill:#D2C566;" width="3.464" height="0.998"/>
		<rect x="186.23" y="9.032" style="fill:#D2C566;" width="3.464" height="0.998"/>
		<rect x="185.544" y="9.032" style="fill:#D3C565;" width="3.464" height="0.998"/>
		<rect x="184.857" y="9.032" style="fill:#D3C664;" width="3.463" height="0.998"/>
		<rect x="184.17" y="9.032" style="fill:#D3C663;" width="3.465" height="0.998"/>
		<rect x="183.484" y="9.032" style="fill:#D4C762;" width="3.463" height="0.998"/>
		<rect x="182.797" y="9.032" style="fill:#D4C761;" width="3.464" height="0.998"/>
		<rect x="182.11" y="9.032" style="fill:#D5C760;" width="3.464" height="0.998"/>
		<rect x="181.424" y="9.032" style="fill:#D5C85F;" width="3.464" height="0.998"/>
		<rect x="180.736" y="9.032" style="fill:#D5C85E;" width="3.465" height="0.998"/>
		<rect x="180.051" y="9.032" style="fill:#D6C85D;" width="3.463" height="0.998"/>
		<rect x="179.363" y="9.032" style="fill:#D6C95D;" width="3.465" height="0.998"/>
		<rect x="178.677" y="9.032" style="fill:#D7C95C;" width="3.464" height="0.998"/>
		<rect x="177.99" y="9.032" style="fill:#D7CA5B;" width="3.465" height="0.998"/>
		<rect x="177.304" y="9.032" style="fill:#D7CA5A;" width="3.464" height="0.998"/>
		<rect x="176.617" y="9.032" style="fill:#D8CA59;" width="3.463" height="0.998"/>
		<rect x="175.93" y="9.032" style="fill:#D8CB58;" width="3.465" height="0.998"/>
		<rect x="175.244" y="9.032" style="fill:#D9CB57;" width="3.463" height="0.998"/>
		<rect x="174.557" y="9.032" style="fill:#D9CB56;" width="3.464" height="0.998"/>
		<rect x="173.87" y="9.032" style="fill:#D9CC55;" width="3.464" height="0.998"/>
		<rect x="173.184" y="9.032" style="fill:#DACC54;" width="3.464" height="0.998"/>
		<rect x="172.496" y="9.032" style="fill:#DACD53;" width="3.465" height="0.998"/>
		<rect x="171.811" y="9.032" style="fill:#DBCD52;" width="3.464" height="0.998"/>
		<rect x="171.123" y="9.032" style="fill:#DBCD51;" width="3.465" height="0.998"/>
		<rect x="170.438" y="9.032" style="fill:#DBCE50;" width="3.463" height="0.998"/>
		<rect x="169.75" y="9.032" style="fill:#DCCE4E;" width="3.464" height="0.998"/>
		<rect x="169.063" y="9.032" style="fill:#DCCF4D;" width="3.464" height="0.998"/>
		<rect x="168.377" y="9.032" style="fill:#DDCF4C;" width="3.464" height="0.998"/>
		<rect x="167.689" y="9.032" style="fill:#DDCF4B;" width="3.465" height="0.998"/>
		<rect x="167.004" y="9.032" style="fill:#DED04A;" width="3.463" height="0.998"/>
		<rect x="166.316" y="9.032" style="fill:#DED049;" width="3.465" height="0.998"/>
		<rect x="165.63" y="9.032" style="fill:#DED148;" width="3.464" height="0.998"/>
		<rect x="164.943" y="9.032" style="fill:#DFD147;" width="3.464" height="0.998"/>
		<rect x="164.256" y="9.032" style="fill:#DFD145;" width="3.465" height="0.998"/>
		<rect x="163.57" y="9.032" style="fill:#E0D244;" width="3.463" height="0.998"/>
		<rect x="162.884" y="9.032" style="fill:#E0D243;" width="3.464" height="0.998"/>
		<rect x="162.197" y="9.032" style="fill:#E1D242;" width="3.463" height="0.998"/>
		<rect x="161.51" y="9.032" style="fill:#E1D340;" width="3.464" height="0.998"/>
		<rect x="160.823" y="9.032" style="fill:#E1D33F;" width="3.464" height="0.998"/>
		<rect x="160.137" y="9.032" style="fill:#E2D43D;" width="3.464" height="0.998"/>
		<rect x="159.449" y="9.032" style="fill:#E2D43C;" width="3.465" height="0.998"/>
		<rect x="158.764" y="9.032" style="fill:#E3D43B;" width="3.463" height="0.998"/>
		<rect x="158.076" y="9.032" style="fill:#E3D539;" width="3.465" height="0.998"/>
		<rect x="157.391" y="9.032" style="fill:#E3D538;" width="3.463" height="0.998"/>
		<rect x="156.703" y="9.032" style="fill:#E4D636;" width="3.465" height="0.998"/>
		<rect x="156.017" y="9.032" style="fill:#E4D634;" width="3.464" height="0.998"/>
		<rect x="155.33" y="9.032" style="fill:#E5D633;" width="3.463" height="0.998"/>
		<rect x="154.643" y="9.032" style="fill:#E5D731;" width="3.465" height="0.998"/>
		<rect x="153.957" y="9.032" style="fill:#E5D72F;" width="3.463" height="0.998"/>
		<rect x="153.27" y="9.032" style="fill:#E6D72D;" width="3.465" height="0.998"/>
		<rect x="152.583" y="9.032" style="fill:#E6D82B;" width="3.464" height="0.998"/>
		<rect x="151.896" y="9.032" style="fill:#E7D829;" width="3.464" height="0.998"/>
		<rect x="151.21" y="9.032" style="fill:#E7D927;" width="3.464" height="0.998"/>
		<rect x="150.523" y="9.032" style="fill:#E7D925;" width="3.463" height="0.998"/>
		<rect x="149.836" y="9.032" style="fill:#E8D923;" width="3.465" height="0.998"/>
	</g>
	<g>
		<path style="fill:#FFFFFF;" d="M361.271,0.953h11.763v4.014h-7.69v3.896h7.69v3.939h-7.69v5.67h7.69V22.5h-11.763V0.953z"/>
		<path style="fill:#FFFFFF;" d="M376.418,6.563h3.999v1.634c0.907-0.765,1.729-1.296,2.465-1.595
			c0.735-0.299,1.489-0.449,2.26-0.449c1.58,0,2.921,0.553,4.022,1.656c0.927,0.938,1.39,2.324,1.39,4.16V22.5h-3.955v-6.979
			c0-1.902-0.085-3.165-0.256-3.789c-0.171-0.625-0.468-1.101-0.892-1.428c-0.424-0.326-0.947-0.49-1.57-0.49
			c-0.809,0-1.503,0.271-2.083,0.813c-0.579,0.541-0.981,1.29-1.205,2.246c-0.117,0.498-0.176,1.575-0.176,3.233V22.5h-3.999V6.563z
			"/>
		<path style="fill:#FFFFFF;" d="M406.198,6.563h3.984v13.652c0,2.695-0.542,4.678-1.626,5.947
			c-1.455,1.719-3.647,2.578-6.577,2.578c-1.563,0-2.876-0.195-3.94-0.586s-1.963-0.964-2.695-1.721s-1.274-1.678-1.626-2.762h4.409
			c0.391,0.449,0.894,0.789,1.509,1.019s1.343,0.345,2.183,0.345c1.074,0,1.938-0.166,2.593-0.498s1.115-0.762,1.385-1.289
			c0.268-0.527,0.402-1.436,0.402-2.725c-0.703,0.703-1.44,1.208-2.212,1.516s-1.646,0.461-2.622,0.461
			c-2.139,0-3.945-0.771-5.42-2.314s-2.212-3.496-2.212-5.859c0-2.529,0.781-4.561,2.344-6.094c1.416-1.387,3.105-2.08,5.068-2.08
			c0.918,0,1.784,0.169,2.601,0.506c0.814,0.337,1.633,0.891,2.453,1.662V6.563z M402.053,9.889c-1.26,0-2.3,0.422-3.12,1.267
			s-1.23,1.907-1.23,3.187c0,1.328,0.42,2.416,1.26,3.266s1.895,1.275,3.164,1.275c1.24,0,2.264-0.416,3.068-1.246
			c0.807-0.83,1.209-1.918,1.209-3.266c0-1.328-0.405-2.408-1.216-3.238S403.332,9.889,402.053,9.889z"/>
		<path style="fill:#FFFFFF;" d="M415.786,0c0.7,0,1.302,0.254,1.804,0.762c0.501,0.508,0.752,1.123,0.752,1.846
			c0,0.713-0.248,1.321-0.745,1.824c-0.496,0.503-1.091,0.754-1.781,0.754c-0.711,0-1.317-0.256-1.819-0.769
			c-0.501-0.513-0.752-1.136-0.752-1.868c0-0.703,0.248-1.303,0.745-1.801C414.485,0.25,415.084,0,415.786,0z M413.786,6.563h3.999
			V22.5h-3.999V6.563z"/>
		<path style="fill:#FFFFFF;" d="M421.418,6.563h3.999v1.634c0.907-0.765,1.729-1.296,2.465-1.595
			c0.735-0.299,1.489-0.449,2.26-0.449c1.58,0,2.921,0.553,4.022,1.656c0.927,0.938,1.39,2.324,1.39,4.16V22.5h-3.955v-6.979
			c0-1.902-0.085-3.165-0.256-3.789c-0.171-0.625-0.468-1.101-0.892-1.428c-0.424-0.326-0.947-0.49-1.57-0.49
			c-0.809,0-1.503,0.271-2.083,0.813c-0.579,0.541-0.981,1.29-1.205,2.246c-0.117,0.498-0.176,1.575-0.176,3.233V22.5h-3.999V6.563z
			"/>
		<path style="fill:#FFFFFF;" d="M455.388,15.689h-12.847c0.186,1.133,0.681,2.033,1.487,2.702c0.805,0.669,1.833,1.003,3.083,1.003
			c1.494,0,2.778-0.521,3.853-1.566l3.369,1.582c-0.84,1.191-1.846,2.072-3.018,2.644s-2.563,0.856-4.175,0.856
			c-2.5,0-4.536-0.788-6.108-2.365s-2.358-3.553-2.358-5.926c0-2.432,0.784-4.45,2.351-6.057c1.568-1.606,3.533-2.41,5.896-2.41
			c2.51,0,4.551,0.804,6.123,2.41s2.358,3.729,2.358,6.365L455.388,15.689z M451.389,12.539c-0.264-0.889-0.785-1.611-1.563-2.168
			c-0.778-0.557-1.681-0.834-2.708-0.834c-1.114,0-2.093,0.313-2.934,0.938c-0.528,0.391-1.018,1.078-1.468,2.064H451.389z"/>
		<path style="fill:#FFFFFF;" d="M474.592,15.689h-12.847c0.186,1.133,0.681,2.033,1.487,2.702c0.805,0.669,1.833,1.003,3.083,1.003
			c1.494,0,2.778-0.521,3.853-1.566l3.369,1.582c-0.84,1.191-1.846,2.072-3.018,2.644s-2.563,0.856-4.175,0.856
			c-2.5,0-4.536-0.788-6.108-2.365s-2.358-3.553-2.358-5.926c0-2.432,0.784-4.45,2.351-6.057c1.568-1.606,3.533-2.41,5.896-2.41
			c2.51,0,4.551,0.804,6.123,2.41s2.358,3.729,2.358,6.365L474.592,15.689z M470.593,12.539c-0.264-0.889-0.785-1.611-1.563-2.168
			c-0.778-0.557-1.681-0.834-2.708-0.834c-1.114,0-2.093,0.313-2.934,0.938c-0.528,0.391-1.018,1.078-1.468,2.064H470.593z"/>
		<path style="fill:#FFFFFF;" d="M476.892,6.563h3.428V8.57c0.371-0.791,0.864-1.393,1.479-1.803s1.289-0.615,2.021-0.615
			c0.518,0,1.06,0.137,1.626,0.41l-1.245,3.443c-0.469-0.234-0.854-0.352-1.157-0.352c-0.615,0-1.135,0.381-1.561,1.143
			c-0.424,0.762-0.637,2.256-0.637,4.482l0.015,0.775V22.5h-3.97V6.563z"/>
		<path style="fill:#FFFFFF;" d="M497.18,8.789l-2.476,2.477c-1.006-0.996-1.919-1.494-2.739-1.494
			c-0.449,0-0.801,0.095-1.055,0.285s-0.381,0.428-0.381,0.711c0,0.215,0.08,0.412,0.242,0.593c0.16,0.181,0.559,0.427,1.193,0.739
			l1.465,0.732c1.543,0.762,2.603,1.539,3.179,2.33s0.864,1.719,0.864,2.783c0,1.416-0.52,2.598-1.561,3.545
			c-1.039,0.947-2.434,1.42-4.182,1.42c-2.324,0-4.18-0.908-5.566-2.725l2.461-2.68c0.469,0.547,1.018,0.988,1.648,1.325
			c0.629,0.337,1.188,0.505,1.677,0.505c0.527,0,0.952-0.127,1.274-0.381s0.483-0.547,0.483-0.879c0-0.615-0.581-1.215-1.743-1.801
			l-1.348-0.674c-2.578-1.299-3.867-2.926-3.867-4.879c0-1.26,0.485-2.336,1.457-3.229s2.215-1.341,3.729-1.341
			c1.035,0,2.009,0.228,2.922,0.682S496.545,7.939,497.18,8.789z"/>
		<path style="fill:#FFFFFF;" d="M502.541,18.443l2.856,1.436l-3.618,6.182l-1.992-0.953L502.541,18.443z"/>
		<path style="fill:#FFFFFF;" d="M372.58,36.41h3.999V58.5h-3.999v-1.684c-0.78,0.742-1.563,1.276-2.349,1.604
			s-1.636,0.49-2.553,0.49c-2.059,0-3.839-0.798-5.341-2.395s-2.253-3.582-2.253-5.955c0-2.461,0.727-4.477,2.18-6.049
			c1.454-1.572,3.219-2.359,5.297-2.359c0.956,0,1.854,0.182,2.692,0.543s1.614,0.902,2.326,1.625V36.41z M368.376,45.844
			c-1.236,0-2.263,0.438-3.08,1.312s-1.227,1.995-1.227,3.362c0,1.377,0.416,2.51,1.248,3.398s1.856,1.332,3.073,1.332
			c1.256,0,2.297-0.437,3.124-1.311s1.241-2.02,1.241-3.436c0-1.387-0.414-2.51-1.241-3.369S369.642,45.844,368.376,45.844z"/>
		<path style="fill:#FFFFFF;" d="M396.589,51.689h-12.847c0.186,1.133,0.681,2.033,1.487,2.702c0.805,0.669,1.833,1.003,3.083,1.003
			c1.494,0,2.778-0.521,3.853-1.566l3.369,1.582c-0.84,1.191-1.846,2.072-3.018,2.644s-2.563,0.856-4.175,0.856
			c-2.5,0-4.536-0.788-6.108-2.365s-2.358-3.553-2.358-5.926c0-2.432,0.784-4.45,2.351-6.057c1.568-1.606,3.533-2.41,5.896-2.41
			c2.51,0,4.551,0.804,6.123,2.41s2.358,3.729,2.358,6.365L396.589,51.689z M392.59,48.539c-0.264-0.889-0.785-1.611-1.563-2.168
			c-0.778-0.557-1.681-0.834-2.708-0.834c-1.114,0-2.093,0.313-2.934,0.938c-0.528,0.391-1.018,1.078-1.468,2.064H392.59z"/>
		<path style="fill:#FFFFFF;" d="M409.582,44.789l-2.476,2.477c-1.006-0.996-1.919-1.494-2.739-1.494
			c-0.449,0-0.801,0.095-1.055,0.285s-0.381,0.428-0.381,0.711c0,0.215,0.08,0.412,0.242,0.593c0.16,0.181,0.559,0.427,1.193,0.739
			l1.465,0.732c1.543,0.762,2.603,1.539,3.179,2.33s0.864,1.719,0.864,2.783c0,1.416-0.52,2.598-1.561,3.545
			c-1.039,0.947-2.434,1.42-4.182,1.42c-2.324,0-4.18-0.908-5.566-2.725l2.461-2.68c0.469,0.547,1.018,0.988,1.648,1.325
			c0.629,0.337,1.188,0.505,1.677,0.505c0.527,0,0.952-0.127,1.274-0.381s0.483-0.547,0.483-0.879c0-0.615-0.581-1.215-1.743-1.801
			l-1.348-0.674c-2.578-1.299-3.867-2.926-3.867-4.879c0-1.26,0.485-2.336,1.457-3.229s2.215-1.341,3.729-1.341
			c1.035,0,2.009,0.228,2.922,0.682S408.947,43.939,409.582,44.789z"/>
		<path style="fill:#FFFFFF;" d="M414.585,36c0.7,0,1.302,0.254,1.804,0.762c0.501,0.508,0.752,1.123,0.752,1.846
			c0,0.713-0.248,1.321-0.745,1.824c-0.496,0.503-1.091,0.754-1.781,0.754c-0.711,0-1.317-0.256-1.819-0.769
			c-0.501-0.513-0.752-1.136-0.752-1.868c0-0.703,0.248-1.303,0.745-1.801C413.284,36.25,413.883,36,414.585,36z M412.585,42.563
			h3.999V58.5h-3.999V42.563z"/>
		<path style="fill:#FFFFFF;" d="M431.994,42.563h3.984v13.652c0,2.695-0.542,4.678-1.626,5.947
			c-1.455,1.719-3.647,2.578-6.577,2.578c-1.563,0-2.876-0.195-3.94-0.586s-1.963-0.964-2.695-1.721s-1.274-1.678-1.626-2.762h4.409
			c0.391,0.449,0.894,0.789,1.509,1.019s1.343,0.345,2.183,0.345c1.074,0,1.938-0.166,2.593-0.498s1.115-0.762,1.385-1.289
			c0.268-0.527,0.402-1.436,0.402-2.725c-0.703,0.703-1.44,1.208-2.212,1.516s-1.646,0.461-2.622,0.461
			c-2.139,0-3.945-0.771-5.42-2.314s-2.212-3.496-2.212-5.859c0-2.529,0.781-4.561,2.344-6.094c1.416-1.387,3.105-2.08,5.068-2.08
			c0.918,0,1.784,0.169,2.601,0.506c0.814,0.337,1.633,0.891,2.453,1.662V42.563z M427.849,45.889c-1.26,0-2.3,0.422-3.12,1.267
			s-1.23,1.907-1.23,3.187c0,1.328,0.42,2.416,1.26,3.266s1.895,1.275,3.164,1.275c1.24,0,2.264-0.416,3.068-1.246
			c0.807-0.83,1.209-1.918,1.209-3.266c0-1.328-0.405-2.408-1.216-3.238S429.128,45.889,427.849,45.889z"/>
		<path style="fill:#FFFFFF;" d="M440.021,42.563h3.999v1.634c0.907-0.765,1.729-1.296,2.465-1.595
			c0.735-0.299,1.489-0.449,2.26-0.449c1.58,0,2.921,0.553,4.022,1.656c0.927,0.938,1.39,2.324,1.39,4.16V58.5h-3.955v-6.979
			c0-1.902-0.085-3.165-0.256-3.789c-0.171-0.625-0.468-1.101-0.892-1.428c-0.424-0.326-0.947-0.49-1.57-0.49
			c-0.809,0-1.503,0.271-2.083,0.813c-0.579,0.541-0.981,1.29-1.205,2.246c-0.117,0.498-0.176,1.575-0.176,3.233V58.5h-3.999V42.563
			z"/>
		<path style="fill:#FFFFFF;" d="M473.991,51.689h-12.847c0.186,1.133,0.681,2.033,1.487,2.702c0.805,0.669,1.833,1.003,3.083,1.003
			c1.494,0,2.778-0.521,3.853-1.566l3.369,1.582c-0.84,1.191-1.846,2.072-3.018,2.644s-2.563,0.856-4.175,0.856
			c-2.5,0-4.536-0.788-6.108-2.365s-2.358-3.553-2.358-5.926c0-2.432,0.784-4.45,2.351-6.057c1.568-1.606,3.533-2.41,5.896-2.41
			c2.51,0,4.551,0.804,6.123,2.41s2.358,3.729,2.358,6.365L473.991,51.689z M469.992,48.539c-0.264-0.889-0.785-1.611-1.563-2.168
			c-0.778-0.557-1.681-0.834-2.708-0.834c-1.114,0-2.093,0.313-2.934,0.938c-0.528,0.391-1.018,1.078-1.468,2.064H469.992z"/>
		<path style="fill:#FFFFFF;" d="M476.291,42.563h3.428v2.008c0.371-0.791,0.864-1.393,1.479-1.803s1.289-0.615,2.021-0.615
			c0.518,0,1.06,0.137,1.626,0.41l-1.245,3.443c-0.469-0.234-0.854-0.352-1.157-0.352c-0.615,0-1.135,0.381-1.561,1.143
			c-0.424,0.762-0.637,2.256-0.637,4.482l0.015,0.775V58.5h-3.97V42.563z"/>
		<path style="fill:#FFFFFF;" d="M496.579,44.789l-2.476,2.477c-1.006-0.996-1.919-1.494-2.739-1.494
			c-0.449,0-0.801,0.095-1.055,0.285s-0.381,0.428-0.381,0.711c0,0.215,0.08,0.412,0.242,0.593c0.16,0.181,0.559,0.427,1.193,0.739
			l1.465,0.732c1.543,0.762,2.603,1.539,3.179,2.33s0.864,1.719,0.864,2.783c0,1.416-0.52,2.598-1.561,3.545
			c-1.039,0.947-2.434,1.42-4.182,1.42c-2.324,0-4.18-0.908-5.566-2.725l2.461-2.68c0.469,0.547,1.018,0.988,1.648,1.325
			c0.629,0.337,1.188,0.505,1.677,0.505c0.527,0,0.952-0.127,1.274-0.381s0.483-0.547,0.483-0.879c0-0.615-0.581-1.215-1.743-1.801
			l-1.348-0.674c-2.578-1.299-3.867-2.926-3.867-4.879c0-1.26,0.485-2.336,1.457-3.229s2.215-1.341,3.729-1.341
			c1.035,0,2.009,0.228,2.922,0.682S495.944,43.939,496.579,44.789z"/>
		<path style="fill:#FFFFFF;" d="M501.94,54.443l2.856,1.436l-3.618,6.182l-1.992-0.953L501.94,54.443z"/>
		<path style="fill:#FFFFFF;" d="M361.301,72.689h3.999v5.873h2.373v3.443H365.3V94.5h-3.999V82.006h-2.051v-3.443h2.051V72.689z"/>
		<path style="fill:#FFFFFF;" d="M369.826,72.41h3.97v7.764c0.781-0.674,1.567-1.179,2.358-1.516s1.592-0.506,2.402-0.506
			c1.582,0,2.915,0.547,3.999,1.641c0.928,0.947,1.392,2.34,1.392,4.176V94.5h-3.94v-6.986c0-1.846-0.088-3.096-0.264-3.75
			s-0.477-1.143-0.9-1.465c-0.426-0.322-0.95-0.484-1.575-0.484c-0.811,0-1.507,0.27-2.087,0.807
			c-0.582,0.537-0.984,1.27-1.209,2.197c-0.117,0.479-0.176,1.572-0.176,3.281v6.4h-3.97V72.41z"/>
		<path style="fill:#FFFFFF;" d="M389.375,72c0.7,0,1.302,0.254,1.804,0.762c0.501,0.508,0.752,1.123,0.752,1.846
			c0,0.713-0.248,1.321-0.745,1.824c-0.496,0.503-1.091,0.754-1.781,0.754c-0.711,0-1.317-0.256-1.819-0.769
			c-0.501-0.513-0.752-1.136-0.752-1.868c0-0.703,0.248-1.303,0.745-1.801C388.074,72.25,388.673,72,389.375,72z M387.375,78.563
			h3.999V94.5h-3.999V78.563z"/>
		<path style="fill:#FFFFFF;" d="M395.007,78.563h3.999v1.634c0.907-0.765,1.729-1.296,2.465-1.595
			c0.735-0.299,1.489-0.449,2.26-0.449c1.58,0,2.921,0.553,4.022,1.656c0.927,0.938,1.39,2.324,1.39,4.16V94.5h-3.955v-6.979
			c0-1.902-0.085-3.165-0.256-3.789c-0.171-0.625-0.468-1.101-0.892-1.428c-0.424-0.326-0.947-0.49-1.57-0.49
			c-0.809,0-1.503,0.271-2.083,0.813c-0.579,0.541-0.981,1.29-1.205,2.246c-0.117,0.498-0.176,1.575-0.176,3.233V94.5h-3.999V78.563
			z"/>
		<path style="fill:#FFFFFF;" d="M413.039,72.41h3.999v12.724l5.889-6.571h5.022l-6.866,7.639l7.687,8.299h-4.964l-6.768-7.345V94.5
			h-3.999V72.41z"/>
		<path style="fill:#FFFFFF;" d="M446.379,87.689h-12.847c0.186,1.133,0.681,2.033,1.487,2.702c0.805,0.669,1.833,1.003,3.083,1.003
			c1.494,0,2.778-0.521,3.853-1.566l3.369,1.582c-0.84,1.191-1.846,2.072-3.018,2.644s-2.563,0.856-4.175,0.856
			c-2.5,0-4.536-0.788-6.108-2.365s-2.358-3.553-2.358-5.926c0-2.432,0.784-4.45,2.351-6.057c1.568-1.606,3.533-2.41,5.896-2.41
			c2.51,0,4.551,0.804,6.123,2.41s2.358,3.729,2.358,6.365L446.379,87.689z M442.38,84.539c-0.264-0.889-0.785-1.611-1.563-2.168
			c-0.778-0.557-1.681-0.834-2.708-0.834c-1.114,0-2.093,0.313-2.934,0.938c-0.528,0.391-1.018,1.078-1.468,2.064H442.38z"/>
		<path style="fill:#FFFFFF;" d="M448.679,78.563h3.428v2.008c0.371-0.791,0.864-1.393,1.479-1.803s1.289-0.615,2.021-0.615
			c0.518,0,1.06,0.137,1.626,0.41l-1.245,3.443c-0.469-0.234-0.854-0.352-1.157-0.352c-0.615,0-1.135,0.381-1.561,1.143
			c-0.424,0.762-0.637,2.256-0.637,4.482l0.015,0.775V94.5h-3.97V78.563z"/>
		<path style="fill:#FFFFFF;" d="M468.967,80.789l-2.476,2.477c-1.006-0.996-1.919-1.494-2.739-1.494
			c-0.449,0-0.801,0.095-1.055,0.285s-0.381,0.428-0.381,0.711c0,0.215,0.08,0.412,0.242,0.593c0.16,0.181,0.559,0.427,1.193,0.739
			l1.465,0.732c1.543,0.762,2.603,1.539,3.179,2.33s0.864,1.719,0.864,2.783c0,1.416-0.52,2.598-1.561,3.545
			c-1.039,0.947-2.434,1.42-4.182,1.42c-2.324,0-4.18-0.908-5.566-2.725l2.461-2.68c0.469,0.547,1.018,0.988,1.648,1.325
			c0.629,0.337,1.188,0.505,1.677,0.505c0.527,0,0.952-0.127,1.274-0.381s0.483-0.547,0.483-0.879c0-0.615-0.581-1.215-1.743-1.801
			l-1.348-0.674c-2.578-1.299-3.867-2.926-3.867-4.879c0-1.26,0.485-2.336,1.457-3.229s2.215-1.341,3.729-1.341
			c1.035,0,2.009,0.228,2.922,0.682S468.332,79.939,468.967,80.789z"/>
		<path style="fill:#FFFFFF;" d="M494.751,86.033l2.443,2.799l-1.11,1.01l-1.097,0.994l3.46,3.664h-4.973l-1.421-1.465
			c-2.266,1.338-4.37,2.008-6.314,2.008c-1.65,0-2.985-0.484-4.007-1.451c-1.021-0.967-1.53-2.207-1.53-3.721
			c0-1.143,0.289-2.221,0.867-3.236c0.579-1.016,1.568-2.066,2.971-3.15c-1.387-1.865-2.08-3.516-2.08-4.951
			c0-1.064,0.459-2.113,1.377-3.148s2.212-1.553,3.882-1.553c1.689,0,2.985,0.512,3.889,1.537s1.355,2.061,1.355,3.105
			c0,0.82-0.208,1.607-0.623,2.359s-1.369,1.865-2.863,3.34c1.749,2.061,2.877,3.344,3.386,3.852
			C492.675,87.791,493.471,87.127,494.751,86.033z M489.396,90.186c-0.755-0.74-1.817-1.969-3.188-3.684
			c-1.445,1.201-2.168,2.252-2.168,3.15c0,0.42,0.197,0.805,0.593,1.156c0.395,0.352,0.895,0.527,1.5,0.527
			C487.001,91.336,488.089,90.953,489.396,90.186z M486.955,81.287c1.084-0.928,1.626-1.748,1.626-2.461
			c0-0.371-0.122-0.674-0.366-0.908s-0.566-0.352-0.967-0.352c-0.371,0-0.687,0.133-0.945,0.396s-0.388,0.57-0.388,0.922
			C485.915,79.588,486.262,80.389,486.955,81.287z"/>
		<path style="fill:#FFFFFF;" d="M525.202,81.785l-3.329,1.832c-0.626-0.654-1.244-1.109-1.855-1.363s-1.327-0.381-2.148-0.381
			c-1.496,0-2.706,0.447-3.63,1.339s-1.386,2.035-1.386,3.43c0,1.354,0.444,2.462,1.335,3.319c0.89,0.859,2.058,1.287,3.505,1.287
			c1.789,0,3.183-0.609,4.18-1.83l3.153,2.158c-1.709,2.223-4.121,3.334-7.236,3.334c-2.803,0-4.998-0.83-6.585-2.49
			s-2.38-3.604-2.38-5.83c0-1.543,0.386-2.963,1.157-4.262s1.848-2.32,3.23-3.063c1.381-0.742,2.927-1.113,4.636-1.113
			c1.582,0,3.003,0.315,4.263,0.945S524.401,80.623,525.202,81.785z"/>
		<path style="fill:#FFFFFF;" d="M536.291,78.152c1.504,0,2.917,0.377,4.241,1.129c1.322,0.752,2.355,1.771,3.098,3.061
			s1.113,2.682,1.113,4.176c0,1.504-0.373,2.91-1.121,4.219c-0.746,1.309-1.765,2.331-3.054,3.068s-2.71,1.105-4.263,1.105
			c-2.285,0-4.236-0.813-5.852-2.438c-1.617-1.626-2.425-3.601-2.425-5.925c0-2.49,0.913-4.566,2.739-6.227
			C532.37,78.875,534.211,78.152,536.291,78.152z M536.356,81.918c-1.242,0-2.276,0.432-3.103,1.296
			c-0.827,0.864-1.24,1.97-1.24,3.317c0,1.387,0.408,2.51,1.226,3.369c0.816,0.859,1.851,1.289,3.104,1.289
			c1.252,0,2.293-0.434,3.125-1.303c0.831-0.869,1.247-1.988,1.247-3.355s-0.408-2.478-1.226-3.332
			C538.673,82.345,537.629,81.918,536.356,81.918z"/>
		<path style="fill:#FFFFFF;" d="M547.57,72.41h3.999V94.5h-3.999V72.41z"/>
		<path style="fill:#FFFFFF;" d="M554.763,72.41h3.999V94.5h-3.999V72.41z"/>
		<path style="fill:#FFFFFF;" d="M574.157,78.563h3.999V94.5h-3.999v-1.684c-0.78,0.742-1.563,1.276-2.349,1.604
			s-1.636,0.49-2.553,0.49c-2.059,0-3.839-0.798-5.341-2.395s-2.253-3.582-2.253-5.955c0-2.461,0.727-4.477,2.18-6.049
			c1.454-1.572,3.219-2.359,5.297-2.359c0.956,0,1.854,0.182,2.692,0.543s1.614,0.902,2.326,1.625V78.563z M569.953,81.844
			c-1.236,0-2.263,0.438-3.08,1.312s-1.227,1.995-1.227,3.362c0,1.377,0.416,2.51,1.248,3.398s1.856,1.332,3.073,1.332
			c1.256,0,2.297-0.437,3.124-1.311s1.241-2.02,1.241-3.436c0-1.387-0.414-2.51-1.241-3.369S571.219,81.844,569.953,81.844z"/>
		<path style="fill:#FFFFFF;" d="M586.169,72.41v7.91c0.723-0.723,1.504-1.264,2.344-1.625s1.738-0.543,2.695-0.543
			c2.08,0,3.848,0.787,5.303,2.359s2.183,3.588,2.183,6.049c0,2.373-0.752,4.358-2.256,5.955s-3.286,2.395-5.347,2.395
			c-0.918,0-1.772-0.163-2.563-0.49s-1.577-0.861-2.358-1.604V94.5h-3.97V72.41H586.169z M590.373,81.844
			c-1.26,0-2.305,0.43-3.135,1.289s-1.245,1.982-1.245,3.369c0,1.416,0.415,2.562,1.245,3.436s1.875,1.311,3.135,1.311
			c1.221,0,2.248-0.443,3.084-1.332c0.834-0.889,1.252-2.021,1.252-3.398c0-1.367-0.41-2.488-1.23-3.362
			S591.623,81.844,590.373,81.844z"/>
		<path style="fill:#FFFFFF;" d="M609.489,78.152c1.504,0,2.917,0.377,4.241,1.129c1.322,0.752,2.355,1.771,3.098,3.061
			s1.113,2.682,1.113,4.176c0,1.504-0.373,2.91-1.121,4.219c-0.746,1.309-1.765,2.331-3.054,3.068s-2.71,1.105-4.263,1.105
			c-2.285,0-4.236-0.813-5.852-2.438c-1.617-1.626-2.425-3.601-2.425-5.925c0-2.49,0.913-4.566,2.739-6.227
			C605.568,78.875,607.409,78.152,609.489,78.152z M609.555,81.918c-1.242,0-2.276,0.432-3.103,1.296
			c-0.827,0.864-1.24,1.97-1.24,3.317c0,1.387,0.408,2.51,1.226,3.369c0.816,0.859,1.851,1.289,3.104,1.289
			c1.252,0,2.293-0.434,3.125-1.303c0.831-0.869,1.247-1.988,1.247-3.355s-0.408-2.478-1.226-3.332
			C611.871,82.345,610.827,81.918,609.555,81.918z"/>
		<path style="fill:#FFFFFF;" d="M620.271,78.563h3.428v2.008c0.371-0.791,0.864-1.393,1.479-1.803s1.289-0.615,2.021-0.615
			c0.518,0,1.06,0.137,1.626,0.41l-1.245,3.443c-0.469-0.234-0.854-0.352-1.157-0.352c-0.615,0-1.135,0.381-1.561,1.143
			c-0.424,0.762-0.637,2.256-0.637,4.482l0.015,0.775V94.5h-3.97V78.563z"/>
		<path style="fill:#FFFFFF;" d="M642.565,78.563h3.999V94.5h-3.999v-1.684c-0.78,0.742-1.563,1.276-2.349,1.604
			s-1.636,0.49-2.553,0.49c-2.059,0-3.839-0.798-5.341-2.395s-2.253-3.582-2.253-5.955c0-2.461,0.727-4.477,2.18-6.049
			c1.454-1.572,3.219-2.359,5.297-2.359c0.956,0,1.854,0.182,2.692,0.543s1.614,0.902,2.326,1.625V78.563z M638.361,81.844
			c-1.236,0-2.263,0.438-3.08,1.312s-1.227,1.995-1.227,3.362c0,1.377,0.416,2.51,1.248,3.398s1.856,1.332,3.073,1.332
			c1.256,0,2.297-0.437,3.124-1.311s1.241-2.02,1.241-3.436c0-1.387-0.414-2.51-1.241-3.369S639.627,81.844,638.361,81.844z"/>
		<path style="fill:#FFFFFF;" d="M651.091,72.689h3.999v5.873h2.373v3.443h-2.373V94.5h-3.999V82.006h-2.051v-3.443h2.051V72.689z"
			/>
		<path style="fill:#FFFFFF;" d="M667.087,78.152c1.504,0,2.917,0.377,4.241,1.129c1.322,0.752,2.355,1.771,3.098,3.061
			s1.113,2.682,1.113,4.176c0,1.504-0.373,2.91-1.121,4.219c-0.746,1.309-1.765,2.331-3.054,3.068s-2.71,1.105-4.263,1.105
			c-2.285,0-4.236-0.813-5.852-2.438c-1.617-1.626-2.425-3.601-2.425-5.925c0-2.49,0.913-4.566,2.739-6.227
			C663.166,78.875,665.007,78.152,667.087,78.152z M667.152,81.918c-1.242,0-2.276,0.432-3.103,1.296
			c-0.827,0.864-1.24,1.97-1.24,3.317c0,1.387,0.408,2.51,1.226,3.369c0.816,0.859,1.851,1.289,3.104,1.289
			c1.252,0,2.293-0.434,3.125-1.303c0.831-0.869,1.247-1.988,1.247-3.355s-0.408-2.478-1.226-3.332
			C669.469,82.345,668.425,81.918,667.152,81.918z"/>
		<path style="fill:#FFFFFF;" d="M677.868,78.563h3.428v2.008c0.371-0.791,0.864-1.393,1.479-1.803s1.289-0.615,2.021-0.615
			c0.518,0,1.06,0.137,1.626,0.41l-1.245,3.443c-0.469-0.234-0.854-0.352-1.157-0.352c-0.615,0-1.135,0.381-1.561,1.143
			c-0.424,0.762-0.637,2.256-0.637,4.482l0.015,0.775V94.5h-3.97V78.563z"/>
		<path style="fill:#FFFFFF;" d="M698.156,80.789l-2.476,2.477c-1.006-0.996-1.919-1.494-2.739-1.494
			c-0.449,0-0.801,0.095-1.055,0.285s-0.381,0.428-0.381,0.711c0,0.215,0.08,0.412,0.242,0.593c0.16,0.181,0.559,0.427,1.193,0.739
			l1.465,0.732c1.543,0.762,2.603,1.539,3.179,2.33s0.864,1.719,0.864,2.783c0,1.416-0.52,2.598-1.561,3.545
			c-1.039,0.947-2.434,1.42-4.182,1.42c-2.324,0-4.18-0.908-5.566-2.725l2.461-2.68c0.469,0.547,1.018,0.988,1.648,1.325
			c0.629,0.337,1.188,0.505,1.677,0.505c0.527,0,0.952-0.127,1.274-0.381s0.483-0.547,0.483-0.879c0-0.615-0.581-1.215-1.743-1.801
			l-1.348-0.674c-2.578-1.299-3.867-2.926-3.867-4.879c0-1.26,0.485-2.336,1.457-3.229s2.215-1.341,3.729-1.341
			c1.035,0,2.009,0.228,2.922,0.682S697.521,79.939,698.156,80.789z"/>
		<path style="fill:#FFFFFF;" d="M712.16,89.9c0.693,0,1.286,0.244,1.779,0.732s0.74,1.08,0.74,1.773
			c0,0.684-0.247,1.271-0.74,1.765s-1.086,0.739-1.779,0.739s-1.284-0.244-1.772-0.732s-0.732-1.078-0.732-1.771
			s0.244-1.285,0.732-1.773S711.467,89.9,712.16,89.9z M710.139,72.41h4.043v15.748h-4.043V72.41z"/>
	</g>
	<g>
		<path style="fill:#FFFFFF;" d="M0,0.924h3.228l2.491,11.004L8.797,0.924h2.729l3.123,11.004l2.467-11.004h3.229L16.46,18.162
			h-3.147L10.137,7.018L7.02,18.162H3.902L0,0.924z"/>
		<path style="fill:#FFFFFF;" d="M22.564,0.49h3.176v6.211c0.625-0.539,1.254-0.943,1.887-1.213s1.273-0.404,1.922-0.404
			c1.266,0,2.332,0.438,3.199,1.313c0.742,0.758,1.113,1.871,1.113,3.34v8.426h-3.152v-5.59c0-1.477-0.07-2.477-0.211-3
			S30.117,8.658,29.777,8.4s-0.76-0.387-1.26-0.387c-0.648,0-1.205,0.215-1.67,0.645s-0.787,1.016-0.967,1.758
			c-0.094,0.383-0.141,1.258-0.141,2.625v5.121h-3.176V0.49z"/>
		<path style="fill:#FFFFFF;" d="M42.943,5.084c1.203,0,2.334,0.301,3.393,0.902s1.885,1.418,2.479,2.449s0.891,2.145,0.891,3.34
			c0,1.203-0.299,2.328-0.896,3.375s-1.412,1.865-2.443,2.455s-2.168,0.885-3.41,0.885c-1.828,0-3.389-0.65-4.682-1.951
			s-1.939-2.881-1.939-4.74c0-1.992,0.73-3.652,2.191-4.98C39.807,5.662,41.279,5.084,42.943,5.084z M42.996,8.096
			c-0.994,0-1.821,0.346-2.482,1.037c-0.662,0.691-0.992,1.576-0.992,2.654c0,1.109,0.326,2.008,0.98,2.695
			c0.653,0.688,1.48,1.031,2.482,1.031s1.835-0.348,2.5-1.043s0.998-1.59,0.998-2.684s-0.327-1.982-0.98-2.666
			S44.014,8.096,42.996,8.096z"/>
		<path style="fill:#FFFFFF;" d="M57.621,5.412h3.132l2.563,7.254l2.759-7.254h1.915l2.709,7.172l2.567-7.172h3.151l-4.652,12.75
			h-2.027l-2.719-7.266l-2.801,7.266h-2.004L57.621,5.412z"/>
		<path style="fill:#FFFFFF;" d="M91.002,12.713H80.725c0.148,0.906,0.545,1.627,1.189,2.162s1.467,0.803,2.467,0.803
			c1.195,0,2.223-0.418,3.082-1.254l2.695,1.266c-0.672,0.953-1.477,1.658-2.414,2.115s-2.051,0.686-3.34,0.686
			c-2,0-3.629-0.631-4.887-1.893s-1.887-2.842-1.887-4.74c0-1.945,0.627-3.561,1.881-4.846s2.826-1.928,4.717-1.928
			c2.008,0,3.641,0.643,4.898,1.928s1.887,2.982,1.887,5.092L91.002,12.713z M87.803,10.193c-0.211-0.711-0.628-1.289-1.25-1.734
			s-1.344-0.668-2.166-0.668c-0.893,0-1.675,0.25-2.348,0.75c-0.423,0.313-0.813,0.863-1.174,1.652H87.803z"/>
		<path style="fill:#2C50A2;" d="M10.365,34.213h3.199v12.75h-3.199v-1.348c-0.624,0.594-1.251,1.021-1.879,1.283
			s-1.309,0.393-2.042,0.393c-1.646,0-3.071-0.639-4.272-1.916c-1.202-1.277-1.803-2.865-1.803-4.764
			c0-1.969,0.581-3.582,1.744-4.84s2.575-1.887,4.237-1.887c0.765,0,1.482,0.145,2.153,0.434s1.291,0.723,1.861,1.301V34.213z
			 M7.002,36.838c-0.988,0-1.811,0.35-2.464,1.049c-0.654,0.699-0.981,1.596-0.981,2.689c0,1.102,0.333,2.008,0.998,2.719
			c0.666,0.711,1.485,1.066,2.459,1.066c1.005,0,1.838-0.35,2.499-1.049c0.662-0.699,0.993-1.615,0.993-2.748
			c0-1.109-0.331-2.008-0.993-2.695C8.852,37.182,8.015,36.838,7.002,36.838z"/>
		<path style="fill:#2C50A2;" d="M16.049,34.213h2.742v1.605c0.297-0.633,0.691-1.113,1.184-1.441s1.031-0.492,1.617-0.492
			c0.414,0,0.848,0.109,1.301,0.328l-0.996,2.754c-0.375-0.188-0.684-0.281-0.926-0.281c-0.492,0-0.908,0.305-1.248,0.914
			s-0.51,1.805-0.51,3.586l0.012,0.621v5.156h-3.176V34.213z"/>
		<path style="fill:#2C50A2;" d="M37.248,41.514H26.971c0.148,0.906,0.545,1.627,1.189,2.162s1.467,0.803,2.467,0.803
			c1.195,0,2.223-0.418,3.082-1.254l2.695,1.266c-0.672,0.953-1.477,1.658-2.414,2.115s-2.051,0.686-3.34,0.686
			c-2,0-3.629-0.631-4.887-1.893s-1.887-2.842-1.887-4.74c0-1.945,0.627-3.561,1.881-4.846s2.826-1.928,4.717-1.928
			c2.008,0,3.641,0.643,4.898,1.928s1.887,2.982,1.887,5.092L37.248,41.514z M34.049,38.994c-0.211-0.711-0.628-1.289-1.25-1.734
			s-1.344-0.668-2.166-0.668c-0.893,0-1.675,0.25-2.348,0.75c-0.423,0.313-0.813,0.863-1.174,1.652H34.049z"/>
	</g>
	<rect x="3.791" y="54.089" style="fill:#E9C41D;" width="30" height="2"/>
</g>
</svg>
