<?xml version="1.0" encoding="iso-8859-1"?>
<!-- Generator: Adobe Illustrator 16.0.0, SVG Export Plug-In . SVG Version: 6.00 Build 0)  -->
<!DOCTYPE svg PUBLIC "-//W3C//DTD SVG 1.1//EN" "http://www.w3.org/Graphics/SVG/1.1/DTD/svg11.dtd">
<svg version="1.1" id="&#x5716;&#x5C64;_1" xmlns="http://www.w3.org/2000/svg" xmlns:xlink="http://www.w3.org/1999/xlink" x="0px"
	 y="0px" width="300.25px" height="55.599px" viewBox="0 0 300.25 55.599" style="enable-background:new 0 0 300.25 55.599;"
	 xml:space="preserve">
<g>
	<g>
		<rect x="296.786" y="8.542" style="fill:#2C50A2;" width="3.464" height="0.998"/>
		<rect x="296.271" y="8.542" style="fill:#2E51A2;" width="3.464" height="0.998"/>
		<rect x="295.758" y="8.542" style="fill:#2F51A2;" width="3.464" height="0.998"/>
		<rect x="295.244" y="8.542" style="fill:#3052A2;" width="3.464" height="0.998"/>
		<rect x="294.73" y="8.542" style="fill:#3253A2;" width="3.464" height="0.998"/>
		<rect x="294.217" y="8.542" style="fill:#3353A2;" width="3.464" height="0.998"/>
		<rect x="293.703" y="8.542" style="fill:#3454A2;" width="3.463" height="0.998"/>
		<rect x="293.189" y="8.542" style="fill:#3654A2;" width="3.463" height="0.998"/>
		<rect x="292.676" y="8.542" style="fill:#3755A2;" width="3.463" height="0.998"/>
		<rect x="292.162" y="8.542" style="fill:#3856A2;" width="3.463" height="0.998"/>
		<rect x="291.648" y="8.542" style="fill:#3956A2;" width="3.463" height="0.998"/>
		<rect x="291.134" y="8.542" style="fill:#3A57A2;" width="3.464" height="0.998"/>
		<rect x="290.62" y="8.542" style="fill:#3C57A2;" width="3.464" height="0.998"/>
		<rect x="290.105" y="8.542" style="fill:#3D58A2;" width="3.465" height="0.998"/>
		<rect x="289.592" y="8.542" style="fill:#3E59A2;" width="3.465" height="0.998"/>
		<rect x="289.078" y="8.542" style="fill:#3F59A2;" width="3.465" height="0.998"/>
		<rect x="288.564" y="8.542" style="fill:#405AA2;" width="3.464" height="0.998"/>
		<rect x="288.051" y="8.542" style="fill:#415AA2;" width="3.464" height="0.998"/>
		<rect x="287.537" y="8.542" style="fill:#425BA2;" width="3.464" height="0.998"/>
		<rect x="287.023" y="8.542" style="fill:#445CA2;" width="3.464" height="0.998"/>
		<rect x="286.51" y="8.542" style="fill:#455CA2;" width="3.464" height="0.998"/>
		<rect x="285.996" y="8.542" style="fill:#465DA2;" width="3.463" height="0.998"/>
		<rect x="285.481" y="8.542" style="fill:#475DA2;" width="3.464" height="0.998"/>
		<rect x="284.969" y="8.542" style="fill:#485EA2;" width="3.463" height="0.998"/>
		<rect x="284.454" y="8.542" style="fill:#495FA2;" width="3.464" height="0.998"/>
		<rect x="283.941" y="8.542" style="fill:#4B5FA2;" width="3.463" height="0.998"/>
		<rect x="283.426" y="8.542" style="fill:#4C60A2;" width="3.465" height="0.998"/>
		<rect x="282.913" y="8.542" style="fill:#4D61A2;" width="3.464" height="0.998"/>
		<rect x="282.398" y="8.542" style="fill:#4E61A2;" width="3.465" height="0.998"/>
		<rect x="281.885" y="8.542" style="fill:#4F62A2;" width="3.465" height="0.998"/>
		<rect x="281.371" y="8.542" style="fill:#5062A2;" width="3.465" height="0.998"/>
		<rect x="280.857" y="8.542" style="fill:#5163A2;" width="3.464" height="0.998"/>
		<rect x="280.344" y="8.542" style="fill:#5264A2;" width="3.464" height="0.998"/>
		<rect x="279.83" y="8.542" style="fill:#5364A2;" width="3.463" height="0.998"/>
		<rect x="279.316" y="8.542" style="fill:#5565A2;" width="3.464" height="0.998"/>
		<rect x="278.803" y="8.542" style="fill:#5666A2;" width="3.463" height="0.998"/>
		<rect x="278.289" y="8.542" style="fill:#5766A2;" width="3.463" height="0.998"/>
		<rect x="277.775" y="8.542" style="fill:#5867A2;" width="3.463" height="0.998"/>
		<rect x="277.261" y="8.542" style="fill:#5968A2;" width="3.464" height="0.998"/>
		<rect x="276.747" y="8.542" style="fill:#5A68A2;" width="3.464" height="0.998"/>
		<rect x="276.233" y="8.542" style="fill:#5B69A2;" width="3.464" height="0.998"/>
		<rect x="275.719" y="8.542" style="fill:#5C6AA2;" width="3.465" height="0.998"/>
		<rect x="275.205" y="8.542" style="fill:#5D6AA1;" width="3.465" height="0.998"/>
		<rect x="274.691" y="8.542" style="fill:#5E6BA1;" width="3.465" height="0.998"/>
		<rect x="274.178" y="8.542" style="fill:#5F6CA1;" width="3.464" height="0.998"/>
		<rect x="273.664" y="8.542" style="fill:#606CA1;" width="3.464" height="0.998"/>
		<rect x="273.15" y="8.542" style="fill:#616DA1;" width="3.464" height="0.998"/>
		<rect x="272.637" y="8.542" style="fill:#626EA1;" width="3.463" height="0.998"/>
		<rect x="272.123" y="8.542" style="fill:#636EA1;" width="3.464" height="0.998"/>
		<rect x="271.609" y="8.542" style="fill:#646FA1;" width="3.463" height="0.998"/>
		<rect x="271.096" y="8.542" style="fill:#656FA1;" width="3.463" height="0.998"/>
		<rect x="270.582" y="8.542" style="fill:#6670A1;" width="3.463" height="0.998"/>
		<rect x="270.068" y="8.542" style="fill:#6771A1;" width="3.463" height="0.998"/>
		<rect x="269.554" y="8.542" style="fill:#6871A1;" width="3.464" height="0.998"/>
		<rect x="269.04" y="8.542" style="fill:#6972A1;" width="3.464" height="0.998"/>
		<rect x="268.526" y="8.542" style="fill:#6A73A1;" width="3.464" height="0.998"/>
		<rect x="268.012" y="8.542" style="fill:#6B73A0;" width="3.465" height="0.998"/>
		<rect x="267.498" y="8.542" style="fill:#6C74A0;" width="3.465" height="0.998"/>
		<rect x="266.984" y="8.542" style="fill:#6D75A0;" width="3.465" height="0.998"/>
		<rect x="266.471" y="8.542" style="fill:#6E75A0;" width="3.465" height="0.998"/>
		<rect x="265.957" y="8.542" style="fill:#6F76A0;" width="3.464" height="0.998"/>
		<rect x="265.443" y="8.542" style="fill:#7077A0;" width="3.464" height="0.998"/>
		<rect x="264.93" y="8.542" style="fill:#7177A0;" width="3.463" height="0.998"/>
		<rect x="264.416" y="8.542" style="fill:#7278A0;" width="3.463" height="0.998"/>
		<rect x="263.902" y="8.542" style="fill:#7379A0;" width="3.463" height="0.998"/>
		<rect x="263.389" y="8.542" style="fill:#73799F;" width="3.463" height="0.998"/>
		<rect x="262.875" y="8.542" style="fill:#747A9F;" width="3.463" height="0.998"/>
		<rect x="262.361" y="8.542" style="fill:#757B9F;" width="3.463" height="0.998"/>
		<rect x="261.847" y="8.542" style="fill:#767B9F;" width="3.464" height="0.998"/>
		<rect x="261.333" y="8.542" style="fill:#777C9F;" width="3.464" height="0.998"/>
		<rect x="260.818" y="8.542" style="fill:#787D9F;" width="3.465" height="0.998"/>
		<rect x="260.305" y="8.542" style="fill:#797D9F;" width="3.465" height="0.998"/>
		<rect x="259.791" y="8.542" style="fill:#7A7E9F;" width="3.465" height="0.998"/>
		<rect x="259.277" y="8.542" style="fill:#7B7F9E;" width="3.465" height="0.998"/>
		<rect x="258.764" y="8.542" style="fill:#7C7F9E;" width="3.464" height="0.998"/>
		<rect x="258.25" y="8.542" style="fill:#7D809E;" width="3.464" height="0.998"/>
		<rect x="257.736" y="8.542" style="fill:#7E819E;" width="3.464" height="0.998"/>
		<rect x="257.223" y="8.542" style="fill:#7F819E;" width="3.464" height="0.998"/>
		<rect x="256.709" y="8.542" style="fill:#80829E;" width="3.463" height="0.998"/>
		<rect x="256.195" y="8.542" style="fill:#81839E;" width="3.463" height="0.998"/>
		<rect x="255.682" y="8.542" style="fill:#82839D;" width="3.463" height="0.998"/>
		<rect x="255.167" y="8.542" style="fill:#83849D;" width="3.464" height="0.998"/>
		<rect x="254.653" y="8.542" style="fill:#84859D;" width="3.464" height="0.998"/>
		<rect x="254.139" y="8.542" style="fill:#85859D;" width="3.465" height="0.998"/>
		<rect x="253.626" y="8.542" style="fill:#85869D;" width="3.464" height="0.998"/>
		<rect x="253.111" y="8.542" style="fill:#86879D;" width="3.465" height="0.998"/>
		<rect x="252.598" y="8.542" style="fill:#87889C;" width="3.465" height="0.998"/>
		<rect x="252.084" y="8.542" style="fill:#88889C;" width="3.465" height="0.998"/>
		<rect x="251.57" y="8.542" style="fill:#89899C;" width="3.465" height="0.998"/>
		<rect x="251.057" y="8.542" style="fill:#8A8A9C;" width="3.464" height="0.998"/>
		<rect x="250.543" y="8.542" style="fill:#8B8A9C;" width="3.464" height="0.998"/>
		<rect x="250.029" y="8.542" style="fill:#8C8B9C;" width="3.464" height="0.998"/>
		<rect x="249.516" y="8.542" style="fill:#8D8C9B;" width="3.463" height="0.998"/>
		<rect x="249.002" y="8.542" style="fill:#8E8C9B;" width="3.463" height="0.998"/>
		<rect x="248.488" y="8.542" style="fill:#8F8D9B;" width="3.463" height="0.998"/>
		<rect x="247.975" y="8.542" style="fill:#908E9B;" width="3.463" height="0.998"/>
		<rect x="247.459" y="8.542" style="fill:#918F9B;" width="3.465" height="0.998"/>
		<rect x="246.946" y="8.542" style="fill:#928F9A;" width="3.464" height="0.998"/>
		<rect x="246.432" y="8.542" style="fill:#93909A;" width="3.465" height="0.998"/>
		<rect x="245.918" y="8.542" style="fill:#94919A;" width="3.465" height="0.998"/>
		<rect x="245.404" y="8.542" style="fill:#95919A;" width="3.465" height="0.998"/>
		<rect x="244.891" y="8.542" style="fill:#969299;" width="3.465" height="0.998"/>
		<rect x="244.377" y="8.542" style="fill:#979399;" width="3.464" height="0.998"/>
		<rect x="243.863" y="8.542" style="fill:#989499;" width="3.465" height="0.998"/>
		<rect x="243.35" y="8.542" style="fill:#989499;" width="3.465" height="0.998"/>
		<rect x="242.836" y="8.542" style="fill:#999598;" width="3.464" height="0.998"/>
		<rect x="242.322" y="8.542" style="fill:#9A9698;" width="3.464" height="0.998"/>
		<rect x="241.809" y="8.542" style="fill:#9B9698;" width="3.463" height="0.998"/>
		<rect x="241.295" y="8.542" style="fill:#9C9798;" width="3.463" height="0.998"/>
		<rect x="240.78" y="8.542" style="fill:#9D9897;" width="3.464" height="0.998"/>
		<rect x="240.267" y="8.542" style="fill:#9E9997;" width="3.464" height="0.998"/>
		<rect x="239.752" y="8.542" style="fill:#9F9997;" width="3.465" height="0.998"/>
		<rect x="239.239" y="8.542" style="fill:#A09A97;" width="3.464" height="0.998"/>
		<rect x="238.725" y="8.542" style="fill:#A19B96;" width="3.465" height="0.998"/>
		<rect x="238.211" y="8.542" style="fill:#A29B96;" width="3.465" height="0.998"/>
		<rect x="237.697" y="8.542" style="fill:#A39C96;" width="3.465" height="0.998"/>
		<rect x="237.184" y="8.542" style="fill:#A49D95;" width="3.464" height="0.998"/>
		<rect x="236.67" y="8.542" style="fill:#A59E95;" width="3.464" height="0.998"/>
		<rect x="236.156" y="8.542" style="fill:#A69E95;" width="3.464" height="0.998"/>
		<rect x="235.643" y="8.542" style="fill:#A79F95;" width="3.464" height="0.998"/>
		<rect x="235.129" y="8.542" style="fill:#A7A094;" width="3.463" height="0.998"/>
		<rect x="234.615" y="8.542" style="fill:#A8A194;" width="3.463" height="0.998"/>
		<rect x="234.102" y="8.542" style="fill:#A9A194;" width="3.463" height="0.998"/>
		<rect x="233.588" y="8.542" style="fill:#AAA293;" width="3.463" height="0.998"/>
		<rect x="233.074" y="8.542" style="fill:#ABA393;" width="3.463" height="0.998"/>
		<rect x="232.56" y="8.542" style="fill:#ACA393;" width="3.464" height="0.998"/>
		<rect x="232.045" y="8.542" style="fill:#ADA492;" width="3.465" height="0.998"/>
		<rect x="231.531" y="8.542" style="fill:#AEA592;" width="3.465" height="0.998"/>
		<rect x="231.018" y="8.542" style="fill:#AFA692;" width="3.465" height="0.998"/>
		<rect x="230.504" y="8.542" style="fill:#B0A691;" width="3.465" height="0.998"/>
		<rect x="229.99" y="8.542" style="fill:#B0A791;" width="3.465" height="0.998"/>
		<rect x="229.477" y="8.542" style="fill:#B1A891;" width="3.464" height="0.998"/>
		<rect x="228.963" y="8.542" style="fill:#B2A890;" width="3.465" height="0.998"/>
		<rect x="228.449" y="8.542" style="fill:#B3A990;" width="3.464" height="0.998"/>
		<rect x="227.936" y="8.542" style="fill:#B4AA90;" width="3.464" height="0.998"/>
		<rect x="227.422" y="8.542" style="fill:#B5AB8F;" width="3.463" height="0.998"/>
		<rect x="226.908" y="8.542" style="fill:#B6AB8F;" width="3.463" height="0.998"/>
		<rect x="226.395" y="8.542" style="fill:#B7AC8F;" width="3.463" height="0.998"/>
		<rect x="225.88" y="8.542" style="fill:#B8AD8E;" width="3.464" height="0.998"/>
		<rect x="225.367" y="8.542" style="fill:#B9AE8E;" width="3.463" height="0.998"/>
		<rect x="224.852" y="8.542" style="fill:#B9AE8D;" width="3.465" height="0.998"/>
		<rect x="224.339" y="8.542" style="fill:#BAAF8D;" width="3.464" height="0.998"/>
		<rect x="223.824" y="8.542" style="fill:#BBB08D;" width="3.465" height="0.998"/>
		<rect x="223.311" y="8.542" style="fill:#BCB08C;" width="3.465" height="0.998"/>
		<rect x="222.625" y="8.542" style="fill:#BDB18C;" width="3.463" height="0.998"/>
		<rect x="221.938" y="8.542" style="fill:#BDB18B;" width="3.465" height="0.998"/>
		<rect x="221.251" y="8.542" style="fill:#BDB28A;" width="3.464" height="0.998"/>
		<rect x="220.564" y="8.542" style="fill:#BEB28A;" width="3.463" height="0.998"/>
		<rect x="219.878" y="8.542" style="fill:#BEB289;" width="3.464" height="0.998"/>
		<rect x="219.191" y="8.542" style="fill:#BFB389;" width="3.463" height="0.998"/>
		<rect x="218.504" y="8.542" style="fill:#BFB388;" width="3.465" height="0.998"/>
		<rect x="217.818" y="8.542" style="fill:#BFB387;" width="3.463" height="0.998"/>
		<rect x="217.131" y="8.542" style="fill:#C0B487;" width="3.464" height="0.998"/>
		<rect x="216.444" y="8.542" style="fill:#C0B486;" width="3.464" height="0.998"/>
		<rect x="215.758" y="8.542" style="fill:#C1B585;" width="3.464" height="0.998"/>
		<rect x="215.07" y="8.542" style="fill:#C1B585;" width="3.465" height="0.998"/>
		<rect x="214.385" y="8.542" style="fill:#C1B584;" width="3.463" height="0.998"/>
		<rect x="213.697" y="8.542" style="fill:#C2B683;" width="3.465" height="0.998"/>
		<rect x="213.011" y="8.542" style="fill:#C2B683;" width="3.464" height="0.998"/>
		<rect x="212.324" y="8.542" style="fill:#C3B782;" width="3.464" height="0.998"/>
		<rect x="211.638" y="8.542" style="fill:#C3B781;" width="3.464" height="0.998"/>
		<rect x="210.951" y="8.542" style="fill:#C3B781;" width="3.463" height="0.998"/>
		<rect x="210.264" y="8.542" style="fill:#C4B880;" width="3.465" height="0.998"/>
		<rect x="209.578" y="8.542" style="fill:#C4B880;" width="3.463" height="0.998"/>
		<rect x="208.891" y="8.542" style="fill:#C5B87F;" width="3.464" height="0.998"/>
		<rect x="208.204" y="8.542" style="fill:#C5B97E;" width="3.464" height="0.998"/>
		<rect x="207.518" y="8.542" style="fill:#C6B97D;" width="3.464" height="0.998"/>
		<rect x="206.83" y="8.542" style="fill:#C6BA7D;" width="3.465" height="0.998"/>
		<rect x="206.145" y="8.542" style="fill:#C6BA7C;" width="3.463" height="0.998"/>
		<rect x="205.457" y="8.542" style="fill:#C7BA7B;" width="3.465" height="0.998"/>
		<rect x="204.771" y="8.542" style="fill:#C7BB7B;" width="3.464" height="0.998"/>
		<rect x="204.084" y="8.542" style="fill:#C8BB7A;" width="3.465" height="0.998"/>
		<rect x="203.397" y="8.542" style="fill:#C8BB79;" width="3.464" height="0.998"/>
		<rect x="202.711" y="8.542" style="fill:#C8BC79;" width="3.464" height="0.998"/>
		<rect x="202.023" y="8.542" style="fill:#C9BC78;" width="3.465" height="0.998"/>
		<rect x="201.338" y="8.542" style="fill:#C9BD77;" width="3.463" height="0.998"/>
		<rect x="200.65" y="8.542" style="fill:#CABD76;" width="3.465" height="0.998"/>
		<rect x="199.964" y="8.542" style="fill:#CABD76;" width="3.464" height="0.998"/>
		<rect x="199.277" y="8.542" style="fill:#CBBE75;" width="3.464" height="0.998"/>
		<rect x="198.591" y="8.542" style="fill:#CBBE74;" width="3.464" height="0.998"/>
		<rect x="197.904" y="8.542" style="fill:#CBBF73;" width="3.463" height="0.998"/>
		<rect x="197.217" y="8.542" style="fill:#CCBF73;" width="3.465" height="0.998"/>
		<rect x="196.531" y="8.542" style="fill:#CCBF72;" width="3.463" height="0.998"/>
		<rect x="195.844" y="8.542" style="fill:#CDC071;" width="3.464" height="0.998"/>
		<rect x="195.157" y="8.542" style="fill:#CDC070;" width="3.464" height="0.998"/>
		<rect x="194.471" y="8.542" style="fill:#CDC06F;" width="3.464" height="0.998"/>
		<rect x="193.783" y="8.542" style="fill:#CEC16F;" width="3.465" height="0.998"/>
		<rect x="193.098" y="8.542" style="fill:#CEC16E;" width="3.464" height="0.998"/>
		<rect x="192.41" y="8.542" style="fill:#CEC26D;" width="3.465" height="0.998"/>
		<rect x="191.724" y="8.542" style="fill:#CFC26C;" width="3.464" height="0.998"/>
		<rect x="191.037" y="8.542" style="fill:#CFC26B;" width="3.465" height="0.998"/>
		<rect x="190.351" y="8.542" style="fill:#D0C36B;" width="3.464" height="0.998"/>
		<rect x="189.664" y="8.542" style="fill:#D0C36A;" width="3.463" height="0.998"/>
		<rect x="188.977" y="8.542" style="fill:#D1C369;" width="3.465" height="0.998"/>
		<rect x="188.291" y="8.542" style="fill:#D1C468;" width="3.463" height="0.998"/>
		<rect x="187.604" y="8.542" style="fill:#D1C467;" width="3.464" height="0.998"/>
		<rect x="186.917" y="8.542" style="fill:#D2C566;" width="3.464" height="0.998"/>
		<rect x="186.23" y="8.542" style="fill:#D2C566;" width="3.464" height="0.998"/>
		<rect x="185.544" y="8.542" style="fill:#D3C565;" width="3.464" height="0.998"/>
		<rect x="184.857" y="8.542" style="fill:#D3C664;" width="3.463" height="0.998"/>
		<rect x="184.17" y="8.542" style="fill:#D3C663;" width="3.465" height="0.998"/>
		<rect x="183.484" y="8.542" style="fill:#D4C762;" width="3.463" height="0.998"/>
		<rect x="182.797" y="8.542" style="fill:#D4C761;" width="3.464" height="0.998"/>
		<rect x="182.11" y="8.542" style="fill:#D5C760;" width="3.464" height="0.998"/>
		<rect x="181.424" y="8.542" style="fill:#D5C85F;" width="3.464" height="0.998"/>
		<rect x="180.736" y="8.542" style="fill:#D5C85E;" width="3.465" height="0.998"/>
		<rect x="180.051" y="8.542" style="fill:#D6C85D;" width="3.463" height="0.998"/>
		<rect x="179.363" y="8.542" style="fill:#D6C95D;" width="3.465" height="0.998"/>
		<rect x="178.677" y="8.542" style="fill:#D7C95C;" width="3.464" height="0.998"/>
		<rect x="177.99" y="8.542" style="fill:#D7CA5B;" width="3.465" height="0.998"/>
		<rect x="177.304" y="8.542" style="fill:#D7CA5A;" width="3.464" height="0.998"/>
		<rect x="176.617" y="8.542" style="fill:#D8CA59;" width="3.463" height="0.998"/>
		<rect x="175.93" y="8.542" style="fill:#D8CB58;" width="3.465" height="0.998"/>
		<rect x="175.244" y="8.542" style="fill:#D9CB57;" width="3.463" height="0.998"/>
		<rect x="174.557" y="8.542" style="fill:#D9CB56;" width="3.464" height="0.998"/>
		<rect x="173.87" y="8.542" style="fill:#D9CC55;" width="3.464" height="0.998"/>
		<rect x="173.184" y="8.542" style="fill:#DACC54;" width="3.464" height="0.998"/>
		<rect x="172.496" y="8.542" style="fill:#DACD53;" width="3.465" height="0.998"/>
		<rect x="171.811" y="8.542" style="fill:#DBCD52;" width="3.464" height="0.998"/>
		<rect x="171.123" y="8.542" style="fill:#DBCD51;" width="3.465" height="0.998"/>
		<rect x="170.438" y="8.542" style="fill:#DBCE50;" width="3.463" height="0.998"/>
		<rect x="169.75" y="8.542" style="fill:#DCCE4E;" width="3.464" height="0.998"/>
		<rect x="169.063" y="8.542" style="fill:#DCCF4D;" width="3.464" height="0.998"/>
		<rect x="168.377" y="8.542" style="fill:#DDCF4C;" width="3.464" height="0.998"/>
		<rect x="167.689" y="8.542" style="fill:#DDCF4B;" width="3.465" height="0.998"/>
		<rect x="167.004" y="8.542" style="fill:#DED04A;" width="3.463" height="0.998"/>
		<rect x="166.316" y="8.542" style="fill:#DED049;" width="3.465" height="0.998"/>
		<rect x="165.63" y="8.542" style="fill:#DED148;" width="3.464" height="0.998"/>
		<rect x="164.943" y="8.542" style="fill:#DFD147;" width="3.464" height="0.998"/>
		<rect x="164.256" y="8.542" style="fill:#DFD145;" width="3.465" height="0.998"/>
		<rect x="163.57" y="8.542" style="fill:#E0D244;" width="3.463" height="0.998"/>
		<rect x="162.884" y="8.542" style="fill:#E0D243;" width="3.464" height="0.998"/>
		<rect x="162.197" y="8.542" style="fill:#E1D242;" width="3.463" height="0.998"/>
		<rect x="161.51" y="8.542" style="fill:#E1D340;" width="3.464" height="0.998"/>
		<rect x="160.823" y="8.542" style="fill:#E1D33F;" width="3.464" height="0.998"/>
		<rect x="160.137" y="8.542" style="fill:#E2D43D;" width="3.464" height="0.998"/>
		<rect x="159.449" y="8.542" style="fill:#E2D43C;" width="3.465" height="0.998"/>
		<rect x="158.764" y="8.542" style="fill:#E3D43B;" width="3.463" height="0.998"/>
		<rect x="158.076" y="8.542" style="fill:#E3D539;" width="3.465" height="0.998"/>
		<rect x="157.391" y="8.542" style="fill:#E3D538;" width="3.463" height="0.998"/>
		<rect x="156.703" y="8.542" style="fill:#E4D636;" width="3.465" height="0.998"/>
		<rect x="156.017" y="8.542" style="fill:#E4D634;" width="3.464" height="0.998"/>
		<rect x="155.33" y="8.542" style="fill:#E5D633;" width="3.463" height="0.998"/>
		<rect x="154.643" y="8.542" style="fill:#E5D731;" width="3.465" height="0.998"/>
		<rect x="153.957" y="8.542" style="fill:#E5D72F;" width="3.463" height="0.998"/>
		<rect x="153.27" y="8.542" style="fill:#E6D72D;" width="3.465" height="0.998"/>
		<rect x="152.583" y="8.542" style="fill:#E6D82B;" width="3.464" height="0.998"/>
		<rect x="151.896" y="8.542" style="fill:#E7D829;" width="3.464" height="0.998"/>
		<rect x="151.21" y="8.542" style="fill:#E7D927;" width="3.464" height="0.998"/>
		<rect x="150.523" y="8.542" style="fill:#E7D925;" width="3.463" height="0.998"/>
		<rect x="149.836" y="8.542" style="fill:#E8D923;" width="3.465" height="0.998"/>
	</g>
	<g>
		<path style="fill:#FFFFFF;" d="M0,0.434h3.228l2.491,11.004L8.797,0.434h2.729l3.123,11.004l2.467-11.004h3.229L16.46,17.672
			h-3.147L10.137,6.527L7.02,17.672H3.902L0,0.434z"/>
		<path style="fill:#FFFFFF;" d="M22.564,0h3.176v6.211c0.625-0.539,1.254-0.943,1.887-1.213s1.273-0.404,1.922-0.404
			c1.266,0,2.332,0.438,3.199,1.313c0.742,0.758,1.113,1.871,1.113,3.34v8.426h-3.152v-5.59c0-1.477-0.07-2.477-0.211-3
			s-0.381-0.914-0.721-1.172s-0.76-0.387-1.26-0.387c-0.648,0-1.205,0.215-1.67,0.645s-0.787,1.016-0.967,1.758
			c-0.094,0.383-0.141,1.258-0.141,2.625v5.121h-3.176V0z"/>
		<path style="fill:#FFFFFF;" d="M42.943,4.594c1.203,0,2.334,0.301,3.393,0.902s1.885,1.418,2.479,2.449s0.891,2.145,0.891,3.34
			c0,1.203-0.299,2.328-0.896,3.375s-1.412,1.865-2.443,2.455S44.197,18,42.955,18c-1.828,0-3.389-0.65-4.682-1.951
			s-1.939-2.881-1.939-4.74c0-1.992,0.73-3.652,2.191-4.98C39.807,5.172,41.279,4.594,42.943,4.594z M42.996,7.605
			c-0.994,0-1.821,0.346-2.482,1.037c-0.662,0.691-0.992,1.576-0.992,2.654c0,1.109,0.326,2.008,0.98,2.695
			c0.653,0.688,1.48,1.031,2.482,1.031s1.835-0.348,2.5-1.043s0.998-1.59,0.998-2.684s-0.327-1.982-0.98-2.666
			S44.014,7.605,42.996,7.605z"/>
		<path style="fill:#FFFFFF;" d="M57.621,4.922h3.132l2.563,7.254l2.759-7.254h1.915l2.709,7.172l2.567-7.172h3.151l-4.652,12.75
			h-2.027l-2.719-7.266l-2.801,7.266h-2.004L57.621,4.922z"/>
		<path style="fill:#FFFFFF;" d="M91.002,12.223H80.725c0.148,0.906,0.545,1.627,1.189,2.162s1.467,0.803,2.467,0.803
			c1.195,0,2.223-0.418,3.082-1.254l2.695,1.266c-0.672,0.953-1.477,1.658-2.414,2.115S85.693,18,84.404,18
			c-2,0-3.629-0.631-4.887-1.893s-1.887-2.842-1.887-4.74c0-1.945,0.627-3.561,1.881-4.846s2.826-1.928,4.717-1.928
			c2.008,0,3.641,0.643,4.898,1.928s1.887,2.982,1.887,5.092L91.002,12.223z M87.803,9.703c-0.211-0.711-0.628-1.289-1.25-1.734
			s-1.344-0.668-2.166-0.668c-0.893,0-1.675,0.25-2.348,0.75c-0.423,0.313-0.813,0.863-1.174,1.652H87.803z"/>
		<path style="fill:#2C50A2;" d="M10.365,33.723h3.199v12.75h-3.199v-1.348c-0.624,0.594-1.251,1.021-1.879,1.283
			s-1.309,0.393-2.042,0.393c-1.646,0-3.071-0.639-4.272-1.916c-1.202-1.277-1.803-2.865-1.803-4.764
			c0-1.969,0.581-3.582,1.744-4.84s2.575-1.887,4.237-1.887c0.765,0,1.482,0.145,2.153,0.434s1.291,0.723,1.861,1.301V33.723z
			 M7.002,36.348c-0.988,0-1.811,0.35-2.464,1.049c-0.654,0.699-0.981,1.596-0.981,2.689c0,1.102,0.333,2.008,0.998,2.719
			c0.666,0.711,1.485,1.066,2.459,1.066c1.005,0,1.838-0.35,2.499-1.049c0.662-0.699,0.993-1.615,0.993-2.748
			c0-1.109-0.331-2.008-0.993-2.695C8.852,36.691,8.015,36.348,7.002,36.348z"/>
		<path style="fill:#2C50A2;" d="M16.049,33.723h2.742v1.605c0.297-0.633,0.691-1.113,1.184-1.441s1.031-0.492,1.617-0.492
			c0.414,0,0.848,0.109,1.301,0.328l-0.996,2.754c-0.375-0.188-0.684-0.281-0.926-0.281c-0.492,0-0.908,0.305-1.248,0.914
			s-0.51,1.805-0.51,3.586l0.012,0.621v5.156h-3.176V33.723z"/>
		<path style="fill:#2C50A2;" d="M37.248,41.023H26.971c0.148,0.906,0.545,1.627,1.189,2.162s1.467,0.803,2.467,0.803
			c1.195,0,2.223-0.418,3.082-1.254L36.404,44c-0.672,0.953-1.477,1.658-2.414,2.115s-2.051,0.686-3.34,0.686
			c-2,0-3.629-0.631-4.887-1.893s-1.887-2.842-1.887-4.74c0-1.945,0.627-3.561,1.881-4.846s2.826-1.928,4.717-1.928
			c2.008,0,3.641,0.643,4.898,1.928s1.887,2.982,1.887,5.092L37.248,41.023z M34.049,38.504c-0.211-0.711-0.628-1.289-1.25-1.734
			s-1.344-0.668-2.166-0.668c-0.893,0-1.675,0.25-2.348,0.75c-0.423,0.313-0.813,0.863-1.174,1.652H34.049z"/>
	</g>
	<rect x="3.791" y="53.599" style="fill:#E9C41D;" width="30" height="2"/>
</g>
</svg>
