<?xml version="1.0" encoding="iso-8859-1"?>
<!-- Generator: Adobe Illustrator 16.0.0, SVG Export Plug-In . SVG Version: 6.00 Build 0)  -->
<!DOCTYPE svg PUBLIC "-//W3C//DTD SVG 1.1//EN" "http://www.w3.org/Graphics/SVG/1.1/DTD/svg11.dtd">
<svg version="1.1" id="&#x5716;&#x5C64;_1" xmlns="http://www.w3.org/2000/svg" xmlns:xlink="http://www.w3.org/1999/xlink" x="0px"
	 y="0px" width="355.43px" height="95.043px" viewBox="0 0 355.43 95.043" style="enable-background:new 0 0 355.43 95.043;"
	 xml:space="preserve">
<g>
	<g>
		<path style="fill:#FFFFFF;" d="M2.021,0.953h11.763v4.014h-7.69v3.896h7.69v3.939h-7.69v5.67h7.69V22.5H2.021V0.953z"/>
		<path style="fill:#FFFFFF;" d="M17.168,6.563h3.999v1.634c0.907-0.765,1.729-1.296,2.465-1.595
			c0.735-0.299,1.489-0.449,2.26-0.449c1.58,0,2.921,0.553,4.022,1.656c0.927,0.938,1.39,2.324,1.39,4.16V22.5h-3.955v-6.979
			c0-1.902-0.085-3.165-0.256-3.789c-0.171-0.625-0.468-1.101-0.892-1.428c-0.424-0.326-0.947-0.49-1.57-0.49
			c-0.809,0-1.503,0.271-2.083,0.813c-0.579,0.541-0.981,1.29-1.205,2.246c-0.117,0.498-0.176,1.575-0.176,3.233V22.5h-3.999V6.563z
			"/>
		<path style="fill:#FFFFFF;" d="M46.948,6.563h3.984v13.652c0,2.695-0.542,4.678-1.626,5.947c-1.455,1.719-3.647,2.578-6.577,2.578
			c-1.563,0-2.876-0.195-3.94-0.586s-1.963-0.964-2.695-1.721s-1.274-1.678-1.626-2.762h4.409c0.391,0.449,0.894,0.789,1.509,1.019
			s1.343,0.345,2.183,0.345c1.074,0,1.938-0.166,2.593-0.498s1.115-0.762,1.385-1.289c0.268-0.527,0.402-1.436,0.402-2.725
			c-0.703,0.703-1.44,1.208-2.212,1.516S43.091,22.5,42.114,22.5c-2.139,0-3.945-0.771-5.42-2.314s-2.212-3.496-2.212-5.859
			c0-2.529,0.781-4.561,2.344-6.094c1.416-1.387,3.105-2.08,5.068-2.08c0.918,0,1.784,0.169,2.601,0.506
			c0.814,0.337,1.633,0.891,2.453,1.662V6.563z M42.803,9.889c-1.26,0-2.3,0.422-3.12,1.267s-1.23,1.907-1.23,3.187
			c0,1.328,0.42,2.416,1.26,3.266s1.895,1.275,3.164,1.275c1.24,0,2.264-0.416,3.068-1.246c0.807-0.83,1.209-1.918,1.209-3.266
			c0-1.328-0.405-2.408-1.216-3.238S44.082,9.889,42.803,9.889z"/>
		<path style="fill:#FFFFFF;" d="M56.536,0c0.7,0,1.302,0.254,1.804,0.762c0.501,0.508,0.752,1.123,0.752,1.846
			c0,0.713-0.248,1.321-0.745,1.824c-0.496,0.503-1.091,0.754-1.781,0.754c-0.711,0-1.317-0.256-1.819-0.769
			c-0.501-0.513-0.752-1.136-0.752-1.868c0-0.703,0.248-1.303,0.745-1.801C55.235,0.25,55.834,0,56.536,0z M54.536,6.563h3.999V22.5
			h-3.999V6.563z"/>
		<path style="fill:#FFFFFF;" d="M62.168,6.563h3.999v1.634c0.907-0.765,1.729-1.296,2.465-1.595
			c0.735-0.299,1.489-0.449,2.26-0.449c1.58,0,2.921,0.553,4.022,1.656c0.927,0.938,1.39,2.324,1.39,4.16V22.5h-3.955v-6.979
			c0-1.902-0.085-3.165-0.256-3.789c-0.171-0.625-0.468-1.101-0.892-1.428c-0.424-0.326-0.947-0.49-1.57-0.49
			c-0.809,0-1.503,0.271-2.083,0.813c-0.579,0.541-0.981,1.29-1.205,2.246c-0.117,0.498-0.176,1.575-0.176,3.233V22.5h-3.999V6.563z
			"/>
		<path style="fill:#FFFFFF;" d="M96.138,15.689H83.291c0.186,1.133,0.681,2.033,1.487,2.702c0.805,0.669,1.833,1.003,3.083,1.003
			c1.494,0,2.778-0.521,3.853-1.566l3.369,1.582c-0.84,1.191-1.846,2.072-3.018,2.644s-2.563,0.856-4.175,0.856
			c-2.5,0-4.536-0.788-6.108-2.365s-2.358-3.553-2.358-5.926c0-2.432,0.784-4.45,2.351-6.057c1.568-1.606,3.533-2.41,5.896-2.41
			c2.51,0,4.551,0.804,6.123,2.41s2.358,3.729,2.358,6.365L96.138,15.689z M92.139,12.539c-0.264-0.889-0.785-1.611-1.563-2.168
			c-0.778-0.557-1.681-0.834-2.708-0.834c-1.114,0-2.093,0.313-2.934,0.938c-0.528,0.391-1.018,1.078-1.468,2.064H92.139z"/>
		<path style="fill:#FFFFFF;" d="M115.342,15.689h-12.847c0.186,1.133,0.681,2.033,1.487,2.702c0.805,0.669,1.833,1.003,3.083,1.003
			c1.494,0,2.778-0.521,3.853-1.566l3.369,1.582c-0.84,1.191-1.846,2.072-3.018,2.644s-2.563,0.856-4.175,0.856
			c-2.5,0-4.536-0.788-6.108-2.365s-2.358-3.553-2.358-5.926c0-2.432,0.784-4.45,2.351-6.057c1.568-1.606,3.533-2.41,5.896-2.41
			c2.51,0,4.551,0.804,6.123,2.41s2.358,3.729,2.358,6.365L115.342,15.689z M111.343,12.539c-0.264-0.889-0.785-1.611-1.563-2.168
			c-0.778-0.557-1.681-0.834-2.708-0.834c-1.114,0-2.093,0.313-2.934,0.938c-0.528,0.391-1.018,1.078-1.468,2.064H111.343z"/>
		<path style="fill:#FFFFFF;" d="M117.642,6.563h3.428V8.57c0.371-0.791,0.864-1.393,1.479-1.803s1.289-0.615,2.021-0.615
			c0.518,0,1.06,0.137,1.626,0.41l-1.245,3.443c-0.469-0.234-0.854-0.352-1.157-0.352c-0.615,0-1.135,0.381-1.561,1.143
			c-0.424,0.762-0.637,2.256-0.637,4.482l0.015,0.775V22.5h-3.97V6.563z"/>
		<path style="fill:#FFFFFF;" d="M137.93,8.789l-2.476,2.477c-1.006-0.996-1.919-1.494-2.739-1.494
			c-0.449,0-0.801,0.095-1.055,0.285s-0.381,0.428-0.381,0.711c0,0.215,0.08,0.412,0.242,0.593c0.16,0.181,0.559,0.427,1.193,0.739
			l1.465,0.732c1.543,0.762,2.603,1.539,3.179,2.33s0.864,1.719,0.864,2.783c0,1.416-0.52,2.598-1.561,3.545
			c-1.039,0.947-2.434,1.42-4.182,1.42c-2.324,0-4.18-0.908-5.566-2.725l2.461-2.68c0.469,0.547,1.018,0.988,1.648,1.325
			c0.629,0.337,1.188,0.505,1.677,0.505c0.527,0,0.952-0.127,1.274-0.381s0.483-0.547,0.483-0.879c0-0.615-0.581-1.215-1.743-1.801
			l-1.348-0.674c-2.578-1.299-3.867-2.926-3.867-4.879c0-1.26,0.485-2.336,1.457-3.229s2.215-1.341,3.729-1.341
			c1.035,0,2.009,0.228,2.922,0.682S137.295,7.939,137.93,8.789z"/>
		<path style="fill:#FFFFFF;" d="M143.291,18.443l2.856,1.436l-3.618,6.182l-1.992-0.953L143.291,18.443z"/>
		<path style="fill:#FFFFFF;" d="M13.33,36.41h3.999V58.5H13.33v-1.684c-0.78,0.742-1.563,1.276-2.349,1.604s-1.636,0.49-2.553,0.49
			c-2.059,0-3.839-0.798-5.341-2.395s-2.253-3.582-2.253-5.955c0-2.461,0.727-4.477,2.18-6.049c1.454-1.572,3.219-2.359,5.297-2.359
			c0.956,0,1.854,0.182,2.692,0.543s1.614,0.902,2.326,1.625V36.41z M9.126,45.844c-1.236,0-2.263,0.438-3.08,1.312
			s-1.227,1.995-1.227,3.362c0,1.377,0.416,2.51,1.248,3.398s1.856,1.332,3.073,1.332c1.256,0,2.297-0.437,3.124-1.311
			s1.241-2.02,1.241-3.436c0-1.387-0.414-2.51-1.241-3.369S10.392,45.844,9.126,45.844z"/>
		<path style="fill:#FFFFFF;" d="M37.339,51.689H24.492c0.186,1.133,0.681,2.033,1.487,2.702c0.805,0.669,1.833,1.003,3.083,1.003
			c1.494,0,2.778-0.521,3.853-1.566l3.369,1.582c-0.84,1.191-1.846,2.072-3.018,2.644s-2.563,0.856-4.175,0.856
			c-2.5,0-4.536-0.788-6.108-2.365s-2.358-3.553-2.358-5.926c0-2.432,0.784-4.45,2.351-6.057c1.568-1.606,3.533-2.41,5.896-2.41
			c2.51,0,4.551,0.804,6.123,2.41s2.358,3.729,2.358,6.365L37.339,51.689z M33.34,48.539c-0.264-0.889-0.785-1.611-1.563-2.168
			c-0.778-0.557-1.681-0.834-2.708-0.834c-1.114,0-2.093,0.313-2.934,0.938c-0.528,0.391-1.018,1.078-1.468,2.064H33.34z"/>
		<path style="fill:#FFFFFF;" d="M50.332,44.789l-2.476,2.477c-1.006-0.996-1.919-1.494-2.739-1.494
			c-0.449,0-0.801,0.095-1.055,0.285s-0.381,0.428-0.381,0.711c0,0.215,0.08,0.412,0.242,0.593c0.16,0.181,0.559,0.427,1.193,0.739
			l1.465,0.732c1.543,0.762,2.603,1.539,3.179,2.33s0.864,1.719,0.864,2.783c0,1.416-0.52,2.598-1.561,3.545
			c-1.039,0.947-2.434,1.42-4.182,1.42c-2.324,0-4.18-0.908-5.566-2.725l2.461-2.68c0.469,0.547,1.018,0.988,1.648,1.325
			c0.629,0.337,1.188,0.505,1.677,0.505c0.527,0,0.952-0.127,1.274-0.381s0.483-0.547,0.483-0.879c0-0.615-0.581-1.215-1.743-1.801
			l-1.348-0.674c-2.578-1.299-3.867-2.926-3.867-4.879c0-1.26,0.485-2.336,1.457-3.229s2.215-1.341,3.729-1.341
			c1.035,0,2.009,0.228,2.922,0.682S49.697,43.939,50.332,44.789z"/>
		<path style="fill:#FFFFFF;" d="M55.335,36c0.7,0,1.302,0.254,1.804,0.762c0.501,0.508,0.752,1.123,0.752,1.846
			c0,0.713-0.248,1.321-0.745,1.824c-0.496,0.503-1.091,0.754-1.781,0.754c-0.711,0-1.317-0.256-1.819-0.769
			c-0.501-0.513-0.752-1.136-0.752-1.868c0-0.703,0.248-1.303,0.745-1.801C54.034,36.25,54.633,36,55.335,36z M53.335,42.563h3.999
			V58.5h-3.999V42.563z"/>
		<path style="fill:#FFFFFF;" d="M72.744,42.563h3.984v13.652c0,2.695-0.542,4.678-1.626,5.947
			c-1.455,1.719-3.647,2.578-6.577,2.578c-1.563,0-2.876-0.195-3.94-0.586s-1.963-0.964-2.695-1.721s-1.274-1.678-1.626-2.762h4.409
			c0.391,0.449,0.894,0.789,1.509,1.019s1.343,0.345,2.183,0.345c1.074,0,1.938-0.166,2.593-0.498s1.115-0.762,1.385-1.289
			c0.268-0.527,0.402-1.436,0.402-2.725c-0.703,0.703-1.44,1.208-2.212,1.516S68.887,58.5,67.91,58.5
			c-2.139,0-3.945-0.771-5.42-2.314s-2.212-3.496-2.212-5.859c0-2.529,0.781-4.561,2.344-6.094c1.416-1.387,3.105-2.08,5.068-2.08
			c0.918,0,1.784,0.169,2.601,0.506c0.814,0.337,1.633,0.891,2.453,1.662V42.563z M68.599,45.889c-1.26,0-2.3,0.422-3.12,1.267
			s-1.23,1.907-1.23,3.187c0,1.328,0.42,2.416,1.26,3.266s1.895,1.275,3.164,1.275c1.24,0,2.264-0.416,3.068-1.246
			c0.807-0.83,1.209-1.918,1.209-3.266c0-1.328-0.405-2.408-1.216-3.238S69.878,45.889,68.599,45.889z"/>
		<path style="fill:#FFFFFF;" d="M80.771,42.563h3.999v1.634c0.907-0.765,1.729-1.296,2.465-1.595
			c0.735-0.299,1.489-0.449,2.26-0.449c1.58,0,2.921,0.553,4.022,1.656c0.927,0.938,1.39,2.324,1.39,4.16V58.5h-3.955v-6.979
			c0-1.902-0.085-3.165-0.256-3.789c-0.171-0.625-0.468-1.101-0.892-1.428c-0.424-0.326-0.947-0.49-1.57-0.49
			c-0.809,0-1.503,0.271-2.083,0.813c-0.579,0.541-0.981,1.29-1.205,2.246c-0.117,0.498-0.176,1.575-0.176,3.233V58.5h-3.999V42.563
			z"/>
		<path style="fill:#FFFFFF;" d="M114.741,51.689h-12.847c0.186,1.133,0.681,2.033,1.487,2.702c0.805,0.669,1.833,1.003,3.083,1.003
			c1.494,0,2.778-0.521,3.853-1.566l3.369,1.582c-0.84,1.191-1.846,2.072-3.018,2.644s-2.563,0.856-4.175,0.856
			c-2.5,0-4.536-0.788-6.108-2.365s-2.358-3.553-2.358-5.926c0-2.432,0.784-4.45,2.351-6.057c1.568-1.606,3.533-2.41,5.896-2.41
			c2.51,0,4.551,0.804,6.123,2.41s2.358,3.729,2.358,6.365L114.741,51.689z M110.742,48.539c-0.264-0.889-0.785-1.611-1.563-2.168
			c-0.778-0.557-1.681-0.834-2.708-0.834c-1.114,0-2.093,0.313-2.934,0.938c-0.528,0.391-1.018,1.078-1.468,2.064H110.742z"/>
		<path style="fill:#FFFFFF;" d="M117.041,42.563h3.428v2.008c0.371-0.791,0.864-1.393,1.479-1.803s1.289-0.615,2.021-0.615
			c0.518,0,1.06,0.137,1.626,0.41l-1.245,3.443c-0.469-0.234-0.854-0.352-1.157-0.352c-0.615,0-1.135,0.381-1.561,1.143
			c-0.424,0.762-0.637,2.256-0.637,4.482l0.015,0.775V58.5h-3.97V42.563z"/>
		<path style="fill:#FFFFFF;" d="M137.329,44.789l-2.476,2.477c-1.006-0.996-1.919-1.494-2.739-1.494
			c-0.449,0-0.801,0.095-1.055,0.285s-0.381,0.428-0.381,0.711c0,0.215,0.08,0.412,0.242,0.593c0.16,0.181,0.559,0.427,1.193,0.739
			l1.465,0.732c1.543,0.762,2.603,1.539,3.179,2.33s0.864,1.719,0.864,2.783c0,1.416-0.52,2.598-1.561,3.545
			c-1.039,0.947-2.434,1.42-4.182,1.42c-2.324,0-4.18-0.908-5.566-2.725l2.461-2.68c0.469,0.547,1.018,0.988,1.648,1.325
			c0.629,0.337,1.188,0.505,1.677,0.505c0.527,0,0.952-0.127,1.274-0.381s0.483-0.547,0.483-0.879c0-0.615-0.581-1.215-1.743-1.801
			l-1.348-0.674c-2.578-1.299-3.867-2.926-3.867-4.879c0-1.26,0.485-2.336,1.457-3.229s2.215-1.341,3.729-1.341
			c1.035,0,2.009,0.228,2.922,0.682S136.694,43.939,137.329,44.789z"/>
		<path style="fill:#FFFFFF;" d="M142.69,54.443l2.856,1.436l-3.618,6.182l-1.992-0.953L142.69,54.443z"/>
		<path style="fill:#FFFFFF;" d="M2.051,72.689H6.05v5.873h2.373v3.443H6.05V94.5H2.051V82.006H0v-3.443h2.051V72.689z"/>
		<path style="fill:#FFFFFF;" d="M10.576,72.41h3.97v7.764c0.781-0.674,1.567-1.179,2.358-1.516s1.592-0.506,2.402-0.506
			c1.582,0,2.915,0.547,3.999,1.641c0.928,0.947,1.392,2.34,1.392,4.176V94.5h-3.94v-6.986c0-1.846-0.088-3.096-0.264-3.75
			s-0.477-1.143-0.9-1.465c-0.426-0.322-0.95-0.484-1.575-0.484c-0.811,0-1.507,0.27-2.087,0.807
			c-0.582,0.537-0.984,1.27-1.209,2.197c-0.117,0.479-0.176,1.572-0.176,3.281v6.4h-3.97V72.41z"/>
		<path style="fill:#FFFFFF;" d="M30.125,72c0.7,0,1.302,0.254,1.804,0.762c0.501,0.508,0.752,1.123,0.752,1.846
			c0,0.713-0.248,1.321-0.745,1.824c-0.496,0.503-1.091,0.754-1.781,0.754c-0.711,0-1.317-0.256-1.819-0.769
			c-0.501-0.513-0.752-1.136-0.752-1.868c0-0.703,0.248-1.303,0.745-1.801C28.824,72.25,29.423,72,30.125,72z M28.125,78.563h3.999
			V94.5h-3.999V78.563z"/>
		<path style="fill:#FFFFFF;" d="M35.757,78.563h3.999v1.634c0.907-0.765,1.729-1.296,2.465-1.595
			c0.735-0.299,1.489-0.449,2.26-0.449c1.58,0,2.921,0.553,4.022,1.656c0.927,0.938,1.39,2.324,1.39,4.16V94.5h-3.955v-6.979
			c0-1.902-0.085-3.165-0.256-3.789c-0.171-0.625-0.468-1.101-0.892-1.428c-0.424-0.326-0.947-0.49-1.57-0.49
			c-0.809,0-1.503,0.271-2.083,0.813c-0.579,0.541-0.981,1.29-1.205,2.246c-0.117,0.498-0.176,1.575-0.176,3.233V94.5h-3.999V78.563
			z"/>
		<path style="fill:#FFFFFF;" d="M53.789,72.41h3.999v12.724l5.889-6.571h5.022l-6.866,7.639L69.52,94.5h-4.964l-6.768-7.345V94.5
			h-3.999V72.41z"/>
		<path style="fill:#FFFFFF;" d="M87.129,87.689H74.282c0.186,1.133,0.681,2.033,1.487,2.702c0.805,0.669,1.833,1.003,3.083,1.003
			c1.494,0,2.778-0.521,3.853-1.566l3.369,1.582c-0.84,1.191-1.846,2.072-3.018,2.644s-2.563,0.856-4.175,0.856
			c-2.5,0-4.536-0.788-6.108-2.365s-2.358-3.553-2.358-5.926c0-2.432,0.784-4.45,2.351-6.057c1.568-1.606,3.533-2.41,5.896-2.41
			c2.51,0,4.551,0.804,6.123,2.41s2.358,3.729,2.358,6.365L87.129,87.689z M83.13,84.539c-0.264-0.889-0.785-1.611-1.563-2.168
			c-0.778-0.557-1.681-0.834-2.708-0.834c-1.114,0-2.093,0.313-2.934,0.938c-0.528,0.391-1.018,1.078-1.468,2.064H83.13z"/>
		<path style="fill:#FFFFFF;" d="M89.429,78.563h3.428v2.008c0.371-0.791,0.864-1.393,1.479-1.803s1.289-0.615,2.021-0.615
			c0.518,0,1.06,0.137,1.626,0.41l-1.245,3.443c-0.469-0.234-0.854-0.352-1.157-0.352c-0.615,0-1.135,0.381-1.561,1.143
			c-0.424,0.762-0.637,2.256-0.637,4.482l0.015,0.775V94.5h-3.97V78.563z"/>
		<path style="fill:#FFFFFF;" d="M109.717,80.789l-2.476,2.477c-1.006-0.996-1.919-1.494-2.739-1.494
			c-0.449,0-0.801,0.095-1.055,0.285s-0.381,0.428-0.381,0.711c0,0.215,0.08,0.412,0.242,0.593c0.16,0.181,0.559,0.427,1.193,0.739
			l1.465,0.732c1.543,0.762,2.603,1.539,3.179,2.33s0.864,1.719,0.864,2.783c0,1.416-0.52,2.598-1.561,3.545
			c-1.039,0.947-2.434,1.42-4.182,1.42c-2.324,0-4.18-0.908-5.566-2.725l2.461-2.68c0.469,0.547,1.018,0.988,1.648,1.325
			c0.629,0.337,1.188,0.505,1.677,0.505c0.527,0,0.952-0.127,1.274-0.381s0.483-0.547,0.483-0.879c0-0.615-0.581-1.215-1.743-1.801
			l-1.348-0.674c-2.578-1.299-3.867-2.926-3.867-4.879c0-1.26,0.485-2.336,1.457-3.229s2.215-1.341,3.729-1.341
			c1.035,0,2.009,0.228,2.922,0.682S109.082,79.939,109.717,80.789z"/>
		<path style="fill:#FFFFFF;" d="M135.501,86.033l2.443,2.799l-1.11,1.01l-1.097,0.994l3.46,3.664h-4.973l-1.421-1.465
			c-2.266,1.338-4.37,2.008-6.314,2.008c-1.65,0-2.985-0.484-4.007-1.451c-1.021-0.967-1.53-2.207-1.53-3.721
			c0-1.143,0.289-2.221,0.867-3.236c0.579-1.016,1.568-2.066,2.971-3.15c-1.387-1.865-2.08-3.516-2.08-4.951
			c0-1.064,0.459-2.113,1.377-3.148s2.212-1.553,3.882-1.553c1.689,0,2.985,0.512,3.889,1.537s1.355,2.061,1.355,3.105
			c0,0.82-0.208,1.607-0.623,2.359s-1.369,1.865-2.863,3.34c1.749,2.061,2.877,3.344,3.386,3.852
			C133.425,87.791,134.221,87.127,135.501,86.033z M130.146,90.186c-0.755-0.74-1.817-1.969-3.188-3.684
			c-1.445,1.201-2.168,2.252-2.168,3.15c0,0.42,0.197,0.805,0.593,1.156c0.395,0.352,0.895,0.527,1.5,0.527
			C127.751,91.336,128.839,90.953,130.146,90.186z M127.705,81.287c1.084-0.928,1.626-1.748,1.626-2.461
			c0-0.371-0.122-0.674-0.366-0.908s-0.566-0.352-0.967-0.352c-0.371,0-0.687,0.133-0.945,0.396s-0.388,0.57-0.388,0.922
			C126.665,79.588,127.012,80.389,127.705,81.287z"/>
		<path style="fill:#FFFFFF;" d="M165.952,81.785l-3.329,1.832c-0.626-0.654-1.244-1.109-1.855-1.363s-1.327-0.381-2.148-0.381
			c-1.496,0-2.706,0.447-3.63,1.339s-1.386,2.035-1.386,3.43c0,1.354,0.444,2.462,1.335,3.319c0.89,0.859,2.058,1.287,3.505,1.287
			c1.789,0,3.183-0.609,4.18-1.83l3.153,2.158c-1.709,2.223-4.121,3.334-7.236,3.334c-2.803,0-4.998-0.83-6.585-2.49
			s-2.38-3.604-2.38-5.83c0-1.543,0.386-2.963,1.157-4.262s1.848-2.32,3.23-3.063c1.381-0.742,2.927-1.113,4.636-1.113
			c1.582,0,3.003,0.315,4.263,0.945S165.151,80.623,165.952,81.785z"/>
		<path style="fill:#FFFFFF;" d="M177.041,78.152c1.504,0,2.917,0.377,4.241,1.129c1.322,0.752,2.355,1.771,3.098,3.061
			s1.113,2.682,1.113,4.176c0,1.504-0.373,2.91-1.121,4.219c-0.746,1.309-1.765,2.331-3.054,3.068s-2.71,1.105-4.263,1.105
			c-2.285,0-4.236-0.813-5.852-2.438c-1.617-1.626-2.425-3.601-2.425-5.925c0-2.49,0.913-4.566,2.739-6.227
			C173.12,78.875,174.961,78.152,177.041,78.152z M177.106,81.918c-1.242,0-2.276,0.432-3.103,1.296
			c-0.827,0.864-1.24,1.97-1.24,3.317c0,1.387,0.408,2.51,1.226,3.369c0.816,0.859,1.851,1.289,3.104,1.289
			c1.252,0,2.293-0.434,3.125-1.303c0.831-0.869,1.247-1.988,1.247-3.355s-0.408-2.478-1.226-3.332
			C179.423,82.345,178.379,81.918,177.106,81.918z"/>
		<path style="fill:#FFFFFF;" d="M188.32,72.41h3.999V94.5h-3.999V72.41z"/>
		<path style="fill:#FFFFFF;" d="M195.513,72.41h3.999V94.5h-3.999V72.41z"/>
		<path style="fill:#FFFFFF;" d="M214.907,78.563h3.999V94.5h-3.999v-1.684c-0.78,0.742-1.563,1.276-2.349,1.604
			s-1.636,0.49-2.553,0.49c-2.059,0-3.839-0.798-5.341-2.395s-2.253-3.582-2.253-5.955c0-2.461,0.727-4.477,2.18-6.049
			c1.454-1.572,3.219-2.359,5.297-2.359c0.956,0,1.854,0.182,2.692,0.543s1.614,0.902,2.326,1.625V78.563z M210.703,81.844
			c-1.236,0-2.263,0.438-3.08,1.312s-1.227,1.995-1.227,3.362c0,1.377,0.416,2.51,1.248,3.398s1.856,1.332,3.073,1.332
			c1.256,0,2.297-0.437,3.124-1.311s1.241-2.02,1.241-3.436c0-1.387-0.414-2.51-1.241-3.369S211.969,81.844,210.703,81.844z"/>
		<path style="fill:#FFFFFF;" d="M226.919,72.41v7.91c0.723-0.723,1.504-1.264,2.344-1.625s1.738-0.543,2.695-0.543
			c2.08,0,3.848,0.787,5.303,2.359s2.183,3.588,2.183,6.049c0,2.373-0.752,4.358-2.256,5.955s-3.286,2.395-5.347,2.395
			c-0.918,0-1.772-0.163-2.563-0.49s-1.577-0.861-2.358-1.604V94.5h-3.97V72.41H226.919z M231.123,81.844
			c-1.26,0-2.305,0.43-3.135,1.289s-1.245,1.982-1.245,3.369c0,1.416,0.415,2.562,1.245,3.436s1.875,1.311,3.135,1.311
			c1.221,0,2.248-0.443,3.084-1.332c0.834-0.889,1.252-2.021,1.252-3.398c0-1.367-0.41-2.488-1.23-3.362
			S232.373,81.844,231.123,81.844z"/>
		<path style="fill:#FFFFFF;" d="M250.239,78.152c1.504,0,2.917,0.377,4.241,1.129c1.322,0.752,2.355,1.771,3.098,3.061
			s1.113,2.682,1.113,4.176c0,1.504-0.373,2.91-1.121,4.219c-0.746,1.309-1.765,2.331-3.054,3.068s-2.71,1.105-4.263,1.105
			c-2.285,0-4.236-0.813-5.852-2.438c-1.617-1.626-2.425-3.601-2.425-5.925c0-2.49,0.913-4.566,2.739-6.227
			C246.318,78.875,248.159,78.152,250.239,78.152z M250.305,81.918c-1.242,0-2.276,0.432-3.103,1.296
			c-0.827,0.864-1.24,1.97-1.24,3.317c0,1.387,0.408,2.51,1.226,3.369c0.816,0.859,1.851,1.289,3.104,1.289
			c1.252,0,2.293-0.434,3.125-1.303c0.831-0.869,1.247-1.988,1.247-3.355s-0.408-2.478-1.226-3.332
			C252.621,82.345,251.577,81.918,250.305,81.918z"/>
		<path style="fill:#FFFFFF;" d="M261.021,78.563h3.428v2.008c0.371-0.791,0.864-1.393,1.479-1.803s1.289-0.615,2.021-0.615
			c0.518,0,1.06,0.137,1.626,0.41l-1.245,3.443c-0.469-0.234-0.854-0.352-1.157-0.352c-0.615,0-1.135,0.381-1.561,1.143
			c-0.424,0.762-0.637,2.256-0.637,4.482l0.015,0.775V94.5h-3.97V78.563z"/>
		<path style="fill:#FFFFFF;" d="M283.315,78.563h3.999V94.5h-3.999v-1.684c-0.78,0.742-1.563,1.276-2.349,1.604
			s-1.636,0.49-2.553,0.49c-2.059,0-3.839-0.798-5.341-2.395s-2.253-3.582-2.253-5.955c0-2.461,0.727-4.477,2.18-6.049
			c1.454-1.572,3.219-2.359,5.297-2.359c0.956,0,1.854,0.182,2.692,0.543s1.614,0.902,2.326,1.625V78.563z M279.111,81.844
			c-1.236,0-2.263,0.438-3.08,1.312s-1.227,1.995-1.227,3.362c0,1.377,0.416,2.51,1.248,3.398s1.856,1.332,3.073,1.332
			c1.256,0,2.297-0.437,3.124-1.311s1.241-2.02,1.241-3.436c0-1.387-0.414-2.51-1.241-3.369S280.377,81.844,279.111,81.844z"/>
		<path style="fill:#FFFFFF;" d="M291.841,72.689h3.999v5.873h2.373v3.443h-2.373V94.5h-3.999V82.006h-2.051v-3.443h2.051V72.689z"
			/>
		<path style="fill:#FFFFFF;" d="M307.837,78.152c1.504,0,2.917,0.377,4.241,1.129c1.322,0.752,2.355,1.771,3.098,3.061
			s1.113,2.682,1.113,4.176c0,1.504-0.373,2.91-1.121,4.219c-0.746,1.309-1.765,2.331-3.054,3.068s-2.71,1.105-4.263,1.105
			c-2.285,0-4.236-0.813-5.852-2.438c-1.617-1.626-2.425-3.601-2.425-5.925c0-2.49,0.913-4.566,2.739-6.227
			C303.916,78.875,305.757,78.152,307.837,78.152z M307.902,81.918c-1.242,0-2.276,0.432-3.103,1.296
			c-0.827,0.864-1.24,1.97-1.24,3.317c0,1.387,0.408,2.51,1.226,3.369c0.816,0.859,1.851,1.289,3.104,1.289
			c1.252,0,2.293-0.434,3.125-1.303c0.831-0.869,1.247-1.988,1.247-3.355s-0.408-2.478-1.226-3.332
			C310.219,82.345,309.175,81.918,307.902,81.918z"/>
		<path style="fill:#FFFFFF;" d="M318.618,78.563h3.428v2.008c0.371-0.791,0.864-1.393,1.479-1.803s1.289-0.615,2.021-0.615
			c0.518,0,1.06,0.137,1.626,0.41l-1.245,3.443c-0.469-0.234-0.854-0.352-1.157-0.352c-0.615,0-1.135,0.381-1.561,1.143
			c-0.424,0.762-0.637,2.256-0.637,4.482l0.015,0.775V94.5h-3.97V78.563z"/>
		<path style="fill:#FFFFFF;" d="M338.906,80.789l-2.476,2.477c-1.006-0.996-1.919-1.494-2.739-1.494
			c-0.449,0-0.801,0.095-1.055,0.285s-0.381,0.428-0.381,0.711c0,0.215,0.08,0.412,0.242,0.593c0.16,0.181,0.559,0.427,1.193,0.739
			l1.465,0.732c1.543,0.762,2.603,1.539,3.179,2.33s0.864,1.719,0.864,2.783c0,1.416-0.52,2.598-1.561,3.545
			c-1.039,0.947-2.434,1.42-4.182,1.42c-2.324,0-4.18-0.908-5.566-2.725l2.461-2.68c0.469,0.547,1.018,0.988,1.648,1.325
			c0.629,0.337,1.188,0.505,1.677,0.505c0.527,0,0.952-0.127,1.274-0.381s0.483-0.547,0.483-0.879c0-0.615-0.581-1.215-1.743-1.801
			l-1.348-0.674c-2.578-1.299-3.867-2.926-3.867-4.879c0-1.26,0.485-2.336,1.457-3.229s2.215-1.341,3.729-1.341
			c1.035,0,2.009,0.228,2.922,0.682S338.271,79.939,338.906,80.789z"/>
		<path style="fill:#FFFFFF;" d="M352.91,89.9c0.693,0,1.286,0.244,1.779,0.732s0.74,1.08,0.74,1.773
			c0,0.684-0.247,1.271-0.74,1.765s-1.086,0.739-1.779,0.739s-1.284-0.244-1.772-0.732s-0.732-1.078-0.732-1.771
			s0.244-1.285,0.732-1.773S352.217,89.9,352.91,89.9z M350.889,72.41h4.043v15.748h-4.043V72.41z"/>
	</g>
</g>
</svg>
