<?xml version="1.0" encoding="iso-8859-1"?>
<!-- Generator: Adobe Illustrator 16.0.0, SVG Export Plug-In . SVG Version: 6.00 Build 0)  -->
<!DOCTYPE svg PUBLIC "-//W3C//DTD SVG 1.1//EN" "http://www.w3.org/Graphics/SVG/1.1/DTD/svg11.dtd">
<svg version="1.1" id="&#x5716;&#x5C64;_1" xmlns="http://www.w3.org/2000/svg" xmlns:xlink="http://www.w3.org/1999/xlink" x="0px"
	 y="0px" width="291.406px" height="51.136px" viewBox="0 0 291.406 51.136" style="enable-background:new 0 0 291.406 51.136;"
	 xml:space="preserve">
<g>
	<g>
		<g>
			<g>
				<rect x="140.992" y="7.803" style="fill:#2C50A2;" width="3.465" height="0.998"/>
				<rect x="141.508" y="7.802" style="fill:#2E51A2;" width="3.463" height="0.998"/>
				<rect x="142.021" y="7.802" style="fill:#2F51A2;" width="3.463" height="0.998"/>
				<rect x="142.533" y="7.802" style="fill:#3052A2;" width="3.465" height="0.998"/>
				<rect x="143.049" y="7.802" style="fill:#3253A2;" width="3.463" height="0.998"/>
				<rect x="143.563" y="7.802" style="fill:#3353A2;" width="3.463" height="0.998"/>
				<rect x="144.076" y="7.802" style="fill:#3454A2;" width="3.463" height="0.998"/>
				<rect x="144.59" y="7.802" style="fill:#3654A2;" width="3.463" height="0.998"/>
				<rect x="145.104" y="7.802" style="fill:#3755A2;" width="3.465" height="0.998"/>
				<rect x="145.617" y="7.802" style="fill:#3856A2;" width="3.463" height="0.998"/>
				<rect x="146.131" y="7.802" style="fill:#3956A2;" width="3.465" height="0.998"/>
				<rect x="146.645" y="7.802" style="fill:#3A57A2;" width="3.465" height="0.998"/>
				<rect x="147.158" y="7.802" style="fill:#3C57A2;" width="3.465" height="0.998"/>
				<rect x="147.672" y="7.802" style="fill:#3D58A2;" width="3.465" height="0.998"/>
				<rect x="148.186" y="7.802" style="fill:#3E59A2;" width="3.465" height="0.998"/>
				<rect x="148.701" y="7.802" style="fill:#3F59A2;" width="3.463" height="0.998"/>
				<rect x="149.215" y="7.802" style="fill:#405AA2;" width="3.463" height="0.998"/>
				<rect x="149.727" y="7.802" style="fill:#415AA2;" width="3.465" height="0.998"/>
				<rect x="150.242" y="7.802" style="fill:#425BA2;" width="3.463" height="0.998"/>
				<rect x="150.756" y="7.802" style="fill:#445CA2;" width="3.463" height="0.998"/>
				<rect x="151.27" y="7.802" style="fill:#455CA2;" width="3.463" height="0.998"/>
				<rect x="151.783" y="7.802" style="fill:#465DA2;" width="3.463" height="0.998"/>
				<rect x="152.297" y="7.802" style="fill:#475DA2;" width="3.465" height="0.998"/>
				<rect x="152.811" y="7.802" style="fill:#485EA2;" width="3.465" height="0.998"/>
				<rect x="153.324" y="7.802" style="fill:#495FA2;" width="3.463" height="0.998"/>
				<rect x="153.838" y="7.802" style="fill:#4B5FA2;" width="3.465" height="0.998"/>
				<rect x="154.352" y="7.802" style="fill:#4C60A2;" width="3.465" height="0.998"/>
				<rect x="154.865" y="7.802" style="fill:#4D61A2;" width="3.465" height="0.998"/>
				<rect x="155.379" y="7.802" style="fill:#4E61A2;" width="3.465" height="0.998"/>
				<rect x="155.895" y="7.802" style="fill:#4F62A2;" width="3.463" height="0.998"/>
				<rect x="156.408" y="7.802" style="fill:#5062A2;" width="3.463" height="0.998"/>
				<rect x="156.922" y="7.802" style="fill:#5163A2;" width="3.463" height="0.998"/>
				<rect x="157.436" y="7.802" style="fill:#5264A2;" width="3.463" height="0.998"/>
				<rect x="157.949" y="7.802" style="fill:#5364A2;" width="3.463" height="0.998"/>
				<rect x="158.463" y="7.802" style="fill:#5565A2;" width="3.463" height="0.998"/>
				<rect x="158.977" y="7.802" style="fill:#5666A2;" width="3.463" height="0.998"/>
				<rect x="159.49" y="7.802" style="fill:#5766A2;" width="3.465" height="0.998"/>
				<rect x="160.004" y="7.802" style="fill:#5867A2;" width="3.465" height="0.998"/>
				<rect x="160.518" y="7.802" style="fill:#5968A2;" width="3.465" height="0.998"/>
				<rect x="161.031" y="7.802" style="fill:#5A68A2;" width="3.465" height="0.998"/>
				<rect x="161.545" y="7.802" style="fill:#5B69A2;" width="3.465" height="0.998"/>
				<rect x="162.059" y="7.802" style="fill:#5C6AA2;" width="3.465" height="0.998"/>
				<rect x="162.572" y="7.802" style="fill:#5D6AA1;" width="3.465" height="0.998"/>
				<rect x="163.088" y="7.802" style="fill:#5E6BA1;" width="3.463" height="0.998"/>
				<rect x="163.602" y="7.802" style="fill:#5F6CA1;" width="3.463" height="0.998"/>
				<rect x="164.115" y="7.802" style="fill:#606CA1;" width="3.463" height="0.998"/>
				<rect x="164.629" y="7.802" style="fill:#616DA1;" width="3.463" height="0.998"/>
				<rect x="165.143" y="7.802" style="fill:#626EA1;" width="3.463" height="0.998"/>
				<rect x="165.656" y="7.802" style="fill:#636EA1;" width="3.463" height="0.998"/>
				<rect x="166.17" y="7.802" style="fill:#646FA1;" width="3.463" height="0.998"/>
				<rect x="166.684" y="7.802" style="fill:#656FA1;" width="3.465" height="0.998"/>
				<rect x="167.197" y="7.802" style="fill:#6670A1;" width="3.465" height="0.998"/>
				<rect x="167.711" y="7.802" style="fill:#6771A1;" width="3.465" height="0.998"/>
				<rect x="168.225" y="7.802" style="fill:#6871A1;" width="3.463" height="0.998"/>
				<rect x="168.738" y="7.802" style="fill:#6972A1;" width="3.465" height="0.998"/>
				<rect x="169.252" y="7.802" style="fill:#6A73A1;" width="3.465" height="0.998"/>
				<rect x="169.766" y="7.802" style="fill:#6B73A0;" width="3.465" height="0.998"/>
				<rect x="170.281" y="7.802" style="fill:#6C74A0;" width="3.463" height="0.998"/>
				<rect x="170.795" y="7.802" style="fill:#6D75A0;" width="3.463" height="0.998"/>
				<rect x="171.309" y="7.802" style="fill:#6E75A0;" width="3.463" height="0.998"/>
				<rect x="171.822" y="7.802" style="fill:#6F76A0;" width="3.463" height="0.998"/>
				<rect x="172.336" y="7.802" style="fill:#7077A0;" width="3.463" height="0.998"/>
				<rect x="172.85" y="7.802" style="fill:#7177A0;" width="3.463" height="0.998"/>
				<rect x="173.363" y="7.802" style="fill:#7278A0;" width="3.463" height="0.998"/>
				<rect x="173.877" y="7.802" style="fill:#7379A0;" width="3.465" height="0.998"/>
				<rect x="174.391" y="7.802" style="fill:#73799F;" width="3.465" height="0.998"/>
				<rect x="174.904" y="7.802" style="fill:#747A9F;" width="3.465" height="0.998"/>
				<rect x="175.418" y="7.802" style="fill:#757B9F;" width="3.465" height="0.998"/>
				<rect x="175.932" y="7.802" style="fill:#767B9F;" width="3.465" height="0.998"/>
				<rect x="176.445" y="7.802" style="fill:#777C9F;" width="3.465" height="0.998"/>
				<rect x="176.959" y="7.802" style="fill:#787D9F;" width="3.465" height="0.998"/>
				<rect x="177.473" y="7.802" style="fill:#797D9F;" width="3.465" height="0.998"/>
				<rect x="177.988" y="7.802" style="fill:#7A7E9F;" width="3.463" height="0.998"/>
				<rect x="178.502" y="7.802" style="fill:#7B7F9E;" width="3.463" height="0.998"/>
				<rect x="179.016" y="7.802" style="fill:#7C7F9E;" width="3.463" height="0.998"/>
				<rect x="179.529" y="7.802" style="fill:#7D809E;" width="3.463" height="0.998"/>
				<rect x="180.043" y="7.802" style="fill:#7E819E;" width="3.463" height="0.998"/>
				<rect x="180.557" y="7.802" style="fill:#7F819E;" width="3.463" height="0.998"/>
				<rect x="181.07" y="7.802" style="fill:#80829E;" width="3.463" height="0.998"/>
				<rect x="181.584" y="7.802" style="fill:#81839E;" width="3.465" height="0.998"/>
				<rect x="182.098" y="7.802" style="fill:#82839D;" width="3.465" height="0.998"/>
				<rect x="182.611" y="7.802" style="fill:#83849D;" width="3.465" height="0.998"/>
				<rect x="183.125" y="7.802" style="fill:#84859D;" width="3.465" height="0.998"/>
				<rect x="183.639" y="7.802" style="fill:#85859D;" width="3.465" height="0.998"/>
				<rect x="184.152" y="7.802" style="fill:#85869D;" width="3.465" height="0.998"/>
				<rect x="184.666" y="7.802" style="fill:#86879D;" width="3.465" height="0.998"/>
				<rect x="185.182" y="7.802" style="fill:#87889C;" width="3.463" height="0.998"/>
				<rect x="185.695" y="7.802" style="fill:#88889C;" width="3.463" height="0.998"/>
				<rect x="186.209" y="7.802" style="fill:#89899C;" width="3.463" height="0.998"/>
				<rect x="186.723" y="7.802" style="fill:#8A8A9C;" width="3.463" height="0.998"/>
				<rect x="187.236" y="7.802" style="fill:#8B8A9C;" width="3.463" height="0.998"/>
				<rect x="187.75" y="7.802" style="fill:#8C8B9C;" width="3.463" height="0.998"/>
				<rect x="188.264" y="7.802" style="fill:#8D8C9B;" width="3.463" height="0.998"/>
				<rect x="188.777" y="7.802" style="fill:#8E8C9B;" width="3.465" height="0.998"/>
				<rect x="189.291" y="7.802" style="fill:#8F8D9B;" width="3.465" height="0.998"/>
				<rect x="189.805" y="7.802" style="fill:#908E9B;" width="3.465" height="0.998"/>
				<rect x="190.318" y="7.802" style="fill:#918F9B;" width="3.465" height="0.998"/>
				<rect x="190.832" y="7.802" style="fill:#928F9A;" width="3.465" height="0.998"/>
				<rect x="191.346" y="7.802" style="fill:#93909A;" width="3.465" height="0.998"/>
				<rect x="191.859" y="7.802" style="fill:#94919A;" width="3.465" height="0.998"/>
				<rect x="192.375" y="7.802" style="fill:#95919A;" width="3.463" height="0.998"/>
				<rect x="192.889" y="7.802" style="fill:#969299;" width="3.463" height="0.998"/>
				<rect x="193.402" y="7.802" style="fill:#979399;" width="3.463" height="0.998"/>
				<rect x="193.916" y="7.802" style="fill:#989499;" width="3.463" height="0.998"/>
				<rect x="194.43" y="7.802" style="fill:#989499;" width="3.463" height="0.998"/>
				<rect x="194.943" y="7.802" style="fill:#999598;" width="3.463" height="0.998"/>
				<rect x="195.457" y="7.802" style="fill:#9A9698;" width="3.463" height="0.998"/>
				<rect x="195.971" y="7.802" style="fill:#9B9698;" width="3.465" height="0.998"/>
				<rect x="196.484" y="7.802" style="fill:#9C9798;" width="3.465" height="0.998"/>
				<rect x="196.998" y="7.802" style="fill:#9D9897;" width="3.465" height="0.998"/>
				<rect x="197.512" y="7.802" style="fill:#9E9997;" width="3.465" height="0.998"/>
				<rect x="198.025" y="7.802" style="fill:#9F9997;" width="3.465" height="0.998"/>
				<rect x="198.539" y="7.802" style="fill:#A09A97;" width="3.465" height="0.998"/>
				<rect x="199.053" y="7.802" style="fill:#A19B96;" width="3.465" height="0.998"/>
				<rect x="199.568" y="7.802" style="fill:#A29B96;" width="3.463" height="0.998"/>
				<rect x="200.082" y="7.802" style="fill:#A39C96;" width="3.463" height="0.998"/>
				<rect x="200.596" y="7.802" style="fill:#A49D95;" width="3.463" height="0.998"/>
				<rect x="201.109" y="7.802" style="fill:#A59E95;" width="3.463" height="0.998"/>
				<rect x="201.623" y="7.802" style="fill:#A69E95;" width="3.463" height="0.998"/>
				<rect x="202.137" y="7.802" style="fill:#A79F95;" width="3.463" height="0.998"/>
				<rect x="202.65" y="7.802" style="fill:#A7A094;" width="3.463" height="0.998"/>
				<rect x="203.164" y="7.802" style="fill:#A8A194;" width="3.465" height="0.998"/>
				<rect x="203.678" y="7.802" style="fill:#A9A194;" width="3.465" height="0.998"/>
				<rect x="204.191" y="7.802" style="fill:#AAA293;" width="3.465" height="0.998"/>
				<rect x="204.705" y="7.802" style="fill:#ABA393;" width="3.465" height="0.998"/>
				<rect x="205.219" y="7.802" style="fill:#ACA393;" width="3.465" height="0.998"/>
				<rect x="205.732" y="7.802" style="fill:#ADA492;" width="3.465" height="0.998"/>
				<rect x="206.246" y="7.802" style="fill:#AEA592;" width="3.465" height="0.998"/>
				<rect x="206.76" y="7.802" style="fill:#AFA692;" width="3.465" height="0.998"/>
				<rect x="207.275" y="7.802" style="fill:#B0A691;" width="3.463" height="0.998"/>
				<rect x="207.789" y="7.802" style="fill:#B0A791;" width="3.463" height="0.998"/>
				<rect x="208.303" y="7.802" style="fill:#B1A891;" width="3.463" height="0.998"/>
				<rect x="208.816" y="7.802" style="fill:#B2A890;" width="3.463" height="0.998"/>
				<rect x="209.33" y="7.802" style="fill:#B3A990;" width="3.463" height="0.998"/>
				<rect x="209.844" y="7.802" style="fill:#B4AA90;" width="3.463" height="0.998"/>
				<rect x="210.357" y="7.802" style="fill:#B5AB8F;" width="3.463" height="0.998"/>
				<rect x="210.871" y="7.802" style="fill:#B6AB8F;" width="3.465" height="0.998"/>
				<rect x="211.385" y="7.802" style="fill:#B7AC8F;" width="3.465" height="0.998"/>
				<rect x="211.898" y="7.802" style="fill:#B8AD8E;" width="3.465" height="0.998"/>
				<rect x="212.414" y="7.802" style="fill:#B9AE8E;" width="3.463" height="0.998"/>
				<rect x="212.926" y="7.802" style="fill:#B9AE8D;" width="3.465" height="0.998"/>
				<rect x="213.439" y="7.802" style="fill:#BAAF8D;" width="3.465" height="0.998"/>
				<rect x="213.953" y="7.802" style="fill:#BBB08D;" width="3.465" height="0.998"/>
				<rect x="214.469" y="7.802" style="fill:#BCB08C;" width="3.463" height="0.998"/>
				<rect x="215.154" y="7.802" style="fill:#BDB18C;" width="3.465" height="0.998"/>
				<rect x="215.842" y="7.802" style="fill:#BDB18B;" width="3.463" height="0.998"/>
				<rect x="216.527" y="7.802" style="fill:#BDB28A;" width="3.465" height="0.998"/>
				<rect x="217.215" y="7.802" style="fill:#BEB28A;" width="3.465" height="0.998"/>
				<rect x="217.902" y="7.802" style="fill:#BEB289;" width="3.463" height="0.998"/>
				<rect x="218.588" y="7.802" style="fill:#BFB389;" width="3.465" height="0.998"/>
				<rect x="219.275" y="7.802" style="fill:#BFB388;" width="3.463" height="0.998"/>
				<rect x="219.961" y="7.802" style="fill:#BFB387;" width="3.465" height="0.998"/>
				<rect x="220.648" y="7.802" style="fill:#C0B487;" width="3.463" height="0.998"/>
				<rect x="221.334" y="7.802" style="fill:#C0B486;" width="3.465" height="0.998"/>
				<rect x="222.021" y="7.802" style="fill:#C1B585;" width="3.463" height="0.998"/>
				<rect x="222.707" y="7.802" style="fill:#C1B585;" width="3.465" height="0.998"/>
				<rect x="223.395" y="7.802" style="fill:#C1B584;" width="3.465" height="0.998"/>
				<rect x="224.082" y="7.802" style="fill:#C2B683;" width="3.463" height="0.998"/>
				<rect x="224.768" y="7.802" style="fill:#C2B683;" width="3.465" height="0.998"/>
				<rect x="225.455" y="7.802" style="fill:#C3B782;" width="3.463" height="0.998"/>
				<rect x="226.141" y="7.802" style="fill:#C3B781;" width="3.465" height="0.998"/>
				<rect x="226.828" y="7.802" style="fill:#C3B781;" width="3.463" height="0.998"/>
				<rect x="227.516" y="7.802" style="fill:#C4B880;" width="3.463" height="0.998"/>
				<rect x="228.201" y="7.802" style="fill:#C4B880;" width="3.465" height="0.998"/>
				<rect x="228.889" y="7.802" style="fill:#C5B87F;" width="3.463" height="0.998"/>
				<rect x="229.574" y="7.802" style="fill:#C5B97E;" width="3.465" height="0.998"/>
				<rect x="230.262" y="7.802" style="fill:#C6B97D;" width="3.463" height="0.998"/>
				<rect x="230.947" y="7.802" style="fill:#C6BA7D;" width="3.465" height="0.998"/>
				<rect x="231.635" y="7.802" style="fill:#C6BA7C;" width="3.465" height="0.998"/>
				<rect x="232.322" y="7.802" style="fill:#C7BA7B;" width="3.463" height="0.998"/>
				<rect x="233.008" y="7.802" style="fill:#C7BB7B;" width="3.465" height="0.998"/>
				<rect x="233.695" y="7.802" style="fill:#C8BB7A;" width="3.463" height="0.998"/>
				<rect x="234.381" y="7.802" style="fill:#C8BB79;" width="3.465" height="0.998"/>
				<rect x="235.068" y="7.802" style="fill:#C8BC79;" width="3.463" height="0.998"/>
				<rect x="235.754" y="7.802" style="fill:#C9BC78;" width="3.465" height="0.998"/>
				<rect x="236.441" y="7.802" style="fill:#C9BD77;" width="3.465" height="0.998"/>
				<rect x="237.129" y="7.802" style="fill:#CABD76;" width="3.463" height="0.998"/>
				<rect x="237.814" y="7.802" style="fill:#CABD76;" width="3.465" height="0.998"/>
				<rect x="238.502" y="7.802" style="fill:#CBBE75;" width="3.465" height="0.998"/>
				<rect x="239.188" y="7.802" style="fill:#CBBE74;" width="3.465" height="0.998"/>
				<rect x="239.875" y="7.802" style="fill:#CBBF73;" width="3.463" height="0.998"/>
				<rect x="240.563" y="7.802" style="fill:#CCBF73;" width="3.463" height="0.998"/>
				<rect x="241.248" y="7.802" style="fill:#CCBF72;" width="3.465" height="0.998"/>
				<rect x="241.936" y="7.802" style="fill:#CDC071;" width="3.463" height="0.998"/>
				<rect x="242.621" y="7.802" style="fill:#CDC070;" width="3.465" height="0.998"/>
				<rect x="243.309" y="7.802" style="fill:#CDC06F;" width="3.463" height="0.998"/>
				<rect x="243.996" y="7.802" style="fill:#CEC16F;" width="3.463" height="0.998"/>
				<rect x="244.682" y="7.802" style="fill:#CEC16E;" width="3.465" height="0.998"/>
				<rect x="245.369" y="7.802" style="fill:#CEC26D;" width="3.463" height="0.998"/>
				<rect x="246.055" y="7.802" style="fill:#CFC26C;" width="3.465" height="0.998"/>
				<rect x="246.742" y="7.802" style="fill:#CFC26B;" width="3.463" height="0.998"/>
				<rect x="247.428" y="7.802" style="fill:#D0C36B;" width="3.465" height="0.998"/>
				<rect x="248.115" y="7.802" style="fill:#D0C36A;" width="3.463" height="0.998"/>
				<rect x="248.803" y="7.802" style="fill:#D1C369;" width="3.463" height="0.998"/>
				<rect x="249.488" y="7.802" style="fill:#D1C468;" width="3.465" height="0.998"/>
				<rect x="250.176" y="7.802" style="fill:#D1C467;" width="3.463" height="0.998"/>
				<rect x="250.861" y="7.802" style="fill:#D2C566;" width="3.465" height="0.998"/>
				<rect x="251.549" y="7.802" style="fill:#D2C566;" width="3.463" height="0.998"/>
				<rect x="252.236" y="7.802" style="fill:#D3C565;" width="3.463" height="0.998"/>
				<rect x="252.922" y="7.802" style="fill:#D3C664;" width="3.465" height="0.998"/>
				<rect x="253.609" y="7.802" style="fill:#D3C663;" width="3.463" height="0.998"/>
				<rect x="254.295" y="7.802" style="fill:#D4C762;" width="3.465" height="0.998"/>
				<rect x="254.982" y="7.802" style="fill:#D4C761;" width="3.463" height="0.998"/>
				<rect x="255.668" y="7.802" style="fill:#D5C760;" width="3.465" height="0.998"/>
				<rect x="256.355" y="7.802" style="fill:#D5C85F;" width="3.465" height="0.998"/>
				<rect x="257.043" y="7.802" style="fill:#D5C85E;" width="3.463" height="0.998"/>
				<rect x="257.729" y="7.802" style="fill:#D6C85D;" width="3.465" height="0.998"/>
				<rect x="258.416" y="7.802" style="fill:#D6C95D;" width="3.463" height="0.998"/>
				<rect x="259.102" y="7.802" style="fill:#D7C95C;" width="3.465" height="0.998"/>
				<rect x="259.789" y="7.802" style="fill:#D7CA5B;" width="3.463" height="0.998"/>
				<rect x="260.475" y="7.802" style="fill:#D7CA5A;" width="3.465" height="0.998"/>
				<rect x="261.162" y="7.802" style="fill:#D8CA59;" width="3.463" height="0.998"/>
				<rect x="261.85" y="7.802" style="fill:#D8CB58;" width="3.463" height="0.998"/>
				<rect x="262.535" y="7.802" style="fill:#D9CB57;" width="3.465" height="0.998"/>
				<rect x="263.223" y="7.802" style="fill:#D9CB56;" width="3.463" height="0.998"/>
				<rect x="263.91" y="7.802" style="fill:#D9CC55;" width="3.463" height="0.998"/>
				<rect x="264.596" y="7.802" style="fill:#DACC54;" width="3.465" height="0.998"/>
				<rect x="265.283" y="7.802" style="fill:#DACD53;" width="3.463" height="0.998"/>
				<rect x="265.969" y="7.802" style="fill:#DBCD52;" width="3.465" height="0.998"/>
				<rect x="266.656" y="7.802" style="fill:#DBCD51;" width="3.463" height="0.998"/>
				<rect x="267.342" y="7.802" style="fill:#DBCE50;" width="3.465" height="0.998"/>
				<rect x="268.027" y="7.802" style="fill:#DCCE4E;" width="3.465" height="0.998"/>
				<rect x="268.715" y="7.802" style="fill:#DCCF4D;" width="3.465" height="0.998"/>
				<rect x="269.402" y="7.802" style="fill:#DDCF4C;" width="3.463" height="0.998"/>
				<rect x="270.09" y="7.802" style="fill:#DDCF4B;" width="3.463" height="0.998"/>
				<rect x="270.775" y="7.802" style="fill:#DED04A;" width="3.465" height="0.998"/>
				<rect x="271.463" y="7.802" style="fill:#DED049;" width="3.463" height="0.998"/>
				<rect x="272.148" y="7.802" style="fill:#DED148;" width="3.465" height="0.998"/>
				<rect x="272.836" y="7.802" style="fill:#DFD147;" width="3.465" height="0.998"/>
				<rect x="273.521" y="7.802" style="fill:#DFD145;" width="3.465" height="0.998"/>
				<rect x="274.209" y="7.802" style="fill:#E0D244;" width="3.463" height="0.998"/>
				<rect x="274.896" y="7.802" style="fill:#E0D243;" width="3.463" height="0.998"/>
				<rect x="275.582" y="7.802" style="fill:#E1D242;" width="3.465" height="0.998"/>
				<rect x="276.27" y="7.802" style="fill:#E1D340;" width="3.463" height="0.998"/>
				<rect x="276.957" y="7.802" style="fill:#E1D33F;" width="3.463" height="0.998"/>
				<rect x="277.643" y="7.802" style="fill:#E2D43D;" width="3.463" height="0.998"/>
				<rect x="278.328" y="7.802" style="fill:#E2D43C;" width="3.465" height="0.998"/>
				<rect x="279.016" y="7.802" style="fill:#E3D43B;" width="3.465" height="0.998"/>
				<rect x="279.703" y="7.802" style="fill:#E3D539;" width="3.463" height="0.998"/>
				<rect x="280.389" y="7.802" style="fill:#E3D538;" width="3.465" height="0.998"/>
				<rect x="281.076" y="7.802" style="fill:#E4D636;" width="3.463" height="0.998"/>
				<rect x="281.762" y="7.802" style="fill:#E4D634;" width="3.465" height="0.998"/>
				<rect x="282.449" y="7.802" style="fill:#E5D633;" width="3.463" height="0.998"/>
				<rect x="283.135" y="7.802" style="fill:#E5D731;" width="3.465" height="0.998"/>
				<rect x="283.822" y="7.802" style="fill:#E5D72F;" width="3.465" height="0.998"/>
				<rect x="284.508" y="7.802" style="fill:#E6D72D;" width="3.465" height="0.998"/>
				<rect x="285.195" y="7.802" style="fill:#E6D82B;" width="3.465" height="0.998"/>
				<rect x="285.883" y="7.802" style="fill:#E7D829;" width="3.463" height="0.998"/>
				<rect x="286.57" y="7.802" style="fill:#E7D927;" width="3.463" height="0.998"/>
				<rect x="287.256" y="7.802" style="fill:#E7D925;" width="3.463" height="0.998"/>
				<rect x="287.943" y="7.802" style="fill:#E8D923;" width="3.463" height="0.998"/>
			</g>
			<g>
				<path d="M9.076,0c2.439,0,4.537,0.883,6.291,2.648C17.123,4.415,18,6.567,18,9.106c0,2.516-0.865,4.645-2.598,6.387
					c-1.73,1.742-3.832,2.613-6.303,2.613c-2.588,0-4.736-0.895-6.449-2.684c-1.711-1.789-2.568-3.914-2.568-6.375
					c0-1.648,0.398-3.164,1.197-4.547c0.797-1.383,1.893-2.479,3.289-3.287C5.963,0.405,7.467,0,9.076,0z M9.041,3.211
					c-1.596,0-2.936,0.555-4.023,1.664c-1.086,1.109-1.631,2.52-1.631,4.23c0,1.906,0.686,3.414,2.053,4.523
					c1.064,0.867,2.285,1.301,3.66,1.301c1.557,0,2.883-0.563,3.977-1.688c1.096-1.125,1.643-2.512,1.643-4.16
					c0-1.641-0.551-3.029-1.654-4.166C11.963,3.78,10.621,3.211,9.041,3.211z"/>
				<path d="M21.932,4.922h3.234v6.141c0,1.195,0.082,2.025,0.246,2.49s0.43,0.826,0.793,1.084c0.365,0.258,0.813,0.387,1.346,0.387
					c0.531,0,0.984-0.127,1.357-0.381c0.371-0.254,0.646-0.627,0.828-1.119c0.133-0.367,0.199-1.152,0.199-2.355V4.922h3.199v5.402
					c0,2.227-0.176,3.75-0.527,4.57c-0.43,1-1.063,1.768-1.898,2.303S28.811,18,27.521,18c-1.398,0-2.529-0.313-3.393-0.938
					s-1.471-1.496-1.822-2.613c-0.25-0.773-0.375-2.18-0.375-4.219V4.922z"/>
				<path d="M36.795,4.922h2.742v1.605c0.297-0.633,0.691-1.113,1.184-1.441s1.031-0.492,1.617-0.492
					c0.414,0,0.848,0.109,1.301,0.328l-0.996,2.754c-0.375-0.188-0.684-0.281-0.926-0.281c-0.492,0-0.908,0.305-1.248,0.914
					s-0.51,1.805-0.51,3.586l0.012,0.621v5.156h-3.176V4.922z"/>
				<path d="M9.996,33.721h3.199v12.75H9.996v-1.348c-0.623,0.594-1.25,1.021-1.879,1.283c-0.627,0.262-1.309,0.393-2.041,0.393
					c-1.646,0-3.07-0.639-4.273-1.916C0.602,43.606,0,42.018,0,40.12c0-1.969,0.582-3.582,1.744-4.84
					c1.164-1.258,2.576-1.887,4.238-1.887c0.764,0,1.482,0.145,2.152,0.434c0.672,0.289,1.293,0.723,1.861,1.301V33.721z
					 M6.633,36.346c-0.988,0-1.809,0.35-2.463,1.049s-0.982,1.596-0.982,2.689c0,1.102,0.334,2.008,1,2.719
					c0.664,0.711,1.484,1.066,2.457,1.066c1.006,0,1.838-0.35,2.5-1.049s0.992-1.615,0.992-2.748c0-1.109-0.33-2.008-0.992-2.695
					S7.646,36.346,6.633,36.346z"/>
				<path d="M20.807,33.721v1.406c0.578-0.578,1.203-1.012,1.875-1.301s1.391-0.434,2.156-0.434c1.664,0,3.078,0.629,4.242,1.887
					s1.746,2.871,1.746,4.84c0,1.898-0.602,3.486-1.805,4.764s-2.629,1.916-4.277,1.916c-0.734,0-1.418-0.131-2.051-0.393
					s-1.262-0.689-1.887-1.283v6.012h-3.176V33.721H20.807z M24.17,36.346c-1.008,0-1.844,0.344-2.508,1.031
					s-0.996,1.586-0.996,2.695c0,1.133,0.332,2.049,0.996,2.748s1.5,1.049,2.508,1.049c0.977,0,1.799-0.355,2.467-1.066
					s1.002-1.617,1.002-2.719c0-1.094-0.328-1.99-0.984-2.689S25.17,36.346,24.17,36.346z"/>
				<path d="M37.85,33.721v1.406c0.578-0.578,1.203-1.012,1.875-1.301s1.391-0.434,2.156-0.434c1.664,0,3.078,0.629,4.242,1.887
					s1.746,2.871,1.746,4.84c0,1.898-0.602,3.486-1.805,4.764s-2.629,1.916-4.277,1.916c-0.734,0-1.418-0.131-2.051-0.393
					s-1.262-0.689-1.887-1.283v6.012h-3.176V33.721H37.85z M41.213,36.346c-1.008,0-1.844,0.344-2.508,1.031
					s-0.996,1.586-0.996,2.695c0,1.133,0.332,2.049,0.996,2.748s1.5,1.049,2.508,1.049c0.977,0,1.799-0.355,2.467-1.066
					s1.002-1.617,1.002-2.719c0-1.094-0.328-1.99-0.984-2.689S42.213,36.346,41.213,36.346z"/>
				<path d="M50.969,33.721h2.742v1.605c0.297-0.633,0.691-1.113,1.184-1.441s1.031-0.492,1.617-0.492
					c0.414,0,0.848,0.109,1.301,0.328l-0.996,2.754c-0.375-0.188-0.684-0.281-0.926-0.281c-0.492,0-0.908,0.305-1.248,0.914
					s-0.51,1.805-0.51,3.586l0.012,0.621v5.156h-3.176V33.721z"/>
				<path d="M66.582,33.393c1.203,0,2.334,0.301,3.393,0.902s1.885,1.418,2.479,2.449s0.891,2.145,0.891,3.34
					c0,1.203-0.299,2.328-0.896,3.375s-1.412,1.865-2.443,2.455s-2.168,0.885-3.41,0.885c-1.828,0-3.389-0.65-4.682-1.951
					s-1.939-2.881-1.939-4.74c0-1.992,0.73-3.652,2.191-4.98C63.445,33.971,64.918,33.393,66.582,33.393z M66.635,36.405
					c-0.994,0-1.822,0.346-2.482,1.037c-0.662,0.691-0.992,1.576-0.992,2.654c0,1.109,0.326,2.008,0.98,2.695
					c0.652,0.688,1.48,1.031,2.482,1.031s1.834-0.348,2.5-1.043s0.998-1.59,0.998-2.684s-0.326-1.982-0.98-2.666
					S67.652,36.405,66.635,36.405z"/>
				<path d="M86.566,33.721h3.199v12.75h-3.199v-1.348c-0.623,0.594-1.25,1.021-1.879,1.283c-0.627,0.262-1.309,0.393-2.041,0.393
					c-1.646,0-3.07-0.639-4.273-1.916c-1.201-1.277-1.803-2.865-1.803-4.764c0-1.969,0.582-3.582,1.744-4.84
					c1.164-1.258,2.576-1.887,4.238-1.887c0.764,0,1.482,0.145,2.152,0.434c0.672,0.289,1.293,0.723,1.861,1.301V33.721z
					 M83.203,36.346c-0.988,0-1.809,0.35-2.463,1.049s-0.982,1.596-0.982,2.689c0,1.102,0.334,2.008,1,2.719
					c0.664,0.711,1.484,1.066,2.457,1.066c1.006,0,1.838-0.35,2.5-1.049s0.992-1.615,0.992-2.748c0-1.109-0.33-2.008-0.992-2.695
					S84.217,36.346,83.203,36.346z"/>
				<path d="M106.682,36.299l-2.664,1.465c-0.5-0.523-0.994-0.887-1.484-1.09c-0.488-0.203-1.061-0.305-1.719-0.305
					c-1.195,0-2.164,0.357-2.902,1.07c-0.74,0.715-1.109,1.629-1.109,2.744c0,1.084,0.355,1.971,1.068,2.656
					c0.711,0.688,1.646,1.029,2.803,1.029c1.432,0,2.547-0.488,3.344-1.465l2.523,1.729c-1.367,1.777-3.297,2.666-5.789,2.666
					c-2.242,0-3.998-0.664-5.268-1.992s-1.904-2.883-1.904-4.664c0-1.234,0.309-2.371,0.926-3.41s1.479-1.855,2.584-2.449
					s2.342-0.891,3.709-0.891c1.266,0,2.402,0.252,3.41,0.756S106.041,35.37,106.682,36.299z"/>
				<path d="M110.775,28.799h3.176v6.211c0.625-0.539,1.254-0.943,1.887-1.213s1.273-0.404,1.922-0.404
					c1.266,0,2.332,0.438,3.199,1.313c0.742,0.758,1.113,1.871,1.113,3.34v8.426h-3.152v-5.59c0-1.477-0.07-2.477-0.211-3
					s-0.381-0.914-0.721-1.172s-0.76-0.387-1.26-0.387c-0.648,0-1.205,0.215-1.67,0.645s-0.787,1.016-0.967,1.758
					c-0.094,0.383-0.141,1.258-0.141,2.625v5.121h-3.176V28.799z"/>
			</g>
		</g>
	</g>
</g>
</svg>
