<?xml version="1.0" encoding="iso-8859-1"?>
<!-- Generator: Adobe Illustrator 16.0.0, SVG Export Plug-In . SVG Version: 6.00 Build 0)  -->
<!DOCTYPE svg PUBLIC "-//W3C//DTD SVG 1.1//EN" "http://www.w3.org/Graphics/SVG/1.1/DTD/svg11.dtd">
<svg version="1.1" id="&#x5716;&#x5C64;_1" xmlns="http://www.w3.org/2000/svg" xmlns:xlink="http://www.w3.org/1999/xlink" x="0px"
	 y="0px" width="116.254px" height="34.5px" viewBox="0 0 116.254 34.5" style="enable-background:new 0 0 116.254 34.5;"
	 xml:space="preserve">
<g>
	<g>
		<path style="fill:#2C50A2;" d="M99.004,0H17.25C7.723,0,0,7.723,0,17.25S7.723,34.5,17.25,34.5h81.754
			c9.527,0,17.25-7.723,17.25-17.25S108.531,0,99.004,0z"/>
	</g>
	<g>
		<path style="fill:#FFFFFF;" d="M23.051,9.586h2.797l3.496,10.521l3.529-10.521h2.795l2.531,15.084h-2.777l-1.617-9.525
			l-3.203,9.525H28.07l-3.176-9.525l-1.656,9.525h-2.799L23.051,9.586z"/>
		<path style="fill:#FFFFFF;" d="M38.939,13.514h2.861l2.898,7l3.197-7h2.869l-6.988,15.237h-2.891l2.295-4.913L38.939,13.514z"/>
		<path style="fill:#FFFFFF;" d="M58.563,9.586h2.902v5.2l4.096-5.2h3.447l-5.268,6.732l5.779,8.352h-3.404l-4.65-6.702v6.702
			h-2.902V9.586z"/>
		<path style="fill:#FFFFFF;" d="M79.492,13.514h2.799V24.67h-2.799v-1.18c-0.547,0.521-1.096,0.895-1.645,1.123
			c-0.549,0.229-1.145,0.344-1.787,0.344c-1.441,0-2.688-0.559-3.738-1.677c-1.051-1.117-1.578-2.507-1.578-4.168
			c0-1.723,0.51-3.134,1.527-4.235c1.018-1.1,2.252-1.65,3.707-1.65c0.67,0,1.297,0.127,1.885,0.379
			c0.586,0.254,1.129,0.633,1.629,1.139V13.514z M76.549,15.811c-0.865,0-1.584,0.306-2.156,0.918
			c-0.572,0.611-0.859,1.396-0.859,2.354c0,0.963,0.291,1.757,0.875,2.379c0.582,0.622,1.299,0.933,2.15,0.933
			c0.879,0,1.607-0.306,2.188-0.918c0.578-0.611,0.869-1.413,0.869-2.404c0-0.971-0.291-1.757-0.869-2.358
			C78.166,16.111,77.434,15.811,76.549,15.811z"/>
		<path style="fill:#FFFFFF;" d="M84.465,13.514h2.398v1.404c0.26-0.553,0.605-0.974,1.037-1.261
			c0.43-0.287,0.902-0.431,1.414-0.431c0.363,0,0.742,0.096,1.139,0.287l-0.871,2.41c-0.328-0.164-0.6-0.246-0.811-0.246
			c-0.432,0-0.795,0.266-1.092,0.799c-0.299,0.533-0.447,1.58-0.447,3.139l0.012,0.543v4.512h-2.779V13.514z"/>
		<path style="fill:#FFFFFF;" d="M92.176,9.402h2.799v4.111h1.662v2.41h-1.662v8.746h-2.799v-8.746H90.74v-2.41h1.436V9.402z"/>
	</g>
</g>
</svg>
