<?xml version="1.0" encoding="iso-8859-1"?>
<!-- Generator: Adobe Illustrator 16.0.0, SVG Export Plug-In . SVG Version: 6.00 Build 0)  -->
<!DOCTYPE svg PUBLIC "-//W3C//DTD SVG 1.1//EN" "http://www.w3.org/Graphics/SVG/1.1/DTD/svg11.dtd">
<svg version="1.1" id="&#x5716;&#x5C64;_1" xmlns="http://www.w3.org/2000/svg" xmlns:xlink="http://www.w3.org/1999/xlink" x="0px"
	 y="0px" width="25.322px" height="25.322px" viewBox="0 0 25.322 25.322" style="enable-background:new 0 0 25.322 25.322;"
	 xml:space="preserve">
<g>
	<circle style="fill:#2C50A2;stroke:#FFFFFF;stroke-width:2;stroke-miterlimit:10;" cx="12.661" cy="12.661" r="11.661"/>
	<g>
		<path style="opacity:0.5;fill:#FFFFFF;" d="M12.159,18.658H5.774c0-3.064,1.43-5.547,3.193-5.547S12.159,15.594,12.159,18.658z"/>
		<path style="opacity:0.5;fill:#FFFFFF;" d="M19.548,18.658h-6.385c0-3.064,1.43-5.547,3.193-5.547
			C18.118,13.111,19.548,15.594,19.548,18.658z"/>
		<path style="fill:#FFFFFF;" d="M16.384,18.658H8.938c0-3.793,1.666-6.866,3.724-6.866C14.718,11.792,16.384,14.865,16.384,18.658z
			"/>
		<ellipse style="opacity:0.5;fill:#FFFFFF;" cx="8.953" cy="10.563" rx="2.554" ry="2.117"/>
		<ellipse style="opacity:0.5;fill:#FFFFFF;" cx="16.369" cy="10.563" rx="2.554" ry="2.117"/>
		<ellipse style="fill:#FFFFFF;" cx="12.648" cy="8.781" rx="2.554" ry="2.117"/>
	</g>
</g>
</svg>
