<?xml version="1.0" encoding="iso-8859-1"?>
<!-- Generator: Adobe Illustrator 16.0.0, SVG Export Plug-In . SVG Version: 6.00 Build 0)  -->
<!DOCTYPE svg PUBLIC "-//W3C//DTD SVG 1.1//EN" "http://www.w3.org/Graphics/SVG/1.1/DTD/svg11.dtd">
<svg version="1.1" id="&#x5716;&#x5C64;_1" xmlns="http://www.w3.org/2000/svg" xmlns:xlink="http://www.w3.org/1999/xlink" x="0px"
	 y="0px" width="112.668px" height="13.139px" viewBox="0 0 112.668 13.139" style="enable-background:new 0 0 112.668 13.139;"
	 xml:space="preserve">
<g>
	<path style="fill:#FFFFFF;" d="M106.1,0L106.1,0L106.1,0H6.569C2.941,0,0,2.941,0,6.568c0,3.629,2.941,6.57,6.569,6.57h99.529l0,0
		h0.001c3.627,0,6.568-2.941,6.568-6.57C112.668,2.941,109.727,0,106.1,0z"/>
	<g>
		<path style="fill:#2C50A2;" d="M6.203,10.229V3.047h1.13c0.655,0,1.134,0.042,1.437,0.127c0.432,0.114,0.773,0.325,1.027,0.635
			s0.381,0.674,0.381,1.094c0,0.273-0.057,0.521-0.173,0.745C9.889,5.87,9.701,6.079,9.441,6.274
			c0.436,0.205,0.755,0.461,0.957,0.77c0.201,0.307,0.303,0.671,0.303,1.091c0,0.403-0.105,0.771-0.313,1.104
			S9.91,9.818,9.582,9.983c-0.33,0.164-0.785,0.246-1.364,0.246H6.203z M7.57,4.351v1.514h0.299c0.334,0,0.582-0.07,0.743-0.21
			s0.243-0.331,0.243-0.571c0-0.225-0.077-0.402-0.23-0.535C8.471,4.417,8.237,4.351,7.924,4.351H7.57z M7.57,7.085v1.841h0.344
			c0.567,0,0.95-0.071,1.147-0.215C9.26,8.567,9.357,8.359,9.357,8.086c0-0.31-0.115-0.554-0.348-0.732
			C8.778,7.175,8.394,7.085,7.855,7.085H7.57z"/>
		<path style="fill:#2C50A2;" d="M12.378,2.729c0.233,0,0.435,0.084,0.601,0.254c0.168,0.17,0.252,0.375,0.252,0.615
			c0,0.238-0.084,0.44-0.249,0.607c-0.165,0.168-0.363,0.252-0.594,0.252c-0.237,0-0.438-0.086-0.606-0.256
			c-0.167-0.172-0.25-0.379-0.25-0.623c0-0.234,0.082-0.435,0.248-0.601S12.145,2.729,12.378,2.729z M11.711,4.917h1.334v5.313
			h-1.334V4.917z"/>
		<path style="fill:#2C50A2;" d="M14.256,4.917h1.332v0.545c0.303-0.256,0.576-0.433,0.822-0.532c0.245-0.1,0.496-0.149,0.753-0.149
			c0.526,0,0.974,0.184,1.341,0.552c0.309,0.313,0.463,0.774,0.463,1.387v3.511h-1.318V7.903c0-0.635-0.027-1.055-0.085-1.264
			c-0.057-0.208-0.155-0.366-0.297-0.475c-0.142-0.109-0.315-0.164-0.524-0.164c-0.27,0-0.5,0.09-0.693,0.271
			s-0.327,0.431-0.402,0.749c-0.039,0.166-0.059,0.525-0.059,1.078v2.131h-1.332V4.917z"/>
		<path style="fill:#2C50A2;" d="M24.178,2.866h1.332v7.363h-1.332V9.668c-0.261,0.247-0.521,0.426-0.783,0.534
			c-0.262,0.109-0.545,0.164-0.852,0.164c-0.686,0-1.279-0.266-1.779-0.799c-0.501-0.531-0.752-1.193-0.752-1.984
			c0-0.82,0.242-1.492,0.727-2.017s1.074-0.786,1.766-0.786c0.319,0,0.618,0.061,0.898,0.181c0.279,0.12,0.537,0.302,0.775,0.542
			V2.866z M22.775,6.011c-0.412,0-0.754,0.146-1.026,0.438c-0.272,0.291-0.409,0.664-0.409,1.12c0,0.459,0.139,0.837,0.416,1.133
			s0.619,0.444,1.025,0.444c0.418,0,0.766-0.146,1.041-0.438c0.275-0.291,0.414-0.672,0.414-1.145c0-0.463-0.139-0.836-0.414-1.123
			S23.197,6.011,22.775,6.011z"/>
		<path style="fill:#2C50A2;" d="M29.067,4.917h1.305l1.068,3.022l1.149-3.022h0.798l1.129,2.988l1.069-2.988h1.313l-1.938,5.313
			h-0.845l-1.133-3.027l-1.167,3.027h-0.835L29.067,4.917z"/>
		<path style="fill:#2C50A2;" d="M38.174,2.729c0.234,0,0.434,0.084,0.602,0.254c0.167,0.17,0.25,0.375,0.25,0.615
			c0,0.238-0.082,0.44-0.248,0.607c-0.166,0.168-0.363,0.252-0.594,0.252c-0.236,0-0.439-0.086-0.606-0.256
			c-0.167-0.172-0.251-0.379-0.251-0.623c0-0.234,0.083-0.435,0.248-0.601C37.74,2.813,37.939,2.729,38.174,2.729z M37.508,4.917
			h1.332v5.313h-1.332V4.917z"/>
		<path style="fill:#2C50A2;" d="M40.213,2.959h1.332v1.958h0.791v1.147h-0.791v4.165h-1.332V6.064h-0.684V4.917h0.684V2.959z"/>
		<path style="fill:#2C50A2;" d="M43.055,2.866h1.322v2.588c0.261-0.225,0.523-0.393,0.787-0.506
			c0.264-0.111,0.53-0.168,0.801-0.168c0.527,0,0.971,0.182,1.332,0.547c0.31,0.316,0.465,0.779,0.465,1.392v3.511h-1.314V7.9
			c0-0.615-0.029-1.032-0.088-1.25s-0.158-0.381-0.3-0.488s-0.316-0.161-0.524-0.161c-0.271,0-0.502,0.09-0.696,0.269
			s-0.328,0.423-0.403,0.732c-0.039,0.159-0.059,0.524-0.059,1.094v2.134h-1.322V2.866z"/>
		<path style="fill:#2C50A2;" d="M58.596,4.31l-0.955,0.911c-0.65-0.688-1.383-1.031-2.195-1.031c-0.688,0-1.266,0.234-1.734,0.704
			c-0.471,0.469-0.705,1.047-0.705,1.734c0,0.479,0.104,0.904,0.312,1.276c0.208,0.371,0.503,0.663,0.884,0.874
			c0.38,0.213,0.803,0.318,1.268,0.318c0.396,0,0.76-0.074,1.088-0.223s0.689-0.418,1.084-0.809l0.926,0.967
			c-0.53,0.518-1.031,0.877-1.504,1.078c-0.472,0.199-1.01,0.3-1.615,0.3c-1.117,0-2.031-0.354-2.742-1.062
			c-0.711-0.709-1.066-1.615-1.066-2.723c0-0.717,0.162-1.353,0.485-1.909s0.788-1.005,1.392-1.343s1.254-0.508,1.951-0.508
			c0.592,0,1.162,0.125,1.711,0.375S58.199,3.848,58.596,4.31z"/>
		<path style="fill:#2C50A2;" d="M59.334,4.917h1.143v0.669c0.123-0.264,0.287-0.464,0.492-0.601s0.43-0.205,0.674-0.205
			c0.173,0,0.354,0.045,0.543,0.137L61.77,6.064c-0.156-0.078-0.284-0.117-0.385-0.117c-0.205,0-0.379,0.127-0.521,0.381
			s-0.212,0.752-0.212,1.494l0.004,0.259v2.148h-1.322V4.917z"/>
		<path style="fill:#2C50A2;" d="M68.166,7.959h-4.281c0.062,0.378,0.227,0.678,0.495,0.901c0.269,0.223,0.611,0.334,1.028,0.334
			c0.498,0,0.926-0.174,1.283-0.522l1.123,0.527c-0.279,0.397-0.615,0.69-1.006,0.882c-0.391,0.189-0.854,0.285-1.391,0.285
			c-0.834,0-1.513-0.263-2.037-0.789c-0.523-0.525-0.785-1.184-0.785-1.975c0-0.811,0.261-1.483,0.783-2.02
			c0.522-0.535,1.178-0.803,1.965-0.803c0.837,0,1.518,0.268,2.041,0.803c0.524,0.536,0.787,1.243,0.787,2.122L68.166,7.959z
			 M66.834,6.909c-0.088-0.297-0.262-0.537-0.521-0.723s-0.561-0.278-0.902-0.278c-0.371,0-0.697,0.104-0.979,0.313
			c-0.176,0.13-0.339,0.36-0.488,0.688H66.834z"/>
		<path style="fill:#2C50A2;" d="M73.166,2.866H74.5v7.363h-1.334V9.668c-0.26,0.247-0.521,0.426-0.782,0.534
			c-0.262,0.109-0.546,0.164-0.851,0.164c-0.687,0-1.279-0.266-1.781-0.799c-0.5-0.531-0.75-1.193-0.75-1.984
			c0-0.82,0.242-1.492,0.727-2.017s1.072-0.786,1.766-0.786c0.318,0,0.617,0.061,0.896,0.181s0.539,0.302,0.775,0.542V2.866z
			 M71.766,6.011c-0.412,0-0.755,0.146-1.027,0.438c-0.272,0.291-0.408,0.664-0.408,1.12c0,0.459,0.139,0.837,0.416,1.133
			s0.618,0.444,1.023,0.444c0.419,0,0.766-0.146,1.042-0.438c0.276-0.291,0.413-0.672,0.413-1.145c0-0.463-0.137-0.836-0.413-1.123
			S72.188,6.011,71.766,6.011z"/>
		<path style="fill:#2C50A2;" d="M76.367,2.729c0.234,0,0.434,0.084,0.602,0.254c0.167,0.17,0.25,0.375,0.25,0.615
			c0,0.238-0.082,0.44-0.248,0.607c-0.166,0.168-0.363,0.252-0.594,0.252c-0.236,0-0.439-0.086-0.606-0.256
			C75.604,4.03,75.52,3.823,75.52,3.579c0-0.234,0.083-0.435,0.248-0.601C75.934,2.813,76.133,2.729,76.367,2.729z M75.701,4.917
			h1.332v5.313h-1.332V4.917z"/>
		<path style="fill:#2C50A2;" d="M78.406,2.959h1.332v1.958h0.791v1.147h-0.791v4.165h-1.332V6.064h-0.684V4.917h0.684V2.959z"/>
		<path style="fill:#2C50A2;" d="M89.24,5.991l-1.109,0.61c-0.209-0.218-0.414-0.37-0.618-0.454s-0.442-0.127-0.716-0.127
			c-0.499,0-0.902,0.148-1.211,0.446c-0.308,0.298-0.461,0.679-0.461,1.144c0,0.451,0.148,0.82,0.444,1.105
			c0.296,0.287,0.687,0.43,1.169,0.43c0.596,0,1.061-0.203,1.393-0.61l1.051,0.72c-0.569,0.74-1.373,1.111-2.412,1.111
			c-0.934,0-1.666-0.277-2.194-0.83s-0.794-1.201-0.794-1.943c0-0.514,0.129-0.988,0.387-1.421c0.257-0.433,0.615-0.772,1.076-1.021
			S86.22,4.78,86.789,4.78c0.527,0,1.002,0.105,1.422,0.314C88.631,5.306,88.974,5.604,89.24,5.991z"/>
		<path style="fill:#2C50A2;" d="M94.363,4.917h1.332v5.313h-1.332V9.668c-0.261,0.247-0.521,0.426-0.783,0.534
			c-0.262,0.109-0.545,0.164-0.852,0.164c-0.686,0-1.279-0.266-1.779-0.799c-0.501-0.531-0.752-1.193-0.752-1.984
			c0-0.82,0.242-1.492,0.727-2.017s1.074-0.786,1.766-0.786c0.319,0,0.618,0.061,0.898,0.181c0.279,0.12,0.537,0.302,0.775,0.542
			V4.917z M92.961,6.011c-0.412,0-0.754,0.146-1.026,0.438c-0.272,0.291-0.409,0.664-0.409,1.12c0,0.459,0.139,0.837,0.416,1.133
			s0.619,0.444,1.025,0.444c0.418,0,0.766-0.146,1.041-0.438c0.275-0.291,0.414-0.672,0.414-1.145c0-0.463-0.139-0.836-0.414-1.123
			S93.383,6.011,92.961,6.011z"/>
		<path style="fill:#2C50A2;" d="M96.73,4.917h1.143v0.669c0.124-0.264,0.289-0.464,0.494-0.601s0.43-0.205,0.674-0.205
			c0.172,0,0.353,0.045,0.541,0.137l-0.414,1.147c-0.156-0.078-0.285-0.117-0.387-0.117c-0.205,0-0.378,0.127-0.52,0.381
			s-0.213,0.752-0.213,1.494l0.006,0.259v2.148H96.73V4.917z"/>
		<path style="fill:#2C50A2;" d="M104.162,2.866h1.334v7.363h-1.334V9.668c-0.26,0.247-0.521,0.426-0.782,0.534
			c-0.262,0.109-0.546,0.164-0.851,0.164c-0.687,0-1.279-0.266-1.781-0.799c-0.5-0.531-0.75-1.193-0.75-1.984
			c0-0.82,0.242-1.492,0.727-2.017s1.072-0.786,1.766-0.786c0.318,0,0.617,0.061,0.896,0.181s0.539,0.302,0.775,0.542V2.866z
			 M102.762,6.011c-0.412,0-0.755,0.146-1.027,0.438c-0.272,0.291-0.408,0.664-0.408,1.12c0,0.459,0.139,0.837,0.416,1.133
			s0.618,0.444,1.023,0.444c0.419,0,0.766-0.146,1.042-0.438c0.276-0.291,0.413-0.672,0.413-1.145c0-0.463-0.137-0.836-0.413-1.123
			S103.184,6.011,102.762,6.011z"/>
	</g>
</g>
</svg>
