<?xml version="1.0" encoding="iso-8859-1"?>
<!-- Generator: Adobe Illustrator 16.0.0, SVG Export Plug-In . SVG Version: 6.00 Build 0)  -->
<!DOCTYPE svg PUBLIC "-//W3C//DTD SVG 1.1//EN" "http://www.w3.org/Graphics/SVG/1.1/DTD/svg11.dtd">
<svg version="1.1" id="&#x5716;&#x5C64;_1" xmlns="http://www.w3.org/2000/svg" xmlns:xlink="http://www.w3.org/1999/xlink" x="0px"
	 y="0px" width="106.718px" height="13.138px" viewBox="0 0 106.718 13.138" style="enable-background:new 0 0 106.718 13.138;"
	 xml:space="preserve">
<g>
	<path style="fill:#FFFFFF;" d="M100.148,0H6.568C2.941,0,0,2.941,0,6.568c0,3.629,2.941,6.569,6.568,6.569h93.58
		c3.628,0,6.569-2.94,6.569-6.569C106.718,2.941,103.776,0,100.148,0z"/>
	<g>
		<g>
			<path style="fill:#2C50A2;" d="M9.35,2.767h1.387l2.762,7.183h-1.42L11.516,8.47H8.585L8,9.949H6.58L9.35,2.767z M10.051,4.671
				L9.088,7.137h1.922L10.051,4.671z"/>
			<path style="fill:#2C50A2;" d="M18.33,2.586h1.333v7.363H18.33V9.388c-0.26,0.247-0.521,0.426-0.783,0.534
				c-0.262,0.109-0.545,0.164-0.851,0.164c-0.687,0-1.279-0.266-1.78-0.799c-0.5-0.531-0.751-1.193-0.751-1.984
				c0-0.82,0.242-1.492,0.727-2.017S15.965,4.5,16.657,4.5c0.319,0,0.618,0.061,0.897,0.181s0.538,0.302,0.775,0.542V2.586z
				 M16.929,5.73c-0.412,0-0.755,0.146-1.026,0.438c-0.273,0.291-0.409,0.664-0.409,1.12c0,0.459,0.139,0.837,0.416,1.133
				s0.618,0.444,1.024,0.444c0.418,0,0.766-0.146,1.041-0.438c0.276-0.291,0.414-0.672,0.414-1.145c0-0.463-0.138-0.836-0.414-1.123
				C17.699,5.873,17.351,5.73,16.929,5.73z"/>
			<path style="fill:#2C50A2;" d="M24.932,2.586h1.333v7.363h-1.333V9.388c-0.26,0.247-0.521,0.426-0.783,0.534
				c-0.262,0.109-0.545,0.164-0.851,0.164c-0.687,0-1.279-0.266-1.78-0.799c-0.5-0.531-0.751-1.193-0.751-1.984
				c0-0.82,0.242-1.492,0.727-2.017S22.566,4.5,23.259,4.5c0.319,0,0.618,0.061,0.897,0.181s0.538,0.302,0.775,0.542V2.586z
				 M23.53,5.73c-0.412,0-0.755,0.146-1.026,0.438c-0.273,0.291-0.409,0.664-0.409,1.12c0,0.459,0.139,0.837,0.416,1.133
				s0.618,0.444,1.024,0.444c0.418,0,0.766-0.146,1.041-0.438c0.276-0.291,0.414-0.672,0.414-1.145c0-0.463-0.138-0.836-0.414-1.123
				C24.301,5.873,23.952,5.73,23.53,5.73z"/>
			<path style="fill:#2C50A2;" d="M30.4,4.637h1.333v0.61c0.228-0.251,0.481-0.438,0.76-0.562S33.076,4.5,33.404,4.5
				c0.332,0,0.633,0.082,0.899,0.244s0.481,0.4,0.646,0.713c0.211-0.313,0.471-0.551,0.779-0.713
				C36.035,4.582,36.372,4.5,36.736,4.5c0.379,0,0.711,0.088,0.998,0.264c0.286,0.176,0.492,0.405,0.617,0.688
				c0.126,0.283,0.188,0.743,0.188,1.382v3.115h-1.343V7.254c0-0.602-0.074-1.01-0.225-1.223c-0.15-0.214-0.375-0.32-0.674-0.32
				c-0.229,0-0.432,0.064-0.613,0.195c-0.18,0.131-0.314,0.311-0.402,0.539c-0.088,0.23-0.132,0.599-0.132,1.106v2.397h-1.343V7.376
				c0-0.476-0.035-0.819-0.105-1.032c-0.07-0.214-0.176-0.373-0.315-0.477s-0.31-0.156-0.509-0.156
				c-0.223,0-0.424,0.066-0.604,0.197c-0.181,0.133-0.317,0.316-0.406,0.555c-0.09,0.238-0.135,0.611-0.135,1.123v2.363H30.4V4.637z
				"/>
			<path style="fill:#2C50A2;" d="M42.305,4.5c0.502,0,0.973,0.125,1.414,0.376c0.44,0.251,0.785,0.591,1.032,1.021
				s0.371,0.894,0.371,1.392c0,0.501-0.124,0.97-0.374,1.406C44.5,9.131,44.16,9.472,43.73,9.717
				c-0.43,0.246-0.903,0.369-1.421,0.369c-0.762,0-1.412-0.271-1.95-0.813c-0.539-0.543-0.809-1.201-0.809-1.976
				c0-0.83,0.305-1.522,0.913-2.075C40.998,4.74,41.611,4.5,42.305,4.5z M42.326,5.755c-0.414,0-0.758,0.144-1.034,0.433
				c-0.275,0.287-0.413,0.656-0.413,1.105c0,0.463,0.137,0.836,0.408,1.123c0.272,0.287,0.617,0.43,1.035,0.43
				c0.417,0,0.764-0.145,1.041-0.435s0.416-0.663,0.416-1.118s-0.137-0.826-0.408-1.111C43.099,5.897,42.75,5.755,42.326,5.755z"/>
			<path style="fill:#2C50A2;" d="M45.898,4.637h1.143v0.669c0.123-0.264,0.288-0.464,0.493-0.601S47.964,4.5,48.208,4.5
				c0.173,0,0.353,0.045,0.542,0.137l-0.415,1.147c-0.156-0.078-0.284-0.117-0.386-0.117c-0.205,0-0.379,0.127-0.52,0.381
				c-0.143,0.254-0.213,0.752-0.213,1.494l0.005,0.259v2.148h-1.323V4.637z"/>
			<path style="fill:#2C50A2;" d="M54.731,7.679h-4.282c0.063,0.378,0.227,0.678,0.496,0.901c0.268,0.223,0.611,0.334,1.027,0.334
				c0.498,0,0.926-0.174,1.284-0.522l1.123,0.527c-0.28,0.397-0.615,0.69-1.006,0.882c-0.391,0.189-0.854,0.285-1.392,0.285
				c-0.834,0-1.512-0.263-2.036-0.789c-0.524-0.525-0.786-1.184-0.786-1.975c0-0.811,0.262-1.483,0.783-2.02
				C50.467,4.768,51.121,4.5,51.909,4.5c0.837,0,1.517,0.268,2.041,0.803c0.524,0.536,0.786,1.243,0.786,2.122L54.731,7.679z
				 M53.398,6.629c-0.088-0.297-0.262-0.537-0.521-0.723c-0.259-0.186-0.56-0.278-0.902-0.278c-0.371,0-0.697,0.104-0.978,0.313
				c-0.177,0.13-0.339,0.36-0.489,0.688H53.398z"/>
			<path style="fill:#2C50A2;" d="M59.932,4.637v0.586c0.24-0.24,0.502-0.422,0.781-0.542S61.293,4.5,61.611,4.5
				c0.693,0,1.283,0.262,1.768,0.786s0.728,1.196,0.728,2.017c0,0.791-0.251,1.453-0.752,1.984
				c-0.501,0.533-1.095,0.799-1.782,0.799c-0.307,0-0.591-0.055-0.854-0.164c-0.264-0.108-0.526-0.287-0.786-0.534v2.505h-1.323
				V4.637H59.932z M61.333,5.73c-0.42,0-0.769,0.143-1.045,0.43s-0.415,0.66-0.415,1.123c0,0.473,0.139,0.854,0.415,1.145
				c0.276,0.292,0.625,0.438,1.045,0.438c0.407,0,0.749-0.148,1.028-0.444c0.277-0.296,0.417-0.674,0.417-1.133
				c0-0.456-0.137-0.829-0.41-1.12C62.095,5.876,61.75,5.73,61.333,5.73z"/>
			<path style="fill:#2C50A2;" d="M64.897,4.637h1.143v0.669c0.124-0.264,0.288-0.464,0.493-0.601S66.963,4.5,67.207,4.5
				c0.172,0,0.354,0.045,0.542,0.137l-0.415,1.147c-0.156-0.078-0.285-0.117-0.386-0.117c-0.205,0-0.378,0.127-0.521,0.381
				c-0.141,0.254-0.212,0.752-0.212,1.494l0.005,0.259v2.148h-1.323V4.637z"/>
			<path style="fill:#2C50A2;" d="M70.903,4.5c0.501,0,0.973,0.125,1.413,0.376c0.441,0.251,0.785,0.591,1.033,1.021
				s0.371,0.894,0.371,1.392c0,0.501-0.125,0.97-0.373,1.406c-0.25,0.437-0.589,0.777-1.019,1.022
				c-0.43,0.246-0.903,0.369-1.421,0.369c-0.762,0-1.412-0.271-1.951-0.813c-0.538-0.543-0.808-1.201-0.808-1.976
				c0-0.83,0.304-1.522,0.913-2.075C69.596,4.74,70.21,4.5,70.903,4.5z M70.926,5.755c-0.414,0-0.76,0.144-1.035,0.433
				c-0.275,0.287-0.413,0.656-0.413,1.105c0,0.463,0.136,0.836,0.408,1.123s0.617,0.43,1.034,0.43c0.418,0,0.766-0.145,1.043-0.435
				c0.276-0.29,0.415-0.663,0.415-1.118s-0.136-0.826-0.408-1.111C71.697,5.897,71.35,5.755,70.926,5.755z"/>
			<path style="fill:#2C50A2;" d="M78.73,2.586h1.333v7.363H78.73V9.388c-0.26,0.247-0.521,0.426-0.783,0.534
				c-0.262,0.109-0.545,0.164-0.851,0.164c-0.687,0-1.279-0.266-1.78-0.799c-0.5-0.531-0.751-1.193-0.751-1.984
				c0-0.82,0.242-1.492,0.727-2.017S76.365,4.5,77.058,4.5c0.319,0,0.618,0.061,0.897,0.181s0.538,0.302,0.775,0.542V2.586z
				 M77.329,5.73c-0.412,0-0.755,0.146-1.026,0.438c-0.273,0.291-0.409,0.664-0.409,1.12c0,0.459,0.139,0.837,0.416,1.133
				s0.618,0.444,1.024,0.444c0.418,0,0.766-0.146,1.041-0.438c0.276-0.291,0.414-0.672,0.414-1.145c0-0.463-0.138-0.836-0.414-1.123
				C78.1,5.873,77.751,5.73,77.329,5.73z"/>
			<path style="fill:#2C50A2;" d="M81.406,4.637h1.348v2.559c0,0.498,0.034,0.844,0.103,1.037c0.069,0.194,0.179,0.345,0.331,0.452
				c0.151,0.107,0.338,0.161,0.561,0.161c0.221,0,0.41-0.053,0.564-0.158c0.155-0.106,0.271-0.262,0.346-0.467
				c0.055-0.152,0.083-0.48,0.083-0.981V4.637h1.333v2.251c0,0.928-0.073,1.563-0.22,1.904c-0.179,0.417-0.442,0.736-0.791,0.96
				c-0.349,0.223-0.791,0.334-1.328,0.334c-0.583,0-1.054-0.131-1.413-0.391c-0.36-0.26-0.613-0.623-0.76-1.089
				c-0.104-0.322-0.156-0.908-0.156-1.758V4.637z"/>
			<path style="fill:#2C50A2;" d="M92.612,5.711l-1.11,0.61c-0.208-0.218-0.414-0.37-0.617-0.454
				c-0.204-0.084-0.443-0.127-0.717-0.127c-0.498,0-0.902,0.148-1.21,0.446s-0.462,0.679-0.462,1.144
				c0,0.451,0.148,0.82,0.445,1.105c0.296,0.287,0.686,0.43,1.168,0.43c0.596,0,1.061-0.203,1.393-0.61l1.052,0.72
				c-0.569,0.74-1.374,1.111-2.412,1.111c-0.935,0-1.666-0.277-2.194-0.83c-0.529-0.553-0.794-1.201-0.794-1.943
				c0-0.514,0.128-0.988,0.386-1.421s0.616-0.772,1.076-1.021C89.076,4.623,89.592,4.5,90.161,4.5c0.527,0,1.001,0.105,1.421,0.314
				C92.002,5.025,92.346,5.324,92.612,5.711z"/>
			<path style="fill:#2C50A2;" d="M93.975,2.679h1.333v1.958h0.791v1.147h-0.791v4.165h-1.333V5.784h-0.684V4.637h0.684V2.679z"/>
			<path style="fill:#2C50A2;" d="M100.063,5.379l-0.825,0.825c-0.336-0.332-0.64-0.498-0.913-0.498
				c-0.149,0-0.267,0.032-0.352,0.095c-0.085,0.064-0.127,0.143-0.127,0.237c0,0.071,0.026,0.138,0.081,0.198
				c0.053,0.06,0.186,0.143,0.397,0.246l0.488,0.244c0.515,0.254,0.868,0.513,1.06,0.776s0.288,0.573,0.288,0.928
				c0,0.472-0.173,0.866-0.521,1.182c-0.346,0.315-0.811,0.474-1.394,0.474c-0.774,0-1.394-0.303-1.855-0.908l0.82-0.894
				c0.156,0.183,0.339,0.329,0.55,0.442c0.209,0.111,0.396,0.168,0.559,0.168c0.176,0,0.317-0.043,0.425-0.127
				s0.161-0.182,0.161-0.293c0-0.205-0.193-0.405-0.581-0.601l-0.449-0.225c-0.859-0.433-1.289-0.976-1.289-1.626
				c0-0.42,0.162-0.779,0.485-1.076C97.396,4.648,97.811,4.5,98.315,4.5c0.345,0,0.67,0.076,0.974,0.227
				C99.594,4.879,99.852,5.096,100.063,5.379z"/>
		</g>
	</g>
</g>
</svg>
