<?xml version="1.0" encoding="iso-8859-1"?>
<!-- Generator: Adobe Illustrator 16.0.0, SVG Export Plug-In . SVG Version: 6.00 Build 0)  -->
<!DOCTYPE svg PUBLIC "-//W3C//DTD SVG 1.1//EN" "http://www.w3.org/Graphics/SVG/1.1/DTD/svg11.dtd">
<svg version="1.1" id="&#x5716;&#x5C64;_1" xmlns="http://www.w3.org/2000/svg" xmlns:xlink="http://www.w3.org/1999/xlink" x="0px"
	 y="0px" width="106.718px" height="13.138px" viewBox="0 0 106.718 13.138" style="enable-background:new 0 0 106.718 13.138;"
	 xml:space="preserve">
<g>
	<g>
		<g>
			<path style="fill:#F08719;" d="M100.148,0H6.568C2.941,0,0,2.941,0,6.568c0,3.629,2.941,6.569,6.568,6.569h93.58
				c3.628,0,6.569-2.94,6.569-6.569C106.718,2.941,103.776,0,100.148,0z"/>
		</g>
	</g>
	<g>
		<path style="fill:#FFFFFF;" d="M24.242,4.413l-0.956,0.911c-0.65-0.688-1.383-1.031-2.195-1.031c-0.687,0-1.265,0.234-1.734,0.704
			c-0.47,0.469-0.705,1.047-0.705,1.734c0,0.479,0.104,0.904,0.313,1.276c0.208,0.371,0.502,0.663,0.883,0.875S20.65,9.2,21.115,9.2
			c0.396,0,0.759-0.074,1.088-0.223c0.328-0.148,0.689-0.418,1.083-0.809l0.927,0.967c-0.53,0.519-1.032,0.877-1.504,1.077
			s-1.011,0.301-1.616,0.301c-1.116,0-2.03-0.354-2.741-1.062c-0.712-0.709-1.067-1.616-1.067-2.723
			c0-0.716,0.162-1.353,0.485-1.909c0.324-0.557,0.788-1.004,1.393-1.343c0.604-0.339,1.254-0.508,1.95-0.508
			c0.593,0,1.163,0.125,1.712,0.375C23.372,3.596,23.845,3.951,24.242,4.413z"/>
		<path style="fill:#FFFFFF;" d="M25.297,2.97h1.323v2.588c0.261-0.225,0.522-0.393,0.786-0.506c0.264-0.111,0.53-0.168,0.801-0.168
			c0.527,0,0.972,0.183,1.333,0.547c0.31,0.315,0.464,0.779,0.464,1.392v3.511H28.69V8.004c0-0.615-0.029-1.032-0.088-1.25
			s-0.158-0.381-0.301-0.488c-0.141-0.107-0.316-0.161-0.524-0.161c-0.271,0-0.502,0.09-0.696,0.269
			c-0.193,0.179-0.327,0.423-0.402,0.732C26.64,7.265,26.62,7.63,26.62,8.199v2.134h-1.323V2.97z"/>
		<path style="fill:#FFFFFF;" d="M36.615,8.063h-4.282c0.062,0.378,0.228,0.678,0.495,0.901c0.27,0.223,0.611,0.334,1.028,0.334
			c0.498,0,0.926-0.174,1.284-0.522l1.123,0.527c-0.28,0.397-0.615,0.69-1.006,0.882c-0.391,0.189-0.854,0.285-1.392,0.285
			c-0.833,0-1.512-0.263-2.036-0.789c-0.524-0.525-0.786-1.184-0.786-1.975c0-0.811,0.261-1.483,0.784-2.02
			c0.521-0.535,1.177-0.803,1.965-0.803c0.837,0,1.517,0.268,2.041,0.803c0.524,0.536,0.786,1.243,0.786,2.122L36.615,8.063z
			 M35.282,7.013c-0.088-0.296-0.262-0.537-0.521-0.723c-0.26-0.186-0.561-0.278-0.902-0.278c-0.372,0-0.698,0.104-0.979,0.313
			c-0.176,0.13-0.339,0.359-0.489,0.688H35.282z"/>
		<path style="fill:#FFFFFF;" d="M42.895,6.095l-1.109,0.61c-0.209-0.218-0.415-0.369-0.619-0.454
			c-0.203-0.085-0.442-0.127-0.716-0.127c-0.499,0-0.902,0.148-1.21,0.446c-0.308,0.297-0.462,0.679-0.462,1.143
			c0,0.452,0.148,0.821,0.445,1.107c0.296,0.286,0.686,0.429,1.168,0.429c0.597,0,1.061-0.203,1.394-0.61l1.051,0.72
			c-0.569,0.741-1.374,1.111-2.412,1.111c-0.935,0-1.666-0.276-2.194-0.83c-0.529-0.554-0.794-1.201-0.794-1.943
			c0-0.515,0.129-0.988,0.386-1.421s0.616-0.773,1.076-1.021c0.461-0.247,0.977-0.371,1.546-0.371c0.527,0,1.001,0.105,1.421,0.314
			C42.284,5.409,42.628,5.707,42.895,6.095z"/>
		<path style="fill:#FFFFFF;" d="M44.105,2.97h1.333v4.241l1.963-2.19h1.674l-2.288,2.546l2.562,2.767h-1.654l-2.256-2.448v2.448
			h-1.333V2.97z"/>
		<path style="fill:#FFFFFF;" d="M57.344,7.511l0.814,0.933l-0.37,0.337l-0.365,0.331l1.152,1.222h-1.657l-0.474-0.488
			c-0.755,0.446-1.456,0.669-2.104,0.669c-0.55,0-0.995-0.161-1.335-0.483c-0.341-0.322-0.511-0.735-0.511-1.24
			c0-0.381,0.097-0.74,0.289-1.079c0.193-0.339,0.522-0.688,0.99-1.05c-0.462-0.622-0.693-1.172-0.693-1.65
			c0-0.354,0.153-0.705,0.459-1.05s0.737-0.518,1.294-0.518c0.563,0,0.995,0.171,1.297,0.513c0.301,0.342,0.451,0.687,0.451,1.035
			c0,0.273-0.069,0.535-0.207,0.786c-0.139,0.251-0.457,0.622-0.955,1.113c0.583,0.687,0.959,1.115,1.129,1.284
			C56.651,8.097,56.917,7.875,57.344,7.511z M55.559,8.895c-0.251-0.247-0.605-0.656-1.063-1.228c-0.481,0.4-0.723,0.75-0.723,1.05
			c0,0.14,0.065,0.269,0.197,0.386s0.299,0.176,0.5,0.176C54.761,9.278,55.123,9.15,55.559,8.895z M54.745,5.929
			c0.361-0.31,0.542-0.583,0.542-0.82c0-0.124-0.041-0.225-0.122-0.303s-0.188-0.117-0.322-0.117c-0.124,0-0.229,0.044-0.314,0.132
			c-0.087,0.088-0.13,0.19-0.13,0.308C54.398,5.362,54.514,5.629,54.745,5.929z"/>
		<path style="fill:#FFFFFF;" d="M65.831,2.97c1.017,0,1.891,0.368,2.622,1.104s1.097,1.633,1.097,2.69
			c0,1.048-0.36,1.936-1.082,2.661s-1.598,1.089-2.627,1.089c-1.078,0-1.974-0.373-2.687-1.118c-0.714-0.745-1.07-1.631-1.07-2.656
			c0-0.687,0.166-1.318,0.498-1.895c0.333-0.576,0.789-1.033,1.371-1.369C64.534,3.138,65.16,2.97,65.831,2.97z M65.817,4.308
			c-0.665,0-1.225,0.231-1.677,0.693c-0.453,0.462-0.68,1.05-0.68,1.763c0,0.794,0.285,1.423,0.855,1.885
			C64.76,9.01,65.268,9.19,65.841,9.19c0.648,0,1.201-0.234,1.657-0.703s0.685-1.047,0.685-1.733c0-0.684-0.229-1.263-0.689-1.735
			C67.034,4.544,66.475,4.308,65.817,4.308z"/>
		<path style="fill:#FFFFFF;" d="M70.38,5.021h1.143v0.669c0.124-0.264,0.288-0.464,0.493-0.601s0.43-0.205,0.674-0.205
			c0.173,0,0.354,0.046,0.542,0.137l-0.415,1.147c-0.156-0.078-0.285-0.117-0.386-0.117c-0.205,0-0.379,0.127-0.52,0.381
			c-0.143,0.254-0.213,0.752-0.213,1.494l0.005,0.259v2.148H70.38V5.021z"/>
		<path style="fill:#FFFFFF;" d="M77.812,2.97h1.333v7.363h-1.333V9.771c-0.26,0.247-0.521,0.426-0.783,0.534
			c-0.262,0.109-0.545,0.164-0.851,0.164c-0.687,0-1.279-0.266-1.78-0.799c-0.501-0.531-0.751-1.193-0.751-1.984
			c0-0.82,0.242-1.492,0.727-2.017s1.073-0.786,1.766-0.786c0.318,0,0.618,0.061,0.897,0.181s0.538,0.301,0.775,0.542V2.97z
			 M76.41,6.114c-0.412,0-0.754,0.146-1.026,0.438c-0.272,0.291-0.409,0.664-0.409,1.12c0,0.459,0.139,0.837,0.416,1.133
			s0.619,0.444,1.024,0.444c0.419,0,0.766-0.146,1.041-0.438c0.276-0.291,0.414-0.673,0.414-1.145c0-0.462-0.138-0.837-0.414-1.123
			C77.181,6.258,76.832,6.114,76.41,6.114z"/>
		<path style="fill:#FFFFFF;" d="M85.814,8.063h-4.282c0.062,0.378,0.228,0.678,0.495,0.901c0.27,0.223,0.611,0.334,1.028,0.334
			c0.498,0,0.926-0.174,1.284-0.522l1.123,0.527c-0.28,0.397-0.615,0.69-1.006,0.882c-0.391,0.189-0.854,0.285-1.392,0.285
			c-0.833,0-1.512-0.263-2.036-0.789c-0.524-0.525-0.786-1.184-0.786-1.975c0-0.811,0.261-1.483,0.784-2.02
			c0.521-0.535,1.177-0.803,1.965-0.803c0.837,0,1.517,0.268,2.041,0.803c0.524,0.536,0.786,1.243,0.786,2.122L85.814,8.063z
			 M84.481,7.013c-0.088-0.296-0.262-0.537-0.521-0.723c-0.26-0.186-0.561-0.278-0.902-0.278c-0.372,0-0.698,0.104-0.979,0.313
			c-0.176,0.13-0.339,0.359-0.489,0.688H84.481z"/>
		<path style="fill:#FFFFFF;" d="M86.581,5.021h1.143v0.669c0.124-0.264,0.288-0.464,0.493-0.601s0.43-0.205,0.674-0.205
			c0.173,0,0.354,0.046,0.542,0.137l-0.415,1.147c-0.156-0.078-0.285-0.117-0.386-0.117c-0.205,0-0.379,0.127-0.52,0.381
			c-0.143,0.254-0.213,0.752-0.213,1.494l0.005,0.259v2.148h-1.323V5.021z"/>
	</g>
</g>
</svg>
