<?xml version="1.0" encoding="iso-8859-1"?>
<!-- Generator: Adobe Illustrator 16.0.0, SVG Export Plug-In . SVG Version: 6.00 Build 0)  -->
<!DOCTYPE svg PUBLIC "-//W3C//DTD SVG 1.1//EN" "http://www.w3.org/Graphics/SVG/1.1/DTD/svg11.dtd">
<svg version="1.1" id="&#x5716;&#x5C64;_1" xmlns="http://www.w3.org/2000/svg" xmlns:xlink="http://www.w3.org/1999/xlink" x="0px"
	 y="0px" width="34.42px" height="34.43px" viewBox="0 0 34.42 34.43" style="enable-background:new 0 0 34.42 34.43;"
	 xml:space="preserve">
<g>
	<g>
		<path style="fill:#FFFFFF;" d="M24.62,0H9.79C4.39,0,0,4.4,0,9.801v14.83c0,5.398,4.39,9.799,9.79,9.799h14.83
			c5.41,0,9.8-4.4,9.8-9.799V9.801C34.42,4.4,30.03,0,24.62,0z M12.36,24.98c-4.29,0-7.761-3.48-7.761-7.76
			c0-4.291,3.471-7.771,7.761-7.771c2.13,0,4.05,0.852,5.449,2.23l-1.6,1.381c-1.01-0.939-2.36-1.51-3.85-1.51
			c-3.13,0-5.66,2.529-5.66,5.67c0,3.119,2.53,5.66,5.66,5.66c2.39,0,4.159-1.551,4.739-4.061H12.23l-0.011-2.07h7.221l0.01,0.801
			C19.45,21.84,16.48,24.98,12.36,24.98z M29.82,18.74h-2.98v2.971H24.94V18.74h-2.98v-1.91h2.98v-2.98h1.899v2.98h2.98V18.74z"/>
	</g>
</g>
</svg>
