<?xml version="1.0" encoding="iso-8859-1"?>
<!-- Generator: Adobe Illustrator 16.0.0, SVG Export Plug-In . SVG Version: 6.00 Build 0)  -->
<!DOCTYPE svg PUBLIC "-//W3C//DTD SVG 1.1//EN" "http://www.w3.org/Graphics/SVG/1.1/DTD/svg11.dtd">
<svg version="1.1" id="&#x5716;&#x5C64;_1" xmlns="http://www.w3.org/2000/svg" xmlns:xlink="http://www.w3.org/1999/xlink" x="0px"
	 y="0px" width="26px" height="26px" viewBox="0 0 26 26" style="enable-background:new 0 0 26 26;" xml:space="preserve">
<g>
	<path style="fill:#2463AF;stroke:#FFFFFF;stroke-miterlimit:10;" d="M25.5,19.514c0,3.307-2.678,5.986-5.984,5.986H6.484
		C3.18,25.5,0.5,22.82,0.5,19.514V6.482C0.5,3.178,3.18,0.5,6.484,0.5h13.031c3.307,0,5.984,2.678,5.984,5.982V19.514z"/>
	<path style="fill:#FFFFFF;" d="M14.648,11.824c0,1.994,0,1.994,0,1.994h3.281l-0.584,3.406h-2.697V25.5h-3.641v-8.275H8.071v-3.406
		h2.937v-3.346c0,0,0.352-4.984,6.922-3.521v2.938h-1.408C16.521,9.889,14.648,9.832,14.648,11.824z"/>
</g>
</svg>
