<?xml version="1.0" encoding="iso-8859-1"?>
<!-- Generator: Adobe Illustrator 16.0.0, SVG Export Plug-In . SVG Version: 6.00 Build 0)  -->
<!DOCTYPE svg PUBLIC "-//W3C//DTD SVG 1.1//EN" "http://www.w3.org/Graphics/SVG/1.1/DTD/svg11.dtd">
<svg version="1.1" id="&#x5716;&#x5C64;_1" xmlns="http://www.w3.org/2000/svg" xmlns:xlink="http://www.w3.org/1999/xlink" x="0px"
	 y="0px" width="72.68px" height="26px" viewBox="0 0 72.68 26" style="enable-background:new 0 0 72.68 26;" xml:space="preserve">
<g>
	<g>
		<g>
			<g>
				<path style="fill:#F08719;stroke:#FFFFFF;stroke-miterlimit:10;" d="M72.18,13c0,6.9-5.6,12.5-12.5,12.5H13
					C6.09,25.5,0.5,19.9,0.5,13C0.5,6.09,6.09,0.5,13,0.5h46.68C66.58,0.5,72.18,6.09,72.18,13z"/>
			</g>
		</g>
	</g>
	<g>
		<path style="fill:#FFFFFF;" d="M23.742,9.948h-3.465c1.271,0.78,2.674,1.691,3.465,2.363l-0.707,0.804
			c-0.887-0.78-2.613-1.967-4.066-2.843v2.015h-1.102v-2.171c-1.057,1.355-2.676,2.507-4.258,3.142
			c-0.156-0.264-0.48-0.671-0.709-0.899c1.393-0.456,2.855-1.379,3.826-2.411h-3.549V8.977h4.689V7.537h1.102v1.439h4.773V9.948z
			 M13.346,17.192h10.266v0.996H13.346V17.192z M21.789,12.646v3.91h-6.717v-3.91H21.789z M20.637,13.414h-4.461v0.803h4.461V13.414
			z M20.637,14.961h-4.461v0.815h4.461V14.961z"/>
		<path style="fill:#FFFFFF;" d="M29.17,12.106c-0.131,0.24-0.252,0.468-0.395,0.696h5.781v5.781h-1.117v-0.456h-4.797v0.456h-1.066
			v-4.209c-0.576,0.611-1.248,1.163-2.016,1.607c-0.145-0.264-0.467-0.671-0.684-0.875c1.295-0.731,2.291-1.787,3.021-2.999h-2.697
			v-0.887h3.178c0.121-0.228,0.229-0.48,0.336-0.72h-2.662V9.624h2.963c0.084-0.228,0.143-0.456,0.203-0.684
			C28.164,8.977,27.107,9,26.113,9c-0.014-0.252-0.109-0.624-0.217-0.852c2.902-0.012,6.441-0.18,8.383-0.54l0.672,0.804
			c-1.234,0.216-2.83,0.372-4.498,0.468c-0.07,0.252-0.154,0.492-0.238,0.744h4.82V10.5h-5.121c-0.096,0.24-0.203,0.492-0.313,0.72
			h6.105v0.887H29.17z M33.439,13.666h-4.797v0.684h4.797V13.666z M28.643,15.776h4.797v-0.684h-4.797V15.776z M33.439,17.252V16.52
			h-4.797v0.732H33.439z"/>
		<path style="fill:#FFFFFF;" d="M40.834,7.909c-0.311,0.839-0.719,1.679-1.162,2.482v8.131h-1.127v-6.38
			c-0.313,0.444-0.648,0.839-0.984,1.188c-0.107-0.264-0.432-0.864-0.623-1.127c1.139-1.115,2.207-2.867,2.842-4.618L40.834,7.909z
			 M47.852,16.988v1.067h-7.461v-1.067h4.162c0.432-1.583,0.875-4.006,1.08-5.769l1.162,0.192c-0.322,1.811-0.779,4.042-1.211,5.577
			H47.852z M47.408,10.715h-6.537v-1.08h6.537V10.715z M42.383,16.532c-0.098-1.248-0.42-3.382-0.756-5.013l0.994-0.228
			c0.373,1.619,0.744,3.706,0.865,4.917L42.383,16.532z M43.75,9.576c-0.084-0.504-0.324-1.295-0.553-1.895l1.057-0.264
			c0.227,0.588,0.479,1.332,0.6,1.847L43.75,9.576z"/>
		<path style="fill:#FFFFFF;" d="M59.779,17.396v0.816h-10.59v-0.816h1.486v-4.917h2.842c0.025-0.192,0.061-0.384,0.084-0.6H49.32
			v-0.84h4.414c0.023-0.204,0.049-0.408,0.072-0.6h-3.959V7.969h9.309v2.471h-4.211c-0.035,0.192-0.059,0.396-0.107,0.6h4.641v0.84
			h-4.797c-0.023,0.216-0.072,0.408-0.119,0.6h3.658v4.917H59.779z M52.57,8.749h-1.654V9.66h1.654V8.749z M51.732,13.198v0.576
			h5.385v-0.576H51.732z M57.117,14.374h-5.385v0.587h5.385V14.374z M51.732,16.172h5.385v-0.6h-5.385V16.172z M51.732,17.396h5.385
			v-0.6h-5.385V17.396z M53.59,9.66h1.703V8.749H53.59V9.66z M56.313,9.66h1.74V8.749h-1.74V9.66z"/>
	</g>
</g>
</svg>
