<?xml version="1.0" encoding="iso-8859-1"?>
<!-- Generator: Adobe Illustrator 16.0.0, SVG Export Plug-In . SVG Version: 6.00 Build 0)  -->
<!DOCTYPE svg PUBLIC "-//W3C//DTD SVG 1.1//EN" "http://www.w3.org/Graphics/SVG/1.1/DTD/svg11.dtd">
<svg version="1.1" id="&#x5716;&#x5C64;_1" xmlns="http://www.w3.org/2000/svg" xmlns:xlink="http://www.w3.org/1999/xlink" x="0px"
	 y="0px" width="251px" height="33px" viewBox="0 0 251 33" style="enable-background:new 0 0 251 33;" xml:space="preserve">
<g>
	<g>
		<g>
			<g>
				<g>
					<path style="fill:#9FA0A0;stroke:#FFFFFF;stroke-miterlimit:10;" d="M250.5,29.5c0,1.656-1.342,3-3,3H3.5c-1.656,0-3-1.344-3-3
						v-26c0-1.658,1.344-3,3-3h244c1.658,0,3,1.342,3,3V29.5z"/>
				</g>
			</g>
		</g>
	</g>
	<g>
		<path style="fill:#FFFFFF;" d="M101.755,16.801c-0.224,1.205-0.588,2.438-1.093,3.46c0.281,0.154,0.574,0.393,1.093,0.7
			c0.952,0.589,2.241,0.673,3.88,0.673c1.709,0,4.076-0.126,5.617-0.322c-0.154,0.351-0.363,0.995-0.378,1.345
			c-1.079,0.07-3.655,0.154-5.295,0.154c-1.849,0-3.04-0.154-4.048-0.742c-0.574-0.322-1.078-0.813-1.387-0.813
			s-0.799,0.91-1.163,1.765l-0.896-1.204c0.378-0.49,0.743-0.911,1.093-1.219l-0.014-0.015c0.546-0.771,0.98-1.877,1.232-2.941
			h-1.766c0.351-0.827,0.757-1.961,1.107-3.054h-1.4v-1.177h3.025c-0.309,0.995-0.701,2.144-1.051,3.11h0.49l0.195-0.043
			L101.755,16.801z M99.948,12.865c-0.196-0.631-0.574-1.639-0.841-2.382l1.177-0.321c0.28,0.742,0.673,1.708,0.868,2.311
			L99.948,12.865z M105.817,19.393c-0.729,0.686-1.863,1.358-2.802,1.807c-0.225-0.238-0.672-0.616-0.967-0.799
			c0.967-0.35,1.961-0.854,2.592-1.372h-2.815v-0.995h2.325v-1.105h-1.793v-0.98h1.793v-0.883h1.19v0.883h1.947v-0.883h1.204v0.883
			h1.836v0.98h-1.836v1.105h2.41v0.995h-3.012c0.98,0.462,2.045,1.079,2.661,1.555l-1.134,0.561c-0.575-0.477-1.57-1.12-2.494-1.597
			l0.729-0.519h-2.899L105.817,19.393z M105.943,13.579c-0.098,0.294-0.182,0.714-0.225,0.938c-2.745,0.463-3.18,0.561-3.418,0.687
			c-0.069-0.267-0.279-0.757-0.434-0.98c0.182-0.099,0.393-0.322,0.393-0.841v-2.787h3.81v2.493h-2.773v0.883L105.943,13.579z
			 M103.296,11.436v0.799h1.681v-0.799H103.296z M105.341,18.033h1.947v-1.105h-1.947V18.033z M108.002,14.84
			c-1.078,0-1.344-0.406-1.344-1.443v-2.787h3.865v2.494h-2.814v0.308c0,0.378,0.041,0.519,0.363,0.519h1.625
			c0.266,0,0.701-0.028,0.91-0.084c0.028,0.279,0.057,0.672,0.099,0.91c-0.196,0.07-0.589,0.084-0.967,0.084H108.002z
			 M107.709,11.45v0.798h1.694V11.45H107.709z"/>
		<path style="fill:#FFFFFF;" d="M116.455,17.151c-0.447,0.153-0.91,0.294-1.358,0.435v3.879c0,0.645-0.126,1.01-0.505,1.191
			c-0.377,0.225-0.924,0.252-1.82,0.252c-0.027-0.309-0.182-0.868-0.35-1.205c0.56,0.028,1.078,0.015,1.232,0.015
			c0.182-0.015,0.252-0.056,0.252-0.253v-3.487l-1.443,0.448l-0.308-1.261c0.49-0.126,1.093-0.308,1.751-0.504v-2.634h-1.583v-1.205
			h1.583v-2.703h1.19v2.703h1.331v1.205h-1.331v2.297l1.19-0.363L116.455,17.151z M124.986,21.129h-3.656v1.821h-1.219v-1.821
			h-3.684v-0.98h3.684v-0.854h-3.193V18.3h1.681c-0.099-0.308-0.224-0.7-0.378-0.995l0.883-0.195h-2.466v-1.023h3.474V15.26h-2.885
			v-0.952h2.885v-0.7h-3.054v-3.025h7.564v3.025h-3.292v0.7h3.039v0.952h-3.039v0.826h3.475v1.023h-2.186l0.883,0.225
			c-0.183,0.336-0.365,0.672-0.547,0.966h1.527v0.995h-3.152v0.854h3.656V21.129z M119.188,11.492h-1.094v1.205h1.094V11.492z
			 M119.313,17.109c0.197,0.378,0.393,0.883,0.477,1.19h1.975c0.183-0.378,0.379-0.841,0.505-1.19H119.313z M120.209,12.697h1.148
			v-1.205h-1.148V12.697z M122.381,12.697h1.176v-1.205h-1.176V12.697z"/>
		<path style="fill:#FFFFFF;" d="M131.688,13.691c-0.041,0.658-0.084,1.33-0.168,1.989h5.953c0,0-0.014,0.405-0.055,0.588
			c-0.268,3.866-0.533,5.407-1.094,5.981c-0.379,0.378-0.742,0.49-1.33,0.547c-0.52,0.041-1.43,0.027-2.367-0.029
			c-0.014-0.377-0.197-0.91-0.463-1.273c0.994,0.084,1.947,0.098,2.34,0.098c0.309,0,0.49-0.028,0.672-0.168
			c0.393-0.322,0.645-1.625,0.869-4.482h-4.721c-0.449,2.409-1.471,4.664-4.063,6.064c-0.196-0.35-0.602-0.798-0.953-1.064
			c3.475-1.765,3.797-5.168,3.938-8.25h-3.671v-1.275h5.995c-0.182-0.56-0.561-1.357-0.883-1.961l1.275-0.476
			c0.363,0.63,0.799,1.471,0.994,2.03l-0.938,0.406h5.756v1.275H131.688z"/>
		<path style="fill:#FFFFFF;" d="M152.916,19.658h-3.811c1.219,0.561,2.816,1.457,3.629,2.129l-0.996,0.926
			c-0.756-0.673-2.324-1.64-3.557-2.242l0.883-0.813h-1.793v3.278h-1.303v-3.278h-5.533V18.58h5.533v-1.064h1.303v1.064h5.645
			V19.658z M151.432,18.076c-1.08-0.406-2.551-0.841-4.287-1.219c-1.512,0.63-3.543,0.924-6.178,1.092
			c-0.098-0.378-0.279-0.798-0.461-1.078c1.777-0.07,3.234-0.21,4.453-0.477c-0.883-0.168-1.793-0.336-2.703-0.477
			c0.393-0.35,0.826-0.813,1.275-1.273h-2.971v-1.037h3.881c0.406-0.49,0.756-0.967,1.051-1.429l1.232,0.392
			c-0.238,0.336-0.504,0.688-0.813,1.037h3.123c0.154-0.28,0.268-0.588,0.379-0.91l1.275,0.266c-0.07,0.225-0.154,0.434-0.238,0.645
			h2.324v1.037h-2.871c-0.379,0.574-0.84,1.064-1.4,1.456c1.625,0.378,3.082,0.771,4.188,1.135L151.432,18.076z M145.002,20.247
			c-0.813,0.952-2.213,1.821-3.404,2.353c-0.252-0.252-0.77-0.672-1.092-0.882c1.219-0.421,2.506-1.12,3.207-1.892L145.002,20.247z
			 M151.318,12.179h-9.314v0.966h-1.205v-2.059h5.154c-0.139-0.252-0.279-0.49-0.391-0.715l1.344-0.308
			c0.182,0.308,0.434,0.687,0.617,1.022h5.043v2.059h-1.248V12.179z M144.973,14.645c-0.223,0.224-0.447,0.434-0.658,0.644
			c0.855,0.14,1.709,0.294,2.535,0.462c0.59-0.294,1.08-0.672,1.473-1.105H144.973z"/>
	</g>
</g>
</svg>
