<?xml version="1.0" encoding="iso-8859-1"?>
<!-- Generator: Adobe Illustrator 16.0.0, SVG Export Plug-In . SVG Version: 6.00 Build 0)  -->
<!DOCTYPE svg PUBLIC "-//W3C//DTD SVG 1.1//EN" "http://www.w3.org/Graphics/SVG/1.1/DTD/svg11.dtd">
<svg version="1.1" id="&#x5716;&#x5C64;_1" xmlns="http://www.w3.org/2000/svg" xmlns:xlink="http://www.w3.org/1999/xlink" x="0px"
	 y="0px" width="26px" height="26px" viewBox="0 0 26 26" style="enable-background:new 0 0 26 26;" xml:space="preserve">
<g>
	<g>
		<path style="fill:#B5B5B6;stroke:#FFFFFF;stroke-miterlimit:10;" d="M25.5,19.514c0,3.307-2.68,5.986-5.984,5.986H6.483
			C3.18,25.5,0.5,22.82,0.5,19.514V6.482C0.5,3.178,3.18,0.5,6.483,0.5h13.032c3.305,0,5.984,2.678,5.984,5.982V19.514z"/>
	</g>
	<g>
		<g>
			<path style="fill:#5C5D5D;stroke:#FFFFFF;stroke-miterlimit:10;" d="M10.793,15.207c-1.636-1.635-1.636-4.297,0-5.932
				l2.897-2.896c1.635-1.637,4.296-1.637,5.931,0c1.636,1.635,1.636,4.297,0,5.932l-2.896,2.896
				C15.09,16.842,12.429,16.842,10.793,15.207z M18.303,7.697c-0.907-0.91-2.386-0.91-3.295,0l-2.896,2.896
				c-0.909,0.908-0.909,2.387,0,3.295c0.908,0.908,2.387,0.908,3.295,0l2.896-2.896C19.212,10.082,19.212,8.605,18.303,7.697z"/>
		</g>
		<g>
			<path style="fill:#5C5D5D;stroke:#FFFFFF;stroke-miterlimit:10;" d="M15.885,15.836c-0.887,0.504-1.918,0.662-2.894,0.469
				l-1.998,1.998c-0.908,0.908-2.388,0.908-3.296,0c-0.91-0.91-0.907-2.389,0-3.297l2.896-2.895c0.284-0.285,0.62-0.479,0.98-0.586
				c0.793-0.236,1.689-0.041,2.314,0.586c0.627,0.625,0.821,1.521,0.585,2.314c0.359-0.109,0.699-0.303,0.98-0.584l0.899-0.9
				c-0.154-0.787-0.536-1.539-1.146-2.148c-0.61-0.609-1.362-0.992-2.15-1.146c-0.977-0.193-2.009-0.037-2.894,0.469
				c-0.318,0.18-0.618,0.406-0.888,0.678l-2.897,2.896c-1.636,1.637-1.636,4.295,0,5.932c1.635,1.635,4.296,1.635,5.932,0
				l2.897-2.896C15.479,16.453,15.705,16.154,15.885,15.836z"/>
		</g>
	</g>
</g>
</svg>
