<?xml version="1.0" encoding="iso-8859-1"?>
<!-- Generator: Adobe Illustrator 16.0.0, SVG Export Plug-In . SVG Version: 6.00 Build 0)  -->
<!DOCTYPE svg PUBLIC "-//W3C//DTD SVG 1.1//EN" "http://www.w3.org/Graphics/SVG/1.1/DTD/svg11.dtd">
<svg version="1.1" id="&#x5716;&#x5C64;_1" xmlns="http://www.w3.org/2000/svg" xmlns:xlink="http://www.w3.org/1999/xlink" x="0px"
	 y="0px" width="251px" height="33px" viewBox="0 0 251 33" style="enable-background:new 0 0 251 33;" xml:space="preserve">
<g>
	<g>
		<g>
			<g>
				<path style="fill:#9FA0A0;stroke:#FFFFFF;stroke-miterlimit:10;" d="M250.5,29.5c0,1.656-1.343,3-3,3H3.5c-1.657,0-3-1.344-3-3
					v-26c0-1.658,1.343-3,3-3h244c1.657,0,3,1.342,3,3V29.5z"/>
			</g>
		</g>
	</g>
	<g>
		<g>
			<path style="fill:#FFFFFF;" d="M110.706,12.144c-0.561,0.504-1.247,1.037-1.836,1.443c0.673,0.363,1.416,0.672,2.214,0.882
				c-0.253,0.238-0.603,0.715-0.784,1.022c-0.645-0.195-1.262-0.462-1.821-0.784v1.583c0,0.322,0.042,0.42,0.238,0.42h0.868
				c0.196,0,0.532-0.014,0.687-0.056c0.015,0.267,0.042,0.644,0.084,0.91c-0.154,0.056-0.462,0.07-0.742,0.07h-1.022
				c-0.98,0-1.177-0.392-1.177-1.358v-1.107h-1.64v0.057c0,0.938-0.279,2.059-1.512,2.787c-0.154-0.21-0.533-0.574-0.785-0.756
				v0.224h-2.857c-0.057,0.406-0.111,0.827-0.182,1.204h3.067c0,0-0.015,0.337-0.042,0.505c-0.168,1.919-0.322,2.76-0.672,3.124
				c-0.267,0.266-0.561,0.35-0.995,0.378c-0.378,0.042-1.093,0.028-1.849,0c-0.028-0.336-0.183-0.798-0.393-1.106
				c0.742,0.07,1.471,0.084,1.751,0.084c0.238,0,0.378-0.014,0.505-0.126c0.182-0.169,0.321-0.7,0.434-1.877h-3.068
				c0.183-0.854,0.393-2.144,0.505-3.18h2.634v-1.261h-2.172v-0.196c-0.477,0.238-0.967,0.448-1.442,0.616
				c-0.154-0.28-0.462-0.742-0.7-0.967c0.883-0.266,1.779-0.686,2.563-1.204c-0.392-0.351-0.966-0.757-1.441-1.051l0.742-0.7
				c0.518,0.294,1.162,0.729,1.582,1.078c0.435-0.363,0.799-0.784,1.107-1.219h-3.025v-1.036h3.711l0.211-0.042l0.826,0.393
				c-0.603,1.373-1.598,2.465-2.773,3.305h1.975v2.956c1.037-0.574,1.191-1.302,1.191-1.961v-1.05h2.913
				c-1.345-0.967-2.382-2.242-3.081-3.783l1.035-0.308c0.253,0.532,0.561,1.036,0.926,1.513c0.56-0.434,1.204-1.022,1.582-1.471
				l0.939,0.672c-0.589,0.547-1.289,1.094-1.877,1.5c0.279,0.279,0.574,0.518,0.896,0.756c0.602-0.448,1.316-1.093,1.75-1.541
				L110.706,12.144z M109.683,18.405c-0.378,1.037-0.952,1.863-1.68,2.521c0.686,0.406,1.316,0.799,1.764,1.106l-0.672,0.854
				c-0.49-0.364-1.19-0.813-1.975-1.289c-0.91,0.588-1.976,0.994-3.152,1.275c-0.111-0.295-0.363-0.715-0.574-0.953
				c0.994-0.182,1.905-0.504,2.703-0.938c-0.714-0.435-1.442-0.854-2.086-1.219l0.588-0.673h-0.49v-0.924h4.65l0.195-0.027
				L109.683,18.405z M104.738,19.091c0.7,0.379,1.513,0.813,2.298,1.275c0.434-0.379,0.813-0.799,1.12-1.275H104.738z"/>
			<path style="fill:#FFFFFF;" d="M116.272,20.884c0.785,0.281,1.779,0.365,3.026,0.365c0.841,0.014,4.833,0.014,5.869-0.028
				c-0.21,0.308-0.435,0.896-0.519,1.288h-5.351c-2.788,0-4.454-0.406-5.505-2.156c-0.154,1.021-0.393,1.918-0.742,2.646
				c-0.238-0.153-0.799-0.447-1.107-0.588c0.757-1.4,0.911-3.642,0.953-6.094l1.205,0.099c-0.015,0.63-0.043,1.261-0.084,1.849
				c0.266,0.841,0.602,1.443,1.05,1.892v-4.819h-2.773v-1.148h2.507v-1.555h-2.156v-1.148h2.156v-1.457h1.219v1.457h1.947v1.148
				h-1.947v1.555h2.298v1.148h-2.046v1.836h1.906v1.135h-1.906V20.884z M120.839,20.45c-1.428,0-1.862-0.378-1.862-1.919v-7.915
				h5.267v5.142h-4.006v2.773c0,0.63,0.111,0.742,0.756,0.742h2.172c0.561,0,0.672-0.336,0.756-1.877
				c0.28,0.21,0.785,0.421,1.135,0.505c-0.168,1.933-0.504,2.549-1.793,2.549H120.839z M120.237,11.766v2.857h2.76v-2.857H120.237z"
				/>
			<path style="fill:#FFFFFF;" d="M138.313,10.562v12.256h-1.247v-0.658h-8.993v0.715h-1.189V10.562H138.313z M137.066,21.137
				v-9.567h-8.993v9.567H137.066z M136.674,18.979h-1.904v1.121c0,0.462-0.111,0.615-0.448,0.714
				c-0.351,0.112-0.868,0.112-1.681,0.112c-0.043-0.238-0.168-0.49-0.28-0.701c0.476,0.015,0.98,0.015,1.12,0.015
				c0.154-0.015,0.196-0.056,0.196-0.183v-1.078h-5.197v-0.756h5.197v-0.463h1.093v0.463h1.904V18.979z M135.119,16.458
				c0.505,0.379,1.051,0.896,1.346,1.232l-0.701,0.533c-0.14-0.183-0.336-0.379-0.546-0.589c-2.382,0.069-4.776,0.14-6.5,0.183
				l-0.056-0.757c0.925,0,2.073-0.015,3.32-0.028v-0.574h-2.872v-2.815h2.872v-0.505h-3.349v-0.77h3.349v-0.574h1.078v0.574h3.418
				v0.77h-3.418v0.505h2.984v2.815H135.119z M130.974,20.702c-0.224-0.378-0.687-0.924-1.106-1.303l0.826-0.42
				c0.42,0.364,0.924,0.883,1.148,1.246L130.974,20.702z M130.133,14.749h1.85v-0.518h-1.85V14.749z M131.982,15.856v-0.533h-1.85
				v0.533H131.982z M133.061,14.231v0.518h1.934v-0.518H133.061z M134.994,15.856v-0.533h-1.934v0.533H134.994z M134.531,17.005
				c-0.084-0.07-0.168-0.141-0.252-0.211l0.518-0.336h-1.736v0.574L134.531,17.005z"/>
			<path style="fill:#FFFFFF;" d="M142.592,19.834c-0.35,1.148-0.952,2.298-1.582,3.04c-0.225-0.197-0.715-0.519-0.98-0.673
				c0.63-0.658,1.148-1.639,1.414-2.647L142.592,19.834z M144.834,19.344h-4.076v-8.825h4.076V19.344z M143.656,11.583h-1.765v1.555
				h1.765V11.583z M143.656,14.133h-1.765v1.583h1.765V14.133z M143.656,16.696h-1.765v1.597h1.765V16.696z M144.119,19.54
				c0.448,0.686,0.938,1.597,1.162,2.199l-1.021,0.49c-0.183-0.603-0.688-1.569-1.121-2.27L144.119,19.54z M153,20.591h-0.742v1.008
				c0,0.574-0.127,0.883-0.533,1.064c-0.42,0.183-1.064,0.183-2.031,0.183c-0.041-0.294-0.195-0.757-0.35-1.051
				c0.645,0.028,1.289,0.028,1.471,0.015c0.196,0,0.238-0.057,0.238-0.225v-0.994h-4.049v2.283h-1.162v-2.283h-0.826v-0.953h0.826
				v-3.544h2.578v-0.673h-3.348v-0.966h1.891v-0.743h-1.262v-0.924h1.262v-0.687h-1.611v-0.966h1.611v-1.135h1.148v1.135h1.793
				v-1.135h1.162v1.135h1.611v0.966h-1.611v0.687h1.387v0.924h-1.387v0.743h1.905v0.966h-3.403v0.673h2.689v3.544H153V20.591z
				 M147.004,17.061v0.826h1.416v-0.826H147.004z M147.004,19.638h1.416v-0.896h-1.416V19.638z M148.111,12.788h1.793v-0.687h-1.793
				V12.788z M148.111,14.455h1.793v-0.743h-1.793V14.455z M149.568,17.061v0.826h1.484v-0.826H149.568z M151.053,19.638v-0.896
				h-1.484v0.896H151.053z"/>
		</g>
	</g>
</g>
</svg>
