<?xml version="1.0" encoding="iso-8859-1"?>
<!-- Generator: Adobe Illustrator 16.0.0, SVG Export Plug-In . SVG Version: 6.00 Build 0)  -->
<!DOCTYPE svg PUBLIC "-//W3C//DTD SVG 1.1//EN" "http://www.w3.org/Graphics/SVG/1.1/DTD/svg11.dtd">
<svg version="1.1" id="&#x5716;&#x5C64;_1" xmlns="http://www.w3.org/2000/svg" xmlns:xlink="http://www.w3.org/1999/xlink" x="0px"
	 y="0px" width="16px" height="16.001px" viewBox="0 0 16 16.001" style="enable-background:new 0 0 16 16.001;"
	 xml:space="preserve">
<g>
	<path style="fill:#C1E0C1;" d="M16,7.999c0,3.165-1.836,5.901-4.499,7.195c-1.058,0.516-2.242,0.807-3.499,0.807
		c-1.254,0-2.445-0.291-3.502-0.807C1.838,13.897,0,11.164,0,7.999C0,3.581,3.581,0,8.002,0C12.42,0,16,3.581,16,7.999z"/>
	<circle style="fill:#FFFFFF;" cx="8.001" cy="5.597" r="2.942"/>
	<path style="fill:#FFFFFF;" d="M11.52,14.691c0,0.169-0.005,0.335-0.019,0.503c-1.058,0.516-2.242,0.807-3.499,0.807
		c-1.254,0-2.445-0.291-3.502-0.807c-0.014-0.168-0.02-0.334-0.02-0.503c0-2.802,1.58-5.076,3.521-5.076
		C9.945,9.615,11.52,11.89,11.52,14.691z"/>
</g>
</svg>
