<?xml version="1.0" encoding="iso-8859-1"?>
<!-- Generator: Adobe Illustrator 16.0.0, SVG Export Plug-In . SVG Version: 6.00 Build 0)  -->
<!DOCTYPE svg PUBLIC "-//W3C//DTD SVG 1.1//EN" "http://www.w3.org/Graphics/SVG/1.1/DTD/svg11.dtd">
<svg version="1.1" id="&#x5716;&#x5C64;_1" xmlns="http://www.w3.org/2000/svg" xmlns:xlink="http://www.w3.org/1999/xlink" x="0px"
	 y="0px" width="20px" height="20px" viewBox="0 0 20 20" style="enable-background:new 0 0 20 20;" xml:space="preserve">
<g>
	<path style="fill:#C1E0C1;" d="M20,9.997c0,3.957-2.295,7.377-5.623,8.993C13.055,19.637,11.572,20,10.003,20
		s-3.058-0.363-4.378-1.01C2.297,17.37,0,13.954,0,9.997C0,4.476,4.477,0,10.003,0C15.524,0,20,4.476,20,9.997z"/>
	<circle style="fill:#FFFFFF;" cx="10.002" cy="6.995" r="3.678"/>
	<path style="fill:#FFFFFF;" d="M14.398,18.362c0,0.213-0.005,0.42-0.021,0.628C13.055,19.637,11.572,20,10.003,20
		s-3.058-0.363-4.378-1.01c-0.018-0.208-0.023-0.415-0.023-0.628c0-3.502,1.973-6.346,4.401-6.346S14.398,14.86,14.398,18.362z"/>
</g>
</svg>
