<?xml version="1.0" encoding="iso-8859-1"?>
<!-- Generator: Adobe Illustrator 16.0.0, SVG Export Plug-In . SVG Version: 6.00 Build 0)  -->
<!DOCTYPE svg PUBLIC "-//W3C//DTD SVG 1.1//EN" "http://www.w3.org/Graphics/SVG/1.1/DTD/svg11.dtd">
<svg version="1.1" id="&#x5716;&#x5C64;_1" xmlns="http://www.w3.org/2000/svg" xmlns:xlink="http://www.w3.org/1999/xlink" x="0px"
	 y="0px" width="251px" height="33px" viewBox="0 0 251 33" style="enable-background:new 0 0 251 33;" xml:space="preserve">
<g>
	<g>
		<g>
			<g>
				<g>
					<path style="fill:#E8C41D;stroke:#FFFFFF;stroke-miterlimit:10;" d="M250.5,29.5c0,1.656-1.343,3-3,3H3.5c-1.657,0-3-1.344-3-3
						v-26c0-1.658,1.343-3,3-3h244c1.657,0,3,1.342,3,3V29.5z"/>
				</g>
			</g>
		</g>
	</g>
	<g>
		<path style="fill:#FFFFFF;" d="M101.754,16.801c-0.224,1.205-0.588,2.438-1.092,3.46c0.28,0.154,0.574,0.393,1.092,0.7
			c0.953,0.589,2.242,0.673,3.881,0.673c1.709,0,4.076-0.126,5.617-0.322c-0.154,0.351-0.364,0.995-0.379,1.345
			c-1.078,0.07-3.655,0.154-5.295,0.154c-1.849,0-3.039-0.154-4.048-0.742c-0.574-0.322-1.078-0.813-1.387-0.813
			c-0.308,0-0.798,0.91-1.163,1.765l-0.896-1.204c0.379-0.49,0.743-0.911,1.094-1.219l-0.015-0.015
			c0.546-0.771,0.98-1.877,1.233-2.941h-1.766c0.35-0.827,0.756-1.961,1.106-3.054h-1.4v-1.177h3.025
			c-0.308,0.995-0.7,2.144-1.05,3.11h0.49l0.195-0.043L101.754,16.801z M99.947,12.865c-0.195-0.631-0.574-1.639-0.84-2.382
			l1.176-0.321c0.281,0.742,0.673,1.708,0.869,2.311L99.947,12.865z M105.816,19.393c-0.729,0.686-1.863,1.358-2.801,1.807
			c-0.225-0.238-0.673-0.616-0.967-0.799c0.967-0.35,1.961-0.854,2.592-1.372h-2.816v-0.995h2.326v-1.105h-1.793v-0.98h1.793v-0.883
			h1.189v0.883h1.947v-0.883h1.205v0.883h1.835v0.98h-1.835v1.105h2.409v0.995h-3.011c0.98,0.462,2.045,1.079,2.66,1.555
			l-1.134,0.561c-0.575-0.477-1.569-1.12-2.493-1.597l0.729-0.519h-2.9L105.816,19.393z M105.943,13.579
			c-0.099,0.294-0.183,0.714-0.225,0.938c-2.746,0.463-3.18,0.561-3.418,0.687c-0.07-0.267-0.28-0.757-0.434-0.98
			c0.182-0.099,0.392-0.322,0.392-0.841v-2.787h3.81v2.493h-2.773v0.883L105.943,13.579z M103.295,11.436v0.799h1.682v-0.799
			H103.295z M105.34,18.033h1.947v-1.105h-1.947V18.033z M108.002,14.84c-1.078,0-1.345-0.406-1.345-1.443v-2.787h3.866v2.494
			h-2.815v0.308c0,0.378,0.042,0.519,0.364,0.519h1.625c0.266,0,0.7-0.028,0.91-0.084c0.027,0.279,0.057,0.672,0.098,0.91
			c-0.195,0.07-0.588,0.084-0.967,0.084H108.002z M107.708,11.45v0.798h1.694V11.45H107.708z"/>
		<path style="fill:#FFFFFF;" d="M116.455,17.151c-0.448,0.153-0.91,0.294-1.359,0.435v3.879c0,0.645-0.125,1.01-0.504,1.191
			c-0.378,0.225-0.924,0.252-1.82,0.252c-0.028-0.309-0.183-0.868-0.351-1.205c0.56,0.028,1.079,0.015,1.232,0.015
			c0.183-0.015,0.253-0.056,0.253-0.253v-3.487l-1.443,0.448l-0.309-1.261c0.49-0.126,1.093-0.308,1.752-0.504v-2.634h-1.584v-1.205
			h1.584v-2.703h1.189v2.703h1.331v1.205h-1.331v2.297l1.191-0.363L116.455,17.151z M124.985,21.129h-3.655v1.821h-1.219v-1.821
			h-3.685v-0.98h3.685v-0.854h-3.194V18.3h1.681c-0.098-0.308-0.224-0.7-0.378-0.995l0.883-0.195h-2.466v-1.023h3.475V15.26h-2.886
			v-0.952h2.886v-0.7h-3.055v-3.025h7.564v3.025h-3.291v0.7h3.039v0.952h-3.039v0.826h3.474v1.023h-2.186l0.883,0.225
			c-0.183,0.336-0.364,0.672-0.546,0.966h1.526v0.995h-3.151v0.854h3.655V21.129z M119.187,11.492h-1.093v1.205h1.093V11.492z
			 M119.313,17.109c0.196,0.378,0.393,0.883,0.477,1.19h1.975c0.182-0.378,0.379-0.841,0.504-1.19H119.313z M120.209,12.697h1.148
			v-1.205h-1.148V12.697z M122.381,12.697h1.176v-1.205h-1.176V12.697z"/>
		<path style="fill:#FFFFFF;" d="M131.688,13.691c-0.041,0.658-0.084,1.33-0.168,1.989h5.953c0,0-0.014,0.405-0.055,0.588
			c-0.268,3.866-0.533,5.407-1.094,5.981c-0.379,0.378-0.742,0.49-1.33,0.547c-0.52,0.041-1.43,0.027-2.367-0.029
			c-0.014-0.377-0.197-0.91-0.463-1.273c0.994,0.084,1.947,0.098,2.34,0.098c0.309,0,0.49-0.028,0.672-0.168
			c0.393-0.322,0.645-1.625,0.869-4.482h-4.721c-0.449,2.409-1.471,4.664-4.063,6.064c-0.197-0.35-0.603-0.798-0.953-1.064
			c3.475-1.765,3.797-5.168,3.938-8.25h-3.672v-1.275h5.996c-0.182-0.56-0.561-1.357-0.883-1.961l1.275-0.476
			c0.363,0.63,0.799,1.471,0.994,2.03l-0.938,0.406h5.756v1.275H131.688z"/>
		<path style="fill:#FFFFFF;" d="M152.916,19.658h-3.811c1.219,0.561,2.816,1.457,3.629,2.129l-0.996,0.926
			c-0.756-0.673-2.324-1.64-3.557-2.242l0.883-0.813h-1.793v3.278h-1.303v-3.278h-5.533V18.58h5.533v-1.064h1.303v1.064h5.645
			V19.658z M151.432,18.076c-1.08-0.406-2.551-0.841-4.287-1.219c-1.512,0.63-3.543,0.924-6.178,1.092
			c-0.098-0.378-0.279-0.798-0.461-1.078c1.777-0.07,3.234-0.21,4.453-0.477c-0.883-0.168-1.793-0.336-2.703-0.477
			c0.393-0.35,0.826-0.813,1.275-1.273h-2.971v-1.037h3.881c0.406-0.49,0.756-0.967,1.051-1.429l1.232,0.392
			c-0.238,0.336-0.504,0.688-0.813,1.037h3.123c0.154-0.28,0.268-0.588,0.379-0.91l1.275,0.266c-0.07,0.225-0.154,0.434-0.238,0.645
			h2.324v1.037h-2.871c-0.379,0.574-0.84,1.064-1.4,1.456c1.625,0.378,3.082,0.771,4.188,1.135L151.432,18.076z M145.002,20.247
			c-0.813,0.952-2.213,1.821-3.404,2.353c-0.252-0.252-0.77-0.672-1.092-0.882c1.219-0.421,2.506-1.12,3.207-1.892L145.002,20.247z
			 M151.318,12.179h-9.314v0.966h-1.205v-2.059h5.154c-0.139-0.252-0.279-0.49-0.391-0.715l1.344-0.308
			c0.182,0.308,0.434,0.687,0.617,1.022h5.043v2.059h-1.248V12.179z M144.973,14.645c-0.223,0.224-0.447,0.434-0.658,0.644
			c0.855,0.14,1.709,0.294,2.535,0.462c0.59-0.294,1.08-0.672,1.473-1.105H144.973z"/>
	</g>
</g>
</svg>
