<?xml version="1.0" encoding="iso-8859-1"?>
<!-- Generator: Adobe Illustrator 16.0.0, SVG Export Plug-In . SVG Version: 6.00 Build 0)  -->
<!DOCTYPE svg PUBLIC "-//W3C//DTD SVG 1.1//EN" "http://www.w3.org/Graphics/SVG/1.1/DTD/svg11.dtd">
<svg version="1.1" id="&#x5716;&#x5C64;_1" xmlns="http://www.w3.org/2000/svg" xmlns:xlink="http://www.w3.org/1999/xlink" x="0px"
	 y="0px" width="26px" height="26px" viewBox="0 0 26 26" style="enable-background:new 0 0 26 26;" xml:space="preserve">
<g>
	<g>
		<path style="fill:#2EAD38;stroke:#FFFFFF;stroke-miterlimit:10;" d="M25.5,19.514c0,3.307-2.679,5.986-5.984,5.986H6.483
			c-3.305,0-5.983-2.68-5.983-5.986V6.482C0.5,3.178,3.179,0.5,6.483,0.5h13.032c3.306,0,5.984,2.678,5.984,5.982V19.514z"/>
		<path style="fill:#FFFFFF;" d="M21.116,13.668l-0.009,0.004c0.209-0.605,0.329-1.242,0.329-1.904c0-3.838-3.777-6.951-8.437-6.951
			c-4.66,0-8.437,3.113-8.437,6.951c0,3.629,3.378,6.605,7.685,6.918l-0.006,0.004l-0.067,2.244c0,0,0.044,0.379,0.624,0.201
			c0.569-0.176,7.123-3.895,8.244-7.271c0.01-0.021,0.018-0.045,0.026-0.068C21.082,13.752,21.104,13.709,21.116,13.668z"/>
	</g>
	<g>
		<polygon style="fill:#2EAD38;" points="9.761,13.428 9.761,14.342 7.012,14.342 7.012,9.943 7.926,9.943 7.926,13.428 		"/>
		<rect x="10.462" y="9.945" style="fill:#2EAD38;" width="0.912" height="4.395"/>
		<polygon style="fill:#2EAD38;" points="15.699,9.943 15.699,14.342 14.793,14.342 12.934,11.6 12.934,14.342 12.027,14.342 
			12.027,9.943 12.934,9.943 14.793,12.654 14.793,9.943 		"/>
		<polygon style="fill:#2EAD38;" points="17.145,10.857 17.145,11.688 18.988,11.688 18.988,12.6 17.145,12.6 17.145,13.428 
			18.988,13.428 18.988,14.342 16.238,14.342 16.238,9.943 18.988,9.943 18.988,10.857 		"/>
	</g>
</g>
</svg>
