<?xml version="1.0" encoding="iso-8859-1"?>
<!-- Generator: Adobe Illustrator 16.0.0, SVG Export Plug-In . SVG Version: 6.00 Build 0)  -->
<!DOCTYPE svg PUBLIC "-//W3C//DTD SVG 1.1//EN" "http://www.w3.org/Graphics/SVG/1.1/DTD/svg11.dtd">
<svg version="1.1" id="&#x5716;&#x5C64;_1" xmlns="http://www.w3.org/2000/svg" xmlns:xlink="http://www.w3.org/1999/xlink" x="0px"
	 y="0px" width="257.998px" height="25px" viewBox="0 0 257.998 25" style="enable-background:new 0 0 257.998 25;"
	 xml:space="preserve">
<g>
	<g>
		<line style="fill:none;stroke:#5C5D5D;stroke-width:2;stroke-miterlimit:10;" x1="3.5" y1="12.5" x2="254.498" y2="12.5"/>
		<circle style="fill:#595757;" cx="3.5" cy="12.5" r="3.5"/>
		<circle style="fill:#595757;" cx="254.498" cy="12.5" r="3.5"/>
		<circle style="fill:#FFFFFF;stroke:#5C5D5D;stroke-miterlimit:10;" cx="47.932" cy="12.5" r="12"/>
		<circle style="fill:#FFFFFF;stroke:#5C5D5D;stroke-miterlimit:10;" cx="88.6" cy="12.5" r="9"/>
		<circle style="fill:#FFFFFF;stroke:#5C5D5D;stroke-miterlimit:10;" cx="129.264" cy="12.5" r="9"/>
		<circle style="fill:#FFFFFF;stroke:#5C5D5D;stroke-miterlimit:10;" cx="169.931" cy="12.5" r="9.001"/>
		<circle style="fill:#FFFFFF;stroke:#5C5D5D;stroke-miterlimit:10;" cx="210.598" cy="12.5" r="9"/>
	</g>
	<g>
		<path style="fill:#C1E0C1;" d="M57.932,12.497c0,3.957-2.295,7.377-5.623,8.993c-1.322,0.646-2.805,1.01-4.374,1.01
			s-3.058-0.363-4.378-1.01c-3.328-1.62-5.625-5.036-5.625-8.993c0-5.521,4.477-9.997,10.003-9.997
			C53.456,2.5,57.932,6.976,57.932,12.497z"/>
		<circle style="fill:#FFFFFF;" cx="47.934" cy="9.495" r="3.678"/>
		<path style="fill:#FFFFFF;" d="M52.33,20.862c0,0.213-0.005,0.42-0.021,0.628c-1.322,0.646-2.805,1.01-4.374,1.01
			s-3.058-0.363-4.378-1.01c-0.018-0.208-0.023-0.415-0.023-0.628c0-3.502,1.973-6.346,4.401-6.346S52.33,17.36,52.33,20.862z"/>
	</g>
	<g>
		<path style="fill:#C1E0C1;" d="M96.6,12.498c0,3.165-1.836,5.901-4.499,7.195c-1.058,0.516-2.242,0.807-3.499,0.807
			c-1.254,0-2.445-0.291-3.502-0.807c-2.662-1.297-4.5-4.03-4.5-7.195c0-4.418,3.581-7.999,8.002-7.999
			C93.02,4.499,96.6,8.08,96.6,12.498z"/>
		<circle style="fill:#FFFFFF;" cx="88.601" cy="10.096" r="2.942"/>
		<path style="fill:#FFFFFF;" d="M92.119,19.19c0,0.169-0.005,0.335-0.019,0.503c-1.058,0.516-2.242,0.807-3.499,0.807
			c-1.254,0-2.445-0.291-3.502-0.807c-0.014-0.168-0.02-0.334-0.02-0.503c0-2.802,1.58-5.076,3.521-5.076
			C90.545,14.114,92.119,16.389,92.119,19.19z"/>
	</g>
	<g>
		<path style="fill:#C1E0C1;" d="M137.264,12.498c0,3.165-1.836,5.901-4.499,7.195c-1.058,0.516-2.242,0.807-3.499,0.807
			c-1.254,0-2.445-0.291-3.502-0.807c-2.662-1.297-4.5-4.03-4.5-7.195c0-4.418,3.581-7.999,8.002-7.999
			C133.684,4.499,137.264,8.08,137.264,12.498z"/>
		<circle style="fill:#FFFFFF;" cx="129.265" cy="10.096" r="2.942"/>
		<path style="fill:#FFFFFF;" d="M132.783,19.19c0,0.169-0.005,0.335-0.019,0.503c-1.058,0.516-2.242,0.807-3.499,0.807
			c-1.254,0-2.445-0.291-3.502-0.807c-0.014-0.168-0.02-0.334-0.02-0.503c0-2.802,1.58-5.076,3.521-5.076
			C131.209,14.114,132.783,16.389,132.783,19.19z"/>
	</g>
	<g>
		<path style="fill:#C1E0C1;" d="M177.928,12.498c0,3.165-1.836,5.901-4.499,7.195c-1.058,0.516-2.242,0.807-3.499,0.807
			c-1.254,0-2.445-0.291-3.502-0.807c-2.662-1.297-4.5-4.03-4.5-7.195c0-4.418,3.581-7.999,8.002-7.999
			C174.348,4.499,177.928,8.08,177.928,12.498z"/>
		<circle style="fill:#FFFFFF;" cx="169.929" cy="10.096" r="2.942"/>
		<path style="fill:#FFFFFF;" d="M173.447,19.19c0,0.169-0.005,0.335-0.019,0.503c-1.058,0.516-2.242,0.807-3.499,0.807
			c-1.254,0-2.445-0.291-3.502-0.807c-0.014-0.168-0.02-0.334-0.02-0.503c0-2.802,1.58-5.076,3.521-5.076
			C171.873,14.114,173.447,16.389,173.447,19.19z"/>
	</g>
</g>
</svg>
