<?xml version="1.0" encoding="iso-8859-1"?>
<!-- Generator: Adobe Illustrator 16.0.0, SVG Export Plug-In . SVG Version: 6.00 Build 0)  -->
<!DOCTYPE svg PUBLIC "-//W3C//DTD SVG 1.1//EN" "http://www.w3.org/Graphics/SVG/1.1/DTD/svg11.dtd">
<svg version="1.1" id="&#x5716;&#x5C64;_1" xmlns="http://www.w3.org/2000/svg" xmlns:xlink="http://www.w3.org/1999/xlink" x="0px"
	 y="0px" width="251px" height="33px" viewBox="0 0 251 33" style="enable-background:new 0 0 251 33;" xml:space="preserve">
<g>
	<g>
		<g>
			<path style="fill:#9FA0A0;stroke:#FFFFFF;stroke-miterlimit:10;" d="M250.5,29.5c0,1.656-1.343,3-3,3H3.5c-1.657,0-3-1.344-3-3
				v-26c0-1.658,1.343-3,3-3h244c1.657,0,3,1.342,3,3V29.5z"/>
		</g>
	</g>
	<g>
		<g>
			<path style="fill:#FFFFFF;" d="M97.577,12.563c0,0-0.015,0.462-0.015,0.645c-0.252,5.981-0.462,8.083-0.967,8.741
				c-0.294,0.406-0.574,0.546-0.994,0.615c-0.378,0.057-0.952,0.057-1.555,0.028c-0.014-0.378-0.168-0.952-0.378-1.331
				c0.546,0.043,1.036,0.057,1.288,0.057c0.21,0,0.337-0.057,0.49-0.252c0.351-0.42,0.589-2.27,0.785-7.229h-1.709
				c-0.169,3.502-0.673,6.878-2.382,9.049c-0.238-0.322-0.687-0.714-1.036-0.924c1.568-1.905,2.003-4.959,2.129-8.125h-1.793v-1.274
				h1.835c0.014-0.826,0.014-1.667,0.014-2.466h1.317c0,0.799-0.015,1.64-0.028,2.466H97.577z M103.418,11.723v10.842h-1.345v-0.896
				h-2.34v1.01h-1.288V11.723H103.418z M102.073,20.422v-7.438h-2.34v7.438H102.073z"/>
			<path style="fill:#FFFFFF;" d="M109.812,20.338c0.925-0.154,1.863-0.322,2.802-0.49l0.07,1.135
				c-2.466,0.477-5.099,0.967-6.948,1.316l-0.28-1.232c0.841-0.112,1.947-0.295,3.124-0.504v-2.158h-2.647V17.27h2.647v-1.387h1.232
				v1.387h2.647v1.135h-2.647V20.338z M105.581,10.925h7.187v1.135h-3.74c-0.406,0.812-0.91,1.639-1.429,2.325l3.096-0.238
				c-0.309-0.448-0.616-0.896-0.925-1.275l0.938-0.545c0.757,0.91,1.639,2.17,2.045,2.982l-1.008,0.645
				c-0.112-0.224-0.238-0.504-0.406-0.77c-4.133,0.35-4.665,0.42-5.043,0.574c-0.084-0.267-0.267-0.869-0.42-1.191
				c0.224-0.056,0.434-0.294,0.672-0.63c0.168-0.238,0.645-0.995,1.037-1.877h-2.004V10.925z M114.645,19.693h-1.219v-8.404h1.219
				V19.693z M117.404,10.252v10.842c0,0.742-0.169,1.121-0.617,1.317c-0.476,0.21-1.232,0.237-2.283,0.237
				c-0.056-0.336-0.266-0.924-0.462-1.26c0.784,0.027,1.555,0.027,1.779,0.014c0.238,0,0.308-0.07,0.308-0.309V10.252H117.404z"/>
			<path style="fill:#FFFFFF;" d="M121.599,19.89c-0.351,1.148-0.952,2.298-1.583,3.04c-0.224-0.197-0.714-0.519-0.98-0.673
				c0.63-0.658,1.148-1.639,1.415-2.647L121.599,19.89z M123.84,19.399h-4.076v-8.825h4.076V19.399z M122.663,11.639h-1.765v1.555
				h1.765V11.639z M122.663,14.188h-1.765v1.583h1.765V14.188z M122.663,16.752h-1.765v1.597h1.765V16.752z M123.125,19.596
				c0.448,0.686,0.938,1.597,1.163,2.199l-1.022,0.49c-0.183-0.603-0.687-1.569-1.121-2.27L123.125,19.596z M132.006,20.646h-0.742
				v1.008c0,0.574-0.126,0.883-0.532,1.064c-0.42,0.183-1.064,0.183-2.031,0.183c-0.042-0.294-0.196-0.757-0.35-1.051
				c0.644,0.028,1.288,0.028,1.471,0.015c0.195,0,0.238-0.057,0.238-0.225v-0.994h-4.049v2.283h-1.162v-2.283h-0.827v-0.953h0.827
				v-3.544h2.577v-0.673h-3.348v-0.966h1.891v-0.743h-1.261v-0.924h1.261v-0.687h-1.61v-0.966h1.61v-1.135h1.148v1.135h1.793v-1.135
				h1.163v1.135h1.61v0.966h-1.61v0.687h1.387v0.924h-1.387v0.743h1.905v0.966h-3.404v0.673h2.689v3.544h0.742V20.646z
				 M126.011,17.116v0.826h1.415v-0.826H126.011z M126.011,19.693h1.415v-0.896h-1.415V19.693z M127.117,12.844h1.793v-0.687h-1.793
				V12.844z M127.117,14.511h1.793v-0.743h-1.793V14.511z M128.574,17.116v0.826h1.485v-0.826H128.574z M130.06,19.693v-0.896
				h-1.485v0.896H130.06z"/>
			<path style="fill:#FFFFFF;" d="M138.498,17.368c-0.546,0.183-1.093,0.351-1.639,0.519v5.015h-1.205v-4.637l-2.199,0.673
				l-0.336-1.247c0.7-0.183,1.583-0.421,2.535-0.687v-2.941h-1.12c-0.168,0.742-0.364,1.414-0.574,1.947
				c-0.21-0.168-0.687-0.449-0.953-0.589c0.49-1.134,0.743-2.899,0.883-4.566l1.106,0.183c-0.07,0.602-0.14,1.204-0.238,1.793h0.896
				v-2.773h1.205v2.773h1.303v1.232h-1.303v2.577l1.471-0.42L138.498,17.368z M145.922,12.312c0,0,0,0.448-0.014,0.616
				c-0.309,6.289-0.574,8.502-1.121,9.189c-0.294,0.42-0.574,0.546-1.022,0.615c-0.378,0.07-0.966,0.057-1.583,0.029
				c-0.014-0.379-0.153-0.911-0.363-1.275c0.588,0.057,1.106,0.057,1.372,0.057c0.225,0,0.364-0.057,0.505-0.252
				c0.406-0.463,0.7-2.452,0.952-7.775h-0.393c-0.714,3.614-2.213,7.299-4.482,9.119c-0.252-0.238-0.714-0.574-1.078-0.77
				c2.255-1.611,3.726-4.959,4.426-8.35h-0.938c-0.616,2.354-1.835,4.917-3.319,6.234c-0.238-0.238-0.658-0.561-1.009-0.743
				c1.443-1.12,2.592-3.333,3.236-5.491h-0.995c-0.434,1.009-0.938,1.892-1.513,2.578c-0.21-0.182-0.729-0.574-1.009-0.742
				c1.135-1.232,1.934-3.223,2.396-5.295l1.177,0.224c-0.154,0.7-0.364,1.387-0.574,2.031H145.922z"/>
			<path style="fill:#FFFFFF;" d="M159.895,20.954h-5.674v1.989h-1.345v-1.989h-5.532v-1.177h5.532v-0.967h-4.104v-5.49h4.104
				v-0.869h-5.126v-1.19h5.126v-1.204h1.345v1.204h5.211v1.19h-5.211v0.869h4.202v5.49h-4.202v0.967h5.674V20.954z M150.033,15.561
				h2.843v-1.162h-2.843V15.561z M152.876,17.746v-1.19h-2.843v1.19H152.876z M154.221,14.398v1.162h2.899v-1.162H154.221z
				 M157.12,16.556h-2.899v1.19h2.899V16.556z"/>
		</g>
	</g>
</g>
</svg>
