<?xml version="1.0" encoding="iso-8859-1"?>
<!-- Generator: Adobe Illustrator 16.0.0, SVG Export Plug-In . SVG Version: 6.00 Build 0)  -->
<!DOCTYPE svg PUBLIC "-//W3C//DTD SVG 1.1//EN" "http://www.w3.org/Graphics/SVG/1.1/DTD/svg11.dtd">
<svg version="1.1" id="&#x5716;&#x5C64;_1" xmlns="http://www.w3.org/2000/svg" xmlns:xlink="http://www.w3.org/1999/xlink" x="0px"
	 y="0px" width="251px" height="33px" viewBox="0 0 251 33" style="enable-background:new 0 0 251 33;" xml:space="preserve">
<g>
	<g>
		<g>
			<g>
				<path style="fill:#F08719;stroke:#FFFFFF;stroke-miterlimit:10;" d="M250.5,29.5c0,1.656-1.343,3-3,3H3.5c-1.657,0-3-1.344-3-3
					v-26c0-1.658,1.343-3,3-3h244c1.657,0,3,1.342,3,3V29.5z"/>
			</g>
		</g>
	</g>
	<g>
		<g>
			<path style="fill:#FFFFFF;" d="M110.705,12.144c-0.56,0.504-1.246,1.037-1.834,1.443c0.672,0.363,1.414,0.672,2.213,0.882
				c-0.252,0.238-0.603,0.715-0.785,1.022c-0.644-0.195-1.26-0.462-1.82-0.784v1.583c0,0.322,0.042,0.42,0.238,0.42h0.868
				c0.196,0,0.532-0.014,0.687-0.056c0.014,0.267,0.042,0.644,0.084,0.91c-0.154,0.056-0.463,0.07-0.742,0.07h-1.023
				c-0.98,0-1.176-0.392-1.176-1.358v-1.107h-1.639v0.057c0,0.938-0.281,2.059-1.514,2.787c-0.154-0.21-0.531-0.574-0.784-0.756
				v0.224h-2.857c-0.056,0.406-0.112,0.827-0.183,1.204h3.068c0,0-0.014,0.337-0.042,0.505c-0.169,1.919-0.322,2.76-0.673,3.124
				c-0.266,0.266-0.561,0.35-0.994,0.378c-0.379,0.042-1.093,0.028-1.85,0c-0.027-0.336-0.182-0.798-0.392-1.106
				c0.742,0.07,1.471,0.084,1.751,0.084c0.238,0,0.378-0.014,0.504-0.126c0.183-0.169,0.322-0.7,0.435-1.877h-3.067
				c0.182-0.854,0.393-2.144,0.504-3.18h2.633v-1.261h-2.17v-0.196c-0.477,0.238-0.967,0.448-1.443,0.616
				c-0.154-0.28-0.463-0.742-0.7-0.967c0.882-0.266,1.778-0.686,2.563-1.204c-0.393-0.351-0.967-0.757-1.443-1.051l0.742-0.7
				c0.52,0.294,1.163,0.729,1.584,1.078c0.434-0.363,0.798-0.784,1.105-1.219h-3.025v-1.036h3.713l0.209-0.042l0.827,0.393
				c-0.603,1.373-1.597,2.465-2.774,3.305h1.976v2.956c1.036-0.574,1.19-1.302,1.19-1.961v-1.05h2.914
				c-1.345-0.967-2.381-2.242-3.082-3.783l1.037-0.308c0.252,0.532,0.561,1.036,0.924,1.513c0.561-0.434,1.205-1.022,1.584-1.471
				l0.938,0.672c-0.588,0.547-1.289,1.094-1.877,1.5c0.28,0.279,0.574,0.518,0.896,0.756c0.603-0.448,1.316-1.093,1.751-1.541
				L110.705,12.144z M109.684,18.405c-0.379,1.037-0.953,1.863-1.682,2.521c0.687,0.406,1.316,0.799,1.766,1.106l-0.673,0.854
				c-0.49-0.364-1.19-0.813-1.976-1.289c-0.91,0.588-1.975,0.994-3.15,1.275c-0.113-0.295-0.365-0.715-0.575-0.953
				c0.995-0.182,1.905-0.504,2.704-0.938c-0.715-0.435-1.443-0.854-2.088-1.219l0.588-0.673h-0.49v-0.924h4.651l0.196-0.027
				L109.684,18.405z M104.738,19.091c0.701,0.379,1.514,0.813,2.297,1.275c0.435-0.379,0.813-0.799,1.121-1.275H104.738z"/>
			<path style="fill:#FFFFFF;" d="M116.273,20.884c0.784,0.281,1.779,0.365,3.025,0.365c0.84,0.014,4.832,0.014,5.869-0.028
				c-0.21,0.308-0.434,0.896-0.519,1.288h-5.351c-2.787,0-4.455-0.406-5.505-2.156c-0.154,1.021-0.393,1.918-0.743,2.646
				c-0.238-0.153-0.798-0.447-1.105-0.588c0.756-1.4,0.91-3.642,0.952-6.094l1.204,0.099c-0.014,0.63-0.041,1.261-0.084,1.849
				c0.267,0.841,0.603,1.443,1.051,1.892v-4.819h-2.773v-1.148h2.508v-1.555h-2.158v-1.148h2.158v-1.457h1.219v1.457h1.947v1.148
				h-1.947v1.555h2.297v1.148h-2.045v1.836h1.904v1.135h-1.904V20.884z M120.84,20.45c-1.43,0-1.863-0.378-1.863-1.919v-7.915h5.268
				v5.142h-4.007v2.773c0,0.63,0.112,0.742,0.757,0.742h2.171c0.56,0,0.673-0.336,0.757-1.877c0.279,0.21,0.783,0.421,1.134,0.505
				c-0.168,1.933-0.504,2.549-1.793,2.549H120.84z M120.237,11.766v2.857h2.759v-2.857H120.237z"/>
			<path style="fill:#FFFFFF;" d="M138.313,10.562v12.256h-1.247v-0.658h-8.992v0.715h-1.191V10.562H138.313z M137.066,21.137
				v-9.567h-8.992v9.567H137.066z M136.674,18.979h-1.904v1.121c0,0.462-0.111,0.615-0.448,0.714
				c-0.351,0.112-0.868,0.112-1.681,0.112c-0.043-0.238-0.168-0.49-0.28-0.701c0.476,0.015,0.98,0.015,1.12,0.015
				c0.154-0.015,0.196-0.056,0.196-0.183v-1.078h-5.196v-0.756h5.196v-0.463h1.093v0.463h1.904V18.979z M135.119,16.458
				c0.505,0.379,1.051,0.896,1.346,1.232l-0.701,0.533c-0.14-0.183-0.336-0.379-0.546-0.589c-2.382,0.069-4.776,0.14-6.499,0.183
				l-0.057-0.757c0.925,0,2.073-0.015,3.32-0.028v-0.574h-2.872v-2.815h2.872v-0.505h-3.348v-0.77h3.348v-0.574h1.078v0.574h3.418
				v0.77h-3.418v0.505h2.984v2.815H135.119z M130.974,20.702c-0.224-0.378-0.687-0.924-1.106-1.303l0.826-0.42
				c0.42,0.364,0.924,0.883,1.148,1.246L130.974,20.702z M130.133,14.749h1.85v-0.518h-1.85V14.749z M131.982,15.856v-0.533h-1.85
				v0.533H131.982z M133.061,14.231v0.518h1.934v-0.518H133.061z M134.994,15.856v-0.533h-1.934v0.533H134.994z M134.531,17.005
				c-0.084-0.07-0.168-0.141-0.252-0.211l0.518-0.336h-1.736v0.574L134.531,17.005z"/>
			<path style="fill:#FFFFFF;" d="M142.592,19.834c-0.35,1.148-0.952,2.298-1.582,3.04c-0.225-0.197-0.715-0.519-0.98-0.673
				c0.63-0.658,1.148-1.639,1.414-2.647L142.592,19.834z M144.834,19.344h-4.076v-8.825h4.076V19.344z M143.656,11.583h-1.765v1.555
				h1.765V11.583z M143.656,14.133h-1.765v1.583h1.765V14.133z M143.656,16.696h-1.765v1.597h1.765V16.696z M144.119,19.54
				c0.448,0.686,0.938,1.597,1.162,2.199l-1.021,0.49c-0.183-0.603-0.688-1.569-1.121-2.27L144.119,19.54z M153,20.591h-0.742v1.008
				c0,0.574-0.127,0.883-0.533,1.064c-0.42,0.183-1.064,0.183-2.031,0.183c-0.041-0.294-0.195-0.757-0.35-1.051
				c0.645,0.028,1.289,0.028,1.471,0.015c0.196,0,0.238-0.057,0.238-0.225v-0.994h-4.049v2.283h-1.162v-2.283h-0.826v-0.953h0.826
				v-3.544h2.578v-0.673h-3.348v-0.966h1.891v-0.743h-1.262v-0.924h1.262v-0.687h-1.611v-0.966h1.611v-1.135h1.148v1.135h1.793
				v-1.135h1.162v1.135h1.611v0.966h-1.611v0.687h1.387v0.924h-1.387v0.743h1.905v0.966h-3.403v0.673h2.689v3.544H153V20.591z
				 M147.004,17.061v0.826h1.416v-0.826H147.004z M147.004,19.638h1.416v-0.896h-1.416V19.638z M148.111,12.788h1.793v-0.687h-1.793
				V12.788z M148.111,14.455h1.793v-0.743h-1.793V14.455z M149.568,17.061v0.826h1.484v-0.826H149.568z M151.053,19.638v-0.896
				h-1.484v0.896H151.053z"/>
		</g>
	</g>
</g>
</svg>
