<?xml version="1.0" encoding="iso-8859-1"?>
<!-- Generator: Adobe Illustrator 16.0.0, SVG Export Plug-In . SVG Version: 6.00 Build 0)  -->
<!DOCTYPE svg PUBLIC "-//W3C//DTD SVG 1.1//EN" "http://www.w3.org/Graphics/SVG/1.1/DTD/svg11.dtd">
<svg version="1.1" id="&#x5716;&#x5C64;_1" xmlns="http://www.w3.org/2000/svg" xmlns:xlink="http://www.w3.org/1999/xlink" x="0px"
	 y="0px" width="72.68px" height="26px" viewBox="0 0 72.68 26" style="enable-background:new 0 0 72.68 26;" xml:space="preserve">
<g>
	<g>
		<g>
			<g>
				<path style="fill:#FFFFFF;stroke:#F08719;stroke-miterlimit:10;" d="M72.18,13c0,6.9-5.6,12.5-12.5,12.5H13
					C6.09,25.5,0.5,19.9,0.5,13C0.5,6.09,6.09,0.5,13,0.5h46.68C66.58,0.5,72.18,6.09,72.18,13z"/>
			</g>
		</g>
	</g>
	<g>
		<path style="fill:#F08719;" d="M23.743,9.947h-3.466c1.271,0.779,2.674,1.691,3.466,2.363l-0.708,0.803
			c-0.887-0.779-2.613-1.967-4.065-2.842v2.015h-1.103v-2.171c-1.057,1.355-2.676,2.507-4.258,3.143
			c-0.156-0.264-0.48-0.672-0.708-0.9c1.392-0.455,2.854-1.379,3.825-2.41h-3.549V8.977h4.689V7.537h1.103v1.439h4.773V9.947z
			 M13.346,17.191h10.266v0.996H13.346V17.191z M21.789,12.646v3.909h-6.717v-3.909H21.789z M20.637,13.414h-4.461v0.803h4.461
			V13.414z M20.637,14.961h-4.461v0.814h4.461V14.961z"/>
		<path style="fill:#F08719;" d="M29.171,12.105c-0.132,0.24-0.252,0.469-0.396,0.696h5.781v5.78H33.44v-0.455h-4.798v0.455h-1.066
			v-4.209c-0.576,0.611-1.248,1.163-2.016,1.607c-0.144-0.264-0.467-0.672-0.684-0.876c1.295-0.731,2.291-1.787,3.022-2.999h-2.698
			v-0.887h3.178c0.121-0.229,0.229-0.48,0.336-0.72h-2.662V9.623h2.963c0.084-0.228,0.143-0.455,0.203-0.684
			C28.164,8.977,27.107,9,26.113,9c-0.013-0.252-0.108-0.624-0.217-0.852c2.902-0.012,6.441-0.18,8.384-0.54l0.671,0.804
			c-1.234,0.216-2.83,0.372-4.497,0.468c-0.071,0.252-0.155,0.491-0.239,0.743h4.82v0.876h-5.121
			c-0.096,0.239-0.203,0.491-0.312,0.72h6.104v0.887H29.171z M33.44,13.666h-4.798v0.684h4.798V13.666z M28.643,15.775h4.798v-0.684
			h-4.798V15.775z M33.44,17.252V16.52h-4.798v0.732H33.44z"/>
		<path style="fill:#F08719;" d="M40.835,7.908c-0.312,0.84-0.72,1.68-1.163,2.482v8.132h-1.127v-6.38
			c-0.313,0.443-0.648,0.839-0.984,1.188c-0.107-0.265-0.432-0.864-0.623-1.128c1.139-1.115,2.207-2.866,2.842-4.618L40.835,7.908z
			 M47.852,16.987v1.067h-7.461v-1.067h4.162c0.432-1.583,0.876-4.006,1.08-5.769l1.163,0.191c-0.323,1.812-0.78,4.042-1.212,5.577
			H47.852z M47.408,10.715h-6.537v-1.08h6.537V10.715z M42.383,16.531c-0.097-1.247-0.42-3.382-0.756-5.013l0.995-0.228
			c0.372,1.619,0.743,3.705,0.864,4.917L42.383,16.531z M43.75,9.576c-0.084-0.504-0.324-1.296-0.553-1.896l1.057-0.265
			c0.227,0.588,0.479,1.332,0.6,1.848L43.75,9.576z"/>
		<path style="fill:#F08719;" d="M59.779,17.395v0.816h-10.59v-0.816h1.486v-4.916h2.843c0.024-0.192,0.06-0.385,0.084-0.6H49.32
			v-0.84h4.414c0.024-0.204,0.049-0.408,0.072-0.6h-3.958V7.969h9.308v2.471h-4.211c-0.035,0.191-0.059,0.396-0.107,0.6h4.642v0.84
			h-4.798c-0.023,0.215-0.071,0.407-0.119,0.6h3.658v4.916H59.779z M52.571,8.748h-1.655V9.66h1.655V8.748z M51.732,13.197v0.576
			h5.385v-0.576H51.732z M57.117,14.373h-5.385v0.588h5.385V14.373z M51.732,16.172h5.385v-0.6h-5.385V16.172z M51.732,17.395h5.385
			v-0.6h-5.385V17.395z M53.591,9.66h1.703V8.748h-1.703V9.66z M56.313,9.66h1.74V8.748h-1.74V9.66z"/>
	</g>
</g>
</svg>
