<?xml version="1.0" encoding="iso-8859-1"?>
<!-- Generator: Adobe Illustrator 16.0.0, SVG Export Plug-In . SVG Version: 6.00 Build 0)  -->
<!DOCTYPE svg PUBLIC "-//W3C//DTD SVG 1.1//EN" "http://www.w3.org/Graphics/SVG/1.1/DTD/svg11.dtd">
<svg version="1.1" id="&#x5716;&#x5C64;_1" xmlns="http://www.w3.org/2000/svg" xmlns:xlink="http://www.w3.org/1999/xlink" x="0px"
	 y="0px" width="1280px" height="210px" viewBox="0 0 1280 210" style="enable-background:new 0 0 1280 210;" xml:space="preserve">
<g>
	<rect style="fill:#FFFFFF;" width="1280" height="210"/>
	<g>
		<g>
			<g>
				<rect x="456.592" y="63.953" style="fill:#2C50A2;" width="3.464" height="0.998"/>
				<rect x="457.105" y="63.953" style="fill:#2E51A2;" width="3.465" height="0.998"/>
				<rect x="457.619" y="63.953" style="fill:#2F51A2;" width="3.465" height="0.998"/>
				<rect x="458.134" y="63.953" style="fill:#3052A2;" width="3.464" height="0.998"/>
				<rect x="458.646" y="63.953" style="fill:#3253A2;" width="3.465" height="0.998"/>
				<rect x="459.161" y="63.953" style="fill:#3353A2;" width="3.464" height="0.998"/>
				<rect x="459.675" y="63.953" style="fill:#3454A2;" width="3.464" height="0.998"/>
				<rect x="460.189" y="63.953" style="fill:#3654A2;" width="3.463" height="0.998"/>
				<rect x="460.703" y="63.953" style="fill:#3755A2;" width="3.463" height="0.998"/>
				<rect x="461.217" y="63.953" style="fill:#3856A2;" width="3.463" height="0.998"/>
				<rect x="461.73" y="63.953" style="fill:#3956A2;" width="3.464" height="0.998"/>
				<rect x="462.244" y="63.953" style="fill:#3A57A2;" width="3.464" height="0.999"/>
				<rect x="462.758" y="63.953" style="fill:#3C57A2;" width="3.464" height="0.998"/>
				<rect x="463.271" y="63.953" style="fill:#3D58A2;" width="3.465" height="0.998"/>
				<rect x="463.785" y="63.953" style="fill:#3E59A2;" width="3.465" height="0.998"/>
				<rect x="464.299" y="63.953" style="fill:#3F59A2;" width="3.465" height="0.999"/>
				<rect x="464.813" y="63.953" style="fill:#405AA2;" width="3.465" height="0.998"/>
				<rect x="465.326" y="63.953" style="fill:#415AA2;" width="3.465" height="0.998"/>
				<rect x="465.841" y="63.953" style="fill:#425BA2;" width="3.464" height="0.998"/>
				<rect x="466.355" y="63.953" style="fill:#445CA2;" width="3.463" height="0.999"/>
				<rect x="466.869" y="63.953" style="fill:#455CA2;" width="3.463" height="0.998"/>
				<rect x="467.383" y="63.953" style="fill:#465DA2;" width="3.463" height="0.998"/>
				<rect x="467.896" y="63.953" style="fill:#475DA2;" width="3.463" height="0.999"/>
				<rect x="468.41" y="63.953" style="fill:#485EA2;" width="3.463" height="0.998"/>
				<rect x="468.924" y="63.953" style="fill:#495FA2;" width="3.464" height="0.998"/>
				<rect x="469.438" y="63.953" style="fill:#4B5FA2;" width="3.464" height="0.998"/>
				<rect x="469.951" y="63.953" style="fill:#4C60A2;" width="3.464" height="0.999"/>
				<rect x="470.465" y="63.953" style="fill:#4D61A2;" width="3.464" height="0.998"/>
				<rect x="470.979" y="63.953" style="fill:#4E61A2;" width="3.465" height="0.998"/>
				<rect x="471.493" y="63.953" style="fill:#4F62A2;" width="3.464" height="0.998"/>
				<rect x="472.006" y="63.953" style="fill:#5062A2;" width="3.465" height="0.999"/>
				<rect x="472.521" y="63.953" style="fill:#5163A2;" width="3.464" height="0.998"/>
				<rect x="473.034" y="63.953" style="fill:#5264A2;" width="3.464" height="0.999"/>
				<rect x="473.548" y="63.953" style="fill:#5364A2;" width="3.464" height="0.998"/>
				<rect x="474.062" y="63.953" style="fill:#5565A2;" width="3.464" height="0.998"/>
				<rect x="474.576" y="63.953" style="fill:#5666A2;" width="3.463" height="0.998"/>
				<rect x="475.09" y="63.954" style="fill:#5766A2;" width="3.463" height="0.997"/>
				<rect x="475.604" y="63.953" style="fill:#5867A2;" width="3.463" height="0.998"/>
				<rect x="476.117" y="63.954" style="fill:#5968A2;" width="3.463" height="0.997"/>
				<rect x="476.631" y="63.952" style="fill:#5A68A2;" width="3.465" height="0.999"/>
				<rect x="477.145" y="63.954" style="fill:#5B69A2;" width="3.465" height="0.997"/>
				<rect x="477.658" y="63.953" style="fill:#5C6AA2;" width="3.464" height="0.998"/>
				<rect x="478.172" y="63.954" style="fill:#5D6AA1;" width="3.465" height="0.997"/>
				<rect x="478.686" y="63.953" style="fill:#5E6BA1;" width="3.465" height="0.999"/>
				<rect x="479.199" y="63.954" style="fill:#5F6CA1;" width="3.465" height="0.997"/>
				<rect x="479.714" y="63.953" style="fill:#606CA1;" width="3.464" height="0.999"/>
				<rect x="480.228" y="63.954" style="fill:#616DA1;" width="3.464" height="0.997"/>
				<rect x="480.741" y="63.953" style="fill:#626EA1;" width="3.464" height="0.999"/>
				<rect x="481.255" y="63.953" style="fill:#636EA1;" width="3.464" height="0.998"/>
				<rect x="481.77" y="63.953" style="fill:#646FA1;" width="3.463" height="0.999"/>
				<rect x="482.283" y="63.953" style="fill:#656FA1;" width="3.463" height="0.998"/>
				<rect x="482.797" y="63.953" style="fill:#6670A1;" width="3.463" height="0.998"/>
				<rect x="483.311" y="63.953" style="fill:#6771A1;" width="3.463" height="0.999"/>
				<rect x="483.824" y="63.953" style="fill:#6871A1;" width="3.463" height="0.999"/>
				<rect x="484.338" y="63.953" style="fill:#6972A1;" width="3.465" height="0.998"/>
				<rect x="484.852" y="63.954" style="fill:#6A73A1;" width="3.465" height="0.997"/>
				<rect x="485.365" y="63.953" style="fill:#6B73A0;" width="3.465" height="0.999"/>
				<rect x="485.879" y="63.954" style="fill:#6C74A0;" width="3.465" height="0.997"/>
				<rect x="486.393" y="63.953" style="fill:#6D75A0;" width="3.465" height="0.998"/>
				<rect x="486.907" y="63.954" style="fill:#6E75A0;" width="3.464" height="0.997"/>
				<rect x="487.421" y="63.953" style="fill:#6F76A0;" width="3.464" height="0.999"/>
				<rect x="487.936" y="63.954" style="fill:#7077A0;" width="3.463" height="0.997"/>
				<rect x="488.448" y="63.953" style="fill:#7177A0;" width="3.464" height="0.998"/>
				<rect x="488.963" y="63.954" style="fill:#7278A0;" width="3.463" height="0.997"/>
				<rect x="489.477" y="63.953" style="fill:#7379A0;" width="3.463" height="0.999"/>
				<rect x="489.99" y="63.953" style="fill:#73799F;" width="3.463" height="0.999"/>
				<rect x="490.504" y="63.953" style="fill:#747A9F;" width="3.464" height="0.999"/>
				<rect x="491.018" y="63.953" style="fill:#757B9F;" width="3.464" height="0.998"/>
				<rect x="491.531" y="63.953" style="fill:#767B9F;" width="3.464" height="0.998"/>
				<rect x="492.045" y="63.953" style="fill:#777C9F;" width="3.464" height="0.999"/>
				<rect x="492.559" y="63.953" style="fill:#787D9F;" width="3.465" height="0.999"/>
				<rect x="493.072" y="63.953" style="fill:#797D9F;" width="3.465" height="0.998"/>
				<rect x="493.586" y="63.953" style="fill:#7A7E9F;" width="3.465" height="0.998"/>
				<rect x="494.1" y="63.954" style="fill:#7B7F9E;" width="3.465" height="0.997"/>
				<rect x="494.614" y="63.953" style="fill:#7C7F9E;" width="3.464" height="0.999"/>
				<rect x="495.128" y="63.953" style="fill:#7D809E;" width="3.464" height="0.998"/>
				<rect x="495.642" y="63.953" style="fill:#7E819E;" width="3.464" height="0.999"/>
				<rect x="496.155" y="63.954" style="fill:#7F819E;" width="3.464" height="0.997"/>
				<rect x="496.67" y="63.953" style="fill:#80829E;" width="3.463" height="0.999"/>
				<rect x="497.184" y="63.953" style="fill:#81839E;" width="3.463" height="0.998"/>
				<rect x="497.697" y="63.953" style="fill:#82839D;" width="3.463" height="0.999"/>
				<rect x="498.211" y="63.953" style="fill:#83849D;" width="3.463" height="0.998"/>
				<rect x="498.725" y="63.954" style="fill:#84859D;" width="3.464" height="0.997"/>
				<rect x="499.238" y="63.954" style="fill:#85859D;" width="3.464" height="0.997"/>
				<rect x="499.752" y="63.953" style="fill:#85869D;" width="3.464" height="0.998"/>
				<rect x="500.266" y="63.953" style="fill:#86879D;" width="3.465" height="0.998"/>
				<rect x="500.779" y="63.954" style="fill:#87889C;" width="3.465" height="0.997"/>
				<rect x="501.293" y="63.954" style="fill:#88889C;" width="3.465" height="0.997"/>
				<rect x="501.808" y="63.953" style="fill:#89899C;" width="3.464" height="0.998"/>
				<rect x="502.321" y="63.953" style="fill:#8A8A9C;" width="3.464" height="0.998"/>
				<rect x="502.835" y="63.954" style="fill:#8B8A9C;" width="3.464" height="0.997"/>
				<rect x="503.349" y="63.953" style="fill:#8C8B9C;" width="3.464" height="0.999"/>
				<rect x="503.863" y="63.953" style="fill:#8D8C9B;" width="3.463" height="0.998"/>
				<rect x="504.377" y="63.953" style="fill:#8E8C9B;" width="3.463" height="0.999"/>
				<rect x="504.891" y="63.954" style="fill:#8F8D9B;" width="3.463" height="0.997"/>
				<rect x="505.404" y="63.953" style="fill:#908E9B;" width="3.464" height="0.999"/>
				<rect x="505.918" y="63.953" style="fill:#918F9B;" width="3.463" height="0.998"/>
				<rect x="506.432" y="63.953" style="fill:#928F9A;" width="3.464" height="0.999"/>
				<rect x="506.945" y="63.953" style="fill:#93909A;" width="3.464" height="0.999"/>
				<rect x="507.459" y="63.954" style="fill:#94919A;" width="3.465" height="0.997"/>
				<rect x="507.973" y="63.954" style="fill:#95919A;" width="3.465" height="0.997"/>
				<rect x="508.486" y="63.953" style="fill:#969299;" width="3.465" height="0.998"/>
				<rect x="509.001" y="63.953" style="fill:#979399;" width="3.464" height="0.998"/>
				<rect x="509.515" y="63.954" style="fill:#989499;" width="3.464" height="0.997"/>
				<rect x="510.029" y="63.954" style="fill:#989499;" width="3.463" height="0.997"/>
				<rect x="510.543" y="63.953" style="fill:#999598;" width="3.463" height="0.998"/>
				<rect x="511.057" y="63.953" style="fill:#9A9698;" width="3.463" height="0.998"/>
				<rect x="511.57" y="63.954" style="fill:#9B9698;" width="3.463" height="0.997"/>
				<rect x="512.084" y="63.953" style="fill:#9C9798;" width="3.463" height="0.999"/>
				<rect x="512.598" y="63.953" style="fill:#9D9897;" width="3.463" height="0.998"/>
				<rect x="513.111" y="63.953" style="fill:#9E9997;" width="3.464" height="0.999"/>
				<rect x="513.625" y="63.954" style="fill:#9F9997;" width="3.465" height="0.997"/>
				<rect x="514.139" y="63.953" style="fill:#A09A97;" width="3.465" height="0.998"/>
				<rect x="514.652" y="63.953" style="fill:#A19B96;" width="3.465" height="0.998"/>
				<rect x="515.166" y="63.953" style="fill:#A29B96;" width="3.465" height="0.998"/>
				<rect x="515.68" y="63.953" style="fill:#A39C96;" width="3.465" height="0.999"/>
				<rect x="516.193" y="63.953" style="fill:#A49D95;" width="3.465" height="0.998"/>
				<rect x="516.707" y="63.953" style="fill:#A59E95;" width="3.465" height="0.998"/>
				<rect x="517.222" y="63.953" style="fill:#A69E95;" width="3.464" height="0.998"/>
				<rect x="517.735" y="63.953" style="fill:#A79F95;" width="3.464" height="0.999"/>
				<rect x="518.25" y="63.954" style="fill:#A7A094;" width="3.463" height="0.997"/>
				<rect x="518.764" y="63.954" style="fill:#A8A194;" width="3.463" height="0.997"/>
				<rect x="519.277" y="63.953" style="fill:#A9A194;" width="3.463" height="0.998"/>
				<rect x="519.791" y="63.954" style="fill:#AAA293;" width="3.464" height="0.997"/>
				<rect x="520.305" y="63.954" style="fill:#ABA393;" width="3.464" height="0.997"/>
				<rect x="520.818" y="63.954" style="fill:#ACA393;" width="3.464" height="0.997"/>
				<rect x="521.332" y="63.953" style="fill:#ADA492;" width="3.465" height="0.998"/>
				<rect x="521.846" y="63.953" style="fill:#AEA592;" width="3.465" height="0.999"/>
				<rect x="522.359" y="63.953" style="fill:#AFA692;" width="3.465" height="0.999"/>
				<rect x="522.873" y="63.953" style="fill:#B0A691;" width="3.465" height="0.998"/>
				<rect x="523.387" y="63.953" style="fill:#B0A791;" width="3.465" height="0.998"/>
				<rect x="523.9" y="63.953" style="fill:#B1A891;" width="3.465" height="0.998"/>
				<rect x="524.415" y="63.953" style="fill:#B2A890;" width="3.464" height="0.998"/>
				<rect x="524.929" y="63.953" style="fill:#B3A990;" width="3.464" height="0.998"/>
				<rect x="525.442" y="63.953" style="fill:#B4AA90;" width="3.464" height="0.998"/>
				<rect x="525.957" y="63.953" style="fill:#B5AB8F;" width="3.463" height="0.998"/>
				<rect x="526.471" y="63.953" style="fill:#B6AB8F;" width="3.463" height="0.998"/>
				<rect x="526.984" y="63.953" style="fill:#B7AC8F;" width="3.463" height="0.998"/>
				<rect x="527.498" y="63.953" style="fill:#B8AD8E;" width="3.464" height="0.998"/>
				<rect x="528.012" y="63.953" style="fill:#B9AE8E;" width="3.464" height="0.998"/>
				<rect x="528.525" y="63.953" style="fill:#B9AE8D;" width="3.464" height="0.998"/>
				<rect x="529.039" y="63.953" style="fill:#BAAF8D;" width="3.464" height="0.998"/>
				<rect x="529.553" y="63.953" style="fill:#BBB08D;" width="3.465" height="0.998"/>
				<rect x="530.066" y="63.953" style="fill:#BCB08C;" width="3.465" height="0.998"/>
				<rect x="530.754" y="63.953" style="fill:#BDB18C;" width="3.464" height="0.998"/>
				<rect x="531.44" y="63.953" style="fill:#BDB18B;" width="3.464" height="0.998"/>
				<rect x="532.127" y="63.954" style="fill:#BDB28A;" width="3.464" height="0.997"/>
				<rect x="532.814" y="63.953" style="fill:#BEB28A;" width="3.463" height="0.998"/>
				<rect x="533.5" y="63.954" style="fill:#BEB289;" width="3.465" height="0.997"/>
				<rect x="534.188" y="63.953" style="fill:#BFB389;" width="3.463" height="0.998"/>
				<rect x="534.873" y="63.954" style="fill:#BFB388;" width="3.465" height="0.997"/>
				<rect x="535.561" y="63.954" style="fill:#BFB387;" width="3.463" height="0.997"/>
				<rect x="536.247" y="63.954" style="fill:#C0B487;" width="3.464" height="0.997"/>
				<rect x="536.934" y="63.953" style="fill:#C0B486;" width="3.464" height="0.998"/>
				<rect x="537.62" y="63.954" style="fill:#C1B585;" width="3.464" height="0.997"/>
				<rect x="538.307" y="63.953" style="fill:#C1B585;" width="3.465" height="0.998"/>
				<rect x="538.994" y="63.954" style="fill:#C1B584;" width="3.463" height="0.997"/>
				<rect x="539.68" y="63.953" style="fill:#C2B683;" width="3.465" height="0.999"/>
				<rect x="540.367" y="63.953" style="fill:#C2B683;" width="3.463" height="0.999"/>
				<rect x="541.054" y="63.953" style="fill:#C3B782;" width="3.464" height="0.998"/>
				<rect x="541.74" y="63.953" style="fill:#C3B781;" width="3.464" height="0.999"/>
				<rect x="542.428" y="63.953" style="fill:#C3B781;" width="3.463" height="0.998"/>
				<rect x="543.113" y="63.953" style="fill:#C4B880;" width="3.465" height="0.998"/>
				<rect x="543.801" y="63.953" style="fill:#C4B880;" width="3.463" height="0.998"/>
				<rect x="544.486" y="63.953" style="fill:#C5B87F;" width="3.465" height="0.998"/>
				<rect x="545.174" y="63.953" style="fill:#C5B97E;" width="3.464" height="0.999"/>
				<rect x="545.861" y="63.953" style="fill:#C6B97D;" width="3.463" height="0.999"/>
				<rect x="546.547" y="63.953" style="fill:#C6BA7D;" width="3.465" height="0.998"/>
				<rect x="547.234" y="63.953" style="fill:#C6BA7C;" width="3.463" height="0.999"/>
				<rect x="547.92" y="63.953" style="fill:#C7BA7B;" width="3.465" height="0.998"/>
				<rect x="548.607" y="63.953" style="fill:#C7BB7B;" width="3.464" height="0.998"/>
				<rect x="549.294" y="63.954" style="fill:#C8BB7A;" width="3.464" height="0.997"/>
				<rect x="549.98" y="63.953" style="fill:#C8BB79;" width="3.464" height="0.998"/>
				<rect x="550.667" y="63.953" style="fill:#C8BC79;" width="3.464" height="0.998"/>
				<rect x="551.354" y="63.953" style="fill:#C9BC78;" width="3.465" height="0.998"/>
				<rect x="552.041" y="63.954" style="fill:#C9BD77;" width="3.463" height="0.997"/>
				<rect x="552.728" y="63.953" style="fill:#CABD76;" width="3.464" height="0.999"/>
				<rect x="553.414" y="63.954" style="fill:#CABD76;" width="3.464" height="0.997"/>
				<rect x="554.101" y="63.954" style="fill:#CBBE75;" width="3.464" height="0.997"/>
				<rect x="554.787" y="63.954" style="fill:#CBBE74;" width="3.464" height="0.997"/>
				<rect x="555.475" y="63.953" style="fill:#CBBF73;" width="3.463" height="0.998"/>
				<rect x="556.16" y="63.953" style="fill:#CCBF73;" width="3.465" height="0.998"/>
				<rect x="556.848" y="63.953" style="fill:#CCBF72;" width="3.463" height="0.998"/>
				<rect x="557.533" y="63.953" style="fill:#CDC071;" width="3.465" height="0.998"/>
				<rect x="558.221" y="63.953" style="fill:#CDC070;" width="3.464" height="0.999"/>
				<rect x="558.907" y="63.953" style="fill:#CDC06F;" width="3.464" height="0.999"/>
				<rect x="559.594" y="63.954" style="fill:#CEC16F;" width="3.465" height="0.997"/>
				<rect x="560.28" y="63.953" style="fill:#CEC16E;" width="3.464" height="0.999"/>
				<rect x="560.968" y="63.953" style="fill:#CEC26D;" width="3.463" height="0.998"/>
				<rect x="561.654" y="63.953" style="fill:#CFC26C;" width="3.464" height="0.999"/>
				<rect x="562.341" y="63.953" style="fill:#CFC26B;" width="3.464" height="0.998"/>
				<rect x="563.027" y="63.953" style="fill:#D0C36B;" width="3.464" height="0.998"/>
				<rect x="563.715" y="63.953" style="fill:#D0C36A;" width="3.463" height="0.999"/>
				<rect x="564.4" y="63.953" style="fill:#D1C369;" width="3.465" height="0.998"/>
				<rect x="565.088" y="63.953" style="fill:#D1C468;" width="3.463" height="0.998"/>
				<rect x="565.774" y="63.953" style="fill:#D1C467;" width="3.464" height="0.998"/>
				<rect x="566.461" y="63.953" style="fill:#D2C566;" width="3.464" height="0.998"/>
				<rect x="567.147" y="63.953" style="fill:#D2C566;" width="3.464" height="0.998"/>
				<rect x="567.834" y="63.953" style="fill:#D3C565;" width="3.465" height="0.999"/>
				<rect x="568.521" y="63.953" style="fill:#D3C664;" width="3.463" height="0.999"/>
				<rect x="569.207" y="63.953" style="fill:#D3C663;" width="3.465" height="0.998"/>
				<rect x="569.895" y="63.953" style="fill:#D4C762;" width="3.463" height="0.998"/>
				<rect x="570.581" y="63.953" style="fill:#D4C761;" width="3.464" height="0.999"/>
				<rect x="571.268" y="63.953" style="fill:#D5C760;" width="3.465" height="0.998"/>
				<rect x="571.955" y="63.954" style="fill:#D5C85F;" width="3.463" height="0.998"/>
				<rect x="572.641" y="63.954" style="fill:#D5C85E;" width="3.464" height="0.998"/>
				<rect x="573.328" y="63.954" style="fill:#D6C85D;" width="3.463" height="0.998"/>
				<rect x="574.014" y="63.953" style="fill:#D6C95D;" width="3.465" height="0.999"/>
				<rect x="574.701" y="63.954" style="fill:#D7C95C;" width="3.464" height="0.997"/>
				<rect x="575.388" y="63.953" style="fill:#D7CA5B;" width="3.464" height="0.998"/>
				<rect x="576.074" y="63.953" style="fill:#D7CA5A;" width="3.464" height="0.998"/>
				<rect x="576.762" y="63.953" style="fill:#D8CA59;" width="3.463" height="0.998"/>
				<rect x="577.447" y="63.953" style="fill:#D8CB58;" width="3.464" height="0.998"/>
				<rect x="578.135" y="63.953" style="fill:#D9CB57;" width="3.463" height="0.999"/>
				<rect x="578.821" y="63.953" style="fill:#D9CB56;" width="3.464" height="0.998"/>
				<rect x="579.508" y="63.953" style="fill:#D9CC55;" width="3.464" height="0.999"/>
				<rect x="580.194" y="63.954" style="fill:#DACC54;" width="3.464" height="0.998"/>
				<rect x="580.881" y="63.953" style="fill:#DACD53;" width="3.465" height="0.999"/>
				<rect x="581.568" y="63.953" style="fill:#DBCD52;" width="3.463" height="0.999"/>
				<rect x="582.254" y="63.954" style="fill:#DBCD51;" width="3.465" height="0.997"/>
				<rect x="582.941" y="63.953" style="fill:#DBCE50;" width="3.463" height="0.998"/>
				<rect x="583.628" y="63.953" style="fill:#DCCE4E;" width="3.464" height="0.998"/>
				<rect x="584.314" y="63.953" style="fill:#DCCF4D;" width="3.465" height="0.998"/>
				<rect x="585.001" y="63.953" style="fill:#DDCF4C;" width="3.464" height="0.998"/>
				<rect x="585.688" y="63.953" style="fill:#DDCF4B;" width="3.465" height="0.999"/>
				<rect x="586.375" y="63.953" style="fill:#DED04A;" width="3.463" height="0.998"/>
				<rect x="587.061" y="63.953" style="fill:#DED049;" width="3.465" height="0.998"/>
				<rect x="587.748" y="63.954" style="fill:#DED148;" width="3.464" height="0.998"/>
				<rect x="588.435" y="63.953" style="fill:#DFD147;" width="3.464" height="0.998"/>
				<rect x="589.121" y="63.953" style="fill:#DFD145;" width="3.464" height="0.998"/>
				<rect x="589.809" y="63.953" style="fill:#E0D244;" width="3.463" height="0.998"/>
				<rect x="590.494" y="63.953" style="fill:#E0D243;" width="3.465" height="0.998"/>
				<rect x="591.182" y="63.953" style="fill:#E1D242;" width="3.463" height="0.999"/>
				<rect x="591.868" y="63.953" style="fill:#E1D340;" width="3.464" height="0.998"/>
				<rect x="592.555" y="63.953" style="fill:#E1D33F;" width="3.464" height="0.999"/>
				<rect x="593.242" y="63.954" style="fill:#E2D43D;" width="3.463" height="0.998"/>
				<rect x="593.928" y="63.954" style="fill:#E2D43C;" width="3.465" height="0.998"/>
				<rect x="594.615" y="63.953" style="fill:#E3D43B;" width="3.463" height="0.998"/>
				<rect x="595.301" y="63.953" style="fill:#E3D539;" width="3.465" height="0.998"/>
				<rect x="595.988" y="63.953" style="fill:#E3D538;" width="3.463" height="0.998"/>
				<rect x="596.675" y="63.953" style="fill:#E4D636;" width="3.464" height="0.998"/>
				<rect x="597.361" y="63.953" style="fill:#E4D634;" width="3.464" height="0.998"/>
				<rect x="598.048" y="63.953" style="fill:#E5D633;" width="3.464" height="0.998"/>
				<rect x="598.734" y="63.953" style="fill:#E5D731;" width="3.465" height="0.999"/>
				<rect x="599.422" y="63.953" style="fill:#E5D72F;" width="3.463" height="0.998"/>
				<rect x="600.107" y="63.953" style="fill:#E6D72D;" width="3.465" height="0.998"/>
				<rect x="600.795" y="63.953" style="fill:#E6D82B;" width="3.464" height="0.998"/>
				<rect x="601.481" y="63.953" style="fill:#E7D829;" width="3.464" height="0.998"/>
				<rect x="602.168" y="63.953" style="fill:#E7D927;" width="3.464" height="0.998"/>
				<rect x="602.855" y="63.953" style="fill:#E7D925;" width="3.463" height="0.998"/>
				<rect x="603.541" y="63.953" style="fill:#E8D923;" width="3.465" height="0.998"/>
			</g>
			<g>
				<path style="fill:#595757;" d="M315.25,56.589h3.228l2.491,11.004l3.078-11.004h2.729l3.123,11.004l2.467-11.004h3.229
					l-3.884,17.238h-3.147l-3.176-11.145l-3.117,11.145h-3.117L315.25,56.589z"/>
				<path style="fill:#595757;" d="M337.814,56.155h3.176v6.211c0.625-0.539,1.254-0.943,1.887-1.213s1.273-0.404,1.922-0.404
					c1.266,0,2.332,0.438,3.199,1.313c0.742,0.758,1.113,1.871,1.113,3.34v8.426h-3.152v-5.59c0-1.477-0.07-2.477-0.211-3
					s-0.381-0.914-0.721-1.172s-0.76-0.387-1.26-0.387c-0.648,0-1.205,0.215-1.67,0.645s-0.787,1.016-0.967,1.758
					c-0.094,0.383-0.141,1.258-0.141,2.625v5.121h-3.176V56.155z"/>
				<path style="fill:#595757;" d="M361.615,61.077h3.199v12.75h-3.199v-1.348c-0.624,0.594-1.251,1.021-1.879,1.283
					s-1.309,0.393-2.042,0.393c-1.646,0-3.071-0.639-4.272-1.916c-1.202-1.277-1.803-2.865-1.803-4.764
					c0-1.969,0.581-3.582,1.744-4.84s2.575-1.887,4.237-1.887c0.765,0,1.482,0.145,2.153,0.434s1.291,0.723,1.861,1.301V61.077z
					 M358.252,63.702c-0.988,0-1.811,0.35-2.464,1.049c-0.654,0.699-0.981,1.596-0.981,2.689c0,1.102,0.333,2.008,0.998,2.719
					c0.666,0.711,1.485,1.066,2.459,1.066c1.005,0,1.838-0.35,2.499-1.049c0.662-0.699,0.993-1.615,0.993-2.748
					c0-1.109-0.331-2.008-0.993-2.695C360.102,64.046,359.265,63.702,358.252,63.702z"/>
				<path style="fill:#595757;" d="M368.436,56.378h3.199v4.699h1.898v2.754h-1.898v9.996h-3.199v-9.996h-1.641v-2.754h1.641V56.378
					z"/>
				<path style="fill:#595757;" d="M380.547,61.077h3.132l2.563,7.254l2.759-7.254h1.915l2.709,7.172l2.567-7.172h3.151
					l-4.652,12.75h-2.027l-2.719-7.266l-2.801,7.266h-2.004L380.547,61.077z"/>
				<path style="fill:#595757;" d="M413.928,68.378H403.65c0.148,0.906,0.545,1.627,1.189,2.162s1.467,0.803,2.467,0.803
					c1.195,0,2.223-0.418,3.082-1.254l2.695,1.266c-0.672,0.953-1.477,1.658-2.414,2.115s-2.051,0.686-3.34,0.686
					c-2,0-3.629-0.631-4.887-1.893s-1.887-2.842-1.887-4.74c0-1.945,0.627-3.561,1.881-4.846s2.826-1.928,4.717-1.928
					c2.008,0,3.641,0.643,4.898,1.928s1.887,2.982,1.887,5.092L413.928,68.378z M410.729,65.858
					c-0.211-0.711-0.628-1.289-1.25-1.734s-1.344-0.668-2.166-0.668c-0.893,0-1.675,0.25-2.348,0.75
					c-0.423,0.313-0.813,0.863-1.174,1.652H410.729z"/>
				<path style="fill:#2C50A2;" d="M325.615,84.956h3.199v17.672h-3.199v-1.348c-0.624,0.594-1.251,1.021-1.879,1.283
					s-1.309,0.393-2.042,0.393c-1.646,0-3.071-0.639-4.272-1.916c-1.202-1.277-1.803-2.865-1.803-4.764
					c0-1.969,0.581-3.582,1.744-4.84s2.575-1.887,4.237-1.887c0.765,0,1.482,0.145,2.153,0.434s1.291,0.723,1.861,1.301V84.956z
					 M322.252,92.503c-0.988,0-1.811,0.35-2.464,1.049c-0.654,0.699-0.981,1.596-0.981,2.689c0,1.102,0.333,2.008,0.998,2.719
					c0.666,0.711,1.485,1.066,2.459,1.066c1.005,0,1.838-0.35,2.499-1.049c0.662-0.699,0.993-1.615,0.993-2.748
					c0-1.109-0.331-2.008-0.993-2.695C324.102,92.847,323.265,92.503,322.252,92.503z"/>
				<path style="fill:#2C50A2;" d="M338.037,89.55c1.203,0,2.334,0.301,3.393,0.902s1.885,1.418,2.479,2.449s0.891,2.145,0.891,3.34
					c0,1.203-0.299,2.328-0.896,3.375s-1.412,1.865-2.443,2.455s-2.168,0.885-3.41,0.885c-1.828,0-3.389-0.65-4.682-1.951
					s-1.939-2.881-1.939-4.74c0-1.992,0.73-3.652,2.191-4.98C334.9,90.128,336.373,89.55,338.037,89.55z M338.09,92.562
					c-0.994,0-1.821,0.346-2.482,1.037c-0.662,0.691-0.992,1.576-0.992,2.654c0,1.109,0.326,2.008,0.98,2.695
					c0.653,0.688,1.48,1.031,2.482,1.031s1.835-0.348,2.5-1.043s0.998-1.59,0.998-2.684s-0.327-1.982-0.98-2.666
					S339.107,92.562,338.09,92.562z"/>
			</g>
			<rect x="320.125" y="108.003" style="fill:#E9C41D;" width="20" height="2"/>
		</g>
		<g>
			<path style="fill:#898989;" d="M674.829,56.407h1.327l2.642,9.316l3.706-9.316h0.268l3.663,9.316l2.687-9.316h1.317
				l-3.715,12.929h-0.24l-3.836-9.782l-3.912,9.782h-0.241L674.829,56.407z"/>
			<path style="fill:#898989;" d="M692.636,56.082h1.23v5.405c0.498-0.656,1.046-1.146,1.644-1.473
				c0.598-0.324,1.245-0.487,1.942-0.487c0.715,0,1.35,0.182,1.902,0.545c0.555,0.363,0.963,0.851,1.227,1.464
				c0.264,0.611,0.396,1.571,0.396,2.878v4.922h-1.23v-4.562c0-1.102-0.044-1.837-0.132-2.206c-0.152-0.633-0.43-1.108-0.83-1.429
				c-0.402-0.318-0.928-0.479-1.578-0.479c-0.744,0-1.41,0.246-2,0.738c-0.588,0.492-0.977,1.102-1.164,1.828
				c-0.117,0.469-0.176,1.336-0.176,2.602v3.507h-1.23V56.082z"/>
			<path style="fill:#898989;" d="M711.664,66.163l1.037,0.545c-0.34,0.668-0.733,1.207-1.179,1.617
				c-0.446,0.41-0.947,0.723-1.505,0.936c-0.557,0.215-1.188,0.321-1.891,0.321c-1.561,0-2.78-0.511-3.66-1.534
				c-0.88-1.021-1.319-2.178-1.319-3.467c0-1.213,0.372-2.294,1.117-3.243c0.944-1.207,2.208-1.811,3.792-1.811
				c1.63,0,2.932,0.618,3.905,1.854c0.692,0.873,1.044,1.963,1.056,3.27h-8.604c0.023,1.111,0.378,2.021,1.064,2.731
				s1.534,1.065,2.544,1.065c0.486,0,0.96-0.084,1.421-0.254c0.46-0.17,0.852-0.395,1.175-0.674
				C710.939,67.24,711.289,66.788,711.664,66.163z M711.664,63.588c-0.164-0.656-0.403-1.181-0.717-1.573
				c-0.314-0.393-0.729-0.709-1.246-0.949c-0.516-0.24-1.059-0.36-1.627-0.36c-0.939,0-1.746,0.302-2.421,0.905
				c-0.492,0.439-0.865,1.099-1.117,1.978H711.664z"/>
			<path style="fill:#898989;" d="M716.384,56.223h1.23v3.551h1.951v1.063h-1.951v8.499h-1.23v-8.499h-1.679v-1.063h1.679V56.223z"
				/>
			<path style="fill:#898989;" d="M721.411,56.082h1.23v5.405c0.498-0.656,1.046-1.146,1.644-1.473
				c0.598-0.324,1.245-0.487,1.942-0.487c0.715,0,1.35,0.182,1.902,0.545c0.555,0.363,0.963,0.851,1.227,1.464
				c0.264,0.611,0.396,1.571,0.396,2.878v4.922h-1.23v-4.562c0-1.102-0.044-1.837-0.132-2.206c-0.152-0.633-0.43-1.108-0.83-1.429
				c-0.402-0.318-0.928-0.479-1.578-0.479c-0.744,0-1.41,0.246-2,0.738c-0.588,0.492-0.977,1.102-1.164,1.828
				c-0.117,0.469-0.176,1.336-0.176,2.602v3.507h-1.23V56.082z"/>
			<path style="fill:#898989;" d="M740.439,66.163l1.037,0.545c-0.34,0.668-0.733,1.207-1.179,1.617
				c-0.446,0.41-0.947,0.723-1.505,0.936c-0.557,0.215-1.188,0.321-1.891,0.321c-1.561,0-2.78-0.511-3.66-1.534
				c-0.88-1.021-1.319-2.178-1.319-3.467c0-1.213,0.372-2.294,1.117-3.243c0.944-1.207,2.208-1.811,3.792-1.811
				c1.63,0,2.932,0.618,3.905,1.854c0.692,0.873,1.044,1.963,1.056,3.27h-8.604c0.023,1.111,0.378,2.021,1.064,2.731
				s1.534,1.065,2.544,1.065c0.486,0,0.96-0.084,1.421-0.254c0.46-0.17,0.852-0.395,1.175-0.674
				C739.715,67.24,740.064,66.788,740.439,66.163z M740.439,63.588c-0.164-0.656-0.403-1.181-0.717-1.573
				c-0.314-0.393-0.729-0.709-1.246-0.949c-0.516-0.24-1.059-0.36-1.627-0.36c-0.939,0-1.746,0.302-2.421,0.905
				c-0.492,0.439-0.865,1.099-1.117,1.978H740.439z"/>
			<path style="fill:#898989;" d="M743.621,59.773h1.257v1.397c0.375-0.551,0.771-0.963,1.187-1.234
				c0.416-0.273,0.85-0.409,1.301-0.409c0.34,0,0.703,0.108,1.09,0.325l-0.642,1.037c-0.258-0.111-0.475-0.167-0.65-0.167
				c-0.41,0-0.806,0.169-1.187,0.505c-0.381,0.338-0.671,0.86-0.87,1.569c-0.152,0.545-0.229,1.646-0.229,3.305v3.234h-1.257V59.773
				z"/>
			<path style="fill:#898989;" d="M754.402,59.773h1.301l3.286,7.364l3.191-7.364h1.31l-5.704,13.061h-1.3l1.841-4.222
				L754.402,59.773z"/>
			<path style="fill:#898989;" d="M769.607,59.527c1.474,0,2.694,0.533,3.663,1.6c0.88,0.973,1.32,2.124,1.32,3.454
				c0,1.336-0.465,2.504-1.396,3.502c-0.931,1-2.126,1.499-3.588,1.499c-1.468,0-2.666-0.499-3.597-1.499
				c-0.931-0.998-1.396-2.166-1.396-3.502c0-1.324,0.44-2.473,1.32-3.445C766.904,60.063,768.128,59.527,769.607,59.527z
				 M769.603,60.731c-1.022,0-1.901,0.378-2.637,1.134s-1.103,1.67-1.103,2.742c0,0.691,0.168,1.336,0.503,1.934
				s0.788,1.06,1.358,1.384c0.57,0.326,1.196,0.488,1.878,0.488c0.683,0,1.309-0.162,1.879-0.488
				c0.57-0.324,1.023-0.786,1.358-1.384s0.503-1.242,0.503-1.934c0-1.072-0.369-1.986-1.107-2.742
				C771.498,61.109,770.62,60.731,769.603,60.731z"/>
			<path style="fill:#898989;" d="M776.709,59.773h1.23v4.465c0,1.09,0.059,1.84,0.176,2.25c0.177,0.586,0.513,1.049,1.008,1.389
				c0.496,0.34,1.087,0.51,1.773,0.51s1.27-0.165,1.748-0.497c0.478-0.33,0.808-0.766,0.99-1.305
				c0.123-0.369,0.185-1.151,0.185-2.347v-4.465h1.257v4.693c0,1.318-0.154,2.312-0.461,2.979c-0.309,0.668-0.771,1.191-1.389,1.568
				c-0.619,0.379-1.394,0.567-2.325,0.567s-1.71-0.188-2.333-0.567c-0.625-0.377-1.09-0.904-1.398-1.582
				c-0.307-0.676-0.461-1.694-0.461-3.054V59.773z"/>
			<path style="fill:#898989;" d="M803.268,59.773v9.563h-1.213v-1.644c-0.516,0.627-1.094,1.099-1.736,1.415
				c-0.641,0.316-1.343,0.475-2.104,0.475c-1.354,0-2.509-0.491-3.468-1.472c-0.957-0.982-1.437-2.176-1.437-3.582
				c0-1.377,0.483-2.555,1.45-3.533s2.13-1.468,3.489-1.468c0.785,0,1.495,0.167,2.132,0.501c0.635,0.334,1.193,0.835,1.674,1.503
				v-1.758H803.268z M798.35,60.714c-0.685,0-1.316,0.168-1.896,0.505c-0.58,0.337-1.041,0.81-1.383,1.418
				c-0.343,0.608-0.514,1.253-0.514,1.931c0,0.674,0.173,1.317,0.518,1.932c0.346,0.615,0.81,1.094,1.392,1.436
				c0.582,0.343,1.207,0.514,1.875,0.514c0.673,0,1.311-0.17,1.913-0.51c0.603-0.339,1.066-0.799,1.392-1.378
				s0.487-1.231,0.487-1.958c0-1.105-0.364-2.03-1.093-2.773C800.313,61.085,799.415,60.714,798.35,60.714z"/>
			<path style="fill:#898989;" d="M805.57,59.773h1.257v1.397c0.375-0.551,0.771-0.963,1.187-1.234
				c0.416-0.273,0.85-0.409,1.301-0.409c0.34,0,0.703,0.108,1.09,0.325l-0.642,1.037c-0.258-0.111-0.475-0.167-0.65-0.167
				c-0.41,0-0.806,0.169-1.187,0.505c-0.381,0.338-0.671,0.86-0.87,1.569c-0.152,0.545-0.229,1.646-0.229,3.305v3.234h-1.257V59.773
				z"/>
			<path style="fill:#898989;" d="M819.501,66.163l1.037,0.545c-0.34,0.668-0.733,1.207-1.179,1.617
				c-0.446,0.41-0.947,0.723-1.505,0.936c-0.557,0.215-1.188,0.321-1.891,0.321c-1.561,0-2.78-0.511-3.66-1.534
				c-0.88-1.021-1.319-2.178-1.319-3.467c0-1.213,0.372-2.294,1.117-3.243c0.944-1.207,2.208-1.811,3.792-1.811
				c1.63,0,2.932,0.618,3.905,1.854c0.692,0.873,1.044,1.963,1.056,3.27h-8.604c0.023,1.111,0.378,2.021,1.064,2.731
				s1.534,1.065,2.544,1.065c0.486,0,0.96-0.084,1.421-0.254c0.46-0.17,0.852-0.395,1.175-0.674
				C818.776,67.24,819.126,66.788,819.501,66.163z M819.501,63.588c-0.164-0.656-0.403-1.181-0.717-1.573
				c-0.314-0.393-0.729-0.709-1.246-0.949c-0.516-0.24-1.059-0.36-1.627-0.36c-0.939,0-1.746,0.302-2.421,0.905
				c-0.492,0.439-0.865,1.099-1.117,1.978H819.501z"/>
			<path style="fill:#898989;" d="M838.605,59.773v9.563h-1.213v-1.644c-0.516,0.627-1.094,1.099-1.736,1.415
				c-0.641,0.316-1.343,0.475-2.104,0.475c-1.354,0-2.509-0.491-3.468-1.472c-0.957-0.982-1.437-2.176-1.437-3.582
				c0-1.377,0.483-2.555,1.45-3.533s2.13-1.468,3.489-1.468c0.785,0,1.495,0.167,2.132,0.501c0.635,0.334,1.193,0.835,1.674,1.503
				v-1.758H838.605z M833.688,60.714c-0.685,0-1.316,0.168-1.896,0.505c-0.58,0.337-1.041,0.81-1.383,1.418
				c-0.343,0.608-0.514,1.253-0.514,1.931c0,0.674,0.173,1.317,0.518,1.932c0.346,0.615,0.81,1.094,1.392,1.436
				c0.582,0.343,1.207,0.514,1.875,0.514c0.673,0,1.311-0.17,1.913-0.51c0.603-0.339,1.066-0.799,1.392-1.378
				s0.487-1.231,0.487-1.958c0-1.105-0.364-2.03-1.093-2.773C835.65,61.085,834.753,60.714,833.688,60.714z"/>
			<path style="fill:#898989;" d="M847.384,69.336V56.082h1.23v5.335c0.515-0.633,1.092-1.105,1.729-1.42
				c0.639-0.313,1.338-0.47,2.099-0.47c1.353,0,2.507,0.491,3.464,1.472c0.957,0.982,1.436,2.173,1.436,3.573
				c0,1.383-0.483,2.563-1.449,3.542s-2.127,1.468-3.485,1.468c-0.778,0-1.483-0.167-2.116-0.501
				c-0.632-0.334-1.19-0.835-1.677-1.503v1.758H847.384z M852.306,68.396c0.684,0,1.315-0.168,1.894-0.506
				c0.579-0.336,1.039-0.81,1.382-1.419c0.342-0.609,0.513-1.254,0.513-1.934s-0.173-1.327-0.518-1.942s-0.808-1.094-1.39-1.438
				c-0.582-0.342-1.203-0.514-1.863-0.514c-0.673,0-1.311,0.172-1.916,0.514c-0.605,0.344-1.069,0.805-1.395,1.385
				c-0.324,0.58-0.486,1.233-0.486,1.96c0,1.107,0.364,2.033,1.092,2.777S851.241,68.396,852.306,68.396z"/>
			<path style="fill:#898989;" d="M859.425,59.773h1.23v4.465c0,1.09,0.059,1.84,0.176,2.25c0.177,0.586,0.513,1.049,1.008,1.389
				c0.496,0.34,1.087,0.51,1.773,0.51s1.27-0.165,1.748-0.497c0.478-0.33,0.808-0.766,0.99-1.305
				c0.123-0.369,0.185-1.151,0.185-2.347v-4.465h1.257v4.693c0,1.318-0.154,2.312-0.461,2.979c-0.309,0.668-0.771,1.191-1.389,1.568
				c-0.619,0.379-1.394,0.567-2.325,0.567s-1.71-0.188-2.333-0.567c-0.625-0.377-1.09-0.904-1.398-1.582
				c-0.307-0.676-0.461-1.694-0.461-3.054V59.773z"/>
			<path style="fill:#898989;" d="M875.333,60.819l-0.791,0.817c-0.658-0.639-1.302-0.958-1.93-0.958
				c-0.399,0-0.742,0.132-1.026,0.396c-0.285,0.264-0.428,0.571-0.428,0.923c0,0.311,0.117,0.606,0.353,0.888
				c0.234,0.287,0.728,0.624,1.479,1.011c0.916,0.475,1.538,0.932,1.867,1.371c0.323,0.445,0.484,0.946,0.484,1.503
				c0,0.785-0.276,1.45-0.827,1.995c-0.552,0.545-1.241,0.817-2.069,0.817c-0.552,0-1.078-0.12-1.58-0.36
				c-0.501-0.24-0.916-0.571-1.245-0.993l0.773-0.879c0.628,0.709,1.295,1.063,2,1.063c0.493,0,0.913-0.158,1.26-0.475
				s0.52-0.688,0.52-1.116c0-0.352-0.114-0.665-0.344-0.94c-0.229-0.27-0.745-0.609-1.55-1.02c-0.863-0.445-1.45-0.885-1.762-1.318
				s-0.467-0.929-0.467-1.485c0-0.727,0.248-1.33,0.744-1.811s1.122-0.721,1.879-0.721
				C873.555,59.527,874.441,59.958,875.333,60.819z"/>
			<path style="fill:#898989;" d="M877.938,55.836c0.28,0,0.52,0.1,0.718,0.299s0.298,0.439,0.298,0.721
				c0,0.275-0.1,0.513-0.298,0.712s-0.438,0.299-0.718,0.299c-0.273,0-0.51-0.1-0.708-0.299s-0.298-0.437-0.298-0.712
				c0-0.281,0.1-0.521,0.298-0.721S877.665,55.836,877.938,55.836z M877.328,59.773h1.23v9.563h-1.23V59.773z"/>
			<path style="fill:#898989;" d="M881.116,59.773h1.23v1.714c0.492-0.656,1.037-1.146,1.635-1.473
				c0.598-0.324,1.248-0.487,1.951-0.487c0.715,0,1.35,0.182,1.902,0.545c0.555,0.363,0.963,0.853,1.227,1.468
				s0.396,1.573,0.396,2.874v4.922h-1.23v-4.562c0-1.102-0.046-1.837-0.137-2.206c-0.143-0.633-0.416-1.108-0.82-1.429
				c-0.404-0.318-0.932-0.479-1.582-0.479c-0.745,0-1.411,0.246-2,0.738s-0.978,1.102-1.165,1.828
				c-0.117,0.475-0.176,1.342-0.176,2.602v3.507h-1.23V59.773z"/>
			<path style="fill:#898989;" d="M900.145,66.163l1.037,0.545c-0.34,0.668-0.733,1.207-1.179,1.617
				c-0.446,0.41-0.947,0.723-1.505,0.936c-0.557,0.215-1.188,0.321-1.891,0.321c-1.561,0-2.78-0.511-3.66-1.534
				c-0.88-1.021-1.319-2.178-1.319-3.467c0-1.213,0.372-2.294,1.117-3.243c0.944-1.207,2.208-1.811,3.792-1.811
				c1.63,0,2.932,0.618,3.905,1.854c0.692,0.873,1.044,1.963,1.056,3.27h-8.604c0.023,1.111,0.378,2.021,1.064,2.731
				s1.534,1.065,2.544,1.065c0.486,0,0.96-0.084,1.421-0.254c0.46-0.17,0.852-0.395,1.175-0.674
				C899.42,67.24,899.77,66.788,900.145,66.163z M900.145,63.588c-0.164-0.656-0.403-1.181-0.717-1.573
				c-0.314-0.393-0.729-0.709-1.246-0.949c-0.516-0.24-1.059-0.36-1.627-0.36c-0.939,0-1.746,0.302-2.421,0.905
				c-0.492,0.439-0.865,1.099-1.117,1.978H900.145z"/>
			<path style="fill:#898989;" d="M908.6,60.819l-0.791,0.817c-0.658-0.639-1.302-0.958-1.93-0.958
				c-0.399,0-0.742,0.132-1.026,0.396c-0.285,0.264-0.428,0.571-0.428,0.923c0,0.311,0.117,0.606,0.353,0.888
				c0.234,0.287,0.728,0.624,1.479,1.011c0.916,0.475,1.538,0.932,1.867,1.371c0.323,0.445,0.484,0.946,0.484,1.503
				c0,0.785-0.276,1.45-0.827,1.995c-0.552,0.545-1.241,0.817-2.069,0.817c-0.552,0-1.078-0.12-1.58-0.36
				c-0.501-0.24-0.916-0.571-1.245-0.993l0.773-0.879c0.628,0.709,1.295,1.063,2,1.063c0.493,0,0.913-0.158,1.26-0.475
				s0.52-0.688,0.52-1.116c0-0.352-0.114-0.665-0.344-0.94c-0.229-0.27-0.745-0.609-1.55-1.02c-0.863-0.445-1.45-0.885-1.762-1.318
				s-0.467-0.929-0.467-1.485c0-0.727,0.248-1.33,0.744-1.811s1.122-0.721,1.879-0.721C906.821,59.527,907.708,59.958,908.6,60.819z
				"/>
			<path style="fill:#898989;" d="M915.587,60.819l-0.791,0.817c-0.658-0.639-1.302-0.958-1.93-0.958
				c-0.399,0-0.742,0.132-1.026,0.396c-0.285,0.264-0.428,0.571-0.428,0.923c0,0.311,0.117,0.606,0.353,0.888
				c0.234,0.287,0.728,0.624,1.479,1.011c0.916,0.475,1.538,0.932,1.867,1.371c0.323,0.445,0.484,0.946,0.484,1.503
				c0,0.785-0.276,1.45-0.827,1.995c-0.552,0.545-1.241,0.817-2.069,0.817c-0.552,0-1.078-0.12-1.58-0.36
				c-0.501-0.24-0.916-0.571-1.245-0.993l0.773-0.879c0.628,0.709,1.295,1.063,2,1.063c0.493,0,0.913-0.158,1.26-0.475
				s0.52-0.688,0.52-1.116c0-0.352-0.114-0.665-0.344-0.94c-0.229-0.27-0.745-0.609-1.55-1.02c-0.863-0.445-1.45-0.885-1.762-1.318
				s-0.467-0.929-0.467-1.485c0-0.727,0.248-1.33,0.744-1.811s1.122-0.721,1.879-0.721
				C913.809,59.527,914.695,59.958,915.587,60.819z"/>
			<path style="fill:#898989;" d="M928.223,59.527c1.474,0,2.694,0.533,3.663,1.6c0.88,0.973,1.32,2.124,1.32,3.454
				c0,1.336-0.465,2.504-1.396,3.502c-0.931,1-2.126,1.499-3.588,1.499c-1.468,0-2.666-0.499-3.597-1.499
				c-0.931-0.998-1.396-2.166-1.396-3.502c0-1.324,0.44-2.473,1.32-3.445C925.52,60.063,926.743,59.527,928.223,59.527z
				 M928.218,60.731c-1.022,0-1.901,0.378-2.637,1.134s-1.103,1.67-1.103,2.742c0,0.691,0.168,1.336,0.503,1.934
				s0.788,1.06,1.358,1.384c0.57,0.326,1.196,0.488,1.878,0.488c0.683,0,1.309-0.162,1.879-0.488
				c0.57-0.324,1.023-0.786,1.358-1.384s0.503-1.242,0.503-1.934c0-1.072-0.369-1.986-1.107-2.742
				C930.113,61.109,929.235,60.731,928.218,60.731z"/>
			<path style="fill:#898989;" d="M935.017,59.773h1.257v1.397c0.375-0.551,0.771-0.963,1.187-1.234
				c0.416-0.273,0.85-0.409,1.301-0.409c0.34,0,0.703,0.108,1.09,0.325l-0.642,1.037c-0.258-0.111-0.475-0.167-0.65-0.167
				c-0.41,0-0.806,0.169-1.187,0.505c-0.381,0.338-0.671,0.86-0.87,1.569c-0.152,0.545-0.229,1.646-0.229,3.305v3.234h-1.257V59.773
				z"/>
			<path style="fill:#898989;" d="M956.354,59.773v9.563h-1.213v-1.644c-0.516,0.627-1.094,1.099-1.736,1.415
				c-0.641,0.316-1.343,0.475-2.104,0.475c-1.354,0-2.509-0.491-3.468-1.472c-0.957-0.982-1.437-2.176-1.437-3.582
				c0-1.377,0.483-2.555,1.45-3.533s2.13-1.468,3.489-1.468c0.785,0,1.495,0.167,2.132,0.501c0.635,0.334,1.193,0.835,1.674,1.503
				v-1.758H956.354z M951.437,60.714c-0.685,0-1.316,0.168-1.896,0.505c-0.58,0.337-1.041,0.81-1.383,1.418
				c-0.343,0.608-0.514,1.253-0.514,1.931c0,0.674,0.173,1.317,0.518,1.932c0.346,0.615,0.81,1.094,1.392,1.436
				c0.582,0.343,1.207,0.514,1.875,0.514c0.673,0,1.311-0.17,1.913-0.51c0.603-0.339,1.066-0.799,1.392-1.378
				s0.487-1.231,0.487-1.958c0-1.105-0.364-2.03-1.093-2.773C953.399,61.085,952.502,60.714,951.437,60.714z"/>
			<path style="fill:#898989;" d="M974.334,61.76l-0.976,0.606c-0.843-1.119-1.993-1.679-3.45-1.679
				c-1.165,0-2.132,0.374-2.901,1.124c-0.77,0.749-1.154,1.659-1.154,2.73c0,0.696,0.177,1.352,0.531,1.966
				c0.354,0.614,0.84,1.092,1.457,1.431c0.617,0.34,1.31,0.51,2.076,0.51c1.404,0,2.552-0.56,3.441-1.679l0.976,0.642
				c-0.457,0.688-1.071,1.223-1.842,1.602s-1.647,0.569-2.632,0.569c-1.512,0-2.766-0.48-3.762-1.441s-1.494-2.13-1.494-3.507
				c0-0.926,0.233-1.785,0.698-2.58c0.467-0.793,1.106-1.413,1.921-1.858s1.726-0.668,2.733-0.668c0.633,0,1.244,0.097,1.832,0.29
				c0.59,0.193,1.089,0.445,1.499,0.756S974.047,61.279,974.334,61.76z"/>
			<path style="fill:#898989;" d="M981.225,59.527c1.474,0,2.694,0.533,3.663,1.6c0.88,0.973,1.32,2.124,1.32,3.454
				c0,1.336-0.465,2.504-1.396,3.502c-0.931,1-2.126,1.499-3.588,1.499c-1.468,0-2.666-0.499-3.597-1.499
				c-0.931-0.998-1.396-2.166-1.396-3.502c0-1.324,0.44-2.473,1.32-3.445C978.521,60.063,979.745,59.527,981.225,59.527z
				 M981.22,60.731c-1.022,0-1.901,0.378-2.637,1.134s-1.103,1.67-1.103,2.742c0,0.691,0.168,1.336,0.503,1.934
				s0.788,1.06,1.358,1.384c0.57,0.326,1.196,0.488,1.878,0.488c0.683,0,1.309-0.162,1.879-0.488
				c0.57-0.324,1.023-0.786,1.358-1.384s0.503-1.242,0.503-1.934c0-1.072-0.369-1.986-1.107-2.742
				C983.115,61.109,982.237,60.731,981.22,60.731z"/>
			<path style="fill:#898989;" d="M988.484,59.773h1.23v1.714c0.492-0.656,1.037-1.146,1.635-1.473
				c0.598-0.324,1.248-0.487,1.951-0.487c0.715,0,1.35,0.182,1.902,0.545c0.555,0.363,0.963,0.853,1.227,1.468
				s0.396,1.573,0.396,2.874v4.922h-1.23v-4.562c0-1.102-0.046-1.837-0.137-2.206c-0.143-0.633-0.416-1.108-0.82-1.429
				c-0.404-0.318-0.932-0.479-1.582-0.479c-0.745,0-1.411,0.246-2,0.738s-0.978,1.102-1.165,1.828
				c-0.117,0.475-0.176,1.342-0.176,2.602v3.507h-1.23V59.773z"/>
			<path style="fill:#898989;" d="M1004.27,60.819l-0.791,0.817c-0.658-0.639-1.302-0.958-1.93-0.958
				c-0.399,0-0.742,0.132-1.026,0.396c-0.285,0.264-0.428,0.571-0.428,0.923c0,0.311,0.117,0.606,0.353,0.888
				c0.234,0.287,0.728,0.624,1.479,1.011c0.916,0.475,1.538,0.932,1.867,1.371c0.323,0.445,0.484,0.946,0.484,1.503
				c0,0.785-0.276,1.45-0.827,1.995c-0.552,0.545-1.241,0.817-2.069,0.817c-0.552,0-1.078-0.12-1.58-0.36
				c-0.501-0.24-0.916-0.571-1.245-0.993l0.773-0.879c0.628,0.709,1.295,1.063,2,1.063c0.493,0,0.913-0.158,1.26-0.475
				s0.52-0.688,0.52-1.116c0-0.352-0.114-0.665-0.344-0.94c-0.229-0.27-0.745-0.609-1.55-1.02c-0.863-0.445-1.45-0.885-1.762-1.318
				s-0.467-0.929-0.467-1.485c0-0.727,0.248-1.33,0.744-1.811s1.122-0.721,1.879-0.721
				C1002.491,59.527,1003.378,59.958,1004.27,60.819z"/>
			<path style="fill:#898989;" d="M1006.291,59.773h1.23v4.465c0,1.09,0.059,1.84,0.176,2.25c0.177,0.586,0.513,1.049,1.008,1.389
				c0.496,0.34,1.087,0.51,1.773,0.51s1.27-0.165,1.748-0.497c0.478-0.33,0.808-0.766,0.99-1.305
				c0.123-0.369,0.185-1.151,0.185-2.347v-4.465h1.257v4.693c0,1.318-0.154,2.312-0.461,2.979c-0.309,0.668-0.771,1.191-1.389,1.568
				c-0.619,0.379-1.394,0.567-2.325,0.567s-1.71-0.188-2.333-0.567c-0.625-0.377-1.09-0.904-1.398-1.582
				c-0.307-0.676-0.461-1.694-0.461-3.054V59.773z"/>
			<path style="fill:#898989;" d="M1017.383,59.773h1.23v1.652c0.428-0.609,0.868-1.055,1.32-1.336
				c0.621-0.375,1.275-0.563,1.962-0.563c0.463,0,0.903,0.091,1.319,0.272c0.417,0.182,0.757,0.424,1.021,0.725
				c0.264,0.303,0.492,0.734,0.686,1.297c0.409-0.75,0.921-1.32,1.535-1.709c0.613-0.391,1.274-0.585,1.981-0.585
				c0.66,0,1.243,0.167,1.749,0.501s0.881,0.8,1.127,1.397c0.245,0.598,0.368,1.494,0.368,2.689v5.221h-1.257v-5.221
				c0-1.025-0.073-1.729-0.219-2.114c-0.146-0.383-0.396-0.692-0.749-0.927s-0.775-0.352-1.266-0.352
				c-0.596,0-1.141,0.176-1.634,0.527c-0.494,0.352-0.854,0.82-1.082,1.406s-0.342,1.564-0.342,2.936v3.744h-1.23V64.44
				c0-1.154-0.072-1.938-0.216-2.352c-0.144-0.412-0.394-0.744-0.751-0.992c-0.357-0.25-0.782-0.374-1.274-0.374
				c-0.568,0-1.101,0.171-1.596,0.515c-0.495,0.342-0.861,0.804-1.098,1.384c-0.238,0.58-0.356,1.468-0.356,2.663v4.052h-1.23
				V59.773z"/>
			<path style="fill:#898989;" d="M1042.326,66.163l1.037,0.545c-0.34,0.668-0.733,1.207-1.179,1.617
				c-0.446,0.41-0.947,0.723-1.505,0.936c-0.557,0.215-1.188,0.321-1.891,0.321c-1.561,0-2.78-0.511-3.66-1.534
				c-0.88-1.021-1.319-2.178-1.319-3.467c0-1.213,0.372-2.294,1.117-3.243c0.944-1.207,2.208-1.811,3.792-1.811
				c1.63,0,2.932,0.618,3.905,1.854c0.692,0.873,1.044,1.963,1.056,3.27h-8.604c0.023,1.111,0.378,2.021,1.064,2.731
				s1.534,1.065,2.544,1.065c0.486,0,0.96-0.084,1.421-0.254c0.46-0.17,0.852-0.395,1.175-0.674
				C1041.602,67.24,1041.951,66.788,1042.326,66.163z M1042.326,63.588c-0.164-0.656-0.403-1.181-0.717-1.573
				c-0.314-0.393-0.729-0.709-1.246-0.949c-0.516-0.24-1.059-0.36-1.627-0.36c-0.939,0-1.746,0.302-2.421,0.905
				c-0.492,0.439-0.865,1.099-1.117,1.978H1042.326z"/>
			<path style="fill:#898989;" d="M1045.508,59.773h1.257v1.397c0.375-0.551,0.771-0.963,1.187-1.234
				c0.416-0.273,0.85-0.409,1.301-0.409c0.34,0,0.703,0.108,1.09,0.325l-0.642,1.037c-0.258-0.111-0.475-0.167-0.65-0.167
				c-0.41,0-0.806,0.169-1.187,0.505c-0.381,0.338-0.671,0.86-0.87,1.569c-0.152,0.545-0.229,1.646-0.229,3.305v3.234h-1.257V59.773
				z"/>
			<path style="fill:#898989;" d="M1052.609,66.963l1.187,0.563l-1.784,3.322l-0.87-0.369L1052.609,66.963z"/>
			<path style="fill:#898989;" d="M674.064,83.773h1.266l2.931,6.943l3.052-6.943h0.223l3.071,6.943l2.988-6.943h1.279l-4.154,9.563
				h-0.228l-3.058-6.847l-3.057,6.847h-0.229L674.064,83.773z"/>
			<path style="fill:#898989;" d="M698.366,90.163l1.037,0.545c-0.34,0.668-0.733,1.207-1.179,1.617
				c-0.446,0.41-0.947,0.723-1.505,0.936c-0.557,0.215-1.188,0.321-1.891,0.321c-1.561,0-2.78-0.511-3.66-1.534
				c-0.88-1.021-1.319-2.178-1.319-3.467c0-1.213,0.372-2.294,1.117-3.243c0.944-1.207,2.208-1.811,3.792-1.811
				c1.63,0,2.932,0.618,3.905,1.854c0.692,0.873,1.044,1.963,1.056,3.27h-8.604c0.023,1.111,0.378,2.021,1.064,2.731
				s1.534,1.065,2.544,1.065c0.486,0,0.96-0.084,1.421-0.254c0.46-0.17,0.852-0.395,1.175-0.674
				C697.642,91.24,697.991,90.788,698.366,90.163z M698.366,87.588c-0.164-0.656-0.403-1.181-0.717-1.573
				c-0.314-0.393-0.729-0.709-1.246-0.949c-0.516-0.24-1.059-0.36-1.627-0.36c-0.939,0-1.746,0.302-2.421,0.905
				c-0.492,0.439-0.865,1.099-1.117,1.978H698.366z"/>
			<path style="fill:#898989;" d="M706.997,80.082h1.23v5.405c0.498-0.656,1.046-1.146,1.644-1.473
				c0.598-0.324,1.245-0.487,1.942-0.487c0.715,0,1.35,0.182,1.902,0.545c0.555,0.363,0.963,0.851,1.227,1.464
				c0.264,0.611,0.396,1.571,0.396,2.878v4.922h-1.23v-4.562c0-1.102-0.044-1.837-0.132-2.206c-0.152-0.633-0.43-1.108-0.83-1.429
				c-0.402-0.318-0.928-0.479-1.578-0.479c-0.744,0-1.41,0.246-2,0.738c-0.588,0.492-0.977,1.102-1.164,1.828
				c-0.117,0.469-0.176,1.336-0.176,2.602v3.507h-1.23V80.082z"/>
			<path style="fill:#898989;" d="M722.501,83.527c1.474,0,2.694,0.533,3.663,1.6c0.88,0.973,1.32,2.124,1.32,3.454
				c0,1.336-0.465,2.504-1.396,3.502c-0.931,1-2.126,1.499-3.588,1.499c-1.468,0-2.666-0.499-3.597-1.499
				c-0.931-0.998-1.396-2.166-1.396-3.502c0-1.324,0.44-2.473,1.32-3.445C719.798,84.063,721.021,83.527,722.501,83.527z
				 M722.496,84.731c-1.022,0-1.901,0.378-2.637,1.134s-1.103,1.67-1.103,2.742c0,0.691,0.168,1.336,0.503,1.934
				s0.788,1.06,1.358,1.384c0.57,0.326,1.196,0.488,1.878,0.488c0.683,0,1.309-0.162,1.879-0.488
				c0.57-0.324,1.023-0.786,1.358-1.384s0.503-1.242,0.503-1.934c0-1.072-0.369-1.986-1.107-2.742
				C724.392,85.109,723.514,84.731,722.496,84.731z"/>
			<path style="fill:#898989;" d="M729.778,83.773h1.23v1.758c0.486-0.668,1.045-1.169,1.677-1.503
				c0.633-0.334,1.338-0.501,2.116-0.501c1.358,0,2.52,0.489,3.485,1.468s1.449,2.156,1.449,3.533c0,1.406-0.479,2.6-1.436,3.582
				c-0.957,0.98-2.111,1.472-3.464,1.472c-0.761,0-1.46-0.158-2.099-0.475c-0.638-0.316-1.215-0.788-1.729-1.415v5.142h-1.23V83.773
				z M734.7,84.714c-1.064,0-1.96,0.371-2.688,1.115c-0.728,0.743-1.092,1.668-1.092,2.773c0,0.727,0.162,1.379,0.486,1.958
				c0.325,0.579,0.789,1.039,1.395,1.378c0.605,0.34,1.244,0.51,1.916,0.51c0.66,0,1.281-0.171,1.863-0.514
				c0.582-0.342,1.045-0.82,1.39-1.436c0.345-0.614,0.518-1.258,0.518-1.932c0-0.678-0.171-1.322-0.513-1.931
				c-0.343-0.608-0.803-1.081-1.381-1.418C736.016,84.882,735.384,84.714,734.7,84.714z"/>
			<path style="fill:#898989;" d="M750.09,90.163l1.037,0.545c-0.34,0.668-0.733,1.207-1.179,1.617
				c-0.446,0.41-0.947,0.723-1.505,0.936c-0.557,0.215-1.188,0.321-1.891,0.321c-1.561,0-2.78-0.511-3.66-1.534
				c-0.88-1.021-1.319-2.178-1.319-3.467c0-1.213,0.372-2.294,1.117-3.243c0.944-1.207,2.208-1.811,3.792-1.811
				c1.63,0,2.932,0.618,3.905,1.854c0.692,0.873,1.044,1.963,1.056,3.27h-8.604c0.023,1.111,0.378,2.021,1.064,2.731
				s1.534,1.065,2.544,1.065c0.486,0,0.96-0.084,1.421-0.254c0.46-0.17,0.852-0.395,1.175-0.674
				C749.365,91.24,749.715,90.788,750.09,90.163z M750.09,87.588c-0.164-0.656-0.403-1.181-0.717-1.573
				c-0.314-0.393-0.729-0.709-1.246-0.949c-0.516-0.24-1.059-0.36-1.627-0.36c-0.939,0-1.746,0.302-2.421,0.905
				c-0.492,0.439-0.865,1.099-1.117,1.978H750.09z"/>
			<path style="fill:#898989;" d="M759.793,80.223h1.23v3.551h1.951v1.063h-1.951v8.499h-1.23v-8.499h-1.679v-1.063h1.679V80.223z"
				/>
			<path style="fill:#898989;" d="M769.347,83.527c1.474,0,2.694,0.533,3.663,1.6c0.88,0.973,1.32,2.124,1.32,3.454
				c0,1.336-0.465,2.504-1.396,3.502c-0.931,1-2.126,1.499-3.588,1.499c-1.468,0-2.666-0.499-3.597-1.499
				c-0.931-0.998-1.396-2.166-1.396-3.502c0-1.324,0.44-2.473,1.32-3.445C766.644,84.063,767.867,83.527,769.347,83.527z
				 M769.342,84.731c-1.022,0-1.901,0.378-2.637,1.134s-1.103,1.67-1.103,2.742c0,0.691,0.168,1.336,0.503,1.934
				s0.788,1.06,1.358,1.384c0.57,0.326,1.196,0.488,1.878,0.488c0.683,0,1.309-0.162,1.879-0.488
				c0.57-0.324,1.023-0.786,1.358-1.384s0.503-1.242,0.503-1.934c0-1.072-0.369-1.986-1.107-2.742
				C771.237,85.109,770.359,84.731,769.342,84.731z"/>
			<path style="fill:#898989;" d="M781.581,83.773h1.23v1.652c0.428-0.609,0.868-1.055,1.32-1.336
				c0.621-0.375,1.275-0.563,1.962-0.563c0.463,0,0.903,0.091,1.319,0.272c0.417,0.182,0.757,0.424,1.021,0.725
				c0.264,0.303,0.492,0.734,0.686,1.297c0.409-0.75,0.921-1.32,1.535-1.709c0.613-0.391,1.274-0.585,1.981-0.585
				c0.66,0,1.243,0.167,1.749,0.501s0.881,0.8,1.127,1.397c0.245,0.598,0.368,1.494,0.368,2.689v5.221h-1.257v-5.221
				c0-1.025-0.073-1.729-0.219-2.114c-0.146-0.383-0.396-0.692-0.749-0.927s-0.775-0.352-1.266-0.352
				c-0.596,0-1.141,0.176-1.634,0.527c-0.494,0.352-0.854,0.82-1.082,1.406s-0.342,1.564-0.342,2.936v3.744h-1.23V88.44
				c0-1.154-0.072-1.938-0.216-2.352c-0.144-0.412-0.394-0.744-0.751-0.992c-0.357-0.25-0.782-0.374-1.274-0.374
				c-0.568,0-1.101,0.171-1.596,0.515c-0.495,0.342-0.861,0.804-1.098,1.384c-0.238,0.58-0.356,1.468-0.356,2.663v4.052h-1.23
				V83.773z"/>
			<path style="fill:#898989;" d="M808.001,83.773v9.563h-1.213v-1.644c-0.516,0.627-1.094,1.099-1.736,1.415
				c-0.641,0.316-1.343,0.475-2.104,0.475c-1.354,0-2.509-0.491-3.468-1.472c-0.957-0.982-1.437-2.176-1.437-3.582
				c0-1.377,0.483-2.555,1.45-3.533s2.13-1.468,3.489-1.468c0.785,0,1.495,0.167,2.132,0.501c0.635,0.334,1.193,0.835,1.674,1.503
				v-1.758H808.001z M803.083,84.714c-0.685,0-1.316,0.168-1.896,0.505c-0.58,0.337-1.041,0.81-1.383,1.418
				c-0.343,0.608-0.514,1.253-0.514,1.931c0,0.674,0.173,1.317,0.518,1.932c0.346,0.615,0.81,1.094,1.392,1.436
				c0.582,0.343,1.207,0.514,1.875,0.514c0.673,0,1.311-0.17,1.913-0.51c0.603-0.339,1.066-0.799,1.392-1.378
				s0.487-1.231,0.487-1.958c0-1.105-0.364-2.03-1.093-2.773C805.046,85.085,804.148,84.714,803.083,84.714z"/>
			<path style="fill:#898989;" d="M810.761,80.082h1.23v7.551l4.434-3.859h1.807l-5.256,4.562l5.563,5.001h-1.731l-4.816-4.306
				v4.306h-1.23V80.082z"/>
			<path style="fill:#898989;" d="M827.855,90.163l1.037,0.545c-0.34,0.668-0.733,1.207-1.179,1.617
				c-0.446,0.41-0.947,0.723-1.505,0.936c-0.557,0.215-1.188,0.321-1.891,0.321c-1.561,0-2.78-0.511-3.66-1.534
				c-0.88-1.021-1.319-2.178-1.319-3.467c0-1.213,0.372-2.294,1.117-3.243c0.944-1.207,2.208-1.811,3.792-1.811
				c1.63,0,2.932,0.618,3.905,1.854c0.692,0.873,1.044,1.963,1.056,3.27h-8.604c0.023,1.111,0.378,2.021,1.064,2.731
				s1.534,1.065,2.544,1.065c0.486,0,0.96-0.084,1.421-0.254c0.46-0.17,0.852-0.395,1.175-0.674
				C827.131,91.24,827.48,90.788,827.855,90.163z M827.855,87.588c-0.164-0.656-0.403-1.181-0.717-1.573
				c-0.314-0.393-0.729-0.709-1.246-0.949c-0.516-0.24-1.059-0.36-1.627-0.36c-0.939,0-1.746,0.302-2.421,0.905
				c-0.492,0.439-0.865,1.099-1.117,1.978H827.855z"/>
			<path style="fill:#898989;" d="M835.458,83.773h1.301l3.286,7.364l3.191-7.364h1.31l-5.704,13.061h-1.3l1.841-4.222
				L835.458,83.773z"/>
			<path style="fill:#898989;" d="M850.663,83.527c1.474,0,2.694,0.533,3.663,1.6c0.88,0.973,1.32,2.124,1.32,3.454
				c0,1.336-0.465,2.504-1.396,3.502c-0.931,1-2.126,1.499-3.588,1.499c-1.468,0-2.666-0.499-3.597-1.499
				c-0.931-0.998-1.396-2.166-1.396-3.502c0-1.324,0.44-2.473,1.32-3.445C847.96,84.063,849.184,83.527,850.663,83.527z
				 M850.658,84.731c-1.022,0-1.901,0.378-2.637,1.134s-1.103,1.67-1.103,2.742c0,0.691,0.168,1.336,0.503,1.934
				s0.788,1.06,1.358,1.384c0.57,0.326,1.196,0.488,1.878,0.488c0.683,0,1.309-0.162,1.879-0.488
				c0.57-0.324,1.023-0.786,1.358-1.384s0.503-1.242,0.503-1.934c0-1.072-0.369-1.986-1.107-2.742
				C852.554,85.109,851.676,84.731,850.658,84.731z"/>
			<path style="fill:#898989;" d="M857.765,83.773h1.23v4.465c0,1.09,0.059,1.84,0.176,2.25c0.177,0.586,0.513,1.049,1.008,1.389
				c0.496,0.34,1.087,0.51,1.773,0.51s1.27-0.165,1.748-0.497c0.478-0.33,0.808-0.766,0.99-1.305
				c0.123-0.369,0.185-1.151,0.185-2.347v-4.465h1.257v4.693c0,1.318-0.154,2.312-0.461,2.979c-0.309,0.668-0.771,1.191-1.389,1.568
				c-0.619,0.379-1.394,0.567-2.325,0.567s-1.71-0.188-2.333-0.567c-0.625-0.377-1.09-0.904-1.398-1.582
				c-0.307-0.676-0.461-1.694-0.461-3.054V83.773z"/>
			<path style="fill:#898989;" d="M868.399,83.773h1.257v1.397c0.375-0.551,0.771-0.963,1.187-1.234
				c0.416-0.273,0.85-0.409,1.301-0.409c0.34,0,0.703,0.108,1.09,0.325l-0.642,1.037c-0.258-0.111-0.475-0.167-0.65-0.167
				c-0.41,0-0.806,0.169-1.187,0.505c-0.381,0.338-0.671,0.86-0.87,1.569c-0.152,0.545-0.229,1.646-0.229,3.305v3.234h-1.257V83.773
				z"/>
			<path style="fill:#898989;" d="M879.078,80.082h1.23v13.254h-1.23V80.082z"/>
			<path style="fill:#898989;" d="M883.292,79.836c0.28,0,0.52,0.1,0.718,0.299s0.298,0.439,0.298,0.721
				c0,0.275-0.1,0.513-0.298,0.712s-0.438,0.299-0.718,0.299c-0.273,0-0.51-0.1-0.708-0.299s-0.298-0.437-0.298-0.712
				c0-0.281,0.1-0.521,0.298-0.721S883.019,79.836,883.292,79.836z M882.682,83.773h1.23v9.563h-1.23V83.773z"/>
			<path style="fill:#898989;" d="M890.407,80.082v1.204c-0.451-0.193-0.838-0.29-1.16-0.29c-0.24,0-0.439,0.048-0.598,0.146
				c-0.158,0.096-0.258,0.207-0.299,0.334c-0.041,0.125-0.062,0.461-0.062,1.006l-0.001,1.292h1.996v1.063h-1.997l-0.007,8.499
				h-1.23v-8.499h-1.257v-1.063h1.257v-1.494c0-0.686,0.063-1.175,0.189-1.468c0.125-0.293,0.339-0.529,0.641-0.707
				c0.302-0.18,0.667-0.269,1.095-0.269C889.373,79.836,889.851,79.918,890.407,80.082z"/>
			<path style="fill:#898989;" d="M900.172,90.163l1.037,0.545c-0.34,0.668-0.733,1.207-1.179,1.617
				c-0.446,0.41-0.947,0.723-1.505,0.936c-0.557,0.215-1.188,0.321-1.891,0.321c-1.561,0-2.78-0.511-3.66-1.534
				c-0.88-1.021-1.319-2.178-1.319-3.467c0-1.213,0.372-2.294,1.117-3.243c0.944-1.207,2.208-1.811,3.792-1.811
				c1.63,0,2.932,0.618,3.905,1.854c0.692,0.873,1.044,1.963,1.056,3.27h-8.604c0.023,1.111,0.378,2.021,1.064,2.731
				s1.534,1.065,2.544,1.065c0.486,0,0.96-0.084,1.421-0.254c0.46-0.17,0.852-0.395,1.175-0.674
				C899.447,91.24,899.797,90.788,900.172,90.163z M900.172,87.588c-0.164-0.656-0.403-1.181-0.717-1.573
				c-0.314-0.393-0.729-0.709-1.246-0.949c-0.516-0.24-1.059-0.36-1.627-0.36c-0.939,0-1.746,0.302-2.421,0.905
				c-0.492,0.439-0.865,1.099-1.117,1.978H900.172z"/>
			<path style="fill:#898989;" d="M913.61,84.819l-0.791,0.817c-0.658-0.639-1.302-0.958-1.93-0.958
				c-0.399,0-0.742,0.132-1.026,0.396c-0.285,0.264-0.428,0.571-0.428,0.923c0,0.311,0.117,0.606,0.353,0.888
				c0.234,0.287,0.728,0.624,1.479,1.011c0.916,0.475,1.538,0.932,1.867,1.371c0.323,0.445,0.484,0.946,0.484,1.503
				c0,0.785-0.276,1.45-0.827,1.995c-0.552,0.545-1.241,0.817-2.069,0.817c-0.552,0-1.078-0.12-1.58-0.36
				c-0.501-0.24-0.916-0.571-1.245-0.993l0.773-0.879c0.628,0.709,1.295,1.063,2,1.063c0.493,0,0.913-0.158,1.26-0.475
				s0.52-0.688,0.52-1.116c0-0.352-0.114-0.665-0.344-0.94c-0.229-0.27-0.745-0.609-1.55-1.02c-0.863-0.445-1.45-0.885-1.762-1.318
				s-0.467-0.929-0.467-1.485c0-0.727,0.248-1.33,0.744-1.811s1.122-0.721,1.879-0.721C911.832,83.527,912.719,83.958,913.61,84.819
				z"/>
			<path style="fill:#898989;" d="M925.317,83.773v9.563h-1.213v-1.644c-0.516,0.627-1.094,1.099-1.736,1.415
				c-0.641,0.316-1.343,0.475-2.104,0.475c-1.354,0-2.509-0.491-3.468-1.472c-0.957-0.982-1.437-2.176-1.437-3.582
				c0-1.377,0.483-2.555,1.45-3.533s2.13-1.468,3.489-1.468c0.785,0,1.495,0.167,2.132,0.501c0.635,0.334,1.193,0.835,1.674,1.503
				v-1.758H925.317z M920.399,84.714c-0.685,0-1.316,0.168-1.896,0.505c-0.58,0.337-1.041,0.81-1.383,1.418
				c-0.343,0.608-0.514,1.253-0.514,1.931c0,0.674,0.173,1.317,0.518,1.932c0.346,0.615,0.81,1.094,1.392,1.436
				c0.582,0.343,1.207,0.514,1.875,0.514c0.673,0,1.311-0.17,1.913-0.51c0.603-0.339,1.066-0.799,1.392-1.378
				s0.487-1.231,0.487-1.958c0-1.105-0.364-2.03-1.093-2.773C922.362,85.085,921.465,84.714,920.399,84.714z"/>
			<path style="fill:#898989;" d="M932.023,80.082v1.204c-0.451-0.193-0.838-0.29-1.16-0.29c-0.24,0-0.439,0.048-0.598,0.146
				c-0.158,0.096-0.258,0.207-0.299,0.334c-0.041,0.125-0.062,0.461-0.062,1.006l-0.001,1.292h1.996v1.063h-1.997l-0.007,8.499
				h-1.23v-8.499h-1.257v-1.063h1.257v-1.494c0-0.686,0.063-1.175,0.189-1.468c0.125-0.293,0.339-0.529,0.641-0.707
				c0.302-0.18,0.667-0.269,1.095-0.269C930.989,79.836,931.467,79.918,932.023,80.082z"/>
			<path style="fill:#898989;" d="M941.788,90.163l1.037,0.545c-0.34,0.668-0.733,1.207-1.179,1.617
				c-0.446,0.41-0.947,0.723-1.505,0.936c-0.557,0.215-1.188,0.321-1.891,0.321c-1.561,0-2.78-0.511-3.66-1.534
				c-0.88-1.021-1.319-2.178-1.319-3.467c0-1.213,0.372-2.294,1.117-3.243c0.944-1.207,2.208-1.811,3.792-1.811
				c1.63,0,2.932,0.618,3.905,1.854c0.692,0.873,1.044,1.963,1.056,3.27h-8.604c0.023,1.111,0.378,2.021,1.064,2.731
				s1.534,1.065,2.544,1.065c0.486,0,0.96-0.084,1.421-0.254c0.46-0.17,0.852-0.395,1.175-0.674
				C941.063,91.24,941.413,90.788,941.788,90.163z M941.788,87.588c-0.164-0.656-0.403-1.181-0.717-1.573
				c-0.314-0.393-0.729-0.709-1.246-0.949c-0.516-0.24-1.059-0.36-1.627-0.36c-0.939,0-1.746,0.302-2.421,0.905
				c-0.492,0.439-0.865,1.099-1.117,1.978H941.788z"/>
			<path style="fill:#898989;" d="M944.97,83.773h1.257v1.397c0.375-0.551,0.771-0.963,1.187-1.234
				c0.416-0.273,0.85-0.409,1.301-0.409c0.34,0,0.703,0.108,1.09,0.325l-0.642,1.037c-0.258-0.111-0.475-0.167-0.65-0.167
				c-0.41,0-0.806,0.169-1.187,0.505c-0.381,0.338-0.671,0.86-0.87,1.569c-0.152,0.545-0.229,1.646-0.229,3.305v3.234h-1.257V83.773
				z"/>
			<path style="fill:#898989;" d="M965.36,83.773v9.563h-1.213v-1.644c-0.516,0.627-1.094,1.099-1.736,1.415
				c-0.641,0.316-1.343,0.475-2.104,0.475c-1.354,0-2.509-0.491-3.468-1.472c-0.957-0.982-1.437-2.176-1.437-3.582
				c0-1.377,0.483-2.555,1.45-3.533s2.13-1.468,3.489-1.468c0.785,0,1.495,0.167,2.132,0.501c0.635,0.334,1.193,0.835,1.674,1.503
				v-1.758H965.36z M960.442,84.714c-0.685,0-1.316,0.168-1.896,0.505c-0.58,0.337-1.041,0.81-1.383,1.418
				c-0.343,0.608-0.514,1.253-0.514,1.931c0,0.674,0.173,1.317,0.518,1.932c0.346,0.615,0.81,1.094,1.392,1.436
				c0.582,0.343,1.207,0.514,1.875,0.514c0.673,0,1.311-0.17,1.913-0.51c0.603-0.339,1.066-0.799,1.392-1.378
				s0.487-1.231,0.487-1.958c0-1.105-0.364-2.03-1.093-2.773C962.405,85.085,961.508,84.714,960.442,84.714z"/>
			<path style="fill:#898989;" d="M968.129,83.773h1.23v1.714c0.492-0.656,1.037-1.146,1.635-1.473
				c0.598-0.324,1.248-0.487,1.951-0.487c0.715,0,1.35,0.182,1.902,0.545c0.555,0.363,0.963,0.853,1.227,1.468
				s0.396,1.573,0.396,2.874v4.922h-1.23v-4.562c0-1.102-0.046-1.837-0.137-2.206c-0.143-0.633-0.416-1.108-0.82-1.429
				c-0.404-0.318-0.932-0.479-1.582-0.479c-0.745,0-1.411,0.246-2,0.738s-0.978,1.102-1.165,1.828
				c-0.117,0.475-0.176,1.342-0.176,2.602v3.507h-1.23V83.773z"/>
			<path style="fill:#898989;" d="M988.651,80.082v13.254h-1.213v-1.644c-0.516,0.627-1.094,1.099-1.736,1.415
				c-0.641,0.316-1.343,0.475-2.104,0.475c-1.354,0-2.509-0.491-3.468-1.472c-0.957-0.982-1.437-2.176-1.437-3.582
				c0-1.377,0.483-2.555,1.45-3.533s2.13-1.468,3.489-1.468c0.785,0,1.495,0.167,2.132,0.501c0.635,0.334,1.193,0.835,1.674,1.503
				v-5.449H988.651z M983.733,84.714c-0.685,0-1.316,0.168-1.896,0.505c-0.58,0.337-1.041,0.81-1.383,1.418
				c-0.343,0.608-0.514,1.253-0.514,1.931c0,0.674,0.173,1.317,0.518,1.932c0.346,0.615,0.81,1.094,1.392,1.436
				c0.582,0.343,1.207,0.514,1.875,0.514c0.673,0,1.311-0.17,1.913-0.51c0.603-0.339,1.066-0.799,1.392-1.378
				s0.487-1.231,0.487-1.958c0-1.105-0.364-2.03-1.093-2.773C985.696,85.085,984.799,84.714,983.733,84.714z"/>
			<path style="fill:#898989;" d="M675.348,107.773h1.23v1.652c0.428-0.609,0.868-1.055,1.32-1.336
				c0.621-0.375,1.275-0.563,1.962-0.563c0.463,0,0.903,0.091,1.319,0.272c0.417,0.182,0.757,0.424,1.021,0.725
				c0.264,0.303,0.492,0.734,0.686,1.297c0.409-0.75,0.921-1.32,1.535-1.709c0.613-0.391,1.274-0.585,1.981-0.585
				c0.66,0,1.243,0.167,1.749,0.501s0.881,0.8,1.127,1.397c0.245,0.598,0.368,1.494,0.368,2.689v5.221h-1.257v-5.221
				c0-1.025-0.073-1.729-0.219-2.114c-0.146-0.383-0.396-0.692-0.749-0.927s-0.775-0.352-1.266-0.352
				c-0.596,0-1.141,0.176-1.634,0.527c-0.494,0.352-0.854,0.82-1.082,1.406s-0.342,1.564-0.342,2.936v3.744h-1.23v-4.896
				c0-1.154-0.072-1.938-0.216-2.352c-0.144-0.412-0.394-0.744-0.751-0.992c-0.357-0.25-0.782-0.374-1.274-0.374
				c-0.568,0-1.101,0.171-1.596,0.515c-0.495,0.342-0.861,0.804-1.098,1.384c-0.238,0.58-0.356,1.468-0.356,2.663v4.052h-1.23
				V107.773z"/>
			<path style="fill:#898989;" d="M696.767,107.527c1.474,0,2.694,0.533,3.663,1.6c0.88,0.973,1.32,2.124,1.32,3.454
				c0,1.336-0.465,2.504-1.396,3.502c-0.931,1-2.126,1.499-3.588,1.499c-1.468,0-2.666-0.499-3.597-1.499
				c-0.931-0.998-1.396-2.166-1.396-3.502c0-1.324,0.44-2.473,1.32-3.445C694.063,108.063,695.287,107.527,696.767,107.527z
				 M696.762,108.731c-1.022,0-1.901,0.378-2.637,1.134s-1.103,1.67-1.103,2.742c0,0.691,0.168,1.336,0.503,1.934
				s0.788,1.06,1.358,1.384c0.57,0.326,1.196,0.488,1.878,0.488c0.683,0,1.309-0.162,1.879-0.488
				c0.57-0.324,1.023-0.786,1.358-1.384s0.503-1.242,0.503-1.934c0-1.072-0.369-1.986-1.107-2.742
				C698.657,109.109,697.779,108.731,696.762,108.731z"/>
			<path style="fill:#898989;" d="M703.561,107.773h1.257v1.397c0.375-0.551,0.771-0.963,1.187-1.234
				c0.416-0.273,0.85-0.409,1.301-0.409c0.34,0,0.703,0.108,1.09,0.325l-0.642,1.037c-0.258-0.111-0.475-0.167-0.65-0.167
				c-0.41,0-0.806,0.169-1.187,0.505c-0.381,0.338-0.671,0.86-0.87,1.569c-0.152,0.545-0.229,1.646-0.229,3.305v3.234h-1.257
				V107.773z"/>
			<path style="fill:#898989;" d="M717.491,114.163l1.037,0.545c-0.34,0.668-0.733,1.207-1.179,1.617
				c-0.446,0.41-0.947,0.723-1.505,0.936c-0.557,0.215-1.188,0.321-1.891,0.321c-1.561,0-2.78-0.511-3.66-1.534
				c-0.88-1.021-1.319-2.178-1.319-3.467c0-1.213,0.372-2.294,1.117-3.243c0.944-1.207,2.208-1.811,3.792-1.811
				c1.63,0,2.932,0.618,3.905,1.854c0.692,0.873,1.044,1.963,1.056,3.27h-8.604c0.023,1.111,0.378,2.021,1.064,2.731
				s1.534,1.065,2.544,1.065c0.486,0,0.96-0.084,1.421-0.254c0.46-0.17,0.852-0.395,1.175-0.674
				C716.767,115.24,717.116,114.788,717.491,114.163z M717.491,111.588c-0.164-0.656-0.403-1.181-0.717-1.573
				c-0.314-0.393-0.729-0.709-1.246-0.949c-0.516-0.24-1.059-0.36-1.627-0.36c-0.939,0-1.746,0.302-2.421,0.905
				c-0.492,0.439-0.865,1.099-1.117,1.978H717.491z"/>
			<path style="fill:#898989;" d="M735.403,109.76l-0.976,0.606c-0.843-1.119-1.993-1.679-3.45-1.679
				c-1.165,0-2.132,0.374-2.901,1.124c-0.77,0.749-1.154,1.659-1.154,2.73c0,0.696,0.177,1.352,0.531,1.966
				c0.354,0.614,0.84,1.092,1.457,1.431c0.617,0.34,1.31,0.51,2.076,0.51c1.404,0,2.552-0.56,3.441-1.679l0.976,0.642
				c-0.457,0.688-1.071,1.223-1.842,1.602s-1.647,0.569-2.632,0.569c-1.512,0-2.766-0.48-3.762-1.441s-1.494-2.13-1.494-3.507
				c0-0.926,0.233-1.785,0.698-2.58c0.467-0.793,1.106-1.413,1.921-1.858s1.726-0.668,2.733-0.668c0.633,0,1.244,0.097,1.832,0.29
				c0.59,0.193,1.089,0.445,1.499,0.756S735.116,109.279,735.403,109.76z"/>
			<path style="fill:#898989;" d="M742.294,107.527c1.474,0,2.694,0.533,3.663,1.6c0.88,0.973,1.32,2.124,1.32,3.454
				c0,1.336-0.465,2.504-1.396,3.502c-0.931,1-2.126,1.499-3.588,1.499c-1.468,0-2.666-0.499-3.597-1.499
				c-0.931-0.998-1.396-2.166-1.396-3.502c0-1.324,0.44-2.473,1.32-3.445C739.591,108.063,740.814,107.527,742.294,107.527z
				 M742.289,108.731c-1.022,0-1.901,0.378-2.637,1.134s-1.103,1.67-1.103,2.742c0,0.691,0.168,1.336,0.503,1.934
				s0.788,1.06,1.358,1.384c0.57,0.326,1.196,0.488,1.878,0.488c0.683,0,1.309-0.162,1.879-0.488
				c0.57-0.324,1.023-0.786,1.358-1.384s0.503-1.242,0.503-1.934c0-1.072-0.369-1.986-1.107-2.742
				C744.185,109.109,743.307,108.731,742.289,108.731z"/>
			<path style="fill:#898989;" d="M749.554,107.773h1.23v1.714c0.492-0.656,1.037-1.146,1.635-1.473
				c0.598-0.324,1.248-0.487,1.951-0.487c0.715,0,1.35,0.182,1.902,0.545c0.555,0.363,0.963,0.853,1.227,1.468
				s0.396,1.573,0.396,2.874v4.922h-1.23v-4.562c0-1.102-0.046-1.837-0.137-2.206c-0.143-0.633-0.416-1.108-0.82-1.429
				c-0.404-0.318-0.932-0.479-1.582-0.479c-0.745,0-1.411,0.246-2,0.738s-0.978,1.102-1.165,1.828
				c-0.117,0.475-0.176,1.342-0.176,2.602v3.507h-1.23V107.773z"/>
			<path style="fill:#898989;" d="M759.626,107.773h1.31l3.21,6.971l3.171-6.971h1.318l-4.377,9.563h-0.229L759.626,107.773z"/>
			<path style="fill:#898989;" d="M778.558,114.163l1.037,0.545c-0.34,0.668-0.733,1.207-1.179,1.617
				c-0.446,0.41-0.947,0.723-1.505,0.936c-0.557,0.215-1.188,0.321-1.891,0.321c-1.561,0-2.78-0.511-3.66-1.534
				c-0.88-1.021-1.319-2.178-1.319-3.467c0-1.213,0.372-2.294,1.117-3.243c0.944-1.207,2.208-1.811,3.792-1.811
				c1.63,0,2.932,0.618,3.905,1.854c0.692,0.873,1.044,1.963,1.056,3.27h-8.604c0.023,1.111,0.378,2.021,1.064,2.731
				s1.534,1.065,2.544,1.065c0.486,0,0.96-0.084,1.421-0.254c0.46-0.17,0.852-0.395,1.175-0.674
				C777.833,115.24,778.183,114.788,778.558,114.163z M778.558,111.588c-0.164-0.656-0.403-1.181-0.717-1.573
				c-0.314-0.393-0.729-0.709-1.246-0.949c-0.516-0.24-1.059-0.36-1.627-0.36c-0.939,0-1.746,0.302-2.421,0.905
				c-0.492,0.439-0.865,1.099-1.117,1.978H778.558z"/>
			<path style="fill:#898989;" d="M782.205,107.773h1.23v1.714c0.492-0.656,1.037-1.146,1.635-1.473
				c0.598-0.324,1.248-0.487,1.951-0.487c0.715,0,1.35,0.182,1.902,0.545c0.555,0.363,0.963,0.853,1.227,1.468
				s0.396,1.573,0.396,2.874v4.922h-1.23v-4.562c0-1.102-0.046-1.837-0.137-2.206c-0.143-0.633-0.416-1.108-0.82-1.429
				c-0.404-0.318-0.932-0.479-1.582-0.479c-0.745,0-1.411,0.246-2,0.738s-0.978,1.102-1.165,1.828
				c-0.117,0.475-0.176,1.342-0.176,2.602v3.507h-1.23V107.773z"/>
			<path style="fill:#898989;" d="M793.608,103.836c0.28,0,0.52,0.1,0.718,0.299s0.298,0.439,0.298,0.721
				c0,0.275-0.1,0.513-0.298,0.712s-0.438,0.299-0.718,0.299c-0.273,0-0.51-0.1-0.708-0.299s-0.298-0.437-0.298-0.712
				c0-0.281,0.1-0.521,0.298-0.721S793.335,103.836,793.608,103.836z M792.998,107.773h1.23v9.563h-1.23V107.773z"/>
			<path style="fill:#898989;" d="M804.837,114.163l1.037,0.545c-0.34,0.668-0.733,1.207-1.179,1.617
				c-0.446,0.41-0.947,0.723-1.505,0.936c-0.557,0.215-1.188,0.321-1.891,0.321c-1.561,0-2.78-0.511-3.66-1.534
				c-0.88-1.021-1.319-2.178-1.319-3.467c0-1.213,0.372-2.294,1.117-3.243c0.944-1.207,2.208-1.811,3.792-1.811
				c1.63,0,2.932,0.618,3.905,1.854c0.692,0.873,1.044,1.963,1.056,3.27h-8.604c0.023,1.111,0.378,2.021,1.064,2.731
				s1.534,1.065,2.544,1.065c0.486,0,0.96-0.084,1.421-0.254c0.46-0.17,0.852-0.395,1.175-0.674
				C804.112,115.24,804.462,114.788,804.837,114.163z M804.837,111.588c-0.164-0.656-0.403-1.181-0.717-1.573
				c-0.314-0.393-0.729-0.709-1.246-0.949c-0.516-0.24-1.059-0.36-1.627-0.36c-0.939,0-1.746,0.302-2.421,0.905
				c-0.492,0.439-0.865,1.099-1.117,1.978H804.837z"/>
			<path style="fill:#898989;" d="M808.484,107.773h1.23v1.714c0.492-0.656,1.037-1.146,1.635-1.473
				c0.598-0.324,1.248-0.487,1.951-0.487c0.715,0,1.35,0.182,1.902,0.545c0.555,0.363,0.963,0.853,1.227,1.468
				s0.396,1.573,0.396,2.874v4.922h-1.23v-4.562c0-1.102-0.046-1.837-0.137-2.206c-0.143-0.633-0.416-1.108-0.82-1.429
				c-0.404-0.318-0.932-0.479-1.582-0.479c-0.745,0-1.411,0.246-2,0.738s-0.978,1.102-1.165,1.828
				c-0.117,0.475-0.176,1.342-0.176,2.602v3.507h-1.23V107.773z"/>
			<path style="fill:#898989;" d="M820.534,104.223h1.23v3.551h1.951v1.063h-1.951v8.499h-1.23v-8.499h-1.679v-1.063h1.679V104.223z
				"/>
			<path style="fill:#898989;" d="M829.253,107.773h1.266l2.931,6.943l3.052-6.943h0.223l3.071,6.943l2.988-6.943h1.279
				l-4.154,9.563h-0.228l-3.058-6.847l-3.057,6.847h-0.229L829.253,107.773z"/>
			<path style="fill:#898989;" d="M845.93,103.836c0.28,0,0.52,0.1,0.718,0.299s0.298,0.439,0.298,0.721
				c0,0.275-0.1,0.513-0.298,0.712s-0.438,0.299-0.718,0.299c-0.273,0-0.51-0.1-0.708-0.299s-0.298-0.437-0.298-0.712
				c0-0.281,0.1-0.521,0.298-0.721S845.656,103.836,845.93,103.836z M845.319,107.773h1.23v9.563h-1.23V107.773z"/>
			<path style="fill:#898989;" d="M850.18,104.223h1.23v3.551h1.951v1.063h-1.951v8.499h-1.23v-8.499h-1.679v-1.063h1.679V104.223z"
				/>
			<path style="fill:#898989;" d="M855.207,104.082h1.23v5.405c0.498-0.656,1.046-1.146,1.644-1.473
				c0.598-0.324,1.245-0.487,1.942-0.487c0.715,0,1.35,0.182,1.902,0.545c0.555,0.363,0.963,0.851,1.227,1.464
				c0.264,0.611,0.396,1.571,0.396,2.878v4.922h-1.23v-4.562c0-1.102-0.044-1.837-0.132-2.206c-0.152-0.633-0.43-1.108-0.83-1.429
				c-0.402-0.318-0.928-0.479-1.578-0.479c-0.744,0-1.41,0.246-2,0.738c-0.588,0.492-0.977,1.102-1.164,1.828
				c-0.117,0.469-0.176,1.336-0.176,2.602v3.507h-1.23V104.082z"/>
			<path style="fill:#898989;" d="M870.368,111.939h4.834v1.072h-4.834V111.939z"/>
			<path style="fill:#595757;" d="M883.156,104.407h2.442l-1.48,10.705h4.013l-0.281,2.224h-6.46L883.156,104.407z"/>
			<path style="fill:#595757;" d="M896.981,104.082c1.775,0,3.24,0.571,4.395,1.714s1.731,2.593,1.731,4.351
				c0,1.348-0.342,2.618-1.023,3.81c-0.684,1.193-1.592,2.108-2.725,2.747c-1.135,0.639-2.437,0.958-3.907,0.958
				c-1.84,0-3.31-0.545-4.407-1.635c-1.1-1.09-1.648-2.525-1.648-4.307c0-2.021,0.656-3.759,1.969-5.212
				C892.83,104.891,894.702,104.082,896.981,104.082z M896.894,106.376c-0.926,0-1.771,0.225-2.536,0.672
				c-0.764,0.449-1.381,1.094-1.85,1.934c-0.469,0.842-0.703,1.71-0.703,2.606c0,1.061,0.325,1.96,0.976,2.698
				s1.585,1.107,2.804,1.107c1.412,0,2.611-0.498,3.6-1.494c0.986-0.996,1.48-2.206,1.48-3.63c0-1.178-0.348-2.121-1.041-2.83
				C898.928,106.73,898.019,106.376,896.894,106.376z"/>
			<path style="fill:#595757;" d="M917.188,106.081l-1.767,1.639c-0.381-0.439-0.847-0.777-1.397-1.015s-1.148-0.355-1.793-0.355
				c-0.902,0-1.767,0.231-2.593,0.694c-0.826,0.462-1.47,1.074-1.929,1.834c-0.461,0.762-0.69,1.572-0.69,2.433
				c0,1.171,0.404,2.144,1.213,2.919c0.809,0.776,1.846,1.164,3.111,1.164c1.354,0,2.525-0.393,3.516-1.178l1.433,1.89
				c-1.471,1.037-3.173,1.556-5.106,1.556c-1.359,0-2.516-0.258-3.468-0.773s-1.717-1.273-2.293-2.271
				c-0.578-1-0.866-2.082-0.866-3.248c0-1.248,0.341-2.445,1.024-3.59c0.682-1.146,1.606-2.049,2.772-2.707
				c1.166-0.66,2.438-0.989,3.814-0.989C914.103,104.082,915.775,104.749,917.188,106.081z"/>
			<path style="fill:#595757;" d="M920.246,104.407h2.436l-0.603,4.35l4.124-4.35h3.013l-5.636,5.908l4.452,7.021h-2.716
				l-3.633-5.729l-0.795,5.729h-2.409L920.246,104.407z"/>
			<path style="fill:#595757;" d="M931.215,104.407h6.952l-0.298,2.294h-4.511l-0.371,2.672h4.535l-0.296,2.276h-4.555l-0.477,3.428
				h4.586l-0.293,2.259h-7.04L931.215,104.407z"/>
			<path style="fill:#595757;" d="M940.865,104.407h2.245c1.387,0,2.362,0.12,2.927,0.36c0.705,0.298,1.236,0.713,1.595,1.243
				c0.357,0.529,0.537,1.158,0.537,1.885c0,0.896-0.267,1.664-0.798,2.306c-0.532,0.642-1.336,1.087-2.412,1.339l2.814,5.796h-2.514
				l-2.76-5.643h-0.198l-0.776,5.643h-2.427L940.865,104.407z M942.593,109.575c1.313-0.006,2.168-0.143,2.564-0.408
				c0.396-0.268,0.595-0.667,0.595-1.2c0-0.305-0.079-0.56-0.238-0.765s-0.389-0.349-0.689-0.431s-0.91-0.123-1.829-0.123
				L942.593,109.575z"/>
			<path style="fill:#595757;" d="M962.768,106.209l-1.767,1.564c-0.727-0.938-1.403-1.406-2.03-1.406
				c-0.311,0-0.568,0.093-0.773,0.276c-0.205,0.186-0.308,0.406-0.308,0.664c0,0.24,0.094,0.507,0.281,0.8s0.756,0.94,1.705,1.942
				c0.504,0.533,0.835,0.911,0.993,1.134c0.381,0.516,0.655,0.997,0.821,1.446c0.168,0.447,0.251,0.903,0.251,1.366
				c0,1.037-0.369,1.907-1.107,2.61s-1.685,1.055-2.839,1.055c-1.758,0-3.19-0.835-4.298-2.505l1.863-1.503
				c0.75,1.143,1.562,1.714,2.435,1.714c0.416,0,0.766-0.135,1.051-0.404c0.283-0.27,0.426-0.595,0.426-0.976
				c0-0.299-0.087-0.604-0.26-0.914s-0.666-0.896-1.48-1.758c-0.861-0.908-1.427-1.594-1.696-2.057
				c-0.363-0.627-0.545-1.242-0.545-1.846c0-0.797,0.261-1.512,0.782-2.145c0.656-0.791,1.541-1.187,2.654-1.187
				C960.456,104.082,961.736,104.791,962.768,106.209z"/>
			<path style="fill:#595757;" d="M963.884,104.407h7.893l-0.281,2.303h-2.694l-1.452,10.626h-2.41l1.452-10.626h-2.806
				L963.884,104.407z"/>
			<path style="fill:#595757;" d="M979.054,104.082c1.775,0,3.24,0.571,4.395,1.714s1.731,2.593,1.731,4.351
				c0,1.348-0.342,2.618-1.023,3.81c-0.684,1.193-1.592,2.108-2.725,2.747c-1.135,0.639-2.437,0.958-3.907,0.958
				c-1.84,0-3.31-0.545-4.407-1.635c-1.1-1.09-1.648-2.525-1.648-4.307c0-2.021,0.656-3.759,1.969-5.212
				C974.902,104.891,976.774,104.082,979.054,104.082z M978.966,106.376c-0.926,0-1.771,0.225-2.536,0.672
				c-0.764,0.449-1.381,1.094-1.85,1.934c-0.469,0.842-0.703,1.71-0.703,2.606c0,1.061,0.325,1.96,0.976,2.698
				s1.585,1.107,2.804,1.107c1.412,0,2.611-0.498,3.6-1.494c0.986-0.996,1.48-2.206,1.48-3.63c0-1.178-0.348-2.121-1.041-2.83
				C981,106.73,980.091,106.376,978.966,106.376z"/>
			<path style="fill:#595757;" d="M988.379,104.407h2.245c1.387,0,2.362,0.12,2.927,0.36c0.705,0.298,1.236,0.713,1.595,1.243
				c0.357,0.529,0.537,1.158,0.537,1.885c0,0.896-0.267,1.664-0.798,2.306c-0.532,0.642-1.336,1.087-2.412,1.339l2.814,5.796h-2.514
				l-2.76-5.643h-0.198l-0.776,5.643h-2.427L988.379,104.407z M990.106,109.575c1.313-0.006,2.168-0.143,2.564-0.408
				c0.396-0.268,0.595-0.667,0.595-1.2c0-0.305-0.079-0.56-0.238-0.765s-0.389-0.349-0.689-0.431s-0.91-0.123-1.829-0.123
				L990.106,109.575z"/>
			<path style="fill:#595757;" d="M998.53,104.407h6.952l-0.298,2.294h-4.511l-0.371,2.672h4.535l-0.296,2.276h-4.555l-0.477,3.428
				h4.586l-0.293,2.259h-7.04L998.53,104.407z"/>
			<path style="fill:#898989;" d="M1008.392,115.402c0.299,0,0.554,0.105,0.765,0.316s0.316,0.469,0.316,0.773
				c0,0.299-0.105,0.556-0.316,0.769c-0.211,0.215-0.466,0.321-0.765,0.321s-0.554-0.106-0.765-0.321
				c-0.211-0.213-0.316-0.47-0.316-0.769c0-0.305,0.105-0.563,0.316-0.773S1008.093,115.402,1008.392,115.402z"/>
		</g>
	</g>
</g>
</svg>
