<?xml version="1.0" encoding="iso-8859-1"?>
<!-- Generator: Adobe Illustrator 16.0.0, SVG Export Plug-In . SVG Version: 6.00 Build 0)  -->
<!DOCTYPE svg PUBLIC "-//W3C//DTD SVG 1.1//EN" "http://www.w3.org/Graphics/SVG/1.1/DTD/svg11.dtd">
<svg version="1.1" id="&#x5716;&#x5C64;_1" xmlns="http://www.w3.org/2000/svg" xmlns:xlink="http://www.w3.org/1999/xlink" x="0px"
	 y="0px" width="98.689px" height="53.848px" viewBox="0 0 98.689 53.848" style="enable-background:new 0 0 98.689 53.848;"
	 xml:space="preserve">
<g>
	<g>
		<g>
			<g>
				<path style="fill:#595757;" d="M0,0.434h3.228l2.491,11.004L8.797,0.434h2.729l3.123,11.004l2.467-11.004h3.229L16.46,17.672
					h-3.147L10.137,6.527L7.02,17.672H3.902L0,0.434z"/>
				<path style="fill:#595757;" d="M22.564,0h3.176v6.211c0.625-0.539,1.254-0.943,1.887-1.213s1.273-0.404,1.922-0.404
					c1.266,0,2.332,0.438,3.199,1.313c0.742,0.758,1.113,1.871,1.113,3.34v8.426h-3.152v-5.59c0-1.477-0.07-2.477-0.211-3
					s-0.381-0.914-0.721-1.172s-0.76-0.387-1.26-0.387c-0.648,0-1.205,0.215-1.67,0.645s-0.787,1.016-0.967,1.758
					c-0.094,0.383-0.141,1.258-0.141,2.625v5.121h-3.176V0z"/>
				<path style="fill:#595757;" d="M46.365,4.922h3.199v12.75h-3.199v-1.348c-0.624,0.594-1.251,1.021-1.879,1.283
					S43.178,18,42.444,18c-1.646,0-3.071-0.639-4.272-1.916c-1.202-1.277-1.803-2.865-1.803-4.764c0-1.969,0.581-3.582,1.744-4.84
					s2.575-1.887,4.237-1.887c0.765,0,1.482,0.145,2.153,0.434s1.291,0.723,1.861,1.301V4.922z M43.002,7.547
					c-0.988,0-1.811,0.35-2.464,1.049c-0.654,0.699-0.981,1.596-0.981,2.689c0,1.102,0.333,2.008,0.998,2.719
					c0.666,0.711,1.485,1.066,2.459,1.066c1.005,0,1.838-0.35,2.499-1.049c0.662-0.699,0.993-1.615,0.993-2.748
					c0-1.109-0.331-2.008-0.993-2.695C44.852,7.891,44.015,7.547,43.002,7.547z"/>
				<path style="fill:#595757;" d="M53.186,0.223h3.199v4.699h1.898v2.754h-1.898v9.996h-3.199V7.676h-1.641V4.922h1.641V0.223z"/>
				<path style="fill:#595757;" d="M65.297,4.922h3.132l2.563,7.254l2.759-7.254h1.915l2.709,7.172l2.567-7.172h3.151l-4.652,12.75
					h-2.027l-2.719-7.266l-2.801,7.266h-2.004L65.297,4.922z"/>
				<path style="fill:#595757;" d="M98.678,12.223H88.4c0.148,0.906,0.545,1.627,1.189,2.162s1.467,0.803,2.467,0.803
					c1.195,0,2.223-0.418,3.082-1.254l2.695,1.266c-0.672,0.953-1.477,1.658-2.414,2.115S93.369,18,92.08,18
					c-2,0-3.629-0.631-4.887-1.893s-1.887-2.842-1.887-4.74c0-1.945,0.627-3.561,1.881-4.846s2.826-1.928,4.717-1.928
					c2.008,0,3.641,0.643,4.898,1.928s1.887,2.982,1.887,5.092L98.678,12.223z M95.479,9.703c-0.211-0.711-0.628-1.289-1.25-1.734
					s-1.344-0.668-2.166-0.668c-0.893,0-1.675,0.25-2.348,0.75c-0.423,0.313-0.813,0.863-1.174,1.652H95.479z"/>
				<path style="fill:#2C50A2;" d="M10.365,28.801h3.199v17.672h-3.199v-1.348c-0.624,0.594-1.251,1.021-1.879,1.283
					s-1.309,0.393-2.042,0.393c-1.646,0-3.071-0.639-4.272-1.916c-1.202-1.277-1.803-2.865-1.803-4.764
					c0-1.969,0.581-3.582,1.744-4.84s2.575-1.887,4.237-1.887c0.765,0,1.482,0.145,2.153,0.434s1.291,0.723,1.861,1.301V28.801z
					 M7.002,36.348c-0.988,0-1.811,0.35-2.464,1.049c-0.654,0.699-0.981,1.596-0.981,2.689c0,1.102,0.333,2.008,0.998,2.719
					c0.666,0.711,1.485,1.066,2.459,1.066c1.005,0,1.838-0.35,2.499-1.049c0.662-0.699,0.993-1.615,0.993-2.748
					c0-1.109-0.331-2.008-0.993-2.695C8.852,36.691,8.015,36.348,7.002,36.348z"/>
				<path style="fill:#2C50A2;" d="M22.787,33.395c1.203,0,2.334,0.301,3.393,0.902s1.885,1.418,2.479,2.449s0.891,2.145,0.891,3.34
					c0,1.203-0.299,2.328-0.896,3.375s-1.412,1.865-2.443,2.455s-2.168,0.885-3.41,0.885c-1.828,0-3.389-0.65-4.682-1.951
					s-1.939-2.881-1.939-4.74c0-1.992,0.73-3.652,2.191-4.98C19.65,33.973,21.123,33.395,22.787,33.395z M22.84,36.406
					c-0.994,0-1.821,0.346-2.482,1.037c-0.662,0.691-0.992,1.576-0.992,2.654c0,1.109,0.326,2.008,0.98,2.695
					c0.653,0.688,1.48,1.031,2.482,1.031s1.835-0.348,2.5-1.043s0.998-1.59,0.998-2.684s-0.327-1.982-0.98-2.666
					S23.857,36.406,22.84,36.406z"/>
			</g>
			<rect x="4.875" y="51.848" style="fill:#E9C41D;" width="20" height="2"/>
		</g>
	</g>
</g>
</svg>
