<?xml version="1.0" encoding="iso-8859-1"?>
<!-- Generator: Adobe Illustrator 16.0.0, SVG Export Plug-In . SVG Version: 6.00 Build 0)  -->
<!DOCTYPE svg PUBLIC "-//W3C//DTD SVG 1.1//EN" "http://www.w3.org/Graphics/SVG/1.1/DTD/svg11.dtd">
<svg version="1.1" id="&#x5716;&#x5C64;_1" xmlns="http://www.w3.org/2000/svg" xmlns:xlink="http://www.w3.org/1999/xlink" x="0px"
	 y="0px" width="66.556px" height="32.838px" viewBox="0 0 66.556 32.838" style="enable-background:new 0 0 66.556 32.838;"
	 xml:space="preserve">
<path style="fill:#FFFFFF;stroke:#B5B5B6;stroke-miterlimit:10;" d="M50.137,0.5H16.419C7.627,0.5,0.5,7.627,0.5,16.419
	s7.127,15.919,15.919,15.919h33.718c8.793,0,15.919-7.127,15.919-15.919S58.93,0.5,50.137,0.5z"/>
<polygon style="fill:#E8C41D;stroke:#E8C41D;stroke-width:0.75;stroke-miterlimit:10;" points="23.21,7.46 26.119,13.356 
	32.629,14.302 27.919,18.893 29.03,25.377 23.21,22.316 17.391,25.377 18.501,18.893 13.791,14.302 20.299,13.356 "/>
<polygon style="fill:#2C50A2;" points="48.59,23.109 46.637,21.277 50.305,16.414 46.637,11.549 48.59,9.729 53.637,16.414 "/>
</svg>
