<?xml version="1.0" encoding="iso-8859-1"?>
<!-- Generator: Adobe Illustrator 16.0.0, SVG Export Plug-In . SVG Version: 6.00 Build 0)  -->
<!DOCTYPE svg PUBLIC "-//W3C//DTD SVG 1.1//EN" "http://www.w3.org/Graphics/SVG/1.1/DTD/svg11.dtd">
<svg version="1.1" id="&#x5716;&#x5C64;_1" xmlns="http://www.w3.org/2000/svg" xmlns:xlink="http://www.w3.org/1999/xlink" x="0px"
	 y="0px" width="11.885px" height="26.94px" viewBox="0 0 11.885 26.94" style="enable-background:new 0 0 11.885 26.94;"
	 xml:space="preserve">
<g>
	<g>
		<polygon style="fill:#2C50A2;" points="0.125,20.91 0.125,7.134 11.76,0.219 11.76,4.831 4.005,9.44 4.005,15.197 7.88,12.892 
			7.88,16.355 		"/>
		<polygon style="fill:#E8C41D;" points="7.88,17.499 0.125,22.107 0.125,26.72 11.76,19.804 11.76,5.974 4.005,10.582 
			4.005,14.049 7.88,11.744 		"/>
		<polygon style="fill:#F08719;" points="4.005,14.049 4.005,15.197 7.88,12.892 7.88,11.744 		"/>
	</g>
	<g>
		<polygon style="fill:none;stroke:#FFFFFF;stroke-width:0.25;stroke-miterlimit:10;" points="0.125,20.912 0.125,7.135 11.76,0.22 
			11.76,4.832 4.006,9.441 4.006,15.198 7.88,12.893 7.88,16.357 		"/>
		<polygon style="fill:none;stroke:#FFFFFF;stroke-width:0.25;stroke-miterlimit:10;" points="7.88,17.499 0.125,22.108 
			0.125,26.721 11.76,19.806 11.76,5.974 4.006,10.584 4.006,14.049 7.88,11.745 		"/>
		<polygon style="fill:none;stroke:#FFFFFF;stroke-width:0.25;stroke-miterlimit:10;" points="4.006,14.049 4.006,15.198 
			7.88,12.893 7.88,11.745 		"/>
	</g>
</g>
</svg>
