<?xml version="1.0" encoding="iso-8859-1"?>
<!-- Generator: Adobe Illustrator 16.0.0, SVG Export Plug-In . SVG Version: 6.00 Build 0)  -->
<!DOCTYPE svg PUBLIC "-//W3C//DTD SVG 1.1//EN" "http://www.w3.org/Graphics/SVG/1.1/DTD/svg11.dtd">
<svg version="1.1" id="&#x5716;&#x5C64;_1" xmlns="http://www.w3.org/2000/svg" xmlns:xlink="http://www.w3.org/1999/xlink" x="0px"
	 y="0px" width="10.434px" height="18.797px" viewBox="0 0 10.434 18.797" style="enable-background:new 0 0 10.434 18.797;"
	 xml:space="preserve">
<g>
	<path style="fill:#DCDDDD;stroke:#C9CACA;stroke-width:0.5;stroke-miterlimit:10;" d="M9.638,3.194L7.787,4.997
		C6.943,4.128,6.109,3.693,5.284,3.693c-0.486,0-0.881,0.129-1.185,0.388S3.644,4.64,3.644,4.978c0,0.288,0.135,0.572,0.402,0.854
		c0.263,0.288,0.793,0.595,1.592,0.921c1.42,0.588,2.392,1.09,2.916,1.506c0.523,0.415,0.927,0.914,1.208,1.496
		c0.281,0.581,0.422,1.233,0.422,1.956s-0.15,1.39-0.451,2.004c-0.301,0.613-0.687,1.1-1.16,1.457
		c-0.473,0.358-1.154,0.63-2.042,0.815v2.561H4.728v-2.503c-0.838-0.097-1.551-0.307-2.139-0.633
		c-0.806-0.447-1.554-1.042-2.244-1.783l1.822-1.87c1.17,1.246,2.301,1.87,3.395,1.87c0.557,0,1.033-0.193,1.434-0.581
		c0.399-0.386,0.6-0.842,0.6-1.366c0-0.441-0.128-0.827-0.384-1.16c-0.263-0.332-0.768-0.672-1.516-1.017
		C4.174,8.801,3.145,8.243,2.609,7.83C2.072,7.419,1.67,6.954,1.405,6.44C1.14,5.925,1.007,5.377,1.007,4.796
		c0-0.966,0.351-1.792,1.054-2.479S3.654,1.26,4.728,1.209V0.25h1.803v1.083C7.15,1.481,7.676,1.679,8.108,1.929
		C8.54,2.177,9.048,2.599,9.638,3.194z"/>
</g>
</svg>
