<?xml version="1.0" encoding="iso-8859-1"?>
<!-- Generator: Adobe Illustrator 16.0.0, SVG Export Plug-In . SVG Version: 6.00 Build 0)  -->
<!DOCTYPE svg PUBLIC "-//W3C//DTD SVG 1.1//EN" "http://www.w3.org/Graphics/SVG/1.1/DTD/svg11.dtd">
<svg version="1.1" id="&#x5716;&#x5C64;_1" xmlns="http://www.w3.org/2000/svg" xmlns:xlink="http://www.w3.org/1999/xlink" x="0px"
	 y="0px" width="154.934px" height="32.839px" viewBox="0 0 154.934 32.839" style="enable-background:new 0 0 154.934 32.839;"
	 xml:space="preserve">
<path style="fill:#FFFFFF;stroke:#B5B5B6;stroke-miterlimit:10;" d="M138.515,0.5c-0.007,0-0.013,0.001-0.02,0.001H16.419
	C7.627,0.501,0.5,7.628,0.5,16.42s7.127,15.919,15.919,15.919h122.096v-0.001c8.792,0,15.919-7.127,15.919-15.919
	S147.307,0.5,138.515,0.5z"/>
<polygon style="fill:#E8C41D;stroke:#E8C41D;stroke-width:0.75;stroke-miterlimit:10;" points="72.056,7.334 74.965,13.23 
	81.475,14.176 76.765,18.767 77.876,25.251 72.056,22.19 66.236,25.251 67.347,18.767 62.637,14.176 69.145,13.23 "/>
<g>
	<path style="fill:#2C50A2;stroke:#2C50A2;stroke-miterlimit:10;" d="M106.857,9.889c-1.599,0-3.015,0.78-3.888,1.981
		c-0.875-1.201-2.29-1.981-3.889-1.981c-2.655,0-4.808,2.152-4.808,4.808c0,4.04,8.696,10.555,8.696,10.555
		s8.695-6.515,8.695-10.555C111.665,12.041,109.514,9.889,106.857,9.889z"/>
</g>
<g>
	<path style="fill:#DCDDDD;stroke:#C9CACA;stroke-width:0.5;stroke-miterlimit:10;" d="M137.979,10.088l-1.852,1.803
		c-0.844-0.869-1.678-1.304-2.503-1.304c-0.486,0-0.881,0.129-1.185,0.388s-0.455,0.559-0.455,0.896
		c0,0.288,0.135,0.572,0.402,0.854c0.263,0.288,0.793,0.595,1.592,0.921c1.42,0.588,2.392,1.09,2.916,1.506
		c0.523,0.415,0.927,0.914,1.208,1.496c0.281,0.581,0.422,1.233,0.422,1.956s-0.15,1.39-0.451,2.004
		c-0.301,0.613-0.687,1.1-1.16,1.457c-0.473,0.358-1.154,0.63-2.042,0.815v2.561h-1.803v-2.503
		c-0.838-0.097-1.551-0.307-2.139-0.633c-0.806-0.447-1.554-1.042-2.244-1.783l1.822-1.87c1.17,1.246,2.301,1.87,3.395,1.87
		c0.557,0,1.033-0.193,1.434-0.581c0.399-0.386,0.6-0.842,0.6-1.366c0-0.441-0.128-0.827-0.384-1.16
		c-0.263-0.332-0.768-0.672-1.516-1.017c-1.521-0.703-2.551-1.261-3.087-1.674c-0.537-0.411-0.938-0.876-1.204-1.39
		c-0.265-0.516-0.397-1.063-0.397-1.645c0-0.966,0.351-1.792,1.054-2.479s1.593-1.057,2.667-1.107V7.144h1.803v1.083
		c0.619,0.148,1.146,0.346,1.577,0.596C136.881,9.07,137.39,9.492,137.979,10.088z"/>
</g>
<g>
	<path d="M27.955,10.088l-1.852,1.803c-0.844-0.869-1.678-1.304-2.503-1.304c-0.486,0-0.881,0.129-1.185,0.388
		s-0.455,0.559-0.455,0.896c0,0.288,0.135,0.572,0.402,0.854c0.263,0.288,0.793,0.595,1.592,0.921
		c1.42,0.588,2.392,1.09,2.916,1.506c0.523,0.415,0.927,0.914,1.208,1.496c0.281,0.581,0.422,1.233,0.422,1.956
		s-0.15,1.39-0.451,2.004c-0.301,0.613-0.687,1.1-1.16,1.457c-0.473,0.358-1.154,0.63-2.042,0.815v2.561h-1.803v-2.503
		c-0.838-0.097-1.551-0.307-2.139-0.633c-0.806-0.447-1.554-1.042-2.244-1.783l1.822-1.87c1.17,1.246,2.301,1.87,3.395,1.87
		c0.557,0,1.033-0.193,1.434-0.581c0.399-0.386,0.6-0.842,0.6-1.366c0-0.441-0.128-0.827-0.384-1.16
		c-0.263-0.332-0.768-0.672-1.516-1.017c-1.521-0.703-2.551-1.261-3.087-1.674c-0.537-0.411-0.938-0.876-1.204-1.39
		c-0.265-0.516-0.397-1.063-0.397-1.645c0-0.966,0.351-1.792,1.054-2.479s1.593-1.057,2.667-1.107V7.144h1.803v1.083
		c0.619,0.148,1.146,0.346,1.577,0.596C26.856,9.07,27.365,9.492,27.955,10.088z"/>
</g>
<line style="fill:none;stroke:#B5B5B6;stroke-miterlimit:10;" x1="50.137" y1="5.568" x2="50.137" y2="27.273"/>
</svg>
