<?xml version="1.0" encoding="iso-8859-1"?>
<!-- Generator: Adobe Illustrator 16.0.0, SVG Export Plug-In . SVG Version: 6.00 Build 0)  -->
<!DOCTYPE svg PUBLIC "-//W3C//DTD SVG 1.1//EN" "http://www.w3.org/Graphics/SVG/1.1/DTD/svg11.dtd">
<svg version="1.1" id="&#x5716;&#x5C64;_1" xmlns="http://www.w3.org/2000/svg" xmlns:xlink="http://www.w3.org/1999/xlink" x="0px"
	 y="0px" width="121.523px" height="129.256px" viewBox="0 0 121.523 129.256" style="enable-background:new 0 0 121.523 129.256;"
	 xml:space="preserve">
<g>
	<g>
		<path style="fill:#3253A2;" d="M0,0.434h8.555v3.199H3.258v3.129h5.297v3.152H3.258v7.758H0V0.434z"/>
		<path style="fill:#3253A2;" d="M18.31,4.594c1.203,0,2.334,0.301,3.393,0.902s1.885,1.418,2.479,2.449s0.891,2.145,0.891,3.34
			c0,1.203-0.299,2.328-0.896,3.375s-1.412,1.865-2.443,2.455S19.563,18,18.321,18c-1.828,0-3.389-0.65-4.682-1.951
			s-1.939-2.881-1.939-4.74c0-1.992,0.73-3.652,2.191-4.98C15.173,5.172,16.646,4.594,18.31,4.594z M18.362,7.605
			c-0.994,0-1.821,0.346-2.483,1.037c-0.66,0.691-0.991,1.576-0.991,2.654c0,1.109,0.327,2.008,0.979,2.695
			c0.654,0.688,1.481,1.031,2.483,1.031c1.001,0,1.835-0.348,2.501-1.043c0.664-0.695,0.997-1.59,0.997-2.684
			s-0.327-1.982-0.979-2.666C20.215,7.947,19.38,7.605,18.362,7.605z"/>
		<path style="fill:#3253A2;" d="M28.533,0h3.199v17.672h-3.199V0z"/>
		<path style="fill:#3253A2;" d="M35.486,0h3.199v17.672h-3.199V0z"/>
		<path style="fill:#3253A2;" d="M48.78,4.594c1.203,0,2.334,0.301,3.393,0.902s1.885,1.418,2.479,2.449s0.891,2.145,0.891,3.34
			c0,1.203-0.299,2.328-0.896,3.375s-1.412,1.865-2.443,2.455S50.034,18,48.792,18c-1.828,0-3.389-0.65-4.682-1.951
			s-1.939-2.881-1.939-4.74c0-1.992,0.73-3.652,2.191-4.98C45.644,5.172,47.116,4.594,48.78,4.594z M48.833,7.605
			c-0.994,0-1.821,0.346-2.483,1.037c-0.66,0.691-0.991,1.576-0.991,2.654c0,1.109,0.327,2.008,0.979,2.695
			c0.654,0.688,1.481,1.031,2.483,1.031c1.001,0,1.835-0.348,2.501-1.043c0.664-0.695,0.997-1.59,0.997-2.684
			s-0.327-1.982-0.979-2.666C50.686,7.947,49.851,7.605,48.833,7.605z"/>
		<path style="fill:#3253A2;" d="M57.943,4.922h3.131l2.564,7.254l2.758-7.254h1.916l2.709,7.172l2.566-7.172h3.152l-4.652,12.75
			h-2.027l-2.719-7.266l-2.801,7.266h-2.004L57.943,4.922z"/>
		<path style="fill:#3253A2;" d="M52.378,33.723h3.234v6.141c0,1.195,0.082,2.025,0.247,2.49c0.164,0.465,0.428,0.826,0.793,1.084
			c0.363,0.258,0.813,0.387,1.345,0.387s0.985-0.127,1.356-0.381c0.373-0.254,0.648-0.627,0.828-1.119
			c0.134-0.367,0.2-1.152,0.2-2.355v-6.246h3.199v5.402c0,2.227-0.176,3.75-0.527,4.57c-0.43,1-1.063,1.768-1.898,2.303
			s-1.898,0.803-3.188,0.803c-1.398,0-2.529-0.313-3.393-0.938s-1.471-1.496-1.822-2.613c-0.25-0.773-0.375-2.18-0.375-4.219V33.723
			z"/>
		<path style="fill:#3253A2;" d="M75.797,35.504l-1.98,1.98c-0.805-0.797-1.535-1.195-2.191-1.195c-0.359,0-0.641,0.076-0.844,0.229
			s-0.305,0.342-0.305,0.568c0,0.172,0.064,0.33,0.193,0.475s0.447,0.342,0.955,0.592l1.172,0.586
			c1.234,0.609,2.082,1.23,2.543,1.863s0.691,1.375,0.691,2.227c0,1.133-0.416,2.078-1.248,2.836s-1.947,1.137-3.346,1.137
			c-1.859,0-3.344-0.727-4.453-2.18l1.969-2.145c0.375,0.438,0.814,0.791,1.318,1.061s0.951,0.404,1.342,0.404
			c0.422,0,0.762-0.102,1.02-0.305s0.387-0.438,0.387-0.703c0-0.492-0.465-0.973-1.395-1.441l-1.078-0.539
			c-2.063-1.039-3.094-2.34-3.094-3.902c0-1.008,0.389-1.869,1.166-2.584s1.771-1.072,2.982-1.072c0.828,0,1.607,0.182,2.338,0.545
			S75.289,34.824,75.797,35.504z"/>
	</g>
	<rect x="119.523" style="fill:#E8C41D;" width="2" height="129.256"/>
</g>
</svg>
