<?xml version="1.0" encoding="iso-8859-1"?>
<!-- Generator: Adobe Illustrator 16.0.0, SVG Export Plug-In . SVG Version: 6.00 Build 0)  -->
<!DOCTYPE svg PUBLIC "-//W3C//DTD SVG 1.1//EN" "http://www.w3.org/Graphics/SVG/1.1/DTD/svg11.dtd">
<svg version="1.1" id="&#x5716;&#x5C64;_1" xmlns="http://www.w3.org/2000/svg" xmlns:xlink="http://www.w3.org/1999/xlink" x="0px"
	 y="0px" width="225.182px" height="131.733px" viewBox="0 0 225.182 131.733" style="enable-background:new 0 0 225.182 131.733;"
	 xml:space="preserve">
<g>
	<g>
		<g>
			<path style="fill:#3253A2;" d="M0,0.21h3.228l2.491,11.004L8.797,0.21h2.729l3.123,11.004L17.115,0.21h3.229L16.46,17.449h-3.147
				L10.137,6.305L7.02,17.449H3.902L0,0.21z"/>
			<path style="fill:#3253A2;" d="M31.963,4.699h3.199v12.75h-3.199v-1.348c-0.624,0.594-1.251,1.021-1.879,1.283
				s-1.309,0.393-2.042,0.393c-1.646,0-3.071-0.639-4.272-1.916c-1.202-1.277-1.803-2.865-1.803-4.764
				c0-1.969,0.581-3.582,1.744-4.84C24.874,5,26.286,4.371,27.948,4.371c0.765,0,1.482,0.145,2.153,0.434s1.291,0.723,1.861,1.301
				V4.699z M28.6,7.324c-0.988,0-1.811,0.35-2.464,1.049c-0.654,0.699-0.981,1.596-0.981,2.689c0,1.102,0.333,2.008,0.998,2.719
				c0.666,0.711,1.485,1.066,2.459,1.066c1.005,0,1.838-0.35,2.499-1.049c0.662-0.699,0.993-1.615,0.993-2.748
				c0-1.109-0.331-2.008-0.993-2.695C30.449,7.668,29.612,7.324,28.6,7.324z"/>
			<path style="fill:#3253A2;" d="M36.981,4.699h3.27l3.312,8l3.655-8h3.278l-7.985,17.415h-3.304l2.621-5.615L36.981,4.699z"/>
			<path style="fill:#3253A2;" d="M60.123,6.48l-1.98,1.98c-0.805-0.797-1.535-1.195-2.191-1.195c-0.359,0-0.641,0.076-0.844,0.229
				s-0.305,0.342-0.305,0.568c0,0.172,0.064,0.33,0.193,0.475s0.447,0.342,0.955,0.592l1.172,0.586
				c1.234,0.609,2.082,1.23,2.543,1.863s0.691,1.375,0.691,2.227c0,1.133-0.416,2.078-1.248,2.836s-1.947,1.137-3.346,1.137
				c-1.859,0-3.344-0.727-4.453-2.18l1.969-2.145c0.375,0.438,0.814,0.791,1.318,1.061s0.951,0.404,1.342,0.404
				c0.422,0,0.762-0.102,1.02-0.305s0.387-0.438,0.387-0.703c0-0.492-0.465-0.973-1.395-1.441l-1.078-0.539
				c-2.063-1.039-3.094-2.34-3.094-3.902c0-1.008,0.389-1.869,1.166-2.584c0.777-0.715,1.771-1.072,2.982-1.072
				c0.828,0,1.607,0.182,2.338,0.545S59.615,5.8,60.123,6.48z"/>
			<path style="fill:#3253A2;" d="M69.979,0h3.199v4.699h1.898v2.754h-1.898v9.996h-3.199V7.453h-1.641V4.699h1.641V0z"/>
			<path style="fill:#3253A2;" d="M82.775,4.371c1.203,0,2.334,0.301,3.393,0.902s1.885,1.418,2.479,2.45s0.891,2.145,0.891,3.34
				c0,1.203-0.299,2.328-0.896,3.375s-1.412,1.865-2.443,2.455s-2.168,0.885-3.41,0.885c-1.828,0-3.389-0.65-4.682-1.951
				s-1.939-2.881-1.939-4.74c0-1.992,0.73-3.652,2.191-4.98C79.639,4.949,81.111,4.371,82.775,4.371z M82.828,7.383
				c-0.994,0-1.821,0.346-2.482,1.037c-0.662,0.691-0.992,1.576-0.992,2.654c0,1.109,0.326,2.008,0.98,2.695
				c0.653,0.688,1.48,1.031,2.482,1.031s1.835-0.348,2.5-1.043s0.998-1.59,0.998-2.684s-0.327-1.982-0.98-2.666
				S83.846,7.383,82.828,7.383z"/>
			<path style="fill:#3253A2;" d="M108.287,4.699h3.188v10.922c0,2.156-0.434,3.742-1.301,4.758
				c-1.164,1.375-2.918,2.063-5.262,2.063c-1.25,0-2.301-0.156-3.152-0.469s-1.57-0.771-2.156-1.377s-1.02-1.342-1.301-2.209h3.527
				c0.313,0.359,0.715,0.631,1.207,0.814s1.074,0.275,1.746,0.275c0.859,0,1.551-0.133,2.074-0.398s0.893-0.609,1.107-1.031
				s0.322-1.148,0.322-2.18c-0.563,0.563-1.152,0.967-1.77,1.213s-1.316,0.369-2.098,0.369c-1.711,0-3.156-0.617-4.336-1.852
				s-1.77-2.797-1.77-4.688c0-2.023,0.625-3.648,1.875-4.875c1.133-1.11,2.484-1.665,4.055-1.665c0.734,0,1.428,0.135,2.08,0.404
				s1.307,0.713,1.963,1.331V4.699z M104.971,7.359c-1.008,0-1.84,0.338-2.496,1.014s-0.984,1.525-0.984,2.549
				c0,1.063,0.336,1.934,1.008,2.613s1.516,1.02,2.531,1.02c0.992,0,1.811-0.332,2.455-0.996s0.967-1.535,0.967-2.613
				c0-1.063-0.324-1.926-0.973-2.59S105.994,7.359,104.971,7.359z"/>
			<path style="fill:#3253A2;" d="M127.482,12h-10.277c0.148,0.906,0.545,1.627,1.189,2.162s1.467,0.803,2.467,0.803
				c1.195,0,2.223-0.418,3.082-1.254l2.695,1.266c-0.672,0.953-1.477,1.658-2.414,2.115s-2.051,0.686-3.34,0.686
				c-2,0-3.629-0.631-4.887-1.893s-1.887-2.842-1.887-4.74c0-1.945,0.627-3.561,1.881-4.846c1.254-1.286,2.826-1.928,4.717-1.928
				c2.008,0,3.641,0.643,4.898,1.928c1.258,1.285,1.887,2.982,1.887,5.092L127.482,12z M124.283,9.48
				c-0.211-0.711-0.628-1.289-1.25-1.734s-1.344-0.668-2.166-0.668c-0.893,0-1.675,0.25-2.348,0.75
				c-0.423,0.313-0.813,0.863-1.174,1.652H124.283z"/>
			<path style="fill:#3253A2;" d="M130.459,0h3.199v4.699h1.898v2.754h-1.898v9.996h-3.199V7.453h-1.641V4.699h1.641V0z"/>
			<path style="fill:#3253A2;" d="M2.203,28.25c0.561,0,1.042,0.203,1.443,0.609c0.4,0.406,0.602,0.898,0.602,1.477
				c0,0.57-0.198,1.057-0.596,1.459s-0.873,0.604-1.426,0.604c-0.568,0-1.054-0.205-1.455-0.615S0.17,30.875,0.17,30.289
				c0-0.563,0.198-1.043,0.596-1.441S1.643,28.25,2.203,28.25z M0.604,33.5h3.199v12.75H0.604V33.5z"/>
			<path style="fill:#3253A2;" d="M6.709,33.5h3.199v1.307c0.726-0.611,1.383-1.037,1.972-1.275c0.589-0.24,1.191-0.359,1.808-0.359
				c1.264,0,2.337,0.441,3.219,1.324c0.74,0.75,1.111,1.859,1.111,3.328v8.426h-3.164v-5.584c0-1.521-0.068-2.531-0.205-3.031
				c-0.136-0.498-0.374-0.879-0.713-1.141s-0.758-0.393-1.257-0.393c-0.646,0-1.202,0.217-1.666,0.65s-0.785,1.031-0.964,1.797
				c-0.094,0.398-0.141,1.26-0.141,2.586v5.115H6.709V33.5z"/>
			<path style="fill:#3253A2;" d="M28.213,28.801h3.199V33.5h1.898v2.754h-1.898v9.996h-3.199v-9.996h-1.641V33.5h1.641V28.801z"/>
			<path style="fill:#3253A2;" d="M41.01,33.172c1.203,0,2.334,0.301,3.393,0.902s1.885,1.418,2.479,2.449s0.891,2.145,0.891,3.34
				c0,1.203-0.299,2.328-0.896,3.375s-1.412,1.865-2.443,2.455s-2.168,0.885-3.41,0.885c-1.828,0-3.389-0.65-4.682-1.951
				s-1.939-2.881-1.939-4.74c0-1.992,0.73-3.652,2.191-4.98C37.873,33.75,39.346,33.172,41.01,33.172z M41.063,36.184
				c-0.994,0-1.821,0.346-2.482,1.037c-0.662,0.691-0.992,1.576-0.992,2.654c0,1.109,0.326,2.008,0.98,2.695
				c0.653,0.688,1.48,1.031,2.482,1.031s1.835-0.348,2.5-1.043s0.998-1.59,0.998-2.684s-0.327-1.982-0.98-2.666
				S42.08,36.184,41.063,36.184z"/>
			<path style="fill:#3253A2;" d="M50.373,33.5h3.234v6.141c0,1.195,0.082,2.025,0.247,2.49c0.164,0.465,0.429,0.826,0.793,1.084
				c0.363,0.258,0.813,0.387,1.345,0.387s0.984-0.127,1.356-0.381s0.648-0.627,0.828-1.119c0.134-0.367,0.2-1.152,0.2-2.355V33.5
				h3.199v5.402c0,2.227-0.176,3.75-0.527,4.57c-0.43,1-1.063,1.768-1.898,2.303s-1.898,0.803-3.188,0.803
				c-1.398,0-2.529-0.313-3.393-0.938s-1.471-1.496-1.822-2.613c-0.25-0.773-0.375-2.18-0.375-4.219V33.5z"/>
			<path style="fill:#3253A2;" d="M77.268,36.078l-2.663,1.465c-0.501-0.523-0.995-0.887-1.484-1.09s-1.062-0.305-1.719-0.305
				c-1.197,0-2.165,0.357-2.904,1.07c-0.739,0.715-1.108,1.629-1.108,2.744c0,1.084,0.355,1.971,1.067,2.656
				s1.646,1.029,2.805,1.029c1.432,0,2.546-0.488,3.344-1.465l2.522,1.727c-1.367,1.779-3.297,2.668-5.789,2.668
				c-2.242,0-3.998-0.664-5.268-1.992s-1.904-2.883-1.904-4.664c0-1.234,0.309-2.371,0.926-3.41s1.479-1.855,2.584-2.449
				s2.342-0.891,3.709-0.891c1.266,0,2.402,0.252,3.41,0.756S76.627,35.148,77.268,36.078z"/>
			<path style="fill:#3253A2;" d="M80.162,28.578h3.176v6.211c0.625-0.539,1.254-0.943,1.887-1.213s1.273-0.404,1.922-0.404
				c1.266,0,2.332,0.438,3.199,1.313c0.742,0.758,1.113,1.871,1.113,3.34v8.426h-3.152v-5.59c0-1.477-0.07-2.477-0.211-3
				s-0.381-0.914-0.721-1.172s-0.76-0.387-1.26-0.387c-0.648,0-1.205,0.215-1.67,0.645s-0.787,1.016-0.967,1.758
				c-0.094,0.383-0.141,1.258-0.141,2.625v5.121h-3.176V28.578z"/>
		</g>
		<rect x="3.311" y="53.236" style="fill:#E8C41D;" width="85" height="2"/>
	</g>
	<g>
		<path style="fill:#FFFFFF;" d="M0.202,93.461h7.146v2.426H4.992v10.504H2.496V95.887H0.202V93.461z"/>
		<path style="fill:#FFFFFF;" d="M10.98,96.582c0.381,0,0.707,0.135,0.977,0.404s0.404,0.594,0.404,0.975
			c0,0.375-0.135,0.697-0.404,0.967s-0.596,0.404-0.977,0.404s-0.705-0.133-0.975-0.398c-0.27-0.268-0.404-0.592-0.404-0.973
			s0.135-0.705,0.404-0.975S10.6,96.582,10.98,96.582z M10.98,103.885c0.381,0,0.707,0.135,0.977,0.4
			c0.27,0.268,0.404,0.59,0.404,0.971s-0.135,0.707-0.404,0.977s-0.596,0.404-0.977,0.404s-0.705-0.135-0.975-0.404
			s-0.404-0.596-0.404-0.977s0.135-0.703,0.404-0.971C10.275,104.02,10.6,103.885,10.98,103.885z"/>
		<path style="fill:#FFFFFF;" d="M25.332,93.137c0.943,0,1.756,0.23,2.439,0.693c0.682,0.463,1.209,1.172,1.582,2.123
			c0.371,0.953,0.558,2.277,0.558,3.977c0,1.717-0.188,3.053-0.567,4.008c-0.377,0.955-0.886,1.658-1.524,2.105
			c-0.639,0.449-1.444,0.672-2.417,0.672s-1.79-0.225-2.452-0.676s-1.181-1.137-1.556-2.057s-0.563-2.23-0.563-3.93
			c0-2.373,0.366-4.092,1.099-5.158C22.745,93.723,23.879,93.137,25.332,93.137z M25.389,95.475c-0.415,0-0.783,0.133-1.104,0.4
			c-0.321,0.266-0.567,0.725-0.737,1.375c-0.169,0.65-0.254,1.602-0.254,2.855c0,1.635,0.194,2.766,0.583,3.389
			c0.39,0.625,0.894,0.936,1.513,0.936c0.597,0,1.07-0.295,1.422-0.887c0.426-0.715,0.64-1.91,0.64-3.586
			c0-1.699-0.191-2.871-0.574-3.516C26.492,95.797,25.997,95.475,25.389,95.475z"/>
		<path style="fill:#FFFFFF;" d="M34.273,93.461h3.684v12.93h-2.443V95.773H32.85L34.273,93.461z"/>
		<path style="fill:#FFFFFF;" d="M47.294,93.137c0.943,0,1.757,0.23,2.438,0.693c0.684,0.463,1.211,1.172,1.582,2.123
			c0.373,0.953,0.559,2.277,0.559,3.977c0,1.717-0.189,3.053-0.566,4.008c-0.379,0.955-0.887,1.658-1.525,2.105
			c-0.639,0.449-1.444,0.672-2.417,0.672s-1.79-0.225-2.452-0.676s-1.181-1.137-1.556-2.057s-0.563-2.23-0.563-3.93
			c0-2.373,0.366-4.092,1.099-5.158C44.707,93.723,45.841,93.137,47.294,93.137z M47.352,95.475c-0.416,0-0.784,0.133-1.105,0.4
			c-0.322,0.266-0.567,0.725-0.736,1.375c-0.17,0.65-0.255,1.602-0.255,2.855c0,1.635,0.194,2.766,0.583,3.389
			c0.389,0.625,0.893,0.936,1.514,0.936c0.596,0,1.069-0.295,1.42-0.887c0.428-0.715,0.641-1.91,0.641-3.586
			c0-1.699-0.191-2.871-0.574-3.516S47.959,95.475,47.352,95.475z"/>
		<path style="fill:#FFFFFF;" d="M54.82,100.51h4.465v2.232H54.82V100.51z"/>
		<path style="fill:#FFFFFF;" d="M65.151,96.652h-2.364c0.123-0.955,0.466-1.723,1.028-2.303c0.785-0.809,1.772-1.213,2.962-1.213
			c1.061,0,1.949,0.336,2.668,1.01c0.717,0.674,1.076,1.475,1.076,2.4c0,0.574-0.156,1.098-0.471,1.572
			c-0.313,0.475-0.769,0.859-1.366,1.152c0.785,0.234,1.399,0.643,1.841,1.227c0.443,0.582,0.664,1.27,0.664,2.061
			c0,1.16-0.428,2.143-1.283,2.949c-0.855,0.805-1.945,1.207-3.27,1.207c-1.254,0-2.276-0.379-3.067-1.137
			c-0.791-0.76-1.225-1.793-1.301-3.1h2.435c0.105,0.668,0.338,1.166,0.699,1.49c0.359,0.326,0.815,0.488,1.366,0.488
			c0.574,0,1.05-0.186,1.429-0.555c0.377-0.369,0.566-0.82,0.566-1.354c0-0.586-0.255-1.08-0.765-1.484s-1.245-0.613-2.206-0.625
			V98.33c0.592-0.047,1.033-0.139,1.322-0.275c0.291-0.139,0.516-0.328,0.678-0.568c0.16-0.24,0.241-0.494,0.241-0.764
			c0-0.352-0.123-0.643-0.369-0.875c-0.246-0.23-0.568-0.348-0.967-0.348c-0.352,0-0.671,0.107-0.958,0.322
			C65.453,96.035,65.257,96.313,65.151,96.652z"/>
		<path style="fill:#FFFFFF;" d="M76.133,96.652h-2.364c0.123-0.955,0.466-1.723,1.028-2.303c0.785-0.809,1.772-1.213,2.962-1.213
			c1.061,0,1.95,0.336,2.667,1.01c0.719,0.674,1.077,1.475,1.077,2.4c0,0.574-0.157,1.098-0.47,1.572
			c-0.314,0.475-0.77,0.859-1.367,1.152c0.785,0.234,1.398,0.643,1.842,1.227c0.441,0.582,0.663,1.27,0.663,2.061
			c0,1.16-0.428,2.143-1.283,2.949c-0.855,0.805-1.945,1.207-3.27,1.207c-1.254,0-2.276-0.379-3.067-1.137
			c-0.791-0.76-1.225-1.793-1.301-3.1h2.435c0.105,0.668,0.339,1.166,0.698,1.49c0.361,0.326,0.816,0.488,1.367,0.488
			c0.574,0,1.051-0.186,1.428-0.555c0.379-0.369,0.567-0.82,0.567-1.354c0-0.586-0.255-1.08-0.765-1.484s-1.245-0.613-2.206-0.625
			V98.33c0.592-0.047,1.032-0.139,1.323-0.275c0.289-0.139,0.516-0.328,0.676-0.568c0.162-0.24,0.242-0.494,0.242-0.764
			c0-0.352-0.123-0.643-0.369-0.875C78.4,95.617,78.078,95.5,77.68,95.5c-0.352,0-0.671,0.107-0.958,0.322
			C76.435,96.035,76.238,96.313,76.133,96.652z"/>
		<path style="fill:#FFFFFF;" d="M89.662,93.137h2.453v8.322h1.15v2.277h-1.15v2.654h-2.408v-2.654h-5.643v-2.277L89.662,93.137z
			 M89.707,101.459v-4.332l-2.953,4.332H89.707z"/>
		<path style="fill:#FFFFFF;" d="M97.682,93.461h6.056v2.277h-4.219l-0.527,2.346c0.146-0.041,0.29-0.07,0.431-0.092
			c0.141-0.02,0.275-0.031,0.404-0.031c1.172,0,2.146,0.4,2.922,1.201c0.777,0.799,1.165,1.822,1.165,3.07
			c0,1.26-0.429,2.322-1.288,3.188c-0.857,0.863-1.902,1.295-3.133,1.295c-1.102,0-2.048-0.313-2.839-0.939s-1.31-1.486-1.556-2.576
			h2.584c0.199,0.404,0.461,0.711,0.787,0.92c0.324,0.207,0.684,0.311,1.076,0.311c0.545,0,1.008-0.195,1.389-0.588
			s0.571-0.896,0.571-1.512c0-0.598-0.177-1.088-0.532-1.473c-0.354-0.383-0.783-0.576-1.287-0.576c-0.27,0-0.535,0.068-0.795,0.203
			c-0.262,0.135-0.518,0.336-0.77,0.605l-2.004-0.447L97.682,93.461z"/>
		<path style="fill:#FFFFFF;" d="M110.877,93.137l2.097,1.047l-2.263,4.393c1.096,0,2.027,0.393,2.795,1.178s1.15,1.762,1.15,2.928
			c0,1.125-0.394,2.078-1.182,2.861c-0.788,0.781-1.738,1.172-2.852,1.172c-1.166,0-2.138-0.404-2.914-1.217
			c-0.776-0.811-1.164-1.742-1.164-2.791c0-0.398,0.06-0.799,0.18-1.203s0.396-1.025,0.83-1.863L110.877,93.137z M110.57,100.906
			c-0.457,0-0.842,0.166-1.152,0.496c-0.311,0.332-0.465,0.746-0.465,1.244s0.162,0.916,0.487,1.256s0.704,0.51,1.138,0.51
			c0.457,0,0.85-0.166,1.178-0.5s0.492-0.756,0.492-1.266c0-0.498-0.159-0.912-0.479-1.244
			C111.45,101.072,111.051,100.906,110.57,100.906z"/>
		<path style="fill:#FFFFFF;" d="M117.719,93.461h8.481v1.293l-5.836,11.961l-2.079-1.008l4.856-9.934h-5.423V93.461z"/>
		<path style="fill:#FFFFFF;" d="M135.31,99.381c0.586,0.375,1.038,0.857,1.358,1.445c0.318,0.59,0.479,1.229,0.479,1.914
			c0,0.744-0.186,1.434-0.559,2.066c-0.371,0.633-0.871,1.109-1.498,1.43c-0.627,0.318-1.427,0.479-2.399,0.479
			c-1.043,0-1.872-0.154-2.487-0.461c-0.615-0.309-1.107-0.773-1.477-1.398s-0.554-1.33-0.554-2.115c0-0.68,0.147-1.301,0.444-1.861
			c0.295-0.559,0.739-1.059,1.331-1.498c-0.387-0.393-0.679-0.811-0.874-1.252c-0.197-0.441-0.295-0.908-0.295-1.4
			c0-0.674,0.162-1.287,0.488-1.84c0.324-0.553,0.78-0.984,1.366-1.291s1.263-0.461,2.03-0.461c0.756,0,1.421,0.154,1.995,0.465
			s1.026,0.752,1.358,1.322c0.33,0.57,0.496,1.184,0.496,1.84c0,0.463-0.086,0.891-0.26,1.285
			C136.082,98.445,135.767,98.889,135.31,99.381z M132.682,100.695c-0.592,0-1.09,0.18-1.494,0.541
			c-0.404,0.359-0.606,0.789-0.606,1.287c0,0.521,0.19,0.963,0.571,1.322c0.381,0.361,0.882,0.541,1.503,0.541
			c0.627,0,1.126-0.168,1.499-0.506c0.371-0.336,0.558-0.771,0.558-1.305s-0.193-0.98-0.58-1.34
			C133.745,100.875,133.262,100.695,132.682,100.695z M132.585,95.51c-0.404,0-0.737,0.133-0.997,0.398
			c-0.262,0.266-0.392,0.605-0.392,1.021c0,0.414,0.138,0.762,0.413,1.041c0.275,0.281,0.615,0.422,1.02,0.422
			c0.416,0,0.758-0.137,1.023-0.412c0.268-0.275,0.4-0.631,0.4-1.068c0-0.416-0.135-0.752-0.404-1.014
			C133.379,95.639,133.024,95.51,132.585,95.51z"/>
		<path style="fill:#FFFFFF;" d="M1.485,115.061h7.058v2.408H3.929v2.338h4.614v2.365H3.929v3.4h4.614v2.418H1.485V115.061z"/>
		<path style="fill:#FFFFFF;" d="M12.783,118.182c0.381,0,0.705,0.135,0.975,0.404s0.404,0.594,0.404,0.975
			c0,0.375-0.135,0.697-0.404,0.967s-0.594,0.404-0.975,0.404s-0.707-0.133-0.977-0.398c-0.27-0.268-0.404-0.592-0.404-0.973
			s0.135-0.705,0.404-0.975S12.402,118.182,12.783,118.182z M12.783,125.484c0.381,0,0.705,0.135,0.975,0.4
			c0.27,0.268,0.404,0.59,0.404,0.971s-0.135,0.707-0.404,0.977s-0.594,0.404-0.975,0.404s-0.707-0.135-0.977-0.404
			s-0.404-0.596-0.404-0.977s0.135-0.703,0.404-0.971C12.076,125.619,12.402,125.484,12.783,125.484z"/>
		<path style="fill:#FFFFFF;" d="M23.618,115.061h2.915c1.88,0,3.275,0.234,4.189,0.699c0.913,0.467,1.665,1.223,2.256,2.271
			c0.592,1.049,0.888,2.273,0.888,3.674c0,0.996-0.165,1.912-0.496,2.748c-0.331,0.834-0.788,1.527-1.37,2.078
			s-1.213,0.932-1.893,1.143c-0.679,0.211-1.855,0.316-3.529,0.316h-2.96V115.061z M26.062,117.434v8.156h1.143
			c1.125,0,1.94-0.129,2.448-0.387c0.506-0.258,0.921-0.691,1.243-1.303c0.322-0.609,0.483-1.359,0.483-2.252
			c0-1.373-0.384-2.438-1.151-3.193c-0.691-0.682-1.802-1.021-3.331-1.021H26.062z"/>
		<path style="fill:#FFFFFF;" d="M36.84,118.428h2.426v4.605c0,0.896,0.063,1.52,0.186,1.867c0.123,0.35,0.322,0.619,0.595,0.813
			s0.609,0.291,1.009,0.291s0.738-0.096,1.018-0.285c0.279-0.191,0.486-0.471,0.621-0.84c0.1-0.275,0.15-0.865,0.15-1.768v-4.684
			h2.398v4.051c0,1.67-0.131,2.813-0.395,3.428c-0.322,0.75-0.797,1.326-1.424,1.729c-0.627,0.4-1.424,0.602-2.391,0.602
			c-1.049,0-1.897-0.234-2.545-0.703s-1.104-1.123-1.367-1.961c-0.188-0.58-0.281-1.635-0.281-3.164V118.428z"/>
		<path style="fill:#FFFFFF;" d="M60.75,117.17l-1.732,1.715c-1.098-1.16-2.375-1.74-3.836-1.74c-1.272,0-2.338,0.422-3.197,1.266
			s-1.289,1.869-1.289,3.076c0,1.248,0.445,2.305,1.338,3.172c0.891,0.867,1.99,1.301,3.299,1.301c0.851,0,1.568-0.178,2.151-0.535
			s1.054-0.918,1.412-1.68h-3.744v-2.311h6.504l0.018,0.545c0,1.131-0.293,2.203-0.879,3.217s-1.345,1.787-2.276,2.32
			s-2.024,0.799-3.278,0.799c-1.342,0-2.538-0.291-3.591-0.873c-1.051-0.584-1.883-1.414-2.496-2.492
			c-0.611-1.078-0.918-2.242-0.918-3.49c0-1.711,0.565-3.199,1.696-4.465c1.342-1.506,3.088-2.258,5.238-2.258
			c1.125,0,2.177,0.207,3.155,0.623C59.15,115.711,59.959,116.314,60.75,117.17z"/>
		<path style="fill:#FFFFFF;" d="M69.059,118.182c0.902,0,1.751,0.225,2.545,0.676s1.414,1.064,1.859,1.838s0.668,1.607,0.668,2.504
			c0,0.902-0.225,1.746-0.673,2.531s-1.06,1.4-1.833,1.842s-1.625,0.664-2.557,0.664c-1.371,0-2.542-0.488-3.512-1.463
			c-0.97-0.977-1.455-2.162-1.455-3.557c0-1.494,0.549-2.738,1.645-3.734C66.707,118.615,67.811,118.182,69.059,118.182z
			 M69.099,120.439c-0.745,0-1.366,0.26-1.862,0.779c-0.496,0.518-0.744,1.182-0.744,1.99c0,0.832,0.246,1.506,0.736,2.021
			c0.489,0.516,1.109,0.773,1.861,0.773c0.751,0,1.377-0.262,1.875-0.783c0.499-0.521,0.748-1.191,0.748-2.012s-0.244-1.486-0.734-2
			C70.488,120.697,69.861,120.439,69.099,120.439z"/>
		<path style="fill:#FFFFFF;" d="M84.048,114.736h2.399v13.254h-2.399v-1.012c-0.468,0.445-0.938,0.768-1.409,0.963
			s-0.981,0.295-1.531,0.295c-1.235,0-2.304-0.479-3.205-1.438c-0.9-0.957-1.352-2.148-1.352-3.572c0-1.477,0.436-2.688,1.309-3.631
			c0.871-0.943,1.931-1.414,3.178-1.414c0.573,0,1.111,0.107,1.615,0.324c0.503,0.217,0.969,0.543,1.396,0.977V114.736z
			 M81.525,120.396c-0.742,0-1.357,0.262-1.848,0.787c-0.491,0.523-0.736,1.195-0.736,2.016c0,0.826,0.25,1.506,0.749,2.039
			s1.114,0.801,1.844,0.801c0.753,0,1.378-0.262,1.874-0.787c0.497-0.523,0.745-1.211,0.745-2.061c0-0.832-0.248-1.506-0.745-2.021
			C82.912,120.654,82.285,120.396,81.525,120.396z"/>
		<path style="fill:#FFFFFF;" d="M93.562,114.736c0.943,0,1.757,0.23,2.438,0.693c0.684,0.463,1.211,1.172,1.582,2.123
			c0.373,0.953,0.559,2.277,0.559,3.977c0,1.717-0.189,3.053-0.566,4.008c-0.379,0.955-0.887,1.658-1.525,2.105
			c-0.639,0.449-1.444,0.672-2.417,0.672s-1.79-0.225-2.452-0.676s-1.181-1.137-1.556-2.057s-0.563-2.23-0.563-3.93
			c0-2.373,0.366-4.092,1.099-5.158C90.975,115.322,92.108,114.736,93.562,114.736z M93.619,117.074c-0.416,0-0.784,0.133-1.105,0.4
			c-0.322,0.266-0.567,0.725-0.736,1.375c-0.17,0.65-0.255,1.602-0.255,2.855c0,1.635,0.194,2.766,0.583,3.389
			c0.389,0.625,0.893,0.936,1.514,0.936c0.596,0,1.069-0.295,1.42-0.887c0.428-0.715,0.641-1.91,0.641-3.586
			c0-1.699-0.191-2.871-0.574-3.516S94.227,117.074,93.619,117.074z"/>
		<path style="fill:#FFFFFF;" d="M102.504,115.061h3.682v12.93h-2.443v-10.617h-2.662L102.504,115.061z"/>
		<path style="fill:#FFFFFF;" d="M121.315,125.354h1.679c-0.639,0.791-1.205,1.367-1.701,1.727c-0.494,0.361-1.07,0.643-1.727,0.848
			s-1.339,0.309-2.048,0.309c-1.254,0-2.417-0.307-3.489-0.92s-1.913-1.447-2.522-2.502s-0.914-2.205-0.914-3.447
			c0-1.254,0.306-2.422,0.919-3.5c0.611-1.078,1.447-1.918,2.504-2.516c1.059-0.598,2.22-0.896,3.485-0.896
			c1.758,0,3.241,0.566,4.452,1.699c1.209,1.133,1.814,2.449,1.814,3.951c0,1.104-0.254,2.053-0.76,2.85
			c-0.508,0.795-1.197,1.414-2.07,1.861c-0.668,0.34-1.228,0.51-1.679,0.51c-0.34,0-0.612-0.09-0.817-0.271
			c-0.158-0.129-0.243-0.352-0.255-0.668c-0.516,0.568-1.143,0.852-1.881,0.852c-0.832,0-1.524-0.297-2.079-0.889
			c-0.553-0.594-0.83-1.383-0.83-2.371c0-1.086,0.34-2.057,1.02-2.91c0.679-0.855,1.581-1.283,2.705-1.283
			c0.463,0,0.876,0.096,1.239,0.285c0.362,0.191,0.673,0.48,0.931,0.865l0.186-0.922h1.725l-0.87,5.139
			c-0.059,0.365-0.088,0.57-0.088,0.617c0,0.064,0.03,0.125,0.093,0.182c0.061,0.055,0.133,0.084,0.215,0.084
			c0.205,0,0.482-0.143,0.83-0.428c0.35-0.285,0.633-0.695,0.854-1.232c0.219-0.537,0.329-1.127,0.329-1.766
			c0-0.951-0.208-1.791-0.624-2.52s-1.014-1.301-1.793-1.719c-0.779-0.416-1.673-0.625-2.681-0.625
			c-1.061,0-2.013,0.236-2.856,0.709s-1.509,1.143-1.995,2.008s-0.729,1.816-0.729,2.855c0,1.063,0.246,2.025,0.738,2.889
			c0.492,0.861,1.181,1.533,2.065,2.016c0.885,0.48,1.875,0.721,2.971,0.721c0.645,0,1.254-0.121,1.828-0.361
			C120.062,126.34,120.671,125.93,121.315,125.354z M117.018,123.385c0.51,0,0.932-0.211,1.266-0.633
			c0.334-0.42,0.501-0.896,0.501-1.426c0-0.459-0.136-0.834-0.409-1.125c-0.271-0.293-0.613-0.438-1.023-0.438
			c-0.48,0-0.899,0.197-1.257,0.596c-0.357,0.396-0.536,0.879-0.536,1.443c0,0.479,0.135,0.859,0.404,1.148
			S116.584,123.385,117.018,123.385z"/>
		<path style="fill:#FFFFFF;" d="M133.018,118.428h2.391v8.191c0,1.617-0.326,2.807-0.977,3.568
			c-0.873,1.031-2.188,1.547-3.945,1.547c-0.938,0-1.727-0.117-2.365-0.352s-1.178-0.58-1.617-1.033
			c-0.439-0.455-0.764-1.006-0.975-1.656h2.645c0.234,0.27,0.537,0.473,0.906,0.611c0.369,0.137,0.805,0.205,1.309,0.205
			c0.645,0,1.164-0.1,1.557-0.299s0.669-0.457,0.83-0.773s0.242-0.861,0.242-1.635c-0.422,0.422-0.865,0.727-1.328,0.91
			c-0.463,0.186-0.986,0.277-1.572,0.277c-1.283,0-2.367-0.463-3.252-1.389s-1.328-2.098-1.328-3.516
			c0-1.518,0.469-2.736,1.406-3.656c0.85-0.832,1.863-1.248,3.041-1.248c0.551,0,1.071,0.102,1.561,0.303
			c0.489,0.203,0.98,0.535,1.473,0.998V118.428z M130.529,120.422c-0.756,0-1.379,0.254-1.871,0.762
			c-0.492,0.506-0.738,1.143-0.738,1.91c0,0.797,0.252,1.451,0.756,1.961s1.137,0.764,1.898,0.764c0.744,0,1.357-0.248,1.841-0.746
			s0.726-1.152,0.726-1.961c0-0.797-0.244-1.443-0.73-1.941S131.297,120.422,130.529,120.422z"/>
		<path style="fill:#FFFFFF;" d="M138.716,118.428h2.399v1.098c0.41-0.451,0.866-0.787,1.367-1.01
			c0.502-0.223,1.049-0.334,1.641-0.334c0.598,0,1.138,0.146,1.619,0.439c0.48,0.293,0.867,0.721,1.16,1.283
			c0.381-0.563,0.85-0.99,1.402-1.283c0.555-0.293,1.16-0.439,1.816-0.439c0.681,0,1.279,0.158,1.795,0.475s0.887,0.729,1.112,1.238
			s0.339,1.34,0.339,2.488v5.607h-2.417v-4.852c0-1.084-0.135-1.818-0.404-2.201c-0.27-0.385-0.674-0.576-1.213-0.576
			c-0.41,0-0.778,0.117-1.103,0.352c-0.326,0.234-0.567,0.559-0.726,0.971c-0.158,0.414-0.237,1.076-0.237,1.99v4.316h-2.417v-4.633
			c0-0.855-0.063-1.475-0.189-1.857c-0.126-0.385-0.315-0.67-0.568-0.857s-0.558-0.281-0.916-0.281
			c-0.399,0-0.763,0.119-1.088,0.355c-0.326,0.238-0.569,0.57-0.731,0.998s-0.242,1.102-0.242,2.021v4.254h-2.399V118.428z"/>
		<path style="fill:#FFFFFF;" d="M163.61,118.428h2.399v9.563h-2.399v-1.012c-0.468,0.445-0.938,0.768-1.409,0.963
			s-0.981,0.295-1.531,0.295c-1.235,0-2.304-0.479-3.205-1.438c-0.9-0.957-1.352-2.148-1.352-3.572c0-1.477,0.436-2.688,1.309-3.631
			c0.871-0.943,1.931-1.414,3.178-1.414c0.573,0,1.111,0.107,1.615,0.324c0.503,0.217,0.969,0.543,1.396,0.977V118.428z
			 M161.088,120.396c-0.742,0-1.357,0.262-1.848,0.787c-0.491,0.523-0.736,1.195-0.736,2.016c0,0.826,0.25,1.506,0.749,2.039
			s1.114,0.801,1.844,0.801c0.753,0,1.378-0.262,1.874-0.787c0.497-0.523,0.745-1.211,0.745-2.061c0-0.832-0.248-1.506-0.745-2.021
			C162.475,120.654,161.848,120.396,161.088,120.396z"/>
		<path style="fill:#FFFFFF;" d="M170.271,114.49c0.42,0,0.781,0.152,1.082,0.457s0.451,0.674,0.451,1.107
			c0,0.428-0.148,0.793-0.446,1.094c-0.298,0.303-0.655,0.453-1.069,0.453c-0.427,0-0.791-0.154-1.092-0.461
			c-0.301-0.309-0.451-0.682-0.451-1.121c0-0.422,0.149-0.783,0.447-1.082C169.492,114.639,169.851,114.49,170.271,114.49z
			 M169.072,118.428h2.398v9.563h-2.398V118.428z"/>
		<path style="fill:#FFFFFF;" d="M174.287,114.736h2.399v13.254h-2.399V114.736z"/>
		<path style="fill:#FFFFFF;" d="M181.076,125.484c0.381,0,0.705,0.135,0.975,0.4c0.27,0.268,0.404,0.59,0.404,0.971
			s-0.135,0.707-0.404,0.977s-0.594,0.404-0.975,0.404s-0.707-0.135-0.977-0.404s-0.404-0.596-0.404-0.977s0.135-0.703,0.404-0.971
			C180.369,125.619,180.695,125.484,181.076,125.484z"/>
		<path style="fill:#FFFFFF;" d="M195.063,120.361l-1.998,1.098c-0.375-0.393-0.746-0.664-1.113-0.816
			c-0.366-0.152-0.796-0.229-1.289-0.229c-0.896,0-1.623,0.268-2.178,0.803c-0.554,0.535-0.831,1.221-0.831,2.057
			c0,0.814,0.267,1.479,0.801,1.992c0.534,0.516,1.235,0.773,2.103,0.773c1.074,0,1.91-0.367,2.508-1.1l1.893,1.297
			c-1.025,1.332-2.473,2-4.342,2c-1.682,0-2.998-0.498-3.951-1.494c-0.951-0.996-1.428-2.162-1.428-3.498
			c0-0.926,0.231-1.779,0.694-2.559s1.108-1.391,1.938-1.836c0.828-0.445,1.756-0.668,2.781-0.668c0.949,0,1.802,0.189,2.558,0.566
			C193.964,119.127,194.582,119.664,195.063,120.361z"/>
		<path style="fill:#FFFFFF;" d="M202.616,118.182c0.902,0,1.751,0.225,2.544,0.676c0.795,0.451,1.414,1.064,1.859,1.838
			s0.668,1.607,0.668,2.504c0,0.902-0.225,1.746-0.672,2.531c-0.449,0.785-1.06,1.4-1.833,1.842s-1.626,0.664-2.558,0.664
			c-1.371,0-2.541-0.488-3.512-1.463c-0.969-0.977-1.454-2.162-1.454-3.557c0-1.494,0.548-2.738,1.644-3.734
			C200.264,118.615,201.368,118.182,202.616,118.182z M202.656,120.439c-0.746,0-1.367,0.26-1.862,0.779
			c-0.496,0.518-0.744,1.182-0.744,1.99c0,0.832,0.245,1.506,0.735,2.021s1.11,0.773,1.861,0.773c0.752,0,1.377-0.262,1.875-0.783
			c0.5-0.521,0.749-1.191,0.749-2.012s-0.245-1.486-0.735-2C204.045,120.697,203.419,120.439,202.656,120.439z"/>
		<path style="fill:#FFFFFF;" d="M210.529,118.428h2.4v1.098c0.41-0.451,0.865-0.787,1.367-1.01s1.048-0.334,1.641-0.334
			c0.598,0,1.137,0.146,1.618,0.439c0.48,0.293,0.868,0.721,1.161,1.283c0.381-0.563,0.849-0.99,1.402-1.283
			c0.555-0.293,1.16-0.439,1.816-0.439c0.68,0,1.278,0.158,1.795,0.475c0.516,0.316,0.887,0.729,1.111,1.238
			c0.227,0.51,0.34,1.34,0.34,2.488v5.607h-2.418v-4.852c0-1.084-0.135-1.818-0.404-2.201c-0.27-0.385-0.674-0.576-1.213-0.576
			c-0.41,0-0.777,0.117-1.103,0.352s-0.567,0.559-0.726,0.971c-0.158,0.414-0.236,1.076-0.236,1.99v4.316h-2.418v-4.633
			c0-0.855-0.063-1.475-0.189-1.857c-0.126-0.385-0.314-0.67-0.568-0.857c-0.252-0.188-0.557-0.281-0.916-0.281
			c-0.398,0-0.762,0.119-1.088,0.355c-0.326,0.238-0.569,0.57-0.73,0.998c-0.162,0.428-0.242,1.102-0.242,2.021v4.254h-2.4V118.428z
			"/>
	</g>
</g>
</svg>
