<?xml version="1.0" encoding="iso-8859-1"?>
<!-- Generator: Adobe Illustrator 16.0.0, SVG Export Plug-In . SVG Version: 6.00 Build 0)  -->
<!DOCTYPE svg PUBLIC "-//W3C//DTD SVG 1.1//EN" "http://www.w3.org/Graphics/SVG/1.1/DTD/svg11.dtd">
<svg version="1.1" id="&#x5716;&#x5C64;_1" xmlns="http://www.w3.org/2000/svg" xmlns:xlink="http://www.w3.org/1999/xlink" x="0px"
	 y="0px" width="34.425px" height="34.425px" viewBox="0 0 34.425 34.425" style="enable-background:new 0 0 34.425 34.425;"
	 xml:space="preserve">
<g>
	<g>
		<path style="fill:#FFFFFF;" d="M24.627,34.425H9.798C4.395,34.425,0,30.03,0,24.626V9.798c0-5.402,4.395-9.797,9.798-9.797h14.829
			c5.402,0,9.798,4.395,9.798,9.797v14.828C34.425,30.03,30.029,34.425,24.627,34.425z M9.798,2.95
			c-3.775,0-6.847,3.072-6.847,6.848v14.828c0,3.777,3.071,6.848,6.847,6.848h14.829c3.775,0,6.847-3.07,6.847-6.848V9.798
			c0-3.775-3.071-6.848-6.847-6.848H9.798z"/>
	</g>
	<g>
		<path style="fill:#FFFFFF;" d="M17.212,26.026c-4.859,0-8.814-3.953-8.814-8.814c0-4.859,3.955-8.814,8.814-8.814
			c4.861,0,8.814,3.955,8.814,8.814C26.026,22.073,22.073,26.026,17.212,26.026z M17.212,11.349c-3.232,0-5.863,2.631-5.863,5.863
			s2.631,5.865,5.863,5.865c3.234,0,5.864-2.633,5.864-5.865S20.446,11.349,17.212,11.349z"/>
	</g>
	<g>
		<circle style="fill:#FFFFFF;" cx="26.405" cy="7.894" r="2.118"/>
	</g>
</g>
</svg>
