<?xml version="1.0" encoding="iso-8859-1"?>
<!-- Generator: Adobe Illustrator 16.0.0, SVG Export Plug-In . SVG Version: 6.00 Build 0)  -->
<!DOCTYPE svg PUBLIC "-//W3C//DTD SVG 1.1//EN" "http://www.w3.org/Graphics/SVG/1.1/DTD/svg11.dtd">
<svg version="1.1" id="&#x5716;&#x5C64;_1" xmlns="http://www.w3.org/2000/svg" xmlns:xlink="http://www.w3.org/1999/xlink" x="0px"
	 y="0px" width="32px" height="32px" viewBox="0 0 32 32" style="enable-background:new 0 0 32 32;" xml:space="preserve">
<g>
	<g>
		<path style="fill:#2EAD38;" d="M32,24.339C32,28.57,28.571,32,24.34,32H7.659C3.429,32,0,28.57,0,24.339V7.659
			C0,3.429,3.429,0,7.659,0H24.34C28.571,0,32,3.429,32,7.659V24.339z"/>
		<path style="fill:#FFFFFF;" d="M26.389,16.855l-0.011,0.006c0.269-0.775,0.421-1.592,0.421-2.439
			c0-4.912-4.835-8.896-10.799-8.896c-5.964,0-10.799,3.983-10.799,8.896c0,4.646,4.324,8.455,9.837,8.855l-0.008,0.005
			l-0.087,2.873c0,0,0.057,0.485,0.8,0.257c0.729-0.224,9.117-4.984,10.552-9.306c0.011-0.029,0.022-0.06,0.033-0.089
			C26.346,16.964,26.374,16.909,26.389,16.855z"/>
	</g>
	<g>
		<polygon style="fill:#2EAD38;" points="11.855,16.549 11.855,17.719 8.335,17.719 8.335,12.089 9.505,12.089 9.505,16.549 		"/>
		<rect x="12.752" y="12.09" style="fill:#2EAD38;" width="1.167" height="5.625"/>
		<polygon style="fill:#2EAD38;" points="19.455,12.089 19.455,17.719 18.295,17.719 15.915,14.209 15.915,17.719 14.755,17.719 
			14.755,12.089 15.915,12.089 18.295,15.559 18.295,12.089 		"/>
		<polygon style="fill:#2EAD38;" points="21.305,13.259 21.305,14.319 23.665,14.319 23.665,15.489 21.305,15.489 21.305,16.549 
			23.665,16.549 23.665,17.719 20.145,17.719 20.145,12.089 23.665,12.089 23.665,13.259 		"/>
	</g>
</g>
</svg>
