<?xml version="1.0" encoding="iso-8859-1"?>
<!-- Generator: Adobe Illustrator 16.0.0, SVG Export Plug-In . SVG Version: 6.00 Build 0)  -->
<!DOCTYPE svg PUBLIC "-//W3C//DTD SVG 1.1//EN" "http://www.w3.org/Graphics/SVG/1.1/DTD/svg11.dtd">
<svg version="1.1" id="&#x5716;&#x5C64;_1" xmlns="http://www.w3.org/2000/svg" xmlns:xlink="http://www.w3.org/1999/xlink" x="0px"
	 y="0px" width="32px" height="32px" viewBox="0 0 32 32" style="enable-background:new 0 0 32 32;" xml:space="preserve">
<g>
	<path style="fill:#65B95C;" d="M32,24.339C32,28.57,28.571,32,24.34,32H7.659C3.429,32,0,28.57,0,24.339V7.659
		C0,3.429,3.429,0,7.659,0H24.34C28.571,0,32,3.429,32,7.659V24.339z"/>
	<path style="fill:#FFFFFF;" d="M16,5.99c-6.249,0-11.314,4.17-11.314,9.314c0,3.318,2.114,6.224,5.289,7.873
		c-0.277,0.652-0.798,1.785-1.25,2.185c-0.647,0.571-0.153,0.647,0.229,0.647c0.31,0,2.327-0.503,4.054-1.731
		c0.955,0.216,1.956,0.341,2.994,0.341c6.249,0,11.314-4.17,11.314-9.314S22.249,5.99,16,5.99z"/>
</g>
</svg>
