<?xml version="1.0" encoding="iso-8859-1"?>
<!-- Generator: Adobe Illustrator 16.0.0, SVG Export Plug-In . SVG Version: 6.00 Build 0)  -->
<!DOCTYPE svg PUBLIC "-//W3C//DTD SVG 1.1//EN" "http://www.w3.org/Graphics/SVG/1.1/DTD/svg11.dtd">
<svg version="1.1" id="&#x5716;&#x5C64;_1" xmlns="http://www.w3.org/2000/svg" xmlns:xlink="http://www.w3.org/1999/xlink" x="0px"
	 y="0px" width="32px" height="32px" viewBox="0 0 32 32" style="enable-background:new 0 0 32 32;" xml:space="preserve">
<g>
	<path style="fill:#307BC0;" d="M32,24.339C32,28.57,28.571,32,24.34,32H7.659C3.429,32,0,28.57,0,24.339V7.659
		C0,3.429,3.429,0,7.659,0H24.34C28.571,0,32,3.429,32,7.659V24.339z"/>
	<g>
		<path style="fill:#FFFFFF;stroke:#307BC0;stroke-width:0.5;stroke-miterlimit:10;" d="M27.835,10.415v11.17c0,1.11-0.9,2-2,2
			H6.165c-1.1,0-2-0.89-2-2v-11.17c0-0.45,0.15-0.87,0.41-1.21c0.37-0.48,0.94-0.79,1.59-0.79h19.67c0.51,0,0.98,0.2,1.33,0.52
			C27.575,9.295,27.835,9.825,27.835,10.415z"/>
		<path style="fill:#FFFFFF;stroke:#307BC0;stroke-width:0.5;stroke-miterlimit:10;" d="M4.705,22.956
			c0.09-0.391,0.3-0.761,0.63-1.07l9.02-8.53c0.93-0.88,2.43-0.88,3.37,0l9.02,8.53c0.25,0.24,0.43,0.51,0.55,0.8
			c-0.37,0.48-0.94,0.79-1.59,0.79H6.035C5.525,23.476,5.055,23.275,4.705,22.956z"/>
		<path style="fill:#FFFFFF;stroke:#307BC0;stroke-width:0.5;stroke-miterlimit:10;" d="M27.165,8.935
			c-0.09,0.391-0.3,0.761-0.63,1.07l-9.02,8.53c-0.93,0.88-2.43,0.88-3.37,0l-9.02-8.53c-0.25-0.24-0.43-0.51-0.55-0.8
			c0.37-0.48,0.94-0.79,1.59-0.79h19.67C26.345,8.415,26.815,8.615,27.165,8.935z"/>
	</g>
</g>
</svg>
