<?xml version="1.0" encoding="iso-8859-1"?>
<!-- Generator: Adobe Illustrator 16.0.0, SVG Export Plug-In . SVG Version: 6.00 Build 0)  -->
<!DOCTYPE svg PUBLIC "-//W3C//DTD SVG 1.1//EN" "http://www.w3.org/Graphics/SVG/1.1/DTD/svg11.dtd">
<svg version="1.1" id="&#x5716;&#x5C64;_1" xmlns="http://www.w3.org/2000/svg" xmlns:xlink="http://www.w3.org/1999/xlink" x="0px"
	 y="0px" width="32px" height="32px" viewBox="0 0 32 32" style="enable-background:new 0 0 32 32;" xml:space="preserve">
<g>
	<path style="fill:#2463AF;" d="M32,24.339C32,28.57,28.571,32,24.34,32H7.659C3.429,32,0,28.57,0,24.339V7.659
		C0,3.429,3.429,0,7.659,0H24.34C28.571,0,32,3.429,32,7.659V24.339z"/>
	<path style="fill:#FFFFFF;" d="M18.109,14.496c0,2.551,0,2.551,0,2.551h4.2l-0.748,4.362h-3.452V32h-4.66V21.409H9.69v-4.362h3.759
		v-4.281c0,0,0.45-6.381,8.86-4.507v3.759h-1.803C20.507,12.018,18.109,11.945,18.109,14.496z"/>
</g>
</svg>
