<?xml version="1.0" encoding="iso-8859-1"?>
<!-- Generator: Adobe Illustrator 16.0.0, SVG Export Plug-In . SVG Version: 6.00 Build 0)  -->
<!DOCTYPE svg PUBLIC "-//W3C//DTD SVG 1.1//EN" "http://www.w3.org/Graphics/SVG/1.1/DTD/svg11.dtd">
<svg version="1.1" id="&#x5716;&#x5C64;_1" xmlns="http://www.w3.org/2000/svg" xmlns:xlink="http://www.w3.org/1999/xlink" x="0px"
	 y="0px" width="32px" height="32px" viewBox="0 0 32 32" style="enable-background:new 0 0 32 32;" xml:space="preserve">
<g>
	<path style="fill:#DCDDDD;" d="M32,24.339C32,28.57,28.571,32,24.34,32H7.659C3.429,32,0,28.57,0,24.339V7.659
		C0,3.429,3.429,0,7.659,0H24.34C28.571,0,32,3.429,32,7.659V24.339z"/>
	<g>
		<path style="fill:#2C62AE;" d="M27.974,15.683c0,6.333-5.368,11.464-11.974,11.464c-1.383,0-2.702-0.227-3.94-0.637
			c-0.728,0.355-1.583,0.765-2.284,1.092C8.175,28.34,8.12,26.456,8.12,26.456v-2.148c-2.511-2.092-4.094-5.187-4.094-8.625
			C4.026,9.359,9.386,4.228,16,4.228C22.606,4.228,27.974,9.359,27.974,15.683z"/>
		<path style="fill:#FFFFFF;" d="M23.224,12.816c0,0.118-0.028,0.228-0.082,0.318l-0.118,0.182l-0.009,0.009l-3.658,5.523h-0.009
			c-0.236,0.428-0.691,0.709-1.21,0.709c-0.364,0-0.691-0.136-0.946-0.372h-0.009c0,0-2.038-1.557-2.594-2.175
			c-0.554-0.61-1.228-0.109-1.228-0.109l-3.339,2.784l-0.045,0.037c-0.128,0.117-0.292,0.181-0.474,0.181
			c-0.4,0-0.728-0.318-0.728-0.718c0-0.174,0.063-0.328,0.172-0.446L8.938,18.73l3.704-5.605h0.009
			c0.228-0.482,0.71-0.81,1.274-0.81c0.309,0,0.601,0.101,0.828,0.273c0.026,0.018,0.045,0.035,0.073,0.045
			c0.009,0.019,0.018,0.027,0.036,0.037c0.019,0.018,0.046,0.045,0.064,0.063c0.482,0.419,1.974,1.702,2.566,2.166
			c0.71,0.546,1.528-0.191,1.528-0.191l2.976-2.401l0.073-0.064c0.118-0.091,0.273-0.145,0.436-0.145
			C22.896,12.098,23.224,12.416,23.224,12.816z"/>
	</g>
</g>
</svg>
