<?xml version="1.0" encoding="iso-8859-1"?>
<!-- Generator: Adobe Illustrator 16.0.0, SVG Export Plug-In . SVG Version: 6.00 Build 0)  -->
<!DOCTYPE svg PUBLIC "-//W3C//DTD SVG 1.1//EN" "http://www.w3.org/Graphics/SVG/1.1/DTD/svg11.dtd">
<svg version="1.1" id="&#x5716;&#x5C64;_1" xmlns="http://www.w3.org/2000/svg" xmlns:xlink="http://www.w3.org/1999/xlink" x="0px"
	 y="0px" width="323.339px" height="50.076px" viewBox="0 0 323.339 50.076" style="enable-background:new 0 0 323.339 50.076;"
	 xml:space="preserve">
<g>
	<path style="fill:#E9C41D;" d="M303.339,0H20C8.953,0,0,8.955,0,20c0,11.047,8.953,20,20,20h3.084h11.631h131.953l9.036,10.076V40
		h127.635c11.045,0,20-8.953,20-20C323.339,8.955,314.384,0,303.339,0z"/>
	<g>
		<path style="fill:#FFFFFF;" d="M17.799,15.27h1.9v10.057h-1.9V15.27z"/>
		<path style="fill:#FFFFFF;" d="M22.573,15.146h1.866v2.742h1.107v1.605h-1.107v5.832h-1.866v-5.832h-0.957v-1.605h0.957V15.146z"
			/>
		<path style="fill:#FFFFFF;" d="M33.783,18.846h-1.723v-0.949c0-0.596,0.074-1.111,0.222-1.545
			c0.147-0.436,0.397-0.879,0.749-1.334l0.67,0.525c-0.169,0.246-0.293,0.459-0.373,0.637s-0.158,0.414-0.236,0.711h0.691V18.846z"
			/>
		<path style="fill:#FFFFFF;" d="M41.031,18.928l-1.155,1.154c-0.47-0.465-0.896-0.697-1.278-0.697
			c-0.209,0-0.373,0.045-0.492,0.135c-0.119,0.088-0.178,0.199-0.178,0.33c0,0.102,0.037,0.193,0.113,0.277
			c0.074,0.084,0.26,0.199,0.557,0.346l0.684,0.342c0.721,0.355,1.215,0.717,1.483,1.086s0.403,0.803,0.403,1.299
			c0,0.662-0.242,1.213-0.729,1.654c-0.484,0.443-1.135,0.664-1.951,0.664c-1.084,0-1.951-0.424-2.598-1.271l1.148-1.252
			c0.219,0.256,0.475,0.463,0.77,0.619c0.293,0.158,0.555,0.236,0.782,0.236c0.246,0,0.444-0.061,0.595-0.178
			c0.15-0.119,0.226-0.256,0.226-0.41c0-0.287-0.271-0.568-0.813-0.842l-0.629-0.314c-1.203-0.605-1.805-1.365-1.805-2.275
			c0-0.588,0.227-1.09,0.68-1.508c0.454-0.416,1.033-0.625,1.74-0.625c0.482,0,0.938,0.105,1.363,0.318
			C40.374,18.227,40.734,18.531,41.031,18.928z"/>
		<path style="fill:#FFFFFF;" d="M52.508,18.928l-1.155,1.154c-0.47-0.465-0.896-0.697-1.278-0.697
			c-0.209,0-0.373,0.045-0.492,0.135c-0.119,0.088-0.178,0.199-0.178,0.33c0,0.102,0.037,0.193,0.113,0.277
			c0.074,0.084,0.26,0.199,0.557,0.346l0.684,0.342c0.721,0.355,1.215,0.717,1.483,1.086s0.403,0.803,0.403,1.299
			c0,0.662-0.242,1.213-0.729,1.654c-0.484,0.443-1.135,0.664-1.951,0.664c-1.084,0-1.951-0.424-2.598-1.271l1.148-1.252
			c0.219,0.256,0.475,0.463,0.77,0.619c0.293,0.158,0.555,0.236,0.782,0.236c0.246,0,0.444-0.061,0.595-0.178
			c0.15-0.119,0.226-0.256,0.226-0.41c0-0.287-0.271-0.568-0.813-0.842l-0.629-0.314c-1.203-0.605-1.805-1.365-1.805-2.275
			c0-0.588,0.227-1.09,0.68-1.508c0.454-0.416,1.033-0.625,1.74-0.625c0.482,0,0.938,0.105,1.363,0.318
			C51.851,18.227,52.211,18.531,52.508,18.928z"/>
		<path style="fill:#FFFFFF;" d="M58.307,17.697c0.702,0,1.361,0.176,1.979,0.525c0.618,0.352,1.1,0.828,1.446,1.43
			c0.346,0.602,0.52,1.25,0.52,1.947c0,0.703-0.175,1.359-0.523,1.969c-0.349,0.611-0.824,1.088-1.426,1.434
			c-0.602,0.344-1.264,0.516-1.988,0.516c-1.066,0-1.977-0.379-2.731-1.139c-0.755-0.758-1.132-1.68-1.132-2.766
			c0-1.162,0.427-2.131,1.279-2.904C56.478,18.033,57.336,17.697,58.307,17.697z M58.338,19.453c-0.58,0-1.063,0.203-1.448,0.605
			c-0.386,0.404-0.579,0.92-0.579,1.549c0,0.646,0.191,1.17,0.572,1.572c0.381,0.4,0.863,0.602,1.448,0.602s1.07-0.203,1.458-0.609
			c0.389-0.404,0.582-0.928,0.582-1.564c0-0.639-0.189-1.156-0.571-1.555C59.418,19.652,58.932,19.453,58.338,19.453z"/>
		<path style="fill:#FFFFFF;" d="M76.373,19.393l-1.554,0.854c-0.292-0.305-0.581-0.518-0.866-0.635
			c-0.285-0.119-0.619-0.178-1.002-0.178c-0.698,0-1.264,0.207-1.693,0.625c-0.432,0.416-0.647,0.949-0.647,1.6
			c0,0.633,0.208,1.148,0.623,1.549s0.96,0.602,1.636,0.602c0.835,0,1.484-0.285,1.95-0.855l1.472,1.008
			c-0.797,1.037-1.924,1.557-3.377,1.557c-1.309,0-2.332-0.389-3.072-1.162c-0.741-0.775-1.111-1.682-1.111-2.721
			c0-0.721,0.18-1.383,0.54-1.99c0.36-0.605,0.862-1.082,1.507-1.428c0.646-0.348,1.367-0.52,2.164-0.52
			c0.738,0,1.401,0.146,1.989,0.441C75.519,18.432,76,18.85,76.373,19.393z"/>
		<path style="fill:#FFFFFF;" d="M82.248,17.697c0.701,0,1.361,0.176,1.979,0.525c0.618,0.352,1.1,0.828,1.446,1.43
			s0.52,1.25,0.52,1.947c0,0.703-0.175,1.359-0.522,1.969c-0.35,0.611-0.824,1.088-1.426,1.434
			c-0.602,0.344-1.265,0.516-1.989,0.516c-1.066,0-1.977-0.379-2.731-1.139c-0.754-0.758-1.131-1.68-1.131-2.766
			c0-1.162,0.426-2.131,1.278-2.904C80.418,18.033,81.277,17.697,82.248,17.697z M82.279,19.453c-0.58,0-1.063,0.203-1.449,0.605
			c-0.385,0.404-0.578,0.92-0.578,1.549c0,0.646,0.19,1.17,0.572,1.572c0.381,0.4,0.863,0.602,1.447,0.602
			c0.585,0,1.07-0.203,1.459-0.609c0.389-0.404,0.582-0.928,0.582-1.564c0-0.639-0.19-1.156-0.572-1.555
			C83.359,19.652,82.872,19.453,82.279,19.453z"/>
		<path style="fill:#FFFFFF;" d="M88.417,17.889h1.866v0.762c0.424-0.357,0.807-0.605,1.15-0.744
			c0.344-0.141,0.695-0.209,1.055-0.209c0.736,0,1.363,0.258,1.877,0.771c0.432,0.438,0.648,1.086,0.648,1.941v4.916h-1.846v-3.258
			c0-0.887-0.04-1.477-0.119-1.768c-0.08-0.291-0.219-0.514-0.416-0.666c-0.198-0.152-0.442-0.229-0.733-0.229
			c-0.378,0-0.701,0.125-0.972,0.379c-0.271,0.252-0.458,0.602-0.563,1.047c-0.055,0.232-0.082,0.736-0.082,1.51v2.984h-1.866
			V17.889z"/>
		<path style="fill:#FFFFFF;" d="M96.722,17.889h1.901l1.879,4.389l1.875-4.389h1.892l-3.165,7.438h-1.21L96.722,17.889z"/>
		<path style="fill:#FFFFFF;" d="M113.51,22.146h-5.994c0.086,0.529,0.317,0.949,0.693,1.262s0.855,0.469,1.439,0.469
			c0.697,0,1.296-0.244,1.797-0.732l1.572,0.738c-0.392,0.557-0.861,0.969-1.408,1.234c-0.547,0.268-1.195,0.4-1.947,0.4
			c-1.167,0-2.117-0.369-2.852-1.104c-0.733-0.736-1.1-1.658-1.1-2.766c0-1.135,0.365-2.078,1.097-2.826
			c0.731-0.75,1.648-1.125,2.751-1.125c1.172,0,2.124,0.375,2.857,1.125c0.734,0.748,1.102,1.738,1.102,2.969L113.51,22.146z
			 M111.645,20.678c-0.123-0.416-0.367-0.752-0.73-1.012c-0.362-0.26-0.783-0.391-1.263-0.391c-0.521,0-0.978,0.146-1.37,0.438
			c-0.246,0.184-0.475,0.504-0.684,0.965H111.645z"/>
		<path style="fill:#FFFFFF;" d="M115.721,17.889h1.866v0.762c0.423-0.357,0.807-0.605,1.15-0.744
			c0.343-0.141,0.694-0.209,1.054-0.209c0.738,0,1.363,0.258,1.878,0.771c0.433,0.438,0.648,1.086,0.648,1.941v4.916h-1.846v-3.258
			c0-0.887-0.04-1.477-0.12-1.768c-0.079-0.291-0.217-0.514-0.416-0.666c-0.197-0.152-0.441-0.229-0.732-0.229
			c-0.377,0-0.701,0.125-0.972,0.379c-0.271,0.252-0.458,0.602-0.563,1.047c-0.055,0.232-0.082,0.736-0.082,1.51v2.984h-1.866
			V17.889z"/>
		<path style="fill:#FFFFFF;" d="M125.551,14.826c0.326,0,0.607,0.117,0.842,0.355c0.233,0.236,0.351,0.523,0.351,0.861
			c0,0.332-0.116,0.615-0.348,0.852c-0.231,0.234-0.509,0.352-0.831,0.352c-0.332,0-0.615-0.119-0.85-0.359
			c-0.233-0.238-0.351-0.529-0.351-0.871c0-0.328,0.116-0.609,0.348-0.842S125.223,14.826,125.551,14.826z M124.617,17.889h1.866
			v7.438h-1.866V17.889z"/>
		<path style="fill:#FFFFFF;" d="M136.33,22.146h-5.995c0.087,0.529,0.317,0.949,0.694,1.262c0.375,0.313,0.855,0.469,1.438,0.469
			c0.697,0,1.296-0.244,1.798-0.732l1.572,0.738c-0.393,0.557-0.861,0.969-1.408,1.234c-0.547,0.268-1.196,0.4-1.948,0.4
			c-1.167,0-2.116-0.369-2.851-1.104c-0.734-0.736-1.101-1.658-1.101-2.766c0-1.135,0.366-2.078,1.097-2.826
			c0.732-0.75,1.648-1.125,2.752-1.125c1.172,0,2.123,0.375,2.857,1.125c0.734,0.748,1.101,1.738,1.101,2.969L136.33,22.146z
			 M134.464,20.678c-0.123-0.416-0.366-0.752-0.729-1.012s-0.783-0.391-1.264-0.391c-0.52,0-0.977,0.146-1.369,0.438
			c-0.246,0.184-0.475,0.504-0.685,0.965H134.464z"/>
		<path style="fill:#FFFFFF;" d="M138.541,17.889h1.865v0.762c0.424-0.357,0.807-0.605,1.15-0.744
			c0.344-0.141,0.695-0.209,1.055-0.209c0.737,0,1.363,0.258,1.877,0.771c0.433,0.438,0.648,1.086,0.648,1.941v4.916h-1.846v-3.258
			c0-0.887-0.039-1.477-0.119-1.768s-0.218-0.514-0.416-0.666c-0.197-0.152-0.441-0.229-0.732-0.229
			c-0.378,0-0.701,0.125-0.973,0.379c-0.27,0.252-0.457,0.602-0.563,1.047c-0.055,0.232-0.082,0.736-0.082,1.51v2.984h-1.865V17.889
			z"/>
		<path style="fill:#FFFFFF;" d="M147.867,15.146h1.867v2.742h1.107v1.605h-1.107v5.832h-1.867v-5.832h-0.957v-1.605h0.957V15.146z"
			/>
		<path style="fill:#FFFFFF;" d="M163.666,21.375l1.14,1.305l-0.519,0.471l-0.512,0.465l1.615,1.711h-2.32l-0.664-0.684
			c-1.057,0.623-2.039,0.936-2.946,0.936c-0.771,0-1.394-0.225-1.87-0.676c-0.476-0.451-0.714-1.031-0.714-1.736
			c0-0.533,0.135-1.037,0.405-1.512c0.27-0.473,0.731-0.963,1.386-1.469c-0.647-0.871-0.971-1.641-0.971-2.311
			c0-0.498,0.214-0.986,0.643-1.471c0.429-0.482,1.032-0.725,1.812-0.725c0.789,0,1.394,0.24,1.814,0.719
			c0.422,0.479,0.633,0.961,0.633,1.449c0,0.383-0.097,0.75-0.291,1.1c-0.193,0.352-0.639,0.871-1.336,1.559
			c0.816,0.963,1.343,1.561,1.58,1.799C162.696,22.195,163.068,21.885,163.666,21.375z M161.166,23.313
			c-0.352-0.346-0.848-0.92-1.487-1.719c-0.675,0.561-1.012,1.051-1.012,1.469c0,0.197,0.093,0.377,0.276,0.541
			c0.185,0.164,0.418,0.246,0.7,0.246C160.049,23.85,160.557,23.67,161.166,23.313z M160.027,19.16
			c0.506-0.434,0.759-0.816,0.759-1.148c0-0.174-0.058-0.314-0.171-0.424s-0.264-0.164-0.451-0.164c-0.174,0-0.32,0.061-0.441,0.184
			c-0.12,0.123-0.181,0.268-0.181,0.432C159.542,18.367,159.703,18.74,160.027,19.16z"/>
		<path style="fill:#FFFFFF;" d="M176.549,18.928l-1.156,1.154c-0.469-0.465-0.895-0.697-1.277-0.697
			c-0.21,0-0.374,0.045-0.492,0.135c-0.119,0.088-0.178,0.199-0.178,0.33c0,0.102,0.037,0.193,0.112,0.277s0.261,0.199,0.558,0.346
			l0.684,0.342c0.72,0.355,1.214,0.717,1.482,1.086c0.27,0.369,0.404,0.803,0.404,1.299c0,0.662-0.243,1.213-0.729,1.654
			c-0.485,0.443-1.136,0.664-1.951,0.664c-1.085,0-1.951-0.424-2.598-1.271l1.148-1.252c0.219,0.256,0.475,0.463,0.769,0.619
			c0.294,0.158,0.555,0.236,0.782,0.236c0.246,0,0.445-0.061,0.596-0.178c0.15-0.119,0.225-0.256,0.225-0.41
			c0-0.287-0.271-0.568-0.813-0.842l-0.629-0.314c-1.203-0.605-1.805-1.365-1.805-2.275c0-0.588,0.227-1.09,0.68-1.508
			c0.453-0.416,1.033-0.625,1.74-0.625c0.482,0,0.938,0.105,1.363,0.318C175.891,18.227,176.252,18.531,176.549,18.928z"/>
		<path style="fill:#FFFFFF;" d="M184.344,17.889h1.867v7.438h-1.867v-0.787c-0.363,0.348-0.729,0.596-1.096,0.75
			c-0.366,0.152-0.764,0.229-1.191,0.229c-0.961,0-1.791-0.373-2.492-1.117c-0.701-0.746-1.051-1.672-1.051-2.779
			c0-1.148,0.339-2.09,1.018-2.824c0.678-0.732,1.502-1.1,2.471-1.1c0.446,0,0.865,0.084,1.256,0.252
			c0.393,0.17,0.754,0.422,1.086,0.76V17.889z M182.383,19.42c-0.577,0-1.057,0.203-1.438,0.611
			c-0.382,0.408-0.572,0.932-0.572,1.568c0,0.643,0.193,1.172,0.582,1.586c0.389,0.416,0.866,0.623,1.434,0.623
			c0.586,0,1.072-0.205,1.459-0.611c0.385-0.408,0.578-0.943,0.578-1.604c0-0.648-0.193-1.172-0.578-1.572
			C183.461,19.619,182.973,19.42,182.383,19.42z"/>
		<path style="fill:#FFFFFF;" d="M187.908,17.889h0.663c0.005-0.977,0.021-1.553,0.048-1.73c0.051-0.41,0.223-0.734,0.516-0.973
			c0.295-0.24,0.711-0.359,1.248-0.359c0.387,0,0.824,0.088,1.313,0.266v1.422c-0.27-0.076-0.49-0.115-0.663-0.115
			c-0.219,0-0.378,0.045-0.479,0.137c-0.073,0.068-0.109,0.209-0.109,0.424l-0.007,0.93h1.183v1.578h-1.183v5.859h-1.866v-5.859
			h-0.663V17.889z"/>
		<path style="fill:#FFFFFF;" d="M200.865,22.146h-5.995c0.087,0.529,0.317,0.949,0.694,1.262c0.375,0.313,0.855,0.469,1.438,0.469
			c0.697,0,1.296-0.244,1.798-0.732l1.572,0.738c-0.393,0.557-0.861,0.969-1.408,1.234c-0.547,0.268-1.196,0.4-1.948,0.4
			c-1.167,0-2.116-0.369-2.851-1.104c-0.734-0.736-1.101-1.658-1.101-2.766c0-1.135,0.366-2.078,1.097-2.826
			c0.732-0.75,1.648-1.125,2.752-1.125c1.172,0,2.123,0.375,2.857,1.125c0.734,0.748,1.101,1.738,1.101,2.969L200.865,22.146z
			 M198.999,20.678c-0.123-0.416-0.366-0.752-0.729-1.012s-0.783-0.391-1.264-0.391c-0.52,0-0.977,0.146-1.369,0.438
			c-0.246,0.184-0.475,0.504-0.685,0.965H198.999z"/>
		<path style="fill:#FFFFFF;" d="M206.805,17.889h0.662c0.005-0.977,0.021-1.553,0.049-1.73c0.05-0.41,0.222-0.734,0.516-0.973
			c0.294-0.24,0.71-0.359,1.248-0.359c0.387,0,0.824,0.088,1.313,0.266v1.422c-0.27-0.076-0.49-0.115-0.664-0.115
			c-0.219,0-0.378,0.045-0.479,0.137c-0.072,0.068-0.109,0.209-0.109,0.424l-0.006,0.93h1.182v1.578h-1.182v5.859h-1.867v-5.859
			h-0.662V17.889z"/>
		<path style="fill:#FFFFFF;" d="M215.803,17.697c0.702,0,1.361,0.176,1.979,0.525c0.618,0.352,1.1,0.828,1.446,1.43
			c0.346,0.602,0.52,1.25,0.52,1.947c0,0.703-0.175,1.359-0.523,1.969c-0.349,0.611-0.824,1.088-1.426,1.434
			c-0.602,0.344-1.264,0.516-1.988,0.516c-1.066,0-1.977-0.379-2.731-1.139c-0.755-0.758-1.132-1.68-1.132-2.766
			c0-1.162,0.427-2.131,1.279-2.904C213.974,18.033,214.832,17.697,215.803,17.697z M215.834,19.453
			c-0.58,0-1.063,0.203-1.448,0.605c-0.386,0.404-0.579,0.92-0.579,1.549c0,0.646,0.191,1.17,0.572,1.572
			c0.381,0.4,0.863,0.602,1.448,0.602s1.07-0.203,1.458-0.609c0.389-0.404,0.582-0.928,0.582-1.564c0-0.639-0.189-1.156-0.571-1.555
			C216.914,19.652,216.428,19.453,215.834,19.453z"/>
		<path style="fill:#FFFFFF;" d="M221.534,17.889h1.6v0.936c0.173-0.369,0.403-0.648,0.69-0.84s0.602-0.287,0.943-0.287
			c0.242,0,0.494,0.063,0.759,0.191l-0.581,1.605c-0.219-0.109-0.398-0.164-0.54-0.164c-0.287,0-0.53,0.178-0.728,0.533
			c-0.199,0.355-0.298,1.053-0.298,2.092l0.007,0.363v3.008h-1.853V17.889z"/>
		<path style="fill:#FFFFFF;" d="M235.26,17.697c0.701,0,1.361,0.176,1.979,0.525c0.618,0.352,1.1,0.828,1.446,1.43
			s0.52,1.25,0.52,1.947c0,0.703-0.175,1.359-0.522,1.969c-0.35,0.611-0.824,1.088-1.426,1.434
			c-0.602,0.344-1.265,0.516-1.989,0.516c-1.066,0-1.977-0.379-2.731-1.139c-0.754-0.758-1.131-1.68-1.131-2.766
			c0-1.162,0.426-2.131,1.278-2.904C233.43,18.033,234.289,17.697,235.26,17.697z M235.291,19.453c-0.58,0-1.063,0.203-1.449,0.605
			c-0.385,0.404-0.578,0.92-0.578,1.549c0,0.646,0.19,1.17,0.572,1.572c0.381,0.4,0.863,0.602,1.447,0.602
			c0.585,0,1.07-0.203,1.459-0.609c0.389-0.404,0.582-0.928,0.582-1.564c0-0.639-0.19-1.156-0.572-1.555
			C236.371,19.652,235.884,19.453,235.291,19.453z"/>
		<path style="fill:#FFFFFF;" d="M241.422,17.889h1.887v3.582c0,0.697,0.047,1.182,0.144,1.453c0.096,0.27,0.25,0.48,0.462,0.631
			c0.213,0.15,0.475,0.227,0.785,0.227s0.574-0.074,0.791-0.223s0.379-0.365,0.483-0.652c0.077-0.215,0.116-0.672,0.116-1.375
			v-3.643h1.867v3.15c0,1.299-0.104,2.188-0.309,2.666c-0.25,0.584-0.619,1.031-1.107,1.344c-0.487,0.313-1.107,0.469-1.859,0.469
			c-0.815,0-1.475-0.184-1.979-0.547c-0.504-0.365-0.857-0.873-1.063-1.525c-0.146-0.451-0.219-1.271-0.219-2.461V17.889z"/>
		<path style="fill:#FFFFFF;" d="M250.092,17.889h1.6v0.936c0.174-0.369,0.404-0.648,0.691-0.84s0.602-0.287,0.943-0.287
			c0.241,0,0.494,0.063,0.758,0.191l-0.58,1.605c-0.219-0.109-0.399-0.164-0.541-0.164c-0.287,0-0.529,0.178-0.728,0.533
			s-0.298,1.053-0.298,2.092l0.008,0.363v3.008h-1.854V17.889z"/>
		<path style="fill:#FFFFFF;" d="M259.436,17.889h0.663c0.005-0.977,0.021-1.553,0.048-1.73c0.051-0.41,0.223-0.734,0.516-0.973
			c0.295-0.24,0.711-0.359,1.248-0.359c0.387,0,0.824,0.088,1.313,0.266v1.422c-0.27-0.076-0.49-0.115-0.663-0.115
			c-0.219,0-0.378,0.045-0.479,0.137c-0.073,0.068-0.109,0.209-0.109,0.424l-0.007,0.93h1.183v1.578h-1.183v5.859h-1.866v-5.859
			h-0.663V17.889z"/>
		<path style="fill:#FFFFFF;" d="M270.431,17.889h1.866v7.438h-1.866v-0.787c-0.364,0.348-0.729,0.596-1.096,0.75
			c-0.366,0.152-0.764,0.229-1.192,0.229c-0.96,0-1.791-0.373-2.492-1.117c-0.7-0.746-1.051-1.672-1.051-2.779
			c0-1.148,0.34-2.09,1.018-2.824c0.678-0.732,1.502-1.1,2.472-1.1c0.446,0,0.864,0.084,1.256,0.252
			c0.392,0.17,0.753,0.422,1.086,0.76V17.889z M268.469,19.42c-0.576,0-1.057,0.203-1.438,0.611s-0.572,0.932-0.572,1.568
			c0,0.643,0.193,1.172,0.582,1.586c0.389,0.416,0.867,0.623,1.435,0.623c0.586,0,1.071-0.205,1.458-0.611
			c0.386-0.408,0.579-0.943,0.579-1.604c0-0.648-0.193-1.172-0.579-1.572C269.547,19.619,269.059,19.42,268.469,19.42z"/>
		<path style="fill:#FFFFFF;" d="M274.869,17.889h1.867v0.854c0.318-0.35,0.674-0.613,1.063-0.785c0.39-0.174,0.815-0.26,1.276-0.26
			c0.465,0,0.884,0.113,1.258,0.342c0.374,0.227,0.676,0.561,0.903,0.998c0.296-0.438,0.659-0.771,1.091-0.998
			c0.432-0.229,0.902-0.342,1.412-0.342c0.529,0,0.994,0.123,1.396,0.369c0.4,0.246,0.689,0.566,0.865,0.963
			s0.264,1.041,0.264,1.936v4.361h-1.881v-3.773c0-0.844-0.104-1.414-0.314-1.713c-0.209-0.299-0.523-0.447-0.943-0.447
			c-0.318,0-0.604,0.09-0.857,0.273c-0.253,0.182-0.441,0.434-0.564,0.756c-0.123,0.32-0.184,0.836-0.184,1.547v3.357h-1.881v-3.604
			c0-0.664-0.049-1.146-0.146-1.445c-0.099-0.299-0.246-0.521-0.442-0.666c-0.196-0.146-0.435-0.219-0.712-0.219
			c-0.311,0-0.594,0.092-0.848,0.277c-0.253,0.184-0.442,0.441-0.568,0.775c-0.125,0.332-0.188,0.855-0.188,1.572v3.309h-1.867
			V17.889z"/>
		<path style="fill:#FFFFFF;" d="M289.471,14.826c0.327,0,0.607,0.117,0.842,0.355c0.234,0.236,0.352,0.523,0.352,0.861
			c0,0.332-0.116,0.615-0.348,0.852c-0.232,0.234-0.51,0.352-0.832,0.352c-0.332,0-0.615-0.119-0.849-0.359
			c-0.233-0.238-0.351-0.529-0.351-0.871c0-0.328,0.115-0.609,0.348-0.842C288.863,14.941,289.144,14.826,289.471,14.826z
			 M288.537,17.889h1.867v7.438h-1.867V17.889z"/>
		<path style="fill:#FFFFFF;" d="M292.594,15.018h1.866v10.309h-1.866V15.018z"/>
		<path style="fill:#FFFFFF;" d="M296.03,17.889h1.907l1.932,4.666l2.132-4.666h1.913l-4.658,10.158h-1.928l1.529-3.275
			L296.03,17.889z"/>
		<path style="fill:#FFFFFF;" d="M306.695,23.377c0.297,0,0.549,0.104,0.759,0.313c0.21,0.207,0.314,0.459,0.314,0.754
			c0,0.297-0.104,0.549-0.314,0.76c-0.21,0.209-0.462,0.314-0.759,0.314s-0.549-0.105-0.759-0.314
			c-0.21-0.211-0.314-0.463-0.314-0.76c0-0.295,0.104-0.547,0.314-0.754C306.146,23.48,306.398,23.377,306.695,23.377z"/>
	</g>
</g>
</svg>
