<?xml version="1.0" encoding="iso-8859-1"?>
<!-- Generator: Adobe Illustrator 16.0.0, SVG Export Plug-In . SVG Version: 6.00 Build 0)  -->
<!DOCTYPE svg PUBLIC "-//W3C//DTD SVG 1.1//EN" "http://www.w3.org/Graphics/SVG/1.1/DTD/svg11.dtd">
<svg version="1.1" id="&#x5716;&#x5C64;_1" xmlns="http://www.w3.org/2000/svg" xmlns:xlink="http://www.w3.org/1999/xlink" x="0px"
	 y="0px" width="458.11px" height="43px" viewBox="0 0 458.11 43" style="enable-background:new 0 0 458.11 43;"
	 xml:space="preserve">
<g>
	<rect x="0.5" y="0.5" style="fill:#FFFFFF;stroke:#EFEFEF;stroke-miterlimit:10;" width="457.11" height="42"/>
	<path style="fill:#2C50A2;stroke:#00A0E9;stroke-width:0.25;stroke-miterlimit:10;" d="M24.396,11.605
		c-4.026,0-7.28,2.955-7.28,6.596c0,0.58,0.079,1.143,0.24,1.674h-0.007c0.611,3.465,7.047,10.852,7.047,10.852
		s6.429-7.387,7.04-10.852c0.16-0.531,0.24-1.094,0.24-1.674C31.676,14.561,28.414,11.605,24.396,11.605z M27.03,18.828
		c-0.306,1.063-1.369,1.846-2.635,1.846c-1.268,0-2.33-0.783-2.635-1.846c-0.066-0.197-0.096-0.408-0.096-0.627
		c0-1.365,1.223-2.475,2.73-2.475c1.507,0,2.73,1.109,2.73,2.475C27.126,18.42,27.097,18.631,27.03,18.828z"/>
</g>
<g>
	<path style="fill:#9FA0A0;" d="M42.802,16.127h6.586v1.125H43.95v3.602h5.391v1.125H43.95v4.516h5.391v1.125h-6.539V16.127z"/>
	<path style="fill:#9FA0A0;" d="M51.192,19.119h1.094v1.523c0.438-0.584,0.922-1.02,1.453-1.309s1.109-0.434,1.734-0.434
		c0.636,0,1.199,0.16,1.691,0.484c0.492,0.322,0.855,0.758,1.09,1.305s0.352,1.398,0.352,2.555v4.375h-1.094v-4.055
		c0-0.98-0.041-1.633-0.122-1.961c-0.126-0.563-0.369-0.986-0.729-1.27c-0.359-0.285-0.829-0.426-1.407-0.426
		c-0.661,0-1.254,0.219-1.777,0.656s-0.868,0.979-1.035,1.625c-0.104,0.422-0.156,1.191-0.156,2.313v3.117h-1.094V19.119z"/>
	<path style="fill:#9FA0A0;" d="M61.903,15.963h1.094v3.156h1.734v0.945h-1.734v7.555h-1.094v-7.555h-1.492v-0.945h1.492V15.963z"/>
	<path style="fill:#9FA0A0;" d="M73.528,24.799l0.922,0.484c-0.303,0.594-0.651,1.072-1.048,1.438
		c-0.396,0.363-0.842,0.641-1.337,0.832c-0.496,0.189-1.056,0.285-1.682,0.285c-1.387,0-2.471-0.455-3.253-1.363
		c-0.782-0.91-1.173-1.938-1.173-3.082c0-1.078,0.331-2.039,0.993-2.883c0.839-1.074,1.963-1.609,3.37-1.609
		c1.449,0,2.606,0.549,3.472,1.648c0.615,0.775,0.928,1.744,0.938,2.906h-7.648c0.021,0.986,0.336,1.797,0.946,2.428
		s1.364,0.947,2.261,0.947c0.433,0,0.854-0.076,1.264-0.227c0.409-0.15,0.757-0.35,1.044-0.6
		C72.884,25.756,73.194,25.354,73.528,24.799z M73.528,22.51c-0.146-0.584-0.358-1.051-0.638-1.398
		c-0.279-0.35-0.647-0.631-1.106-0.844c-0.459-0.215-0.941-0.32-1.447-0.32c-0.834,0-1.552,0.268-2.151,0.805
		c-0.438,0.391-0.769,0.977-0.993,1.758H73.528z"/>
	<path style="fill:#9FA0A0;" d="M76.356,19.119h1.117v1.242c0.333-0.49,0.685-0.855,1.055-1.098s0.755-0.363,1.156-0.363
		c0.302,0,0.625,0.096,0.969,0.289l-0.57,0.922c-0.229-0.1-0.422-0.148-0.578-0.148c-0.364,0-0.716,0.148-1.055,0.449
		c-0.339,0.299-0.597,0.764-0.773,1.395c-0.136,0.484-0.203,1.463-0.203,2.938v2.875h-1.117V19.119z"/>
	<path style="fill:#9FA0A0;" d="M94.497,15.838v11.781h-1.078v-1.461c-0.458,0.557-0.973,0.977-1.543,1.258
		s-1.194,0.422-1.871,0.422c-1.203,0-2.23-0.438-3.082-1.309c-0.852-0.873-1.277-1.934-1.277-3.184c0-1.225,0.43-2.271,1.289-3.141
		c0.859-0.871,1.894-1.305,3.102-1.305c0.698,0,1.329,0.148,1.895,0.445s1.062,0.742,1.488,1.336v-4.844H94.497z M90.126,19.955
		c-0.608,0-1.171,0.148-1.686,0.447c-0.516,0.301-0.925,0.721-1.229,1.262c-0.304,0.541-0.456,1.113-0.456,1.717
		c0,0.598,0.153,1.17,0.46,1.717c0.308,0.545,0.72,0.971,1.237,1.275s1.073,0.457,1.666,0.457c0.599,0,1.165-0.152,1.701-0.453
		c0.536-0.303,0.948-0.711,1.236-1.225c0.289-0.516,0.434-1.096,0.434-1.74c0-0.984-0.324-1.807-0.972-2.467
		S91.073,19.955,90.126,19.955z"/>
	<path style="fill:#9FA0A0;" d="M104.13,24.799l0.922,0.484c-0.303,0.594-0.651,1.072-1.048,1.438
		c-0.396,0.363-0.842,0.641-1.337,0.832c-0.496,0.189-1.056,0.285-1.682,0.285c-1.387,0-2.471-0.455-3.253-1.363
		c-0.782-0.91-1.173-1.938-1.173-3.082c0-1.078,0.331-2.039,0.993-2.883c0.839-1.074,1.963-1.609,3.37-1.609
		c1.449,0,2.606,0.549,3.472,1.648c0.615,0.775,0.928,1.744,0.938,2.906h-7.648c0.021,0.986,0.336,1.797,0.946,2.428
		s1.364,0.947,2.261,0.947c0.433,0,0.854-0.076,1.264-0.227c0.409-0.15,0.757-0.35,1.044-0.6
		C103.485,25.756,103.796,25.354,104.13,24.799z M104.13,22.51c-0.146-0.584-0.358-1.051-0.638-1.398
		c-0.279-0.35-0.647-0.631-1.106-0.844c-0.459-0.215-0.941-0.32-1.447-0.32c-0.834,0-1.552,0.268-2.151,0.805
		c-0.438,0.391-0.769,0.977-0.993,1.758H104.13z"/>
	<path style="fill:#9FA0A0;" d="M107.208,15.838h1.094v11.781h-1.094V15.838z"/>
	<path style="fill:#9FA0A0;" d="M110.954,15.619c0.249,0,0.462,0.088,0.638,0.266c0.177,0.176,0.265,0.391,0.265,0.641
		c0,0.244-0.088,0.455-0.265,0.633c-0.176,0.176-0.389,0.266-0.638,0.266c-0.244,0-0.454-0.09-0.63-0.266
		c-0.177-0.178-0.265-0.389-0.265-0.633c0-0.25,0.088-0.465,0.265-0.641C110.5,15.707,110.71,15.619,110.954,15.619z
		 M110.411,19.119h1.094v8.5h-1.094V19.119z"/>
	<path style="fill:#9FA0A0;" d="M112.974,19.119h1.164l2.854,6.195l2.818-6.195h1.172l-3.891,8.5h-0.203L112.974,19.119z"/>
	<path style="fill:#9FA0A0;" d="M129.802,24.799l0.922,0.484c-0.303,0.594-0.651,1.072-1.048,1.438
		c-0.396,0.363-0.842,0.641-1.337,0.832c-0.496,0.189-1.056,0.285-1.682,0.285c-1.387,0-2.471-0.455-3.253-1.363
		c-0.782-0.91-1.173-1.938-1.173-3.082c0-1.078,0.331-2.039,0.993-2.883c0.839-1.074,1.963-1.609,3.37-1.609
		c1.449,0,2.606,0.549,3.472,1.648c0.615,0.775,0.928,1.744,0.938,2.906h-7.648c0.021,0.986,0.336,1.797,0.946,2.428
		s1.364,0.947,2.261,0.947c0.433,0,0.854-0.076,1.264-0.227c0.409-0.15,0.757-0.35,1.044-0.6
		C129.157,25.756,129.468,25.354,129.802,24.799z M129.802,22.51c-0.146-0.584-0.358-1.051-0.638-1.398
		c-0.279-0.35-0.647-0.631-1.106-0.844c-0.459-0.215-0.941-0.32-1.447-0.32c-0.834,0-1.552,0.268-2.151,0.805
		c-0.438,0.391-0.769,0.977-0.993,1.758H129.802z"/>
	<path style="fill:#9FA0A0;" d="M132.63,19.119h1.117v1.242c0.333-0.49,0.685-0.855,1.055-1.098s0.755-0.363,1.156-0.363
		c0.302,0,0.625,0.096,0.969,0.289l-0.57,0.922c-0.229-0.1-0.422-0.148-0.578-0.148c-0.364,0-0.716,0.148-1.055,0.449
		c-0.339,0.299-0.597,0.764-0.773,1.395c-0.136,0.484-0.203,1.463-0.203,2.938v2.875h-1.117V19.119z"/>
	<path style="fill:#9FA0A0;" d="M136.942,19.119h1.156l2.921,6.545l2.837-6.545h1.164l-5.07,11.609h-1.155l1.637-3.754
		L136.942,19.119z"/>
	<path style="fill:#9FA0A0;" d="M159.333,19.119v8.5h-1.078v-1.461c-0.458,0.557-0.973,0.977-1.543,1.258s-1.194,0.422-1.871,0.422
		c-1.203,0-2.23-0.438-3.082-1.309c-0.852-0.873-1.277-1.934-1.277-3.184c0-1.225,0.43-2.271,1.289-3.141
		c0.859-0.871,1.894-1.305,3.102-1.305c0.698,0,1.329,0.148,1.895,0.445s1.062,0.742,1.488,1.336v-1.563H159.333z M154.962,19.955
		c-0.608,0-1.171,0.148-1.686,0.447c-0.516,0.301-0.925,0.721-1.229,1.262c-0.304,0.541-0.456,1.113-0.456,1.717
		c0,0.598,0.153,1.17,0.46,1.717c0.308,0.545,0.72,0.971,1.237,1.275s1.073,0.457,1.666,0.457c0.599,0,1.165-0.152,1.701-0.453
		c0.536-0.303,0.948-0.711,1.236-1.225c0.289-0.516,0.434-1.096,0.434-1.74c0-0.984-0.324-1.807-0.972-2.467
		S155.909,19.955,154.962,19.955z"/>
	<path style="fill:#9FA0A0;" d="M170.278,15.838v11.781H169.2v-1.461c-0.458,0.557-0.973,0.977-1.543,1.258
		s-1.194,0.422-1.871,0.422c-1.203,0-2.23-0.438-3.082-1.309c-0.852-0.873-1.277-1.934-1.277-3.184c0-1.225,0.43-2.271,1.289-3.141
		c0.859-0.871,1.894-1.305,3.102-1.305c0.698,0,1.329,0.148,1.895,0.445s1.062,0.742,1.488,1.336v-4.844H170.278z M165.907,19.955
		c-0.608,0-1.171,0.148-1.686,0.447c-0.516,0.301-0.925,0.721-1.229,1.262c-0.304,0.541-0.456,1.113-0.456,1.717
		c0,0.598,0.153,1.17,0.46,1.717c0.308,0.545,0.72,0.971,1.237,1.275s1.073,0.457,1.666,0.457c0.599,0,1.165-0.152,1.701-0.453
		c0.536-0.303,0.948-0.711,1.236-1.225c0.289-0.516,0.434-1.096,0.434-1.74c0-0.984-0.324-1.807-0.972-2.467
		S166.854,19.955,165.907,19.955z"/>
	<path style="fill:#9FA0A0;" d="M181.239,15.838v11.781h-1.078v-1.461c-0.458,0.557-0.973,0.977-1.543,1.258
		s-1.194,0.422-1.871,0.422c-1.203,0-2.23-0.438-3.082-1.309c-0.852-0.873-1.277-1.934-1.277-3.184c0-1.225,0.43-2.271,1.289-3.141
		c0.859-0.871,1.894-1.305,3.102-1.305c0.698,0,1.329,0.148,1.895,0.445s1.062,0.742,1.488,1.336v-4.844H181.239z M176.868,19.955
		c-0.608,0-1.171,0.148-1.686,0.447c-0.516,0.301-0.925,0.721-1.229,1.262c-0.304,0.541-0.456,1.113-0.456,1.717
		c0,0.598,0.153,1.17,0.46,1.717c0.308,0.545,0.72,0.971,1.237,1.275s1.073,0.457,1.666,0.457c0.599,0,1.165-0.152,1.701-0.453
		c0.536-0.303,0.948-0.711,1.236-1.225c0.289-0.516,0.434-1.096,0.434-1.74c0-0.984-0.324-1.807-0.972-2.467
		S177.815,19.955,176.868,19.955z"/>
	<path style="fill:#9FA0A0;" d="M183.302,19.119h1.117v1.242c0.333-0.49,0.685-0.855,1.055-1.098s0.755-0.363,1.156-0.363
		c0.302,0,0.625,0.096,0.969,0.289l-0.57,0.922c-0.229-0.1-0.422-0.148-0.578-0.148c-0.364,0-0.716,0.148-1.055,0.449
		c-0.339,0.299-0.597,0.764-0.773,1.395c-0.136,0.484-0.203,1.463-0.203,2.938v2.875h-1.117V19.119z"/>
	<path style="fill:#9FA0A0;" d="M195.685,24.799l0.922,0.484c-0.303,0.594-0.651,1.072-1.048,1.438
		c-0.396,0.363-0.842,0.641-1.337,0.832c-0.496,0.189-1.056,0.285-1.682,0.285c-1.387,0-2.471-0.455-3.253-1.363
		c-0.782-0.91-1.173-1.938-1.173-3.082c0-1.078,0.331-2.039,0.993-2.883c0.839-1.074,1.963-1.609,3.37-1.609
		c1.449,0,2.606,0.549,3.472,1.648c0.615,0.775,0.928,1.744,0.938,2.906h-7.648c0.021,0.986,0.336,1.797,0.946,2.428
		s1.364,0.947,2.261,0.947c0.433,0,0.854-0.076,1.264-0.227c0.409-0.15,0.757-0.35,1.044-0.6
		C195.04,25.756,195.351,25.354,195.685,24.799z M195.685,22.51c-0.146-0.584-0.358-1.051-0.638-1.398
		c-0.279-0.35-0.647-0.631-1.106-0.844c-0.459-0.215-0.941-0.32-1.447-0.32c-0.834,0-1.552,0.268-2.151,0.805
		c-0.438,0.391-0.769,0.977-0.993,1.758H195.685z"/>
	<path style="fill:#9FA0A0;" d="M203.2,20.049l-0.703,0.727c-0.585-0.568-1.156-0.852-1.715-0.852c-0.355,0-0.66,0.117-0.913,0.352
		s-0.38,0.508-0.38,0.82c0,0.275,0.104,0.539,0.313,0.789c0.208,0.254,0.646,0.555,1.315,0.898c0.813,0.422,1.367,0.828,1.659,1.219
		c0.287,0.395,0.431,0.84,0.431,1.336c0,0.697-0.245,1.289-0.735,1.773s-1.104,0.727-1.839,0.727c-0.49,0-0.959-0.107-1.404-0.32
		c-0.446-0.215-0.815-0.508-1.107-0.883l0.688-0.781c0.559,0.629,1.151,0.945,1.777,0.945c0.438,0,0.812-0.141,1.12-0.422
		c0.308-0.281,0.462-0.613,0.462-0.992c0-0.313-0.102-0.592-0.306-0.836c-0.203-0.24-0.663-0.543-1.378-0.906
		c-0.767-0.396-1.289-0.787-1.565-1.172c-0.276-0.387-0.415-0.826-0.415-1.32c0-0.646,0.221-1.184,0.661-1.609
		c0.44-0.428,0.998-0.641,1.671-0.641C201.619,18.9,202.407,19.283,203.2,20.049z"/>
	<path style="fill:#9FA0A0;" d="M209.411,20.049l-0.703,0.727c-0.585-0.568-1.156-0.852-1.715-0.852
		c-0.355,0-0.66,0.117-0.913,0.352s-0.38,0.508-0.38,0.82c0,0.275,0.104,0.539,0.313,0.789c0.208,0.254,0.646,0.555,1.315,0.898
		c0.813,0.422,1.367,0.828,1.659,1.219c0.287,0.395,0.431,0.84,0.431,1.336c0,0.697-0.245,1.289-0.735,1.773
		s-1.104,0.727-1.839,0.727c-0.49,0-0.959-0.107-1.404-0.32c-0.446-0.215-0.815-0.508-1.107-0.883l0.688-0.781
		c0.559,0.629,1.151,0.945,1.777,0.945c0.438,0,0.812-0.141,1.12-0.422c0.308-0.281,0.462-0.613,0.462-0.992
		c0-0.313-0.102-0.592-0.306-0.836c-0.203-0.24-0.663-0.543-1.378-0.906c-0.767-0.396-1.289-0.787-1.565-1.172
		c-0.276-0.387-0.415-0.826-0.415-1.32c0-0.646,0.221-1.184,0.661-1.609c0.44-0.428,0.998-0.641,1.671-0.641
		C207.83,18.9,208.618,19.283,209.411,20.049z"/>
</g>
</svg>
