<?xml version="1.0" encoding="iso-8859-1"?>
<!-- Generator: Adobe Illustrator 16.0.0, SVG Export Plug-In . SVG Version: 6.00 Build 0)  -->
<!DOCTYPE svg PUBLIC "-//W3C//DTD SVG 1.1//EN" "http://www.w3.org/Graphics/SVG/1.1/DTD/svg11.dtd">
<svg version="1.1" id="&#x5716;&#x5C64;_1" xmlns="http://www.w3.org/2000/svg" xmlns:xlink="http://www.w3.org/1999/xlink" x="0px"
	 y="0px" width="14.811px" height="19.438px" viewBox="0 0 14.811 19.438" style="enable-background:new 0 0 14.811 19.438;"
	 xml:space="preserve">
<g>
	<path style="fill:#2C50A2;stroke:#00A0E9;stroke-width:0.25;stroke-miterlimit:10;" d="M7.405,0.125
		c-4.026,0-7.28,2.955-7.28,6.596c0,0.58,0.079,1.143,0.24,1.674H0.358c0.611,3.465,7.047,10.852,7.047,10.852
		s6.429-7.387,7.04-10.852c0.16-0.531,0.24-1.094,0.24-1.674C14.686,3.08,11.424,0.125,7.405,0.125z M10.04,7.348
		C9.734,8.41,8.671,9.193,7.405,9.193c-1.268,0-2.33-0.783-2.635-1.846C4.704,7.15,4.675,6.939,4.675,6.721
		c0-1.365,1.223-2.475,2.73-2.475c1.507,0,2.73,1.109,2.73,2.475C10.136,6.939,10.106,7.15,10.04,7.348z"/>
</g>
</svg>
