<?xml version="1.0" encoding="iso-8859-1"?>
<!-- Generator: Adobe Illustrator 16.0.0, SVG Export Plug-In . SVG Version: 6.00 Build 0)  -->
<!DOCTYPE svg PUBLIC "-//W3C//DTD SVG 1.1//EN" "http://www.w3.org/Graphics/SVG/1.1/DTD/svg11.dtd">
<svg version="1.1" id="&#x5716;&#x5C64;_1" xmlns="http://www.w3.org/2000/svg" xmlns:xlink="http://www.w3.org/1999/xlink" x="0px"
	 y="0px" width="87.815px" height="48.832px" viewBox="0 0 87.815 48.832" style="enable-background:new 0 0 87.815 48.832;"
	 xml:space="preserve">
<g>
	<g>
		<g style="enable-background:new    ;">
			<defs>
				<polygon id="SVGID_1_" style="enable-background:new    ;" points="0,48.832 0,12.742 21.439,0 21.439,36.089 				"/>
			</defs>
			<clipPath id="SVGID_2_">
				<use xlink:href="#SVGID_1_"  style="overflow:visible;"/>
			</clipPath>
			<g style="clip-path:url(#SVGID_2_);">
				<polyline style="fill:#2C50A2;" points="21.439,0 0.004,12.74 0.004,38.227 14.291,29.734 14.291,23.353 7.148,27.599 
					7.148,27.594 7.148,25.484 7.148,16.99 21.439,8.497 21.439,0 				"/>
				<polyline style="fill:#E9C41D;" points="21.439,10.603 7.148,19.098 7.148,25.484 7.148,27.594 7.148,25.484 14.291,21.238 
					14.291,23.353 14.291,31.841 0,40.335 0,48.832 21.439,36.089 21.439,10.603 				"/>
				<polyline style="fill:#F08719;" points="14.291,21.238 7.148,25.484 7.148,27.594 7.148,27.599 14.291,23.353 14.291,21.238 
									"/>
			</g>
		</g>
	</g>
	<g>
		<g>
			<polygon style="fill:#3E3A39;" points="59.645,10.062 59.645,13.125 59.645,16.187 59.645,19.249 59.645,22.311 62.706,22.311 
				62.706,19.249 62.706,16.187 62.706,13.125 62.706,10.062 			"/>
			<polygon style="fill:#3E3A39;" points="74.955,10.062 71.893,10.062 68.831,10.062 68.831,13.125 68.831,16.187 68.831,19.249 
				68.831,22.311 71.893,22.311 74.955,22.311 78.018,22.311 78.018,19.249 74.955,19.249 71.893,19.249 71.893,16.952 
				74.955,16.952 78.018,16.952 78.018,15.421 74.955,15.421 71.893,15.421 71.893,13.125 74.955,13.125 78.018,13.125 
				78.018,11.593 78.018,10.062 			"/>
			<polygon style="fill:#3E3A39;" points="40.003,19.249 36.941,19.249 36.941,16.187 36.941,13.125 36.941,10.062 33.879,10.062 
				33.879,13.125 33.879,16.187 33.879,19.249 33.879,22.311 36.941,22.311 40.003,22.311 43.065,22.311 43.065,19.249 			"/>
			<path style="fill:#2C50A2;" d="M51.945,10.724c-1.071,0.533-1.959,1.378-2.554,2.413c1.127,0.067,2.082,0.748,2.554,1.715
				c0.472-0.967,1.427-1.647,2.554-1.715C53.905,12.102,53.018,11.256,51.945,10.724z"/>
			<path style="fill:#2C50A2;" d="M55.314,16.187c0,1.108-0.295,2.149-0.815,3.05c-0.594,1.035-1.481,1.88-2.554,2.419
				c-0.826,0.417-1.764,0.655-2.756,0.655c-3.38,0-6.124-2.744-6.124-6.124s2.744-6.125,6.124-6.125c0.992,0,1.93,0.239,2.756,0.662
				c-1.071,0.533-1.959,1.378-2.554,2.413c-0.067-0.012-0.135-0.012-0.202-0.012c-1.689,0-3.063,1.372-3.063,3.062
				c0,1.69,1.373,3.062,3.063,3.062c0.067,0,0.135,0,0.202-0.012c1.127-0.067,2.082-0.747,2.554-1.715
				c0.197-0.404,0.307-0.857,0.307-1.335c0-0.478-0.109-0.931-0.307-1.335c0.472-0.967,1.427-1.647,2.554-1.715
				C55.02,14.037,55.314,15.078,55.314,16.187z"/>
			<polygon style="fill:#898989;" points="68.831,22.311 68.831,10.062 62.706,16.187 			"/>
			<g>
				<path style="fill:#E9C41D;" d="M51.639,16.187c0-0.478,0.111-0.931,0.307-1.335c0.472-0.967,1.427-1.647,2.554-1.715
					c0.067-0.012,0.134-0.012,0.202-0.012c0.846,0,1.611,0.343,2.166,0.897l2.164-2.165c-1.108-1.109-2.639-1.795-4.33-1.795
					c-0.992,0-1.93,0.239-2.756,0.662c-1.071,0.533-1.959,1.378-2.554,2.413c-0.521,0.9-0.813,1.942-0.813,3.05
					s0.293,2.149,0.813,3.05c1.127-0.067,2.082-0.747,2.554-1.715C51.75,17.117,51.639,16.664,51.639,16.187z"/>
				<path style="fill:#E9C41D;" d="M56.867,18.351c-0.555,0.555-1.32,0.897-2.166,0.897c-0.068,0-0.135,0-0.202-0.012
					c-0.594,1.035-1.481,1.88-2.554,2.419c0.826,0.417,1.764,0.655,2.756,0.655c1.691,0,3.222-0.686,4.33-1.794L56.867,18.351z"/>
			</g>
			<path style="fill:#3E3A39;" d="M84.228,19.23h3.063v3.062h-3.063l-2.909-5.34v-1.531h3.063c0.631-0.006,1.14-0.514,1.14-1.146
				c0-0.637-0.515-1.151-1.146-1.151h-5.788v-3.063h5.788c1.897,0,3.44,1.543,3.44,3.442c0,1.905-1.537,3.442-3.435,3.448h-1.893
				L84.228,19.23z"/>
		</g>
		<g>
			<polygon style="fill:#3E3A39;" points="80.425,26.521 77.362,26.521 74.3,26.521 74.3,29.583 74.3,32.646 74.3,35.708 
				74.3,38.77 77.362,38.77 80.425,38.77 83.486,38.77 83.486,35.708 80.425,35.708 77.362,35.708 77.362,33.411 80.425,33.411 
				83.486,33.411 83.486,31.88 80.425,31.88 77.362,31.88 77.362,29.583 80.425,29.583 83.486,29.583 83.486,28.053 83.486,26.521 
							"/>
			<path style="fill:#3E3A39;" d="M58.377,26.521c-3.383,0-6.125,2.742-6.125,6.124s2.742,6.125,6.125,6.125
				c3.382,0,6.124-2.742,6.124-6.125S61.759,26.521,58.377,26.521z M58.377,35.708c-1.691,0-3.063-1.371-3.063-3.062
				c0-1.691,1.371-3.062,3.063-3.062s3.062,1.371,3.062,3.062C61.438,34.337,60.068,35.708,58.377,35.708z"/>
			<polygon style="fill:#3E3A39;" points="49.19,26.521 46.127,26.521 43.065,26.521 43.065,29.583 46.127,29.583 46.127,32.646 
				46.127,35.708 46.127,38.77 49.19,38.77 49.19,35.708 49.19,32.646 49.19,29.583 52.252,29.583 52.252,26.521 			"/>
			<polygon style="fill:#3E3A39;" points="40.003,29.583 43.065,29.583 43.065,26.522 40.003,26.522 36.941,26.522 33.879,26.522 
				33.879,29.583 33.879,31.88 33.879,32.646 33.879,33.411 40.003,33.411 40.003,35.708 36.941,35.708 33.879,35.708 
				33.879,38.769 36.941,38.769 40.003,38.769 43.065,38.769 43.065,35.708 43.065,33.411 43.065,32.646 43.065,31.88 36.941,31.88 
				36.941,29.583 			"/>
			<path style="fill:#3E3A39;" d="M70.268,35.699h3.062v3.062h-3.062l-2.91-5.34v-1.532h3.063c0.63-0.006,1.139-0.514,1.139-1.145
				c0-0.637-0.514-1.151-1.146-1.151h-5.788V26.53h5.788c1.897,0,3.441,1.543,3.441,3.441c0,1.905-1.537,3.443-3.435,3.449h-1.894
				L70.268,35.699z"/>
		</g>
	</g>
</g>
</svg>
