<?xml version="1.0" encoding="iso-8859-1"?>
<!-- Generator: Adobe Illustrator 16.0.0, SVG Export Plug-In . SVG Version: 6.00 Build 0)  -->
<!DOCTYPE svg PUBLIC "-//W3C//DTD SVG 1.1//EN" "http://www.w3.org/Graphics/SVG/1.1/DTD/svg11.dtd">
<svg version="1.1" id="&#x5716;&#x5C64;_1" xmlns="http://www.w3.org/2000/svg" xmlns:xlink="http://www.w3.org/1999/xlink" x="0px"
	 y="0px" width="500px" height="547.4px" viewBox="0 0 500 547.4" style="enable-background:new 0 0 500 547.4;"
	 xml:space="preserve">
<g>
	<g>
		<path style="fill:#C9CACA;" d="M500.001,38.521V532.4c0,8.279-6.721,15-15,15h-470c-8.281,0-15-6.721-15-15V38.521h330V25.43
			c-0.061-0.54-0.102-1.09-0.102-1.64v-9.06c0-8.141,6.602-14.73,14.73-14.73h135.49c8.131,0,14.73,6.59,14.73,14.73v4.33h0.15
			v19.46H500.001z"/>
	</g>
	<g>
		<path style="fill:#2C50A2;" d="M380.09,16.235l-1.53,1.458c-1.04-1.1-2.211-1.65-3.513-1.65c-1.098,0-2.022,0.375-2.774,1.126
			c-0.752,0.751-1.128,1.676-1.128,2.776c0,0.767,0.166,1.447,0.5,2.041c0.332,0.595,0.804,1.061,1.412,1.4
			c0.609,0.339,1.285,0.508,2.029,0.508c0.635,0,1.216-0.119,1.741-0.356c0.525-0.237,1.103-0.668,1.732-1.294l1.483,1.547
			c-0.849,0.829-1.651,1.403-2.406,1.724s-1.617,0.48-2.586,0.48c-1.786,0-3.249-0.566-4.387-1.699s-1.707-2.584-1.707-4.355
			c0-1.146,0.259-2.164,0.777-3.055s1.261-1.606,2.227-2.148c0.966-0.542,2.007-0.813,3.121-0.813c0.948,0,1.86,0.2,2.738,0.601
			S379.454,15.497,380.09,16.235z"/>
		<path style="fill:#2C50A2;" d="M385.762,16.989c0.802,0,1.556,0.201,2.262,0.602c0.706,0.401,1.257,0.945,1.652,1.633
			s0.594,1.43,0.594,2.227c0,0.802-0.199,1.552-0.598,2.25c-0.398,0.698-0.941,1.244-1.629,1.637s-1.445,0.59-2.273,0.59
			c-1.219,0-2.259-0.434-3.121-1.301s-1.293-1.92-1.293-3.16c0-1.328,0.487-2.435,1.461-3.32
			C383.671,17.375,384.652,16.989,385.762,16.989z M385.797,18.997c-0.662,0-1.215,0.23-1.655,0.691s-0.661,1.051-0.661,1.77
			c0,0.74,0.218,1.339,0.653,1.797c0.436,0.458,0.987,0.688,1.655,0.688s1.224-0.231,1.667-0.695
			c0.443-0.463,0.665-1.06,0.665-1.789c0-0.729-0.218-1.321-0.653-1.777C387.032,19.225,386.475,18.997,385.797,18.997z"/>
		<path style="fill:#2C50A2;" d="M391.996,17.208h2.133v0.977c0.365-0.401,0.77-0.7,1.216-0.898
			c0.445-0.198,0.932-0.297,1.458-0.297c0.531,0,1.011,0.13,1.438,0.391c0.428,0.261,0.771,0.641,1.032,1.141
			c0.339-0.5,0.754-0.88,1.247-1.141c0.492-0.26,1.03-0.391,1.614-0.391c0.604,0,1.136,0.141,1.595,0.422s0.788,0.648,0.989,1.102
			c0.2,0.453,0.301,1.19,0.301,2.211v4.984h-2.148v-4.313c0-0.963-0.12-1.616-0.359-1.957c-0.239-0.341-0.599-0.512-1.078-0.512
			c-0.364,0-0.691,0.104-0.98,0.313c-0.289,0.208-0.504,0.496-0.645,0.863s-0.211,0.957-0.211,1.77v3.836h-2.148v-4.117
			c0-0.76-0.057-1.311-0.168-1.652c-0.112-0.341-0.281-0.595-0.506-0.762c-0.225-0.167-0.496-0.25-0.814-0.25
			c-0.354,0-0.677,0.105-0.967,0.316s-0.506,0.507-0.65,0.887c-0.143,0.38-0.215,0.979-0.215,1.797v3.781h-2.133V17.208z"/>
		<path style="fill:#2C50A2;" d="M409.168,17.208v0.938c0.386-0.385,0.802-0.674,1.25-0.867c0.448-0.192,0.927-0.289,1.438-0.289
			c1.109,0,2.052,0.419,2.828,1.258c0.776,0.839,1.164,1.914,1.164,3.227c0,1.266-0.401,2.324-1.203,3.176s-1.753,1.277-2.852,1.277
			c-0.489,0-0.945-0.087-1.367-0.262s-0.841-0.459-1.258-0.855v4.008h-2.117V17.208H409.168z M411.41,18.958
			c-0.672,0-1.229,0.229-1.672,0.688c-0.442,0.458-0.664,1.058-0.664,1.797c0,0.755,0.222,1.366,0.664,1.832
			c0.442,0.466,1,0.699,1.672,0.699c0.651,0,1.199-0.237,1.645-0.711c0.445-0.474,0.668-1.078,0.668-1.813
			c0-0.729-0.219-1.327-0.656-1.793C412.629,19.191,412.077,18.958,411.41,18.958z"/>
		<path style="fill:#2C50A2;" d="M417.379,13.927h2.133v11.781h-2.133V13.927z"/>
		<path style="fill:#2C50A2;" d="M429.965,22.075h-6.852c0.099,0.604,0.363,1.085,0.793,1.441c0.43,0.357,0.978,0.535,1.645,0.535
			c0.797,0,1.481-0.278,2.055-0.836l1.797,0.844c-0.448,0.636-0.984,1.105-1.609,1.41s-1.367,0.457-2.227,0.457
			c-1.333,0-2.419-0.42-3.258-1.262c-0.839-0.841-1.258-1.895-1.258-3.16c0-1.297,0.418-2.374,1.254-3.23
			c0.836-0.856,1.884-1.285,3.145-1.285c1.339,0,2.427,0.429,3.266,1.285c0.839,0.857,1.258,1.988,1.258,3.395L429.965,22.075z
			 M427.832,20.396c-0.141-0.474-0.419-0.859-0.834-1.156c-0.414-0.297-0.896-0.445-1.443-0.445c-0.595,0-1.116,0.167-1.565,0.5
			c-0.281,0.208-0.542,0.576-0.782,1.102H427.832z"/>
		<path style="fill:#2C50A2;" d="M431.949,14.075h2.133v3.133h1.266v1.836h-1.266v6.664h-2.133v-6.664h-1.094v-1.836h1.094V14.075z"
			/>
		<path style="fill:#2C50A2;" d="M445.004,22.075h-6.852c0.099,0.604,0.363,1.085,0.793,1.441c0.43,0.357,0.978,0.535,1.645,0.535
			c0.797,0,1.481-0.278,2.055-0.836l1.797,0.844c-0.448,0.636-0.984,1.105-1.609,1.41s-1.367,0.457-2.227,0.457
			c-1.333,0-2.419-0.42-3.258-1.262c-0.839-0.841-1.258-1.895-1.258-3.16c0-1.297,0.418-2.374,1.254-3.23
			c0.836-0.856,1.884-1.285,3.145-1.285c1.339,0,2.427,0.429,3.266,1.285c0.839,0.857,1.258,1.988,1.258,3.395L445.004,22.075z
			 M442.871,20.396c-0.141-0.474-0.419-0.859-0.834-1.156c-0.414-0.297-0.896-0.445-1.443-0.445c-0.595,0-1.116,0.167-1.565,0.5
			c-0.281,0.208-0.542,0.576-0.782,1.102H442.871z"/>
		<path style="fill:#2C50A2;" d="M453.004,13.927h2.133v11.781h-2.133V24.81c-0.416,0.396-0.834,0.681-1.252,0.855
			c-0.419,0.174-0.873,0.262-1.362,0.262c-1.098,0-2.047-0.426-2.849-1.277c-0.801-0.852-1.201-1.91-1.201-3.176
			c0-1.313,0.388-2.388,1.163-3.227c0.774-0.838,1.716-1.258,2.824-1.258c0.51,0,0.988,0.097,1.436,0.289
			c0.448,0.193,0.861,0.482,1.241,0.867V13.927z M450.762,18.958c-0.659,0-1.207,0.233-1.643,0.699
			c-0.437,0.466-0.654,1.064-0.654,1.793c0,0.734,0.222,1.339,0.666,1.813c0.443,0.474,0.99,0.711,1.639,0.711
			c0.67,0,1.225-0.233,1.666-0.699c0.441-0.466,0.662-1.077,0.662-1.832c0-0.739-0.221-1.338-0.662-1.797
			C451.994,19.188,451.437,18.958,450.762,18.958z"/>
	</g>
</g>
</svg>
