<?xml version="1.0" encoding="iso-8859-1"?>
<!-- Generator: Adobe Illustrator 16.0.0, SVG Export Plug-In . SVG Version: 6.00 Build 0)  -->
<!DOCTYPE svg PUBLIC "-//W3C//DTD SVG 1.1//EN" "http://www.w3.org/Graphics/SVG/1.1/DTD/svg11.dtd">
<svg version="1.1" id="&#x5716;&#x5C64;_1" xmlns="http://www.w3.org/2000/svg" xmlns:xlink="http://www.w3.org/1999/xlink" x="0px"
	 y="0px" width="136.599px" height="34.5px" viewBox="0 0 136.599 34.5" style="enable-background:new 0 0 136.599 34.5;"
	 xml:space="preserve">
<g>
	<path style="fill:#2C50A2;" d="M119.349,0H17.25C7.723,0,0,7.724,0,17.25S7.723,34.5,17.25,34.5h102.099
		c9.527,0,17.25-7.724,17.25-17.25S128.876,0,119.349,0z"/>
	<g>
		<path style="fill:#FFFFFF;" d="M23.517,9.556h2.798l3.496,10.521l3.528-10.521h2.796l2.53,15.084h-2.776l-1.617-9.526
			l-3.204,9.526h-2.531l-3.176-9.526l-1.656,9.526h-2.799L23.517,9.556z"/>
		<path style="fill:#FFFFFF;" d="M39.405,13.483h2.861l2.897,7l3.198-7h2.868L44.243,28.72h-2.891l2.294-4.913L39.405,13.483z"/>
		<path style="fill:#FFFFFF;" d="M66.129,9.177c2.135,0,3.97,0.771,5.505,2.316c1.536,1.545,2.304,3.429,2.304,5.65
			c0,2.201-0.758,4.064-2.272,5.588c-1.516,1.525-3.354,2.287-5.516,2.287c-2.264,0-4.146-0.783-5.644-2.348
			c-1.498-1.566-2.246-3.426-2.246-5.578c0-1.443,0.349-2.77,1.046-3.979c0.698-1.211,1.657-2.17,2.878-2.877
			C63.405,9.53,64.72,9.177,66.129,9.177z M66.099,11.985c-1.396,0-2.57,0.486-3.521,1.457s-1.427,2.204-1.427,3.701
			c0,1.668,0.6,2.987,1.797,3.958c0.931,0.759,1.998,1.138,3.202,1.138c1.362,0,2.521-0.492,3.479-1.477s1.438-2.197,1.438-3.64
			c0-1.436-0.482-2.651-1.447-3.646S67.48,11.985,66.099,11.985z"/>
		<path style="fill:#FFFFFF;" d="M75.681,13.483h2.399v1.404c0.26-0.554,0.605-0.975,1.035-1.262c0.432-0.287,0.902-0.43,1.416-0.43
			c0.361,0,0.741,0.096,1.138,0.287l-0.872,2.409c-0.328-0.164-0.598-0.246-0.81-0.246c-0.431,0-0.795,0.267-1.092,0.8
			c-0.298,0.533-0.446,1.579-0.446,3.138l0.01,0.544v4.512h-2.778V13.483z"/>
		<path style="fill:#FFFFFF;" d="M91.287,9.177h2.8V24.64h-2.8v-1.18c-0.546,0.52-1.094,0.895-1.644,1.123s-1.146,0.344-1.787,0.344
			c-1.44,0-2.687-0.559-3.738-1.678c-1.052-1.117-1.577-2.506-1.577-4.168c0-1.723,0.509-3.134,1.526-4.234
			c1.017-1.101,2.253-1.65,3.707-1.65c0.669,0,1.298,0.126,1.885,0.379s1.13,0.633,1.628,1.139V9.177z M88.345,15.78
			c-0.865,0-1.584,0.306-2.156,0.918c-0.572,0.611-0.858,1.396-0.858,2.353c0,0.964,0.291,1.757,0.874,2.379
			c0.582,0.622,1.299,0.933,2.151,0.933c0.879,0,1.607-0.305,2.187-0.918c0.579-0.611,0.868-1.412,0.868-2.404
			c0-0.971-0.289-1.756-0.868-2.357S89.23,15.78,88.345,15.78z"/>
		<path style="fill:#FFFFFF;" d="M108.094,19.871h-8.992c0.129,0.793,0.477,1.424,1.04,1.892c0.564,0.469,1.283,0.703,2.159,0.703
			c1.045,0,1.944-0.366,2.696-1.098l2.358,1.107c-0.588,0.834-1.292,1.451-2.112,1.852c-0.82,0.398-1.794,0.6-2.923,0.6
			c-1.75,0-3.175-0.553-4.275-1.656s-1.65-2.486-1.65-4.148c0-1.701,0.548-3.115,1.646-4.24c1.097-1.123,2.473-1.686,4.127-1.686
			c1.757,0,3.186,0.563,4.286,1.686c1.101,1.125,1.65,2.61,1.65,4.456L108.094,19.871z M105.295,17.667
			c-0.186-0.623-0.55-1.129-1.095-1.518c-0.544-0.391-1.176-0.585-1.895-0.585c-0.781,0-1.466,0.219-2.055,0.656
			c-0.369,0.273-0.712,0.755-1.026,1.446H105.295z"/>
		<path style="fill:#FFFFFF;" d="M109.704,13.483h2.399v1.404c0.26-0.554,0.605-0.975,1.035-1.262
			c0.432-0.287,0.902-0.43,1.416-0.43c0.361,0,0.741,0.096,1.138,0.287l-0.872,2.409c-0.328-0.164-0.598-0.246-0.81-0.246
			c-0.431,0-0.795,0.267-1.092,0.8c-0.298,0.533-0.446,1.579-0.446,3.138l0.01,0.544v4.512h-2.778V13.483z"/>
	</g>
</g>
</svg>
