<?xml version="1.0" encoding="iso-8859-1"?>
<!-- Generator: Adobe Illustrator 16.0.0, SVG Export Plug-In . SVG Version: 6.00 Build 0)  -->
<!DOCTYPE svg PUBLIC "-//W3C//DTD SVG 1.1//EN" "http://www.w3.org/Graphics/SVG/1.1/DTD/svg11.dtd">
<svg version="1.1" id="&#x5716;&#x5C64;_1" xmlns="http://www.w3.org/2000/svg" xmlns:xlink="http://www.w3.org/1999/xlink" x="0px"
	 y="0px" width="500px" height="547.4px" viewBox="0 0 500 547.4" style="enable-background:new 0 0 500 547.4;"
	 xml:space="preserve">
<g>
	<g>
		<path style="fill:#E8C41D;" d="M500,38.52V532.4c0,8.279-6.721,15-15,15H15c-8.281,0-15-6.721-15-15V38.52h165V24.75
			c-0.021-0.32-0.051-0.64-0.051-0.96v-9.06c0-8.141,6.6-14.73,14.73-14.73h135.49c8.129,0,14.729,6.59,14.729,14.73v4.329H330
			v19.46H500z"/>
	</g>
	<g>
		<path style="fill:#2C50A2;" d="M195.589,14.216h2.195v7.432c0,0.64,0.056,1.093,0.168,1.358c0.112,0.265,0.297,0.478,0.555,0.636
			c0.258,0.159,0.569,0.238,0.934,0.238c0.386,0,0.718-0.088,0.996-0.266c0.278-0.177,0.472-0.402,0.578-0.675
			c0.106-0.273,0.16-0.795,0.16-1.565v-7.158h2.195v6.852c0,1.156-0.065,1.958-0.195,2.406c-0.13,0.448-0.379,0.88-0.746,1.297
			c-0.367,0.417-0.79,0.726-1.27,0.926s-1.036,0.301-1.672,0.301c-0.833,0-1.559-0.191-2.176-0.574s-1.059-0.862-1.324-1.438
			c-0.266-0.575-0.398-1.548-0.398-2.918V14.216z"/>
		<path style="fill:#2C50A2;" d="M205.675,17.208h2.133v0.871c0.483-0.408,0.922-0.691,1.314-0.851
			c0.393-0.16,0.795-0.239,1.205-0.239c0.843,0,1.558,0.294,2.146,0.883c0.494,0.5,0.741,1.24,0.741,2.219v5.617h-2.109v-3.722
			c0-1.015-0.046-1.688-0.137-2.021s-0.249-0.587-0.476-0.761c-0.226-0.175-0.505-0.262-0.837-0.262
			c-0.432,0-0.802,0.145-1.111,0.433c-0.309,0.289-0.523,0.688-0.643,1.198c-0.063,0.266-0.094,0.84-0.094,1.725v3.41h-2.133V17.208
			z"/>
		<path style="fill:#2C50A2;" d="M221.55,17.208h2.133v8.5h-2.133V24.81c-0.416,0.396-0.834,0.681-1.252,0.855
			c-0.419,0.174-0.873,0.262-1.362,0.262c-1.098,0-2.047-0.426-2.849-1.277c-0.801-0.852-1.201-1.91-1.201-3.176
			c0-1.313,0.388-2.388,1.163-3.227c0.774-0.838,1.716-1.258,2.824-1.258c0.51,0,0.988,0.097,1.436,0.289
			c0.448,0.193,0.861,0.482,1.241,0.867V17.208z M219.308,18.958c-0.659,0-1.207,0.233-1.643,0.699
			c-0.437,0.466-0.654,1.064-0.654,1.793c0,0.734,0.222,1.339,0.666,1.813c0.443,0.474,0.99,0.711,1.639,0.711
			c0.67,0,1.225-0.233,1.666-0.699c0.441-0.466,0.662-1.077,0.662-1.832c0-0.739-0.221-1.338-0.662-1.797
			C220.54,19.188,219.982,18.958,219.308,18.958z"/>
		<path style="fill:#2C50A2;" d="M234.159,18.927l-1.775,0.977c-0.334-0.349-0.664-0.591-0.989-0.727
			c-0.326-0.135-0.708-0.203-1.146-0.203c-0.798,0-1.443,0.238-1.936,0.714c-0.493,0.476-0.739,1.085-0.739,1.829
			c0,0.723,0.237,1.313,0.712,1.771c0.475,0.458,1.098,0.687,1.869,0.687c0.954,0,1.697-0.325,2.229-0.977l1.682,1.151
			c-0.911,1.186-2.198,1.778-3.859,1.778c-1.495,0-2.665-0.442-3.512-1.328c-0.847-0.885-1.27-1.922-1.27-3.109
			c0-0.823,0.206-1.581,0.617-2.273c0.411-0.692,0.985-1.237,1.723-1.633c0.737-0.396,1.562-0.594,2.473-0.594
			c0.844,0,1.602,0.168,2.273,0.504S233.732,18.307,234.159,18.927z"/>
		<path style="fill:#2C50A2;" d="M244.401,18.927l-1.775,0.977c-0.334-0.349-0.664-0.591-0.989-0.727
			c-0.326-0.135-0.708-0.203-1.146-0.203c-0.798,0-1.443,0.238-1.936,0.714c-0.493,0.476-0.739,1.085-0.739,1.829
			c0,0.723,0.237,1.313,0.712,1.771c0.475,0.458,1.098,0.687,1.869,0.687c0.954,0,1.697-0.325,2.229-0.977l1.682,1.151
			c-0.911,1.186-2.198,1.778-3.859,1.778c-1.495,0-2.665-0.442-3.512-1.328c-0.847-0.885-1.27-1.922-1.27-3.109
			c0-0.823,0.206-1.581,0.617-2.273c0.411-0.692,0.985-1.237,1.723-1.633c0.737-0.396,1.562-0.594,2.473-0.594
			c0.844,0,1.602,0.168,2.273,0.504S243.975,18.307,244.401,18.927z"/>
		<path style="fill:#2C50A2;" d="M246.089,13.927h2.133v11.781h-2.133V13.927z"/>
		<path style="fill:#2C50A2;" d="M256.433,17.208h2.133v8.5h-2.133V24.81c-0.416,0.396-0.834,0.681-1.252,0.855
			c-0.419,0.174-0.873,0.262-1.362,0.262c-1.098,0-2.047-0.426-2.849-1.277c-0.801-0.852-1.201-1.91-1.201-3.176
			c0-1.313,0.388-2.388,1.163-3.227c0.774-0.838,1.716-1.258,2.824-1.258c0.51,0,0.988,0.097,1.436,0.289
			c0.448,0.193,0.861,0.482,1.241,0.867V17.208z M254.19,18.958c-0.659,0-1.207,0.233-1.643,0.699
			c-0.437,0.466-0.654,1.064-0.654,1.793c0,0.734,0.222,1.339,0.666,1.813c0.443,0.474,0.99,0.711,1.639,0.711
			c0.67,0,1.225-0.233,1.666-0.699c0.441-0.466,0.662-1.077,0.662-1.832c0-0.739-0.221-1.338-0.662-1.797
			C255.423,19.188,254.865,18.958,254.19,18.958z"/>
		<path style="fill:#2C50A2;" d="M261.554,13.708c0.374,0,0.694,0.136,0.962,0.406c0.268,0.271,0.401,0.599,0.401,0.984
			c0,0.38-0.133,0.705-0.397,0.973c-0.265,0.269-0.581,0.402-0.95,0.402c-0.379,0-0.702-0.137-0.97-0.41s-0.401-0.605-0.401-0.996
			c0-0.375,0.133-0.695,0.397-0.961S261.18,13.708,261.554,13.708z M260.487,17.208h2.133v8.5h-2.133V17.208z"/>
		<path style="fill:#2C50A2;" d="M264.542,17.208h2.133v0.977c0.365-0.401,0.77-0.7,1.216-0.898
			c0.445-0.198,0.932-0.297,1.458-0.297c0.531,0,1.011,0.13,1.438,0.391c0.428,0.261,0.771,0.641,1.032,1.141
			c0.339-0.5,0.754-0.88,1.247-1.141c0.492-0.26,1.03-0.391,1.614-0.391c0.604,0,1.136,0.141,1.595,0.422s0.788,0.648,0.989,1.102
			c0.2,0.453,0.301,1.19,0.301,2.211v4.984h-2.148v-4.313c0-0.963-0.12-1.616-0.359-1.957c-0.239-0.341-0.599-0.512-1.078-0.512
			c-0.364,0-0.691,0.104-0.98,0.313c-0.289,0.208-0.504,0.496-0.645,0.863s-0.211,0.957-0.211,1.77v3.836h-2.148v-4.117
			c0-0.76-0.057-1.311-0.168-1.652c-0.112-0.341-0.281-0.595-0.506-0.762c-0.225-0.167-0.496-0.25-0.814-0.25
			c-0.354,0-0.677,0.105-0.967,0.316s-0.506,0.507-0.65,0.887c-0.143,0.38-0.215,0.979-0.215,1.797v3.781h-2.133V17.208z"/>
		<path style="fill:#2C50A2;" d="M288.112,22.075h-6.852c0.099,0.604,0.363,1.085,0.793,1.441c0.43,0.357,0.978,0.535,1.645,0.535
			c0.797,0,1.481-0.278,2.055-0.836l1.797,0.844c-0.448,0.636-0.984,1.105-1.609,1.41s-1.367,0.457-2.227,0.457
			c-1.333,0-2.419-0.42-3.258-1.262c-0.839-0.841-1.258-1.895-1.258-3.16c0-1.297,0.418-2.374,1.254-3.23
			c0.836-0.856,1.884-1.285,3.145-1.285c1.339,0,2.427,0.429,3.266,1.285c0.839,0.857,1.258,1.988,1.258,3.395L288.112,22.075z
			 M285.979,20.396c-0.141-0.474-0.419-0.859-0.834-1.156c-0.414-0.297-0.896-0.445-1.443-0.445c-0.595,0-1.116,0.167-1.565,0.5
			c-0.281,0.208-0.542,0.576-0.782,1.102H285.979z"/>
		<path style="fill:#2C50A2;" d="M296.112,13.927h2.133v11.781h-2.133V24.81c-0.416,0.396-0.834,0.681-1.252,0.855
			c-0.419,0.174-0.873,0.262-1.362,0.262c-1.098,0-2.047-0.426-2.849-1.277c-0.801-0.852-1.201-1.91-1.201-3.176
			c0-1.313,0.388-2.388,1.163-3.227c0.774-0.838,1.716-1.258,2.824-1.258c0.51,0,0.988,0.097,1.436,0.289
			c0.448,0.193,0.861,0.482,1.241,0.867V13.927z M293.87,18.958c-0.659,0-1.207,0.233-1.643,0.699
			c-0.437,0.466-0.654,1.064-0.654,1.793c0,0.734,0.222,1.339,0.666,1.813c0.443,0.474,0.99,0.711,1.639,0.711
			c0.67,0,1.225-0.233,1.666-0.699c0.441-0.466,0.662-1.077,0.662-1.832c0-0.739-0.221-1.338-0.662-1.797
			C295.103,19.188,294.545,18.958,293.87,18.958z"/>
	</g>
</g>
</svg>
