<?xml version="1.0" encoding="iso-8859-1"?>
<!-- Generator: Adobe Illustrator 16.0.0, SVG Export Plug-In . SVG Version: 6.00 Build 0)  -->
<!DOCTYPE svg PUBLIC "-//W3C//DTD SVG 1.1//EN" "http://www.w3.org/Graphics/SVG/1.1/DTD/svg11.dtd">
<svg version="1.1" id="&#x5716;&#x5C64;_1" xmlns="http://www.w3.org/2000/svg" xmlns:xlink="http://www.w3.org/1999/xlink" x="0px"
	 y="0px" width="500.001px" height="547.4px" viewBox="0 0 500.001 547.4" style="enable-background:new 0 0 500.001 547.4;"
	 xml:space="preserve">
<g>
	<g>
		<path style="fill:#F39800;" d="M500.001,38.52V532.4c0,8.279-6.721,15-15,15h-470c-8.281,0-15-6.721-15-15V14.73
			C0.001,6.6,6.591,0,14.731,0H150.21c8.141,0,14.73,6.6,14.73,14.73v4.329h0.061v19.46H500.001z"/>
	</g>
	<g>
		<path style="fill:#2C50A2;" d="M36.549,14.216h2.195v7.432c0,0.64,0.055,1.093,0.168,1.358c0.111,0.265,0.297,0.478,0.555,0.636
			c0.258,0.159,0.568,0.238,0.934,0.238c0.385,0,0.717-0.088,0.996-0.266c0.277-0.177,0.471-0.402,0.578-0.675
			c0.105-0.273,0.16-0.795,0.16-1.565v-7.158h2.195v6.852c0,1.156-0.066,1.958-0.195,2.406c-0.131,0.448-0.379,0.88-0.746,1.297
			c-0.367,0.417-0.791,0.726-1.27,0.926c-0.48,0.2-1.037,0.301-1.672,0.301c-0.834,0-1.559-0.191-2.176-0.574
			s-1.059-0.862-1.324-1.438c-0.266-0.575-0.398-1.548-0.398-2.918V14.216z"/>
		<path style="fill:#2C50A2;" d="M46.635,17.208h2.133v0.871c0.482-0.408,0.922-0.691,1.314-0.851
			c0.393-0.16,0.795-0.239,1.205-0.239c0.842,0,1.557,0.294,2.145,0.883c0.494,0.5,0.742,1.24,0.742,2.219v5.617h-2.109v-3.722
			c0-1.015-0.047-1.688-0.137-2.021c-0.092-0.333-0.25-0.587-0.477-0.761c-0.225-0.175-0.504-0.262-0.836-0.262
			c-0.432,0-0.803,0.145-1.111,0.433s-0.523,0.688-0.643,1.198c-0.063,0.266-0.094,0.84-0.094,1.725v3.41h-2.133V17.208z"/>
		<path style="fill:#2C50A2;" d="M62.51,13.927h2.133v11.781H62.51V24.81c-0.416,0.396-0.834,0.681-1.252,0.855
			c-0.42,0.174-0.873,0.262-1.363,0.262c-1.098,0-2.047-0.426-2.848-1.277s-1.201-1.91-1.201-3.176c0-1.313,0.387-2.388,1.162-3.227
			c0.775-0.838,1.717-1.258,2.824-1.258c0.51,0,0.988,0.097,1.436,0.289c0.449,0.193,0.861,0.482,1.242,0.867V13.927z
			 M60.268,18.958c-0.66,0-1.207,0.233-1.643,0.699c-0.438,0.466-0.654,1.064-0.654,1.793c0,0.734,0.221,1.339,0.666,1.813
			c0.443,0.474,0.99,0.711,1.639,0.711c0.67,0,1.225-0.233,1.666-0.699c0.441-0.466,0.662-1.077,0.662-1.832
			c0-0.739-0.221-1.338-0.662-1.797C61.5,19.188,60.941,18.958,60.268,18.958z"/>
		<path style="fill:#2C50A2;" d="M75.314,22.075h-6.852c0.098,0.604,0.363,1.085,0.793,1.441c0.43,0.357,0.977,0.535,1.645,0.535
			c0.797,0,1.48-0.278,2.055-0.836l1.797,0.844c-0.449,0.636-0.984,1.105-1.609,1.41s-1.367,0.457-2.227,0.457
			c-1.334,0-2.42-0.42-3.258-1.262c-0.84-0.841-1.258-1.895-1.258-3.16c0-1.297,0.418-2.374,1.254-3.23
			c0.836-0.856,1.883-1.285,3.145-1.285c1.338,0,2.426,0.429,3.266,1.285c0.838,0.857,1.258,1.988,1.258,3.395L75.314,22.075z
			 M73.182,20.396c-0.141-0.474-0.42-0.859-0.834-1.156s-0.896-0.445-1.443-0.445c-0.596,0-1.117,0.167-1.566,0.5
			c-0.281,0.208-0.541,0.576-0.781,1.102H73.182z"/>
		<path style="fill:#2C50A2;" d="M76.807,13.927h2.133v11.781h-2.133V13.927z"/>
		<path style="fill:#2C50A2;" d="M81.709,13.708c0.373,0,0.693,0.136,0.961,0.406c0.268,0.271,0.402,0.599,0.402,0.984
			c0,0.38-0.133,0.705-0.398,0.973c-0.264,0.269-0.58,0.402-0.949,0.402c-0.379,0-0.703-0.137-0.971-0.41s-0.4-0.605-0.4-0.996
			c0-0.375,0.133-0.695,0.396-0.961C81.016,13.841,81.334,13.708,81.709,13.708z M80.643,17.208h2.133v8.5h-2.133V17.208z"/>
		<path style="fill:#2C50A2;" d="M83.803,17.208h2.172l2.148,5.016l2.143-5.016h2.162l-3.617,8.5h-1.383L83.803,17.208z"/>
		<path style="fill:#2C50A2;" d="M102.189,22.075h-6.852c0.098,0.604,0.363,1.085,0.793,1.441c0.43,0.357,0.977,0.535,1.645,0.535
			c0.797,0,1.48-0.278,2.055-0.836l1.797,0.844c-0.449,0.636-0.984,1.105-1.609,1.41s-1.367,0.457-2.227,0.457
			c-1.334,0-2.42-0.42-3.258-1.262c-0.84-0.841-1.258-1.895-1.258-3.16c0-1.297,0.418-2.374,1.254-3.23
			c0.836-0.856,1.883-1.285,3.145-1.285c1.338,0,2.426,0.429,3.266,1.285c0.838,0.857,1.258,1.988,1.258,3.395L102.189,22.075z
			 M100.057,20.396c-0.141-0.474-0.42-0.859-0.834-1.156s-0.896-0.445-1.443-0.445c-0.596,0-1.117,0.167-1.566,0.5
			c-0.281,0.208-0.541,0.576-0.781,1.102H100.057z"/>
		<path style="fill:#2C50A2;" d="M103.416,17.208h1.828v1.07c0.197-0.422,0.461-0.742,0.789-0.961s0.688-0.328,1.078-0.328
			c0.275,0,0.564,0.073,0.867,0.219l-0.664,1.836c-0.25-0.125-0.457-0.188-0.617-0.188c-0.328,0-0.605,0.203-0.832,0.609
			s-0.34,1.203-0.34,2.391l0.008,0.414v3.438h-2.117V17.208z"/>
		<path style="fill:#2C50A2;" d="M117.549,22.075h-6.852c0.098,0.604,0.363,1.085,0.793,1.441c0.43,0.357,0.977,0.535,1.645,0.535
			c0.797,0,1.48-0.278,2.055-0.836l1.797,0.844c-0.449,0.636-0.984,1.105-1.609,1.41s-1.367,0.457-2.227,0.457
			c-1.334,0-2.42-0.42-3.258-1.262c-0.84-0.841-1.258-1.895-1.258-3.16c0-1.297,0.418-2.374,1.254-3.23
			c0.836-0.856,1.883-1.285,3.145-1.285c1.338,0,2.426,0.429,3.266,1.285c0.838,0.857,1.258,1.988,1.258,3.395L117.549,22.075z
			 M115.416,20.396c-0.141-0.474-0.42-0.859-0.834-1.156s-0.896-0.445-1.443-0.445c-0.596,0-1.117,0.167-1.566,0.5
			c-0.281,0.208-0.541,0.576-0.781,1.102H115.416z"/>
		<path style="fill:#2C50A2;" d="M125.549,13.927h2.133v11.781h-2.133V24.81c-0.416,0.396-0.834,0.681-1.252,0.855
			c-0.42,0.174-0.873,0.262-1.363,0.262c-1.098,0-2.047-0.426-2.848-1.277s-1.201-1.91-1.201-3.176c0-1.313,0.387-2.388,1.162-3.227
			c0.775-0.838,1.717-1.258,2.824-1.258c0.51,0,0.988,0.097,1.436,0.289c0.449,0.193,0.861,0.482,1.242,0.867V13.927z
			 M123.307,18.958c-0.66,0-1.207,0.233-1.643,0.699c-0.438,0.466-0.654,1.064-0.654,1.793c0,0.734,0.221,1.339,0.666,1.813
			c0.443,0.474,0.99,0.711,1.639,0.711c0.67,0,1.225-0.233,1.666-0.699c0.441-0.466,0.662-1.077,0.662-1.832
			c0-0.739-0.221-1.338-0.662-1.797C124.539,19.188,123.98,18.958,123.307,18.958z"/>
	</g>
</g>
</svg>
