<?xml version="1.0" encoding="iso-8859-1"?>
<!-- Generator: Adobe Illustrator 16.0.0, SVG Export Plug-In . SVG Version: 6.00 Build 0)  -->
<!DOCTYPE svg PUBLIC "-//W3C//DTD SVG 1.1//EN" "http://www.w3.org/Graphics/SVG/1.1/DTD/svg11.dtd">
<svg version="1.1" id="&#x5716;&#x5C64;_1" xmlns="http://www.w3.org/2000/svg" xmlns:xlink="http://www.w3.org/1999/xlink" x="0px"
	 y="0px" width="106.718px" height="13.138px" viewBox="0 0 106.718 13.138" style="enable-background:new 0 0 106.718 13.138;"
	 xml:space="preserve">
<g>
	<g>
		<path style="fill:#E8C41D;" d="M100.148,0H6.568C2.941,0,0,2.941,0,6.568c0,3.629,2.941,6.569,6.568,6.569h93.58
			c3.628,0,6.569-2.94,6.569-6.569C106.718,2.941,103.776,0,100.148,0z"/>
	</g>
	<g>
		<path style="fill:#2C50A2;" d="M19.778,4.258L18.821,5.17c-0.65-0.688-1.382-1.031-2.195-1.031c-0.686,0-1.264,0.234-1.734,0.703
			c-0.47,0.47-0.705,1.049-0.705,1.736c0,0.479,0.104,0.904,0.313,1.275c0.209,0.371,0.502,0.663,0.883,0.875
			c0.381,0.211,0.804,0.317,1.27,0.317c0.396,0,0.759-0.074,1.088-0.222c0.328-0.148,0.689-0.418,1.082-0.81l0.928,0.968
			c-0.531,0.518-1.032,0.877-1.504,1.076c-0.473,0.201-1.012,0.301-1.617,0.301c-1.116,0-2.029-0.354-2.741-1.063
			c-0.712-0.707-1.067-1.615-1.067-2.722c0-0.716,0.162-1.353,0.486-1.909s0.787-1.004,1.392-1.343s1.254-0.508,1.95-0.508
			c0.593,0,1.164,0.125,1.712,0.376C18.907,3.441,19.381,3.797,19.778,4.258z"/>
		<path style="fill:#2C50A2;" d="M24.749,4.866h1.332v5.313h-1.332V9.617c-0.261,0.248-0.521,0.426-0.783,0.535
			c-0.262,0.108-0.545,0.163-0.852,0.163c-0.686,0-1.279-0.267-1.779-0.798c-0.501-0.533-0.752-1.194-0.752-1.985
			c0-0.82,0.242-1.493,0.727-2.017s1.074-0.786,1.766-0.786c0.319,0,0.618,0.06,0.898,0.181c0.279,0.121,0.537,0.301,0.775,0.542
			V4.866z M23.347,5.96c-0.412,0-0.754,0.146-1.026,0.437c-0.272,0.292-0.409,0.666-0.409,1.121c0,0.459,0.139,0.836,0.416,1.133
			s0.619,0.444,1.025,0.444c0.418,0,0.766-0.146,1.041-0.437c0.275-0.292,0.414-0.674,0.414-1.146c0-0.462-0.139-0.837-0.414-1.123
			S23.769,5.96,23.347,5.96z"/>
		<path style="fill:#2C50A2;" d="M30.681,5.608l-0.824,0.825c-0.336-0.332-0.641-0.498-0.914-0.498
			c-0.149,0-0.267,0.031-0.352,0.096c-0.084,0.063-0.127,0.143-0.127,0.236c0,0.072,0.027,0.138,0.081,0.197
			c0.054,0.061,0.187,0.143,0.397,0.247l0.488,0.244c0.515,0.254,0.868,0.513,1.061,0.776c0.191,0.264,0.287,0.572,0.287,0.928
			c0,0.473-0.173,0.865-0.52,1.182s-0.812,0.474-1.395,0.474c-0.774,0-1.393-0.303-1.855-0.908l0.82-0.894
			c0.156,0.182,0.34,0.33,0.55,0.441c0.21,0.113,0.396,0.169,0.56,0.169c0.176,0,0.316-0.042,0.424-0.127s0.162-0.183,0.162-0.293
			c0-0.205-0.194-0.405-0.582-0.601l-0.449-0.225c-0.859-0.434-1.289-0.975-1.289-1.626c0-0.42,0.162-0.778,0.486-1.077
			c0.324-0.297,0.738-0.446,1.242-0.446c0.346,0,0.67,0.075,0.975,0.228C30.212,5.107,30.47,5.325,30.681,5.608z"/>
		<path style="fill:#2C50A2;" d="M31.833,2.815h1.324v2.588c0.26-0.225,0.521-0.394,0.785-0.505
			c0.264-0.113,0.531-0.169,0.801-0.169c0.527,0,0.973,0.183,1.334,0.547c0.309,0.315,0.463,0.78,0.463,1.392v3.511h-1.313V7.85
			c0-0.615-0.029-1.031-0.088-1.25s-0.159-0.381-0.301-0.488S34.522,5.95,34.313,5.95c-0.27,0-0.502,0.089-0.695,0.269
			s-0.328,0.424-0.402,0.732c-0.039,0.16-0.059,0.523-0.059,1.094v2.134h-1.324V2.815z"/>
		<path style="fill:#2C50A2;" d="M43.122,4.729c0.502,0,0.973,0.126,1.414,0.376s0.785,0.591,1.033,1.021
			c0.247,0.43,0.371,0.894,0.371,1.392c0,0.502-0.125,0.971-0.374,1.406s-0.589,0.777-1.019,1.023
			c-0.43,0.245-0.902,0.368-1.42,0.368c-0.762,0-1.412-0.271-1.951-0.813c-0.539-0.541-0.809-1.199-0.809-1.975
			c0-0.83,0.305-1.521,0.914-2.075C41.815,4.971,42.429,4.729,43.122,4.729z M43.145,5.984c-0.414,0-0.759,0.145-1.034,0.432
			c-0.275,0.289-0.414,0.657-0.414,1.106c0,0.462,0.137,0.837,0.408,1.123c0.273,0.286,0.617,0.43,1.035,0.43
			s0.765-0.146,1.042-0.435c0.276-0.289,0.415-0.662,0.415-1.118s-0.136-0.826-0.408-1.11C43.917,6.127,43.568,5.984,43.145,5.984z"
			/>
		<path style="fill:#2C50A2;" d="M47.028,4.866h1.334V5.41c0.302-0.254,0.576-0.432,0.82-0.531c0.246-0.1,0.497-0.149,0.754-0.149
			c0.527,0,0.974,0.185,1.341,0.552c0.31,0.313,0.464,0.775,0.464,1.387v3.511h-1.318V7.852c0-0.633-0.029-1.055-0.086-1.262
			c-0.057-0.209-0.156-0.367-0.297-0.477c-0.142-0.108-0.316-0.163-0.523-0.163c-0.27,0-0.502,0.091-0.694,0.271
			c-0.193,0.181-0.327,0.43-0.401,0.749c-0.039,0.165-0.059,0.524-0.059,1.077v2.132h-1.334V4.866z"/>
		<path style="fill:#2C50A2;" d="M59.749,2.815h1.332v7.363h-1.332V9.617c-0.261,0.248-0.521,0.426-0.783,0.535
			c-0.262,0.108-0.545,0.163-0.852,0.163c-0.686,0-1.279-0.267-1.779-0.798c-0.501-0.533-0.752-1.194-0.752-1.985
			c0-0.82,0.242-1.493,0.727-2.017s1.074-0.786,1.766-0.786c0.319,0,0.618,0.06,0.898,0.181c0.279,0.121,0.537,0.301,0.775,0.542
			V2.815z M58.347,5.96c-0.412,0-0.754,0.146-1.026,0.437c-0.272,0.292-0.409,0.666-0.409,1.121c0,0.459,0.139,0.836,0.416,1.133
			s0.619,0.444,1.025,0.444c0.418,0,0.766-0.146,1.041-0.437c0.275-0.292,0.414-0.674,0.414-1.146c0-0.462-0.139-0.837-0.414-1.123
			S58.769,5.96,58.347,5.96z"/>
		<path style="fill:#2C50A2;" d="M67.751,7.908H63.47c0.062,0.377,0.227,0.678,0.495,0.9c0.269,0.224,0.611,0.335,1.028,0.335
			c0.498,0,0.926-0.175,1.283-0.522l1.123,0.527c-0.279,0.396-0.615,0.691-1.006,0.881c-0.391,0.191-0.854,0.286-1.391,0.286
			c-0.834,0-1.513-0.263-2.037-0.788c-0.523-0.526-0.785-1.185-0.785-1.976c0-0.811,0.261-1.483,0.783-2.019
			c0.522-0.536,1.178-0.804,1.965-0.804c0.837,0,1.518,0.268,2.041,0.804c0.524,0.535,0.787,1.242,0.787,2.121L67.751,7.908z
			 M66.419,6.858c-0.088-0.296-0.262-0.537-0.521-0.723s-0.561-0.278-0.902-0.278c-0.371,0-0.697,0.104-0.979,0.313
			c-0.176,0.131-0.339,0.359-0.488,0.688H66.419z"/>
		<path style="fill:#2C50A2;" d="M68.685,2.815h1.332v7.363h-1.332V2.815z"/>
		<path style="fill:#2C50A2;" d="M71.748,2.679c0.233,0,0.435,0.085,0.601,0.254c0.168,0.169,0.252,0.374,0.252,0.615
			c0,0.237-0.084,0.44-0.249,0.608c-0.165,0.167-0.363,0.251-0.594,0.251c-0.237,0-0.438-0.085-0.606-0.257
			c-0.167-0.17-0.25-0.378-0.25-0.622c0-0.234,0.082-0.435,0.248-0.601S71.515,2.679,71.748,2.679z M71.081,4.866h1.334v5.313
			h-1.334V4.866z"/>
		<path style="fill:#2C50A2;" d="M73.057,4.866h1.358l1.342,3.135l1.34-3.135h1.351l-2.261,5.313h-0.864L73.057,4.866z"/>
		<path style="fill:#2C50A2;" d="M84.548,7.908h-4.281c0.062,0.377,0.227,0.678,0.495,0.9c0.269,0.224,0.611,0.335,1.028,0.335
			c0.498,0,0.926-0.175,1.283-0.522l1.123,0.527c-0.279,0.396-0.615,0.691-1.006,0.881c-0.391,0.191-0.854,0.286-1.391,0.286
			c-0.834,0-1.513-0.263-2.037-0.788c-0.523-0.526-0.785-1.185-0.785-1.976c0-0.811,0.261-1.483,0.783-2.019
			c0.522-0.536,1.178-0.804,1.965-0.804c0.837,0,1.518,0.268,2.041,0.804c0.524,0.535,0.787,1.242,0.787,2.121L84.548,7.908z
			 M83.216,6.858c-0.088-0.296-0.262-0.537-0.521-0.723s-0.561-0.278-0.902-0.278c-0.371,0-0.697,0.104-0.979,0.313
			c-0.176,0.131-0.339,0.359-0.488,0.688H83.216z"/>
		<path style="fill:#2C50A2;" d="M85.315,4.866h1.143v0.669c0.123-0.264,0.287-0.464,0.492-0.601s0.43-0.205,0.674-0.205
			c0.173,0,0.354,0.046,0.543,0.137l-0.416,1.147c-0.156-0.078-0.284-0.117-0.385-0.117c-0.205,0-0.379,0.127-0.521,0.381
			s-0.212,0.752-0.212,1.494l0.004,0.259v2.148h-1.322V4.866z"/>
		<path style="fill:#2C50A2;" d="M88.236,4.866h1.362l1.38,3.333l1.522-3.333h1.366l-3.327,7.256h-1.377l1.093-2.34L88.236,4.866z"
			/>
	</g>
</g>
</svg>
