<?xml version="1.0" encoding="iso-8859-1"?>
<!-- Generator: Adobe Illustrator 16.0.0, SVG Export Plug-In . SVG Version: 6.00 Build 0)  -->
<!DOCTYPE svg PUBLIC "-//W3C//DTD SVG 1.1//EN" "http://www.w3.org/Graphics/SVG/1.1/DTD/svg11.dtd">
<svg version="1.1" id="&#x5716;&#x5C64;_1" xmlns="http://www.w3.org/2000/svg" xmlns:xlink="http://www.w3.org/1999/xlink" x="0px"
	 y="0px" width="113.435px" height="13.139px" viewBox="0 0 113.435 13.139" style="enable-background:new 0 0 113.435 13.139;"
	 xml:space="preserve">
<g>
	<path style="fill:#E8C41D;" d="M106.821,0L106.821,0L106.821,0H6.614C2.962,0,0,2.941,0,6.568c0,3.629,2.962,6.57,6.614,6.57
		H106.82l0,0h0.001c3.652,0,6.613-2.941,6.613-6.57C113.435,2.941,110.474,0,106.821,0z"/>
	<g>
		<path style="fill:#2C50A2;" d="M7.444,10.229V3.046h1.137c0.66,0,1.142,0.042,1.446,0.127c0.435,0.114,0.779,0.325,1.035,0.635
			c0.255,0.31,0.383,0.674,0.383,1.094c0,0.273-0.057,0.521-0.174,0.745c-0.117,0.223-0.306,0.432-0.567,0.627
			c0.438,0.205,0.76,0.461,0.964,0.77c0.202,0.307,0.305,0.671,0.305,1.091c0,0.403-0.106,0.771-0.315,1.104
			c-0.21,0.332-0.481,0.58-0.812,0.745c-0.332,0.164-0.79,0.246-1.373,0.246H7.444z M8.82,4.35v1.514h0.301
			c0.337,0,0.586-0.07,0.748-0.21s0.245-0.331,0.245-0.571c0-0.225-0.078-0.402-0.232-0.535C9.727,4.416,9.492,4.35,9.177,4.35H8.82
			z M8.82,7.084v1.841h0.346c0.571,0,0.957-0.071,1.155-0.215c0.2-0.144,0.299-0.352,0.299-0.625c0-0.31-0.116-0.554-0.351-0.732
			c-0.233-0.179-0.62-0.269-1.162-0.269H8.82z"/>
		<path style="fill:#2C50A2;" d="M13.661,2.729c0.234,0,0.438,0.084,0.604,0.254c0.169,0.17,0.253,0.375,0.253,0.615
			c0,0.238-0.084,0.44-0.25,0.607c-0.166,0.168-0.366,0.252-0.598,0.252c-0.239,0-0.441-0.086-0.611-0.256
			c-0.168-0.172-0.251-0.379-0.251-0.623c0-0.234,0.082-0.435,0.249-0.601C13.226,2.812,13.426,2.729,13.661,2.729z M12.989,4.916
			h1.343v5.313h-1.343V4.916z"/>
		<path style="fill:#2C50A2;" d="M15.552,4.916h1.341v0.545c0.305-0.256,0.58-0.433,0.828-0.532c0.246-0.1,0.499-0.149,0.758-0.149
			c0.53,0,0.98,0.184,1.35,0.552c0.311,0.313,0.466,0.774,0.466,1.387v3.511h-1.327V7.902c0-0.635-0.027-1.055-0.085-1.264
			c-0.058-0.208-0.156-0.366-0.299-0.475C18.44,6.055,18.265,6,18.055,6c-0.271,0-0.503,0.09-0.698,0.271
			c-0.194,0.181-0.329,0.431-0.405,0.749c-0.039,0.166-0.059,0.525-0.059,1.078v2.131h-1.341V4.916z"/>
		<path style="fill:#2C50A2;" d="M25.541,2.865h1.341v7.363h-1.341V9.667c-0.263,0.247-0.525,0.426-0.789,0.534
			c-0.263,0.109-0.548,0.164-0.857,0.164c-0.689,0-1.288-0.266-1.791-0.799c-0.505-0.531-0.757-1.193-0.757-1.984
			c0-0.82,0.243-1.492,0.731-2.017c0.487-0.524,1.081-0.786,1.777-0.786c0.321,0,0.622,0.061,0.904,0.181
			c0.281,0.12,0.541,0.302,0.781,0.542V2.865z M24.129,6.01c-0.415,0-0.759,0.146-1.033,0.438c-0.274,0.291-0.412,0.664-0.412,1.12
			c0,0.459,0.14,0.837,0.419,1.133s0.623,0.444,1.032,0.444c0.421,0,0.771-0.146,1.048-0.438C25.46,8.416,25.6,8.035,25.6,7.563
			c0-0.463-0.14-0.836-0.417-1.123S24.554,6.01,24.129,6.01z"/>
		<path style="fill:#2C50A2;" d="M30.464,4.916h1.313l1.075,3.022l1.157-3.022h0.804l1.137,2.988l1.076-2.988h1.322l-1.951,5.313
			h-0.851l-1.141-3.027l-1.175,3.027h-0.841L30.464,4.916z"/>
		<path style="fill:#2C50A2;" d="M39.632,2.729c0.236,0,0.437,0.084,0.605,0.254s0.252,0.375,0.252,0.615
			c0,0.238-0.082,0.44-0.25,0.607c-0.167,0.168-0.365,0.252-0.598,0.252c-0.237,0-0.442-0.086-0.61-0.256
			c-0.168-0.172-0.253-0.379-0.253-0.623c0-0.234,0.084-0.435,0.25-0.601C39.195,2.812,39.396,2.729,39.632,2.729z M38.962,4.916
			h1.341v5.313h-1.341V4.916z"/>
		<path style="fill:#2C50A2;" d="M41.685,2.958h1.342v1.958h0.796v1.147h-0.796v4.165h-1.342V6.063h-0.688V4.916h0.688V2.958z"/>
		<path style="fill:#2C50A2;" d="M44.546,2.865h1.332v2.588c0.262-0.225,0.526-0.393,0.792-0.506
			c0.266-0.111,0.534-0.168,0.807-0.168c0.53,0,0.977,0.182,1.341,0.547c0.312,0.316,0.468,0.779,0.468,1.392v3.511h-1.323V7.899
			c0-0.615-0.029-1.032-0.089-1.25c-0.059-0.218-0.159-0.381-0.302-0.488S47.253,6,47.044,6c-0.272,0-0.506,0.09-0.701,0.269
			c-0.196,0.179-0.331,0.423-0.406,0.732c-0.039,0.159-0.059,0.524-0.059,1.094v2.134h-1.332V2.865z"/>
		<path style="fill:#2C50A2;" d="M60.193,4.309L59.231,5.22c-0.655-0.688-1.393-1.031-2.21-1.031c-0.692,0-1.274,0.234-1.746,0.704
			c-0.475,0.469-0.71,1.047-0.71,1.734c0,0.479,0.104,0.904,0.313,1.276c0.209,0.371,0.506,0.663,0.89,0.874
			c0.383,0.213,0.809,0.318,1.276,0.318c0.399,0,0.765-0.074,1.095-0.223c0.331-0.148,0.694-0.418,1.092-0.809l0.932,0.967
			c-0.533,0.518-1.038,0.877-1.514,1.078c-0.475,0.199-1.017,0.3-1.626,0.3c-1.125,0-2.046-0.354-2.761-1.062
			c-0.716-0.709-1.074-1.615-1.074-2.723c0-0.717,0.163-1.353,0.488-1.909c0.326-0.557,0.794-1.005,1.401-1.343
			s1.263-0.508,1.965-0.508c0.596,0,1.17,0.125,1.723,0.375C59.317,3.49,59.794,3.847,60.193,4.309z"/>
		<path style="fill:#2C50A2;" d="M60.937,4.916h1.15v0.669c0.124-0.264,0.289-0.464,0.495-0.601
			c0.207-0.137,0.433-0.205,0.679-0.205c0.174,0,0.355,0.045,0.547,0.137l-0.419,1.147c-0.157-0.078-0.286-0.117-0.388-0.117
			c-0.206,0-0.382,0.127-0.524,0.381s-0.213,0.752-0.213,1.494l0.004,0.259v2.148h-1.331V4.916z"/>
		<path style="fill:#2C50A2;" d="M69.828,7.958h-4.311c0.063,0.378,0.229,0.678,0.499,0.901c0.271,0.223,0.615,0.334,1.035,0.334
			c0.502,0,0.932-0.174,1.292-0.522l1.131,0.527c-0.281,0.397-0.62,0.69-1.013,0.882c-0.394,0.189-0.859,0.285-1.4,0.285
			c-0.84,0-1.522-0.263-2.051-0.789c-0.527-0.525-0.791-1.184-0.791-1.975c0-0.811,0.263-1.483,0.789-2.02
			c0.526-0.535,1.186-0.803,1.979-0.803c0.842,0,1.527,0.268,2.055,0.803c0.527,0.536,0.792,1.243,0.792,2.122L69.828,7.958z
			 M68.487,6.908c-0.089-0.297-0.264-0.537-0.525-0.723C67.701,6,67.397,5.907,67.054,5.907c-0.373,0-0.702,0.104-0.985,0.313
			c-0.177,0.13-0.341,0.36-0.491,0.688H68.487z"/>
		<path style="fill:#2C50A2;" d="M74.862,2.865h1.343v7.363h-1.343V9.667c-0.262,0.247-0.523,0.426-0.787,0.534
			c-0.264,0.109-0.55,0.164-0.856,0.164c-0.691,0-1.288-0.266-1.794-0.799c-0.503-0.531-0.755-1.193-0.755-1.984
			c0-0.82,0.244-1.492,0.731-2.017c0.488-0.524,1.08-0.786,1.777-0.786c0.321,0,0.622,0.061,0.903,0.181s0.542,0.302,0.78,0.542
			V2.865z M73.452,6.01c-0.414,0-0.76,0.146-1.034,0.438c-0.274,0.291-0.411,0.664-0.411,1.12c0,0.459,0.14,0.837,0.419,1.133
			s0.623,0.444,1.03,0.444c0.422,0,0.771-0.146,1.05-0.438c0.278-0.291,0.415-0.672,0.415-1.145c0-0.463-0.137-0.836-0.415-1.123
			S73.877,6.01,73.452,6.01z"/>
		<path style="fill:#2C50A2;" d="M78.085,2.729c0.236,0,0.437,0.084,0.606,0.254c0.168,0.17,0.251,0.375,0.251,0.615
			c0,0.238-0.082,0.44-0.249,0.607c-0.168,0.168-0.366,0.252-0.599,0.252c-0.237,0-0.442-0.086-0.61-0.256
			c-0.168-0.172-0.253-0.379-0.253-0.623c0-0.234,0.084-0.435,0.25-0.601C77.648,2.812,77.85,2.729,78.085,2.729z M77.415,4.916
			h1.341v5.313h-1.341V4.916z"/>
		<path style="fill:#2C50A2;" d="M80.139,2.958h1.341v1.958h0.796v1.147h-0.796v4.165h-1.341V6.063H79.45V4.916h0.688V2.958z"/>
		<path style="fill:#2C50A2;" d="M91.046,5.99l-1.117,0.61c-0.21-0.218-0.416-0.37-0.622-0.454
			c-0.205-0.084-0.445-0.127-0.721-0.127c-0.502,0-0.908,0.148-1.219,0.446c-0.31,0.298-0.465,0.679-0.465,1.144
			c0,0.451,0.149,0.82,0.448,1.105c0.298,0.287,0.69,0.43,1.177,0.43c0.6,0,1.067-0.203,1.401-0.61l1.059,0.72
			c-0.573,0.74-1.383,1.111-2.429,1.111c-0.94,0-1.678-0.277-2.209-0.83c-0.532-0.553-0.8-1.201-0.8-1.943
			c0-0.514,0.13-0.988,0.39-1.421c0.259-0.433,0.619-0.772,1.083-1.021s0.982-0.371,1.556-0.371c0.531,0,1.009,0.105,1.432,0.314
			C90.433,5.305,90.777,5.604,91.046,5.99z"/>
		<path style="fill:#2C50A2;" d="M96.204,4.916h1.341v5.313h-1.341V9.667c-0.263,0.247-0.525,0.426-0.789,0.534
			c-0.264,0.109-0.548,0.164-0.857,0.164c-0.689,0-1.287-0.266-1.791-0.799c-0.504-0.531-0.757-1.193-0.757-1.984
			c0-0.82,0.243-1.492,0.731-2.017c0.487-0.524,1.081-0.786,1.777-0.786c0.321,0,0.622,0.061,0.904,0.181
			c0.281,0.12,0.541,0.302,0.781,0.542V4.916z M94.792,6.01c-0.415,0-0.759,0.146-1.033,0.438c-0.274,0.291-0.412,0.664-0.412,1.12
			c0,0.459,0.14,0.837,0.419,1.133s0.623,0.444,1.032,0.444c0.421,0,0.771-0.146,1.048-0.438c0.277-0.291,0.417-0.672,0.417-1.145
			c0-0.463-0.14-0.836-0.417-1.123S95.217,6.01,94.792,6.01z"/>
		<path style="fill:#2C50A2;" d="M98.587,4.916h1.15v0.669c0.125-0.264,0.291-0.464,0.498-0.601
			c0.206-0.137,0.433-0.205,0.678-0.205c0.174,0,0.355,0.045,0.545,0.137l-0.417,1.147c-0.157-0.078-0.287-0.117-0.389-0.117
			c-0.207,0-0.381,0.127-0.523,0.381s-0.214,0.752-0.214,1.494l0.006,0.259v2.148h-1.334V4.916z"/>
		<path style="fill:#2C50A2;" d="M106.069,2.865h1.343v7.363h-1.343V9.667c-0.262,0.247-0.524,0.426-0.787,0.534
			c-0.264,0.109-0.55,0.164-0.856,0.164c-0.691,0-1.288-0.266-1.794-0.799c-0.503-0.531-0.755-1.193-0.755-1.984
			c0-0.82,0.244-1.492,0.731-2.017c0.488-0.524,1.08-0.786,1.777-0.786c0.321,0,0.622,0.061,0.903,0.181s0.542,0.302,0.78,0.542
			V2.865z M104.659,6.01c-0.415,0-0.76,0.146-1.034,0.438c-0.274,0.291-0.411,0.664-0.411,1.12c0,0.459,0.14,0.837,0.419,1.133
			s0.622,0.444,1.03,0.444c0.422,0,0.771-0.146,1.05-0.438c0.278-0.291,0.415-0.672,0.415-1.145c0-0.463-0.137-0.836-0.415-1.123
			S105.084,6.01,104.659,6.01z"/>
	</g>
</g>
</svg>
