<?xml version="1.0" encoding="iso-8859-1"?>
<!-- Generator: Adobe Illustrator 16.0.0, SVG Export Plug-In . SVG Version: 6.00 Build 0)  -->
<!DOCTYPE svg PUBLIC "-//W3C//DTD SVG 1.1//EN" "http://www.w3.org/Graphics/SVG/1.1/DTD/svg11.dtd">
<svg version="1.1" id="&#x5716;&#x5C64;_1" xmlns="http://www.w3.org/2000/svg" xmlns:xlink="http://www.w3.org/1999/xlink" x="0px"
	 y="0px" width="116.128px" height="13.139px" viewBox="0 0 116.128 13.139" style="enable-background:new 0 0 116.128 13.139;"
	 xml:space="preserve">
<g>
	<g>
		<path style="fill:#E8C41D;" d="M109.357,0.001L109.357,0.001L109.357,0.001H6.771C3.032,0.001,0,2.942,0,6.569
			c0,3.629,3.032,6.57,6.771,6.57h102.585l0,0h0.001c3.739,0,6.771-2.941,6.771-6.57C116.128,2.942,113.097,0.001,109.357,0.001z"/>
	</g>
	<g>
		<path style="fill:#2C50A2;" d="M13.12,4.185l-0.963,0.953c-0.609-0.645-1.319-0.967-2.13-0.967c-0.708,0-1.3,0.234-1.777,0.703
			C7.773,5.343,7.534,5.913,7.534,6.583c0,0.693,0.247,1.281,0.743,1.762c0.495,0.482,1.105,0.723,1.833,0.723
			c0.472,0,0.87-0.098,1.194-0.297s0.586-0.51,0.785-0.934h-2.08V6.554h3.613l0.01,0.303c0,0.629-0.162,1.225-0.488,1.787
			s-0.747,0.992-1.265,1.289s-1.124,0.443-1.821,0.443c-0.746,0-1.41-0.162-1.994-0.484C7.479,9.567,7.018,9.106,6.678,8.507
			c-0.341-0.6-0.511-1.246-0.511-1.939c0-0.949,0.313-1.777,0.942-2.48c0.746-0.836,1.715-1.254,2.91-1.254
			c0.625,0,1.209,0.115,1.753,0.346C12.231,3.374,12.681,3.71,13.12,4.185z"/>
		<path style="fill:#2C50A2;" d="M15.262,2.696c0.233,0,0.434,0.084,0.601,0.254s0.251,0.375,0.251,0.615
			c0,0.238-0.083,0.439-0.248,0.607c-0.166,0.168-0.363,0.252-0.594,0.252c-0.237,0-0.439-0.086-0.607-0.256
			c-0.166-0.172-0.25-0.379-0.25-0.623c0-0.234,0.082-0.436,0.248-0.602S15.027,2.696,15.262,2.696z M14.595,4.884h1.333v5.313
			h-1.333V4.884z"/>
		<path style="fill:#2C50A2;" d="M16.57,4.884h1.357l1.342,3.135l1.34-3.135h1.352l-2.262,5.313h-0.863L16.57,4.884z"/>
		<path style="fill:#2C50A2;" d="M28.062,7.925h-4.282c0.063,0.379,0.227,0.678,0.496,0.902c0.268,0.223,0.611,0.334,1.027,0.334
			c0.498,0,0.926-0.174,1.284-0.523l1.123,0.527c-0.28,0.398-0.615,0.691-1.006,0.883c-0.391,0.189-0.854,0.285-1.392,0.285
			c-0.834,0-1.512-0.264-2.036-0.789S22.49,8.36,22.49,7.569c0-0.811,0.262-1.484,0.783-2.02c0.523-0.535,1.178-0.803,1.966-0.803
			c0.837,0,1.517,0.268,2.041,0.803s0.786,1.242,0.786,2.121L28.062,7.925z M26.729,6.876c-0.088-0.297-0.262-0.537-0.521-0.723
			c-0.259-0.186-0.56-0.279-0.902-0.279c-0.371,0-0.697,0.105-0.978,0.313c-0.177,0.131-0.339,0.361-0.489,0.689H26.729z"/>
		<path style="fill:#2C50A2;" d="M35.19,5.626L34.365,6.45c-0.336-0.332-0.64-0.498-0.913-0.498c-0.149,0-0.267,0.033-0.352,0.096
			c-0.085,0.064-0.127,0.143-0.127,0.236c0,0.072,0.026,0.139,0.081,0.199c0.053,0.059,0.186,0.143,0.397,0.246l0.488,0.244
			c0.515,0.254,0.868,0.512,1.06,0.775s0.288,0.574,0.288,0.928c0,0.473-0.173,0.867-0.521,1.182
			c-0.346,0.316-0.811,0.475-1.394,0.475c-0.774,0-1.394-0.303-1.855-0.908l0.82-0.895c0.156,0.184,0.339,0.33,0.55,0.443
			c0.209,0.111,0.396,0.168,0.559,0.168c0.176,0,0.317-0.043,0.425-0.127s0.161-0.182,0.161-0.293c0-0.205-0.193-0.406-0.581-0.602
			l-0.449-0.225c-0.859-0.432-1.289-0.975-1.289-1.625c0-0.42,0.162-0.779,0.485-1.076c0.324-0.299,0.738-0.447,1.243-0.447
			c0.345,0,0.67,0.076,0.974,0.227C34.721,5.126,34.979,5.343,35.19,5.626z"/>
		<path style="fill:#2C50A2;" d="M38.833,4.747c0.501,0,0.973,0.125,1.413,0.375c0.441,0.252,0.785,0.592,1.033,1.021
			s0.371,0.893,0.371,1.391c0,0.502-0.125,0.971-0.373,1.406c-0.25,0.438-0.589,0.777-1.019,1.023s-0.903,0.369-1.421,0.369
			c-0.762,0-1.412-0.271-1.951-0.813c-0.538-0.543-0.808-1.201-0.808-1.977c0-0.83,0.304-1.521,0.913-2.074
			C37.525,4.987,38.14,4.747,38.833,4.747z M38.855,6.001c-0.414,0-0.76,0.145-1.035,0.434c-0.275,0.287-0.413,0.656-0.413,1.105
			c0,0.463,0.136,0.836,0.408,1.123s0.617,0.43,1.034,0.43c0.418,0,0.766-0.145,1.043-0.436c0.276-0.289,0.415-0.662,0.415-1.117
			s-0.136-0.826-0.408-1.111S39.279,6.001,38.855,6.001z"/>
		<path style="fill:#2C50A2;" d="M42.729,4.884h1.333v0.609c0.229-0.25,0.481-0.438,0.76-0.561s0.582-0.186,0.911-0.186
			c0.333,0,0.632,0.082,0.899,0.244s0.482,0.4,0.645,0.713c0.212-0.313,0.472-0.551,0.779-0.713c0.309-0.162,0.645-0.244,1.01-0.244
			c0.377,0,0.71,0.088,0.996,0.264c0.287,0.176,0.493,0.404,0.619,0.688c0.125,0.283,0.188,0.744,0.188,1.383v3.115h-1.343V7.501
			c0-0.602-0.075-1.01-0.225-1.223c-0.149-0.215-0.374-0.32-0.674-0.32c-0.228,0-0.433,0.064-0.612,0.195
			c-0.182,0.131-0.315,0.311-0.403,0.539c-0.088,0.23-0.132,0.598-0.132,1.105v2.398h-1.343V7.622c0-0.475-0.035-0.818-0.104-1.031
			c-0.07-0.215-0.176-0.373-0.316-0.477s-0.311-0.156-0.51-0.156c-0.221,0-0.423,0.066-0.604,0.197
			c-0.182,0.133-0.316,0.316-0.406,0.555s-0.135,0.611-0.135,1.123v2.363h-1.333V4.884z"/>
		<path style="fill:#2C50A2;" d="M57.461,7.925h-4.282c0.062,0.379,0.228,0.678,0.495,0.902c0.27,0.223,0.611,0.334,1.028,0.334
			c0.498,0,0.927-0.174,1.284-0.523l1.123,0.527c-0.279,0.398-0.615,0.691-1.006,0.883c-0.391,0.189-0.854,0.285-1.392,0.285
			c-0.833,0-1.513-0.264-2.036-0.789S51.89,8.36,51.89,7.569c0-0.811,0.261-1.484,0.784-2.02c0.521-0.535,1.178-0.803,1.965-0.803
			c0.836,0,1.518,0.268,2.041,0.803s0.786,1.242,0.786,2.121L57.461,7.925z M56.128,6.876c-0.088-0.297-0.262-0.537-0.521-0.723
			c-0.26-0.186-0.561-0.279-0.902-0.279c-0.372,0-0.698,0.105-0.979,0.313c-0.176,0.131-0.34,0.361-0.489,0.689H56.128z"/>
		<path style="fill:#2C50A2;" d="M66.538,5.958l-1.11,0.609c-0.208-0.217-0.414-0.369-0.617-0.453
			c-0.204-0.084-0.443-0.127-0.717-0.127c-0.498,0-0.902,0.148-1.21,0.445c-0.308,0.299-0.462,0.68-0.462,1.145
			c0,0.451,0.148,0.82,0.445,1.105c0.296,0.287,0.686,0.43,1.168,0.43c0.596,0,1.061-0.203,1.393-0.611l1.052,0.721
			c-0.569,0.74-1.374,1.111-2.412,1.111c-0.935,0-1.666-0.277-2.194-0.83c-0.529-0.553-0.794-1.201-0.794-1.943
			c0-0.514,0.128-0.988,0.386-1.422c0.258-0.432,0.616-0.771,1.076-1.02c0.461-0.248,0.977-0.371,1.546-0.371
			c0.527,0,1.001,0.105,1.421,0.314C65.928,5.272,66.271,5.571,66.538,5.958z"/>
		<path style="fill:#2C50A2;" d="M70.234,4.747c0.502,0,0.973,0.125,1.414,0.375c0.44,0.252,0.785,0.592,1.032,1.021
			s0.371,0.893,0.371,1.391c0,0.502-0.124,0.971-0.374,1.406C72.43,9.378,72.09,9.718,71.66,9.964s-0.903,0.369-1.421,0.369
			c-0.762,0-1.412-0.271-1.95-0.813C67.75,8.978,67.48,8.319,67.48,7.544c0-0.83,0.305-1.521,0.913-2.074
			C68.928,4.987,69.541,4.747,70.234,4.747z M70.256,6.001c-0.414,0-0.758,0.145-1.034,0.434c-0.275,0.287-0.413,0.656-0.413,1.105
			c0,0.463,0.137,0.836,0.408,1.123c0.272,0.287,0.617,0.43,1.035,0.43c0.417,0,0.764-0.145,1.041-0.436
			c0.277-0.289,0.416-0.662,0.416-1.117s-0.137-0.826-0.408-1.111C71.028,6.144,70.68,6.001,70.256,6.001z"/>
		<path style="fill:#2C50A2;" d="M74.131,4.884h1.333v0.609c0.228-0.25,0.481-0.438,0.76-0.561s0.583-0.186,0.911-0.186
			c0.332,0,0.633,0.082,0.899,0.244s0.481,0.4,0.646,0.713c0.211-0.313,0.471-0.551,0.779-0.713
			c0.307-0.162,0.644-0.244,1.008-0.244c0.379,0,0.711,0.088,0.998,0.264c0.286,0.176,0.492,0.404,0.617,0.688
			c0.126,0.283,0.188,0.744,0.188,1.383v3.115h-1.343V7.501c0-0.602-0.074-1.01-0.225-1.223c-0.15-0.215-0.375-0.32-0.674-0.32
			c-0.229,0-0.432,0.064-0.613,0.195c-0.18,0.131-0.314,0.311-0.402,0.539c-0.088,0.23-0.132,0.598-0.132,1.105v2.398h-1.343V7.622
			c0-0.475-0.035-0.818-0.105-1.031c-0.07-0.215-0.176-0.373-0.315-0.477s-0.31-0.156-0.509-0.156c-0.223,0-0.424,0.066-0.604,0.197
			c-0.181,0.133-0.317,0.316-0.406,0.555c-0.09,0.238-0.135,0.611-0.135,1.123v2.363h-1.333V4.884z"/>
		<path style="fill:#2C50A2;" d="M83.53,4.884h1.333v0.609c0.229-0.25,0.481-0.438,0.76-0.561s0.582-0.186,0.911-0.186
			c0.333,0,0.632,0.082,0.899,0.244s0.482,0.4,0.645,0.713c0.212-0.313,0.472-0.551,0.779-0.713c0.309-0.162,0.645-0.244,1.01-0.244
			c0.377,0,0.71,0.088,0.996,0.264c0.287,0.176,0.493,0.404,0.619,0.688c0.125,0.283,0.188,0.744,0.188,1.383v3.115h-1.343V7.501
			c0-0.602-0.075-1.01-0.225-1.223c-0.149-0.215-0.374-0.32-0.674-0.32c-0.228,0-0.433,0.064-0.612,0.195
			c-0.182,0.131-0.315,0.311-0.403,0.539c-0.088,0.23-0.132,0.598-0.132,1.105v2.398h-1.343V7.622c0-0.475-0.035-0.818-0.104-1.031
			c-0.07-0.215-0.176-0.373-0.316-0.477s-0.311-0.156-0.51-0.156c-0.221,0-0.423,0.066-0.604,0.197
			c-0.182,0.133-0.316,0.316-0.406,0.555s-0.135,0.611-0.135,1.123v2.363H83.53V4.884z"/>
		<path style="fill:#2C50A2;" d="M98.262,7.925h-4.282c0.062,0.379,0.228,0.678,0.495,0.902c0.27,0.223,0.611,0.334,1.028,0.334
			c0.498,0,0.927-0.174,1.284-0.523l1.123,0.527c-0.279,0.398-0.615,0.691-1.006,0.883c-0.391,0.189-0.854,0.285-1.392,0.285
			c-0.833,0-1.513-0.264-2.036-0.789S92.69,8.36,92.69,7.569c0-0.811,0.261-1.484,0.784-2.02c0.521-0.535,1.178-0.803,1.965-0.803
			c0.836,0,1.518,0.268,2.041,0.803s0.786,1.242,0.786,2.121L98.262,7.925z M96.929,6.876c-0.088-0.297-0.262-0.537-0.521-0.723
			c-0.26-0.186-0.561-0.279-0.902-0.279c-0.372,0-0.698,0.105-0.979,0.313c-0.176,0.131-0.34,0.361-0.489,0.689H96.929z"/>
		<path style="fill:#2C50A2;" d="M99.341,4.884h1.333v0.545c0.303-0.256,0.576-0.434,0.821-0.533s0.497-0.148,0.753-0.148
			c0.527,0,0.975,0.184,1.342,0.551c0.309,0.313,0.463,0.775,0.463,1.387v3.512h-1.318V7.87c0-0.635-0.028-1.055-0.086-1.264
			c-0.057-0.209-0.155-0.367-0.297-0.475c-0.141-0.109-0.315-0.164-0.523-0.164c-0.27,0-0.501,0.09-0.693,0.27
			c-0.193,0.182-0.328,0.432-0.402,0.75c-0.039,0.166-0.059,0.525-0.059,1.078v2.131h-1.333V4.884z"/>
		<path style="fill:#2C50A2;" d="M105.503,2.925h1.333v1.959h0.791V6.03h-0.791v4.166h-1.333V6.03h-0.684V4.884h0.684V2.925z"/>
		<path style="fill:#2C50A2;" d="M111.592,5.626l-0.825,0.824c-0.335-0.332-0.64-0.498-0.913-0.498c-0.15,0-0.268,0.033-0.352,0.096
			c-0.084,0.064-0.127,0.143-0.127,0.236c0,0.072,0.027,0.139,0.08,0.199c0.055,0.059,0.188,0.143,0.398,0.246l0.488,0.244
			c0.514,0.254,0.867,0.512,1.06,0.775s0.288,0.574,0.288,0.928c0,0.473-0.174,0.867-0.52,1.182
			c-0.348,0.316-0.813,0.475-1.395,0.475c-0.775,0-1.393-0.303-1.855-0.908l0.82-0.895c0.156,0.184,0.34,0.33,0.549,0.443
			c0.211,0.111,0.396,0.168,0.56,0.168c0.176,0,0.317-0.043,0.425-0.127s0.161-0.182,0.161-0.293c0-0.205-0.194-0.406-0.581-0.602
			l-0.449-0.225c-0.859-0.432-1.289-0.975-1.289-1.625c0-0.42,0.162-0.779,0.486-1.076c0.323-0.299,0.738-0.447,1.242-0.447
			c0.346,0,0.67,0.076,0.975,0.227C111.122,5.126,111.381,5.343,111.592,5.626z"/>
	</g>
</g>
</svg>
