<?xml version="1.0" encoding="iso-8859-1"?>
<!-- Generator: Adobe Illustrator 16.0.0, SVG Export Plug-In . SVG Version: 6.00 Build 0)  -->
<!DOCTYPE svg PUBLIC "-//W3C//DTD SVG 1.1//EN" "http://www.w3.org/Graphics/SVG/1.1/DTD/svg11.dtd">
<svg version="1.1" id="&#x5716;&#x5C64;_1" xmlns="http://www.w3.org/2000/svg" xmlns:xlink="http://www.w3.org/1999/xlink" x="0px"
	 y="0px" width="26px" height="25.998px" viewBox="0 0 26 25.998" style="enable-background:new 0 0 26 25.998;"
	 xml:space="preserve">
<g>
	<g>
		<path style="fill:#FFFFFF;stroke:#036EB8;stroke-miterlimit:10;" d="M25.499,17.998c0,4.143-3.357,7.5-7.5,7.5h-10
			c-4.143,0-7.5-3.357-7.5-7.5v-10c0-4.143,3.357-7.498,7.5-7.498h10c4.143,0,7.5,3.355,7.5,7.498V17.998z"/>
	</g>
	<g>
		<path style="opacity:0.5;fill:#036EB8;" d="M12.431,19.798H5.19c0-3.475,1.623-6.289,3.621-6.289
			C10.812,13.509,12.431,16.324,12.431,19.798z"/>
		<path style="opacity:0.5;fill:#036EB8;" d="M20.808,19.798h-7.238c0-3.475,1.619-6.289,3.621-6.289
			C19.187,13.509,20.808,16.324,20.808,19.798z"/>
		<path style="fill:#036EB8;" d="M17.222,19.798H8.778c0-4.301,1.891-7.785,4.223-7.785C15.331,12.013,17.222,15.498,17.222,19.798z
			"/>
		<ellipse style="opacity:0.5;fill:#036EB8;" cx="8.795" cy="10.621" rx="2.896" ry="2.4"/>
		<ellipse style="opacity:0.5;fill:#036EB8;" cx="17.205" cy="10.621" rx="2.896" ry="2.4"/>
		<ellipse style="fill:#036EB8;" cx="12.984" cy="8.599" rx="2.896" ry="2.4"/>
	</g>
</g>
</svg>
