<?xml version="1.0" encoding="iso-8859-1"?>
<!-- Generator: Adobe Illustrator 16.0.0, SVG Export Plug-In . SVG Version: 6.00 Build 0)  -->
<!DOCTYPE svg PUBLIC "-//W3C//DTD SVG 1.1//EN" "http://www.w3.org/Graphics/SVG/1.1/DTD/svg11.dtd">
<svg version="1.1" id="&#x5716;&#x5C64;_1" xmlns="http://www.w3.org/2000/svg" xmlns:xlink="http://www.w3.org/1999/xlink" x="0px"
	 y="0px" width="26px" height="25.998px" viewBox="0 0 26 25.998" style="enable-background:new 0 0 26 25.998;"
	 xml:space="preserve">
<g>
	<g>
		<path style="fill:#FFFFFF;stroke:#036EB8;stroke-miterlimit:10;" d="M25.499,17.998c0,4.143-3.357,7.5-7.5,7.5h-10
			c-4.143,0-7.5-3.357-7.5-7.5v-10c0-4.143,3.357-7.498,7.5-7.498h10c4.143,0,7.5,3.355,7.5,7.498V17.998z"/>
	</g>
	<g>
		<path style="fill:#036EB8;" d="M16.476,6.13c-1.428,0-2.693,0.697-3.477,1.771C12.218,6.828,10.952,6.13,9.522,6.13
			c-2.375,0-4.299,1.924-4.299,4.299c0,3.613,7.775,9.438,7.775,9.438s7.775-5.824,7.775-9.438
			C20.774,8.054,18.851,6.13,16.476,6.13z"/>
	</g>
</g>
</svg>
