<?xml version="1.0" encoding="iso-8859-1"?>
<!-- Generator: Adobe Illustrator 16.0.0, SVG Export Plug-In . SVG Version: 6.00 Build 0)  -->
<!DOCTYPE svg PUBLIC "-//W3C//DTD SVG 1.1//EN" "http://www.w3.org/Graphics/SVG/1.1/DTD/svg11.dtd">
<svg version="1.1" id="&#x5716;&#x5C64;_1" xmlns="http://www.w3.org/2000/svg" xmlns:xlink="http://www.w3.org/1999/xlink" x="0px"
	 y="0px" width="26px" height="25.998px" viewBox="0 0 26 25.998" style="enable-background:new 0 0 26 25.998;"
	 xml:space="preserve">
<g>
	<g>
		<path style="fill:#036EB8;stroke:#036EB8;stroke-miterlimit:10;" d="M25.5,17.998c0,4.143-3.357,7.5-7.5,7.5H8
			c-4.143,0-7.5-3.357-7.5-7.5v-10C0.5,3.855,3.857,0.5,8,0.5h10c4.143,0,7.5,3.355,7.5,7.498V17.998z"/>
	</g>
	<g>
		<path style="fill:#FFFFFF;" d="M16.477,6.131c-1.428,0-2.693,0.697-3.477,1.771c-0.781-1.074-2.047-1.771-3.477-1.771
			c-2.375,0-4.299,1.924-4.299,4.299c0,3.613,7.775,9.438,7.775,9.438s7.775-5.824,7.775-9.438
			C20.775,8.055,18.852,6.131,16.477,6.131z"/>
	</g>
</g>
</svg>
