<?xml version="1.0" encoding="iso-8859-1"?>
<!-- Generator: Adobe Illustrator 16.0.0, SVG Export Plug-In . SVG Version: 6.00 Build 0)  -->
<!DOCTYPE svg PUBLIC "-//W3C//DTD SVG 1.1//EN" "http://www.w3.org/Graphics/SVG/1.1/DTD/svg11.dtd">
<svg version="1.1" id="&#x5716;&#x5C64;_1" xmlns="http://www.w3.org/2000/svg" xmlns:xlink="http://www.w3.org/1999/xlink" x="0px"
	 y="0px" width="26px" height="25.998px" viewBox="0 0 26 25.998" style="enable-background:new 0 0 26 25.998;"
	 xml:space="preserve">
<g>
	<g>
		<path style="fill:#036EB8;stroke:#036EB8;stroke-miterlimit:10;" d="M25.5,17.998c0,4.143-3.357,7.5-7.5,7.5H8
			c-4.143,0-7.5-3.357-7.5-7.5v-10C0.5,3.855,3.857,0.5,8,0.5h10c4.143,0,7.5,3.355,7.5,7.498V17.998z"/>
	</g>
	<g>
		<path style="opacity:0.5;fill:#FFFFFF;" d="M12.432,19.799h-7.24c0-3.475,1.623-6.289,3.621-6.289
			C10.813,13.51,12.432,16.324,12.432,19.799z"/>
		<path style="opacity:0.5;fill:#FFFFFF;" d="M20.809,19.799H13.57c0-3.475,1.619-6.289,3.621-6.289
			C19.188,13.51,20.809,16.324,20.809,19.799z"/>
		<path style="fill:#FFFFFF;" d="M17.223,19.799H8.779c0-4.301,1.891-7.785,4.223-7.785C15.332,12.014,17.223,15.498,17.223,19.799z
			"/>
		<ellipse style="opacity:0.5;fill:#FFFFFF;" cx="8.796" cy="10.621" rx="2.896" ry="2.4"/>
		<ellipse style="opacity:0.5;fill:#FFFFFF;" cx="17.206" cy="10.621" rx="2.896" ry="2.4"/>
		<ellipse style="fill:#FFFFFF;" cx="12.985" cy="8.6" rx="2.896" ry="2.4"/>
	</g>
</g>
</svg>
