<?xml version="1.0" encoding="iso-8859-1"?>
<!-- Generator: Adobe Illustrator 16.0.0, SVG Export Plug-In . SVG Version: 6.00 Build 0)  -->
<!DOCTYPE svg PUBLIC "-//W3C//DTD SVG 1.1//EN" "http://www.w3.org/Graphics/SVG/1.1/DTD/svg11.dtd">
<svg version="1.1" id="&#x5716;&#x5C64;_1" xmlns="http://www.w3.org/2000/svg" xmlns:xlink="http://www.w3.org/1999/xlink" x="0px"
	 y="0px" width="16.069px" height="56.365px" viewBox="0 0 16.069 56.365" style="enable-background:new 0 0 16.069 56.365;"
	 xml:space="preserve">
<g>
	<g>
		<g>
			<polygon style="fill:#2C50A2;" points="0.125,28.355 0.125,9.622 15.944,0.22 15.944,6.49 5.4,12.759 5.4,20.588 10.668,17.451 
				10.668,22.162 			"/>
			<polygon style="fill:#E8C41D;" points="10.668,23.717 0.125,29.983 0.125,36.255 15.944,26.851 15.944,8.044 5.4,14.312 
				5.4,19.025 10.668,15.893 			"/>
			<polygon style="fill:#F08719;" points="5.4,19.025 5.4,20.588 10.668,17.451 10.668,15.893 			"/>
		</g>
		<g>
			<polygon style="fill:none;stroke:#FFFFFF;stroke-width:0.25;stroke-miterlimit:10;" points="0.125,28.357 0.125,9.624 
				15.944,0.22 15.944,6.493 5.4,12.761 5.4,20.588 10.668,17.455 10.668,22.165 			"/>
			<polygon style="fill:none;stroke:#FFFFFF;stroke-width:0.25;stroke-miterlimit:10;" points="10.668,23.717 0.125,29.983 
				0.125,36.257 15.944,26.853 15.944,8.044 5.4,14.313 5.4,19.025 10.668,15.893 			"/>
			<polygon style="fill:none;stroke:#FFFFFF;stroke-width:0.25;stroke-miterlimit:10;" points="5.4,19.025 5.4,20.588 
				10.668,17.455 10.668,15.893 			"/>
		</g>
	</g>
	<polygon style="fill:#F08719;" points="15.842,28.659 8.034,56.365 0.227,37.923 	"/>
</g>
</svg>
