<?xml version="1.0" encoding="iso-8859-1"?>
<!-- Generator: Adobe Illustrator 16.0.0, SVG Export Plug-In . SVG Version: 6.00 Build 0)  -->
<!DOCTYPE svg PUBLIC "-//W3C//DTD SVG 1.1//EN" "http://www.w3.org/Graphics/SVG/1.1/DTD/svg11.dtd">
<svg version="1.1" id="&#x5716;&#x5C64;_1" xmlns="http://www.w3.org/2000/svg" xmlns:xlink="http://www.w3.org/1999/xlink" x="0px"
	 y="0px" width="11.84px" height="41.356px" viewBox="0 0 11.84 41.356" style="enable-background:new 0 0 11.84 41.356;"
	 xml:space="preserve">
<g>
	<g>
		<g>
			<polygon style="fill:#2C50A2;" points="0.125,20.833 0.125,7.108 11.715,0.22 11.715,4.814 3.99,9.407 3.99,15.143 7.85,12.845 
				7.85,16.295 			"/>
			<polygon style="fill:#E8C41D;" points="7.85,17.435 0.125,22.027 0.125,26.622 11.715,19.731 11.715,5.953 3.99,10.544 
				3.99,13.998 7.85,11.703 			"/>
			<polygon style="fill:#F08719;" points="3.99,13.998 3.99,15.143 7.85,12.845 7.85,11.703 			"/>
		</g>
		<g>
			<polygon style="fill:none;stroke:#FFFFFF;stroke-width:0.25;stroke-miterlimit:10;" points="0.125,20.835 0.125,7.109 
				11.715,0.22 11.715,4.815 3.99,9.408 3.99,15.143 7.85,12.848 7.85,16.299 			"/>
			<polygon style="fill:none;stroke:#FFFFFF;stroke-width:0.25;stroke-miterlimit:10;" points="7.85,17.435 0.125,22.027 
				0.125,26.624 11.715,19.733 11.715,5.953 3.99,10.546 3.99,13.998 7.85,11.703 			"/>
			<polygon style="fill:none;stroke:#FFFFFF;stroke-width:0.25;stroke-miterlimit:10;" points="3.99,13.998 3.99,15.143 
				7.85,12.848 7.85,11.703 			"/>
		</g>
	</g>
	<polygon style="fill:#F08719;" points="11.64,21.057 5.92,41.356 0.2,27.844 	"/>
</g>
</svg>
