<?xml version="1.0" encoding="iso-8859-1"?>
<!-- Generator: Adobe Illustrator 16.0.0, SVG Export Plug-In . SVG Version: 6.00 Build 0)  -->
<!DOCTYPE svg PUBLIC "-//W3C//DTD SVG 1.1//EN" "http://www.w3.org/Graphics/SVG/1.1/DTD/svg11.dtd">
<svg version="1.1" id="&#x5716;&#x5C64;_1" xmlns="http://www.w3.org/2000/svg" xmlns:xlink="http://www.w3.org/1999/xlink" x="0px"
	 y="0px" width="291.756px" height="53.848px" viewBox="0 0 291.756 53.848" style="enable-background:new 0 0 291.756 53.848;"
	 xml:space="preserve">
<g>
	<g>
		<g>
			<g>
				<rect x="141.342" y="7.797" style="fill:#2C50A2;" width="3.464" height="0.998"/>
				<rect x="141.855" y="7.797" style="fill:#2E51A2;" width="3.465" height="0.998"/>
				<rect x="142.369" y="7.797" style="fill:#2F51A2;" width="3.465" height="0.998"/>
				<rect x="142.884" y="7.797" style="fill:#3052A2;" width="3.464" height="0.998"/>
				<rect x="143.396" y="7.797" style="fill:#3253A2;" width="3.465" height="0.998"/>
				<rect x="143.911" y="7.797" style="fill:#3353A2;" width="3.464" height="0.998"/>
				<rect x="144.425" y="7.797" style="fill:#3454A2;" width="3.464" height="0.998"/>
				<rect x="144.939" y="7.797" style="fill:#3654A2;" width="3.463" height="0.998"/>
				<rect x="145.453" y="7.797" style="fill:#3755A2;" width="3.463" height="0.998"/>
				<rect x="145.967" y="7.797" style="fill:#3856A2;" width="3.463" height="0.998"/>
				<rect x="146.48" y="7.797" style="fill:#3956A2;" width="3.464" height="0.998"/>
				<rect x="146.994" y="7.797" style="fill:#3A57A2;" width="3.464" height="0.998"/>
				<rect x="147.508" y="7.797" style="fill:#3C57A2;" width="3.464" height="0.998"/>
				<rect x="148.021" y="7.797" style="fill:#3D58A2;" width="3.465" height="0.998"/>
				<rect x="148.535" y="7.797" style="fill:#3E59A2;" width="3.465" height="0.998"/>
				<rect x="149.049" y="7.797" style="fill:#3F59A2;" width="3.465" height="0.998"/>
				<rect x="149.563" y="7.797" style="fill:#405AA2;" width="3.465" height="0.998"/>
				<rect x="150.076" y="7.797" style="fill:#415AA2;" width="3.465" height="0.998"/>
				<rect x="150.591" y="7.797" style="fill:#425BA2;" width="3.464" height="0.998"/>
				<rect x="151.105" y="7.797" style="fill:#445CA2;" width="3.463" height="0.998"/>
				<rect x="151.619" y="7.797" style="fill:#455CA2;" width="3.463" height="0.998"/>
				<rect x="152.133" y="7.797" style="fill:#465DA2;" width="3.463" height="0.998"/>
				<rect x="152.646" y="7.797" style="fill:#475DA2;" width="3.463" height="0.998"/>
				<rect x="153.16" y="7.797" style="fill:#485EA2;" width="3.463" height="0.998"/>
				<rect x="153.674" y="7.797" style="fill:#495FA2;" width="3.464" height="0.998"/>
				<rect x="154.188" y="7.797" style="fill:#4B5FA2;" width="3.464" height="0.998"/>
				<rect x="154.701" y="7.797" style="fill:#4C60A2;" width="3.464" height="0.998"/>
				<rect x="155.215" y="7.797" style="fill:#4D61A2;" width="3.464" height="0.998"/>
				<rect x="155.729" y="7.797" style="fill:#4E61A2;" width="3.465" height="0.998"/>
				<rect x="156.243" y="7.797" style="fill:#4F62A2;" width="3.464" height="0.998"/>
				<rect x="156.756" y="7.797" style="fill:#5062A2;" width="3.465" height="0.998"/>
				<rect x="157.271" y="7.797" style="fill:#5163A2;" width="3.464" height="0.998"/>
				<rect x="157.784" y="7.797" style="fill:#5264A2;" width="3.464" height="0.998"/>
				<rect x="158.298" y="7.797" style="fill:#5364A2;" width="3.464" height="0.998"/>
				<rect x="158.812" y="7.797" style="fill:#5565A2;" width="3.464" height="0.998"/>
				<rect x="159.326" y="7.797" style="fill:#5666A2;" width="3.463" height="0.998"/>
				<rect x="159.84" y="7.797" style="fill:#5766A2;" width="3.463" height="0.998"/>
				<rect x="160.354" y="7.797" style="fill:#5867A2;" width="3.463" height="0.998"/>
				<rect x="160.867" y="7.797" style="fill:#5968A2;" width="3.463" height="0.998"/>
				<rect x="161.381" y="7.797" style="fill:#5A68A2;" width="3.465" height="0.998"/>
				<rect x="161.895" y="7.797" style="fill:#5B69A2;" width="3.465" height="0.998"/>
				<rect x="162.408" y="7.797" style="fill:#5C6AA2;" width="3.464" height="0.998"/>
				<rect x="162.922" y="7.797" style="fill:#5D6AA1;" width="3.465" height="0.998"/>
				<rect x="163.436" y="7.797" style="fill:#5E6BA1;" width="3.465" height="0.998"/>
				<rect x="163.949" y="7.797" style="fill:#5F6CA1;" width="3.465" height="0.998"/>
				<rect x="164.464" y="7.797" style="fill:#606CA1;" width="3.464" height="0.998"/>
				<rect x="164.978" y="7.797" style="fill:#616DA1;" width="3.464" height="0.998"/>
				<rect x="165.491" y="7.797" style="fill:#626EA1;" width="3.464" height="0.998"/>
				<rect x="166.005" y="7.797" style="fill:#636EA1;" width="3.464" height="0.998"/>
				<rect x="166.52" y="7.797" style="fill:#646FA1;" width="3.463" height="0.998"/>
				<rect x="167.033" y="7.797" style="fill:#656FA1;" width="3.463" height="0.998"/>
				<rect x="167.547" y="7.797" style="fill:#6670A1;" width="3.463" height="0.998"/>
				<rect x="168.061" y="7.797" style="fill:#6771A1;" width="3.463" height="0.998"/>
				<rect x="168.574" y="7.797" style="fill:#6871A1;" width="3.463" height="0.998"/>
				<rect x="169.088" y="7.797" style="fill:#6972A1;" width="3.465" height="0.998"/>
				<rect x="169.602" y="7.797" style="fill:#6A73A1;" width="3.465" height="0.998"/>
				<rect x="170.115" y="7.797" style="fill:#6B73A0;" width="3.465" height="0.998"/>
				<rect x="170.629" y="7.797" style="fill:#6C74A0;" width="3.465" height="0.998"/>
				<rect x="171.143" y="7.797" style="fill:#6D75A0;" width="3.465" height="0.998"/>
				<rect x="171.657" y="7.797" style="fill:#6E75A0;" width="3.464" height="0.998"/>
				<rect x="172.171" y="7.797" style="fill:#6F76A0;" width="3.464" height="0.998"/>
				<rect x="172.686" y="7.797" style="fill:#7077A0;" width="3.463" height="0.998"/>
				<rect x="173.198" y="7.797" style="fill:#7177A0;" width="3.464" height="0.998"/>
				<rect x="173.713" y="7.797" style="fill:#7278A0;" width="3.463" height="0.998"/>
				<rect x="174.227" y="7.797" style="fill:#7379A0;" width="3.463" height="0.998"/>
				<rect x="174.74" y="7.797" style="fill:#73799F;" width="3.463" height="0.998"/>
				<rect x="175.254" y="7.797" style="fill:#747A9F;" width="3.464" height="0.998"/>
				<rect x="175.768" y="7.797" style="fill:#757B9F;" width="3.464" height="0.998"/>
				<rect x="176.281" y="7.797" style="fill:#767B9F;" width="3.464" height="0.998"/>
				<rect x="176.795" y="7.797" style="fill:#777C9F;" width="3.464" height="0.998"/>
				<rect x="177.309" y="7.797" style="fill:#787D9F;" width="3.465" height="0.998"/>
				<rect x="177.822" y="7.797" style="fill:#797D9F;" width="3.465" height="0.998"/>
				<rect x="178.336" y="7.797" style="fill:#7A7E9F;" width="3.465" height="0.998"/>
				<rect x="178.85" y="7.797" style="fill:#7B7F9E;" width="3.465" height="0.998"/>
				<rect x="179.364" y="7.797" style="fill:#7C7F9E;" width="3.464" height="0.998"/>
				<rect x="179.878" y="7.797" style="fill:#7D809E;" width="3.464" height="0.998"/>
				<rect x="180.392" y="7.797" style="fill:#7E819E;" width="3.464" height="0.998"/>
				<rect x="180.905" y="7.797" style="fill:#7F819E;" width="3.464" height="0.998"/>
				<rect x="181.42" y="7.797" style="fill:#80829E;" width="3.463" height="0.998"/>
				<rect x="181.934" y="7.797" style="fill:#81839E;" width="3.463" height="0.998"/>
				<rect x="182.447" y="7.797" style="fill:#82839D;" width="3.463" height="0.998"/>
				<rect x="182.961" y="7.797" style="fill:#83849D;" width="3.463" height="0.998"/>
				<rect x="183.475" y="7.797" style="fill:#84859D;" width="3.464" height="0.998"/>
				<rect x="183.988" y="7.797" style="fill:#85859D;" width="3.464" height="0.998"/>
				<rect x="184.502" y="7.797" style="fill:#85869D;" width="3.464" height="0.998"/>
				<rect x="185.016" y="7.797" style="fill:#86879D;" width="3.465" height="0.998"/>
				<rect x="185.529" y="7.797" style="fill:#87889C;" width="3.465" height="0.998"/>
				<rect x="186.043" y="7.797" style="fill:#88889C;" width="3.465" height="0.998"/>
				<rect x="186.558" y="7.797" style="fill:#89899C;" width="3.464" height="0.998"/>
				<rect x="187.071" y="7.797" style="fill:#8A8A9C;" width="3.464" height="0.998"/>
				<rect x="187.585" y="7.797" style="fill:#8B8A9C;" width="3.464" height="0.998"/>
				<rect x="188.099" y="7.797" style="fill:#8C8B9C;" width="3.464" height="0.998"/>
				<rect x="188.613" y="7.797" style="fill:#8D8C9B;" width="3.463" height="0.998"/>
				<rect x="189.127" y="7.797" style="fill:#8E8C9B;" width="3.463" height="0.998"/>
				<rect x="189.641" y="7.797" style="fill:#8F8D9B;" width="3.463" height="0.998"/>
				<rect x="190.154" y="7.797" style="fill:#908E9B;" width="3.464" height="0.998"/>
				<rect x="190.668" y="7.797" style="fill:#918F9B;" width="3.463" height="0.998"/>
				<rect x="191.182" y="7.797" style="fill:#928F9A;" width="3.464" height="0.998"/>
				<rect x="191.695" y="7.797" style="fill:#93909A;" width="3.464" height="0.998"/>
				<rect x="192.209" y="7.797" style="fill:#94919A;" width="3.465" height="0.998"/>
				<rect x="192.723" y="7.797" style="fill:#95919A;" width="3.465" height="0.998"/>
				<rect x="193.236" y="7.797" style="fill:#969299;" width="3.465" height="0.998"/>
				<rect x="193.751" y="7.797" style="fill:#979399;" width="3.464" height="0.998"/>
				<rect x="194.265" y="7.797" style="fill:#989499;" width="3.464" height="0.998"/>
				<rect x="194.779" y="7.797" style="fill:#989499;" width="3.463" height="0.998"/>
				<rect x="195.293" y="7.797" style="fill:#999598;" width="3.463" height="0.998"/>
				<rect x="195.807" y="7.797" style="fill:#9A9698;" width="3.463" height="0.998"/>
				<rect x="196.32" y="7.797" style="fill:#9B9698;" width="3.463" height="0.998"/>
				<rect x="196.834" y="7.797" style="fill:#9C9798;" width="3.463" height="0.998"/>
				<rect x="197.348" y="7.797" style="fill:#9D9897;" width="3.463" height="0.998"/>
				<rect x="197.861" y="7.797" style="fill:#9E9997;" width="3.464" height="0.998"/>
				<rect x="198.375" y="7.797" style="fill:#9F9997;" width="3.465" height="0.998"/>
				<rect x="198.889" y="7.797" style="fill:#A09A97;" width="3.465" height="0.998"/>
				<rect x="199.402" y="7.797" style="fill:#A19B96;" width="3.465" height="0.998"/>
				<rect x="199.916" y="7.797" style="fill:#A29B96;" width="3.465" height="0.998"/>
				<rect x="200.43" y="7.797" style="fill:#A39C96;" width="3.465" height="0.998"/>
				<rect x="200.943" y="7.797" style="fill:#A49D95;" width="3.465" height="0.998"/>
				<rect x="201.457" y="7.797" style="fill:#A59E95;" width="3.465" height="0.998"/>
				<rect x="201.972" y="7.797" style="fill:#A69E95;" width="3.464" height="0.998"/>
				<rect x="202.485" y="7.797" style="fill:#A79F95;" width="3.464" height="0.998"/>
				<rect x="203" y="7.797" style="fill:#A7A094;" width="3.463" height="0.998"/>
				<rect x="203.514" y="7.797" style="fill:#A8A194;" width="3.463" height="0.998"/>
				<rect x="204.027" y="7.797" style="fill:#A9A194;" width="3.463" height="0.998"/>
				<rect x="204.541" y="7.797" style="fill:#AAA293;" width="3.464" height="0.998"/>
				<rect x="205.055" y="7.797" style="fill:#ABA393;" width="3.464" height="0.998"/>
				<rect x="205.568" y="7.797" style="fill:#ACA393;" width="3.464" height="0.998"/>
				<rect x="206.082" y="7.797" style="fill:#ADA492;" width="3.465" height="0.998"/>
				<rect x="206.596" y="7.797" style="fill:#AEA592;" width="3.465" height="0.998"/>
				<rect x="207.109" y="7.797" style="fill:#AFA692;" width="3.465" height="0.998"/>
				<rect x="207.623" y="7.797" style="fill:#B0A691;" width="3.465" height="0.998"/>
				<rect x="208.137" y="7.797" style="fill:#B0A791;" width="3.465" height="0.998"/>
				<rect x="208.65" y="7.797" style="fill:#B1A891;" width="3.465" height="0.998"/>
				<rect x="209.165" y="7.797" style="fill:#B2A890;" width="3.464" height="0.998"/>
				<rect x="209.679" y="7.797" style="fill:#B3A990;" width="3.464" height="0.998"/>
				<rect x="210.192" y="7.797" style="fill:#B4AA90;" width="3.464" height="0.998"/>
				<rect x="210.707" y="7.797" style="fill:#B5AB8F;" width="3.463" height="0.998"/>
				<rect x="211.221" y="7.797" style="fill:#B6AB8F;" width="3.463" height="0.998"/>
				<rect x="211.734" y="7.797" style="fill:#B7AC8F;" width="3.463" height="0.998"/>
				<rect x="212.248" y="7.797" style="fill:#B8AD8E;" width="3.464" height="0.998"/>
				<rect x="212.762" y="7.797" style="fill:#B9AE8E;" width="3.464" height="0.998"/>
				<rect x="213.275" y="7.797" style="fill:#B9AE8D;" width="3.464" height="0.998"/>
				<rect x="213.789" y="7.797" style="fill:#BAAF8D;" width="3.464" height="0.998"/>
				<rect x="214.303" y="7.797" style="fill:#BBB08D;" width="3.465" height="0.998"/>
				<rect x="214.816" y="7.797" style="fill:#BCB08C;" width="3.465" height="0.998"/>
				<rect x="215.504" y="7.797" style="fill:#BDB18C;" width="3.464" height="0.998"/>
				<rect x="216.19" y="7.797" style="fill:#BDB18B;" width="3.464" height="0.998"/>
				<rect x="216.877" y="7.797" style="fill:#BDB28A;" width="3.464" height="0.998"/>
				<rect x="217.564" y="7.797" style="fill:#BEB28A;" width="3.463" height="0.998"/>
				<rect x="218.25" y="7.797" style="fill:#BEB289;" width="3.465" height="0.998"/>
				<rect x="218.938" y="7.797" style="fill:#BFB389;" width="3.463" height="0.998"/>
				<rect x="219.623" y="7.797" style="fill:#BFB388;" width="3.465" height="0.998"/>
				<rect x="220.311" y="7.797" style="fill:#BFB387;" width="3.463" height="0.998"/>
				<rect x="220.997" y="7.797" style="fill:#C0B487;" width="3.464" height="0.998"/>
				<rect x="221.684" y="7.797" style="fill:#C0B486;" width="3.464" height="0.998"/>
				<rect x="222.37" y="7.797" style="fill:#C1B585;" width="3.464" height="0.998"/>
				<rect x="223.057" y="7.797" style="fill:#C1B585;" width="3.465" height="0.998"/>
				<rect x="223.744" y="7.797" style="fill:#C1B584;" width="3.463" height="0.998"/>
				<rect x="224.43" y="7.797" style="fill:#C2B683;" width="3.465" height="0.998"/>
				<rect x="225.117" y="7.797" style="fill:#C2B683;" width="3.463" height="0.998"/>
				<rect x="225.804" y="7.797" style="fill:#C3B782;" width="3.464" height="0.998"/>
				<rect x="226.49" y="7.797" style="fill:#C3B781;" width="3.464" height="0.998"/>
				<rect x="227.178" y="7.797" style="fill:#C3B781;" width="3.463" height="0.998"/>
				<rect x="227.863" y="7.797" style="fill:#C4B880;" width="3.465" height="0.998"/>
				<rect x="228.551" y="7.797" style="fill:#C4B880;" width="3.463" height="0.998"/>
				<rect x="229.236" y="7.797" style="fill:#C5B87F;" width="3.465" height="0.998"/>
				<rect x="229.924" y="7.797" style="fill:#C5B97E;" width="3.464" height="0.998"/>
				<rect x="230.611" y="7.797" style="fill:#C6B97D;" width="3.463" height="0.998"/>
				<rect x="231.297" y="7.797" style="fill:#C6BA7D;" width="3.465" height="0.998"/>
				<rect x="231.984" y="7.797" style="fill:#C6BA7C;" width="3.463" height="0.998"/>
				<rect x="232.67" y="7.797" style="fill:#C7BA7B;" width="3.465" height="0.998"/>
				<rect x="233.357" y="7.797" style="fill:#C7BB7B;" width="3.464" height="0.998"/>
				<rect x="234.044" y="7.797" style="fill:#C8BB7A;" width="3.464" height="0.998"/>
				<rect x="234.73" y="7.797" style="fill:#C8BB79;" width="3.464" height="0.998"/>
				<rect x="235.417" y="7.797" style="fill:#C8BC79;" width="3.464" height="0.998"/>
				<rect x="236.104" y="7.797" style="fill:#C9BC78;" width="3.465" height="0.998"/>
				<rect x="236.791" y="7.797" style="fill:#C9BD77;" width="3.463" height="0.998"/>
				<rect x="237.478" y="7.797" style="fill:#CABD76;" width="3.464" height="0.998"/>
				<rect x="238.164" y="7.797" style="fill:#CABD76;" width="3.464" height="0.998"/>
				<rect x="238.851" y="7.797" style="fill:#CBBE75;" width="3.464" height="0.998"/>
				<rect x="239.537" y="7.797" style="fill:#CBBE74;" width="3.464" height="0.998"/>
				<rect x="240.225" y="7.797" style="fill:#CBBF73;" width="3.463" height="0.998"/>
				<rect x="240.91" y="7.797" style="fill:#CCBF73;" width="3.465" height="0.998"/>
				<rect x="241.598" y="7.797" style="fill:#CCBF72;" width="3.463" height="0.998"/>
				<rect x="242.283" y="7.797" style="fill:#CDC071;" width="3.465" height="0.998"/>
				<rect x="242.971" y="7.797" style="fill:#CDC070;" width="3.464" height="0.998"/>
				<rect x="243.657" y="7.797" style="fill:#CDC06F;" width="3.464" height="0.998"/>
				<rect x="244.344" y="7.797" style="fill:#CEC16F;" width="3.465" height="0.998"/>
				<rect x="245.03" y="7.797" style="fill:#CEC16E;" width="3.464" height="0.998"/>
				<rect x="245.718" y="7.797" style="fill:#CEC26D;" width="3.463" height="0.998"/>
				<rect x="246.404" y="7.797" style="fill:#CFC26C;" width="3.464" height="0.998"/>
				<rect x="247.091" y="7.797" style="fill:#CFC26B;" width="3.464" height="0.998"/>
				<rect x="247.777" y="7.797" style="fill:#D0C36B;" width="3.464" height="0.998"/>
				<rect x="248.465" y="7.797" style="fill:#D0C36A;" width="3.463" height="0.998"/>
				<rect x="249.15" y="7.797" style="fill:#D1C369;" width="3.465" height="0.998"/>
				<rect x="249.838" y="7.797" style="fill:#D1C468;" width="3.463" height="0.998"/>
				<rect x="250.524" y="7.797" style="fill:#D1C467;" width="3.464" height="0.998"/>
				<rect x="251.211" y="7.797" style="fill:#D2C566;" width="3.464" height="0.998"/>
				<rect x="251.897" y="7.797" style="fill:#D2C566;" width="3.464" height="0.998"/>
				<rect x="252.584" y="7.797" style="fill:#D3C565;" width="3.465" height="0.998"/>
				<rect x="253.271" y="7.797" style="fill:#D3C664;" width="3.463" height="0.998"/>
				<rect x="253.957" y="7.797" style="fill:#D3C663;" width="3.465" height="0.998"/>
				<rect x="254.645" y="7.797" style="fill:#D4C762;" width="3.463" height="0.998"/>
				<rect x="255.331" y="7.797" style="fill:#D4C761;" width="3.464" height="0.998"/>
				<rect x="256.018" y="7.797" style="fill:#D5C760;" width="3.465" height="0.998"/>
				<rect x="256.705" y="7.797" style="fill:#D5C85F;" width="3.463" height="0.998"/>
				<rect x="257.391" y="7.797" style="fill:#D5C85E;" width="3.464" height="0.998"/>
				<rect x="258.078" y="7.797" style="fill:#D6C85D;" width="3.463" height="0.998"/>
				<rect x="258.764" y="7.797" style="fill:#D6C95D;" width="3.465" height="0.998"/>
				<rect x="259.451" y="7.797" style="fill:#D7C95C;" width="3.464" height="0.998"/>
				<rect x="260.138" y="7.797" style="fill:#D7CA5B;" width="3.464" height="0.998"/>
				<rect x="260.824" y="7.797" style="fill:#D7CA5A;" width="3.464" height="0.998"/>
				<rect x="261.512" y="7.797" style="fill:#D8CA59;" width="3.463" height="0.998"/>
				<rect x="262.197" y="7.797" style="fill:#D8CB58;" width="3.464" height="0.998"/>
				<rect x="262.885" y="7.797" style="fill:#D9CB57;" width="3.463" height="0.998"/>
				<rect x="263.571" y="7.797" style="fill:#D9CB56;" width="3.464" height="0.998"/>
				<rect x="264.258" y="7.797" style="fill:#D9CC55;" width="3.464" height="0.998"/>
				<rect x="264.944" y="7.797" style="fill:#DACC54;" width="3.464" height="0.998"/>
				<rect x="265.631" y="7.797" style="fill:#DACD53;" width="3.465" height="0.998"/>
				<rect x="266.318" y="7.797" style="fill:#DBCD52;" width="3.463" height="0.998"/>
				<rect x="267.004" y="7.797" style="fill:#DBCD51;" width="3.465" height="0.998"/>
				<rect x="267.691" y="7.797" style="fill:#DBCE50;" width="3.463" height="0.998"/>
				<rect x="268.378" y="7.797" style="fill:#DCCE4E;" width="3.464" height="0.998"/>
				<rect x="269.064" y="7.797" style="fill:#DCCF4D;" width="3.465" height="0.998"/>
				<rect x="269.751" y="7.797" style="fill:#DDCF4C;" width="3.464" height="0.998"/>
				<rect x="270.438" y="7.797" style="fill:#DDCF4B;" width="3.465" height="0.998"/>
				<rect x="271.125" y="7.797" style="fill:#DED04A;" width="3.463" height="0.998"/>
				<rect x="271.811" y="7.797" style="fill:#DED049;" width="3.465" height="0.998"/>
				<rect x="272.498" y="7.797" style="fill:#DED148;" width="3.464" height="0.998"/>
				<rect x="273.185" y="7.797" style="fill:#DFD147;" width="3.464" height="0.998"/>
				<rect x="273.871" y="7.797" style="fill:#DFD145;" width="3.464" height="0.998"/>
				<rect x="274.559" y="7.797" style="fill:#E0D244;" width="3.463" height="0.998"/>
				<rect x="275.244" y="7.797" style="fill:#E0D243;" width="3.465" height="0.998"/>
				<rect x="275.932" y="7.797" style="fill:#E1D242;" width="3.463" height="0.998"/>
				<rect x="276.618" y="7.797" style="fill:#E1D340;" width="3.464" height="0.998"/>
				<rect x="277.305" y="7.797" style="fill:#E1D33F;" width="3.464" height="0.998"/>
				<rect x="277.992" y="7.797" style="fill:#E2D43D;" width="3.463" height="0.998"/>
				<rect x="278.678" y="7.797" style="fill:#E2D43C;" width="3.465" height="0.998"/>
				<rect x="279.365" y="7.797" style="fill:#E3D43B;" width="3.463" height="0.998"/>
				<rect x="280.051" y="7.797" style="fill:#E3D539;" width="3.465" height="0.998"/>
				<rect x="280.738" y="7.797" style="fill:#E3D538;" width="3.463" height="0.998"/>
				<rect x="281.425" y="7.797" style="fill:#E4D636;" width="3.464" height="0.998"/>
				<rect x="282.111" y="7.797" style="fill:#E4D634;" width="3.464" height="0.998"/>
				<rect x="282.798" y="7.797" style="fill:#E5D633;" width="3.464" height="0.998"/>
				<rect x="283.484" y="7.797" style="fill:#E5D731;" width="3.465" height="0.998"/>
				<rect x="284.172" y="7.797" style="fill:#E5D72F;" width="3.463" height="0.998"/>
				<rect x="284.857" y="7.797" style="fill:#E6D72D;" width="3.465" height="0.998"/>
				<rect x="285.545" y="7.797" style="fill:#E6D82B;" width="3.464" height="0.998"/>
				<rect x="286.231" y="7.797" style="fill:#E7D829;" width="3.464" height="0.998"/>
				<rect x="286.918" y="7.797" style="fill:#E7D927;" width="3.464" height="0.998"/>
				<rect x="287.605" y="7.797" style="fill:#E7D925;" width="3.463" height="0.998"/>
				<rect x="288.291" y="7.797" style="fill:#E8D923;" width="3.465" height="0.998"/>
			</g>
			<g>
				<path style="fill:#595757;" d="M0,0.434h3.228l2.491,11.004L8.797,0.434h2.729l3.123,11.004l2.467-11.004h3.229L16.46,17.672
					h-3.147L10.137,6.527L7.02,17.672H3.902L0,0.434z"/>
				<path style="fill:#595757;" d="M22.564,0h3.176v6.211c0.625-0.539,1.254-0.943,1.887-1.213s1.273-0.404,1.922-0.404
					c1.266,0,2.332,0.438,3.199,1.313c0.742,0.758,1.113,1.871,1.113,3.34v8.426h-3.152v-5.59c0-1.477-0.07-2.477-0.211-3
					s-0.381-0.914-0.721-1.172s-0.76-0.387-1.26-0.387c-0.648,0-1.205,0.215-1.67,0.645s-0.787,1.016-0.967,1.758
					c-0.094,0.383-0.141,1.258-0.141,2.625v5.121h-3.176V0z"/>
				<path style="fill:#595757;" d="M46.365,4.922h3.199v12.75h-3.199v-1.348c-0.624,0.594-1.251,1.021-1.879,1.283
					S43.178,18,42.444,18c-1.646,0-3.071-0.639-4.272-1.916c-1.202-1.277-1.803-2.865-1.803-4.764c0-1.969,0.581-3.582,1.744-4.84
					s2.575-1.887,4.237-1.887c0.765,0,1.482,0.145,2.153,0.434s1.291,0.723,1.861,1.301V4.922z M43.002,7.547
					c-0.988,0-1.811,0.35-2.464,1.049c-0.654,0.699-0.981,1.596-0.981,2.689c0,1.102,0.333,2.008,0.998,2.719
					c0.666,0.711,1.485,1.066,2.459,1.066c1.005,0,1.838-0.35,2.499-1.049c0.662-0.699,0.993-1.615,0.993-2.748
					c0-1.109-0.331-2.008-0.993-2.695C44.852,7.891,44.015,7.547,43.002,7.547z"/>
				<path style="fill:#595757;" d="M53.186,0.223h3.199v4.699h1.898v2.754h-1.898v9.996h-3.199V7.676h-1.641V4.922h1.641V0.223z"/>
				<path style="fill:#595757;" d="M65.297,4.922h3.132l2.563,7.254l2.759-7.254h1.915l2.709,7.172l2.567-7.172h3.151l-4.652,12.75
					h-2.027l-2.719-7.266l-2.801,7.266h-2.004L65.297,4.922z"/>
				<path style="fill:#595757;" d="M98.678,12.223H88.4c0.148,0.906,0.545,1.627,1.189,2.162s1.467,0.803,2.467,0.803
					c1.195,0,2.223-0.418,3.082-1.254l2.695,1.266c-0.672,0.953-1.477,1.658-2.414,2.115S93.369,18,92.08,18
					c-2,0-3.629-0.631-4.887-1.893s-1.887-2.842-1.887-4.74c0-1.945,0.627-3.561,1.881-4.846s2.826-1.928,4.717-1.928
					c2.008,0,3.641,0.643,4.898,1.928s1.887,2.982,1.887,5.092L98.678,12.223z M95.479,9.703c-0.211-0.711-0.628-1.289-1.25-1.734
					s-1.344-0.668-2.166-0.668c-0.893,0-1.675,0.25-2.348,0.75c-0.423,0.313-0.813,0.863-1.174,1.652H95.479z"/>
				<path style="fill:#2C50A2;" d="M10.365,28.801h3.199v17.672h-3.199v-1.348c-0.624,0.594-1.251,1.021-1.879,1.283
					s-1.309,0.393-2.042,0.393c-1.646,0-3.071-0.639-4.272-1.916c-1.202-1.277-1.803-2.865-1.803-4.764
					c0-1.969,0.581-3.582,1.744-4.84s2.575-1.887,4.237-1.887c0.765,0,1.482,0.145,2.153,0.434s1.291,0.723,1.861,1.301V28.801z
					 M7.002,36.348c-0.988,0-1.811,0.35-2.464,1.049c-0.654,0.699-0.981,1.596-0.981,2.689c0,1.102,0.333,2.008,0.998,2.719
					c0.666,0.711,1.485,1.066,2.459,1.066c1.005,0,1.838-0.35,2.499-1.049c0.662-0.699,0.993-1.615,0.993-2.748
					c0-1.109-0.331-2.008-0.993-2.695C8.852,36.691,8.015,36.348,7.002,36.348z"/>
				<path style="fill:#2C50A2;" d="M22.787,33.395c1.203,0,2.334,0.301,3.393,0.902s1.885,1.418,2.479,2.449s0.891,2.145,0.891,3.34
					c0,1.203-0.299,2.328-0.896,3.375s-1.412,1.865-2.443,2.455s-2.168,0.885-3.41,0.885c-1.828,0-3.389-0.65-4.682-1.951
					s-1.939-2.881-1.939-4.74c0-1.992,0.73-3.652,2.191-4.98C19.65,33.973,21.123,33.395,22.787,33.395z M22.84,36.406
					c-0.994,0-1.821,0.346-2.482,1.037c-0.662,0.691-0.992,1.576-0.992,2.654c0,1.109,0.326,2.008,0.98,2.695
					c0.653,0.688,1.48,1.031,2.482,1.031s1.835-0.348,2.5-1.043s0.998-1.59,0.998-2.684s-0.327-1.982-0.98-2.666
					S23.857,36.406,22.84,36.406z"/>
			</g>
			<rect x="4.875" y="51.848" style="fill:#E9C41D;" width="20" height="2"/>
		</g>
	</g>
</g>
</svg>
