<?xml version="1.0" encoding="iso-8859-1"?>
<!-- Generator: Adobe Illustrator 16.0.0, SVG Export Plug-In . SVG Version: 6.00 Build 0)  -->
<!DOCTYPE svg PUBLIC "-//W3C//DTD SVG 1.1//EN" "http://www.w3.org/Graphics/SVG/1.1/DTD/svg11.dtd">
<svg version="1.1" id="&#x5716;&#x5C64;_1" xmlns="http://www.w3.org/2000/svg" xmlns:xlink="http://www.w3.org/1999/xlink" x="0px"
	 y="0px" width="379.731px" height="61.826px" viewBox="0 0 379.731 61.826" style="enable-background:new 0 0 379.731 61.826;"
	 xml:space="preserve">
<g>
	<g>
		<g>
			<path style="fill:#898989;" d="M0.765,0.571h1.327l2.642,9.316l3.706-9.316h0.268l3.663,9.316l2.687-9.316h1.317l-3.715,12.93
				h-0.24L8.583,3.718l-3.912,9.783H4.43L0.765,0.571z"/>
			<path style="fill:#898989;" d="M18.571,0.247h1.23v5.404c0.498-0.656,1.046-1.146,1.644-1.473
				c0.598-0.324,1.245-0.486,1.942-0.486c0.715,0,1.35,0.182,1.902,0.545c0.555,0.363,0.963,0.85,1.227,1.463
				c0.264,0.611,0.396,1.572,0.396,2.879v4.922h-1.23V8.938c0-1.102-0.044-1.836-0.132-2.205c-0.152-0.633-0.43-1.109-0.83-1.43
				c-0.402-0.318-0.928-0.479-1.578-0.479c-0.744,0-1.41,0.246-2,0.738c-0.588,0.492-0.977,1.102-1.164,1.828
				c-0.117,0.469-0.176,1.336-0.176,2.602v3.508h-1.23V0.247z"/>
			<path style="fill:#898989;" d="M37.6,10.327l1.037,0.545c-0.34,0.668-0.733,1.207-1.179,1.617
				c-0.446,0.41-0.947,0.723-1.505,0.936c-0.557,0.215-1.188,0.322-1.891,0.322c-1.561,0-2.78-0.512-3.66-1.535
				c-0.88-1.021-1.319-2.178-1.319-3.467c0-1.213,0.372-2.293,1.117-3.242c0.944-1.207,2.208-1.811,3.792-1.811
				c1.63,0,2.932,0.617,3.905,1.854c0.692,0.873,1.044,1.963,1.056,3.27h-8.604c0.023,1.111,0.378,2.021,1.064,2.732
				c0.687,0.709,1.534,1.064,2.544,1.064c0.486,0,0.96-0.084,1.421-0.254c0.46-0.17,0.852-0.395,1.175-0.674
				C36.875,11.405,37.225,10.952,37.6,10.327z M37.6,7.753c-0.164-0.656-0.403-1.182-0.717-1.574
				c-0.314-0.393-0.729-0.709-1.246-0.949c-0.516-0.24-1.059-0.359-1.627-0.359c-0.939,0-1.746,0.301-2.421,0.904
				c-0.492,0.439-0.865,1.1-1.117,1.979H37.6z"/>
			<path style="fill:#898989;" d="M42.319,0.388h1.23v3.551h1.951v1.063H43.55v8.5h-1.23v-8.5h-1.679V3.938h1.679V0.388z"/>
			<path style="fill:#898989;" d="M47.347,0.247h1.23v5.404c0.498-0.656,1.046-1.146,1.644-1.473
				c0.598-0.324,1.245-0.486,1.942-0.486c0.715,0,1.35,0.182,1.902,0.545c0.555,0.363,0.963,0.85,1.227,1.463
				c0.264,0.611,0.396,1.572,0.396,2.879v4.922h-1.23V8.938c0-1.102-0.044-1.836-0.132-2.205c-0.152-0.633-0.43-1.109-0.83-1.43
				c-0.402-0.318-0.928-0.479-1.578-0.479c-0.744,0-1.41,0.246-2,0.738c-0.588,0.492-0.977,1.102-1.164,1.828
				c-0.117,0.469-0.176,1.336-0.176,2.602v3.508h-1.23V0.247z"/>
			<path style="fill:#898989;" d="M66.375,10.327l1.037,0.545c-0.34,0.668-0.733,1.207-1.179,1.617
				c-0.446,0.41-0.947,0.723-1.505,0.936c-0.557,0.215-1.188,0.322-1.891,0.322c-1.561,0-2.78-0.512-3.66-1.535
				c-0.88-1.021-1.319-2.178-1.319-3.467c0-1.213,0.372-2.293,1.117-3.242c0.944-1.207,2.208-1.811,3.792-1.811
				c1.63,0,2.932,0.617,3.905,1.854c0.692,0.873,1.044,1.963,1.056,3.27h-8.604c0.023,1.111,0.378,2.021,1.064,2.732
				c0.687,0.709,1.534,1.064,2.544,1.064c0.486,0,0.96-0.084,1.421-0.254c0.46-0.17,0.852-0.395,1.175-0.674
				C65.65,11.405,66,10.952,66.375,10.327z M66.375,7.753c-0.164-0.656-0.403-1.182-0.717-1.574
				c-0.314-0.393-0.729-0.709-1.246-0.949c-0.516-0.24-1.059-0.359-1.627-0.359c-0.939,0-1.746,0.301-2.421,0.904
				c-0.492,0.439-0.865,1.1-1.117,1.979H66.375z"/>
			<path style="fill:#898989;" d="M69.557,3.938h1.257v1.396C71.188,4.784,71.584,4.372,72,4.101
				c0.416-0.273,0.85-0.408,1.301-0.408c0.34,0,0.703,0.107,1.09,0.324l-0.642,1.037c-0.258-0.111-0.475-0.166-0.65-0.166
				c-0.41,0-0.806,0.168-1.187,0.504c-0.381,0.338-0.671,0.861-0.87,1.57c-0.152,0.545-0.229,1.646-0.229,3.305v3.234h-1.257V3.938z
				"/>
			<path style="fill:#898989;" d="M80.338,3.938h1.301l3.286,7.363l3.191-7.363h1.31l-5.704,13.061h-1.3l1.841-4.223L80.338,3.938z"
				/>
			<path style="fill:#898989;" d="M95.543,3.692c1.474,0,2.694,0.533,3.663,1.6c0.88,0.973,1.32,2.123,1.32,3.453
				c0,1.336-0.465,2.504-1.396,3.502c-0.931,1-2.126,1.5-3.588,1.5c-1.468,0-2.666-0.5-3.597-1.5
				c-0.931-0.998-1.396-2.166-1.396-3.502c0-1.324,0.44-2.473,1.32-3.445C92.84,4.228,94.063,3.692,95.543,3.692z M95.538,4.896
				c-1.022,0-1.901,0.379-2.637,1.135s-1.103,1.67-1.103,2.742c0,0.691,0.168,1.336,0.503,1.934s0.788,1.059,1.358,1.383
				c0.57,0.326,1.196,0.488,1.878,0.488c0.683,0,1.309-0.162,1.879-0.488c0.57-0.324,1.023-0.785,1.358-1.383
				s0.503-1.242,0.503-1.934c0-1.072-0.369-1.986-1.107-2.742C97.434,5.274,96.556,4.896,95.538,4.896z"/>
			<path style="fill:#898989;" d="M102.645,3.938h1.23v4.465c0,1.09,0.059,1.84,0.176,2.25c0.177,0.586,0.513,1.049,1.008,1.389
				c0.496,0.34,1.087,0.51,1.773,0.51s1.27-0.166,1.748-0.498c0.478-0.33,0.808-0.766,0.99-1.305
				c0.123-0.369,0.185-1.15,0.185-2.346V3.938h1.257v4.693c0,1.318-0.154,2.311-0.461,2.979c-0.309,0.668-0.771,1.191-1.389,1.568
				c-0.619,0.379-1.394,0.568-2.325,0.568s-1.71-0.189-2.333-0.568c-0.625-0.377-1.09-0.904-1.398-1.582
				c-0.307-0.676-0.461-1.693-0.461-3.053V3.938z"/>
			<path style="fill:#898989;" d="M129.203,3.938v9.563h-1.213v-1.645c-0.516,0.627-1.094,1.1-1.736,1.416
				c-0.641,0.316-1.343,0.475-2.104,0.475c-1.354,0-2.509-0.492-3.468-1.473c-0.957-0.982-1.437-2.176-1.437-3.582
				c0-1.377,0.483-2.555,1.45-3.533s2.13-1.467,3.489-1.467c0.785,0,1.495,0.166,2.132,0.5c0.635,0.334,1.193,0.836,1.674,1.504
				V3.938H129.203z M124.285,4.878c-0.685,0-1.316,0.168-1.896,0.506c-0.58,0.336-1.041,0.809-1.383,1.418
				c-0.343,0.607-0.514,1.252-0.514,1.93c0,0.674,0.173,1.318,0.518,1.932c0.346,0.615,0.81,1.094,1.392,1.436
				c0.582,0.344,1.207,0.514,1.875,0.514c0.673,0,1.311-0.17,1.913-0.51c0.603-0.338,1.066-0.799,1.392-1.377
				c0.325-0.58,0.487-1.232,0.487-1.959c0-1.105-0.364-2.029-1.093-2.773S125.351,4.878,124.285,4.878z"/>
			<path style="fill:#898989;" d="M131.506,3.938h1.257v1.396c0.375-0.551,0.771-0.963,1.187-1.234
				c0.416-0.273,0.85-0.408,1.301-0.408c0.34,0,0.703,0.107,1.09,0.324l-0.642,1.037c-0.258-0.111-0.475-0.166-0.65-0.166
				c-0.41,0-0.806,0.168-1.187,0.504c-0.381,0.338-0.671,0.861-0.87,1.57c-0.152,0.545-0.229,1.646-0.229,3.305v3.234h-1.257V3.938z
				"/>
			<path style="fill:#898989;" d="M145.437,10.327l1.037,0.545c-0.34,0.668-0.733,1.207-1.179,1.617
				c-0.446,0.41-0.947,0.723-1.505,0.936c-0.557,0.215-1.188,0.322-1.891,0.322c-1.561,0-2.78-0.512-3.66-1.535
				c-0.88-1.021-1.319-2.178-1.319-3.467c0-1.213,0.372-2.293,1.117-3.242c0.944-1.207,2.208-1.811,3.792-1.811
				c1.63,0,2.932,0.617,3.905,1.854c0.692,0.873,1.044,1.963,1.056,3.27h-8.604c0.023,1.111,0.378,2.021,1.064,2.732
				c0.687,0.709,1.534,1.064,2.544,1.064c0.486,0,0.96-0.084,1.421-0.254c0.46-0.17,0.852-0.395,1.175-0.674
				C144.712,11.405,145.062,10.952,145.437,10.327z M145.437,7.753c-0.164-0.656-0.403-1.182-0.717-1.574
				c-0.314-0.393-0.729-0.709-1.246-0.949c-0.516-0.24-1.059-0.359-1.627-0.359c-0.939,0-1.746,0.301-2.421,0.904
				c-0.492,0.439-0.865,1.1-1.117,1.979H145.437z"/>
			<path style="fill:#898989;" d="M164.541,3.938v9.563h-1.213v-1.645c-0.516,0.627-1.094,1.1-1.736,1.416
				c-0.641,0.316-1.343,0.475-2.104,0.475c-1.354,0-2.509-0.492-3.468-1.473c-0.957-0.982-1.437-2.176-1.437-3.582
				c0-1.377,0.483-2.555,1.45-3.533s2.13-1.467,3.489-1.467c0.785,0,1.495,0.166,2.132,0.5c0.635,0.334,1.193,0.836,1.674,1.504
				V3.938H164.541z M159.623,4.878c-0.685,0-1.316,0.168-1.896,0.506c-0.58,0.336-1.041,0.809-1.383,1.418
				c-0.343,0.607-0.514,1.252-0.514,1.93c0,0.674,0.173,1.318,0.518,1.932c0.346,0.615,0.81,1.094,1.392,1.436
				c0.582,0.344,1.207,0.514,1.875,0.514c0.673,0,1.311-0.17,1.913-0.51c0.603-0.338,1.066-0.799,1.392-1.377
				c0.325-0.58,0.487-1.232,0.487-1.959c0-1.105-0.364-2.029-1.093-2.773S160.688,4.878,159.623,4.878z"/>
			<path style="fill:#898989;" d="M173.319,13.501V0.247h1.23v5.334c0.515-0.633,1.092-1.105,1.729-1.42
				c0.639-0.313,1.338-0.469,2.099-0.469c1.353,0,2.507,0.49,3.464,1.471c0.957,0.982,1.436,2.174,1.436,3.574
				c0,1.383-0.483,2.563-1.449,3.541s-2.127,1.469-3.485,1.469c-0.778,0-1.483-0.168-2.116-0.502
				c-0.632-0.334-1.19-0.834-1.677-1.502v1.758H173.319z M178.241,12.56c0.684,0,1.315-0.168,1.894-0.506
				c0.579-0.336,1.039-0.809,1.382-1.418c0.342-0.609,0.513-1.254,0.513-1.934s-0.173-1.328-0.518-1.943s-0.808-1.094-1.39-1.438
				c-0.582-0.342-1.203-0.514-1.863-0.514c-0.673,0-1.311,0.172-1.916,0.514c-0.605,0.344-1.069,0.805-1.395,1.385
				c-0.324,0.58-0.486,1.234-0.486,1.961c0,1.107,0.364,2.033,1.092,2.777S177.177,12.56,178.241,12.56z"/>
			<path style="fill:#898989;" d="M185.36,3.938h1.23v4.465c0,1.09,0.059,1.84,0.176,2.25c0.177,0.586,0.513,1.049,1.008,1.389
				c0.496,0.34,1.087,0.51,1.773,0.51s1.27-0.166,1.748-0.498c0.478-0.33,0.808-0.766,0.99-1.305
				c0.123-0.369,0.185-1.15,0.185-2.346V3.938h1.257v4.693c0,1.318-0.154,2.311-0.461,2.979c-0.309,0.668-0.771,1.191-1.389,1.568
				c-0.619,0.379-1.394,0.568-2.325,0.568s-1.71-0.189-2.333-0.568c-0.625-0.377-1.09-0.904-1.398-1.582
				c-0.307-0.676-0.461-1.693-0.461-3.053V3.938z"/>
			<path style="fill:#898989;" d="M201.269,4.983l-0.791,0.818c-0.658-0.639-1.302-0.959-1.93-0.959
				c-0.399,0-0.742,0.133-1.026,0.396c-0.285,0.264-0.428,0.57-0.428,0.922c0,0.311,0.117,0.607,0.353,0.889
				c0.234,0.287,0.728,0.623,1.479,1.01c0.916,0.475,1.538,0.932,1.867,1.371c0.323,0.445,0.484,0.947,0.484,1.504
				c0,0.785-0.276,1.449-0.827,1.994c-0.552,0.545-1.241,0.818-2.069,0.818c-0.552,0-1.078-0.121-1.58-0.361
				c-0.501-0.24-0.916-0.57-1.245-0.992l0.773-0.879c0.628,0.709,1.295,1.063,2,1.063c0.493,0,0.913-0.158,1.26-0.475
				s0.52-0.688,0.52-1.115c0-0.352-0.114-0.666-0.344-0.941c-0.229-0.27-0.745-0.609-1.55-1.02c-0.863-0.445-1.45-0.885-1.762-1.318
				s-0.467-0.928-0.467-1.484c0-0.727,0.248-1.33,0.744-1.811s1.122-0.721,1.879-0.721C199.49,3.692,200.377,4.122,201.269,4.983z"
				/>
			<path style="fill:#898989;" d="M203.874,0.001c0.28,0,0.52,0.1,0.718,0.299s0.298,0.439,0.298,0.721
				c0,0.275-0.1,0.512-0.298,0.711s-0.438,0.299-0.718,0.299c-0.273,0-0.51-0.1-0.708-0.299s-0.298-0.436-0.298-0.711
				c0-0.281,0.1-0.521,0.298-0.721S203.601,0.001,203.874,0.001z M203.264,3.938h1.23v9.563h-1.23V3.938z"/>
			<path style="fill:#898989;" d="M207.052,3.938h1.23v1.713c0.492-0.656,1.037-1.146,1.635-1.473
				c0.598-0.324,1.248-0.486,1.951-0.486c0.715,0,1.35,0.182,1.902,0.545c0.555,0.363,0.963,0.852,1.227,1.467
				s0.396,1.574,0.396,2.875v4.922h-1.23V8.938c0-1.102-0.046-1.836-0.137-2.205c-0.143-0.633-0.416-1.109-0.82-1.43
				c-0.404-0.318-0.932-0.479-1.582-0.479c-0.745,0-1.411,0.246-2,0.738s-0.978,1.102-1.165,1.828
				c-0.117,0.475-0.176,1.342-0.176,2.602v3.508h-1.23V3.938z"/>
			<path style="fill:#898989;" d="M226.08,10.327l1.037,0.545c-0.34,0.668-0.733,1.207-1.179,1.617
				c-0.446,0.41-0.947,0.723-1.505,0.936c-0.557,0.215-1.188,0.322-1.891,0.322c-1.561,0-2.78-0.512-3.66-1.535
				c-0.88-1.021-1.319-2.178-1.319-3.467c0-1.213,0.372-2.293,1.117-3.242c0.944-1.207,2.208-1.811,3.792-1.811
				c1.63,0,2.932,0.617,3.905,1.854c0.692,0.873,1.044,1.963,1.056,3.27h-8.604c0.023,1.111,0.378,2.021,1.064,2.732
				c0.687,0.709,1.534,1.064,2.544,1.064c0.486,0,0.96-0.084,1.421-0.254c0.46-0.17,0.852-0.395,1.175-0.674
				C225.355,11.405,225.705,10.952,226.08,10.327z M226.08,7.753c-0.164-0.656-0.403-1.182-0.717-1.574
				c-0.314-0.393-0.729-0.709-1.246-0.949c-0.516-0.24-1.059-0.359-1.627-0.359c-0.939,0-1.746,0.301-2.421,0.904
				c-0.492,0.439-0.865,1.1-1.117,1.979H226.08z"/>
			<path style="fill:#898989;" d="M234.535,4.983l-0.791,0.818c-0.658-0.639-1.302-0.959-1.93-0.959
				c-0.399,0-0.742,0.133-1.026,0.396c-0.285,0.264-0.428,0.57-0.428,0.922c0,0.311,0.117,0.607,0.353,0.889
				c0.234,0.287,0.728,0.623,1.479,1.01c0.916,0.475,1.538,0.932,1.867,1.371c0.323,0.445,0.484,0.947,0.484,1.504
				c0,0.785-0.276,1.449-0.827,1.994c-0.552,0.545-1.241,0.818-2.069,0.818c-0.552,0-1.078-0.121-1.58-0.361
				c-0.501-0.24-0.916-0.57-1.245-0.992l0.773-0.879c0.628,0.709,1.295,1.063,2,1.063c0.493,0,0.913-0.158,1.26-0.475
				s0.52-0.688,0.52-1.115c0-0.352-0.114-0.666-0.344-0.941c-0.229-0.27-0.745-0.609-1.55-1.02c-0.863-0.445-1.45-0.885-1.762-1.318
				s-0.467-0.928-0.467-1.484c0-0.727,0.248-1.33,0.744-1.811s1.122-0.721,1.879-0.721C232.757,3.692,233.644,4.122,234.535,4.983z"
				/>
			<path style="fill:#898989;" d="M241.522,4.983l-0.791,0.818c-0.658-0.639-1.302-0.959-1.93-0.959
				c-0.399,0-0.742,0.133-1.026,0.396c-0.285,0.264-0.428,0.57-0.428,0.922c0,0.311,0.117,0.607,0.353,0.889
				c0.234,0.287,0.728,0.623,1.479,1.01c0.916,0.475,1.538,0.932,1.867,1.371c0.323,0.445,0.484,0.947,0.484,1.504
				c0,0.785-0.276,1.449-0.827,1.994c-0.552,0.545-1.241,0.818-2.069,0.818c-0.552,0-1.078-0.121-1.58-0.361
				c-0.501-0.24-0.916-0.57-1.245-0.992l0.773-0.879c0.628,0.709,1.295,1.063,2,1.063c0.493,0,0.913-0.158,1.26-0.475
				s0.52-0.688,0.52-1.115c0-0.352-0.114-0.666-0.344-0.941c-0.229-0.27-0.745-0.609-1.55-1.02c-0.863-0.445-1.45-0.885-1.762-1.318
				s-0.467-0.928-0.467-1.484c0-0.727,0.248-1.33,0.744-1.811s1.122-0.721,1.879-0.721C239.744,3.692,240.631,4.122,241.522,4.983z"
				/>
			<path style="fill:#898989;" d="M254.158,3.692c1.474,0,2.694,0.533,3.663,1.6c0.88,0.973,1.32,2.123,1.32,3.453
				c0,1.336-0.465,2.504-1.396,3.502c-0.931,1-2.126,1.5-3.588,1.5c-1.468,0-2.666-0.5-3.597-1.5
				c-0.931-0.998-1.396-2.166-1.396-3.502c0-1.324,0.44-2.473,1.32-3.445C251.455,4.228,252.679,3.692,254.158,3.692z
				 M254.153,4.896c-1.022,0-1.901,0.379-2.637,1.135s-1.103,1.67-1.103,2.742c0,0.691,0.168,1.336,0.503,1.934
				s0.788,1.059,1.358,1.383c0.57,0.326,1.196,0.488,1.878,0.488c0.683,0,1.309-0.162,1.879-0.488
				c0.57-0.324,1.023-0.785,1.358-1.383s0.503-1.242,0.503-1.934c0-1.072-0.369-1.986-1.107-2.742
				C256.049,5.274,255.171,4.896,254.153,4.896z"/>
			<path style="fill:#898989;" d="M260.952,3.938h1.257v1.396c0.375-0.551,0.771-0.963,1.187-1.234
				c0.416-0.273,0.85-0.408,1.301-0.408c0.34,0,0.703,0.107,1.09,0.324l-0.642,1.037c-0.258-0.111-0.475-0.166-0.65-0.166
				c-0.41,0-0.806,0.168-1.187,0.504c-0.381,0.338-0.671,0.861-0.87,1.57c-0.152,0.545-0.229,1.646-0.229,3.305v3.234h-1.257V3.938z
				"/>
			<path style="fill:#898989;" d="M282.29,3.938v9.563h-1.213v-1.645c-0.516,0.627-1.094,1.1-1.736,1.416
				c-0.641,0.316-1.343,0.475-2.104,0.475c-1.354,0-2.509-0.492-3.468-1.473c-0.957-0.982-1.437-2.176-1.437-3.582
				c0-1.377,0.483-2.555,1.45-3.533s2.13-1.467,3.489-1.467c0.785,0,1.495,0.166,2.132,0.5c0.635,0.334,1.193,0.836,1.674,1.504
				V3.938H282.29z M277.372,4.878c-0.685,0-1.316,0.168-1.896,0.506c-0.58,0.336-1.041,0.809-1.383,1.418
				c-0.343,0.607-0.514,1.252-0.514,1.93c0,0.674,0.173,1.318,0.518,1.932c0.346,0.615,0.81,1.094,1.392,1.436
				c0.582,0.344,1.207,0.514,1.875,0.514c0.673,0,1.311-0.17,1.913-0.51c0.603-0.338,1.066-0.799,1.392-1.377
				c0.325-0.58,0.487-1.232,0.487-1.959c0-1.105-0.364-2.029-1.093-2.773S278.438,4.878,277.372,4.878z"/>
			<path style="fill:#898989;" d="M300.27,5.925l-0.976,0.605c-0.843-1.119-1.993-1.678-3.45-1.678
				c-1.165,0-2.132,0.373-2.901,1.123s-1.154,1.66-1.154,2.73c0,0.697,0.177,1.352,0.531,1.967c0.354,0.613,0.84,1.092,1.457,1.43
				c0.617,0.34,1.31,0.51,2.076,0.51c1.404,0,2.552-0.559,3.441-1.678l0.976,0.641c-0.457,0.689-1.071,1.223-1.842,1.602
				s-1.647,0.57-2.632,0.57c-1.512,0-2.766-0.48-3.762-1.441s-1.494-2.131-1.494-3.508c0-0.926,0.233-1.785,0.698-2.58
				c0.467-0.793,1.106-1.412,1.921-1.857s1.726-0.668,2.733-0.668c0.633,0,1.244,0.096,1.832,0.289
				c0.59,0.193,1.089,0.445,1.499,0.756S299.982,5.444,300.27,5.925z"/>
			<path style="fill:#898989;" d="M307.16,3.692c1.474,0,2.694,0.533,3.663,1.6c0.88,0.973,1.32,2.123,1.32,3.453
				c0,1.336-0.465,2.504-1.396,3.502c-0.931,1-2.126,1.5-3.588,1.5c-1.468,0-2.666-0.5-3.597-1.5
				c-0.931-0.998-1.396-2.166-1.396-3.502c0-1.324,0.44-2.473,1.32-3.445C304.457,4.228,305.681,3.692,307.16,3.692z M307.155,4.896
				c-1.022,0-1.901,0.379-2.637,1.135s-1.103,1.67-1.103,2.742c0,0.691,0.168,1.336,0.503,1.934s0.788,1.059,1.358,1.383
				c0.57,0.326,1.196,0.488,1.878,0.488c0.683,0,1.309-0.162,1.879-0.488c0.57-0.324,1.023-0.785,1.358-1.383
				s0.503-1.242,0.503-1.934c0-1.072-0.369-1.986-1.107-2.742C309.051,5.274,308.173,4.896,307.155,4.896z"/>
			<path style="fill:#898989;" d="M314.42,3.938h1.23v1.713c0.492-0.656,1.037-1.146,1.635-1.473
				c0.598-0.324,1.248-0.486,1.951-0.486c0.715,0,1.35,0.182,1.902,0.545c0.555,0.363,0.963,0.852,1.227,1.467
				s0.396,1.574,0.396,2.875v4.922h-1.23V8.938c0-1.102-0.046-1.836-0.137-2.205c-0.143-0.633-0.416-1.109-0.82-1.43
				c-0.404-0.318-0.932-0.479-1.582-0.479c-0.745,0-1.411,0.246-2,0.738s-0.978,1.102-1.165,1.828
				c-0.117,0.475-0.176,1.342-0.176,2.602v3.508h-1.23V3.938z"/>
			<path style="fill:#898989;" d="M330.205,4.983l-0.791,0.818c-0.658-0.639-1.302-0.959-1.93-0.959
				c-0.399,0-0.742,0.133-1.026,0.396c-0.285,0.264-0.428,0.57-0.428,0.922c0,0.311,0.117,0.607,0.353,0.889
				c0.234,0.287,0.728,0.623,1.479,1.01c0.916,0.475,1.538,0.932,1.867,1.371c0.323,0.445,0.484,0.947,0.484,1.504
				c0,0.785-0.276,1.449-0.827,1.994c-0.552,0.545-1.241,0.818-2.069,0.818c-0.552,0-1.078-0.121-1.58-0.361
				c-0.501-0.24-0.916-0.57-1.245-0.992l0.773-0.879c0.628,0.709,1.295,1.063,2,1.063c0.493,0,0.913-0.158,1.26-0.475
				s0.52-0.688,0.52-1.115c0-0.352-0.114-0.666-0.344-0.941c-0.229-0.27-0.745-0.609-1.55-1.02c-0.863-0.445-1.45-0.885-1.762-1.318
				s-0.467-0.928-0.467-1.484c0-0.727,0.248-1.33,0.744-1.811s1.122-0.721,1.879-0.721C328.427,3.692,329.313,4.122,330.205,4.983z"
				/>
			<path style="fill:#898989;" d="M332.227,3.938h1.23v4.465c0,1.09,0.059,1.84,0.176,2.25c0.177,0.586,0.513,1.049,1.008,1.389
				c0.496,0.34,1.087,0.51,1.773,0.51s1.27-0.166,1.748-0.498c0.478-0.33,0.808-0.766,0.99-1.305
				c0.123-0.369,0.185-1.15,0.185-2.346V3.938h1.257v4.693c0,1.318-0.154,2.311-0.461,2.979c-0.309,0.668-0.771,1.191-1.389,1.568
				c-0.619,0.379-1.394,0.568-2.325,0.568s-1.71-0.189-2.333-0.568c-0.625-0.377-1.09-0.904-1.398-1.582
				c-0.307-0.676-0.461-1.693-0.461-3.053V3.938z"/>
			<path style="fill:#898989;" d="M343.318,3.938h1.23v1.652c0.428-0.609,0.868-1.055,1.32-1.336
				c0.621-0.375,1.275-0.563,1.962-0.563c0.463,0,0.903,0.09,1.319,0.271c0.417,0.182,0.757,0.424,1.021,0.725
				c0.264,0.303,0.492,0.734,0.686,1.297c0.409-0.75,0.921-1.32,1.535-1.709c0.613-0.391,1.274-0.584,1.981-0.584
				c0.66,0,1.243,0.166,1.749,0.5s0.881,0.801,1.127,1.398c0.245,0.598,0.368,1.494,0.368,2.689v5.221h-1.257V8.28
				c0-1.025-0.073-1.73-0.219-2.115c-0.146-0.383-0.396-0.691-0.749-0.926s-0.775-0.352-1.266-0.352
				c-0.596,0-1.141,0.176-1.634,0.527c-0.494,0.352-0.854,0.82-1.082,1.406s-0.342,1.564-0.342,2.936v3.744h-1.23V8.604
				c0-1.154-0.072-1.938-0.216-2.352c-0.144-0.412-0.394-0.744-0.751-0.992c-0.357-0.25-0.782-0.373-1.274-0.373
				c-0.568,0-1.101,0.17-1.596,0.514c-0.495,0.342-0.861,0.805-1.098,1.385c-0.238,0.58-0.356,1.467-0.356,2.662v4.053h-1.23V3.938z
				"/>
			<path style="fill:#898989;" d="M368.262,10.327l1.037,0.545c-0.34,0.668-0.733,1.207-1.179,1.617
				c-0.446,0.41-0.947,0.723-1.505,0.936c-0.557,0.215-1.188,0.322-1.891,0.322c-1.561,0-2.78-0.512-3.66-1.535
				c-0.88-1.021-1.319-2.178-1.319-3.467c0-1.213,0.372-2.293,1.117-3.242c0.944-1.207,2.208-1.811,3.792-1.811
				c1.63,0,2.932,0.617,3.905,1.854c0.692,0.873,1.044,1.963,1.056,3.27h-8.604c0.023,1.111,0.378,2.021,1.064,2.732
				c0.687,0.709,1.534,1.064,2.544,1.064c0.486,0,0.96-0.084,1.421-0.254c0.46-0.17,0.852-0.395,1.175-0.674
				C367.537,11.405,367.887,10.952,368.262,10.327z M368.262,7.753c-0.164-0.656-0.403-1.182-0.717-1.574
				c-0.314-0.393-0.729-0.709-1.246-0.949c-0.516-0.24-1.059-0.359-1.627-0.359c-0.939,0-1.746,0.301-2.421,0.904
				c-0.492,0.439-0.865,1.1-1.117,1.979H368.262z"/>
			<path style="fill:#898989;" d="M371.443,3.938h1.257v1.396c0.375-0.551,0.771-0.963,1.187-1.234
				c0.416-0.273,0.85-0.408,1.301-0.408c0.34,0,0.703,0.107,1.09,0.324l-0.642,1.037c-0.258-0.111-0.475-0.166-0.65-0.166
				c-0.41,0-0.806,0.168-1.187,0.504c-0.381,0.338-0.671,0.861-0.87,1.57c-0.152,0.545-0.229,1.646-0.229,3.305v3.234h-1.257V3.938z
				"/>
			<path style="fill:#898989;" d="M378.545,11.128l1.187,0.563l-1.784,3.322l-0.87-0.369L378.545,11.128z"/>
			<path style="fill:#898989;" d="M0,27.938h1.266l2.931,6.943l3.052-6.943h0.223l3.071,6.943l2.988-6.943h1.279l-4.154,9.563
				h-0.228L7.37,30.653l-3.057,6.848H4.085L0,27.938z"/>
			<path style="fill:#898989;" d="M24.302,34.327l1.037,0.545c-0.34,0.668-0.733,1.207-1.179,1.617
				c-0.446,0.41-0.947,0.723-1.505,0.936c-0.557,0.215-1.188,0.322-1.891,0.322c-1.561,0-2.78-0.512-3.66-1.535
				c-0.88-1.021-1.319-2.178-1.319-3.467c0-1.213,0.372-2.293,1.117-3.242c0.944-1.207,2.208-1.811,3.792-1.811
				c1.63,0,2.932,0.617,3.905,1.854c0.692,0.873,1.044,1.963,1.056,3.27h-8.604c0.023,1.111,0.378,2.021,1.064,2.732
				c0.687,0.709,1.534,1.064,2.544,1.064c0.486,0,0.96-0.084,1.421-0.254c0.46-0.17,0.852-0.395,1.175-0.674
				C23.577,35.405,23.927,34.952,24.302,34.327z M24.302,31.753c-0.164-0.656-0.403-1.182-0.717-1.574
				c-0.314-0.393-0.729-0.709-1.246-0.949c-0.516-0.24-1.059-0.359-1.627-0.359c-0.939,0-1.746,0.301-2.421,0.904
				c-0.492,0.439-0.865,1.1-1.117,1.979H24.302z"/>
			<path style="fill:#898989;" d="M32.933,24.247h1.23v5.404c0.498-0.656,1.046-1.146,1.644-1.473
				c0.598-0.324,1.245-0.486,1.942-0.486c0.715,0,1.35,0.182,1.902,0.545c0.555,0.363,0.963,0.85,1.227,1.463
				c0.264,0.611,0.396,1.572,0.396,2.879v4.922h-1.23v-4.563c0-1.102-0.044-1.836-0.132-2.205c-0.152-0.633-0.43-1.109-0.83-1.43
				c-0.402-0.318-0.928-0.479-1.578-0.479c-0.744,0-1.41,0.246-2,0.738c-0.588,0.492-0.977,1.102-1.164,1.828
				c-0.117,0.469-0.176,1.336-0.176,2.602v3.508h-1.23V24.247z"/>
			<path style="fill:#898989;" d="M48.437,27.692c1.474,0,2.694,0.533,3.663,1.6c0.88,0.973,1.32,2.123,1.32,3.453
				c0,1.336-0.465,2.504-1.396,3.502c-0.931,1-2.126,1.5-3.588,1.5c-1.468,0-2.666-0.5-3.597-1.5
				c-0.931-0.998-1.396-2.166-1.396-3.502c0-1.324,0.44-2.473,1.32-3.445C45.733,28.228,46.957,27.692,48.437,27.692z
				 M48.432,28.896c-1.022,0-1.901,0.379-2.637,1.135s-1.103,1.67-1.103,2.742c0,0.691,0.168,1.336,0.503,1.934
				s0.788,1.059,1.358,1.383c0.57,0.326,1.196,0.488,1.878,0.488c0.683,0,1.309-0.162,1.879-0.488
				c0.57-0.324,1.023-0.785,1.358-1.383s0.503-1.242,0.503-1.934c0-1.072-0.369-1.986-1.107-2.742
				C50.327,29.274,49.449,28.896,48.432,28.896z"/>
			<path style="fill:#898989;" d="M55.714,27.938h1.23v1.758c0.486-0.668,1.045-1.17,1.677-1.504c0.633-0.334,1.338-0.5,2.116-0.5
				c1.358,0,2.52,0.488,3.485,1.467s1.449,2.156,1.449,3.533c0,1.406-0.479,2.6-1.436,3.582c-0.957,0.98-2.111,1.473-3.464,1.473
				c-0.761,0-1.46-0.158-2.099-0.475c-0.638-0.316-1.215-0.789-1.729-1.416v5.143h-1.23V27.938z M60.636,28.878
				c-1.064,0-1.96,0.371-2.688,1.115s-1.092,1.668-1.092,2.773c0,0.727,0.162,1.379,0.486,1.959
				c0.325,0.578,0.789,1.039,1.395,1.377c0.605,0.34,1.244,0.51,1.916,0.51c0.66,0,1.281-0.17,1.863-0.514
				c0.582-0.342,1.045-0.82,1.39-1.436c0.345-0.613,0.518-1.258,0.518-1.932c0-0.678-0.171-1.322-0.513-1.93
				c-0.343-0.609-0.803-1.082-1.381-1.418C61.951,29.046,61.319,28.878,60.636,28.878z"/>
			<path style="fill:#898989;" d="M76.025,34.327l1.037,0.545c-0.34,0.668-0.733,1.207-1.179,1.617
				c-0.446,0.41-0.947,0.723-1.505,0.936c-0.557,0.215-1.188,0.322-1.891,0.322c-1.561,0-2.78-0.512-3.66-1.535
				c-0.88-1.021-1.319-2.178-1.319-3.467c0-1.213,0.372-2.293,1.117-3.242c0.944-1.207,2.208-1.811,3.792-1.811
				c1.63,0,2.932,0.617,3.905,1.854c0.692,0.873,1.044,1.963,1.056,3.27h-8.604c0.023,1.111,0.378,2.021,1.064,2.732
				c0.687,0.709,1.534,1.064,2.544,1.064c0.486,0,0.96-0.084,1.421-0.254c0.46-0.17,0.852-0.395,1.175-0.674
				C75.301,35.405,75.65,34.952,76.025,34.327z M76.025,31.753c-0.164-0.656-0.403-1.182-0.717-1.574
				c-0.314-0.393-0.729-0.709-1.246-0.949c-0.516-0.24-1.059-0.359-1.627-0.359c-0.939,0-1.746,0.301-2.421,0.904
				c-0.492,0.439-0.865,1.1-1.117,1.979H76.025z"/>
			<path style="fill:#898989;" d="M85.729,24.388h1.23v3.551h1.951v1.063h-1.951v8.5h-1.23v-8.5H84.05v-1.063h1.679V24.388z"/>
			<path style="fill:#898989;" d="M95.282,27.692c1.474,0,2.694,0.533,3.663,1.6c0.88,0.973,1.32,2.123,1.32,3.453
				c0,1.336-0.465,2.504-1.396,3.502c-0.931,1-2.126,1.5-3.588,1.5c-1.468,0-2.666-0.5-3.597-1.5
				c-0.931-0.998-1.396-2.166-1.396-3.502c0-1.324,0.44-2.473,1.32-3.445C92.579,28.228,93.803,27.692,95.282,27.692z
				 M95.277,28.896c-1.022,0-1.901,0.379-2.637,1.135s-1.103,1.67-1.103,2.742c0,0.691,0.168,1.336,0.503,1.934
				s0.788,1.059,1.358,1.383c0.57,0.326,1.196,0.488,1.878,0.488c0.683,0,1.309-0.162,1.879-0.488
				c0.57-0.324,1.023-0.785,1.358-1.383s0.503-1.242,0.503-1.934c0-1.072-0.369-1.986-1.107-2.742
				C97.173,29.274,96.295,28.896,95.277,28.896z"/>
			<path style="fill:#898989;" d="M107.517,27.938h1.23v1.652c0.428-0.609,0.868-1.055,1.32-1.336
				c0.621-0.375,1.275-0.563,1.962-0.563c0.463,0,0.903,0.09,1.319,0.271c0.417,0.182,0.757,0.424,1.021,0.725
				c0.264,0.303,0.492,0.734,0.686,1.297c0.409-0.75,0.921-1.32,1.535-1.709c0.613-0.391,1.274-0.584,1.981-0.584
				c0.66,0,1.243,0.166,1.749,0.5s0.881,0.801,1.127,1.398c0.245,0.598,0.368,1.494,0.368,2.689v5.221h-1.257V32.28
				c0-1.025-0.073-1.73-0.219-2.115c-0.146-0.383-0.396-0.691-0.749-0.926s-0.775-0.352-1.266-0.352
				c-0.596,0-1.141,0.176-1.634,0.527c-0.494,0.352-0.854,0.82-1.082,1.406s-0.342,1.564-0.342,2.936v3.744h-1.23v-4.896
				c0-1.154-0.072-1.938-0.216-2.352c-0.144-0.412-0.394-0.744-0.751-0.992c-0.357-0.25-0.782-0.373-1.274-0.373
				c-0.568,0-1.101,0.17-1.596,0.514c-0.495,0.342-0.861,0.805-1.098,1.385c-0.238,0.58-0.356,1.467-0.356,2.662v4.053h-1.23V27.938
				z"/>
			<path style="fill:#898989;" d="M133.937,27.938v9.563h-1.213v-1.645c-0.516,0.627-1.094,1.1-1.736,1.416
				c-0.641,0.316-1.343,0.475-2.104,0.475c-1.354,0-2.509-0.492-3.468-1.473c-0.957-0.982-1.437-2.176-1.437-3.582
				c0-1.377,0.483-2.555,1.45-3.533s2.13-1.467,3.489-1.467c0.785,0,1.495,0.166,2.132,0.5c0.635,0.334,1.193,0.836,1.674,1.504
				v-1.758H133.937z M129.019,28.878c-0.685,0-1.316,0.168-1.896,0.506c-0.58,0.336-1.041,0.809-1.383,1.418
				c-0.343,0.607-0.514,1.252-0.514,1.93c0,0.674,0.173,1.318,0.518,1.932c0.346,0.615,0.81,1.094,1.392,1.436
				c0.582,0.344,1.207,0.514,1.875,0.514c0.673,0,1.311-0.17,1.913-0.51c0.603-0.338,1.066-0.799,1.392-1.377
				c0.325-0.58,0.487-1.232,0.487-1.959c0-1.105-0.364-2.029-1.093-2.773S130.084,28.878,129.019,28.878z"/>
			<path style="fill:#898989;" d="M136.696,24.247h1.23v7.551l4.434-3.859h1.807l-5.256,4.561l5.563,5.002h-1.731l-4.816-4.307
				v4.307h-1.23V24.247z"/>
			<path style="fill:#898989;" d="M153.791,34.327l1.037,0.545c-0.34,0.668-0.733,1.207-1.179,1.617
				c-0.446,0.41-0.947,0.723-1.505,0.936c-0.557,0.215-1.188,0.322-1.891,0.322c-1.561,0-2.78-0.512-3.66-1.535
				c-0.88-1.021-1.319-2.178-1.319-3.467c0-1.213,0.372-2.293,1.117-3.242c0.944-1.207,2.208-1.811,3.792-1.811
				c1.63,0,2.932,0.617,3.905,1.854c0.692,0.873,1.044,1.963,1.056,3.27h-8.604c0.023,1.111,0.378,2.021,1.064,2.732
				c0.687,0.709,1.534,1.064,2.544,1.064c0.486,0,0.96-0.084,1.421-0.254c0.46-0.17,0.852-0.395,1.175-0.674
				C153.066,35.405,153.416,34.952,153.791,34.327z M153.791,31.753c-0.164-0.656-0.403-1.182-0.717-1.574
				c-0.314-0.393-0.729-0.709-1.246-0.949c-0.516-0.24-1.059-0.359-1.627-0.359c-0.939,0-1.746,0.301-2.421,0.904
				c-0.492,0.439-0.865,1.1-1.117,1.979H153.791z"/>
			<path style="fill:#898989;" d="M161.394,27.938h1.301l3.286,7.363l3.191-7.363h1.31l-5.704,13.061h-1.3l1.841-4.223
				L161.394,27.938z"/>
			<path style="fill:#898989;" d="M176.599,27.692c1.474,0,2.694,0.533,3.663,1.6c0.88,0.973,1.32,2.123,1.32,3.453
				c0,1.336-0.465,2.504-1.396,3.502c-0.931,1-2.126,1.5-3.588,1.5c-1.468,0-2.666-0.5-3.597-1.5
				c-0.931-0.998-1.396-2.166-1.396-3.502c0-1.324,0.44-2.473,1.32-3.445C173.896,28.228,175.119,27.692,176.599,27.692z
				 M176.594,28.896c-1.022,0-1.901,0.379-2.637,1.135s-1.103,1.67-1.103,2.742c0,0.691,0.168,1.336,0.503,1.934
				s0.788,1.059,1.358,1.383c0.57,0.326,1.196,0.488,1.878,0.488c0.683,0,1.309-0.162,1.879-0.488
				c0.57-0.324,1.023-0.785,1.358-1.383s0.503-1.242,0.503-1.934c0-1.072-0.369-1.986-1.107-2.742
				C178.489,29.274,177.611,28.896,176.594,28.896z"/>
			<path style="fill:#898989;" d="M183.7,27.938h1.23v4.465c0,1.09,0.059,1.84,0.176,2.25c0.177,0.586,0.513,1.049,1.008,1.389
				c0.496,0.34,1.087,0.51,1.773,0.51s1.27-0.166,1.748-0.498c0.478-0.33,0.808-0.766,0.99-1.305
				c0.123-0.369,0.185-1.15,0.185-2.346v-4.465h1.257v4.693c0,1.318-0.154,2.311-0.461,2.979c-0.309,0.668-0.771,1.191-1.389,1.568
				c-0.619,0.379-1.394,0.568-2.325,0.568s-1.71-0.189-2.333-0.568c-0.625-0.377-1.09-0.904-1.398-1.582
				c-0.307-0.676-0.461-1.693-0.461-3.053V27.938z"/>
			<path style="fill:#898989;" d="M194.335,27.938h1.257v1.396c0.375-0.551,0.771-0.963,1.187-1.234
				c0.416-0.273,0.85-0.408,1.301-0.408c0.34,0,0.703,0.107,1.09,0.324l-0.642,1.037c-0.258-0.111-0.475-0.166-0.65-0.166
				c-0.41,0-0.806,0.168-1.187,0.504c-0.381,0.338-0.671,0.861-0.87,1.57c-0.152,0.545-0.229,1.646-0.229,3.305v3.234h-1.257V27.938
				z"/>
			<path style="fill:#898989;" d="M205.014,24.247h1.23v13.254h-1.23V24.247z"/>
			<path style="fill:#898989;" d="M209.228,24.001c0.28,0,0.52,0.1,0.718,0.299s0.298,0.439,0.298,0.721
				c0,0.275-0.1,0.512-0.298,0.711s-0.438,0.299-0.718,0.299c-0.273,0-0.51-0.1-0.708-0.299s-0.298-0.436-0.298-0.711
				c0-0.281,0.1-0.521,0.298-0.721S208.954,24.001,209.228,24.001z M208.617,27.938h1.23v9.563h-1.23V27.938z"/>
			<path style="fill:#898989;" d="M216.343,24.247v1.203c-0.451-0.193-0.838-0.289-1.16-0.289c-0.24,0-0.439,0.047-0.598,0.145
				c-0.158,0.096-0.258,0.207-0.299,0.334c-0.041,0.125-0.062,0.461-0.062,1.006l-0.001,1.293h1.996v1.063h-1.997l-0.007,8.5h-1.23
				v-8.5h-1.257v-1.063h1.257v-1.494c0-0.686,0.063-1.176,0.189-1.469c0.125-0.293,0.339-0.529,0.641-0.707
				c0.302-0.18,0.667-0.268,1.095-0.268C215.309,24.001,215.786,24.083,216.343,24.247z"/>
			<path style="fill:#898989;" d="M226.107,34.327l1.037,0.545c-0.34,0.668-0.733,1.207-1.179,1.617
				c-0.446,0.41-0.947,0.723-1.505,0.936c-0.557,0.215-1.188,0.322-1.891,0.322c-1.561,0-2.78-0.512-3.66-1.535
				c-0.88-1.021-1.319-2.178-1.319-3.467c0-1.213,0.372-2.293,1.117-3.242c0.944-1.207,2.208-1.811,3.792-1.811
				c1.63,0,2.932,0.617,3.905,1.854c0.692,0.873,1.044,1.963,1.056,3.27h-8.604c0.023,1.111,0.378,2.021,1.064,2.732
				c0.687,0.709,1.534,1.064,2.544,1.064c0.486,0,0.96-0.084,1.421-0.254c0.46-0.17,0.852-0.395,1.175-0.674
				C225.383,35.405,225.732,34.952,226.107,34.327z M226.107,31.753c-0.164-0.656-0.403-1.182-0.717-1.574
				c-0.314-0.393-0.729-0.709-1.246-0.949c-0.516-0.24-1.059-0.359-1.627-0.359c-0.939,0-1.746,0.301-2.421,0.904
				c-0.492,0.439-0.865,1.1-1.117,1.979H226.107z"/>
			<path style="fill:#898989;" d="M239.546,28.983l-0.791,0.818c-0.658-0.639-1.302-0.959-1.93-0.959
				c-0.399,0-0.742,0.133-1.026,0.396c-0.285,0.264-0.428,0.57-0.428,0.922c0,0.311,0.117,0.607,0.353,0.889
				c0.234,0.287,0.728,0.623,1.479,1.01c0.916,0.475,1.538,0.932,1.867,1.371c0.323,0.445,0.484,0.947,0.484,1.504
				c0,0.785-0.276,1.449-0.827,1.994c-0.552,0.545-1.241,0.818-2.069,0.818c-0.552,0-1.078-0.121-1.58-0.361
				c-0.501-0.24-0.916-0.57-1.245-0.992l0.773-0.879c0.628,0.709,1.295,1.063,2,1.063c0.493,0,0.913-0.158,1.26-0.475
				s0.52-0.688,0.52-1.115c0-0.352-0.114-0.666-0.344-0.941c-0.229-0.27-0.745-0.609-1.55-1.02c-0.863-0.445-1.45-0.885-1.762-1.318
				s-0.467-0.928-0.467-1.484c0-0.727,0.248-1.33,0.744-1.811s1.122-0.721,1.879-0.721
				C237.768,27.692,238.654,28.122,239.546,28.983z"/>
			<path style="fill:#898989;" d="M251.253,27.938v9.563h-1.213v-1.645c-0.516,0.627-1.094,1.1-1.736,1.416
				c-0.641,0.316-1.343,0.475-2.104,0.475c-1.354,0-2.509-0.492-3.468-1.473c-0.957-0.982-1.437-2.176-1.437-3.582
				c0-1.377,0.483-2.555,1.45-3.533s2.13-1.467,3.489-1.467c0.785,0,1.495,0.166,2.132,0.5c0.635,0.334,1.193,0.836,1.674,1.504
				v-1.758H251.253z M246.335,28.878c-0.685,0-1.316,0.168-1.896,0.506c-0.58,0.336-1.041,0.809-1.383,1.418
				c-0.343,0.607-0.514,1.252-0.514,1.93c0,0.674,0.173,1.318,0.518,1.932c0.346,0.615,0.81,1.094,1.392,1.436
				c0.582,0.344,1.207,0.514,1.875,0.514c0.673,0,1.311-0.17,1.913-0.51c0.603-0.338,1.066-0.799,1.392-1.377
				c0.325-0.58,0.487-1.232,0.487-1.959c0-1.105-0.364-2.029-1.093-2.773S247.4,28.878,246.335,28.878z"/>
			<path style="fill:#898989;" d="M257.959,24.247v1.203c-0.451-0.193-0.838-0.289-1.16-0.289c-0.24,0-0.439,0.047-0.598,0.145
				c-0.158,0.096-0.258,0.207-0.299,0.334c-0.041,0.125-0.062,0.461-0.062,1.006l-0.001,1.293h1.996v1.063h-1.997l-0.007,8.5h-1.23
				v-8.5h-1.257v-1.063h1.257v-1.494c0-0.686,0.063-1.176,0.189-1.469c0.125-0.293,0.339-0.529,0.641-0.707
				c0.302-0.18,0.667-0.268,1.095-0.268C256.925,24.001,257.402,24.083,257.959,24.247z"/>
			<path style="fill:#898989;" d="M267.724,34.327l1.037,0.545c-0.34,0.668-0.733,1.207-1.179,1.617
				c-0.446,0.41-0.947,0.723-1.505,0.936c-0.557,0.215-1.188,0.322-1.891,0.322c-1.561,0-2.78-0.512-3.66-1.535
				c-0.88-1.021-1.319-2.178-1.319-3.467c0-1.213,0.372-2.293,1.117-3.242c0.944-1.207,2.208-1.811,3.792-1.811
				c1.63,0,2.932,0.617,3.905,1.854c0.692,0.873,1.044,1.963,1.056,3.27h-8.604c0.023,1.111,0.378,2.021,1.064,2.732
				c0.687,0.709,1.534,1.064,2.544,1.064c0.486,0,0.96-0.084,1.421-0.254c0.46-0.17,0.852-0.395,1.175-0.674
				C266.999,35.405,267.349,34.952,267.724,34.327z M267.724,31.753c-0.164-0.656-0.403-1.182-0.717-1.574
				c-0.314-0.393-0.729-0.709-1.246-0.949c-0.516-0.24-1.059-0.359-1.627-0.359c-0.939,0-1.746,0.301-2.421,0.904
				c-0.492,0.439-0.865,1.1-1.117,1.979H267.724z"/>
			<path style="fill:#898989;" d="M270.905,27.938h1.257v1.396c0.375-0.551,0.771-0.963,1.187-1.234
				c0.416-0.273,0.85-0.408,1.301-0.408c0.34,0,0.703,0.107,1.09,0.324l-0.642,1.037c-0.258-0.111-0.475-0.166-0.65-0.166
				c-0.41,0-0.806,0.168-1.187,0.504c-0.381,0.338-0.671,0.861-0.87,1.57c-0.152,0.545-0.229,1.646-0.229,3.305v3.234h-1.257V27.938
				z"/>
			<path style="fill:#898989;" d="M291.296,27.938v9.563h-1.213v-1.645c-0.516,0.627-1.094,1.1-1.736,1.416
				c-0.641,0.316-1.343,0.475-2.104,0.475c-1.354,0-2.509-0.492-3.468-1.473c-0.957-0.982-1.437-2.176-1.437-3.582
				c0-1.377,0.483-2.555,1.45-3.533s2.13-1.467,3.489-1.467c0.785,0,1.495,0.166,2.132,0.5c0.635,0.334,1.193,0.836,1.674,1.504
				v-1.758H291.296z M286.378,28.878c-0.685,0-1.316,0.168-1.896,0.506c-0.58,0.336-1.041,0.809-1.383,1.418
				c-0.343,0.607-0.514,1.252-0.514,1.93c0,0.674,0.173,1.318,0.518,1.932c0.346,0.615,0.81,1.094,1.392,1.436
				c0.582,0.344,1.207,0.514,1.875,0.514c0.673,0,1.311-0.17,1.913-0.51c0.603-0.338,1.066-0.799,1.392-1.377
				c0.325-0.58,0.487-1.232,0.487-1.959c0-1.105-0.364-2.029-1.093-2.773S287.443,28.878,286.378,28.878z"/>
			<path style="fill:#898989;" d="M294.064,27.938h1.23v1.713c0.492-0.656,1.037-1.146,1.635-1.473
				c0.598-0.324,1.248-0.486,1.951-0.486c0.715,0,1.35,0.182,1.902,0.545c0.555,0.363,0.963,0.852,1.227,1.467
				s0.396,1.574,0.396,2.875v4.922h-1.23v-4.563c0-1.102-0.046-1.836-0.137-2.205c-0.143-0.633-0.416-1.109-0.82-1.43
				c-0.404-0.318-0.932-0.479-1.582-0.479c-0.745,0-1.411,0.246-2,0.738s-0.978,1.102-1.165,1.828
				c-0.117,0.475-0.176,1.342-0.176,2.602v3.508h-1.23V27.938z"/>
			<path style="fill:#898989;" d="M314.587,24.247v13.254h-1.213v-1.645c-0.516,0.627-1.094,1.1-1.736,1.416
				c-0.641,0.316-1.343,0.475-2.104,0.475c-1.354,0-2.509-0.492-3.468-1.473c-0.957-0.982-1.437-2.176-1.437-3.582
				c0-1.377,0.483-2.555,1.45-3.533s2.13-1.467,3.489-1.467c0.785,0,1.495,0.166,2.132,0.5c0.635,0.334,1.193,0.836,1.674,1.504
				v-5.449H314.587z M309.669,28.878c-0.685,0-1.316,0.168-1.896,0.506c-0.58,0.336-1.041,0.809-1.383,1.418
				c-0.343,0.607-0.514,1.252-0.514,1.93c0,0.674,0.173,1.318,0.518,1.932c0.346,0.615,0.81,1.094,1.392,1.436
				c0.582,0.344,1.207,0.514,1.875,0.514c0.673,0,1.311-0.17,1.913-0.51c0.603-0.338,1.066-0.799,1.392-1.377
				c0.325-0.58,0.487-1.232,0.487-1.959c0-1.105-0.364-2.029-1.093-2.773S310.734,28.878,309.669,28.878z"/>
			<path style="fill:#898989;" d="M1.283,51.938h1.23v1.652c0.428-0.609,0.868-1.055,1.32-1.336
				c0.621-0.375,1.275-0.563,1.962-0.563c0.463,0,0.903,0.09,1.319,0.271c0.417,0.182,0.757,0.424,1.021,0.725
				c0.264,0.303,0.492,0.734,0.686,1.297c0.409-0.75,0.921-1.32,1.535-1.709c0.613-0.391,1.274-0.584,1.981-0.584
				c0.66,0,1.243,0.166,1.749,0.5s0.881,0.801,1.127,1.398c0.245,0.598,0.368,1.494,0.368,2.689v5.221h-1.257V56.28
				c0-1.025-0.073-1.73-0.219-2.115c-0.146-0.383-0.396-0.691-0.749-0.926s-0.775-0.352-1.266-0.352
				c-0.596,0-1.141,0.176-1.634,0.527c-0.494,0.352-0.854,0.82-1.082,1.406s-0.342,1.564-0.342,2.936v3.744h-1.23v-4.896
				c0-1.154-0.072-1.938-0.216-2.352c-0.144-0.412-0.394-0.744-0.751-0.992c-0.357-0.25-0.782-0.373-1.274-0.373
				c-0.568,0-1.101,0.17-1.596,0.514c-0.495,0.342-0.861,0.805-1.098,1.385c-0.238,0.58-0.356,1.467-0.356,2.662v4.053h-1.23V51.938
				z"/>
			<path style="fill:#898989;" d="M22.702,51.692c1.474,0,2.694,0.533,3.663,1.6c0.88,0.973,1.32,2.123,1.32,3.453
				c0,1.336-0.465,2.504-1.396,3.502c-0.931,1-2.126,1.5-3.588,1.5c-1.468,0-2.666-0.5-3.597-1.5
				c-0.931-0.998-1.396-2.166-1.396-3.502c0-1.324,0.44-2.473,1.32-3.445C19.999,52.228,21.223,51.692,22.702,51.692z
				 M22.697,52.896c-1.022,0-1.901,0.379-2.637,1.135s-1.103,1.67-1.103,2.742c0,0.691,0.168,1.336,0.503,1.934
				s0.788,1.059,1.358,1.383c0.57,0.326,1.196,0.488,1.878,0.488c0.683,0,1.309-0.162,1.879-0.488
				c0.57-0.324,1.023-0.785,1.358-1.383s0.503-1.242,0.503-1.934c0-1.072-0.369-1.986-1.107-2.742
				C24.593,53.274,23.715,52.896,22.697,52.896z"/>
			<path style="fill:#898989;" d="M29.496,51.938h1.257v1.396c0.375-0.551,0.771-0.963,1.187-1.234
				c0.416-0.273,0.85-0.408,1.301-0.408c0.34,0,0.703,0.107,1.09,0.324l-0.642,1.037c-0.258-0.111-0.475-0.166-0.65-0.166
				c-0.41,0-0.806,0.168-1.187,0.504c-0.381,0.338-0.671,0.861-0.87,1.57c-0.152,0.545-0.229,1.646-0.229,3.305v3.234h-1.257V51.938
				z"/>
			<path style="fill:#898989;" d="M43.427,58.327l1.037,0.545c-0.34,0.668-0.733,1.207-1.179,1.617
				c-0.446,0.41-0.947,0.723-1.505,0.936c-0.557,0.215-1.188,0.322-1.891,0.322c-1.561,0-2.78-0.512-3.66-1.535
				c-0.88-1.021-1.319-2.178-1.319-3.467c0-1.213,0.372-2.293,1.117-3.242c0.944-1.207,2.208-1.811,3.792-1.811
				c1.63,0,2.932,0.617,3.905,1.854c0.692,0.873,1.044,1.963,1.056,3.27h-8.604c0.023,1.111,0.378,2.021,1.064,2.732
				c0.687,0.709,1.534,1.064,2.544,1.064c0.486,0,0.96-0.084,1.421-0.254c0.46-0.17,0.852-0.395,1.175-0.674
				C42.702,59.405,43.052,58.952,43.427,58.327z M43.427,55.753c-0.164-0.656-0.403-1.182-0.717-1.574
				c-0.314-0.393-0.729-0.709-1.246-0.949c-0.516-0.24-1.059-0.359-1.627-0.359c-0.939,0-1.746,0.301-2.421,0.904
				c-0.492,0.439-0.865,1.1-1.117,1.979H43.427z"/>
			<path style="fill:#898989;" d="M61.339,53.925l-0.976,0.605c-0.843-1.119-1.993-1.678-3.45-1.678
				c-1.165,0-2.132,0.373-2.901,1.123s-1.154,1.66-1.154,2.73c0,0.697,0.177,1.352,0.531,1.967c0.354,0.613,0.84,1.092,1.457,1.43
				c0.617,0.34,1.31,0.51,2.076,0.51c1.404,0,2.552-0.559,3.441-1.678l0.976,0.641c-0.457,0.689-1.071,1.223-1.842,1.602
				s-1.647,0.57-2.632,0.57c-1.512,0-2.766-0.48-3.762-1.441s-1.494-2.131-1.494-3.508c0-0.926,0.233-1.785,0.698-2.58
				c0.467-0.793,1.106-1.412,1.921-1.857s1.726-0.668,2.733-0.668c0.633,0,1.244,0.096,1.832,0.289
				c0.59,0.193,1.089,0.445,1.499,0.756S61.052,53.444,61.339,53.925z"/>
			<path style="fill:#898989;" d="M68.229,51.692c1.474,0,2.694,0.533,3.663,1.6c0.88,0.973,1.32,2.123,1.32,3.453
				c0,1.336-0.465,2.504-1.396,3.502c-0.931,1-2.126,1.5-3.588,1.5c-1.468,0-2.666-0.5-3.597-1.5
				c-0.931-0.998-1.396-2.166-1.396-3.502c0-1.324,0.44-2.473,1.32-3.445C65.526,52.228,66.75,51.692,68.229,51.692z M68.225,52.896
				c-1.022,0-1.901,0.379-2.637,1.135s-1.103,1.67-1.103,2.742c0,0.691,0.168,1.336,0.503,1.934s0.788,1.059,1.358,1.383
				c0.57,0.326,1.196,0.488,1.878,0.488c0.683,0,1.309-0.162,1.879-0.488c0.57-0.324,1.023-0.785,1.358-1.383
				s0.503-1.242,0.503-1.934c0-1.072-0.369-1.986-1.107-2.742C70.12,53.274,69.242,52.896,68.225,52.896z"/>
			<path style="fill:#898989;" d="M75.489,51.938h1.23v1.713c0.492-0.656,1.037-1.146,1.635-1.473
				c0.598-0.324,1.248-0.486,1.951-0.486c0.715,0,1.35,0.182,1.902,0.545c0.555,0.363,0.963,0.852,1.227,1.467
				s0.396,1.574,0.396,2.875v4.922H82.6v-4.563c0-1.102-0.046-1.836-0.137-2.205c-0.143-0.633-0.416-1.109-0.82-1.43
				c-0.404-0.318-0.932-0.479-1.582-0.479c-0.745,0-1.411,0.246-2,0.738s-0.978,1.102-1.165,1.828
				c-0.117,0.475-0.176,1.342-0.176,2.602v3.508h-1.23V51.938z"/>
			<path style="fill:#898989;" d="M85.562,51.938h1.31l3.21,6.971l3.171-6.971h1.318l-4.377,9.563h-0.229L85.562,51.938z"/>
			<path style="fill:#898989;" d="M104.493,58.327l1.037,0.545c-0.34,0.668-0.733,1.207-1.179,1.617
				c-0.446,0.41-0.947,0.723-1.505,0.936c-0.557,0.215-1.188,0.322-1.891,0.322c-1.561,0-2.78-0.512-3.66-1.535
				c-0.88-1.021-1.319-2.178-1.319-3.467c0-1.213,0.372-2.293,1.117-3.242c0.944-1.207,2.208-1.811,3.792-1.811
				c1.63,0,2.932,0.617,3.905,1.854c0.692,0.873,1.044,1.963,1.056,3.27h-8.604c0.023,1.111,0.378,2.021,1.064,2.732
				c0.687,0.709,1.534,1.064,2.544,1.064c0.486,0,0.96-0.084,1.421-0.254c0.46-0.17,0.852-0.395,1.175-0.674
				C103.769,59.405,104.118,58.952,104.493,58.327z M104.493,55.753c-0.164-0.656-0.403-1.182-0.717-1.574
				c-0.314-0.393-0.729-0.709-1.246-0.949c-0.516-0.24-1.059-0.359-1.627-0.359c-0.939,0-1.746,0.301-2.421,0.904
				c-0.492,0.439-0.865,1.1-1.117,1.979H104.493z"/>
			<path style="fill:#898989;" d="M108.141,51.938h1.23v1.713c0.492-0.656,1.037-1.146,1.635-1.473
				c0.598-0.324,1.248-0.486,1.951-0.486c0.715,0,1.35,0.182,1.902,0.545c0.555,0.363,0.963,0.852,1.227,1.467
				s0.396,1.574,0.396,2.875v4.922h-1.23v-4.563c0-1.102-0.046-1.836-0.137-2.205c-0.143-0.633-0.416-1.109-0.82-1.43
				c-0.404-0.318-0.932-0.479-1.582-0.479c-0.745,0-1.411,0.246-2,0.738s-0.978,1.102-1.165,1.828
				c-0.117,0.475-0.176,1.342-0.176,2.602v3.508h-1.23V51.938z"/>
			<path style="fill:#898989;" d="M119.544,48.001c0.28,0,0.52,0.1,0.718,0.299s0.298,0.439,0.298,0.721
				c0,0.275-0.1,0.512-0.298,0.711s-0.438,0.299-0.718,0.299c-0.273,0-0.51-0.1-0.708-0.299s-0.298-0.436-0.298-0.711
				c0-0.281,0.1-0.521,0.298-0.721S119.271,48.001,119.544,48.001z M118.934,51.938h1.23v9.563h-1.23V51.938z"/>
			<path style="fill:#898989;" d="M130.772,58.327l1.037,0.545c-0.34,0.668-0.733,1.207-1.179,1.617
				c-0.446,0.41-0.947,0.723-1.505,0.936c-0.557,0.215-1.188,0.322-1.891,0.322c-1.561,0-2.78-0.512-3.66-1.535
				c-0.88-1.021-1.319-2.178-1.319-3.467c0-1.213,0.372-2.293,1.117-3.242c0.944-1.207,2.208-1.811,3.792-1.811
				c1.63,0,2.932,0.617,3.905,1.854c0.692,0.873,1.044,1.963,1.056,3.27h-8.604c0.023,1.111,0.378,2.021,1.064,2.732
				c0.687,0.709,1.534,1.064,2.544,1.064c0.486,0,0.96-0.084,1.421-0.254c0.46-0.17,0.852-0.395,1.175-0.674
				C130.048,59.405,130.397,58.952,130.772,58.327z M130.772,55.753c-0.164-0.656-0.403-1.182-0.717-1.574
				c-0.314-0.393-0.729-0.709-1.246-0.949c-0.516-0.24-1.059-0.359-1.627-0.359c-0.939,0-1.746,0.301-2.421,0.904
				c-0.492,0.439-0.865,1.1-1.117,1.979H130.772z"/>
			<path style="fill:#898989;" d="M134.42,51.938h1.23v1.713c0.492-0.656,1.037-1.146,1.635-1.473
				c0.598-0.324,1.248-0.486,1.951-0.486c0.715,0,1.35,0.182,1.902,0.545c0.555,0.363,0.963,0.852,1.227,1.467
				s0.396,1.574,0.396,2.875v4.922h-1.23v-4.563c0-1.102-0.046-1.836-0.137-2.205c-0.143-0.633-0.416-1.109-0.82-1.43
				c-0.404-0.318-0.932-0.479-1.582-0.479c-0.745,0-1.411,0.246-2,0.738s-0.978,1.102-1.165,1.828
				c-0.117,0.475-0.176,1.342-0.176,2.602v3.508h-1.23V51.938z"/>
			<path style="fill:#898989;" d="M146.47,48.388h1.23v3.551h1.951v1.063H147.7v8.5h-1.23v-8.5h-1.679v-1.063h1.679V48.388z"/>
			<path style="fill:#898989;" d="M155.188,51.938h1.266l2.931,6.943l3.052-6.943h0.223l3.071,6.943l2.988-6.943h1.279l-4.154,9.563
				h-0.228l-3.058-6.848l-3.057,6.848h-0.229L155.188,51.938z"/>
			<path style="fill:#898989;" d="M171.865,48.001c0.28,0,0.52,0.1,0.718,0.299s0.298,0.439,0.298,0.721
				c0,0.275-0.1,0.512-0.298,0.711s-0.438,0.299-0.718,0.299c-0.273,0-0.51-0.1-0.708-0.299s-0.298-0.436-0.298-0.711
				c0-0.281,0.1-0.521,0.298-0.721S171.592,48.001,171.865,48.001z M171.255,51.938h1.23v9.563h-1.23V51.938z"/>
			<path style="fill:#898989;" d="M176.115,48.388h1.23v3.551h1.951v1.063h-1.951v8.5h-1.23v-8.5h-1.679v-1.063h1.679V48.388z"/>
			<path style="fill:#898989;" d="M181.143,48.247h1.23v5.404c0.498-0.656,1.046-1.146,1.644-1.473
				c0.598-0.324,1.245-0.486,1.942-0.486c0.715,0,1.35,0.182,1.902,0.545c0.555,0.363,0.963,0.85,1.227,1.463
				c0.264,0.611,0.396,1.572,0.396,2.879v4.922h-1.23v-4.563c0-1.102-0.044-1.836-0.132-2.205c-0.152-0.633-0.43-1.109-0.83-1.43
				c-0.402-0.318-0.928-0.479-1.578-0.479c-0.744,0-1.41,0.246-2,0.738c-0.588,0.492-0.977,1.102-1.164,1.828
				c-0.117,0.469-0.176,1.336-0.176,2.602v3.508h-1.23V48.247z"/>
			<path style="fill:#898989;" d="M196.304,56.104h4.834v1.072h-4.834V56.104z"/>
			<path style="fill:#595757;" d="M209.092,48.571h2.442l-1.48,10.705h4.013l-0.281,2.225h-6.46L209.092,48.571z"/>
			<path style="fill:#595757;" d="M222.917,48.247c1.775,0,3.24,0.57,4.395,1.713s1.731,2.594,1.731,4.352
				c0,1.348-0.342,2.617-1.023,3.809c-0.684,1.193-1.592,2.109-2.725,2.748c-1.135,0.639-2.437,0.957-3.907,0.957
				c-1.84,0-3.31-0.545-4.407-1.635c-1.1-1.09-1.648-2.525-1.648-4.307c0-2.021,0.656-3.758,1.969-5.211
				C218.766,49.056,220.638,48.247,222.917,48.247z M222.829,50.54c-0.926,0-1.771,0.225-2.536,0.672
				c-0.764,0.449-1.381,1.094-1.85,1.934c-0.469,0.842-0.703,1.711-0.703,2.607c0,1.061,0.325,1.959,0.976,2.697
				s1.585,1.107,2.804,1.107c1.412,0,2.611-0.498,3.6-1.494c0.986-0.996,1.48-2.205,1.48-3.629c0-1.178-0.348-2.121-1.041-2.83
				C224.863,50.896,223.954,50.54,222.829,50.54z"/>
			<path style="fill:#595757;" d="M243.123,50.245l-1.767,1.639c-0.381-0.439-0.847-0.777-1.397-1.014
				c-0.551-0.238-1.148-0.355-1.793-0.355c-0.902,0-1.767,0.23-2.593,0.693s-1.47,1.074-1.929,1.834
				c-0.461,0.762-0.69,1.572-0.69,2.434c0,1.17,0.404,2.143,1.213,2.918c0.809,0.777,1.846,1.164,3.111,1.164
				c1.354,0,2.525-0.393,3.516-1.178l1.433,1.891c-1.471,1.037-3.173,1.555-5.106,1.555c-1.359,0-2.516-0.258-3.468-0.773
				s-1.717-1.273-2.293-2.271c-0.578-1-0.866-2.082-0.866-3.248c0-1.248,0.341-2.445,1.024-3.59
				c0.682-1.146,1.606-2.049,2.772-2.707c1.166-0.66,2.438-0.988,3.814-0.988C240.038,48.247,241.711,48.913,243.123,50.245z"/>
			<path style="fill:#595757;" d="M246.182,48.571h2.436l-0.603,4.35l4.124-4.35h3.013l-5.636,5.908l4.452,7.021h-2.716l-3.633-5.73
				l-0.795,5.73h-2.409L246.182,48.571z"/>
			<path style="fill:#595757;" d="M257.15,48.571h6.952l-0.298,2.295h-4.511l-0.371,2.672h4.535l-0.296,2.275h-4.555l-0.477,3.428
				h4.586l-0.293,2.26h-7.04L257.15,48.571z"/>
			<path style="fill:#595757;" d="M266.801,48.571h2.245c1.387,0,2.362,0.121,2.927,0.361c0.705,0.297,1.236,0.713,1.595,1.242
				c0.357,0.529,0.537,1.158,0.537,1.885c0,0.896-0.267,1.664-0.798,2.307c-0.532,0.641-1.336,1.086-2.412,1.338l2.814,5.797h-2.514
				l-2.76-5.643h-0.198l-0.776,5.643h-2.427L266.801,48.571z M268.528,53.739c1.313-0.006,2.168-0.143,2.564-0.408
				c0.396-0.268,0.595-0.666,0.595-1.199c0-0.305-0.079-0.561-0.238-0.766s-0.389-0.348-0.689-0.43s-0.91-0.123-1.829-0.123
				L268.528,53.739z"/>
			<path style="fill:#595757;" d="M288.703,50.374l-1.767,1.564c-0.727-0.938-1.403-1.406-2.03-1.406
				c-0.311,0-0.568,0.092-0.773,0.275c-0.205,0.186-0.308,0.406-0.308,0.664c0,0.24,0.094,0.508,0.281,0.801
				s0.756,0.939,1.705,1.941c0.504,0.533,0.835,0.912,0.993,1.135c0.381,0.516,0.655,0.996,0.821,1.445
				c0.168,0.447,0.251,0.904,0.251,1.367c0,1.037-0.369,1.906-1.107,2.609s-1.685,1.055-2.839,1.055
				c-1.758,0-3.19-0.834-4.298-2.504l1.863-1.504c0.75,1.143,1.562,1.715,2.435,1.715c0.416,0,0.766-0.135,1.051-0.404
				c0.283-0.27,0.426-0.596,0.426-0.977c0-0.299-0.087-0.604-0.26-0.914s-0.666-0.896-1.48-1.758
				c-0.861-0.908-1.427-1.594-1.696-2.057c-0.363-0.627-0.545-1.242-0.545-1.846c0-0.797,0.261-1.512,0.782-2.145
				c0.656-0.791,1.541-1.186,2.654-1.186C286.392,48.247,287.672,48.956,288.703,50.374z"/>
			<path style="fill:#595757;" d="M289.819,48.571h7.893l-0.281,2.303h-2.694l-1.452,10.627h-2.41l1.452-10.627h-2.806
				L289.819,48.571z"/>
			<path style="fill:#595757;" d="M304.989,48.247c1.775,0,3.24,0.57,4.395,1.713s1.731,2.594,1.731,4.352
				c0,1.348-0.342,2.617-1.023,3.809c-0.684,1.193-1.592,2.109-2.725,2.748c-1.135,0.639-2.437,0.957-3.907,0.957
				c-1.84,0-3.31-0.545-4.407-1.635c-1.1-1.09-1.648-2.525-1.648-4.307c0-2.021,0.656-3.758,1.969-5.211
				C300.838,49.056,302.71,48.247,304.989,48.247z M304.901,50.54c-0.926,0-1.771,0.225-2.536,0.672
				c-0.764,0.449-1.381,1.094-1.85,1.934c-0.469,0.842-0.703,1.711-0.703,2.607c0,1.061,0.325,1.959,0.976,2.697
				s1.585,1.107,2.804,1.107c1.412,0,2.611-0.498,3.6-1.494c0.986-0.996,1.48-2.205,1.48-3.629c0-1.178-0.348-2.121-1.041-2.83
				C306.936,50.896,306.026,50.54,304.901,50.54z"/>
			<path style="fill:#595757;" d="M314.314,48.571h2.245c1.387,0,2.362,0.121,2.927,0.361c0.705,0.297,1.236,0.713,1.595,1.242
				c0.357,0.529,0.537,1.158,0.537,1.885c0,0.896-0.267,1.664-0.798,2.307c-0.532,0.641-1.336,1.086-2.412,1.338l2.814,5.797h-2.514
				l-2.76-5.643h-0.198l-0.776,5.643h-2.427L314.314,48.571z M316.042,53.739c1.313-0.006,2.168-0.143,2.564-0.408
				c0.396-0.268,0.595-0.666,0.595-1.199c0-0.305-0.079-0.561-0.238-0.766s-0.389-0.348-0.689-0.43s-0.91-0.123-1.829-0.123
				L316.042,53.739z"/>
			<path style="fill:#595757;" d="M324.466,48.571h6.952l-0.298,2.295h-4.511l-0.371,2.672h4.535l-0.296,2.275h-4.555l-0.477,3.428
				h4.586l-0.293,2.26h-7.04L324.466,48.571z"/>
			<path style="fill:#898989;" d="M334.327,59.567c0.299,0,0.554,0.105,0.765,0.316s0.316,0.469,0.316,0.773
				c0,0.299-0.105,0.555-0.316,0.768c-0.211,0.215-0.466,0.322-0.765,0.322s-0.554-0.107-0.765-0.322
				c-0.211-0.213-0.316-0.469-0.316-0.768c0-0.305,0.105-0.563,0.316-0.773S334.028,59.567,334.327,59.567z"/>
		</g>
	</g>
</g>
</svg>
