<?xml version="1.0" encoding="iso-8859-1"?>
<!-- Generator: Adobe Illustrator 16.0.0, SVG Export Plug-In . SVG Version: 6.00 Build 0)  -->
<!DOCTYPE svg PUBLIC "-//W3C//DTD SVG 1.1//EN" "http://www.w3.org/Graphics/SVG/1.1/DTD/svg11.dtd">
<svg version="1.1" id="&#x5716;&#x5C64;_1" xmlns="http://www.w3.org/2000/svg" xmlns:xlink="http://www.w3.org/1999/xlink" x="0px"
	 y="0px" width="266.008px" height="49.428px" viewBox="0 0 266.008 49.428" style="enable-background:new 0 0 266.008 49.428;"
	 xml:space="preserve">
<g>
	<path style="fill:#2C50A2;" d="M266.008,19.998c0-11.045-8.954-19.998-20-19.998h0H20C8.954,0,0,8.953,0,19.998
		C0,31.045,8.954,40,20,40h211.675l21.373,9.428l-5.635-9.5C257.8,39.205,266.008,30.57,266.008,19.998z"/>
	<g>
		<path style="fill:#FFFFFF;" d="M21.659,14.732h1.836l4.303,6.617v-6.617h1.914v10.055h-1.841l-4.297-6.596v6.596h-1.914V14.732z"
			/>
		<path style="fill:#FFFFFF;" d="M33.232,14.287c0.327,0,0.608,0.119,0.842,0.355c0.234,0.238,0.351,0.525,0.351,0.861
			c0,0.334-0.116,0.617-0.348,0.852s-0.509,0.352-0.832,0.352c-0.332,0-0.615-0.119-0.849-0.359
			c-0.234-0.238-0.351-0.529-0.351-0.871c0-0.328,0.116-0.607,0.348-0.84C32.625,14.404,32.905,14.287,33.232,14.287z M32.299,17.35
			h1.866v7.438h-1.866V17.35z"/>
		<path style="fill:#FFFFFF;" d="M43.84,18.854l-1.554,0.855c-0.292-0.307-0.581-0.518-0.866-0.637
			c-0.285-0.117-0.619-0.178-1.002-0.178c-0.698,0-1.263,0.209-1.694,0.625c-0.432,0.416-0.647,0.949-0.647,1.6
			c0,0.633,0.208,1.15,0.623,1.551c0.415,0.4,0.96,0.6,1.635,0.6c0.835,0,1.485-0.285,1.951-0.854l1.472,1.008
			c-0.797,1.037-1.923,1.555-3.377,1.555c-1.308,0-2.332-0.387-3.073-1.162c-0.741-0.773-1.111-1.682-1.111-2.721
			c0-0.719,0.18-1.383,0.54-1.988c0.36-0.607,0.862-1.082,1.507-1.43c0.645-0.346,1.366-0.52,2.164-0.52
			c0.738,0,1.401,0.146,1.989,0.441C42.986,17.893,43.467,18.313,43.84,18.854z"/>
		<path style="fill:#FFFFFF;" d="M53.673,21.609h-5.995c0.086,0.527,0.318,0.949,0.694,1.26c0.376,0.313,0.855,0.469,1.439,0.469
			c0.697,0,1.296-0.244,1.798-0.73l1.572,0.738c-0.392,0.555-0.861,0.967-1.408,1.232c-0.547,0.268-1.196,0.4-1.948,0.4
			c-1.167,0-2.117-0.367-2.851-1.104s-1.101-1.658-1.101-2.766c0-1.135,0.366-2.076,1.097-2.826s1.648-1.125,2.751-1.125
			c1.171,0,2.124,0.375,2.857,1.125s1.101,1.74,1.101,2.971L53.673,21.609z M51.807,20.139c-0.123-0.414-0.366-0.752-0.729-1.012
			c-0.363-0.26-0.784-0.389-1.263-0.389c-0.521,0-0.977,0.145-1.37,0.438c-0.246,0.182-0.475,0.504-0.685,0.963H51.807z"/>
		<path style="fill:#FFFFFF;" d="M56.896,22.641c0.324,0,0.601,0.115,0.831,0.342c0.23,0.229,0.345,0.504,0.345,0.828
			c0,0.318-0.115,0.594-0.345,0.822c-0.23,0.23-0.507,0.346-0.831,0.346s-0.599-0.113-0.827-0.342
			c-0.228-0.227-0.342-0.504-0.342-0.826c0-0.324,0.114-0.6,0.342-0.828C56.296,22.756,56.572,22.641,56.896,22.641z M55.952,14.479
			h1.887v7.35h-1.887V14.479z"/>
		<path style="fill:#FFFFFF;" d="M65.187,14.732h1.9v10.055h-1.9V14.732z"/>
		<path style="fill:#FFFFFF;" d="M81.632,18.854l-1.554,0.855c-0.292-0.307-0.581-0.518-0.866-0.637
			c-0.285-0.117-0.619-0.178-1.002-0.178c-0.698,0-1.263,0.209-1.694,0.625c-0.432,0.416-0.647,0.949-0.647,1.6
			c0,0.633,0.208,1.15,0.623,1.551c0.415,0.4,0.96,0.6,1.635,0.6c0.835,0,1.485-0.285,1.951-0.854l1.472,1.008
			c-0.797,1.037-1.923,1.555-3.377,1.555c-1.308,0-2.332-0.387-3.073-1.162c-0.741-0.773-1.111-1.682-1.111-2.721
			c0-0.719,0.18-1.383,0.54-1.988c0.36-0.607,0.862-1.082,1.507-1.43c0.645-0.346,1.366-0.52,2.164-0.52
			c0.738,0,1.401,0.146,1.989,0.441C80.778,17.893,81.259,18.313,81.632,18.854z"/>
		<path style="fill:#FFFFFF;" d="M89.503,17.35h1.866v7.438h-1.866v-0.785c-0.364,0.346-0.729,0.596-1.096,0.748
			c-0.367,0.152-0.764,0.229-1.192,0.229c-0.96,0-1.791-0.373-2.492-1.117c-0.701-0.746-1.051-1.672-1.051-2.779
			c0-1.148,0.339-2.09,1.018-2.822c0.678-0.734,1.502-1.102,2.472-1.102c0.446,0,0.865,0.084,1.256,0.254
			c0.392,0.168,0.753,0.422,1.086,0.758V17.35z M87.541,18.881c-0.577,0-1.056,0.205-1.438,0.611
			c-0.381,0.408-0.572,0.932-0.572,1.57c0,0.643,0.194,1.17,0.583,1.586c0.388,0.414,0.866,0.621,1.434,0.621
			c0.586,0,1.072-0.203,1.458-0.611c0.386-0.408,0.579-0.941,0.579-1.604c0-0.646-0.193-1.17-0.579-1.572
			C88.62,19.082,88.131,18.881,87.541,18.881z"/>
		<path style="fill:#FFFFFF;" d="M93.956,17.35h1.866v0.762c0.423-0.355,0.807-0.604,1.15-0.744
			c0.343-0.139,0.695-0.209,1.054-0.209c0.737,0,1.363,0.258,1.877,0.773c0.432,0.438,0.648,1.084,0.648,1.941v4.914h-1.846v-3.256
			c0-0.889-0.04-1.479-0.12-1.77s-0.218-0.514-0.416-0.666c-0.198-0.152-0.442-0.229-0.733-0.229c-0.377,0-0.701,0.127-0.972,0.379
			c-0.271,0.254-0.458,0.604-0.563,1.049c-0.055,0.232-0.082,0.734-0.082,1.508v2.984h-1.866V17.35z"/>
		<path style="fill:#FFFFFF;" d="M115.125,21.609h-5.995c0.086,0.527,0.318,0.949,0.694,1.26c0.376,0.313,0.855,0.469,1.439,0.469
			c0.697,0,1.296-0.244,1.798-0.73l1.572,0.738c-0.392,0.555-0.861,0.967-1.408,1.232c-0.547,0.268-1.196,0.4-1.948,0.4
			c-1.167,0-2.117-0.367-2.851-1.104s-1.101-1.658-1.101-2.766c0-1.135,0.366-2.076,1.097-2.826s1.648-1.125,2.751-1.125
			c1.171,0,2.124,0.375,2.857,1.125s1.101,1.74,1.101,2.971L115.125,21.609z M113.259,20.139c-0.123-0.414-0.366-0.752-0.729-1.012
			c-0.363-0.26-0.784-0.389-1.263-0.389c-0.521,0-0.977,0.145-1.37,0.438c-0.246,0.182-0.475,0.504-0.685,0.963H113.259z"/>
		<path style="fill:#FFFFFF;" d="M122.826,17.35h1.866v7.438h-1.866v-0.785c-0.364,0.346-0.729,0.596-1.096,0.748
			c-0.367,0.152-0.764,0.229-1.192,0.229c-0.96,0-1.791-0.373-2.492-1.117c-0.701-0.746-1.051-1.672-1.051-2.779
			c0-1.148,0.339-2.09,1.018-2.822c0.678-0.734,1.502-1.102,2.472-1.102c0.446,0,0.865,0.084,1.256,0.254
			c0.392,0.168,0.753,0.422,1.086,0.758V17.35z M120.864,18.881c-0.577,0-1.056,0.205-1.438,0.611
			c-0.381,0.408-0.572,0.932-0.572,1.57c0,0.643,0.194,1.17,0.583,1.586c0.388,0.414,0.866,0.621,1.434,0.621
			c0.586,0,1.072-0.203,1.458-0.611c0.386-0.408,0.579-0.941,0.579-1.604c0-0.646-0.193-1.17-0.579-1.572
			C121.942,19.082,121.454,18.881,120.864,18.881z"/>
		<path style="fill:#FFFFFF;" d="M126.841,17.35h1.6v0.938c0.173-0.369,0.403-0.65,0.69-0.842s0.602-0.287,0.943-0.287
			c0.242,0,0.495,0.064,0.759,0.191l-0.581,1.607c-0.219-0.109-0.399-0.164-0.54-0.164c-0.287,0-0.53,0.178-0.728,0.533
			s-0.297,1.053-0.297,2.092l0.007,0.361v3.008h-1.853V17.35z"/>
		<path style="fill:#FFFFFF;" d="M132.456,17.35h1.866v0.762c0.423-0.355,0.807-0.604,1.15-0.744
			c0.343-0.139,0.695-0.209,1.054-0.209c0.737,0,1.363,0.258,1.877,0.773c0.432,0.438,0.648,1.084,0.648,1.941v4.914h-1.846v-3.256
			c0-0.889-0.04-1.479-0.12-1.77s-0.218-0.514-0.416-0.666c-0.198-0.152-0.442-0.229-0.733-0.229c-0.377,0-0.701,0.127-0.972,0.379
			c-0.271,0.254-0.458,0.604-0.563,1.049c-0.055,0.232-0.082,0.734-0.082,1.508v2.984h-1.866V17.35z"/>
		<path style="fill:#FFFFFF;" d="M146.161,17.35h1.866v0.855c0.319-0.352,0.674-0.613,1.064-0.787c0.39-0.172,0.815-0.26,1.276-0.26
			c0.465,0,0.884,0.115,1.258,0.342c0.374,0.229,0.675,0.561,0.903,0.998c0.296-0.438,0.66-0.77,1.091-0.998
			c0.431-0.227,0.902-0.342,1.413-0.342c0.529,0,0.994,0.123,1.396,0.369s0.69,0.568,0.866,0.965
			c0.175,0.396,0.263,1.041,0.263,1.934v4.361h-1.88v-3.773c0-0.842-0.105-1.414-0.314-1.713c-0.209-0.297-0.524-0.447-0.943-0.447
			c-0.319,0-0.605,0.092-0.858,0.273c-0.253,0.184-0.441,0.434-0.564,0.756c-0.123,0.32-0.185,0.838-0.185,1.549v3.355h-1.88v-3.602
			c0-0.666-0.049-1.148-0.147-1.447c-0.098-0.297-0.246-0.52-0.442-0.666c-0.196-0.145-0.434-0.219-0.712-0.219
			c-0.311,0-0.593,0.092-0.847,0.277c-0.253,0.184-0.443,0.443-0.568,0.775c-0.125,0.334-0.188,0.857-0.188,1.572v3.309h-1.866
			V17.35z"/>
		<path style="fill:#FFFFFF;" d="M163.527,17.158c0.702,0,1.361,0.176,1.979,0.527c0.618,0.35,1.1,0.826,1.446,1.428
			s0.52,1.252,0.52,1.949c0,0.701-0.174,1.357-0.523,1.969c-0.349,0.609-0.824,1.088-1.425,1.432s-1.265,0.516-1.989,0.516
			c-1.066,0-1.977-0.379-2.731-1.139c-0.754-0.758-1.131-1.68-1.131-2.764c0-1.162,0.426-2.131,1.278-2.906
			C161.697,17.496,162.556,17.158,163.527,17.158z M163.558,18.916c-0.58,0-1.063,0.201-1.448,0.604
			c-0.386,0.404-0.579,0.92-0.579,1.549c0,0.648,0.19,1.172,0.572,1.572c0.381,0.402,0.864,0.602,1.448,0.602
			s1.07-0.203,1.458-0.607c0.388-0.406,0.582-0.928,0.582-1.566c0-0.637-0.19-1.156-0.572-1.555S164.151,18.916,163.558,18.916z"/>
		<path style="fill:#FFFFFF;" d="M169.258,17.35h1.6v0.938c0.173-0.369,0.403-0.65,0.69-0.842s0.602-0.287,0.943-0.287
			c0.242,0,0.495,0.064,0.759,0.191l-0.581,1.607c-0.219-0.109-0.399-0.164-0.54-0.164c-0.287,0-0.53,0.178-0.728,0.533
			s-0.297,1.053-0.297,2.092l0.007,0.361v3.008h-1.853V17.35z"/>
		<path style="fill:#FFFFFF;" d="M182.324,21.609h-5.995c0.086,0.527,0.318,0.949,0.694,1.26c0.376,0.313,0.855,0.469,1.439,0.469
			c0.697,0,1.296-0.244,1.798-0.73l1.572,0.738c-0.392,0.555-0.861,0.967-1.408,1.232c-0.547,0.268-1.196,0.4-1.948,0.4
			c-1.167,0-2.117-0.367-2.851-1.104s-1.101-1.658-1.101-2.766c0-1.135,0.366-2.076,1.097-2.826s1.648-1.125,2.751-1.125
			c1.171,0,2.124,0.375,2.857,1.125s1.101,1.74,1.101,2.971L182.324,21.609z M180.458,20.139c-0.123-0.414-0.366-0.752-0.729-1.012
			c-0.363-0.26-0.784-0.389-1.263-0.389c-0.521,0-0.977,0.145-1.37,0.438c-0.246,0.182-0.475,0.504-0.685,0.963H180.458z"/>
		<path style="fill:#FFFFFF;" d="M189.138,17.35h1.866v0.855c0.319-0.352,0.674-0.613,1.064-0.787c0.39-0.172,0.815-0.26,1.276-0.26
			c0.465,0,0.884,0.115,1.258,0.342c0.374,0.229,0.675,0.561,0.903,0.998c0.296-0.438,0.66-0.77,1.091-0.998
			c0.431-0.227,0.902-0.342,1.413-0.342c0.529,0,0.994,0.123,1.396,0.369s0.69,0.568,0.866,0.965
			c0.175,0.396,0.263,1.041,0.263,1.934v4.361h-1.88v-3.773c0-0.842-0.105-1.414-0.314-1.713c-0.209-0.297-0.524-0.447-0.943-0.447
			c-0.319,0-0.605,0.092-0.858,0.273c-0.253,0.184-0.441,0.434-0.564,0.756c-0.123,0.32-0.185,0.838-0.185,1.549v3.355h-1.88v-3.602
			c0-0.666-0.049-1.148-0.147-1.447c-0.098-0.297-0.246-0.52-0.442-0.666c-0.196-0.145-0.434-0.219-0.712-0.219
			c-0.311,0-0.593,0.092-0.847,0.277c-0.253,0.184-0.443,0.443-0.568,0.775c-0.125,0.334-0.188,0.857-0.188,1.572v3.309h-1.866
			V17.35z"/>
		<path style="fill:#FFFFFF;" d="M206.504,17.158c0.702,0,1.361,0.176,1.979,0.527c0.618,0.35,1.1,0.826,1.446,1.428
			s0.52,1.252,0.52,1.949c0,0.701-0.174,1.357-0.523,1.969c-0.349,0.609-0.824,1.088-1.425,1.432s-1.265,0.516-1.989,0.516
			c-1.066,0-1.977-0.379-2.731-1.139c-0.754-0.758-1.131-1.68-1.131-2.764c0-1.162,0.426-2.131,1.278-2.906
			C204.675,17.496,205.534,17.158,206.504,17.158z M206.535,18.916c-0.58,0-1.063,0.201-1.448,0.604
			c-0.386,0.404-0.579,0.92-0.579,1.549c0,0.648,0.19,1.172,0.572,1.572c0.381,0.402,0.864,0.602,1.448,0.602
			s1.07-0.203,1.458-0.607c0.388-0.406,0.582-0.928,0.582-1.566c0-0.637-0.19-1.156-0.572-1.555S207.128,18.916,206.535,18.916z"/>
		<path style="fill:#FFFFFF;" d="M212.673,17.35h1.866v0.762c0.423-0.355,0.807-0.604,1.15-0.744
			c0.343-0.139,0.695-0.209,1.054-0.209c0.737,0,1.363,0.258,1.877,0.773c0.432,0.438,0.648,1.084,0.648,1.941v4.914h-1.846v-3.256
			c0-0.889-0.04-1.479-0.12-1.77s-0.218-0.514-0.416-0.666c-0.198-0.152-0.442-0.229-0.733-0.229c-0.377,0-0.701,0.127-0.972,0.379
			c-0.271,0.254-0.458,0.604-0.563,1.049c-0.055,0.232-0.082,0.734-0.082,1.508v2.984h-1.866V17.35z"/>
		<path style="fill:#FFFFFF;" d="M229.226,21.609h-5.995c0.086,0.527,0.318,0.949,0.694,1.26c0.376,0.313,0.855,0.469,1.439,0.469
			c0.697,0,1.296-0.244,1.798-0.73l1.572,0.738c-0.392,0.555-0.861,0.967-1.408,1.232c-0.547,0.268-1.196,0.4-1.948,0.4
			c-1.167,0-2.117-0.367-2.851-1.104s-1.101-1.658-1.101-2.766c0-1.135,0.366-2.076,1.097-2.826s1.648-1.125,2.751-1.125
			c1.171,0,2.124,0.375,2.857,1.125s1.101,1.74,1.101,2.971L229.226,21.609z M227.359,20.139c-0.123-0.414-0.366-0.752-0.729-1.012
			c-0.363-0.26-0.784-0.389-1.263-0.389c-0.521,0-0.977,0.145-1.37,0.438c-0.246,0.182-0.475,0.504-0.685,0.963H227.359z"/>
		<path style="fill:#FFFFFF;" d="M230.611,17.35h1.907l1.932,4.668l2.132-4.668h1.913l-4.658,10.158h-1.927l1.529-3.275
			L230.611,17.35z"/>
		<path style="fill:#FFFFFF;" d="M241.276,22.84c0.296,0,0.549,0.104,0.759,0.311s0.314,0.459,0.314,0.756
			c0,0.295-0.105,0.549-0.314,0.758c-0.209,0.211-0.462,0.314-0.759,0.314s-0.549-0.104-0.759-0.314
			c-0.209-0.209-0.314-0.463-0.314-0.758c0-0.297,0.105-0.549,0.314-0.756S240.979,22.84,241.276,22.84z"/>
	</g>
</g>
</svg>
