<?xml version="1.0" encoding="iso-8859-1"?>
<!-- Generator: Adobe Illustrator 16.0.0, SVG Export Plug-In . SVG Version: 6.00 Build 0)  -->
<!DOCTYPE svg PUBLIC "-//W3C//DTD SVG 1.1//EN" "http://www.w3.org/Graphics/SVG/1.1/DTD/svg11.dtd">
<svg version="1.1" id="&#x5716;&#x5C64;_1" xmlns="http://www.w3.org/2000/svg" xmlns:xlink="http://www.w3.org/1999/xlink" x="0px"
	 y="0px" width="1280px" height="70px" viewBox="0 0 1280 70" style="enable-background:new 0 0 1280 70;" xml:space="preserve">
<g>
	<rect style="fill:#E9C41D;" width="1280" height="70"/>
	<g>
		<g>
			<path style="fill:#3253A2;" d="M562.889,45.619V28.381h2.709c1.572,0,2.723,0.102,3.451,0.305
				c1.031,0.273,1.854,0.781,2.463,1.523c0.611,0.742,0.916,1.617,0.916,2.625c0,0.656-0.139,1.252-0.416,1.787
				s-0.729,1.037-1.354,1.506c1.047,0.492,1.813,1.107,2.297,1.846s0.727,1.611,0.727,2.619c0,0.969-0.25,1.851-0.752,2.648
				c-0.5,0.797-1.145,1.393-1.936,1.787c-0.789,0.395-1.881,0.592-3.273,0.592H562.889z M566.17,31.51v3.633h0.717
				c0.801,0,1.395-0.168,1.783-0.504c0.387-0.336,0.582-0.793,0.582-1.371c0-0.539-0.186-0.967-0.553-1.283
				c-0.369-0.316-0.93-0.475-1.684-0.475H566.17z M566.17,38.072v4.417h0.822c1.363,0,2.281-0.172,2.756-0.516
				c0.473-0.343,0.711-0.843,0.711-1.5c0-0.742-0.279-1.328-0.834-1.758c-0.557-0.43-1.482-0.645-2.773-0.645H566.17z"/>
			<path style="fill:#3253A2;" d="M582.668,28.381h3.328l6.631,17.238h-3.41l-1.35-3.551h-7.033l-1.402,3.551h-3.41L582.668,28.381z
				 M584.354,32.951l-2.313,5.918h4.611L584.354,32.951z"/>
			<path style="fill:#3253A2;" d="M611.608,31.41l-2.295,2.188c-1.561-1.649-3.316-2.476-5.268-2.476
				c-1.648,0-3.035,0.563-4.164,1.689c-1.127,1.127-1.691,2.514-1.691,4.164c0,1.15,0.25,2.17,0.75,3.063
				c0.5,0.891,1.205,1.592,2.119,2.099c0.914,0.508,1.928,0.762,3.045,0.762c0.951,0,1.822-0.178,2.609-0.533
				c0.789-0.355,1.656-1.002,2.6-1.941l2.225,2.322c-1.273,1.242-2.477,2.104-3.609,2.584s-2.426,0.721-3.879,0.721
				c-2.68,0-4.873-0.85-6.58-2.549s-2.561-3.876-2.561-6.533c0-1.719,0.389-3.246,1.166-4.582s1.891-2.41,3.34-3.223
				s3.01-1.219,4.682-1.219c1.422,0,2.791,0.301,4.107,0.901S610.655,30.303,611.608,31.41z"/>
			<path style="fill:#3253A2;" d="M615.102,28.381h3.316v5.943l4.68-5.943h3.939l-6.02,7.693l6.605,9.544h-3.891l-5.314-7.658v7.658
				h-3.316V28.381z"/>
			<path style="fill:#3253A2;" d="M636.178,28.381h9.527v3.234h-3.141v14.003h-3.328V31.615h-3.059V28.381z"/>
			<path style="fill:#3253A2;" d="M656.694,27.947c2.439,0,4.535,0.883,6.291,2.648c1.754,1.766,2.633,3.918,2.633,6.457
				c0,2.516-0.867,4.645-2.598,6.386c-1.732,1.742-3.832,2.613-6.303,2.613c-2.588,0-4.738-0.895-6.449-2.684
				c-1.713-1.789-2.568-3.914-2.568-6.375c0-1.648,0.398-3.164,1.195-4.547s1.895-2.479,3.289-3.287
				C653.581,28.352,655.083,27.947,656.694,27.947z M656.659,31.158c-1.596,0-2.938,0.555-4.023,1.664
				c-1.088,1.109-1.631,2.52-1.631,4.23c0,1.906,0.684,3.414,2.053,4.523c1.063,0.867,2.283,1.3,3.66,1.3
				c1.557,0,2.881-0.563,3.977-1.687c1.094-1.125,1.643-2.512,1.643-4.16c0-1.641-0.553-3.029-1.654-4.166
				C659.579,31.727,658.239,31.158,656.659,31.158z"/>
			<path style="fill:#3253A2;" d="M674.926,28.381h9.527v3.234h-3.141v14.003h-3.328V31.615h-3.059V28.381z"/>
			<path style="fill:#3253A2;" d="M695.444,27.947c2.439,0,4.535,0.883,6.291,2.648c1.754,1.766,2.633,3.918,2.633,6.457
				c0,2.516-0.867,4.645-2.598,6.386c-1.732,1.742-3.832,2.613-6.303,2.613c-2.588,0-4.738-0.895-6.449-2.684
				c-1.713-1.789-2.568-3.914-2.568-6.375c0-1.648,0.398-3.164,1.195-4.547s1.895-2.479,3.289-3.287
				C692.331,28.352,693.833,27.947,695.444,27.947z M695.409,31.158c-1.596,0-2.938,0.555-4.023,1.664
				c-1.088,1.109-1.631,2.52-1.631,4.23c0,1.906,0.684,3.414,2.053,4.523c1.063,0.867,2.283,1.3,3.66,1.3
				c1.557,0,2.881-0.563,3.977-1.687c1.094-1.125,1.643-2.512,1.643-4.16c0-1.641-0.553-3.029-1.654-4.166
				C698.329,31.727,696.989,31.158,695.409,31.158z"/>
			<path style="fill:#3253A2;" d="M708.049,28.381h3.48c1.883,0,3.24,0.174,4.072,0.521s1.488,0.91,1.969,1.688
				s0.721,1.709,0.721,2.795c0,1.203-0.314,2.203-0.943,3s-1.482,1.352-2.561,1.664c-0.633,0.18-1.785,0.27-3.457,0.27v7.3h-3.281
				V28.381z M711.331,35.119h1.043c0.82,0,1.391-0.059,1.711-0.176s0.572-0.312,0.756-0.582s0.275-0.598,0.275-0.982
				c0-0.666-0.258-1.152-0.773-1.457c-0.375-0.228-1.07-0.342-2.086-0.342h-0.926V35.119z"/>
		</g>
	</g>
</g>
</svg>
