<?xml version="1.0" encoding="iso-8859-1"?>
<!-- Generator: Adobe Illustrator 16.0.0, SVG Export Plug-In . SVG Version: 6.00 Build 0)  -->
<!DOCTYPE svg PUBLIC "-//W3C//DTD SVG 1.1//EN" "http://www.w3.org/Graphics/SVG/1.1/DTD/svg11.dtd">
<svg version="1.1" id="&#x5716;&#x5C64;_1" xmlns="http://www.w3.org/2000/svg" xmlns:xlink="http://www.w3.org/1999/xlink" x="0px"
	 y="0px" width="8.218px" height="14.675px" viewBox="0 0 8.218 14.675" style="enable-background:new 0 0 8.218 14.675;"
	 xml:space="preserve">
<g>
	<path style="fill:#DCDDDD;stroke:#C9CACA;stroke-width:0.5;stroke-miterlimit:10;" d="M7.544,2.531L6.11,3.927
		c-0.654-0.673-1.3-1.01-1.939-1.01c-0.375,0-0.682,0.101-0.917,0.3C3.019,3.419,2.9,3.649,2.9,3.912
		c0,0.224,0.105,0.442,0.312,0.661c0.205,0.224,0.614,0.461,1.233,0.714C5.546,5.742,6.3,6.132,6.705,6.453
		c0.404,0.321,0.719,0.709,0.936,1.159c0.219,0.449,0.327,0.955,0.327,1.515s-0.116,1.077-0.35,1.553
		c-0.232,0.475-0.532,0.852-0.898,1.128c-0.366,0.278-0.894,0.489-1.582,0.633v1.984H3.74v-1.94
		c-0.648-0.074-1.201-0.237-1.657-0.49c-0.622-0.346-1.202-0.807-1.738-1.382l1.412-1.447c0.906,0.966,1.782,1.447,2.629,1.447
		c0.432,0,0.802-0.148,1.112-0.448c0.309-0.301,0.464-0.652,0.464-1.06c0-0.343-0.099-0.641-0.297-0.898
		C5.461,7.948,5.071,7.685,4.491,7.419C3.313,6.875,2.516,6.441,2.099,6.122C1.683,5.804,1.372,5.443,1.167,5.045
		c-0.205-0.4-0.309-0.823-0.309-1.273c0-0.748,0.273-1.388,0.817-1.921C2.22,1.318,2.909,1.032,3.74,0.993V0.25h1.397v0.839
		C5.617,1.203,6.025,1.356,6.359,1.55C6.693,1.742,7.087,2.069,7.544,2.531z"/>
</g>
</svg>
