<?xml version="1.0" encoding="iso-8859-1"?>
<!-- Generator: Adobe Illustrator 16.0.0, SVG Export Plug-In . SVG Version: 6.00 Build 0)  -->
<!DOCTYPE svg PUBLIC "-//W3C//DTD SVG 1.1//EN" "http://www.w3.org/Graphics/SVG/1.1/DTD/svg11.dtd">
<svg version="1.1" id="&#x5716;&#x5C64;_1" xmlns="http://www.w3.org/2000/svg" xmlns:xlink="http://www.w3.org/1999/xlink" x="0px"
	 y="0px" width="64.795px" height="11.535px" viewBox="0 0 64.795 11.535" style="enable-background:new 0 0 64.795 11.535;"
	 xml:space="preserve">
<g>
	<polygon style="fill:#FFFFFF;stroke:#FFFFFF;stroke-width:0.75;stroke-miterlimit:10;" points="6.063,0.848 7.688,4.139 
		11.321,4.666 8.692,7.229 9.313,10.85 6.063,9.141 2.815,10.85 3.435,7.229 0.806,4.666 4.438,4.139 	"/>
	<polygon style="fill:#FFFFFF;stroke:#FFFFFF;stroke-width:0.75;stroke-miterlimit:10;" points="19.231,0.848 20.854,4.139 
		24.489,4.666 21.86,7.229 22.479,10.85 19.231,9.141 15.981,10.85 16.603,7.229 13.974,4.666 17.606,4.139 	"/>
	<polygon style="fill:#FFFFFF;stroke:#FFFFFF;stroke-width:0.75;stroke-miterlimit:10;" points="32.397,0.848 34.022,4.139 
		37.655,4.666 35.026,7.229 35.647,10.85 32.397,9.141 29.149,10.85 29.769,7.229 27.14,4.666 30.772,4.139 	"/>
	<polygon style="fill:#FFFFFF;stroke:#FFFFFF;stroke-width:0.75;stroke-miterlimit:10;" points="45.565,0.848 47.188,4.139 
		50.823,4.666 48.194,7.229 48.813,10.85 45.565,9.141 42.315,10.85 42.937,7.229 40.308,4.666 43.94,4.139 	"/>
	<polygon style="fill:none;stroke:#FFFFFF;stroke-width:0.75;stroke-miterlimit:10;" points="58.731,0.848 60.356,4.139 
		63.989,4.666 61.36,7.229 61.981,10.85 58.731,9.141 55.483,10.85 56.103,7.229 53.474,4.666 57.106,4.139 	"/>
</g>
</svg>
