<?xml version="1.0" encoding="iso-8859-1"?>
<!-- Generator: Adobe Illustrator 16.0.0, SVG Export Plug-In . SVG Version: 6.00 Build 0)  -->
<!DOCTYPE svg PUBLIC "-//W3C//DTD SVG 1.1//EN" "http://www.w3.org/Graphics/SVG/1.1/DTD/svg11.dtd">
<svg version="1.1" id="&#x5716;&#x5C64;_1" xmlns="http://www.w3.org/2000/svg" xmlns:xlink="http://www.w3.org/1999/xlink" x="0px"
	 y="0px" width="16.121px" height="14.039px" viewBox="0 0 16.121 14.039" style="enable-background:new 0 0 16.121 14.039;"
	 xml:space="preserve">
<g>
	<path style="opacity:0.5;fill:#036EB8;" d="M7.473,14.039H0c0-3.588,1.674-6.493,3.737-6.493
		C5.802,7.546,7.473,10.451,7.473,14.039z"/>
	<path style="opacity:0.5;fill:#036EB8;" d="M16.121,14.039H8.648c0-3.588,1.672-6.493,3.737-6.493
		C14.449,7.546,16.121,10.451,16.121,14.039z"/>
	<path style="fill:#036EB8;" d="M12.418,14.039H3.703c0-4.439,1.951-8.037,4.359-8.037C10.468,6.002,12.418,9.6,12.418,14.039z"/>
	<ellipse style="opacity:0.5;fill:#036EB8;" cx="3.72" cy="4.564" rx="2.989" ry="2.479"/>
	<ellipse style="opacity:0.5;fill:#036EB8;" cx="12.402" cy="4.564" rx="2.989" ry="2.479"/>
	<path style="fill:#036EB8;" d="M11.034,2.478c0,1.37-1.339,2.479-2.988,2.479c-1.651,0-2.99-1.108-2.99-2.479
		C5.056,1.112,6.395,0,8.046,0C9.695,0,11.034,1.112,11.034,2.478z"/>
</g>
</svg>
