<?xml version="1.0" encoding="iso-8859-1"?>
<!-- Generator: Adobe Illustrator 16.0.0, SVG Export Plug-In . SVG Version: 6.00 Build 0)  -->
<!DOCTYPE svg PUBLIC "-//W3C//DTD SVG 1.1//EN" "http://www.w3.org/Graphics/SVG/1.1/DTD/svg11.dtd">
<svg version="1.1" id="&#x5716;&#x5C64;_1" xmlns="http://www.w3.org/2000/svg" xmlns:xlink="http://www.w3.org/1999/xlink" x="0px"
	 y="0px" width="72.68px" height="26px" viewBox="0 0 72.68 26" style="enable-background:new 0 0 72.68 26;" xml:space="preserve">
<g>
	<path style="fill:#FFFFFF;stroke:#2C50A2;stroke-miterlimit:10;" d="M72.18,13c0,6.9-5.6,12.5-12.5,12.5H13
		C6.09,25.5,0.5,19.9,0.5,13C0.5,6.09,6.09,0.5,13,0.5h46.68C66.58,0.5,72.18,6.09,72.18,13z"/>
	<g>
		<path style="fill:#2C50A2;" d="M16.525,16.754c0.695,0.264,1.571,0.336,2.662,0.336c0.72,0.012,4.174,0.012,5.062-0.024
			c-0.18,0.264-0.384,0.768-0.456,1.103h-4.594c-2.398,0-3.838-0.348-4.737-1.846c-0.12,0.839-0.323,1.559-0.623,2.146
			c-0.181-0.133-0.647-0.396-0.899-0.504c0.659-1.188,0.755-3.07,0.779-5.146l0.995,0.072c-0.012,0.575-0.036,1.128-0.06,1.667
			c0.216,0.684,0.491,1.199,0.875,1.559v-4.041h-2.267V11.08h2.087V9.773h-1.847V8.802h1.847V7.459h1.02v1.343h1.799v0.972h-1.799
			v1.307h2.027v0.42c0.936-0.563,1.438-1.402,1.631-2.614h-1.499V7.938h5.229c0,0,0,0.275-0.012,0.407
			c-0.096,2.088-0.216,2.927-0.479,3.238c-0.204,0.229-0.42,0.313-0.744,0.348c-0.275,0.024-0.768,0.037-1.295,0.012
			c-0.024-0.287-0.132-0.684-0.288-0.947c0.456,0.049,0.888,0.049,1.056,0.049s0.275-0.024,0.359-0.12
			c0.145-0.168,0.229-0.696,0.3-2.039h-1.57c-0.252,1.655-0.948,2.723-2.136,3.454c-0.119-0.12-0.348-0.313-0.551-0.468v0.204
			h-1.871V13.6h1.738v0.971h-1.738V16.754z M18.888,12.52h4.605v3.706h-4.605V12.52z M19.932,15.314h2.458v-1.883h-2.458V15.314z"/>
		<path style="fill:#2C50A2;" d="M28.705,7.807c-0.336,0.899-0.756,1.811-1.211,2.65v8.012h-1.032v-6.333
			c-0.287,0.408-0.575,0.768-0.875,1.104c-0.084-0.276-0.396-0.863-0.588-1.14c1.067-1.115,2.075-2.854,2.675-4.605L28.705,7.807z
			 M36.081,17.233v0.947h-7.987v-0.947h1.103v-6.657h2.052c0.06-0.287,0.132-0.635,0.191-0.982h-2.818v-0.96h2.962
			c0.061-0.407,0.108-0.804,0.132-1.151l1.176,0.048c-0.06,0.349-0.132,0.731-0.204,1.104h3.083v0.96h-3.274
			c-0.072,0.348-0.156,0.695-0.24,0.982h2.843v6.657H36.081z M30.192,11.416v0.852h3.874v-0.852H30.192z M34.066,13.071h-3.874
			v0.852h3.874V13.071z M30.192,14.703v0.875h3.874v-0.875H30.192z M30.192,17.233h3.874v-0.864h-3.874V17.233z"/>
		<path style="fill:#2C50A2;" d="M39.35,12.976c-0.491-0.336-1.487-0.911-2.207-1.283l0.612-0.827
			c0.684,0.336,1.703,0.863,2.206,1.187L39.35,12.976z M37.383,17.568c0.636-0.898,1.56-2.434,2.255-3.789l0.804,0.743
			c-0.612,1.235-1.415,2.675-2.123,3.79L37.383,17.568z M39.913,9.737c-0.491-0.348-1.487-0.923-2.194-1.319l0.623-0.791
			c0.696,0.336,1.716,0.875,2.231,1.211L39.913,9.737z M44.902,12.004v1.775h2.471v4.617h-1.055v-0.443h-3.971v0.504h-1.019v-4.678
			h2.519v-1.775h-3.335v-1.067h3.335V9.233c-0.84,0.132-1.703,0.228-2.495,0.288c-0.048-0.264-0.191-0.684-0.323-0.936
			c2.051-0.216,4.377-0.6,5.696-1.092l0.876,0.863c-0.768,0.289-1.703,0.516-2.699,0.696v1.883h3.179v1.067H44.902z M46.318,14.787
			h-3.971v2.158h3.971V14.787z"/>
		<path style="fill:#2C50A2;" d="M59.865,10.193c0,0-0.012,0.383-0.012,0.516c-0.133,4.953-0.24,6.656-0.624,7.172
			c-0.228,0.359-0.479,0.455-0.852,0.516c-0.36,0.048-0.911,0.048-1.476,0.012c-0.023-0.299-0.144-0.756-0.312-1.055
			c0.552,0.047,1.044,0.047,1.26,0.047c0.203,0,0.312-0.035,0.432-0.191c0.264-0.336,0.384-1.859,0.479-5.984h-1.415
			c-0.156,3.189-0.696,5.732-2.759,7.316c-0.168-0.252-0.54-0.648-0.804-0.828c0.072-0.048,0.145-0.107,0.216-0.168
			c-1.727,0.204-3.454,0.384-4.737,0.504l-0.144-0.947c0.695-0.049,1.559-0.12,2.507-0.204v-0.911h-2.184V15.17h2.184v-0.611h-2.147
			v-3.609h2.147v-0.624h-2.471V9.498h2.471V8.826c-0.732,0.06-1.464,0.096-2.135,0.119c-0.036-0.228-0.156-0.588-0.265-0.803
			c1.775-0.096,3.898-0.313,5.146-0.588l0.527,0.84c-0.636,0.131-1.427,0.252-2.255,0.336v0.768h2.423v0.695h1.26
			c0.012-0.816,0.012-1.668,0.012-2.566h1.067c0,0.887-0.012,1.75-0.023,2.566H59.865z M50.391,12.412h1.235V11.68h-1.235V12.412z
			 M51.626,13.827v-0.731h-1.235v0.731H51.626z M52.645,16.801c0.744-0.071,1.512-0.144,2.268-0.227
			c0.983-1.355,1.283-3.167,1.379-5.35H55.02v-0.899h-2.375v0.624h2.231v3.609h-2.231v0.611h2.255v0.816h-2.255V16.801z
			 M53.929,12.412V11.68h-1.284v0.732H53.929z M52.645,13.096v0.731h1.284v-0.731H52.645z"/>
	</g>
</g>
</svg>
