<?xml version="1.0" encoding="iso-8859-1"?>
<!-- Generator: Adobe Illustrator 16.0.0, SVG Export Plug-In . SVG Version: 6.00 Build 0)  -->
<!DOCTYPE svg PUBLIC "-//W3C//DTD SVG 1.1//EN" "http://www.w3.org/Graphics/SVG/1.1/DTD/svg11.dtd">
<svg version="1.1" id="&#x5716;&#x5C64;_1" xmlns="http://www.w3.org/2000/svg" xmlns:xlink="http://www.w3.org/1999/xlink" x="0px"
	 y="0px" width="72.68px" height="26px" viewBox="0 0 72.68 26" style="enable-background:new 0 0 72.68 26;" xml:space="preserve">
<g>
	<g>
		<g>
			<path style="fill:#FFFFFF;stroke:#2C50A2;stroke-miterlimit:10;" d="M72.18,13c0,6.9-5.6,12.5-12.5,12.5H13
				C6.09,25.5,0.5,19.9,0.5,13C0.5,6.09,6.09,0.5,13,0.5h46.68C66.58,0.5,72.18,6.09,72.18,13z"/>
		</g>
	</g>
	<g>
		<path style="fill:#2C50A2;" d="M23.642,8.909v1.056h-8.684v2.003c0,1.883-0.18,4.726-1.271,6.561
			c-0.204-0.191-0.72-0.539-0.983-0.647c1.02-1.716,1.104-4.187,1.104-5.925V8.909h4.581c-0.144-0.383-0.336-0.803-0.539-1.139
			l1.104-0.252c0.287,0.42,0.539,0.959,0.695,1.391H23.642z M19.539,11.632h3.767v1.02h-3.767v1.379h3.202v4.318h-1.139v-0.443
			h-4.666v0.467h-1.091V14.03h2.542v-3.682h1.151V11.632z M21.603,15.062h-4.666v1.848h4.666V15.062z"/>
		<path style="fill:#2C50A2;" d="M34.586,12.508c-0.516,0.419-1.104,0.839-1.691,1.247c0.516,1.499,1.571,2.783,2.998,3.358
			c-0.239,0.192-0.575,0.624-0.731,0.899c-1.475-0.684-2.519-2.027-3.142-3.693c-0.156,0.096-0.324,0.191-0.48,0.287
			c0.384,1.487,0.097,2.914-0.552,3.418c-0.384,0.372-0.731,0.48-1.295,0.48c-0.275,0.012-0.636,0-0.995-0.024
			c-0.024-0.3-0.12-0.731-0.3-1.044c0.419,0.036,0.803,0.061,1.067,0.061c0.3,0,0.516-0.036,0.72-0.264
			c0.287-0.24,0.467-0.888,0.419-1.703c-1.367,1.008-3.334,1.955-4.989,2.446c-0.119-0.276-0.371-0.684-0.587-0.923
			c1.895-0.444,4.197-1.512,5.385-2.555c-0.072-0.229-0.144-0.444-0.252-0.672c-1.188,0.779-2.986,1.583-4.378,2.027
			c-0.132-0.252-0.359-0.637-0.563-0.876c1.476-0.336,3.454-1.151,4.498-1.884c-0.133-0.191-0.288-0.383-0.468-0.575
			c-1.056,0.575-2.255,1.032-3.383,1.343c-0.107-0.215-0.396-0.671-0.588-0.887c1.428-0.313,2.963-0.84,4.066-1.535H26.91v-0.959
			h6.788v0.959h-2.843c-0.239,0.216-0.504,0.396-0.779,0.588c0.516,0.491,0.888,1.066,1.151,1.666
			c0.863-0.575,1.823-1.318,2.446-1.918L34.586,12.508z M26.395,11.081h-1.08V8.526h4.39c-0.107-0.276-0.239-0.54-0.371-0.78
			l1.163-0.335c0.216,0.335,0.42,0.768,0.563,1.115h4.33v2.555h-1.14V9.533h-7.855V11.081z"/>
		<path style="fill:#2C50A2;" d="M44.559,7.71c0.563,1.812,1.812,3.514,3.406,4.378c-0.252,0.228-0.624,0.696-0.804,1.02
			c-0.384-0.252-0.755-0.54-1.091-0.864c0,0.072-0.013,0.156-0.013,0.205c-0.155,3.646-0.312,5.037-0.731,5.504
			c-0.264,0.336-0.552,0.432-0.983,0.492c-0.396,0.048-1.127,0.036-1.858,0c-0.013-0.336-0.168-0.804-0.36-1.127
			c0.72,0.072,1.403,0.084,1.691,0.084c0.228,0,0.371-0.037,0.504-0.168c0.275-0.288,0.432-1.416,0.552-4.21h-2.759
			c-0.312,2.327-1.092,4.438-4.162,5.565c-0.132-0.301-0.455-0.768-0.72-0.996c2.771-0.924,3.406-2.662,3.67-4.569h-2.254v-0.827
			c-0.313,0.348-0.648,0.659-0.983,0.936c-0.204-0.229-0.672-0.637-0.948-0.828c1.38-0.972,2.459-2.578,3.034-4.39l1.164,0.276
			c-0.48,1.427-1.188,2.723-2.051,3.754h6.908c-0.876-0.924-1.584-2.039-2.039-3.203h-2.015V7.71H44.559z"/>
		<path style="fill:#2C50A2;" d="M50.862,11.536c-0.313,0.791-0.899,1.655-1.5,2.111c-0.155-0.229-0.443-0.553-0.659-0.708
			c0.575-0.348,1.163-1.031,1.476-1.655L50.862,11.536z M53.297,18.001c-0.408-0.36-1.128-0.888-1.787-1.332
			c-0.372,0.66-1.031,1.283-2.195,1.775c-0.107-0.24-0.384-0.611-0.575-0.815c1.523-0.636,2.026-1.451,2.194-2.255h-2.003V14.45
			h2.063v-1.043h0.972v1.043h1.115c-0.181-0.264-0.456-0.563-0.696-0.815l0.624-0.407c0.312,0.275,0.672,0.684,0.84,0.947
			l-0.384,0.275h0.684v0.924h-2.231c-0.012,0.145-0.035,0.3-0.071,0.432c0.707,0.443,1.595,1.031,2.063,1.416L53.297,18.001z
			 M51.065,10.984h-2.122v-0.899h2.122V7.566h0.972v2.519h2.027v0.899h-2.027v2.183h-0.972V10.984z M49.795,9.688
			c-0.084-0.407-0.349-0.994-0.636-1.451l0.768-0.299c0.3,0.443,0.587,1.031,0.684,1.415L49.795,9.688z M52.685,11.345
			c0.313,0.191,1.319,0.982,1.571,1.211l-0.623,0.72c-0.3-0.384-1.151-1.2-1.512-1.511L52.685,11.345z M53.956,8.237
			c-0.288,0.541-0.575,1.104-0.815,1.488l-0.743-0.252c0.228-0.408,0.491-1.068,0.623-1.5L53.956,8.237z M56.738,16.933
			c-0.552,0.612-1.475,1.271-2.242,1.632c-0.18-0.204-0.492-0.54-0.731-0.72c0.768-0.348,1.606-0.972,2.026-1.475L56.738,16.933z
			 M56.031,9.978c0.084-0.313,0.155-0.672,0.216-0.984h-2.051V8.034h5.553v0.959h-2.303c-0.12,0.336-0.24,0.684-0.359,0.984h2.242
			v6.236h-4.713V9.978H56.031z M58.273,10.829h-2.65v0.959h2.65V10.829z M58.273,12.592h-2.65v0.972h2.65V12.592z M58.273,14.366
			h-2.65v0.984h2.65V14.366z M57.974,16.394c0.672,0.443,1.548,1.079,2.003,1.535l-0.852,0.611
			c-0.407-0.455-1.283-1.127-1.967-1.595L57.974,16.394z"/>
	</g>
</g>
</svg>
