<?xml version="1.0" encoding="iso-8859-1"?>
<!-- Generator: Adobe Illustrator 16.0.0, SVG Export Plug-In . SVG Version: 6.00 Build 0)  -->
<!DOCTYPE svg PUBLIC "-//W3C//DTD SVG 1.1//EN" "http://www.w3.org/Graphics/SVG/1.1/DTD/svg11.dtd">
<svg version="1.1" id="&#x5716;&#x5C64;_1" xmlns="http://www.w3.org/2000/svg" xmlns:xlink="http://www.w3.org/1999/xlink" x="0px"
	 y="0px" width="25px" height="25px" viewBox="0 0 25 25" style="enable-background:new 0 0 25 25;" xml:space="preserve">
<g>
	<path style="fill:#E4007F;" d="M25,12.503c0,5.473-3.522,10.126-8.424,11.812c-0.429,0.153-0.866,0.28-1.315,0.375
		C14.372,24.896,13.448,25,12.498,25c-0.973,0-1.923-0.11-2.831-0.326c-0.375-0.085-0.745-0.186-1.104-0.313
		C3.587,22.719,0,18.033,0,12.503C0,5.6,5.594,0,12.498,0C19.401,0,25,5.6,25,12.503z"/>
	<path style="fill-rule:evenodd;clip-rule:evenodd;fill:#FFFFFF;" d="M16.924,8.778l-0.18,9.763v3.127l-0.27,0.428l0.102,2.219
		c-0.429,0.153-0.866,0.28-1.315,0.375H15.17l0.102-2.646c0.116-0.846-1.321-0.86-1.379-1.98c0-4.385,0.391-6.641,1.379-10.939
		C15.646,7.475,17.063,5.668,16.924,8.778z"/>
	<path style="fill-rule:evenodd;clip-rule:evenodd;fill:#FFFFFF;" d="M11.605,16.144c0,1.452-1.902,1.938-1.902,2.853v5.678H9.667
		c-0.375-0.085-0.745-0.186-1.104-0.313v-5.365c0-0.915-1.901-1.396-1.901-2.853c0.238-2.985,0.47-5.975,0.702-8.964
		c0.105-0.06,0.212-0.117,0.312,0.005c0.054,2.715,0.105,5.424,0.158,8.14c0.09,0.169,0.201,0.169,0.333,0
		c0.069-2.71,0.138-5.42,0.206-8.124c0.116-0.132,0.217-0.132,0.359,0.006C8.8,9.91,8.906,12.619,8.975,15.324
		c0.116,0.127,0.232,0.127,0.348-0.005c0.075-2.7,0.148-5.404,0.223-8.108c0.106-0.133,0.206-0.133,0.312,0
		c0.079,2.704,0.164,5.408,0.243,8.108c0.126,0.174,0.253,0.174,0.381,0c0.058-2.7,0.115-5.404,0.174-8.108
		c0.116-0.116,0.222-0.111,0.313,0.005L11.605,16.144z"/>
</g>
</svg>
