<?xml version="1.0" encoding="iso-8859-1"?>
<!-- Generator: Adobe Illustrator 16.0.0, SVG Export Plug-In . SVG Version: 6.00 Build 0)  -->
<!DOCTYPE svg PUBLIC "-//W3C//DTD SVG 1.1//EN" "http://www.w3.org/Graphics/SVG/1.1/DTD/svg11.dtd">
<svg version="1.1" id="&#x5716;&#x5C64;_1" xmlns="http://www.w3.org/2000/svg" xmlns:xlink="http://www.w3.org/1999/xlink" x="0px"
	 y="0px" width="72.68px" height="26px" viewBox="0 0 72.68 26" style="enable-background:new 0 0 72.68 26;" xml:space="preserve">
<g>
	<g>
		<g>
			<path style="fill:#FFFFFF;stroke:#F08719;stroke-miterlimit:10;" d="M72.18,13c0,6.9-5.6,12.5-12.5,12.5H13
				C6.09,25.5,0.5,19.9,0.5,13C0.5,6.09,6.09,0.5,13,0.5h46.68C66.58,0.5,72.18,6.09,72.18,13z"/>
		</g>
	</g>
	<g>
		<path style="fill:#F08719;" d="M23.18,12.879c-0.54,0.996-1.224,1.907-2.027,2.723c0.396,1.115,0.864,1.787,1.355,1.787
			c0.288,0,0.432-0.588,0.492-2.074c0.252,0.264,0.636,0.527,0.936,0.623c-0.192,2.039-0.564,2.591-1.535,2.591
			c-0.912,0-1.619-0.792-2.147-2.075c-0.743,0.636-1.535,1.176-2.374,1.619c-0.181-0.275-0.48-0.647-0.768-0.899
			c0.983-0.456,1.919-1.091,2.771-1.835c-0.288-0.972-0.492-2.123-0.636-3.357h-2.65v1.678l2.003-0.395l0.083,0.994
			c-0.684,0.156-1.391,0.324-2.086,0.469v2.387c0,0.659-0.156,0.982-0.576,1.163c-0.42,0.18-1.092,0.216-2.051,0.216
			c-0.06-0.313-0.252-0.828-0.42-1.127c0.731,0.023,1.428,0.023,1.631,0.012c0.216-0.012,0.288-0.072,0.288-0.264v-2.135
			c-0.852,0.18-1.631,0.348-2.314,0.491l-0.312-1.115c0.707-0.12,1.631-0.288,2.626-0.479V11.98h-2.423v-1.057h2.423V9.27
			c-0.707,0.119-1.415,0.216-2.063,0.3c-0.061-0.252-0.204-0.685-0.348-0.924c1.667-0.252,3.573-0.636,4.737-1.044l0.779,0.936
			c-0.588,0.192-1.271,0.36-1.979,0.504v1.883h2.542c-0.096-1.079-0.144-2.206-0.155-3.346h1.151
			c-0.013,1.151,0.035,2.291,0.132,3.346h3.406v1.057h-3.287c0.12,0.898,0.252,1.702,0.433,2.434
			c0.539-0.611,1.007-1.271,1.367-1.955L23.18,12.879z M22.556,10.396c-0.336-0.563-1.115-1.428-1.787-2.027l0.84-0.575
			c0.672,0.575,1.476,1.392,1.847,1.955L22.556,10.396z"/>
		<path style="fill:#F08719;" d="M33.285,15.17c-0.349,0.6-0.804,1.092-1.332,1.499c1.38,0.336,2.627,0.672,3.563,0.995l-1.008,0.78
			c-0.936-0.349-2.207-0.731-3.682-1.091c-1.355,0.635-3.131,0.959-5.409,1.139c-0.084-0.324-0.264-0.731-0.443-0.972
			c1.631-0.084,2.974-0.264,4.077-0.563c-0.852-0.18-1.715-0.336-2.603-0.492c0.313-0.371,0.66-0.814,0.996-1.295h-2.436v-0.936
			h3.059c0.252-0.396,0.479-0.815,0.647-1.188l1.128,0.24c-0.156,0.312-0.336,0.636-0.528,0.947h3.227
			c0.096-0.216,0.192-0.443,0.276-0.684l1.079,0.3c-0.048,0.12-0.096,0.252-0.145,0.384h1.943v0.936H33.285z M28.379,8.922h-3.189
			V7.95h10.278v0.972h-3.299v0.875h2.854v3.178h-9.259V9.797h2.614V8.922z M26.809,12.088h1.57v-1.403h-1.57V12.088z M28.703,15.17
			c-0.168,0.264-0.348,0.504-0.527,0.731c0.804,0.144,1.595,0.288,2.374,0.456c0.564-0.313,1.032-0.707,1.403-1.188H28.703z
			 M31.114,8.922h-1.68v0.875h1.68V8.922z M29.435,12.088h1.68v-1.403h-1.68V12.088z M32.169,10.685v1.403h1.751v-1.403H32.169z"/>
		<path style="fill:#F08719;" d="M47.252,7.95v10.494h-1.067v-0.563h-7.7v0.611h-1.02V7.95H47.252z M46.185,17.005V8.813h-7.7v8.191
			H46.185z M45.849,15.158h-1.632v0.959c0,0.396-0.096,0.527-0.383,0.611c-0.301,0.097-0.744,0.097-1.439,0.097
			c-0.036-0.204-0.145-0.42-0.24-0.6c0.408,0.012,0.84,0.012,0.96,0.012c0.132-0.012,0.168-0.048,0.168-0.155v-0.924h-4.45V14.51
			h4.45v-0.395h0.935v0.395h1.632V15.158z M44.518,12.999c0.432,0.324,0.899,0.768,1.151,1.056l-0.601,0.455
			c-0.119-0.155-0.287-0.323-0.467-0.503c-2.039,0.06-4.09,0.12-5.565,0.155l-0.048-0.646c0.791,0,1.775-0.013,2.843-0.025v-0.491
			h-2.459v-2.411h2.459v-0.432h-2.867V9.497h2.867V9.006h0.923v0.491h2.927v0.659h-2.927v0.432h2.555v2.411H44.518z M40.967,16.633
			c-0.191-0.323-0.588-0.791-0.947-1.115l0.708-0.359c0.359,0.312,0.791,0.756,0.983,1.067L40.967,16.633z M40.247,11.536h1.584
			v-0.444h-1.584V11.536z M41.831,12.483v-0.456h-1.584v0.456H41.831z M42.754,11.092v0.444h1.655v-0.444H42.754z M44.409,12.483
			v-0.456h-1.655v0.456H44.409z M44.014,13.467c-0.072-0.06-0.145-0.119-0.216-0.18l0.443-0.288h-1.487v0.491L44.014,13.467z"/>
		<path style="fill:#F08719;" d="M50.928,15.89c-0.3,0.983-0.815,1.967-1.354,2.603c-0.192-0.168-0.612-0.443-0.84-0.576
			c0.54-0.563,0.983-1.402,1.211-2.266L50.928,15.89z M52.847,15.47h-3.489V7.914h3.489V15.47z M51.84,8.826h-1.512v1.33h1.512
			V8.826z M51.84,11.008h-1.512v1.355h1.512V11.008z M51.84,13.203h-1.512v1.367h1.512V13.203z M52.235,15.638
			c0.384,0.588,0.804,1.367,0.995,1.883l-0.875,0.42c-0.156-0.516-0.588-1.343-0.96-1.942L52.235,15.638z M59.839,16.537h-0.635
			V17.4c0,0.492-0.108,0.756-0.456,0.912c-0.36,0.156-0.912,0.156-1.739,0.156c-0.036-0.252-0.168-0.648-0.3-0.9
			c0.552,0.024,1.104,0.024,1.26,0.012c0.168,0,0.203-0.047,0.203-0.191v-0.852h-3.466v1.955h-0.995v-1.955h-0.708v-0.815h0.708
			v-3.034h2.206v-0.576h-2.866v-0.827h1.619v-0.636h-1.079V9.857h1.079V9.27h-1.379V8.441h1.379V7.471h0.983v0.971h1.535V7.471
			h0.996v0.971h1.379V9.27h-1.379v0.588h1.187v0.791h-1.187v0.636h1.631v0.827h-2.914v0.576h2.303v3.034h0.635V16.537z
			 M54.706,13.516v0.707h1.211v-0.707H54.706z M54.706,15.722h1.211v-0.768h-1.211V15.722z M55.653,9.857h1.535V9.27h-1.535V9.857z
			 M55.653,11.284h1.535v-0.636h-1.535V11.284z M56.901,13.516v0.707h1.271v-0.707H56.901z M58.172,15.722v-0.768h-1.271v0.768
			H58.172z"/>
	</g>
</g>
</svg>
