<?xml version="1.0" encoding="iso-8859-1"?>
<!-- Generator: Adobe Illustrator 16.0.0, SVG Export Plug-In . SVG Version: 6.00 Build 0)  -->
<!DOCTYPE svg PUBLIC "-//W3C//DTD SVG 1.1//EN" "http://www.w3.org/Graphics/SVG/1.1/DTD/svg11.dtd">
<svg version="1.1" id="&#x5716;&#x5C64;_1" xmlns="http://www.w3.org/2000/svg" xmlns:xlink="http://www.w3.org/1999/xlink" x="0px"
	 y="0px" width="54.201px" height="26.838px" viewBox="0 0 54.201 26.838" style="enable-background:new 0 0 54.201 26.838;"
	 xml:space="preserve">
<path style="fill:#FFFFFF;stroke:#B5B5B6;stroke-miterlimit:10;" d="M40.783,0.5H13.42C6.284,0.5,0.5,6.284,0.5,13.419
	s5.784,12.919,12.92,12.919h27.363c7.136,0,12.918-5.784,12.918-12.919S47.919,0.5,40.783,0.5z"/>
<polygon style="fill:#E8C41D;stroke:#E8C41D;stroke-width:0.75;stroke-miterlimit:10;" points="17.698,6.17 20.052,10.941 
	25.321,11.706 21.509,15.421 22.409,20.67 17.698,18.193 12.989,20.67 13.888,15.421 10.075,11.706 15.343,10.941 "/>
<polygon style="fill:#5C5D5D;" points="38.295,18.849 36.71,17.361 39.688,13.415 36.71,9.467 38.295,7.989 42.391,13.415 "/>
</svg>
