<?xml version="1.0" encoding="iso-8859-1"?>
<!-- Generator: Adobe Illustrator 16.0.0, SVG Export Plug-In . SVG Version: 6.00 Build 0)  -->
<!DOCTYPE svg PUBLIC "-//W3C//DTD SVG 1.1//EN" "http://www.w3.org/Graphics/SVG/1.1/DTD/svg11.dtd">
<svg version="1.1" id="&#x5716;&#x5C64;_1" xmlns="http://www.w3.org/2000/svg" xmlns:xlink="http://www.w3.org/1999/xlink" x="0px"
	 y="0px" width="72.68px" height="26px" viewBox="0 0 72.68 26" style="enable-background:new 0 0 72.68 26;" xml:space="preserve">
<g>
	<g>
		<path style="fill:#FFFFFF;stroke:#2C50A2;stroke-miterlimit:10;" d="M72.18,13c0,6.9-5.6,12.5-12.5,12.5H13
			C6.09,25.5,0.5,19.9,0.5,13C0.5,6.09,6.09,0.5,13,0.5h46.68C66.58,0.5,72.18,6.09,72.18,13z"/>
	</g>
	<g>
		<path style="fill:#2C50A2;" d="M16.541,8.161c-0.288,0.503-0.648,1.031-1.067,1.522c0.647,1.308,0.755,2.687,0.755,4.138
			c0,1.68-0.132,3.286-0.636,3.97c-0.168,0.228-0.396,0.36-0.695,0.42c-0.42,0.097-0.924,0.108-1.463,0.072
			c-0.013-0.349-0.12-0.768-0.324-1.079c0.576,0.035,1.02,0.035,1.296,0.012c0.167-0.024,0.287-0.084,0.371-0.204
			c0.276-0.36,0.384-1.728,0.384-3.214v-0.108c-0.563,0.78-1.223,1.511-1.835,1.991c-0.144-0.264-0.42-0.684-0.659-0.936
			c0.863-0.564,1.822-1.668,2.398-2.65c-0.06-0.516-0.18-1.031-0.348-1.512c-0.468,0.504-0.96,0.972-1.403,1.319
			c-0.144-0.288-0.42-0.755-0.66-0.995c0.504-0.336,1.056-0.804,1.571-1.332c-0.312-0.479-0.707-0.959-1.223-1.427l0.779-0.6
			c0.468,0.407,0.84,0.815,1.14,1.224c0.312-0.384,0.575-0.768,0.779-1.14L16.541,8.161z M23.041,17.312
			c0,0.527-0.096,0.815-0.468,0.947c-0.372,0.168-0.924,0.18-1.763,0.18c-0.048-0.275-0.181-0.695-0.324-0.947
			c0.552,0.024,1.14,0.012,1.283,0.012c0.168-0.012,0.229-0.06,0.229-0.203v-0.672h-3.91c-0.12,0.707-0.372,1.391-0.815,1.955
			c-0.156-0.216-0.588-0.624-0.815-0.768c0.671-0.863,0.743-2.051,0.743-2.975V12.67h5.841V17.312z M23.749,11.255v0.828h-7.137
			v-0.828h2.938V10.56h-2.555V9.78h2.555V9.156h-2.914V8.329h2.914V7.44h1.079v0.889h2.999v0.827H20.63V9.78h2.699v0.779H20.63
			v0.695H23.749z M21.998,15.824v-0.743h-3.754c0,0.228-0.013,0.491-0.036,0.743H21.998z M18.244,13.474v0.779h3.754v-0.779H18.244z
			"/>
		<path style="fill:#2C50A2;" d="M28.408,7.813c-0.323,0.852-0.731,1.703-1.187,2.519v8.107h-1.056v-6.452
			c-0.336,0.468-0.684,0.888-1.031,1.259c-0.108-0.275-0.432-0.875-0.612-1.127c1.128-1.115,2.195-2.866,2.843-4.617L28.408,7.813z
			 M32.606,10.703v6.452c0,0.576-0.12,0.9-0.479,1.092c-0.36,0.18-0.899,0.216-1.655,0.216c-0.048-0.312-0.228-0.815-0.396-1.115
			c0.539,0.012,1.055,0.012,1.211,0c0.156,0,0.216-0.036,0.216-0.192v-6.452h-1.619c-0.359,0.756-0.743,1.427-1.151,1.967
			c-0.204-0.204-0.647-0.563-0.911-0.731c0.899-1.056,1.583-2.746,1.99-4.438l1.104,0.24c-0.168,0.659-0.371,1.307-0.611,1.931
			h4.533l0.18-0.036l0.78,0.156c-0.156,0.911-0.372,1.967-0.528,2.639l-0.947-0.18c0.084-0.408,0.168-0.973,0.24-1.548H32.606z
			 M30.64,12.838c-0.36,1.548-0.983,3.059-1.691,4.042c-0.204-0.18-0.695-0.468-0.947-0.6c0.708-0.888,1.247-2.268,1.547-3.646
			L30.64,12.838z M34.273,12.526c0.659,1.247,1.224,2.854,1.415,3.934l-1.067,0.384c-0.168-1.079-0.72-2.747-1.343-3.993
			L34.273,12.526z"/>
		<path style="fill:#2C50A2;" d="M47.688,14.121v0.864H36.895v-0.864h2.891c-0.096-0.239-0.216-0.503-0.348-0.708l0.479-0.131
			h-1.271v-2.243h7.364v2.243h-0.972l0.204,0.035c-0.18,0.288-0.36,0.564-0.516,0.804H47.688z M41.692,9.036h-4.414V8.232h4.414
			V7.417h1.127v0.815h4.51v0.804h-4.51V9.72h3.766v0.804h-8.479V9.72h3.587V9.036z M38.43,15.548h7.808v2.891h-1.14v-0.336h-5.564
			v0.348H38.43V15.548z M39.533,16.315v0.996h5.564v-0.996H39.533z M39.713,12.562h5.169v-0.803h-5.169V12.562z M40.541,13.282
			c0.18,0.275,0.323,0.588,0.396,0.839h2.65c0.132-0.264,0.275-0.575,0.384-0.839H40.541z"/>
		<path style="fill:#2C50A2;" d="M57.542,11.411c0,0.432-0.012,0.898-0.048,1.415c0.371,2.063,1.127,3.909,2.423,4.749
			c-0.24,0.216-0.564,0.624-0.72,0.936c-0.96-0.731-1.619-1.967-2.063-3.466c-0.323,1.187-0.899,2.411-1.931,3.466
			c-0.132-0.203-0.432-0.492-0.684-0.66v0.037h-3.886v0.563h-0.876v-3.885c-0.191,0.252-0.384,0.504-0.575,0.695
			c-0.096-0.168-0.348-0.588-0.504-0.756c0.636-0.635,1.247-1.559,1.607-2.494h-1.067V9.827h2.387v2.184h-1.271l0.743,0.228
			c-0.096,0.228-0.191,0.444-0.312,0.672h1.308c-0.097-0.204-0.204-0.408-0.313-0.588l0.72-0.288
			c0.192,0.264,0.384,0.611,0.479,0.876h1.644v0.779H52.9v0.6h1.463v0.743H52.9v0.624h1.535v0.731H52.9v0.708h1.619v0.552
			c1.895-2.016,2.039-4.545,2.039-6.261v-0.695h0.983V11.411z M50.357,8.952h-1.595V8.124h1.595V7.429h0.948v2.184h-0.948V8.952z
			 M49.914,11.399h0.972v-0.96h-0.972V11.399z M51.989,13.689h-1.355v0.6h1.355V13.689z M51.989,15.032h-1.355v0.624h1.355V15.032z
			 M50.634,17.096h1.355v-0.708h-1.355V17.096z M54.544,12.011h-2.363V9.827h2.363V12.011z M53.428,9.612h-0.959V7.429h0.959v0.695
			h1.571V8.94h-1.571V9.612z M53.836,10.451h-0.972v0.936h0.972V10.451z M56.282,10.224c-0.275,1.079-0.611,2.051-1.031,2.782
			c-0.191-0.18-0.636-0.528-0.875-0.684c0.731-1.151,1.139-2.999,1.354-4.894l1.032,0.168c-0.072,0.552-0.156,1.092-0.252,1.619
			h2.482l0.168-0.048l0.684,0.216c-0.228,1.104-0.54,2.375-0.852,3.178l-0.815-0.264c0.18-0.539,0.371-1.307,0.527-2.074H56.282z"/>
	</g>
</g>
</svg>
