<?xml version="1.0" encoding="iso-8859-1"?>
<!-- Generator: Adobe Illustrator 16.0.0, SVG Export Plug-In . SVG Version: 6.00 Build 0)  -->
<!DOCTYPE svg PUBLIC "-//W3C//DTD SVG 1.1//EN" "http://www.w3.org/Graphics/SVG/1.1/DTD/svg11.dtd">
<svg version="1.1" id="&#x5716;&#x5C64;_1" xmlns="http://www.w3.org/2000/svg" xmlns:xlink="http://www.w3.org/1999/xlink" x="0px"
	 y="0px" width="64.795px" height="11.535px" viewBox="0 0 64.795 11.535" style="enable-background:new 0 0 64.795 11.535;"
	 xml:space="preserve">
<g>
	<polygon style="fill:#E8C41D;stroke:#E8C41D;stroke-width:0.75;stroke-miterlimit:10;" points="6.063,0.848 7.688,4.139 
		11.321,4.667 8.692,7.229 9.313,10.85 6.063,9.141 2.814,10.85 3.435,7.229 0.806,4.667 4.438,4.139 	"/>
	<polygon style="fill:#E8C41D;stroke:#E8C41D;stroke-width:0.75;stroke-miterlimit:10;" points="19.23,0.848 20.854,4.139 
		24.488,4.667 21.859,7.229 22.479,10.85 19.23,9.141 15.981,10.85 16.602,7.229 13.973,4.667 17.605,4.139 	"/>
	<polygon style="fill:#E8C41D;stroke:#E8C41D;stroke-width:0.75;stroke-miterlimit:10;" points="32.397,0.848 34.021,4.139 
		37.655,4.667 35.026,7.229 35.646,10.85 32.397,9.141 29.148,10.85 29.769,7.229 27.14,4.667 30.772,4.139 	"/>
	<polygon style="fill:#E8C41D;stroke:#E8C41D;stroke-width:0.75;stroke-miterlimit:10;" points="45.564,0.848 47.188,4.139 
		50.822,4.667 48.193,7.229 48.813,10.85 45.564,9.141 42.315,10.85 42.936,7.229 40.307,4.667 43.939,4.139 	"/>
	<polygon style="fill:none;stroke:#E8C41D;stroke-width:0.75;stroke-miterlimit:10;" points="58.731,0.848 60.355,4.139 
		63.989,4.667 61.36,7.229 61.98,10.85 58.731,9.141 55.482,10.85 56.103,7.229 53.474,4.667 57.106,4.139 	"/>
</g>
</svg>
