<?xml version="1.0" encoding="iso-8859-1"?>
<!-- Generator: Adobe Illustrator 16.0.0, SVG Export Plug-In . SVG Version: 6.00 Build 0)  -->
<!DOCTYPE svg PUBLIC "-//W3C//DTD SVG 1.1//EN" "http://www.w3.org/Graphics/SVG/1.1/DTD/svg11.dtd">
<svg version="1.1" id="&#x5716;&#x5C64;_1" xmlns="http://www.w3.org/2000/svg" xmlns:xlink="http://www.w3.org/1999/xlink" x="0px"
	 y="0px" width="7.623px" height="14.173px" viewBox="0 0 7.623 14.173" style="enable-background:new 0 0 7.623 14.173;"
	 xml:space="preserve">
<g>
	<path d="M7.199,2.279L5.766,3.677c-0.654-0.673-1.3-1.01-1.939-1.01c-0.375,0-0.682,0.101-0.917,0.3
		C2.674,3.168,2.556,3.399,2.556,3.661c0,0.225,0.105,0.443,0.312,0.661c0.205,0.224,0.614,0.462,1.233,0.714
		c1.101,0.456,1.854,0.845,2.26,1.167c0.404,0.32,0.719,0.708,0.936,1.159c0.219,0.449,0.327,0.954,0.327,1.515
		c0,0.56-0.116,1.077-0.35,1.552c-0.232,0.476-0.532,0.853-0.898,1.129c-0.366,0.278-0.894,0.488-1.582,0.633v1.982H3.396v-1.938
		c-0.648-0.075-1.201-0.237-1.657-0.49C1.116,11.396,0.536,10.938,0,10.362l1.412-1.448c0.906,0.965,1.782,1.448,2.629,1.448
		c0.432,0,0.802-0.15,1.112-0.449c0.309-0.3,0.464-0.652,0.464-1.059c0-0.343-0.099-0.641-0.297-0.899
		C5.116,7.698,4.727,7.435,4.146,7.169C2.968,6.623,2.171,6.191,1.754,5.872c-0.416-0.32-0.727-0.681-0.932-1.078
		C0.617,4.395,0.514,3.972,0.514,3.521c0-0.747,0.273-1.388,0.817-1.92s1.233-0.818,2.064-0.857V0h1.397v0.838
		C5.272,0.953,5.681,1.105,6.015,1.3C6.349,1.492,6.742,1.817,7.199,2.279z"/>
</g>
</svg>
