<?xml version="1.0" encoding="iso-8859-1"?>
<!-- Generator: Adobe Illustrator 16.0.0, SVG Export Plug-In . SVG Version: 6.00 Build 0)  -->
<!DOCTYPE svg PUBLIC "-//W3C//DTD SVG 1.1//EN" "http://www.w3.org/Graphics/SVG/1.1/DTD/svg11.dtd">
<svg version="1.1" id="&#x5716;&#x5C64;_1" xmlns="http://www.w3.org/2000/svg" xmlns:xlink="http://www.w3.org/1999/xlink" x="0px"
	 y="0px" width="25px" height="25px" viewBox="0 0 25 25" style="enable-background:new 0 0 25 25;" xml:space="preserve">
<g>
	<g>
		<g>
			<circle style="fill:#2C50A2;" cx="12.5" cy="12.5" r="12.5"/>
		</g>
	</g>
	<g>
		<path style="fill:none;stroke:#E8C41D;stroke-miterlimit:10;" d="M18.49,17.811c0,0.471-0.382,0.854-0.854,0.854H7.432
			c-0.472,0-0.854-0.383-0.854-0.854v-7.443c0-0.472,0.382-0.854,0.854-0.854h10.205c0.472,0,0.854,0.383,0.854,0.854V17.811z"/>
		<path style="fill:none;stroke:#E8C41D;stroke-miterlimit:10;" d="M12.555,9.513c0,0-0.437-3.305-1.984-3.413
			S8.143,6.845,8.489,7.938s5.363,1.762,7.498,3.869"/>
		<path style="fill:none;stroke:#E8C41D;stroke-miterlimit:10;" d="M12.5,9.513c0,0,0.437-3.305,1.984-3.413
			s2.429,0.745,2.081,1.839c-0.347,1.094-5.408,1.762-7.543,3.869"/>
		<path style="fill:none;stroke:#E8C41D;stroke-miterlimit:10;" d="M13.39,17.811c0,0.471-0.383,0.854-0.854,0.854h-0.06
			c-0.472,0-0.854-0.383-0.854-0.854v-7.443c0-0.472,0.382-0.854,0.854-0.854h0.06c0.471,0,0.854,0.383,0.854,0.854V17.811z"/>
		<rect x="6.55" y="13.569" style="fill:#E8C41D;" width="11.912" height="1.601"/>
	</g>
</g>
</svg>
