<?xml version="1.0" encoding="iso-8859-1"?>
<!-- Generator: Adobe Illustrator 16.0.0, SVG Export Plug-In . SVG Version: 6.00 Build 0)  -->
<!DOCTYPE svg PUBLIC "-//W3C//DTD SVG 1.1//EN" "http://www.w3.org/Graphics/SVG/1.1/DTD/svg11.dtd">
<svg version="1.1" id="&#x5716;&#x5C64;_1" xmlns="http://www.w3.org/2000/svg" xmlns:xlink="http://www.w3.org/1999/xlink" x="0px"
	 y="0px" width="5.848px" height="11.273px" viewBox="0 0 5.848 11.273" style="enable-background:new 0 0 5.848 11.273;"
	 xml:space="preserve">
<path style="fill:#595757;" d="M2.695,0h0.768v0.639c0.381,0.07,0.707,0.195,0.979,0.375c0.271,0.18,0.53,0.445,0.779,0.797
	L4.594,2.32C4.293,1.855,3.916,1.574,3.463,1.477V4.4c1.021,0.541,1.656,0.979,1.905,1.314c0.319,0.43,0.479,0.906,0.479,1.426
	c0,0.43-0.118,0.824-0.354,1.182C5.258,8.681,4.939,8.959,4.539,9.158c-0.262,0.129-0.62,0.223-1.076,0.281v1.834H2.695V9.439
	C2.214,9.4,1.828,9.324,1.539,9.211c-0.29-0.113-0.573-0.285-0.85-0.515C0.414,8.467,0.184,8.201,0,7.898l0.627-0.475
	c0.545,0.719,1.234,1.119,2.068,1.201V4.998C2.08,4.697,1.69,4.492,1.525,4.383c-0.332-0.227-0.579-0.479-0.74-0.756
	c-0.16-0.277-0.24-0.598-0.24-0.961c0-0.352,0.088-0.678,0.265-0.979c0.176-0.301,0.416-0.545,0.72-0.732
	C1.832,0.768,2.221,0.65,2.695,0.604V0z M2.695,1.418C2.4,1.441,2.164,1.508,1.982,1.615C1.803,1.723,1.66,1.867,1.557,2.049
	C1.452,2.23,1.4,2.43,1.4,2.648c0,0.281,0.082,0.52,0.247,0.715c0.22,0.266,0.569,0.506,1.048,0.721V1.418z M3.463,8.602
	c0.471-0.066,0.848-0.238,1.129-0.516c0.283-0.277,0.424-0.588,0.424-0.932c0-0.336-0.107-0.646-0.324-0.932
	c-0.216-0.285-0.625-0.59-1.229-0.914V8.602z"/>
</svg>
