<?xml version="1.0" encoding="iso-8859-1"?>
<!-- Generator: Adobe Illustrator 16.0.0, SVG Export Plug-In . SVG Version: 6.00 Build 0)  -->
<!DOCTYPE svg PUBLIC "-//W3C//DTD SVG 1.1//EN" "http://www.w3.org/Graphics/SVG/1.1/DTD/svg11.dtd">
<svg version="1.1" id="&#x5716;&#x5C64;_1" xmlns="http://www.w3.org/2000/svg" xmlns:xlink="http://www.w3.org/1999/xlink" x="0px"
	 y="0px" width="25px" height="25px" viewBox="0 0 25 25" style="enable-background:new 0 0 25 25;" xml:space="preserve">
<g>
	<g>
		<g>
			<g>
				<circle style="fill:#2C50A2;" cx="12.5" cy="12.5" r="12.5"/>
			</g>
		</g>
	</g>
	<circle style="fill:none;stroke:#E8C41D;stroke-miterlimit:10;" cx="12.36" cy="12.5" r="3.852"/>
	<path style="fill:none;stroke:#E8C41D;stroke-miterlimit:10;" d="M20.063,12.499c0,4.254-3.446,7.704-7.702,7.704
		c-4.254,0-7.702-3.45-7.702-7.704c0-4.252,3.448-7.7,7.702-7.7C16.616,4.799,20.063,8.247,20.063,12.499z"/>
	<line style="fill:none;stroke:#E8C41D;stroke-miterlimit:10;" x1="12.36" y1="8.649" x2="12.36" y2="1.224"/>
	<line style="fill:none;stroke:#E8C41D;stroke-miterlimit:10;" x1="8.509" y1="12.5" x2="1.085" y2="12.5"/>
	<line style="fill:none;stroke:#E8C41D;stroke-miterlimit:10;" x1="12.36" y1="16.353" x2="12.36" y2="23.776"/>
	<line style="fill:none;stroke:#E8C41D;stroke-miterlimit:10;" x1="12.36" y1="12.5" x2="21.073" y2="7.83"/>
	<circle style="fill:#E8C41D;" cx="15.285" cy="7.83" r="0.66"/>
	<circle style="fill:#E8C41D;" cx="19.716" cy="6.381" r="0.997"/>
	<circle style="fill:#E8C41D;" cx="14.162" cy="2.501" r="0.463"/>
</g>
</svg>
