<?xml version="1.0" encoding="iso-8859-1"?>
<!-- Generator: Adobe Illustrator 16.0.0, SVG Export Plug-In . SVG Version: 6.00 Build 0)  -->
<!DOCTYPE svg PUBLIC "-//W3C//DTD SVG 1.1//EN" "http://www.w3.org/Graphics/SVG/1.1/DTD/svg11.dtd">
<svg version="1.1" id="&#x5716;&#x5C64;_1" xmlns="http://www.w3.org/2000/svg" xmlns:xlink="http://www.w3.org/1999/xlink" x="0px"
	 y="0px" width="40.164px" height="40.163px" viewBox="0 0 40.164 40.163" style="enable-background:new 0 0 40.164 40.163;"
	 xml:space="preserve">
<g>
	<path style="fill:#E4007F;" d="M40.164,20.086c0,8.792-5.659,16.268-13.534,18.976c-0.688,0.245-1.392,0.449-2.113,0.602
		c-1.427,0.331-2.911,0.5-4.438,0.5c-1.562,0-3.089-0.178-4.548-0.524c-0.603-0.137-1.197-0.298-1.774-0.502
		C5.763,36.498,0,28.971,0,20.086C0,8.995,8.987,0,20.078,0C31.17,0,40.164,8.995,40.164,20.086z"/>
	<path style="fill-rule:evenodd;clip-rule:evenodd;fill:#FFFFFF;" d="M27.189,14.103L26.9,29.786v5.023l-0.433,0.688l0.162,3.564
		c-0.688,0.245-1.392,0.449-2.113,0.602h-0.145l0.162-4.251c0.187-1.358-2.122-1.383-2.215-3.183c0-7.043,0.627-10.667,2.215-17.574
		C25.136,12.008,27.411,9.105,27.189,14.103z"/>
	<path style="fill-rule:evenodd;clip-rule:evenodd;fill:#FFFFFF;" d="M18.645,25.934c0,2.333-3.056,3.113-3.056,4.583v9.122H15.53
		c-0.603-0.137-1.197-0.298-1.774-0.502v-8.62c0-1.47-3.055-2.241-3.055-4.583c0.383-4.795,0.755-9.598,1.128-14.4
		c0.171-0.095,0.341-0.188,0.501,0.008c0.086,4.361,0.17,8.714,0.255,13.076c0.145,0.271,0.322,0.271,0.534,0
		c0.111-4.353,0.221-8.706,0.331-13.051c0.188-0.212,0.349-0.212,0.577,0.009c0.11,4.345,0.281,8.697,0.391,13.042
		c0.187,0.205,0.374,0.205,0.56-0.008c0.12-4.337,0.238-8.682,0.357-13.026c0.17-0.212,0.33-0.212,0.5,0
		c0.128,4.345,0.264,8.689,0.391,13.026c0.203,0.279,0.407,0.279,0.612,0c0.092-4.337,0.186-8.682,0.278-13.026
		c0.188-0.187,0.357-0.178,0.502,0.009L18.645,25.934z"/>
</g>
</svg>
