<?xml version="1.0" encoding="iso-8859-1"?>
<!-- Generator: Adobe Illustrator 16.0.0, SVG Export Plug-In . SVG Version: 6.00 Build 0)  -->
<!DOCTYPE svg PUBLIC "-//W3C//DTD SVG 1.1//EN" "http://www.w3.org/Graphics/SVG/1.1/DTD/svg11.dtd">
<svg version="1.1" id="&#x5716;&#x5C64;_1" xmlns="http://www.w3.org/2000/svg" xmlns:xlink="http://www.w3.org/1999/xlink" x="0px"
	 y="0px" width="4.873px" height="9.395px" viewBox="0 0 4.873 9.395" style="enable-background:new 0 0 4.873 9.395;"
	 xml:space="preserve">
<path style="fill:#9FA0A0;" d="M2.246,0h0.639v0.532C3.203,0.591,3.475,0.695,3.7,0.845S4.143,1.216,4.35,1.509L3.828,1.934
	C3.577,1.547,3.263,1.313,2.885,1.23v2.437c0.852,0.45,1.381,0.815,1.588,1.095c0.267,0.359,0.4,0.755,0.4,1.188
	c0,0.358-0.099,0.687-0.295,0.985c-0.197,0.298-0.463,0.53-0.797,0.696C3.564,7.739,3.266,7.817,2.885,7.866v1.528H2.246V7.866
	C1.844,7.834,1.523,7.77,1.281,7.676C1.04,7.58,0.805,7.438,0.574,7.246C0.345,7.055,0.152,6.834,0,6.582l0.521-0.396
	c0.454,0.599,1.029,0.933,1.725,1.001V4.165C1.732,3.914,1.408,3.744,1.271,3.652c-0.277-0.189-0.483-0.398-0.617-0.63
	S0.453,2.524,0.453,2.222c0-0.293,0.074-0.565,0.221-0.815s0.347-0.454,0.6-0.61C1.527,0.64,1.851,0.542,2.246,0.503V0z
	 M2.246,1.182C2,1.201,1.803,1.256,1.652,1.346c-0.15,0.089-0.27,0.209-0.355,0.361c-0.087,0.15-0.131,0.318-0.131,0.5
	c0,0.234,0.069,0.434,0.207,0.596c0.183,0.221,0.474,0.422,0.873,0.601V1.182z M2.885,7.168c0.393-0.055,0.707-0.199,0.941-0.43
	c0.235-0.23,0.354-0.49,0.354-0.776c0-0.28-0.09-0.538-0.271-0.776S3.388,4.693,2.885,4.424V7.168z"/>
</svg>
