<?xml version="1.0" encoding="iso-8859-1"?>
<!-- Generator: Adobe Illustrator 16.0.0, SVG Export Plug-In . SVG Version: 6.00 Build 0)  -->
<!DOCTYPE svg PUBLIC "-//W3C//DTD SVG 1.1//EN" "http://www.w3.org/Graphics/SVG/1.1/DTD/svg11.dtd">
<svg version="1.1" id="&#x5716;&#x5C64;_1" xmlns="http://www.w3.org/2000/svg" xmlns:xlink="http://www.w3.org/1999/xlink" x="0px"
	 y="0px" width="25px" height="25px" viewBox="0 0 25 25" style="enable-background:new 0 0 25 25;" xml:space="preserve">
<g>
	<circle style="fill:#DCDDDD;" cx="12.5" cy="12.5" r="12.5"/>
	<g>
		<path style="fill:none;stroke:#2C50A2;stroke-miterlimit:10;" d="M18.402,17.775c0,0.556-0.354,1.007-0.793,1.007H7.315
			c-0.438,0-0.792-0.451-0.792-1.007V9.376c0-0.557,0.354-1.007,0.792-1.007h10.294c0.438,0,0.793,0.45,0.793,1.007V17.775z"/>
		<path style="fill:none;stroke:#2C50A2;stroke-miterlimit:10;" d="M15.823,7.701c0,0.818-0.486,1.482-1.087,1.482h-4.548
			c-0.601,0-1.087-0.665-1.087-1.482l0,0c0-0.818,0.486-1.483,1.087-1.483h4.548C15.337,6.218,15.823,6.882,15.823,7.701
			L15.823,7.701z"/>
		<path style="fill:#2C50A2;stroke:#2C50A2;stroke-miterlimit:10;" d="M18.436,11.523c0,0.472-0.414,0.854-0.924,0.854H7.448
			c-0.511,0-0.925-0.382-0.925-0.854v-2.3c0-0.472,0.414-0.854,0.925-0.854h10.063c0.51,0,0.924,0.382,0.924,0.854V11.523z"/>
		<path style="fill:#DCDDDD;stroke:#2C50A2;stroke-miterlimit:10;" d="M14.144,12.665c0,0.504-0.382,0.911-0.854,0.911h-1.655
			c-0.472,0-0.854-0.407-0.854-0.911v-0.33c0-0.503,0.383-0.911,0.854-0.911h1.655c0.472,0,0.854,0.408,0.854,0.911V12.665z"/>
	</g>
</g>
</svg>
