<?xml version="1.0" encoding="iso-8859-1"?>
<!-- Generator: Adobe Illustrator 16.0.0, SVG Export Plug-In . SVG Version: 6.00 Build 0)  -->
<!DOCTYPE svg PUBLIC "-//W3C//DTD SVG 1.1//EN" "http://www.w3.org/Graphics/SVG/1.1/DTD/svg11.dtd">
<svg version="1.1" id="&#x5716;&#x5C64;_1" xmlns="http://www.w3.org/2000/svg" xmlns:xlink="http://www.w3.org/1999/xlink" x="0px"
	 y="0px" width="72.68px" height="26px" viewBox="0 0 72.68 26" style="enable-background:new 0 0 72.68 26;" xml:space="preserve">
<g>
	<path style="fill:#2C50A2;stroke:#2C50A2;stroke-miterlimit:10;" d="M72.18,13c0,6.9-5.6,12.5-12.5,12.5H13
		C6.09,25.5,0.5,19.9,0.5,13C0.5,6.09,6.09,0.5,13,0.5h46.68C66.58,0.5,72.18,6.09,72.18,13z"/>
	<g>
		<path style="fill:#FFFFFF;" d="M19.628,7.513c-0.012,0.456-0.023,1.08-0.084,1.787c0.168,1.5,0.899,6.285,5.085,8.144
			c-0.323,0.252-0.659,0.647-0.815,0.948c-2.818-1.332-4.125-3.971-4.761-6.117c-0.6,2.255-1.871,4.678-4.582,6.177
			c-0.191-0.288-0.552-0.647-0.923-0.888c4.905-2.543,4.772-8.131,4.809-10.051H19.628z"/>
		<path style="fill:#FFFFFF;" d="M28.401,9.408c-0.6,0.947-1.331,1.774-2.086,2.387c-0.168-0.228-0.552-0.684-0.792-0.888
			c1.104-0.804,2.099-2.074,2.662-3.43l1.092,0.312c-0.108,0.252-0.228,0.491-0.359,0.743h7.195v0.876H28.401z M28.918,16.052
			c-0.552,0.948-1.535,1.908-2.447,2.399c-0.155-0.252-0.479-0.612-0.707-0.804c0.875-0.384,1.835-1.163,2.326-1.906L28.918,16.052z
			 M30.188,15.452v3.023h-1.043v-3.023h-3.106v-0.875h3.106v-1.943h1.043v1.943H31.4l-0.696-0.275
			c0.349-0.444,0.756-1.104,0.984-1.572l0.983,0.324c-0.408,0.564-0.864,1.14-1.235,1.523h1.727v0.875H30.188z M27.634,12.694
			c0.372,0.443,0.744,1.043,0.888,1.451l-0.888,0.371c-0.132-0.407-0.491-1.02-0.839-1.463L27.634,12.694z M34.591,11.507
			c-0.024,3.514,0.084,5.865,0.923,5.865c0.229,0,0.288-0.684,0.3-1.703c0.229,0.252,0.516,0.527,0.744,0.695
			c-0.084,1.535-0.313,2.111-1.104,2.111c-1.715,0-1.943-2.399-1.979-6.094h-6.656v-0.875H34.591z M28.102,10.871v-0.839h7.053
			v0.839H28.102z M31.172,15.729c0.756,0.54,1.751,1.319,2.231,1.835l-0.696,0.672c-0.455-0.516-1.427-1.332-2.183-1.907
			L31.172,15.729z"/>
		<path style="fill:#FFFFFF;" d="M48.497,17.708h-5.192v0.791h-1.067v-6.717c-0.276,0.42-0.576,0.816-0.876,1.152l-0.132-0.145
			l0.132,0.84l-1.283,0.396v3.154c0,0.563-0.108,0.876-0.432,1.056c-0.336,0.191-0.828,0.228-1.583,0.228
			c-0.036-0.288-0.168-0.779-0.324-1.091c0.468,0.023,0.924,0.023,1.056,0.012c0.155,0,0.216-0.049,0.216-0.216v-2.807
			c-0.456,0.144-0.888,0.276-1.296,0.396l-0.251-1.079c0.432-0.108,0.959-0.264,1.547-0.42v-2.446h-1.439V9.78h1.439V7.501h1.067
			V9.78h1.283v1.031h-1.283v2.135l1.007-0.3c-0.18-0.192-0.383-0.408-0.539-0.517c1.067-1.103,1.979-2.83,2.519-4.581l1.067,0.276
			C43.928,8.413,43.712,9,43.448,9.576h2.039c-0.145-0.468-0.456-1.116-0.756-1.619l0.959-0.384
			c0.349,0.527,0.708,1.235,0.852,1.703l-0.695,0.3h2.411v1.019h-2.123v1.344h1.955v0.983h-1.955v1.368h1.942v0.982h-1.942v1.416
			h2.362V17.708z M45.104,10.595h-1.799v1.344h1.799V10.595z M45.104,12.922h-1.799v1.368h1.799V12.922z M43.305,16.688h1.799
			v-1.416h-1.799V16.688z"/>
		<path style="fill:#FFFFFF;" d="M55.064,9.204c0.216,0.264,0.432,0.576,0.552,0.863h4.558v0.792h-3.358v0.611h2.866v1.968h-6.464
			v0.563h6.632v0.756h-6.632v0.576h6.872c0,0-0.013,0.252-0.024,0.384c-0.12,1.535-0.264,2.183-0.516,2.458
			c-0.191,0.192-0.407,0.264-0.707,0.288c-0.229,0.036-0.685,0.036-1.164,0.013c-0.012-0.252-0.107-0.6-0.228-0.84
			c0.396,0.048,0.743,0.048,0.899,0.048c0.168,0,0.252-0.013,0.336-0.108c0.12-0.132,0.228-0.539,0.312-1.486h-6.764v-2.65h-0.756
			c-0.048,1.582-0.276,3.586-1.14,4.988c-0.191-0.18-0.659-0.467-0.899-0.575c0.924-1.487,1.02-3.574,1.02-5.085v-2.699h4.113
			c-0.107-0.203-0.239-0.396-0.359-0.575L55.064,9.204z M52.126,9.024h-2.398V8.173h2.398V7.478h1.067v0.695h1.511v0.852h-1.511
			V9.72h-1.067V9.024z M51.25,17.972c0.36-0.408,0.685-1.104,0.864-1.631l0.791,0.348c-0.191,0.551-0.504,1.271-0.839,1.727
			L51.25,17.972z M51.49,10.859v0.611h1.703v-0.611H51.49z M53.193,12.13H51.49v0.637h1.703V12.13z M54.213,16.532
			c0.144,0.527,0.252,1.211,0.264,1.667l-0.875,0.12c0-0.443-0.097-1.14-0.229-1.68L54.213,16.532z M55.855,10.859h-1.715v0.611
			h1.715V10.859z M54.141,12.767h1.715V12.13h-1.715V12.767z M55.688,16.341c0.287,0.455,0.539,1.066,0.647,1.475l-0.828,0.287
			c-0.084-0.419-0.348-1.055-0.611-1.535L55.688,16.341z M60.329,8.161v0.863h-2.326V9.72h-1.08V9.024h-1.606V8.161h1.606V7.478
			h1.08v0.684H60.329z M57.175,16.112c0.336,0.324,0.684,0.768,0.84,1.08l-0.743,0.371c-0.156-0.324-0.504-0.791-0.804-1.127
			L57.175,16.112z M56.815,12.13v0.637h1.775V12.13H56.815z"/>
	</g>
</g>
</svg>
