<?xml version="1.0" encoding="iso-8859-1"?>
<!-- Generator: Adobe Illustrator 16.0.0, SVG Export Plug-In . SVG Version: 6.00 Build 0)  -->
<!DOCTYPE svg PUBLIC "-//W3C//DTD SVG 1.1//EN" "http://www.w3.org/Graphics/SVG/1.1/DTD/svg11.dtd">
<svg version="1.1" id="&#x5716;&#x5C64;_1" xmlns="http://www.w3.org/2000/svg" xmlns:xlink="http://www.w3.org/1999/xlink" x="0px"
	 y="0px" width="146.455px" height="57.989px" viewBox="0 0 146.455 57.989" style="enable-background:new 0 0 146.455 57.989;"
	 xml:space="preserve">
<g>
	<g style="opacity:0.5;">
		
			<rect x="-0.11" y="12.299" transform="matrix(0.9855 -0.1697 0.1697 0.9855 -1.9796 2.8984)" style="fill:#2C50A2;" width="32.145" height="1.458"/>
		
			<rect x="8.88" y="17.022" transform="matrix(0.9855 -0.1698 0.1698 0.9855 -2.7179 3.7144)" style="fill:#2C50A2;" width="22.963" height="1.458"/>
		
			<rect x="16.268" y="21.969" transform="matrix(0.9855 -0.1696 0.1696 0.9855 -3.4926 4.5132)" style="fill:#2C50A2;" width="16.799" height="1.457"/>
	</g>
	<g>
		<g>
			<g>
				<g>
					<path style="fill:#E8C41D;stroke:#B5B5B6;stroke-miterlimit:10;" d="M91.56,34.639l-48.631,5.143
						c-1.009,0.106-1.92-0.635-2.029-1.65L37.683,7.691c-0.106-1.015,0.629-1.932,1.638-2.038L87.95,0.51
						c1.008-0.105,1.92,0.637,2.026,1.652L93.195,32.6C93.302,33.615,92.568,34.533,91.56,34.639z"/>
				</g>
				<g style="opacity:0.3;">
					<path style="fill:#7F8DA2;" d="M43.11,39.154l47.786-5.053c1.009-0.107,1.746-1.023,1.639-2.039l-1.829-17.307
						C79.323,30.119,54.472,36.789,43.11,39.154z"/>
				</g>
				<g>
					<path style="fill:#DABC73;" d="M50.594,23.277l-7.844,0.828c-0.359,0.039-0.683-0.224-0.721-0.583l-0.586-5.547
						c-0.038-0.358,0.224-0.685,0.584-0.722l7.841-0.83c0.36-0.037,0.684,0.225,0.722,0.584l0.587,5.547
						C51.216,22.914,50.952,23.238,50.594,23.277z"/>
				</g>
				<g>
					<path style="fill:#C0A15D;" d="M51.116,21.977l-0.295-2.798c-2.004,2.374-5.976,3.851-8.426,4.576
						c0.247,0.212,0.577,0.327,0.925,0.292l6.704-0.711C50.695,23.266,51.188,22.654,51.116,21.977z"/>
				</g>
				<g>
					<g>
						
							<rect x="42.493" y="25.923" transform="matrix(0.9945 -0.1052 0.1052 0.9945 -2.6398 5.1807)" style="fill:#FFFFFF;" width="10.633" height="3.402"/>
					</g>
					<g>
						
							<rect x="54.288" y="24.677" transform="matrix(0.9944 -0.1052 0.1052 0.9944 -2.4449 6.4193)" style="fill:#FFFFFF;" width="10.634" height="3.4"/>
					</g>
					<g>
						
							<rect x="66.084" y="23.428" transform="matrix(0.9945 -0.105 0.105 0.9945 -2.2445 7.639)" style="fill:#FFFFFF;" width="10.636" height="3.402"/>
					</g>
					<g>
						
							<rect x="77.881" y="22.182" transform="matrix(0.9945 -0.105 0.105 0.9945 -2.0484 8.872)" style="fill:#FFFFFF;" width="10.635" height="3.4"/>
					</g>
				</g>
				<g>
					<path style="fill:#F6F5F5;stroke:#F6F5F5;stroke-width:0.25;stroke-miterlimit:10;" d="M44.477,13.434
						c-0.309,0.406-0.791,0.66-1.289,0.714c-1.037,0.11-1.972-0.652-2.083-1.694c-0.108-1.044,0.646-1.984,1.683-2.094
						c0.492-0.053,1.024,0.095,1.403,0.424l-0.221,0.258c-0.388-0.299-0.78-0.377-1.146-0.338c-0.846,0.09-1.467,0.856-1.379,1.713
						c0.092,0.852,0.858,1.476,1.705,1.387c0.371-0.04,0.725-0.195,1.054-0.568L44.477,13.434z"/>
					<path style="fill:#F6F5F5;stroke:#F6F5F5;stroke-width:0.25;stroke-miterlimit:10;" d="M45.117,13.894l-0.389-3.69l1.099-0.116
						c0.562-0.06,1.07,0.354,1.128,0.921c0.05,0.438-0.201,0.873-0.604,1.049l1.02,1.598l-0.388,0.041l-0.985-1.553l-0.714,0.076
						l0.175,1.638L45.117,13.894z M45.25,11.875l0.756-0.081c0.373-0.039,0.648-0.376,0.608-0.75s-0.381-0.651-0.75-0.612
						l-0.759,0.08L45.25,11.875z"/>
					<path style="fill:#F6F5F5;stroke:#F6F5F5;stroke-width:0.25;stroke-miterlimit:10;" d="M47.813,10.226l0.108,1.032l1.32-0.139
						l0.037,0.344l-1.319,0.141l0.172,1.623l1.509-0.16l0.037,0.345l-1.866,0.198l-0.392-3.691l1.868-0.197l0.034,0.346
						L47.813,10.226z"/>
					<path style="fill:#F6F5F5;stroke:#F6F5F5;stroke-width:0.25;stroke-miterlimit:10;" d="M50.313,13.344l-0.393-3.689l0.82-0.088
						c1.136-0.119,1.965,0.48,2.087,1.636c0.122,1.157-0.563,1.935-1.695,2.056L50.313,13.344z M50.617,12.964l0.479-0.052
						c0.945-0.099,1.492-0.703,1.39-1.674c-0.101-0.969-0.763-1.426-1.707-1.326L50.3,9.963L50.617,12.964z"/>
					<path style="fill:#F6F5F5;stroke:#F6F5F5;stroke-width:0.25;stroke-miterlimit:10;" d="M53.953,12.959l-0.344,0.037
						l-0.389-3.691l0.342-0.035L53.953,12.959z"/>
					<path style="fill:#F6F5F5;stroke:#F6F5F5;stroke-width:0.25;stroke-miterlimit:10;" d="M56.251,9.334l-0.957,0.1l0.354,3.346
						l-0.343,0.037l-0.354-3.346l-0.962,0.102l-0.036-0.345l2.262-0.239L56.251,9.334z"/>
					<path style="fill:#F6F5F5;stroke:#F6F5F5;stroke-width:0.25;stroke-miterlimit:10;" d="M61.442,11.64
						c-0.309,0.406-0.792,0.661-1.288,0.714c-1.037,0.109-1.972-0.652-2.083-1.695c-0.108-1.043,0.646-1.984,1.683-2.094
						c0.492-0.053,1.023,0.097,1.402,0.424l-0.22,0.258c-0.387-0.299-0.78-0.375-1.146-0.337c-0.848,0.09-1.467,0.856-1.378,1.712
						c0.09,0.852,0.857,1.478,1.704,1.388c0.371-0.039,0.726-0.196,1.054-0.569L61.442,11.64z"/>
					<path style="fill:#F6F5F5;stroke:#F6F5F5;stroke-width:0.25;stroke-miterlimit:10;" d="M63.207,8.25l2.146,3.504l-0.377,0.039
						l-0.675-1.098l-1.754,0.186l-0.424,1.215l-0.382,0.039L63.11,8.26L63.207,8.25z M62.677,10.52l1.423-0.15l-0.867-1.422
						L62.677,10.52z"/>
					<path style="fill:#F6F5F5;stroke:#F6F5F5;stroke-width:0.25;stroke-miterlimit:10;" d="M65.793,11.707l-0.392-3.689L66.502,7.9
						c0.562-0.059,1.071,0.355,1.13,0.921c0.046,0.438-0.202,0.872-0.606,1.05l1.02,1.598l-0.386,0.041l-0.985-1.553l-0.713,0.075
						l0.172,1.639L65.793,11.707z M65.925,9.688l0.758-0.081c0.37-0.038,0.646-0.375,0.606-0.75c-0.039-0.374-0.38-0.65-0.751-0.612
						l-0.758,0.08L65.925,9.688z"/>
					<path style="fill:#F6F5F5;stroke:#F6F5F5;stroke-width:0.25;stroke-miterlimit:10;" d="M68.484,11.422l-0.39-3.689l0.821-0.087
						c1.133-0.12,1.963,0.479,2.085,1.636c0.122,1.156-0.561,1.935-1.695,2.055L68.484,11.422z M68.79,11.041l0.479-0.05
						c0.941-0.099,1.492-0.704,1.389-1.674c-0.103-0.97-0.762-1.427-1.706-1.327l-0.479,0.051L68.79,11.041z"/>
				</g>
				<g>
					<g>
						<path style="fill:#BD2D2C;" d="M77.014,9.006c-0.113-1.079,0.322-2.088,1.081-2.744c-0.544-0.299-1.179-0.441-1.844-0.373
							c-1.733,0.186-2.99,1.748-2.806,3.495c0.185,1.746,1.739,3.013,3.475,2.829c0.664-0.07,1.256-0.344,1.726-0.75
							C77.767,10.979,77.127,10.085,77.014,9.006z"/>
					</g>
					<g>
						<path style="fill:#EAC639;" d="M80.582,8.629c-0.114-1.078,0.324-2.086,1.08-2.744c-0.545-0.299-1.18-0.442-1.844-0.372
							c-0.662,0.069-1.254,0.343-1.724,0.749c0.88,0.484,1.517,1.379,1.632,2.457c0.114,1.079-0.323,2.088-1.081,2.744
							c0.543,0.3,1.18,0.443,1.842,0.373c0.664-0.07,1.257-0.344,1.726-0.75C81.333,10.602,80.695,9.707,80.582,8.629z"/>
					</g>
					<g>
						<path style="fill:#CD6B30;" d="M79.727,8.719c-0.115-1.078-0.752-1.973-1.632-2.457c-0.759,0.656-1.194,1.665-1.081,2.744
							s0.753,1.974,1.632,2.457C79.403,10.807,79.841,9.798,79.727,8.719z"/>
					</g>
					<g>
						<path style="fill:#5FA5B5;" d="M83.388,5.135c-0.663,0.07-1.256,0.344-1.726,0.75c0.88,0.484,1.518,1.379,1.632,2.457
							c0.114,1.079-0.323,2.086-1.081,2.744c0.545,0.299,1.18,0.442,1.844,0.373c1.733-0.184,2.99-1.748,2.806-3.494
							C86.677,6.219,85.121,4.951,83.388,5.135z"/>
					</g>
					<g>
						<path style="fill:#58595B;" d="M83.294,8.342c-0.114-1.078-0.752-1.973-1.632-2.457c-0.756,0.658-1.194,1.666-1.08,2.744
							c0.113,1.078,0.751,1.973,1.631,2.457C82.971,10.428,83.408,9.421,83.294,8.342z"/>
					</g>
				</g>
				<g>
					
						<rect x="66.54" y="28.603" transform="matrix(0.9945 -0.1051 0.1051 0.9945 -2.6303 8.3401)" style="fill:#EBECEB;" width="22.496" height="1.03"/>
				</g>
				<g>
					
						<rect x="72.074" y="30.526" transform="matrix(0.9945 -0.1052 0.1052 0.9945 -2.8168 8.6542)" style="fill:#C5C6C7;" width="17.181" height="1.031"/>
				</g>
				<g>
					<path style="fill:#EBECEB;" d="M50.664,17.708l-0.025-0.246l-4.452,0.471l-0.117-1.106l-0.244,0.025l0.117,1.107l-4.45,0.471
						l0.024,0.246l4.451-0.471l0.112,1.055l-4.452,0.471l0.027,0.246l4.45-0.471l0.001,0.01l0.131-0.024
						c0.043-0.007,1.086-0.186,1.263,0.618c0.002,0.002,0.053,0.234-0.102,0.458c-0.166,0.24-0.498,0.392-0.989,0.448l-4.594,0.486
						l0.026,0.246l4.473-0.474l0.113,1.073l-4.473,0.475l0.026,0.246l4.473-0.474l0.117,1.106l0.245-0.025l-0.117-1.106l4.43-0.468
						l-0.026-0.247l-4.43,0.468l-0.114-1.078c0.499-0.076,0.848-0.258,1.041-0.536c0.14-0.202,0.161-0.406,0.155-0.532l3.135-0.332
						l-0.027-0.246l-3.157,0.334c-0.22-0.642-0.929-0.745-1.381-0.701l-0.111-1.051L50.664,17.708z"/>
				</g>
				<g>
					<path style="fill:#C5C6C7;" d="M89.028,28.447l-0.108-1.025l-16.314,1.725c-0.885,0.457-1.777,0.896-2.674,1.32L89.028,28.447z
						"/>
				</g>
				<g>
					<path style="fill:#9B9C9D;" d="M88.307,21.631l-4.781,0.506c-1.719,1.395-3.547,2.689-5.447,3.891l0.011,0.104l10.576-1.117
						L88.307,21.631z"/>
				</g>
				<g>
					<path style="fill:#AEB3BA;" d="M38.325,7.934l0.56,5.291c-0.098-2.262,0.459-7.264,7.178-7.974l-6.101,0.645
						C38.956,6.002,38.218,6.92,38.325,7.934z"/>
				</g>
			</g>
		</g>
		<g>
			<g>
				<g>
					<path style="fill:#F08719;" d="M138.439,57.959L87.766,48.81c-1.052-0.19-1.752-1.21-1.562-2.268l5.728-31.718
						c0.189-1.058,1.207-1.768,2.257-1.578l50.673,9.15c1.049,0.189,1.753,1.211,1.563,2.268l-5.729,31.719
						C140.504,57.439,139.489,58.148,138.439,57.959z"/>
				</g>
				<g style="opacity:0.3;">
					<path style="fill:#363636;" d="M88.134,48.229l49.796,8.992c1.051,0.19,2.066-0.52,2.257-1.577l3.257-18.035
						C127.406,49.781,100.316,49.19,88.134,48.229z"/>
				</g>
				<g>
					<path style="fill:#DABC73;" d="M100.417,34.393l-8.24-1.488c-0.356-0.063-0.593-0.406-0.53-0.762l1.057-5.849
						c0.064-0.354,0.408-0.593,0.764-0.528l8.24,1.488c0.355,0.063,0.593,0.406,0.529,0.762l-1.059,5.849
						C101.116,34.219,100.773,34.457,100.417,34.393z"/>
				</g>
				<g>
					<path style="fill:#C0A15D;" d="M101.294,33.229l0.527-2.918c-2.725,1.81-7.175,2.13-9.866,2.141
						c0.189,0.288,0.486,0.502,0.85,0.567l6.984,1.261C100.489,34.406,101.167,33.933,101.294,33.229z"/>
				</g>
				<g>
					<g>
						
							<rect x="90.687" y="36.169" transform="matrix(0.9841 0.1777 -0.1777 0.9841 8.2789 -16.5076)" style="fill:#FFFFFF;" width="11.199" height="3.581"/>
					</g>
					<g>
						
							<rect x="102.979" y="38.389" transform="matrix(0.9841 0.1778 -0.1778 0.9841 8.8751 -18.6669)" style="fill:#FFFFFF;" width="11.198" height="3.581"/>
					</g>
					<g>
						
							<rect x="115.271" y="40.609" transform="matrix(0.9841 0.1777 -0.1777 0.9841 9.4593 -20.806)" style="fill:#FFFFFF;" width="11.199" height="3.581"/>
					</g>
					<g>
						
							<rect x="127.563" y="42.828" transform="matrix(0.9841 0.1777 -0.1777 0.9841 10.0504 -22.9571)" style="fill:#FFFFFF;" width="11.198" height="3.581"/>
					</g>
				</g>
				<g>
					<path style="fill:#F6F5F5;stroke:#F6F5F5;stroke-width:0.25;stroke-miterlimit:10;" d="M97.102,22.633
						c-0.43,0.318-0.991,0.435-1.511,0.341c-1.079-0.194-1.802-1.241-1.604-2.328c0.194-1.087,1.237-1.813,2.316-1.62
						c0.515,0.094,1.006,0.4,1.293,0.844L97.3,20.063c-0.305-0.414-0.679-0.61-1.063-0.679c-0.88-0.159-1.733,0.434-1.895,1.326
						c-0.161,0.886,0.432,1.744,1.312,1.903c0.387,0.071,0.793,0.017,1.233-0.264L97.102,22.633z"/>
					<path style="fill:#F6F5F5;stroke:#F6F5F5;stroke-width:0.25;stroke-miterlimit:10;" d="M97.616,23.287l0.693-3.846l1.146,0.207
						c0.587,0.105,0.977,0.674,0.87,1.264c-0.082,0.457-0.463,0.821-0.92,0.881l0.558,1.917l-0.402-0.073l-0.537-1.858l-0.745-0.136
						l-0.307,1.708L97.616,23.287z M98.346,21.285l0.789,0.143c0.388,0.07,0.766-0.191,0.836-0.58s-0.192-0.771-0.579-0.84
						l-0.788-0.143L98.346,21.285z"/>
					<path style="fill:#F6F5F5;stroke:#F6F5F5;stroke-width:0.25;stroke-miterlimit:10;" d="M101.425,20.374l-0.196,1.077
						l1.374,0.248l-0.063,0.359l-1.376-0.25l-0.306,1.692l1.573,0.284l-0.065,0.359l-1.946-0.352l0.696-3.845l1.944,0.351
						l-0.064,0.359L101.425,20.374z"/>
					<path style="fill:#F6F5F5;stroke:#F6F5F5;stroke-width:0.25;stroke-miterlimit:10;" d="M103.029,24.264l0.694-3.844
						l0.854,0.153c1.181,0.214,1.844,1.063,1.625,2.269c-0.217,1.205-1.139,1.789-2.318,1.576L103.029,24.264z M103.45,23.97
						l0.499,0.09c0.983,0.177,1.717-0.272,1.899-1.282c0.182-1.01-0.352-1.668-1.336-1.846l-0.498-0.09L103.45,23.97z"/>
					<path style="fill:#F6F5F5;stroke:#F6F5F5;stroke-width:0.25;stroke-miterlimit:10;" d="M106.822,24.949l-0.357-0.064
						l0.696-3.846l0.357,0.064L106.822,24.949z"/>
					<path style="fill:#F6F5F5;stroke:#F6F5F5;stroke-width:0.25;stroke-miterlimit:10;" d="M110.217,21.962l-0.998-0.18
						l-0.63,3.485l-0.355-0.063l0.629-3.487l-1.004-0.181l0.064-0.358l2.359,0.426L110.217,21.962z"/>
					<path style="fill:#F6F5F5;stroke:#F6F5F5;stroke-width:0.25;stroke-miterlimit:10;" d="M114.782,25.825
						c-0.431,0.319-0.993,0.435-1.513,0.341c-1.079-0.194-1.801-1.241-1.604-2.328c0.197-1.087,1.237-1.814,2.319-1.619
						c0.512,0.094,1.004,0.398,1.293,0.842l-0.298,0.195c-0.306-0.416-0.681-0.609-1.062-0.678c-0.881-0.16-1.736,0.433-1.896,1.324
						c-0.159,0.887,0.432,1.746,1.313,1.904c0.388,0.07,0.791,0.016,1.23-0.265L114.782,25.825z"/>
					<path style="fill:#F6F5F5;stroke:#F6F5F5;stroke-width:0.25;stroke-miterlimit:10;" d="M117.568,22.919l1.134,4.175
						l-0.392-0.07l-0.358-1.309l-1.828-0.331l-0.788,1.103l-0.396-0.072l2.526-3.514L117.568,22.919z M116.361,25.057l1.482,0.269
						l-0.457-1.692L116.361,25.057z"/>
					<path style="fill:#F6F5F5;stroke:#F6F5F5;stroke-width:0.25;stroke-miterlimit:10;" d="M119.161,27.177l0.694-3.845
						l1.146,0.207c0.585,0.105,0.978,0.674,0.87,1.264c-0.084,0.457-0.464,0.821-0.922,0.881l0.558,1.918l-0.402-0.074l-0.537-1.859
						l-0.741-0.134l-0.31,1.708L119.161,27.177z M119.891,25.176l0.788,0.143c0.387,0.068,0.765-0.189,0.836-0.58
						c0.068-0.391-0.192-0.771-0.58-0.84l-0.789-0.143L119.891,25.176z"/>
					<path style="fill:#F6F5F5;stroke:#F6F5F5;stroke-width:0.25;stroke-miterlimit:10;" d="M121.966,27.684l0.694-3.846
						l0.856,0.154c1.182,0.215,1.842,1.064,1.625,2.27c-0.218,1.204-1.14,1.789-2.319,1.576L121.966,27.684z M122.386,27.39
						l0.499,0.089c0.982,0.178,1.716-0.271,1.899-1.281c0.183-1.011-0.35-1.668-1.332-1.846l-0.501-0.09L122.386,27.39z"/>
				</g>
				<g>
					<g>
						<path style="fill:#BD2D2C;" d="M131.3,27.758c0.202-1.124,0.94-2.015,1.902-2.455c-0.461-0.463-1.062-0.796-1.752-0.92
							c-1.809-0.327-3.541,0.884-3.868,2.703c-0.328,1.819,0.869,3.559,2.677,3.885c0.691,0.125,1.369,0.023,1.965-0.249
							C131.478,29.973,131.096,28.881,131.3,27.758z"/>
					</g>
					<g>
						<path style="fill:#EAC639;" d="M135.017,28.429c0.204-1.124,0.942-2.015,1.903-2.454c-0.461-0.464-1.061-0.797-1.753-0.921
							c-0.691-0.125-1.37-0.023-1.965,0.249c0.746,0.749,1.127,1.841,0.925,2.966c-0.203,1.123-0.943,2.013-1.903,2.453
							c0.461,0.464,1.062,0.796,1.754,0.921c0.689,0.125,1.368,0.023,1.963-0.248C135.195,30.645,134.813,29.553,135.017,28.429z"/>
					</g>
					<g>
						<path style="fill:#CD6B30;" d="M134.127,28.269c0.202-1.125-0.179-2.217-0.925-2.966c-0.962,0.44-1.7,1.331-1.902,2.455
							c-0.204,1.123,0.178,2.215,0.924,2.964C133.184,30.281,133.924,29.392,134.127,28.269z"/>
					</g>
					<g>
						<path style="fill:#5FA5B5;" d="M138.884,25.725c-0.688-0.125-1.369-0.023-1.964,0.25c0.745,0.748,1.127,1.84,0.923,2.965
							c-0.201,1.124-0.94,2.014-1.902,2.455c0.461,0.462,1.062,0.795,1.753,0.92c1.809,0.326,3.54-0.885,3.869-2.704
							C141.891,27.791,140.692,26.052,138.884,25.725z"/>
					</g>
					<g>
						<path style="fill:#58595B;" d="M137.843,28.939c0.204-1.125-0.178-2.217-0.923-2.965c-0.961,0.439-1.699,1.33-1.903,2.454
							c-0.203,1.124,0.179,2.216,0.924,2.966C136.902,30.953,137.642,30.063,137.843,28.939z"/>
					</g>
				</g>
				<g>
					
						<rect x="114.304" y="47.772" transform="matrix(0.9841 0.1777 -0.1777 0.9841 10.5918 -21.6454)" style="fill:#EBECEB;" width="23.688" height="1.086"/>
				</g>
				<g>
					
						<rect x="119.444" y="50.565" transform="matrix(0.9841 0.1777 -0.1777 0.9841 11.1256 -22.017)" style="fill:#C5C6C7;" width="18.088" height="1.086"/>
				</g>
				<g>
					<path style="fill:#EBECEB;" d="M102.096,28.779l0.049-0.256l-4.641-0.838l0.211-1.154l-0.256-0.045l-0.207,1.154l-4.641-0.838
						l-0.047,0.256l4.639,0.837l-0.196,1.1l-4.641-0.838l-0.047,0.257l4.64,0.838l-0.002,0.008l0.139,0.017
						c0.049,0.006,1.152,0.132,1.098,0.996c-0.001,0.003-0.02,0.252-0.241,0.433c-0.237,0.194-0.618,0.248-1.132,0.162l-4.786-0.863
						l-0.047,0.255l4.66,0.842l-0.2,1.12l-4.663-0.842l-0.046,0.256l4.663,0.842l-0.21,1.154l0.256,0.045l0.208-1.154l4.616,0.834
						l0.046-0.256l-4.616-0.834l0.202-1.123c0.526,0.069,0.936-0.01,1.213-0.234c0.199-0.164,0.281-0.365,0.313-0.494l3.269,0.591
						l0.046-0.257l-3.293-0.594c-0.032-0.715-0.718-1.029-1.19-1.117l0.199-1.096L102.096,28.779z"/>
				</g>
				<g>
					<path style="fill:#C5C6C7;" d="M137.708,50.953l0.19-1.068l-16.997-3.069c-1.029,0.2-2.061,0.382-3.091,0.544L137.708,50.953z"
						/>
				</g>
				<g>
					<path style="fill:#9B9C9D;" d="M138.991,43.852l-4.982-0.9c-2.149,0.902-4.379,1.672-6.655,2.324l-0.02,0.11l11.02,1.99
						L138.991,43.852z"/>
				</g>
				<g>
					<path style="fill:#4E4E4E;" d="M92.51,15.26l-0.997,5.513c0.568-2.315,2.607-7.208,9.608-5.944l-6.355-1.146
						C93.715,13.492,92.701,14.201,92.51,15.26z"/>
				</g>
			</g>
		</g>
	</g>
</g>
</svg>
