<?xml version="1.0" encoding="iso-8859-1"?>
<!-- Generator: Adobe Illustrator 16.0.0, SVG Export Plug-In . SVG Version: 6.00 Build 0)  -->
<!DOCTYPE svg PUBLIC "-//W3C//DTD SVG 1.1//EN" "http://www.w3.org/Graphics/SVG/1.1/DTD/svg11.dtd">
<svg version="1.1" id="&#x5716;&#x5C64;_1" xmlns="http://www.w3.org/2000/svg" xmlns:xlink="http://www.w3.org/1999/xlink" x="0px"
	 y="0px" width="247.24px" height="151.774px" viewBox="0 0 247.24 151.774" style="enable-background:new 0 0 247.24 151.774;"
	 xml:space="preserve">
<g>
	<circle style="opacity:0.6;fill:#E8C41D;stroke:#F8B62D;stroke-miterlimit:10;" cx="123.62" cy="48.532" r="48.033"/>
	<g>
		<g>
			
				<ellipse style="fill:#C9BC9C;stroke:#B28247;stroke-width:0.5;stroke-miterlimit:10;" cx="123.62" cy="146.821" rx="123.37" ry="4.703"/>
			<g>
				<g>
					<rect x="118.488" y="65.148" style="fill:#727171;" width="11.494" height="1.744"/>
					
						<line style="fill:none;stroke:#727171;stroke-width:2;stroke-miterlimit:10;" x1="124.236" y1="54.717" x2="124.236" y2="66.238"/>
					<circle style="fill:#FFFFFF;stroke:#727171;stroke-miterlimit:10;" cx="124.235" cy="43.533" r="13.475"/>
					<g>
						<g style="enable-background:new    ;">
							<defs>
								<polygon id="SVGID_5_" style="enable-background:new    ;" points="119.726,53.805 119.726,38.623 128.744,33.264 
									128.744,48.443 								"/>
							</defs>
							<clipPath id="SVGID_2_">
								<use xlink:href="#SVGID_5_"  style="overflow:visible;"/>
							</clipPath>
							<g style="clip-path:url(#SVGID_2_);">
								<polyline style="fill:#2C50A2;" points="128.744,33.264 119.728,38.623 119.728,49.342 125.738,45.77 125.738,43.086 
									122.732,44.872 122.732,44.87 122.732,43.982 122.732,40.41 128.744,36.836 128.744,33.264 								"/>
								<polyline style="fill:#E9C41D;" points="128.744,37.723 122.732,41.297 122.732,43.982 122.732,44.87 122.732,43.982 
									125.738,42.197 125.738,43.086 125.738,46.656 119.726,50.23 119.726,53.805 128.744,48.443 128.744,37.723 								"/>
								<polyline style="fill:#F08719;" points="125.738,42.197 122.732,43.982 122.732,44.87 122.732,44.872 125.738,43.086 
									125.738,42.197 								"/>
							</g>
						</g>
					</g>
				</g>
				<g>
					
						<rect x="95.05" y="125.652" style="fill:#B5B5B6;stroke:#FFFFFF;stroke-width:0.5;stroke-miterlimit:10;" width="19.308" height="19.309"/>
					
						<rect x="95.05" y="106.066" style="fill:#2C50A2;stroke:#FFFFFF;stroke-width:0.5;stroke-miterlimit:10;" width="19.308" height="19.309"/>
					
						<rect x="95.05" y="86.479" style="fill:#B5B5B6;stroke:#FFFFFF;stroke-width:0.5;stroke-miterlimit:10;" width="19.308" height="19.309"/>
					
						<rect x="95.05" y="66.893" style="fill:#B5B5B6;stroke:#FFFFFF;stroke-width:0.5;stroke-miterlimit:10;" width="19.308" height="19.309"/>
					
						<rect x="114.582" y="125.652" style="fill:#B5B5B6;stroke:#FFFFFF;stroke-width:0.5;stroke-miterlimit:10;" width="19.309" height="19.309"/>
					
						<rect x="114.582" y="106.066" style="fill:#B5B5B6;stroke:#FFFFFF;stroke-width:0.5;stroke-miterlimit:10;" width="19.309" height="19.309"/>
					
						<rect x="114.582" y="86.479" style="fill:#727171;stroke:#FFFFFF;stroke-width:0.5;stroke-miterlimit:10;" width="19.309" height="19.309"/>
					
						<rect x="114.582" y="66.893" style="fill:#2C50A2;stroke:#FFFFFF;stroke-width:0.5;stroke-miterlimit:10;" width="19.309" height="19.309"/>
					
						<rect x="134.145" y="125.652" style="fill:#E8C41D;stroke:#FFFFFF;stroke-width:0.5;stroke-miterlimit:10;" width="19.308" height="19.309"/>
					
						<rect x="134.145" y="106.066" style="fill:#9FA0A0;stroke:#FFFFFF;stroke-width:0.5;stroke-miterlimit:10;" width="19.308" height="19.309"/>
					
						<rect x="136.439" y="108.225" style="fill:#727171;stroke:#FFFFFF;stroke-width:0.5;stroke-miterlimit:10;" width="14.719" height="14.719"/>
					<polygon style="fill:#898989;stroke:#DCDDDD;stroke-width:0.5;stroke-miterlimit:10;" points="164.304,128.538 
						153.452,125.514 153.452,106.205 164.304,109.229 					"/>
					
						<rect x="134.145" y="86.479" style="fill:#E8C41D;stroke:#FFFFFF;stroke-width:0.5;stroke-miterlimit:10;" width="19.308" height="19.309"/>
					
						<rect x="134.145" y="66.893" style="fill:#B5B5B6;stroke:#FFFFFF;stroke-width:0.5;stroke-miterlimit:10;" width="19.308" height="19.309"/>
					<path style="fill:#FFFFFF;" d="M98.176,79.219c0,0.195-0.158,0.354-0.352,0.354l0,0c-0.195,0-0.353-0.158-0.353-0.354v-5.343
						c0-0.194,0.157-0.353,0.353-0.353l0,0c0.193,0,0.352,0.158,0.352,0.353V79.219z"/>
					<path style="fill:#FFFFFF;" d="M98.176,98.805c0,0.195-0.158,0.354-0.352,0.354l0,0c-0.195,0-0.353-0.158-0.353-0.354v-5.343
						c0-0.194,0.157-0.353,0.353-0.353l0,0c0.193,0,0.352,0.158,0.352,0.353V98.805z"/>
					<path style="fill:#FFFFFF;" d="M117.484,99.084c0,0.193-0.158,0.352-0.353,0.352l0,0c-0.194,0-0.353-0.158-0.353-0.352V93.74
						c0-0.195,0.158-0.354,0.353-0.354l0,0c0.194,0,0.353,0.158,0.353,0.354V99.084z"/>
					<path style="fill:#FFFFFF;" d="M98.176,118.393c0,0.193-0.158,0.352-0.352,0.352l0,0c-0.195,0-0.353-0.158-0.353-0.352v-5.344
						c0-0.195,0.157-0.353,0.353-0.353l0,0c0.193,0,0.352,0.157,0.352,0.353V118.393z"/>
					<path style="fill:#FFFFFF;" d="M98.176,137.978c0,0.197-0.158,0.354-0.352,0.354l0,0c-0.195,0-0.353-0.157-0.353-0.354v-5.342
						c0-0.194,0.157-0.354,0.353-0.354l0,0c0.193,0,0.352,0.159,0.352,0.354V137.978z"/>
					<path style="fill:#FFFFFF;" d="M117.484,79.357c0,0.195-0.158,0.354-0.353,0.354l0,0c-0.194,0-0.353-0.158-0.353-0.354v-5.343
						c0-0.194,0.158-0.353,0.353-0.353l0,0c0.194,0,0.353,0.158,0.353,0.353V79.357z"/>
					<path style="fill:#FFFFFF;" d="M117.484,118.531c0,0.195-0.158,0.352-0.353,0.352l0,0c-0.194,0-0.353-0.156-0.353-0.352v-5.344
						c0-0.195,0.158-0.352,0.353-0.352l0,0c0.194,0,0.353,0.156,0.353,0.352V118.531z"/>
					<path style="fill:#FFFFFF;" d="M117.484,138.118c0,0.193-0.158,0.352-0.353,0.352l0,0c-0.194,0-0.353-0.158-0.353-0.352v-5.344
						c0-0.194,0.158-0.353,0.353-0.353l0,0c0.194,0,0.353,0.158,0.353,0.353V138.118z"/>
					<path style="fill:#FFFFFF;" d="M136.793,79.496c0,0.195-0.158,0.354-0.354,0.354l0,0c-0.193,0-0.353-0.158-0.353-0.354v-5.342
						c0-0.195,0.159-0.353,0.353-0.353l0,0c0.195,0,0.354,0.157,0.354,0.353V79.496z"/>
					<path style="fill:#FFFFFF;" d="M136.793,99.084c0,0.193-0.158,0.352-0.354,0.352l0,0c-0.193,0-0.353-0.158-0.353-0.352V93.74
						c0-0.195,0.159-0.354,0.353-0.354l0,0c0.195,0,0.354,0.158,0.354,0.354V99.084z"/>
					<path style="fill:#FFFFFF;" d="M136.793,138.256c0,0.195-0.158,0.353-0.354,0.353l0,0c-0.193,0-0.353-0.157-0.353-0.353v-5.343
						c0-0.195,0.159-0.353,0.353-0.353l0,0c0.195,0,0.354,0.157,0.354,0.353V138.256z"/>
					
						<line style="fill:none;stroke:#FFFFFF;stroke-width:0.5;stroke-miterlimit:10;" x1="134.145" y1="106.066" x2="136.439" y2="108.225"/>
					
						<line style="fill:none;stroke:#FFFFFF;stroke-width:0.5;stroke-miterlimit:10;" x1="136.439" y1="122.943" x2="134.145" y2="125.375"/>
					
						<line style="fill:none;stroke:#FFFFFF;stroke-width:0.5;stroke-miterlimit:10;" x1="151.158" y1="122.943" x2="153.452" y2="125.375"/>
					
						<line style="fill:none;stroke:#FFFFFF;stroke-width:0.5;stroke-miterlimit:10;" x1="151.158" y1="108.225" x2="153.452" y2="106.066"/>
					
						<ellipse style="fill:#DCDDDD;stroke:#898989;stroke-width:0.5;stroke-miterlimit:10;" cx="162.479" cy="115.711" rx="0.308" ry="0.731"/>
					
						<ellipse style="fill:#DCDDDD;stroke:#898989;stroke-width:0.5;stroke-miterlimit:10;" cx="162.479" cy="122.212" rx="0.308" ry="0.731"/>
				</g>
			</g>
		</g>
		<g>
			<g>
				<g>
					<path style="fill:#EC7171;" d="M176.887,103.945c0,0-0.637-0.426-0.807-0.453c-0.169-0.027-1.177-0.137-1.113,0.063
						c0.054,0.176,0.059,0.213,0.526,0.244c0.469,0.032,0.528,0.325,0.528,0.325L176.887,103.945z"/>
					<path style="fill:#EC7171;" d="M186.087,104.779c0,0-0.248,2.554-0.833,2.554c-0.587,0-5.078-1.937-6.023-2.183
						c-0.798-0.209-2.008-0.043-2.638,0.208c-0.563,0.224-1.244-0.151-1.433-0.495c-0.022-0.042-0.289-0.882-0.289-0.918
						c0-0.332,2.487-0.03,3.309-0.03s5.696,1.076,5.696,1.076l0.439-1.388L186.087,104.779z"/>
					<path style="fill:#111A38;" d="M186.748,92.18c0,0,0.857,0.045,0.996,1.097c0.139,1.051,1.045,1.057,1.299,0.541
						c0.254-0.515-0.243-0.713-0.243-0.713s0.916,0.158,0.847,0.841c-0.069,0.684-0.9,0.936-0.9,0.936s1.038-0.454,1.212,0.54
						c0.175,0.995-0.802,1.253-0.802,1.253s0.327-0.59-0.066-0.781c-0.391-0.193-0.719,1.05-0.719,1.05s0.063,0.628-0.77-0.048
						c-0.832-0.678-1.699,0.389-1.604,0.671c0.098,0.282-1.153-0.391-1.1-0.958c0.054-0.566-0.633-0.453-0.504-0.079
						c0,0-0.939-0.664-0.29-1.188c0.65-0.524,0.576-0.37,0.435-0.784c-0.141-0.414,0.138-1.604,0.562-2.039
						C185.525,92.083,186.748,92.18,186.748,92.18z"/>
					<g>
						<path style="fill:#186379;" d="M183.354,104.335c0.179-2.696,0.961-7.138,0.961-7.138s1.253,3.136,1.601,4.256
							c0.276,0.891,0.32,2.416,0.12,3.697C185.324,105.086,184.071,104.305,183.354,104.335z"/>
						<path style="fill:#EC7171;" d="M195.188,144.926c0.382-0.217,0.666-1.701,0.666-1.701c-0.04-1.242-0.14-2.995-0.269-4.817
							c0.622-0.036,1.246-0.056,1.872-0.063c-0.127,1.899-0.24,3.44-0.211,3.676c0.077,0.629,0.364,0.357,0.537,0.795
							c0.174,0.512-0.177,0.801-0.635,1.035c-0.459,0.234-0.487,1.271-0.749,1.348c-1.148,0.338-1.687,0.299-1.687,0.102
							C194.713,145.102,194.807,145.141,195.188,144.926z"/>
						<path style="fill:#EA5D58;" d="M195.585,138.408c0.622-0.036,1.246-0.056,1.872-0.063c-0.023,0.342-0.046,0.673-0.066,0.987
							c-0.52-0.104-1.259-0.238-1.762-0.284C195.614,138.837,195.601,138.623,195.585,138.408z"/>
						<path style="fill:#EC7171;" d="M185.346,144.452c0.357-0.109,0.769-0.252,1.158-0.416c0.594-0.254,1.006-0.803,1.079-1.445
							c0.129-1.098,0.306-3.104,0.404-4.306c0.805-0.066,1.604-0.039,2.403,0.037c-0.695,2.185-1.372,4.32-1.336,4.939
							c0.065,1.129,0.641,1.842-0.161,1.996c-0.682,0.135-1.908-0.172-2.802-0.172C185.197,145.084,184.773,144.629,185.346,144.452
							z"/>
						<path style="fill:#343965;" d="M189.096,145.336c0.659-0.127,0.211-1.154,0.029-1.52c-0.636,0.352-2.792,0.686-3.78,0.631
							c-0.946,0.373-1.861,0.313-1.385,0.787C184.436,145.713,188.414,145.469,189.096,145.336z"/>
						<path style="fill:#EA5D58;" d="M187.987,138.284c0.805-0.066,1.604-0.039,2.403,0.037c-0.091,0.287-0.183,0.573-0.271,0.855
							c-0.563-0.049-1.521-0.129-2.195-0.16C187.948,138.751,187.969,138.505,187.987,138.284z"/>
						<path style="fill:#273893;" d="M191.831,133.225c-0.236-1.856-0.016-2.917-0.339-4.223
							c-0.322-1.305,4.049-19.143,4.049-19.143l-6.39-0.438c0,0-0.947,16.684-1.093,17.953c-0.142,1.27,0.037,1.258,0.27,3.133
							c0.142,1.151,0.066,4.681-0.896,7.843c0.803-0.066,2.911,0.116,3.71,0.194C191.804,136.471,191.975,134.352,191.831,133.225z"
							/>
						<path style="fill:#6171B5;" d="M198.122,130.637c-0.42-1.381-0.67-1.534-0.76-3.198c-0.021-0.409-0.435-14.295-0.941-15.622
							c-0.46-1.676-2.777-4.839-2.777-4.839l-4.495,0.396l0.754,3.73l1.063,3.519c0.195,1.011,3.769,14.852,4.217,15.763
							c0.252,0.515-0.128,4.57-0.119,8.308c0.623,0.004,2.427,0.135,3.052,0.168C198.538,135.739,198.383,131.498,198.122,130.637z"
							/>
						<g>
							<path style="fill:#818DC5;" d="M194.399,109.648c-0.013-0.033-0.052-0.052-0.087-0.04s-0.054,0.05-0.041,0.083
								c0,0.002,0.046,0.131,0.124,0.375c0.01,0.029,0.039,0.047,0.067,0.045c0.007,0,0.012,0,0.019-0.002
								c0.035-0.012,0.055-0.048,0.044-0.082C194.446,109.781,194.4,109.65,194.399,109.648z"/>
							<path style="fill:#818DC5;" d="M196.499,126.669c-0.034,0-0.066,0.03-0.065,0.067c0.005,0.291,0.013,0.559,0.018,0.803
								c0.001,0.037,0.031,0.066,0.069,0.065c0.001,0.001,0.001,0,0.001,0c0.038-0.003,0.065-0.032,0.065-0.067
								c-0.005-0.244-0.012-0.513-0.019-0.804C196.568,126.697,196.537,126.668,196.499,126.669z"/>
							<path style="fill:#818DC5;" d="M197.039,130.692c-0.057-0.265-0.115-0.529-0.179-0.786c-0.008-0.036-0.046-0.058-0.082-0.05
								c-0.037,0.009-0.06,0.044-0.05,0.079c0.063,0.257,0.122,0.52,0.177,0.783c0.007,0.032,0.038,0.054,0.072,0.053
								c0,0,0.004-0.001,0.009-0.001C197.022,130.763,197.047,130.728,197.039,130.692z"/>
							<path style="fill:#818DC5;" d="M197.259,132.354c0.037-0.005,0.063-0.037,0.06-0.075c-0.037-0.258-0.079-0.527-0.127-0.795
								c-0.006-0.036-0.041-0.061-0.077-0.055c-0.037,0.006-0.063,0.041-0.056,0.076c0.046,0.268,0.089,0.533,0.124,0.793
								c0.005,0.035,0.036,0.059,0.071,0.056C197.254,132.354,197.257,132.354,197.259,132.354z"/>
							<path style="fill:#818DC5;" d="M196.611,128.984c0-0.047-0.002-0.275-0.01-0.643c0-0.037-0.031-0.066-0.067-0.065
								c-0.037,0-0.068,0.03-0.067,0.067c0.007,0.414,0.011,0.65,0.011,0.65v0.01l0.001,0.01c0,0,0.017,0.051,0.043,0.146
								c0.01,0.03,0.038,0.05,0.069,0.049c0.005-0.001,0.011-0.002,0.017-0.004c0.035-0.01,0.056-0.045,0.047-0.081
								C196.632,129.051,196.618,129.002,196.611,128.984z"/>
							<path style="fill:#818DC5;" d="M197.449,134.625c-0.038,0.002-0.067,0.033-0.065,0.069l0.047,0.802
								c0.002,0.037,0.034,0.064,0.072,0.063c0.036-0.002,0.066-0.033,0.064-0.071l-0.047-0.8
								C197.518,134.65,197.485,134.623,197.449,134.625z"/>
							<path style="fill:#818DC5;" d="M197.633,137.833c-0.037,0.002-0.064,0.033-0.063,0.07l0.045,0.801
								c0.003,0.037,0.034,0.063,0.073,0.063c0.038-0.002,0.064-0.033,0.063-0.069l-0.045-0.802
								C197.703,137.859,197.672,137.831,197.633,137.833z"/>
							<path style="fill:#818DC5;" d="M195.688,114.716c-0.051-0.263-0.104-0.528-0.158-0.789c-0.008-0.036-0.045-0.06-0.081-0.052
								s-0.061,0.043-0.053,0.078c0.055,0.262,0.108,0.525,0.159,0.787c0.006,0.033,0.036,0.057,0.07,0.053c0.003,0,0.006,0,0.008,0
								C195.671,114.787,195.694,114.752,195.688,114.716z"/>
							<path style="fill:#818DC5;" d="M197.34,133.022c-0.039,0.002-0.065,0.036-0.063,0.071c0.024,0.235,0.044,0.47,0.054,0.696
								l0.008,0.103c0.003,0.035,0.035,0.063,0.071,0.063c0.038-0.003,0.067-0.034,0.063-0.07l-0.005-0.102
								c-0.014-0.229-0.032-0.465-0.055-0.702C197.409,133.045,197.376,133.021,197.34,133.022z"/>
							<path style="fill:#818DC5;" d="M197.541,136.229c-0.037,0.002-0.064,0.032-0.063,0.07l0.047,0.802
								c0.001,0.035,0.032,0.064,0.07,0.062c0.038-0.001,0.066-0.032,0.065-0.069l-0.047-0.802
								C197.61,136.255,197.577,136.229,197.541,136.229z"/>
							<path style="fill:#818DC5;" d="M196.397,121.914c-0.002-0.037-0.033-0.064-0.07-0.063h-0.001
								c-0.038,0.003-0.066,0.032-0.065,0.069c0.014,0.268,0.026,0.537,0.037,0.803c0.002,0.035,0.033,0.064,0.071,0.063h0.002
								c0.037-0.002,0.064-0.033,0.063-0.068C196.422,122.45,196.411,122.183,196.397,121.914z"/>
							<path style="fill:#818DC5;" d="M196.453,125.063c-0.035,0.002-0.066,0.031-0.063,0.068c0.008,0.277,0.015,0.545,0.023,0.803
								c0,0.035,0.031,0.065,0.068,0.064h0.002c0.037-0.002,0.065-0.031,0.063-0.068c-0.007-0.258-0.015-0.525-0.023-0.805
								C196.521,125.09,196.491,125.063,196.453,125.063z"/>
							<path style="fill:#818DC5;" d="M196.129,118.645c-0.039,0.002-0.067,0.034-0.064,0.07c0.021,0.262,0.04,0.529,0.059,0.8
								c0.002,0.037,0.034,0.063,0.07,0.063h0.001c0.038-0.003,0.066-0.034,0.064-0.071c-0.019-0.271-0.038-0.537-0.059-0.801
								C196.197,118.67,196.166,118.643,196.129,118.645L196.129,118.645z"/>
							<path style="fill:#818DC5;" d="M195.173,112.357c-0.009-0.036-0.045-0.058-0.083-0.049c-0.036,0.008-0.058,0.043-0.05,0.078
								c0.063,0.256,0.125,0.52,0.185,0.781c0.009,0.033,0.037,0.055,0.069,0.053c0.003,0,0.009-0.002,0.011-0.002
								c0.037-0.007,0.061-0.043,0.054-0.078C195.297,112.877,195.236,112.613,195.173,112.357z"/>
							<path style="fill:#818DC5;" d="M196.468,123.52c-0.002-0.035-0.033-0.064-0.07-0.063h-0.002
								c-0.036,0.002-0.065,0.031-0.064,0.067c0.012,0.272,0.022,0.54,0.03,0.804c0.001,0.035,0.032,0.064,0.069,0.063h0.002
								c0.037-0.002,0.066-0.031,0.064-0.067C196.487,124.061,196.479,123.793,196.468,123.52z"/>
							<path style="fill:#818DC5;" d="M196.239,120.246L196.239,120.246c-0.038,0.003-0.067,0.035-0.064,0.07
								c0.007,0.107,0.013,0.215,0.019,0.322c0.01,0.159,0.018,0.318,0.027,0.479c0.002,0.036,0.033,0.064,0.072,0.063l0,0
								c0.037-0.002,0.066-0.033,0.064-0.069c-0.01-0.159-0.018-0.319-0.027-0.479c-0.006-0.107-0.014-0.215-0.02-0.322
								C196.309,120.271,196.275,120.244,196.239,120.246z"/>
							<path style="fill:#818DC5;" d="M194.676,110.753c-0.036,0.011-0.059,0.046-0.048,0.082c0.071,0.247,0.144,0.507,0.214,0.773
								c0.009,0.031,0.037,0.052,0.07,0.05c0.004,0,0.009,0,0.012-0.003c0.037-0.009,0.059-0.044,0.051-0.079
								c-0.072-0.268-0.144-0.529-0.215-0.777C194.749,110.764,194.712,110.743,194.676,110.753z"/>
							<path style="fill:#818DC5;" d="M195.918,117.117c0.026,0.25,0.054,0.519,0.078,0.799c0.005,0.035,0.036,0.062,0.073,0.061
								h0.002c0.036-0.004,0.065-0.037,0.062-0.072c-0.026-0.281-0.052-0.551-0.08-0.801c-0.003-0.035-0.04-0.062-0.074-0.059
								C195.941,117.049,195.914,117.081,195.918,117.117z"/>
							<path style="fill:#818DC5;" d="M195.702,115.529c0.042,0.234,0.082,0.501,0.121,0.792c0.005,0.034,0.035,0.06,0.071,0.058
								c0.001-0.001,0.002-0.001,0.006-0.002c0.035-0.003,0.063-0.037,0.058-0.072c-0.04-0.292-0.08-0.562-0.122-0.798
								c-0.006-0.036-0.042-0.06-0.078-0.053C195.72,115.46,195.695,115.493,195.702,115.529z"/>
						</g>
						<path style="fill:#1A8284;" d="M184.315,97.197c0,0,1.304-1.318,5.403-2.436c0.184-0.051,1.445,3.865,1.445,3.865
							s0.04,2.547,0.843,4.939c0.62,1.855,2.451,3.543,2.969,4.145c0,0-2.8,2.537-6.325,2.69c0,0-1.56-5.7-2.424-6.646
							c-0.865-0.946-1.925-1.657-1.844-3.16C184.461,99.093,184.315,97.197,184.315,97.197z"/>
						<path style="fill:#70B2B2;" d="M188.65,110.401c-0.309-1.47-1.342-5.673-2.312-6.815c-1.216-1.309-1.834-1.564-1.801-3.26
							c0-1.158-0.114-2.396-0.223-3.129c-0.009,2.167-0.014,2.182-0.091,3.571c-0.04,1.874,1.614,2.421,2.257,3.796
							C187.053,105.703,188.199,109.128,188.65,110.401z"/>
						<path style="fill:#343965;" d="M197.319,142.313L197.319,142.313c-0.001,0-0.537,0.832-0.799,1.768
							c-0.189,0.676-1.3,0.828-1.333,0.846c-0.381,0.215-1.295,0.299-1.295,0.498s1.358,0.438,2.507,0.1
							c0.262-0.078,0.394-1.438,0.853-1.672c0.458-0.234,0.821-0.41,0.645-0.918C197.762,142.586,197.533,142.444,197.319,142.313z"
							/>
					</g>
					<path style="fill:#1B274D;" d="M182.992,89.446c-0.048,0.138-0.259,2.862,0.24,3.563c0.5,0.701,1.285,0.3,1.979,0.063
						c0.694-0.236,1.155-0.534,1.155-0.534S183.349,88.475,182.992,89.446z"/>
					<path style="fill:#EC7171;" d="M184.494,93.365c-0.05,0.1,0.988,2.154,0.893,2.854c0,0,0.266,3.354,0.822,3.235
						c0.483-0.104,1.3-3.221,1.248-3.678c-0.071-0.616-1.173-3.438-1.173-3.438L184.494,93.365z"/>
					<path style="fill:#EA5D58;" d="M184.797,94.153c0.93,0.399,1.793-0.229,1.634-1.437c-0.151-0.4-0.137-0.355-0.146-0.379
						l-1.79,1.027C184.474,93.406,184.605,93.682,184.797,94.153z"/>
					<path style="fill:#EC7171;" d="M183.065,88.44c0,0-0.841,0.478-0.686,1.284c0.156,0.808,0.224,1.5,0.681,2.348
						c0.458,0.848,1.399,1.863,2.343,1.758c0.943-0.106,1.367-1.875,1.099-2.667c-0.271-0.792-0.401-2.228-1.278-2.837
						C184.348,87.717,183.065,88.44,183.065,88.44z"/>
					<g>
						<path style="fill:#FFFFFF;" d="M185.493,92.239c-0.404,0.366-1.103,0.61-1.103,0.61s0.083,0.08,0.204,0.154
							c0.202-0.082,0.59-0.254,0.879-0.484C185.497,92.362,185.493,92.239,185.493,92.239z"/>
						<path style="fill:#2A0A27;" d="M185.474,92.52c-0.289,0.23-0.677,0.402-0.879,0.484
							C185.066,93.289,185.387,93.07,185.474,92.52z"/>
					</g>
					<path style="fill:#EA5D58;" d="M183.065,88.44c0,0-0.841,0.478-0.686,1.284c0.142,0.731,0.211,1.369,0.564,2.113
						c0.107-0.146,0.26-0.343,0.53-0.507c0.789-0.479,1.02-1.964,0.903-2.968c-0.009-0.021-0.086-0.338-0.298-0.443
						C183.363,87.885,183.065,88.44,183.065,88.44z"/>
					<path style="fill:#1B2B5C;" d="M184.52,91.141c-0.004-0.156,0.07-0.333,0.221-0.434c0.269-0.177,0.591,0.185,0.79,0.111
						c-0.118,0.123-0.434-0.044-0.614-0.053c-0.098-0.006-0.166,0.045-0.237,0.113C184.61,90.949,184.56,91.041,184.52,91.141z"/>
					
						<ellipse transform="matrix(0.9467 -0.322 0.322 0.9467 -19.4182 64.3709)" style="fill:#1B2B5C;" cx="184.865" cy="90.881" rx="0.152" ry="0.171"/>
					<path style="fill:#1B2B5C;" d="M183.897,91.455c-0.097-0.121-0.269-0.208-0.449-0.188c-0.317,0.038-0.331,0.522-0.53,0.597
						c0.171,0.017,0.303-0.314,0.435-0.438c0.07-0.067,0.155-0.073,0.256-0.065C183.705,91.367,183.803,91.404,183.897,91.455z"/>
					
						<ellipse transform="matrix(-0.9309 0.3653 -0.3653 -0.9309 387.6728 109.6274)" style="fill:#1B2B5C;" cx="183.468" cy="91.48" rx="0.151" ry="0.17"/>
					<path style="fill:#1B2B5C;" d="M184.181,90.491c-0.038-0.009,0.131-0.354,0.428-0.487c0.299-0.135,0.745,0.088,0.745,0.088
						s-0.547-0.115-0.707,0.037S184.398,90.545,184.181,90.491z"/>
					<path style="fill:#1B2C75;" d="M183.637,87.518c0.682-0.148,1.663-0.663,2.513,0.242c0.492,0.51,0.803-0.074,1.512,2.006
						c1.056,3.1-1.237,2.938-1.237,2.938s0.143-0.206-0.306-1.927c-0.003,0.01-0.005,0.016-0.005,0.016s-0.076-0.249-0.184-0.566
						c-0.001-0.001-0.001-0.001-0.001-0.001c-0.037-0.093-0.069-0.188-0.1-0.286c-0.108-0.304-0.235-0.617-0.347-0.818
						c-0.275-0.491-0.559-0.693-1.104-0.758c-0.549-0.064-2.016,1.151-2.016,1.151C182.087,88.519,182.957,87.666,183.637,87.518z"
						/>
					<path style="fill:#264399;" d="M182.82,87.992c-0.763,0.464-0.578,1.816-1.023,2.721c-0.443,0.902,0.061,1.818,0.6,2.351
						c0.538,0.532,0.912-0.062,0.912-0.062s-0.219,0.242-0.572-0.234c-0.352-0.477-0.195-0.996,0.612-1.604
						c0.806-0.61,1.029-2.8,1.029-2.8C184.273,87.986,183.581,87.53,182.82,87.992z"/>
					<path style="fill:#003034;" d="M183.309,93.002c-0.252,0.289-0.952-0.324-0.801-0.934c0.102-0.466,0.558-0.804,0.91-1.112
						c0.522-0.594,0.795-1.835,0.96-2.593c-0.021,0.844-0.246,2.082-0.805,2.734l-0.144,0.131c-0.15,0.13-0.628,0.451-0.766,0.88
						c-0.113,0.341,0.127,0.725,0.33,0.876C183.082,93.05,183.211,93.08,183.309,93.002z"/>
					<path style="fill:#EC7171;" d="M185.974,90.948c0,0-0.109-1.071,0.353-0.962c0.464,0.11,0.43,1.35,0.074,1.471
						C186.046,91.578,185.974,90.948,185.974,90.948z"/>
					<path style="fill:#EA5D58;" d="M186.159,90.277c0,0-0.256,1.096,0.096,0.863C186.607,90.91,186.464,89.985,186.159,90.277z"/>
					
						<ellipse transform="matrix(-0.7955 0.606 -0.606 -0.7955 388.2127 51.6512)" style="fill:#EA5D58;" cx="185.39" cy="91.337" rx="0.456" ry="0.237"/>
					
						<ellipse transform="matrix(-0.9844 0.1762 -0.1762 -0.9844 380.4791 150.4366)" style="fill:#EA5D58;" cx="183.561" cy="92.109" rx="0.382" ry="0.216"/>
					<g>
						<path style="opacity:0.43;fill:#B2B9DD;" d="M172.289,109.761l0.021-0.07l0.935-2.909c0,0,1.489-0.997,2.592-1.244
							c1.102-0.248,2.787,0.688,2.787,0.688s0.823,3.384,0.563,3.644c-0.259,0.26-0.511,1.914-0.563,1.968
							c-0.054,0.053-6.246-0.512-6.246-0.512L172.289,109.761z"/>
						<g>
							<path style="fill:#E61A13;" d="M177.044,108.291c-0.232,0.537-1.143,0.789-1.87,0.522c-0.727-0.267-1.219-1.063-1.017-1.612
								c0.287-0.787,0.694-0.637,1.197-0.402c0.094,0.043,0.195,0.091,0.297,0.135c0.062,0.026,0.121,0.053,0.186,0.074
								c0.064,0.023,0.129,0.046,0.197,0.064c0.083,0.023,0.163,0.044,0.245,0.064C176.885,107.287,177.428,107.406,177.044,108.291
								z"/>
							<path style="fill:#B01E23;" d="M175.314,108.516c-0.728-0.266-1.218-1.061-1.02-1.609c-0.049,0.08-0.096,0.178-0.138,0.295
								c-0.202,0.549,0.29,1.346,1.017,1.612c0.728,0.267,1.638,0.015,1.87-0.522c0.025-0.059,0.046-0.112,0.063-0.164
								C176.794,108.57,175.979,108.759,175.314,108.516z"/>
							<path style="fill:#BA1C22;" d="M174.759,107.926c0,0-0.229-0.434,0.039-0.801c0.145-0.195,0.373-0.286,0.557-0.326
								c0.094,0.043,0.195,0.091,0.297,0.135c-0.125,0.008-0.288,0.026-0.494,0.07C174.612,107.121,174.759,107.926,174.759,107.926
								z"/>
							<path style="fill:#BA1C22;" d="M176.074,108.121c0,0,0.5-0.324,0.383-0.577c-0.074-0.159-0.28-0.352-0.423-0.472
								c0.083,0.023,0.163,0.044,0.245,0.064c0.16,0.107,0.331,0.271,0.312,0.474C176.557,107.983,176.074,108.121,176.074,108.121z
								"/>
							
								<ellipse transform="matrix(0.9386 0.3449 -0.3449 0.9386 47.8678 -54.007)" style="fill:#E41812;" cx="175.714" cy="107.523" rx="0.595" ry="0.362"/>
							<g>
								<path style="fill:#015E3B;" d="M175.752,106.082c0,0-0.001,0,0.006,0.001v-0.004
									C175.755,106.08,175.752,106.08,175.752,106.082z"/>
								<path style="fill:#015E3B;" d="M176.684,106.9c-0.046-0.098-0.143-0.052-0.143-0.052c0.1,0.036,0.011,0.138-0.102,0.19
									c-0.07,0.032-0.437-0.12-0.558-0.195c-0.007-0.006-0.016-0.01-0.023-0.014c0.197-0.246,0.312-0.924-0.099-0.949
									l-0.002,0.198c0.011-0.002,0.028-0.004,0.045,0.001c0.16,0.04,0.133,0.529,0.013,0.73c-0.222-0.087-0.66-0.109-0.677-0.195
									c-0.023-0.11,0.12-0.082,0.12-0.082l0.105,0.075c0,0-0.053-0.209-0.184-0.21c-0.21-0.003-0.231,0.188-0.206,0.248
									c0.024,0.048,0.374,0.178,0.545,0.24c-0.067-0.001-0.291,0.025-0.443,0.143c-0.173,0.133-0.034,0.46-0.034,0.46
									s-0.035-0.287,0.146-0.372c0.143-0.064,0.403-0.117,0.512-0.139l-0.208,0.609c0,0,0.176-0.067,0.26-0.299
									c0.056-0.152,0.063-0.244,0.063-0.289l0.118,0.055c0.063,0.049,0.164,0.132,0.232,0.219
									c0.107,0.135-0.183,0.284-0.183,0.284s0.118,0.003,0.215-0.081c0.187-0.162,0.082-0.262-0.003-0.343
									c0.082,0.019,0.155,0.051,0.271,0.071C176.664,107.24,176.728,106.998,176.684,106.9z"/>
							</g>
						</g>
						<g>
							<path style="fill:#E61A13;" d="M178.517,107.399c0.376,0.447,0.192,1.374-0.371,1.904c-0.564,0.53-1.498,0.613-1.896,0.188
								c-0.576-0.61-0.258-0.906,0.177-1.251c0.082-0.066,0.169-0.134,0.255-0.205c0.05-0.042,0.1-0.086,0.147-0.131
								c0.051-0.049,0.1-0.098,0.146-0.149c0.059-0.062,0.113-0.126,0.168-0.189C177.548,107.092,177.898,106.658,178.517,107.399z"
								/>
							<path style="fill:#B01E23;" d="M177.943,109.046c-0.563,0.529-1.496,0.613-1.896,0.19c0.048,0.078,0.113,0.163,0.202,0.255
								c0.398,0.426,1.332,0.343,1.896-0.188c0.563-0.53,0.747-1.457,0.371-1.904c-0.04-0.05-0.078-0.093-0.117-0.132
								C178.653,107.748,178.457,108.563,177.943,109.046z"/>
							<path style="fill:#BA1C22;" d="M177.165,109.278c0,0-0.49,0.01-0.698-0.396c-0.109-0.215-0.088-0.461-0.041-0.643
								c0.082-0.066,0.169-0.134,0.255-0.205c-0.05,0.114-0.106,0.27-0.159,0.475C176.381,109.048,177.165,109.278,177.165,109.278z
								"/>
							<path style="fill:#BA1C22;" d="M177.93,108.189c0,0-0.065-0.592-0.344-0.6c-0.178-0.006-0.44,0.092-0.612,0.165
								c0.059-0.062,0.113-0.126,0.168-0.189c0.169-0.095,0.392-0.175,0.564-0.065C178.024,107.697,177.93,108.189,177.93,108.189z"
								/>
							
								<ellipse transform="matrix(0.7277 -0.6859 0.6859 0.7277 -25.9848 151.0264)" style="fill:#E41812;" cx="177.234" cy="108.243" rx="0.594" ry="0.362"/>
							<g>
								<path style="fill:#015E3B;" d="M175.963,107.563c0,0,0,0.002,0.003-0.004l-0.003-0.002
									C175.962,107.561,175.962,107.563,175.963,107.563z"/>
								<path style="fill:#015E3B;" d="M177.111,107.098c-0.106-0.004-0.109,0.104-0.109,0.104c0.077-0.073,0.128,0.053,0.124,0.178
									c-0.001,0.076-0.303,0.335-0.423,0.408c-0.008,0.006-0.015,0.011-0.024,0.016c-0.131-0.285-0.684-0.691-0.891-0.336
									l0.175,0.09c0.003-0.01,0.01-0.029,0.021-0.039c0.108-0.127,0.534,0.117,0.66,0.315c-0.18,0.159-0.396,0.541-0.48,0.519
									c-0.107-0.031-0.019-0.145-0.019-0.145l0.115-0.062c0,0-0.211-0.048-0.271,0.069c-0.097,0.188,0.063,0.293,0.131,0.295
									c0.054,0.002,0.326-0.253,0.458-0.378c-0.03,0.061-0.107,0.271-0.071,0.46c0.041,0.214,0.396,0.236,0.396,0.236
									s-0.271-0.098-0.265-0.297c0.005-0.156,0.073-0.414,0.104-0.52l0.452,0.459c0,0,0.018-0.186-0.151-0.366
									c-0.111-0.119-0.19-0.167-0.23-0.185l0.103-0.082c0.072-0.035,0.191-0.088,0.299-0.11c0.17-0.036,0.173,0.292,0.173,0.292
									s0.057-0.105,0.022-0.229c-0.062-0.239-0.196-0.19-0.306-0.15c0.054-0.064,0.113-0.114,0.186-0.21
									C177.407,107.268,177.22,107.102,177.111,107.098z"/>
							</g>
						</g>
						<path style="fill:#DE1915;" d="M172.824,110.066c0,0,0.363-1.058,0.801-1.189c0.438-0.133,1.281-0.25,1.715,0.184
							c0.433,0.434,0.178,1.748-0.92,1.814C173.321,110.939,172.685,110.596,172.824,110.066z"/>
						<path style="opacity:0.38;fill:#B2B9DD;" d="M172.289,109.761l0.021-0.07l0.485-1.508c0.318-0.993,1.029-1.819,1.975-2.259
							c0.356-0.167,0.729-0.312,1.066-0.387c1.102-0.248,2.787,0.688,2.787,0.688s0.823,3.384,0.563,3.644
							c-0.259,0.26-0.511,1.914-0.563,1.968c-0.054,0.053-6.246-0.512-6.246-0.512L172.289,109.761z"/>
						<path style="opacity:0.27;fill:#EBEEF8;" d="M177.049,106.611c0,0,0.793-0.238,1.368,0.52c0.572,0.76,0,2.049,0,2.049
							s0.122-1.133-0.496-1.592c-0.616-0.459-1.223-0.141-1.223-0.141S176.388,106.848,177.049,106.611z"/>
						<path style="opacity:0.27;fill:#EBEEF8;" d="M175.63,106.523c-0.211-0.147-0.482-0.184-0.736-0.129
							c-0.421,0.089-1.117,0.295-1.361,0.703c-0.356,0.6-0.509,2.449-0.509,2.449s0.86-1.43,1.645-1.633
							C175.354,107.736,176.32,107.006,175.63,106.523z"/>
					</g>
					<path style="fill:#EC7171;" d="M193.764,98.645c-0.49,0.6-1.414,1.135-1.646,1.877c0.415,0.291,2.224,1.888,2.279,2.269
						c-0.044,0.628-4.11,6.011-4.156,6.044c-0.012,0.008-0.994,0.069-1.306,0.564c-0.318,0.502-0.827,1.932-0.693,1.932
						c0.04,0,0.577-0.952,0.65-1.139c-0.024,0.086-0.391,1.022-0.404,1.084c-0.09,0.379,0.034,0.42,0.074,0.42
						c0.042,0,0.311-0.914,0.468-1.244c0.158-0.33,0.194-0.193,0.118-0.117c-0.077,0.076-0.6,1.555-0.359,1.555
						c0.104,0,0.201-0.372,0.359-0.88c0.158-0.51,0.442-0.569,0.295-0.421c-0.146,0.147-0.485,1.313-0.295,1.252
						c0.132-0.044,0-0.51,1.046-1.729c0.319-0.369,1.159-0.83,1.246-1.054c0.073-0.163,5.519-5.259,5.574-6.481
						C197.029,102.25,194.476,99.266,193.764,98.645z"/>
					<path style="fill:#4698B0;" d="M189.995,98.709c-0.504-0.355-0.926-1.437-1.146-2.43c-0.16-0.727,0.468-1.621,1.211-1.564
						c0.008,0,0.016,0,0.022,0.002c0.507,0.041,3.139,2.598,4.573,4.631c-0.617,0.467-1.753,1.262-2.153,1.927
						C192.276,101.016,190.47,99.044,189.995,98.709z"/>
					<path style="opacity:0.38;fill:#B2B9DD;" d="M174.592,101.58c0,0,0.974,2.43,0.87,3.131l1.206,0.067
						c0,0,0.09-2.171,0.418-2.741c0.326-0.567-0.804-0.031-1.246-0.318C175.395,101.434,174.592,101.58,174.592,101.58z"/>
					<path style="fill:#EC7171;" d="M174.871,104.035c0,0,2.319-0.479,2.075-0.236s-1.639,0.619-1.639,0.619L174.871,104.035z"/>
					<path style="fill:#EC7171;" d="M175.155,104.418c0,0,1.523-0.43,1.668-0.189c0.144,0.24-1.616,0.531-1.616,0.531
						L175.155,104.418z"/>
					<path style="fill:#EC7171;" d="M176.979,104.734c-0.107-0.246-1.753,0.021-1.753,0.021l0.167,0.281
						C175.393,105.037,177.087,104.98,176.979,104.734z"/>
					<polygon style="opacity:0.38;fill:#B2B9DD;" points="175.462,104.711 173.244,106.781 178.623,106.225 176.625,104.588 					
						"/>
				</g>
				<path style="fill:#1B2C75;" d="M170.043,109.795c0.012,0.004,0.026,0.002,0.044-0.007c0.046-0.023,0.08-0.097,0.076-0.163
					c-0.297-4.936,2.809-6.938,2.94-7.018c0.045-0.031,0.077-0.105,0.071-0.17c-0.009-0.064-0.052-0.093-0.099-0.064
					c-0.033,0.021-3.394,2.18-3.083,7.34C169.997,109.758,170.017,109.788,170.043,109.795z"/>
			</g>
			<g>
				<g>
					<path style="fill:#422C46;" d="M211.152,145.038h-3.241l2.259-1.365l-0.246-1.082c0.517,0,0.641,0.342,1.161,0.342
						C211.232,143.727,211.152,145.038,211.152,145.038z"/>
					<path style="fill:#694E6F;" d="M217.69,94.975l-2.066,1.524l-6.265-5.896c0,0,1.347-0.34,3.324,0.232
						C214.664,91.41,217.69,94.975,217.69,94.975z"/>
					<path style="fill:#040000;" d="M219.573,99.339c0,0,0.898,2.11,0.239,3.145c-0.66,1.034-1.932,0.976-1.932,0.976l-1.103-4.341
						L219.573,99.339z"/>
					<path style="fill:#694E6F;" d="M216.211,97.359c0,0,1.707-0.381,2.415,0c0.703,0.383,1.706,2.461,1.706,2.461l-2.933,1.227
						L216.211,97.359z"/>
					<path style="fill:#391A41;" d="M205.498,91.576c0,0,3.202-0.936,4.353-0.868c0.116,0.006,0.227,0.006,0.334,0.001
						c1.223-0.066,2.687,0.143,3.489,1.068c1.863,2.148,4.516,5.931,5.522,8.405c1.525,3.745-1.943,5.349-3.961,5.511
						c-2.017,0.16-6.044,0.735-6.685,0.55C207.914,106.058,205.498,91.576,205.498,91.576z"/>
					<path style="fill:#14474B;" d="M209.175,116.746l2.494,26.874l-1.853-0.303l-3.182-14.508c0,0-2.098-13.465-2.098-18.326
						L209.175,116.746z"/>
					<path style="fill:#422C46;" d="M217.554,145.225h-3.241l2.26-1.363l-0.246-1.084c0.516,0,0.639,0.344,1.161,0.344
						C217.634,143.918,217.554,145.225,217.554,145.225z"/>
					<path style="fill:#436B6E;" d="M204.667,106.539c3.839,0.083,5.447,2.242,9.015,3.23l-0.141,1.018l0.247,17.131
						c0,0,3.688,12.074,4.43,16.084c0,0-2.108-0.125-1.987-0.125l-6.203-14.325l-2.799-13.088l-2.295-5.086L204.667,106.539z"/>
					<path style="fill:#345153;" d="M213.541,110.787l0.035,2.383c-2.651,0.315-5.354-0.035-8.054-0.486l-0.589-1.305l-0.267-4.84
						c3.839,0.083,5.447,2.242,9.015,3.23L213.541,110.787z"/>
					<polygon style="fill:#68888B;" points="207.229,116.465 210.583,129.365 216.23,143.877 210.027,129.553 					"/>
					<path style="fill:#B21D87;" d="M210.434,90.79c0,0-2.416-0.792-4.967,0.718c-2.295,1.355-2.92,14.59-2.547,19.758
						c3.752,0.576,7.54,1.277,11.231,0.629l-0.065-0.234l-1.401-8.365l0.337-4.857C213.021,98.438,214.803,91.882,210.434,90.79z"/>
					<g>
						<path style="fill:#DAE000;" d="M202.998,102.393c0.133-2.062,0.342-4.125,0.636-5.898h9.217l0.169,1.966l-0.272,3.94
							C211.039,102.449,206.113,102.564,202.998,102.393z"/>
					</g>
					<path style="fill:#EC7171;" d="M206.474,89.105c0,0,0.062,2.218,0.256,2.752c0.196,0.533,1.774,0.906,2.455,0.131
						c0.681-0.774,0.048-5.973,0.048-5.973L206.474,89.105z"/>
					<path style="fill:#EA5D58;" d="M209.359,87.271c-0.065-0.736-0.127-1.256-0.127-1.256l-2.759,3.09c0,0,0.013,0.463,0.045,1.018
						c0.379,0.049,0.84-0.077,1.386-0.421C208.616,89.252,209.083,88.187,209.359,87.271z"/>
					<path style="fill:#EC7171;" d="M205.627,82.669c0,0-0.684,0.39-0.985,1.737c-0.303,1.351,0.087,3.659,0.734,4.68
						c0.384,0.606,1.108,0.728,2.172,0.053c1.064-0.673,1.654-2.604,1.839-3.42C209.569,84.9,208.595,81.761,205.627,82.669z"/>
					<path style="fill:#5A2B53;" d="M205.246,84.625c0,0-0.322,0.86-1.126,0.854c-0.803-0.005-0.659-0.726-0.982-1.235
						s-2.249-2.063-0.087-3.431c2.163-1.369,3.16,1.515,3.922,1.317c0.761-0.197,2.131-1.012,2.58,0.105
						c0.451,1.118-0.244,1.33,0.274,1.83c0.517,0.502-0.612,2.352-0.746,2.707c-0.133,0.353-0.813,0.652-0.604-0.28
						c0.21-0.933,0.546-1.574,0.295-1.972c-0.253-0.398-0.857-0.815-0.957-0.382c-0.043,0.2-0.642,0.836-1.061,0.444
						c-0.42-0.391-0.742,0.184-1.078,0.283C205.338,84.966,205.246,84.625,205.246,84.625z"/>
					<path style="fill:#EC7171;" d="M209.005,86.61c0.021-0.144-0.292-1.388,0.458-1.273c0.751,0.116,0.667,1.415,0.085,1.578
						C208.965,87.078,209.005,86.61,209.005,86.61z"/>
					<path style="fill:#EA5D58;" d="M209.125,86.139c0,0,0.063-0.573,0.37-0.432c0.305,0.141,0.181,0.908-0.129,1.012
						C209.057,86.821,209.125,86.139,209.125,86.139z"/>
					<g>
						
							<ellipse transform="matrix(0.9838 -0.1795 0.1795 0.9838 -12.1032 38.42)" style="fill:#264399;" cx="206.267" cy="86.095" rx="0.215" ry="0.309"/>
						
							<ellipse transform="matrix(0.9838 -0.1791 0.1791 0.9838 -12.1443 38.1135)" style="fill:#264399;" cx="205.031" cy="86.322" rx="0.215" ry="0.309"/>
						<g>
							<path style="fill:#264399;" d="M206.686,88.409c0.236-0.192,0.311-0.475,0.307-0.463c0.022-0.067,0.126-0.028,0.098,0.038
								c-0.085,0.197-0.193,0.352-0.367,0.473c-0.252,0.178-0.553,0.225-0.556,0.207c0-0.004,0.003-0.007,0.006-0.008
								C206.234,88.635,206.446,88.608,206.686,88.409z"/>
						</g>
						<path style="fill:#264399;" d="M206.074,85.045l-0.029,0.205c0,0,0.293-0.168,0.559,0.066
							C206.604,85.316,206.323,84.951,206.074,85.045z"/>
						<path style="fill:#264399;" d="M204.706,85.737c0,0,0.197-0.198,0.354-0.226l-0.109-0.133
							C204.95,85.379,204.674,85.568,204.706,85.737z"/>
						<g>
							<path style="fill:#264399;" d="M205.694,88.014c-0.002-0.011-0.442-0.813-0.33-2.215c0.007-0.068,0.112-0.061,0.105,0.008
								c-0.001,0.014-0.093,1.242,0.277,2.07c0.297-0.104,0.394-0.206,0.431-0.119C206.213,87.844,206.071,87.839,205.694,88.014z"
								/>
						</g>
					</g>
					<path style="fill:#694E6F;" d="M212.851,91.295c0,0-0.72,2.924-1.297,5.199s1.466,5.676,1.466,5.676l-0.195,1.964
						c0,0-2.478-4.89-2.725-6.638c-0.248-1.75,2.115-6.495,2.115-6.495L212.851,91.295z"/>
					<polygon style="fill:#274499;" points="200.732,99.904 198.453,96.771 199.153,96.268 200.916,99.271 					"/>
					<polygon style="fill:#1C2D6F;" points="198.266,97.416 198.453,96.771 200.732,99.904 200.486,100.149 					"/>
					<path style="fill:#EC7171;" d="M198.456,99.01c0.03-0.199,0.269-0.314,0.269-0.314s-0.165-0.324-0.03-0.459
						c0.134-0.135,0.213-0.108,0.213-0.108c0.277,0.276,1.473,0.921,1.473,0.921s-0.38-0.816-0.16-1.035
						c0.218-0.219,0.379,0.494,0.758,0.874c0.379,0.379,1.333,2.161,1.471,2.299s5.553,2.2,5.553,2.2
						c0.633-0.217,1.065-1.332,1.355-2.701c1.313,0.354,2.528,0.738,3.735,1.241c-1.414,3.202-3.847,5.258-5.425,4.776
						c-1.886-0.574-6.552-5.057-6.552-5.057s-2.453-1.487-2.453-1.755c0-0.269,0.04-0.384,0.04-0.384S198.426,99.209,198.456,99.01z
						"/>
					<path style="fill:#C266A4;" d="M212.535,91.722c0,0,0.819-0.397,2.201,0.983c1.38,1.381-1.717,10.634-1.717,10.634
						l-3.901-2.843L212.535,91.722z"/>
				</g>
				<g>
					<path style="fill:#1B2C75;" d="M200.732,86.438c0.019,0,0.039-0.005,0.06-0.016c0.055-0.033,0.073-0.104,0.041-0.16
						c-2.425-4.163,1.121-6.655,1.272-6.759c0.054-0.035,0.066-0.109,0.03-0.162c-0.036-0.054-0.107-0.067-0.162-0.031
						c-0.039,0.026-3.878,2.716-1.344,7.069C200.652,86.418,200.691,86.438,200.732,86.438z"/>
				</g>
				<g>
					<path style="fill:#1B2C75;" d="M221.014,107.979c0.046,0,0.089-0.026,0.107-0.07c2.218-5.129-0.655-11.303-0.684-11.364
						c-0.028-0.058-0.098-0.084-0.156-0.057c-0.057,0.028-0.083,0.099-0.056,0.157c0.029,0.061,2.855,6.141,0.681,11.171
						c-0.026,0.059,0.003,0.128,0.061,0.153C220.982,107.975,220.999,107.979,221.014,107.979z"/>
				</g>
			</g>
		</g>
		<g>
			<g>
				<g>
					<rect x="63.373" y="127.379" style="fill:#486FB6;" width="7.919" height="7.918"/>
					<rect x="65.814" y="127.379" style="fill:#6A96CF;" width="7.918" height="7.918"/>
				</g>
				<g>
					<rect x="70.12" y="135.297" style="fill:#CF6519;" width="8.498" height="8.499"/>
					<rect x="72.74" y="135.297" style="fill:#E89F50;" width="8.498" height="8.499"/>
					<polygon style="fill:#C05B1C;" points="72.74,135.297 70.12,136.886 70.12,135.297 					"/>
				</g>
				<g>
					<g>
						<rect x="60.252" y="135.297" style="fill:#CF6519;" width="8.499" height="8.499"/>
						<rect x="62.872" y="135.297" style="fill:#E89F50;" width="8.5" height="8.499"/>
						<polygon style="fill:#C05B1C;" points="62.872,135.297 60.252,136.886 60.252,135.297 						"/>
					</g>
					<g>
						<polygon style="fill:#FAD2AA;" points="64.508,140.26 61.214,140.26 61.353,139.876 61.214,139.46 64.477,139.46 
							64.277,139.891 						"/>
						<polygon style="fill:#C05B1C;" points="62.861,139.46 62.861,140.26 61.214,140.26 61.353,139.876 61.214,139.46 						"/>
					</g>
				</g>
				<g>
					<g>
						<rect x="78.539" y="138.813" style="fill:#CF6519;" width="4.887" height="4.886"/>
						<rect x="80.046" y="138.813" style="fill:#E89F50;" width="4.887" height="4.886"/>
						<polygon style="fill:#C05B1C;" points="80.046,138.813 78.539,139.726 78.539,138.813 						"/>
					</g>
					<rect x="81.982" y="139.852" style="fill:#486FB6;" width="3.848" height="3.848"/>
					<rect x="83.167" y="139.852" style="fill:#6A96CF;" width="3.851" height="3.848"/>
					
						<rect x="83.536" y="142.626" transform="matrix(0.9806 -0.1959 0.1959 0.9806 -26.375 19.2732)" style="fill:#EAF1F9;" width="1.456" height="0.741"/>
					<g>
						<polygon style="fill:#EAF1F9;" points="83.861,140.832 82.469,140.832 82.529,140.671 82.469,140.494 83.848,140.494 
							83.763,140.676 						"/>
						<polygon style="fill:#A6C1E5;" points="83.165,140.494 83.165,140.832 82.469,140.832 82.529,140.671 82.469,140.494 						
							"/>
					</g>
					<g>
						<polygon style="fill:#FAD2AA;" points="80.868,139.87 79.224,139.87 79.294,139.678 79.224,139.472 80.854,139.472 
							80.754,139.687 						"/>
						<polygon style="fill:#C05B1C;" points="80.046,139.472 80.046,139.87 79.224,139.87 79.294,139.678 79.224,139.472 						"/>
					</g>
					<g>
						<polygon style="fill:#FAD2AA;" points="80.868,142.823 79.224,142.823 79.294,142.629 79.224,142.422 80.854,142.422 
							80.754,142.637 						"/>
						<polygon style="fill:#C05B1C;" points="80.046,142.422 80.046,142.823 79.224,142.823 79.294,142.629 79.224,142.422 						
							"/>
					</g>
				</g>
				<g>
					<rect x="67.497" y="137.063" style="fill:#486FB6;" width="6.761" height="6.76"/>
					<rect x="69.582" y="137.063" style="fill:#6A96CF;" width="6.761" height="6.76"/>
					
						<rect x="74.229" y="137.623" transform="matrix(0.9806 -0.1962 0.1962 0.9806 -25.6288 17.4119)" style="fill:#EAF1F9;" width="1.652" height="0.839"/>
					<g>
						<polygon style="fill:#EAF1F9;" points="70.479,138.133 68.646,138.133 68.724,137.919 68.646,137.688 70.462,137.688 
							70.35,137.929 						"/>
						<polygon style="fill:#A6C1E5;" points="69.563,137.688 69.563,138.133 68.646,138.133 68.724,137.919 68.646,137.688 						
							"/>
					</g>
					<g>
						<polygon style="fill:#EAF1F9;" points="70.479,143.168 68.646,143.168 68.724,142.956 68.646,142.723 70.462,142.723 
							70.35,142.965 						"/>
						<polygon style="fill:#A6C1E5;" points="69.563,142.723 69.563,143.168 68.646,143.168 68.724,142.956 68.646,142.723 						
							"/>
					</g>
				</g>
				<g>
					<polygon style="fill:#EAF1F9;" points="67.109,129.611 64.504,129.611 64.613,129.307 64.504,128.978 67.084,128.978 
						66.925,129.318 					"/>
					<polygon style="fill:#A6C1E5;" points="65.805,128.978 65.805,129.611 64.504,129.611 64.613,129.307 64.504,128.978 					"/>
				</g>
			</g>
			<g>
				<path style="fill:#EA5D58;" d="M71.692,92.432c-0.033-0.216-0.291-0.342-0.291-0.342s0.179-0.354,0.033-0.498
					c-0.146-0.146-0.233-0.117-0.233-0.117c-0.3,0.299-1.598,0.998-1.598,0.998s0.412-0.887,0.175-1.122
					c-0.238-0.239-0.412,0.536-0.824,0.948c-0.412,0.411-1.448,2.347-1.597,2.496c-0.15,0.15-6.031,2.39-6.031,2.39
					c-0.687-0.235-4.236-7.094-4.552-8.579c-1.426,0.383,0.333,6.447-0.98,6.994c1.537,3.478,4.182,5.711,5.895,5.188
					c2.048-0.623,7.114-5.492,7.114-5.492s2.664-1.614,2.664-1.906c0-0.291-0.041-0.416-0.041-0.416S71.727,92.647,71.692,92.432z"
					/>
				<polygon style="fill:#274499;" points="69.221,93.402 71.694,90.002 70.936,89.453 69.021,92.714 				"/>
				<polygon style="fill:#1C2D6F;" points="71.9,90.7 71.694,90.002 69.221,93.402 69.486,93.668 				"/>
				<path style="fill:#EA5D58;" d="M71.435,91.592c0,0-1.136-0.705-1.471-0.484c-0.337,0.221,1.438,0.982,1.438,0.982L71.435,91.592
					z"/>
				<path style="fill:#EA5D58;" d="M71.426,92.973c0,0-1.36-0.729-1.504-1.138c-0.146-0.409,1.479,0.255,1.479,0.255L71.426,92.973z
					"/>
				<path style="fill:#EA5D58;" d="M71.344,93.452c0,0-1.693-0.657-1.693-0.995s1.775,0.516,1.775,0.516L71.344,93.452z"/>
				<g>
					<path style="fill:#EA5D58;" d="M55.759,137.773h2.027c-0.269,3.297-0.416,5.891-0.237,6.114
						c0.564,0.699,2.661,1.477,2.661,1.477c-0.846-0.061-3.736-0.174-3.736-0.174l0.065-1.488
						C56.419,143.137,56.105,140.688,55.759,137.773z"/>
					<path style="fill:#54556C;" d="M54.519,126.215c-0.185-2.677-0.682-18.444-0.682-18.444l4.718-0.743l0.688,15.736
						c0,0-0.548,8.906-1.058,15.147l-3.249-0.093C54.408,133.387,54.63,127.83,54.519,126.215z"/>
					<path style="fill:#1C3135;" d="M58.619,144.61c0,0,2.674,0.758,2.592,1.004c-0.084,0.248-4.843-0.336-4.843-0.336l0.103-1.104
						c0,0,1.748,0.717,1.96,0.658S58.619,144.61,58.619,144.61z"/>
					<path style="fill:#EC7171;" d="M49.493,137.773h2.213c-0.543,3.313-1.043,6.305-1.043,6.305l1.068,2.58
						c0,0,0.058,0.59-0.415,0.961c-0.472,0.373-1.313-0.15-1.491-0.338s-0.095-1.525-0.022-2.688
						C49.832,144.122,49.66,141.188,49.493,137.773z"/>
					<path style="fill:#1C3135;" d="M50.709,146.725c0.361-0.115,0.601-0.457,0.741-0.744l0.281,0.678c0,0,0.302,1.08-0.172,1.453
						c-0.472,0.371-1.557-0.643-1.734-0.83c-0.095-0.102-0.115-0.529-0.104-1.084C49.963,146.508,50.328,146.846,50.709,146.725z"/>
					<path style="fill:#A8A8D3;" d="M49.433,125.896c0.33-0.686,0.546-1.457,0.681-2.08l0,0l-0.306-16.075l6.455-0.105
						c0,0-2.908,26.385-3.529,30.183l-3.24-0.045C49.249,132.781,49.015,126.762,49.433,125.896z"/>
					<path style="fill:#253249;" d="M53.183,76.227c0,0-2.103-0.924-3.074,0.877c-0.973,1.801,0.169,7.02-0.676,7.715
						c-0.846,0.695-2.198,0-2.198,0s-0.464,0.95,0.888,1.328c1.353,0.376,2.223,0.729,2.103,0.829
						c-0.122,0.099,1.204-0.544,1.204-0.544l1.07,0.544l0.54-0.544l1.738,0.544c0,0-0.241-0.421-0.092-0.544
						c0.148-0.123,1.65,0.926,2.508-0.117c0.857-1.044-0.419-1.357-0.419-1.357s0.647,0.638-0.295,0.638
						c-0.941,0-4.216-3.771-3.297-5.653C54.103,78.06,53.183,76.227,53.183,76.227z"/>
					<path style="fill:#003B63;" d="M49.808,107.741c0.576-2.948,2.163-3.585,2.163-4.743c0-1.414-2.37-8.771-2.37-8.771
						c0.638-0.636-0.931-5.274,0.04-6.612c0.538-0.741,3.58-0.785,3.58-0.785l2.237,0.547c0.687,0.168,1.257,0.645,1.542,1.292
						c0.49,1.12,1.248,2.911,1.614,4.099c0.243,0.791-0.204,1.889-0.33,3.284c-0.168,1.849-0.098,4.116-0.299,5.847
						c-0.088,0.746,1.087,4.34,1.257,6.397C56.329,108.163,52.708,107.871,49.808,107.741z"/>
					<path style="fill:#464768;" d="M51.438,77.146c0.37-0.371,1.874-0.459,1.874-0.459h0.111c0.472-0.18,2.962,3.521,2.648,5.496
						c-0.314,1.974-0.539,1.771-1.952,2.02c-1.412,0.246-2.468-0.808-2.824-1.975C50.938,81.062,51.068,77.516,51.438,77.146z"/>
					<path style="fill:#EC7171;" d="M55.489,83.461c0.041,0.043-0.003,0.559-0.042,1.207c-0.056,0.934,0.177,2.616,0.137,2.616
						c0,0-0.073,1.476-0.794,1.562c-0.628,0.074-1.768-0.67-1.892-1.245c-0.168-0.773,0-4.644,0-4.644L55.489,83.461z"/>
					<path style="fill:#EA5D58;" d="M55.447,84.668c-0.958,0.867-1.863,0.473-2.589-0.614c0.017-0.548,0.038-1.065,0.04-1.097
						l2.591,0.504C55.53,83.504,55.486,84.02,55.447,84.668z"/>
					<path style="fill:#EC7171;" d="M55.187,76.913c0,0,1.214,0.231,1.357,1.272c0.146,1.041,0.348,1.907,0.146,3.121
						c-0.202,1.213-0.925,2.832-2.11,3.092c-1.186,0.261-2.428-1.704-2.428-2.773c0-1.07-0.433-2.861,0.375-3.96
						C53.336,76.566,55.187,76.913,55.187,76.913z"/>
					<path style="fill:#EA5D58;" d="M53.335,77.063c1.215-0.481,3.03-0.169,3.209,1.122c0.132,0.942,0.31,1.743,0.191,2.789
						c-0.192-0.133-0.468-0.268-0.854-0.395c-1.068-0.354-2.106-2.127-2.58-3.152C53.302,77.399,53.278,77.268,53.335,77.063z"/>
					<path style="fill:#464768;" d="M52.469,81.017c0,0-0.462-0.534-0.693-0.765c-0.23-0.232-0.809-2.516-0.23-3.295
						c0.577-0.779,1.685-0.823,2.568-0.926c0.885-0.101,2.288,0.572,2.366,1.891c0,0-2.275-0.864-2.912-0.562
						c-0.635,0.305-0.896,0.665-1.025,1.374C52.411,79.442,52.469,81.017,52.469,81.017z"/>
					<path style="fill:#EC7171;" d="M52.469,81.017c0,0-0.309-1.342-0.824-1.017c-0.515,0.323,0.039,1.81,0.518,1.81
						C52.644,81.81,52.469,81.017,52.469,81.017z"/>
					<path style="fill:#EA5D58;" d="M51.969,80.281c0,0,0.762,1.221,0.238,1.086C51.686,81.232,51.479,80.055,51.969,80.281z"/>
					<g>
						<path style="fill:#1B2B5C;" d="M55.197,81.812c-0.033-0.331-0.055-0.663-0.052-0.999c0.076,0.424,0.093,0.732,0.117,1.04
							c-0.177,0.049-0.389,0.147-0.654,0.046C54.811,81.939,55.013,81.881,55.197,81.812z"/>
					</g>
					<path style="fill:#1B2B5C;" d="M54.541,80.781c-0.062-0.192-0.225-0.375-0.448-0.434c-0.396-0.104-0.638,0.467-0.91,0.461
						c0.196,0.101,0.508-0.233,0.723-0.318c0.116-0.047,0.22-0.014,0.334,0.039C54.351,80.586,54.451,80.677,54.541,80.781z"/>
					<ellipse style="fill:#1B2B5C;" cx="54.015" cy="80.609" rx="0.193" ry="0.218"/>
					<path style="fill:#1B2B5C;" d="M55.422,80.904c0.068-0.188,0.241-0.363,0.466-0.412c0.401-0.086,0.617,0.496,0.888,0.502
						c-0.197,0.091-0.495-0.256-0.706-0.35c-0.115-0.053-0.22-0.026-0.335,0.023C55.619,80.721,55.516,80.805,55.422,80.904z"/>
					
						<ellipse transform="matrix(0.999 0.0455 -0.0455 0.999 3.7342 -2.4634)" style="fill:#1B2B5C;" cx="55.954" cy="80.757" rx="0.193" ry="0.218"/>
					<path style="fill:#1B2B5C;" d="M54.682,79.855c0.043-0.028-0.303-0.377-0.719-0.414c-0.415-0.04-0.863,0.414-0.863,0.414
						s0.611-0.363,0.869-0.246S54.441,80.012,54.682,79.855z"/>
					<g>
						<path style="fill:#1B2B5C;" d="M55.254,83.002c0.044-0.008,0.033-0.076-0.011-0.068c-0.005,0.001-0.687,0.094-1.255-0.354
							c-0.036-0.027-0.076,0.025-0.042,0.053C54.331,82.936,54.879,83.058,55.254,83.002z"/>
					</g>
					<g>
						<path style="fill:#1B2B5C;" d="M54.743,83.221c0.019,0,0.033-0.014,0.034-0.031c0.008-0.084-0.496-0.023-0.683-0.329
							c-0.023-0.039-0.08-0.003-0.058,0.036c0.172,0.281,0.684,0.323,0.704,0.324H54.743z"/>
					</g>
					<path style="fill:#5E5998;" d="M55.298,76.27c1.114,0.246,1.449,1.959,2.36,2.869c0.91,0.91,0.678,2.226,0.245,3.093
						c-0.434,0.867-1.129,0.304-1.129,0.304s0.363,0.202,0.595-0.52c0.229-0.724-0.175-1.287-1.403-1.692
						c-1.228-0.404-2.398-2.963-2.398-2.963C53.537,76.861,54.187,76.024,55.298,76.27z"/>
					<path style="fill:#013034;" d="M55.796,80.102c0.554,0.229,1.245,0.449,1.562,0.972c0.435,0.675-0.161,1.708-0.583,1.462
						c0.15,0.055,0.294-0.037,0.371-0.152c0.186-0.268,0.316-0.832,0.04-1.195c-0.344-0.464-1.057-0.655-1.29-0.75l-0.228-0.098
						c-0.946-0.561-1.73-1.966-2.101-2.979C54.078,78.211,54.92,79.6,55.796,80.102z"/>
					<path style="fill:#EC7171;" d="M48.295,112.139L48.295,112.139c-1.829-5.1-0.736-11.477-0.736-11.477l0,0
						c-0.027-2.044-0.065-8.124,0.404-9.793c0.565-2.016,1.678-3.254,1.678-3.254s1.006,2.83,1.006,4.139
						c0,1.307-0.603,5.552-0.603,6.719c0,2.843-0.259,12.35-0.133,12.721c0.23,0.68,1.232,1.607,1.441,1.771
						c0.207,0.164,0.562,0.287,0.286,0.633c-0.272,0.348-0.083,0.25-0.416,0.527c-0.332,0.278-0.286,0.248-0.492,0.737
						c-0.208,0.49-2.113-0.319-2.26-0.592s-0.445-1.12-0.256-1.646C48.259,112.507,48.282,112.334,48.295,112.139z"/>
				</g>
				<g>
					<path style="fill:#1B2B5C;" d="M67.872,99.84c0.005,0,0.011,0,0.014-0.001c5.103-0.532,6.322-5.732,6.334-5.785
						c0.015-0.068-0.029-0.136-0.098-0.151c-0.069-0.016-0.135,0.027-0.15,0.096c-0.013,0.051-1.194,5.077-6.112,5.588
						c-0.069,0.008-0.121,0.07-0.112,0.141C67.753,99.791,67.809,99.84,67.872,99.84z"/>
				</g>
			</g>
		</g>
	</g>
</g>
</svg>
