<?xml version="1.0" encoding="iso-8859-1"?>
<!-- Generator: Adobe Illustrator 16.0.0, SVG Export Plug-In . SVG Version: 6.00 Build 0)  -->
<!DOCTYPE svg PUBLIC "-//W3C//DTD SVG 1.1//EN" "http://www.w3.org/Graphics/SVG/1.1/DTD/svg11.dtd">
<svg version="1.1" id="&#x5716;&#x5C64;_1" xmlns="http://www.w3.org/2000/svg" xmlns:xlink="http://www.w3.org/1999/xlink" x="0px"
	 y="0px" width="185.471px" height="32.839px" viewBox="0 0 185.471 32.839" style="enable-background:new 0 0 185.471 32.839;"
	 xml:space="preserve">
<path style="fill:#FFFFFF;stroke:#B5B5B6;stroke-miterlimit:10;" d="M169.052,0.5H16.419C7.627,0.5,0.5,7.627,0.5,16.419
	s7.127,15.919,15.919,15.919h152.632c8.792,0,15.919-7.127,15.919-15.919S177.844,0.5,169.052,0.5z"/>
<g>
	<path style="opacity:0.5;fill:#B5B5B6;" d="M162.729,25.451h-9.665c0-4.64,2.166-8.397,4.834-8.397
		C160.567,17.054,162.729,20.812,162.729,25.451z"/>
	<path style="opacity:0.5;fill:#B5B5B6;" d="M173.914,25.451h-9.665c0-4.64,2.163-8.397,4.834-8.397
		C171.75,17.054,173.914,20.812,173.914,25.451z"/>
	<path style="fill:#B5B5B6;" d="M169.125,25.451h-11.271c0-5.742,2.523-10.394,5.637-10.394
		C166.603,15.057,169.125,19.709,169.125,25.451z"/>
	<ellipse style="opacity:0.5;fill:#B5B5B6;" cx="157.875" cy="13.198" rx="3.866" ry="3.204"/>
	<ellipse style="opacity:0.5;fill:#B5B5B6;" cx="169.104" cy="13.198" rx="3.866" ry="3.204"/>
	<ellipse style="fill:#B5B5B6;" cx="163.469" cy="10.499" rx="3.866" ry="3.205"/>
</g>
<polygon style="fill:#E8C41D;stroke:#E8C41D;stroke-width:0.75;stroke-miterlimit:10;" points="72.056,7.465 74.965,13.362 
	81.475,14.307 76.765,18.898 77.876,25.382 72.056,22.322 66.236,25.382 67.347,18.898 62.637,14.307 69.145,13.362 "/>
<g>
	<path style="fill:#2C50A2;stroke:#2C50A2;stroke-miterlimit:10;" d="M107.153,8.437c-1.72,0-3.244,0.839-4.183,2.132
		c-0.941-1.292-2.464-2.132-4.184-2.132c-2.857,0-5.173,2.316-5.173,5.173c0,4.347,9.357,11.356,9.357,11.356
		s9.356-7.009,9.356-11.356C112.326,10.752,110.011,8.437,107.153,8.437z"/>
</g>
<g>
	<path d="M137.98,10.22l-1.852,1.803c-0.844-0.869-1.678-1.304-2.503-1.304c-0.486,0-0.881,0.129-1.185,0.388
		s-0.455,0.559-0.455,0.896c0,0.288,0.135,0.572,0.402,0.854c0.263,0.288,0.793,0.595,1.592,0.921
		c1.42,0.588,2.392,1.09,2.916,1.506c0.523,0.415,0.927,0.914,1.208,1.496c0.281,0.581,0.422,1.233,0.422,1.956
		s-0.15,1.39-0.451,2.004c-0.301,0.613-0.687,1.1-1.16,1.457c-0.473,0.358-1.154,0.63-2.042,0.815v2.561h-1.803v-2.503
		c-0.838-0.097-1.551-0.307-2.139-0.633c-0.806-0.447-1.554-1.042-2.244-1.783l1.822-1.87c1.17,1.246,2.301,1.87,3.395,1.87
		c0.557,0,1.033-0.193,1.434-0.581c0.399-0.386,0.6-0.842,0.6-1.366c0-0.441-0.128-0.827-0.384-1.16
		c-0.263-0.332-0.768-0.672-1.516-1.017c-1.521-0.703-2.551-1.261-3.087-1.674c-0.537-0.411-0.938-0.876-1.204-1.39
		c-0.265-0.516-0.397-1.063-0.397-1.645c0-0.966,0.351-1.792,1.054-2.479s1.593-1.057,2.667-1.107V7.275h1.803v1.083
		c0.619,0.148,1.146,0.346,1.577,0.596C136.882,9.202,137.391,9.624,137.98,10.22z"/>
</g>
<line style="fill:none;stroke:#B5B5B6;stroke-miterlimit:10;" x1="50.137" y1="5.7" x2="50.137" y2="27.405"/>
<g>
	<path style="opacity:0.5;fill:#036EB8;" d="M22.823,25.673h-9.646c0-4.631,2.161-8.381,4.825-8.381
		C20.665,17.292,22.823,21.042,22.823,25.673z"/>
	<path style="opacity:0.5;fill:#036EB8;" d="M33.987,25.673H24.34c0-4.631,2.159-8.381,4.825-8.381
		C31.827,17.292,33.987,21.042,33.987,25.673z"/>
	<path style="fill:#036EB8;" d="M29.208,25.673H17.957c0-5.731,2.519-10.375,5.626-10.375
		C26.689,15.298,29.208,19.941,29.208,25.673z"/>
	<ellipse style="opacity:0.5;fill:#036EB8;" cx="17.979" cy="13.442" rx="3.859" ry="3.199"/>
	<ellipse style="opacity:0.5;fill:#036EB8;" cx="29.186" cy="13.442" rx="3.859" ry="3.199"/>
	<ellipse style="fill:#036EB8;" cx="23.561" cy="10.749" rx="3.859" ry="3.198"/>
</g>
</svg>
