<?xml version="1.0" encoding="iso-8859-1"?>
<!-- Generator: Adobe Illustrator 16.0.0, SVG Export Plug-In . SVG Version: 6.00 Build 0)  -->
<!DOCTYPE svg PUBLIC "-//W3C//DTD SVG 1.1//EN" "http://www.w3.org/Graphics/SVG/1.1/DTD/svg11.dtd">
<svg version="1.1" id="&#x5716;&#x5C64;_1" xmlns="http://www.w3.org/2000/svg" xmlns:xlink="http://www.w3.org/1999/xlink" x="0px"
	 y="0px" width="20.85px" height="18.157px" viewBox="0 0 20.85 18.157" style="enable-background:new 0 0 20.85 18.157;"
	 xml:space="preserve">
<g>
	<path style="opacity:0.5;fill:#B5B5B6;" d="M9.665,18.157H0c0-4.64,2.166-8.397,4.834-8.397C7.503,9.76,9.665,13.518,9.665,18.157z
		"/>
	<path style="opacity:0.5;fill:#B5B5B6;" d="M20.85,18.157h-9.665c0-4.64,2.163-8.397,4.834-8.397
		C18.686,9.76,20.85,13.518,20.85,18.157z"/>
	<path style="fill:#B5B5B6;" d="M16.061,18.157H4.79c0-5.742,2.523-10.394,5.637-10.394C13.538,7.763,16.061,12.415,16.061,18.157z"
		/>
	<ellipse style="opacity:0.5;fill:#B5B5B6;" cx="4.811" cy="5.904" rx="3.866" ry="3.204"/>
	<ellipse style="opacity:0.5;fill:#B5B5B6;" cx="16.039" cy="5.904" rx="3.866" ry="3.204"/>
	<ellipse style="fill:#B5B5B6;" cx="10.405" cy="3.205" rx="3.866" ry="3.205"/>
</g>
</svg>
