<?xml version="1.0" encoding="iso-8859-1"?>
<!-- Generator: Adobe Illustrator 16.0.0, SVG Export Plug-In . SVG Version: 6.00 Build 0)  -->
<!DOCTYPE svg PUBLIC "-//W3C//DTD SVG 1.1//EN" "http://www.w3.org/Graphics/SVG/1.1/DTD/svg11.dtd">
<svg version="1.1" id="&#x5716;&#x5C64;_1" xmlns="http://www.w3.org/2000/svg" xmlns:xlink="http://www.w3.org/1999/xlink" x="0px"
	 y="0px" width="9.839px" height="18.297px" viewBox="0 0 9.839 18.297" style="enable-background:new 0 0 9.839 18.297;"
	 xml:space="preserve">
<g>
	<path d="M9.293,2.944L7.441,4.747C6.598,3.878,5.764,3.443,4.938,3.443c-0.486,0-0.881,0.129-1.185,0.388S3.299,4.39,3.299,4.728
		c0,0.288,0.135,0.572,0.402,0.854c0.263,0.288,0.793,0.595,1.592,0.921c1.42,0.588,2.392,1.09,2.916,1.506
		c0.523,0.415,0.927,0.914,1.208,1.496c0.281,0.581,0.422,1.233,0.422,1.956s-0.15,1.39-0.451,2.004
		c-0.301,0.613-0.687,1.1-1.16,1.457c-0.473,0.358-1.154,0.63-2.042,0.815v2.561H4.383v-2.503c-0.838-0.097-1.551-0.307-2.139-0.633
		C1.438,14.714,0.69,14.119,0,13.378l1.822-1.87c1.17,1.246,2.301,1.87,3.395,1.87c0.557,0,1.033-0.193,1.434-0.581
		c0.399-0.386,0.6-0.842,0.6-1.366c0-0.441-0.128-0.827-0.384-1.16C6.604,9.938,6.099,9.599,5.351,9.254
		C3.829,8.551,2.8,7.993,2.264,7.58C1.727,7.169,1.325,6.704,1.06,6.19C0.795,5.675,0.662,5.127,0.662,4.546
		c0-0.966,0.351-1.792,1.054-2.479S3.309,1.01,4.383,0.959V0h1.803v1.083c0.619,0.148,1.146,0.346,1.577,0.596
		C8.194,1.927,8.703,2.349,9.293,2.944z"/>
</g>
</svg>
