<?xml version="1.0" encoding="iso-8859-1"?>
<!-- Generator: Adobe Illustrator 16.0.0, SVG Export Plug-In . SVG Version: 6.00 Build 0)  -->
<!DOCTYPE svg PUBLIC "-//W3C//DTD SVG 1.1//EN" "http://www.w3.org/Graphics/SVG/1.1/DTD/svg11.dtd">
<svg version="1.1" id="&#x5716;&#x5C64;_1" xmlns="http://www.w3.org/2000/svg" xmlns:xlink="http://www.w3.org/1999/xlink" x="0px"
	 y="0px" width="20.811px" height="18.123px" viewBox="0 0 20.811 18.123" style="enable-background:new 0 0 20.811 18.123;"
	 xml:space="preserve">
<g>
	<path style="opacity:0.5;fill:#036EB8;" d="M9.646,18.123H0c0-4.631,2.161-8.381,4.825-8.381
		C7.489,9.742,9.646,13.492,9.646,18.123z"/>
	<path style="opacity:0.5;fill:#036EB8;" d="M20.811,18.123h-9.646c0-4.631,2.159-8.381,4.825-8.381
		C18.651,9.742,20.811,13.492,20.811,18.123z"/>
	<path style="fill:#036EB8;" d="M16.031,18.123H4.78c0-5.731,2.519-10.375,5.626-10.375C13.513,7.749,16.031,12.392,16.031,18.123z"
		/>
	<ellipse style="opacity:0.5;fill:#036EB8;" cx="4.802" cy="5.893" rx="3.859" ry="3.199"/>
	<ellipse style="opacity:0.5;fill:#036EB8;" cx="16.009" cy="5.893" rx="3.859" ry="3.199"/>
	<ellipse style="fill:#036EB8;" cx="10.385" cy="3.199" rx="3.859" ry="3.198"/>
</g>
</svg>
